<svg width="327" height="183" viewBox="0 0 327 183" fill="none" xmlns="http://www.w3.org/2000/svg">
<mask id="path-1-inside-1_135_2566" fill="white">
<path fill-rule="evenodd" clip-rule="evenodd" d="M0 10.5C0 4.97715 4.47715 0.5 10 0.5H317C322.523 0.5 327 4.97715 327 10.5V139.536C322.582 139.536 319 142.992 319 147.256C319 151.52 322.582 154.976 327 154.976V172.676C327 178.199 322.523 182.676 317 182.676H10C4.47716 182.676 0 178.199 0 172.676V154.976C4.41828 154.976 8 151.52 8 147.256C8 142.992 4.41828 139.536 0 139.536V10.5Z"/>
</mask>
<path fill-rule="evenodd" clip-rule="evenodd" d="M0 10.5C0 4.97715 4.47715 0.5 10 0.5H317C322.523 0.5 327 4.97715 327 10.5V139.536C322.582 139.536 319 142.992 319 147.256C319 151.52 322.582 154.976 327 154.976V172.676C327 178.199 322.523 182.676 317 182.676H10C4.47716 182.676 0 178.199 0 172.676V154.976C4.41828 154.976 8 151.52 8 147.256C8 142.992 4.41828 139.536 0 139.536V10.5Z" fill="white"/>
<path d="M327 139.536V140.536H328V139.536H327ZM327 154.976H328V153.976H327V154.976ZM0 154.976V153.976H-1V154.976H0ZM0 139.536H-1V140.536H0V139.536ZM10 -0.5C3.92487 -0.5 -1 4.42486 -1 10.5H1C1 5.52943 5.02944 1.5 10 1.5V-0.5ZM317 -0.5H10V1.5H317V-0.5ZM328 10.5C328 4.42487 323.075 -0.5 317 -0.5V1.5C321.971 1.5 326 5.52944 326 10.5H328ZM328 139.536V10.5H326V139.536H328ZM320 147.256C320 143.578 323.1 140.536 327 140.536V138.536C322.063 138.536 318 142.407 318 147.256H320ZM327 153.976C323.1 153.976 320 150.934 320 147.256H318C318 152.105 322.063 155.976 327 155.976V153.976ZM328 172.676V154.976H326V172.676H328ZM317 183.676C323.075 183.676 328 178.751 328 172.676H326C326 177.647 321.971 181.676 317 181.676V183.676ZM10 183.676H317V181.676H10V183.676ZM-1 172.676C-1 178.751 3.92487 183.676 10 183.676V181.676C5.02944 181.676 1 177.647 1 172.676H-1ZM-1 154.976V172.676H1V154.976H-1ZM7 147.256C7 150.934 3.89987 153.976 0 153.976V155.976C4.93668 155.976 9 152.105 9 147.256H7ZM0 140.536C3.89987 140.536 7 143.578 7 147.256H9C9 142.407 4.93668 138.536 0 138.536V140.536ZM-1 10.5V139.536H1V10.5H-1Z" fill="#DFDFDF" mask="url(#path-1-inside-1_135_2566)"/>
</svg>
