<?xml version="1.0" standalone="no"?>
<!DOCTYPE svg PUBLIC "-//W3C//DTD SVG 20010904//EN"
 "http://www.w3.org/TR/2001/REC-SVG-20010904/DTD/svg10.dtd">
<svg version="1.0" xmlns="http://www.w3.org/2000/svg"
 width="512.000000pt" height="512.000000pt" viewBox="0 0 512.000000 512.000000"
 preserveAspectRatio="xMidYMid meet">

<g transform="translate(0.000000,512.000000) scale(0.100000,-0.100000)"
fill="#000000" stroke="none">
<path d="M2299 5106 c-103 -28 -190 -103 -238 -205 l-26 -56 -3 -1207 -2
-1208 -945 0 c-642 0 -953 -3 -972 -11 -38 -14 -83 -57 -99 -96 -11 -26 -14
-159 -14 -723 0 -677 0 -690 20 -710 25 -25 92 -27 111 -3 12 13 15 141 19
702 l5 686 373 3 372 2 0 -349 c0 -328 1 -350 19 -372 l19 -24 324 -3 c317 -3
325 -2 351 18 l27 21 0 355 0 354 373 -2 372 -3 0 -1060 0 -1060 -1115 0
-1115 0 -3 205 c-2 193 -4 205 -24 227 -28 30 -80 31 -109 2 -19 -19 -20 -29
-17 -249 l3 -228 30 -38 c17 -20 46 -45 65 -56 34 -18 108 -18 2390 -16 l2355
3 57 27 c79 37 142 98 181 177 l32 66 3 1653 2 1653 -24 24 c-32 32 -75 33
-104 2 l-22 -23 0 -1227 0 -1227 -1215 0 -1215 0 0 588 0 587 -23 40 c-13 22
-40 49 -62 62 -35 20 -54 23 -157 23 l-118 0 0 990 0 990 1395 0 1395 0 0
-235 0 -236 25 -24 c31 -32 69 -32 101 0 l25 25 -3 453 -3 452 -32 66 c-39 79
-102 140 -181 177 l-57 27 -1250 2 c-970 1 -1260 -1 -1296 -11z m2525 -148
c53 -16 118 -81 134 -134 6 -23 12 -91 12 -153 l0 -111 -1395 0 -1395 0 0 118
c0 102 3 123 24 168 25 53 69 94 121 112 46 16 2445 16 2499 0z m-3334 -2978
l0 -300 -220 0 -220 0 0 300 0 300 220 0 220 0 0 -300z m3480 -1327 c0 -323
-1 -329 -24 -378 -27 -59 -46 -77 -106 -104 -44 -20 -60 -21 -1172 -21 l-1128
0 0 415 0 415 1215 0 1215 0 0 -327z"/>
<path d="M3243 4820 c-44 -18 -57 -86 -23 -120 19 -19 33 -20 355 -20 322 0
336 1 355 20 25 25 26 71 1 101 l-19 24 -324 2 c-177 1 -333 -2 -345 -7z"/>
<path d="M3245 783 c-119 -62 -165 -196 -106 -311 25 -48 55 -76 111 -101 42
-19 65 -21 325 -21 260 0 283 2 325 21 80 36 125 96 136 183 12 88 -44 185
-133 230 -47 24 -613 23 -658 -1z m625 -160 c26 -33 21 -79 -11 -105 -19 -16
-48 -18 -284 -18 -236 0 -265 2 -284 18 -32 26 -37 72 -11 105 l21 27 274 0
274 0 21 -27z"/>
<path d="M3213 4099 c-42 -27 -65 -66 -108 -179 -19 -51 -39 -97 -46 -101 -6
-4 -63 -10 -125 -14 -225 -14 -279 -87 -220 -293 39 -134 40 -130 -62 -212
-99 -78 -132 -126 -132 -190 0 -65 34 -114 133 -191 101 -80 100 -76 61 -211
-60 -207 -3 -282 223 -295 62 -3 117 -9 123 -13 6 -4 26 -49 45 -100 60 -159
98 -200 188 -200 52 0 102 22 202 89 33 23 70 41 82 41 12 0 51 -20 87 -44 98
-68 139 -86 193 -86 90 0 128 40 188 200 19 51 39 96 45 100 6 4 61 10 123 13
226 13 283 88 223 295 -39 135 -40 131 62 211 98 77 132 126 132 191 0 65 -34
114 -132 191 -102 80 -101 76 -62 211 59 206 5 279 -220 293 -62 4 -119 10
-125 14 -7 4 -27 50 -46 101 -43 114 -67 153 -109 179 -39 24 -102 27 -149 7
-18 -7 -67 -36 -111 -65 -43 -28 -89 -51 -102 -51 -12 0 -53 21 -91 47 -127
86 -204 104 -270 62z m173 -180 c95 -64 131 -79 189 -79 58 0 94 15 190 80 42
28 82 49 89 47 7 -3 30 -48 50 -100 69 -179 90 -195 274 -209 70 -5 129 -12
132 -15 2 -2 -6 -43 -20 -91 -49 -179 -40 -234 51 -314 34 -29 80 -70 103 -90
l41 -38 -41 -37 c-23 -21 -67 -60 -99 -87 -32 -27 -64 -64 -71 -82 -21 -49
-17 -120 11 -214 30 -99 31 -120 8 -121 -10 0 -65 -4 -124 -8 -168 -11 -198
-35 -265 -208 -20 -52 -43 -97 -50 -100 -8 -3 -51 20 -97 50 -97 66 -124 77
-182 77 -58 0 -85 -11 -182 -77 -46 -30 -89 -53 -97 -50 -7 3 -26 38 -41 79
-74 195 -99 217 -267 229 -62 4 -121 8 -130 8 -24 1 -23 22 7 121 28 94 32
165 11 214 -7 18 -39 55 -71 82 -32 27 -76 66 -99 87 l-41 37 36 33 c20 17 64
56 99 86 34 30 69 69 76 87 21 49 17 120 -11 214 -32 108 -32 120 3 120 93 2
233 20 260 34 45 23 78 72 113 166 36 98 46 120 60 120 5 0 44 -23 85 -51z"/>
<path d="M3340 3421 c-5 -11 -10 -24 -10 -29 0 -6 45 -71 100 -147 55 -75 100
-140 100 -145 0 -6 -45 -71 -100 -146 -55 -75 -100 -144 -100 -153 0 -23 20
-41 45 -41 27 0 53 29 147 157 l75 102 94 -127 c89 -120 96 -127 129 -127 31
0 35 3 38 28 3 21 -9 46 -47 98 -28 38 -74 100 -102 139 l-51 70 101 137 c100
137 114 169 86 193 -32 26 -62 2 -156 -125 l-92 -125 -75 103 c-41 56 -86 114
-100 130 -30 32 -67 35 -82 8z"/>
<path d="M3094 1860 c-26 -10 -48 -61 -39 -89 16 -53 0 -51 520 -51 l484 0 21
27 c16 20 20 36 16 58 -13 62 9 60 -509 62 -260 1 -481 -2 -493 -7z"/>
<path d="M3093 1538 c-27 -13 -47 -59 -38 -87 16 -53 0 -51 520 -51 l484 0 21
27 c16 20 20 36 16 58 -13 62 9 60 -509 62 -318 1 -479 -2 -494 -9z"/>
<path d="M1636 1319 c-17 -13 -28 -34 -32 -60 l-7 -39 -97 0 c-81 0 -100 -3
-113 -18 -22 -24 -21 -55 1 -75 17 -15 61 -17 423 -17 302 0 408 3 417 12 16
16 16 70 0 86 -8 8 -48 12 -115 12 l-103 0 0 33 c-1 73 -35 87 -208 87 -126 0
-142 -2 -166 -21z m312 -71 l3 -28 -145 0 -146 0 0 23 c0 13 3 27 7 31 4 3 68
5 142 4 l136 -3 3 -27z"/>
<path d="M372 1120 c-22 -21 -22 -24 -22 -369 0 -329 1 -350 19 -372 l19 -24
362 0 362 0 19 24 c18 22 19 43 19 370 l0 348 -23 21 c-23 22 -28 22 -378 22
-344 0 -356 -1 -377 -20z m628 -375 l0 -245 -250 0 -250 0 0 245 0 245 250 0
250 0 0 -245z"/>
<path d="M1434 998 c3 -29 15 -170 27 -313 11 -143 25 -273 31 -288 6 -15 20
-33 32 -40 25 -14 469 -23 530 -10 71 15 74 23 101 353 14 162 25 307 25 323
l0 27 -376 0 -375 0 5 -52z m220 -17 c3 -5 13 -120 22 -256 17 -259 15 -283
-24 -259 -15 10 -19 46 -33 255 -11 165 -13 248 -7 257 12 14 34 16 42 3z
m174 -3 c9 -9 12 -79 12 -254 0 -202 -2 -244 -15 -254 -8 -7 -22 -10 -30 -6
-13 5 -15 42 -15 259 0 140 3 257 7 260 10 11 28 8 41 -5z m177 1 c7 -10 -9
-345 -21 -457 -6 -56 -27 -78 -48 -50 -14 19 10 486 26 506 13 15 35 16 43 1z"/>
</g>
</svg>
