<?xml version="1.0" standalone="no"?>
<!DOCTYPE svg PUBLIC "-//W3C//DTD SVG 20010904//EN"
 "http://www.w3.org/TR/2001/REC-SVG-20010904/DTD/svg10.dtd">
<svg version="1.0" xmlns="http://www.w3.org/2000/svg"
 width="512.000000pt" height="512.000000pt" viewBox="0 0 512.000000 512.000000"
 preserveAspectRatio="xMidYMid meet">

<g transform="translate(0.000000,512.000000) scale(0.100000,-0.100000)"
fill="#000000" stroke="none">
<path d="M543 5105 c-182 -49 -320 -189 -368 -372 -23 -86 -23 -4260 0 -4346
48 -185 187 -324 372 -372 86 -22 2140 -22 2226 0 185 48 324 187 372 372 13
48 15 168 15 740 l0 683 163 122 162 123 625 5 c613 5 626 5 671 26 60 28 125
93 153 153 21 46 21 49 21 821 0 772 0 775 -21 821 -28 60 -93 125 -153 153
-46 21 -52 21 -833 24 l-788 2 0 308 c0 240 -3 320 -15 365 -48 185 -187 324
-372 372 -83 22 -2150 21 -2230 0z m2204 -200 c66 -20 127 -65 163 -122 17
-26 30 -51 30 -55 0 -4 -576 -8 -1280 -8 -704 0 -1280 4 -1280 8 0 20 61 102
95 128 20 15 60 36 88 45 49 17 120 18 1093 19 893 0 1047 -2 1091 -15z m213
-615 l0 -229 -387 -3 c-373 -3 -390 -4 -434 -24 -60 -28 -125 -93 -153 -153
-21 -46 -21 -49 -21 -821 0 -772 0 -775 21 -821 28 -60 93 -125 153 -153 41
-19 67 -21 234 -24 l187 -4 0 -260 c0 -282 4 -303 57 -327 54 -25 66 -19 226
101 l117 89 0 -331 0 -330 -1300 0 -1300 0 0 1760 0 1760 1300 0 1300 0 0
-230z m1767 -463 l28 -27 0 -740 0 -740 -28 -27 -27 -28 -638 -5 c-374 -3
-643 -9 -652 -14 -8 -6 -158 -117 -332 -248 l-317 -237 -3 219 -3 220 -28 27
-27 28 -240 5 -240 5 -27 28 -28 27 0 739 c0 725 0 739 20 761 11 12 29 26 40
31 11 4 572 7 1247 6 l1228 -2 27 -28z m-1769 -3214 c-3 -167 -5 -193 -24
-234 -28 -60 -93 -125 -153 -153 l-46 -21 -1075 0 -1075 0 -46 21 c-60 28
-125 93 -153 153 -19 41 -21 67 -24 234 l-4 187 1302 0 1302 0 -4 -187z"/>
<path d="M2624 3450 c-32 -13 -64 -59 -64 -91 0 -40 46 -88 91 -95 31 -5 42
-1 70 24 28 25 34 37 34 72 0 35 -6 47 -33 71 -33 29 -60 35 -98 19z"/>
<path d="M3024 3450 c-32 -13 -64 -59 -64 -91 0 -18 11 -41 29 -61 l29 -33
636 -3 635 -2 33 29 c27 24 33 36 33 71 0 35 -6 47 -33 71 l-32 29 -623 -1
c-342 0 -632 -4 -643 -9z"/>
<path d="M2624 2850 c-32 -13 -64 -59 -64 -91 0 -40 46 -88 91 -95 31 -5 42
-1 70 24 28 25 34 37 34 72 0 35 -6 47 -33 71 -33 29 -60 35 -98 19z"/>
<path d="M3024 2850 c-32 -13 -64 -59 -64 -91 0 -18 11 -41 29 -61 l29 -33
636 -3 635 -2 33 29 c27 24 33 36 33 71 0 35 -6 47 -33 71 l-32 29 -623 -1
c-342 0 -632 -4 -643 -9z"/>
<path d="M1225 591 c-62 -26 -81 -110 -34 -156 14 -14 41 -28 61 -31 30 -5 41
-1 69 24 28 25 34 37 34 72 0 35 -6 47 -33 71 -33 29 -60 35 -97 20z"/>
<path d="M1624 590 c-32 -13 -64 -59 -64 -91 0 -18 11 -41 29 -61 l29 -33 235
-3 236 -3 33 29 c27 25 33 37 33 72 0 35 -6 47 -33 71 l-32 29 -223 -1 c-122
0 -232 -4 -243 -9z"/>
</g>
</svg>
