<svg width="99" height="127" viewBox="0 0 99 127" fill="none" xmlns="http://www.w3.org/2000/svg">
<path fill-rule="evenodd" clip-rule="evenodd" d="M38.8841 13.6299H44.283C44.9503 13.6299 45.4963 13.0847 45.4963 12.4183C45.4963 11.752 44.9503 11.2068 44.283 11.2068H38.8841C38.2169 11.2068 37.6709 11.752 37.6709 12.4183C37.6709 13.0847 38.2169 13.6299 38.8841 13.6299Z" fill="#191966"/>
<path fill-rule="evenodd" clip-rule="evenodd" d="M49.6217 113.339H33.4857C32.8184 113.339 32.2725 113.885 32.2725 114.551C32.2725 115.217 32.8184 115.763 33.4857 115.763H49.6217C50.289 115.763 50.835 115.217 50.835 114.551C50.835 113.885 50.289 113.339 49.6217 113.339Z" fill="#191966"/>
<path d="M52.1089 54.5798H49.4398C48.7725 54.5798 48.2266 54.0346 48.2266 53.3683C48.2266 52.7019 48.7725 52.1567 49.4398 52.1567H52.1089C52.7762 52.1567 53.3222 52.7019 53.3222 53.3683C53.3222 54.0346 52.7762 54.5798 52.1089 54.5798Z" fill="#FFBD16"/>
<path d="M68.1841 54.5798H65.515C64.8477 54.5798 64.3018 54.0346 64.3018 53.3683C64.3018 52.7019 64.8477 52.1567 65.515 52.1567H68.1841C68.8514 52.1567 69.3973 52.7019 69.3973 53.3683C69.3973 54.0346 68.8514 54.5798 68.1841 54.5798Z" fill="#FFBD16"/>
<path d="M84.3198 54.5798H81.6507C80.9835 54.5798 80.4375 54.0346 80.4375 53.3683C80.4375 52.7019 80.9835 52.1567 81.6507 52.1567H84.3198C84.9871 52.1567 85.5331 52.7019 85.5331 53.3683C85.5331 54.0346 84.9871 54.5798 84.3198 54.5798Z" fill="#FFBD16"/>
<path d="M49.3784 89.4721C49.1964 89.4721 49.0144 89.4116 48.8931 89.351C48.4685 89.1693 48.1652 88.7452 48.1652 88.2606V76.0846H41.3104C37.6707 76.0846 34.6982 73.1164 34.6982 69.4818V37.3154C34.6982 33.6808 37.6707 30.7125 41.3104 30.7125H92.3876C96.0273 30.7125 98.9997 33.6808 98.9997 37.3154V69.5423C98.9997 73.1769 96.0273 76.1452 92.3876 76.1452H65.939L50.167 89.2904C49.9243 89.4116 49.6817 89.4721 49.3784 89.4721ZM41.3104 33.1356C39.0052 33.1356 37.1247 35.0135 37.1247 37.3154V69.5423C37.1247 71.8443 39.0052 73.7221 41.3104 73.7221H49.3784C50.0457 73.7221 50.5916 74.2673 50.5916 74.9337V85.7769L64.7258 74.025C64.9685 73.8433 65.2111 73.7221 65.5144 73.7221H92.3876C94.6927 73.7221 96.5732 71.8443 96.5732 69.5423V37.3154C96.5732 35.0135 94.6927 33.1356 92.3876 33.1356H41.3104Z" fill="#FFBD16"/>
<path fill-rule="evenodd" clip-rule="evenodd" d="M80.7408 84.0808V102.617H2.42647V9.75289C2.42647 5.99712 5.52022 2.9077 9.28125 2.9077H73.886C77.6471 2.9077 80.7408 5.99712 80.7408 9.75289V22.7163C80.7408 23.3827 81.2868 23.9279 81.954 23.9279C82.6213 23.9279 83.1673 23.3827 83.1673 22.7163V9.75289C83.1673 4.60385 78.9816 0.484619 73.886 0.484619H9.28125C4.18566 0.484619 0 4.66443 0 9.75289V117.216C0 122.365 4.18566 126.485 9.28125 126.485H73.886C79.0423 126.485 83.1673 122.305 83.1673 117.216V84.0808C83.1673 83.4144 82.6213 82.8692 81.954 82.8692C81.2868 82.8692 80.7408 83.4144 80.7408 84.0808ZM80.7408 117.216C80.7408 120.972 77.6471 124.062 73.886 124.062H9.28125C5.52022 124.062 2.42647 121.033 2.42647 117.216V104.98H80.7408V117.216Z" fill="#191966"/>
<path fill-rule="evenodd" clip-rule="evenodd" d="M80.7408 84.0808V102.617H2.42647V9.75289C2.42647 5.99712 5.52022 2.9077 9.28125 2.9077H73.886C77.6471 2.9077 80.7408 5.99712 80.7408 9.75289V22.7163C80.7408 23.3827 81.2868 23.9279 81.954 23.9279C82.6213 23.9279 83.1673 23.3827 83.1673 22.7163V9.75289C83.1673 4.60385 78.9816 0.484619 73.886 0.484619H9.28125C4.18566 0.484619 0 4.66443 0 9.75289V117.216C0 122.365 4.18566 126.485 9.28125 126.485H73.886C79.0423 126.485 83.1673 122.305 83.1673 117.216V84.0808C83.1673 83.4144 82.6213 82.8692 81.954 82.8692C81.2868 82.8692 80.7408 83.4144 80.7408 84.0808ZM80.7408 117.216C80.7408 120.972 77.6471 124.062 73.886 124.062H9.28125C5.52022 124.062 2.42647 121.033 2.42647 117.216V104.98H80.7408V117.216Z" fill="black" fill-opacity="0.2"/>
</svg>
