<svg width="84" height="128" viewBox="0 0 84 128" fill="none" xmlns="http://www.w3.org/2000/svg">
<g clip-path="url(#clip0_2196_1097)">
<path fill-rule="evenodd" clip-rule="evenodd" d="M74.6258 0.484619H9.37418C4.22757 0.484619 0 4.6976 0 9.82645V118.143C0 123.272 4.22757 127.485 9.37418 127.485H74.6258C79.7724 127.485 84 123.272 84 118.143V9.82645C84 4.6976 79.7724 0.484619 74.6258 0.484619ZM9.37418 2.92693H74.6258C78.4245 2.92693 81.5492 6.04087 81.5492 9.82645V103.367H2.45077V9.82645C2.45077 6.04087 5.57549 2.92693 9.37418 2.92693ZM74.6258 125.042H9.37418C5.57549 125.042 2.45077 121.989 2.45077 118.143V105.809H81.5492V118.143C81.5492 121.989 78.4245 125.042 74.6258 125.042Z" fill="#191966"/>
<path fill-rule="evenodd" clip-rule="evenodd" d="M39.2732 13.7342H44.7262C45.4001 13.7342 45.9516 13.1847 45.9516 12.513C45.9516 11.8414 45.4001 11.2919 44.7262 11.2919H39.2732C38.5993 11.2919 38.0479 11.8414 38.0479 12.513C38.0479 13.1847 38.5993 13.7342 39.2732 13.7342Z" fill="#191966"/>
<path fill-rule="evenodd" clip-rule="evenodd" d="M50.1177 114.235H33.8201C33.1461 114.235 32.5947 114.785 32.5947 115.456C32.5947 116.128 33.1461 116.677 33.8201 116.677H50.1177C50.7917 116.677 51.3431 116.128 51.3431 115.456C51.3431 114.785 50.7917 114.235 50.1177 114.235Z" fill="#191966"/>
<path d="M36.2713 67.7091C36.0262 67.7091 35.7812 67.587 35.5974 67.4038C35.4136 67.2206 35.291 66.9764 35.291 66.7322C35.291 66.4879 35.4136 66.2437 35.5974 66.0605C35.7812 65.8774 36.0262 65.7552 36.2713 65.7552C36.5164 65.7552 36.7615 65.8774 36.9453 66.0605C37.1291 66.2437 37.2516 66.4879 37.2516 66.7322C37.2516 66.9764 37.1291 67.2206 36.9453 67.4038C36.8227 67.587 36.5777 67.7091 36.2713 67.7091Z" fill="#FFBD16"/>
<path d="M49.0155 55.0091C48.7704 55.0091 48.5253 54.887 48.3415 54.7039C48.1577 54.5207 48.0352 54.2765 48.0352 54.0322C48.0352 53.788 48.1577 53.5438 48.3415 53.3606C48.5253 53.1774 48.7704 53.0553 49.0155 53.0553C49.2605 53.0553 49.5056 53.1774 49.6894 53.3606C50.057 53.7269 50.057 54.3986 49.6894 54.7649C49.5056 54.887 49.2605 55.0091 49.0155 55.0091Z" fill="#FFBD16"/>
<path d="M36.7616 92.0712C35.1686 92.0712 33.6982 91.4606 32.5953 90.3615L26.7135 84.5C26.1621 83.9505 25.7945 83.1567 25.7945 82.363C25.7945 81.5692 26.1008 80.7755 26.7135 80.226L29.2868 77.6615C29.8995 77.051 30.1446 76.2572 30.0833 75.4635C30.022 74.6087 29.5931 73.876 28.8579 73.3875L28.7966 73.3264C28.3065 73.0822 27.8163 72.899 27.2649 72.899C26.4071 72.899 25.6106 73.2654 25.0592 73.876L22.6697 76.2572C22.1183 76.8067 21.3218 77.1731 20.5253 77.1731C19.7288 77.1731 18.9936 76.8067 18.3809 76.2572L12.499 70.3957C10.2321 68.1365 10.2321 64.412 12.499 62.0918L12.7441 61.8476L15.1336 62.275L13.9082 63.4961C12.3765 65.0226 12.3765 67.4649 13.9082 68.9913L19.8513 74.9139H19.9126C20.0964 75.0971 20.3415 75.1582 20.5866 75.1582C20.8316 75.1582 21.0767 75.0971 21.2605 74.9139L21.3218 74.8529L23.7726 72.4106C24.7529 71.4337 26.0395 70.8231 27.3874 70.8231C28.3678 70.8231 29.3481 71.1284 30.1446 71.6779C30.3896 71.861 30.5734 72.0442 30.7573 72.2274C31.6763 73.1433 32.1052 74.3644 32.1052 75.6466C32.1052 76.9288 31.5538 78.15 30.6347 79.0048L28.0001 81.6303L27.9389 81.6913C27.6325 82.0577 27.6325 82.6683 27.9389 83.0346L28.0001 83.0957L33.9432 89.0183C34.6785 89.751 35.6588 90.1784 36.7004 90.1784C37.7419 90.1784 38.7222 89.751 39.4575 89.0183L57.7157 70.8231C57.8382 70.701 57.9608 70.6399 58.1446 70.6399C58.2058 70.6399 58.2058 70.6399 58.2671 70.6399L60.289 71.0062L40.8667 90.3615C39.8251 91.4606 38.2934 92.0712 36.7616 92.0712ZM69.9082 67.1596C69.847 67.1596 69.7857 67.1596 69.7244 67.1596L14.2146 56.4745C13.6632 56.3524 13.3568 55.8639 13.4181 55.3144C13.4794 54.826 13.9082 54.5207 14.3984 54.5207C14.4597 54.5207 14.5209 54.5207 14.5822 54.5207L19.1774 55.4365L43.3787 31.3187C44.4815 30.2197 45.952 29.6091 47.545 29.6091C49.138 29.6091 50.6085 30.2197 51.7113 31.3187L57.5931 37.1803C58.1446 37.7298 58.5122 38.5236 58.5122 39.3173C58.5122 40.1111 58.2058 40.9048 57.5931 41.4543L55.1424 43.8966C54.1621 44.8125 53.917 46.4 54.6522 47.6211L54.7135 47.6822C55.2036 48.3538 56.0001 48.8423 56.8579 48.9034C56.9192 48.9034 56.9804 48.9034 57.0417 48.9034C57.7769 48.9034 58.5122 48.5981 59.0636 48.0486L61.6369 45.4841C62.1883 44.9346 62.9848 44.5683 63.7813 44.5683C64.5778 44.5683 65.3743 44.8736 65.9257 45.4841L71.8076 51.3457C74.0745 53.6048 74.0745 57.3293 71.8076 59.6495L66.7835 64.5952L70.0308 65.2058C70.5822 65.3279 70.9498 65.8163 70.8273 66.3659C70.766 66.8543 70.3371 67.1596 69.9082 67.1596ZM42.5822 59.4053C42.8273 59.4053 43.1336 59.5274 43.3174 59.7106L43.3787 59.7716C43.44 59.8327 43.5012 59.8937 43.5625 59.9548L43.7463 60.199L64.4553 64.1678L70.3984 58.2452C71.9301 56.7187 71.9301 54.2764 70.3984 52.75L64.4553 46.8274L64.394 46.7663C64.2102 46.5832 63.9651 46.5221 63.7201 46.5221C63.475 46.5221 63.2299 46.5832 63.0461 46.7663H62.9848L60.3503 49.3918C60.1664 49.6361 59.9214 49.8192 59.6763 49.9413C58.8798 50.4909 57.8995 50.8572 56.9192 50.8572C55.3875 50.8572 53.917 50.1245 52.998 48.8423C51.65 46.8274 51.9564 44.1409 53.7332 42.4923L56.2452 39.9889L56.3065 39.9279C56.6128 39.5615 56.6128 38.951 56.3065 38.5846L56.2452 38.5236L50.3021 32.601C49.5669 31.8683 48.5866 31.4409 47.545 31.4409C46.5034 31.4409 45.5231 31.8683 44.7879 32.601L21.5669 55.8639L41.7244 59.7716L42.0308 59.5274C42.2146 59.4663 42.3984 59.4053 42.5822 59.4053Z" fill="#FFBD16"/>
</g>
<defs>
<clipPath id="clip0_2196_1097">
<rect width="84" height="127" fill="white" transform="translate(0 0.484619)"/>
</clipPath>
</defs>
</svg>
