<svg width="114" height="128" viewBox="0 0 114 128" fill="none" xmlns="http://www.w3.org/2000/svg">
<g clip-path="url(#clip0_2196_1085)">
<path d="M88.994 127.485C86.3617 127.485 83.7922 127.045 81.2853 126.228L81.0973 126.165H80.9093C80.4079 126.228 79.9692 126.291 79.5932 126.291H10.5289C4.76306 126.291 0 121.578 0 115.733V11.0418C0 5.19763 4.70038 0.484619 10.5289 0.484619H79.5932C85.359 0.484619 90.0594 5.19763 90.0594 11.0418V77.4638L90.9368 77.5267C103.847 78.5321 114 89.4663 114 102.474C114 116.299 102.782 127.485 88.994 127.485ZM88.994 79.5376C76.3969 79.5376 66.1814 89.8433 66.1814 102.411C66.1814 114.979 76.4596 125.285 88.994 125.285C101.528 125.285 111.869 114.979 111.869 102.411C111.869 89.8433 101.591 79.5376 88.994 79.5376ZM10.5289 2.62119C5.89115 2.62119 2.13084 6.39159 2.13084 11.0418V115.796C2.13084 120.447 5.89115 124.217 10.5289 124.217H76.3343L74.0781 122.52C67.6855 117.744 64.0506 110.392 64.0506 102.474C64.0506 89.4663 74.2034 78.5321 87.1138 77.5267L87.9912 77.4638V11.0418C87.9912 6.39159 84.2309 2.62119 79.6559 2.62119H10.5289Z" fill="#191966"/>
<path d="M86.4871 109.135C86.1738 109.135 85.9231 109.01 85.7351 108.821L81.5361 104.485C81.3481 104.297 81.2227 103.982 81.2227 103.731C81.2227 103.417 81.3481 103.165 81.5361 102.977C81.7241 102.788 81.9748 102.663 82.2881 102.663C82.6015 102.663 82.8522 102.788 83.0402 102.977L86.4245 106.433L95.0105 96.1902C95.1985 95.9388 95.5119 95.8131 95.8252 95.8131C96.0132 95.8131 96.2639 95.876 96.5146 96.0645C96.9533 96.4415 97.016 97.1328 96.64 97.5727L87.3019 108.695C87.0512 108.947 86.8005 109.135 86.4871 109.135ZM23.0006 70.5514C17.6108 70.5514 13.1611 66.1526 13.1611 60.6855C13.1611 55.2812 17.5482 50.8824 23.0006 50.8824C28.3904 50.8824 32.7774 55.2812 32.7774 60.6855C32.7774 66.1526 28.3904 70.5514 23.0006 70.5514ZM23.0006 53.0818C18.8016 53.0818 15.3546 56.538 15.3546 60.7483C15.3546 64.9586 18.8016 68.4148 23.0006 68.4148C25.0688 68.4148 26.9489 67.5979 28.3904 66.1526C29.8318 64.7072 30.6466 62.7592 30.6466 60.6855C30.6466 56.4752 27.1996 53.0818 23.0006 53.0818ZM44.1837 67.9749C43.6196 67.9749 43.1183 67.4722 43.1183 66.9066C43.1183 66.3411 43.6196 65.8384 44.1837 65.8384H56.342C56.906 65.8384 57.4074 66.3411 57.4074 66.9066C57.4074 67.4722 56.906 67.9749 56.342 67.9749H44.1837ZM44.1837 55.6583C43.6196 55.6583 43.1183 55.1555 43.1183 54.59C43.1183 54.0244 43.6196 53.5217 44.1837 53.5217H75.8329C76.397 53.5217 76.8983 54.0244 76.8983 54.59C76.8983 55.1555 76.397 55.6583 75.8329 55.6583H44.1837ZM23.0006 37.7488C17.6108 37.7488 13.1611 33.35 13.1611 27.8829C13.1611 22.4158 17.5482 18.0798 23.0006 18.0798C28.3904 18.0798 32.7774 22.4786 32.7774 27.9457C32.7774 33.4128 28.3904 37.7488 23.0006 37.7488ZM23.0006 20.2792C18.8016 20.2792 15.3546 23.7355 15.3546 27.9457C15.3546 32.156 18.8016 35.6122 23.0006 35.6122C25.0688 35.6122 26.9489 34.7953 28.3904 33.35C29.8318 31.9047 30.6466 29.9566 30.6466 27.8829C30.6466 23.6726 27.1996 20.2792 23.0006 20.2792ZM44.1837 35.1724C43.6196 35.1724 43.1183 34.6696 43.1183 34.1041C43.1183 33.5385 43.6196 33.0358 44.1837 33.0358H56.342C56.906 33.0358 57.4074 33.5385 57.4074 34.1041C57.4074 34.6696 56.906 35.1724 56.342 35.1724H44.1837ZM44.1837 22.8557C43.6196 22.8557 43.1183 22.353 43.1183 21.7874C43.1183 21.2218 43.6196 20.7191 44.1837 20.7191H75.8329C76.397 20.7191 76.8983 21.2218 76.8983 21.7874C76.8983 22.353 76.397 22.8557 75.8329 22.8557H44.1837Z" fill="#FFBD16"/>
</g>
<defs>
<clipPath id="clip0_2196_1085">
<rect width="114" height="127" fill="white" transform="translate(0 0.484619)"/>
</clipPath>
</defs>
</svg>
