<?xml version="1.0" encoding="UTF-8"?>
<svg width="20px" height="21px" viewBox="0 0 20 21" version="1.1" xmlns="http://www.w3.org/2000/svg" xmlns:xlink="http://www.w3.org/1999/xlink">
    <title>mdpi/Hotels / 6AM Checkin</title>
    <defs>
        <path d="M17,20.5 C17.2761424,20.5 17.5,20.7238576 17.5,21 C17.5,21.2761424 17.2761424,21.5 17,21.5 L7,21.5 C6.72385763,21.5 6.5,21.2761424 6.5,21 C6.5,20.7238576 6.72385763,20.5 7,20.5 L17,20.5 Z M20,18.5 C20.2761424,18.5 20.5,18.7238576 20.5,19 C20.5,19.2761424 20.2761424,19.5 20,19.5 L4,19.5 C3.72385763,19.5 3.5,19.2761424 3.5,19 C3.5,18.7238576 3.72385763,18.5 4,18.5 L20,18.5 Z M21.5,16 C21.7761424,16 22,16.2238576 22,16.5 C22,16.7761424 21.7761424,17 21.5,17 L19.5,17 C19.2238576,17 19,16.7761424 19,16.5 C19,16.2238576 19.2238576,16 19.5,16 L21.5,16 Z M4.5,16 C4.77614237,16 5,16.2238576 5,16.5 C5,16.7761424 4.77614237,17 4.5,17 L2.5,17 C2.22385763,17 2,16.7761424 2,16.5 C2,16.2238576 2.22385763,16 2.5,16 L4.5,16 Z M12,6.5 C15.5898509,6.5 18.5,9.41014913 18.5,13 C18.5,14.1583766 18.1961357,15.2736044 17.6276164,16.2546694 C17.4891616,16.4935939 17.1832353,16.5750406 16.9443109,16.4365858 C16.7053865,16.2981311 16.6239397,15.9922048 16.7623945,15.7532803 C17.2432108,14.9235599 17.5,13.9811049 17.5,13 C17.5,9.96243388 15.0375661,7.5 12,7.5 C8.96243388,7.5 6.5,9.96243388 6.5,13 C6.5,13.9813944 6.75694116,14.9241145 7.23802677,15.7540072 C7.37651809,15.9929104 7.29511812,16.2988492 7.05621487,16.4373405 C6.81731161,16.5758318 6.51137286,16.4944318 6.37288154,16.2555286 C5.80404423,15.2742606 5.5,14.1587188 5.5,13 C5.5,9.41014913 8.41014913,6.5 12,6.5 Z M3.2236068,7.5527864 L5.22712371,8.55454486 C5.47411296,8.67803949 5.57422514,8.97837601 5.45073051,9.22536526 C5.32723589,9.4723545 5.02689937,9.57246668 4.77991012,9.44897205 L2.7763932,8.4472136 C2.52940395,8.32371897 2.42929178,8.02338245 2.5527864,7.7763932 C2.67628103,7.52940395 2.97661755,7.42929178 3.2236068,7.5527864 Z M20.7799101,7.5527864 C21.0268994,7.42929178 21.3272359,7.52940395 21.4507305,7.7763932 C21.5605035,7.9959392 21.4935995,8.25763613 21.3039083,8.39981478 L21.2271237,8.4472136 L19.2236068,9.44897205 C18.9766175,9.57246668 18.676281,9.4723545 18.5527864,9.22536526 C18.4430134,9.00581926 18.5099174,8.74412233 18.6996086,8.60194368 L18.7763932,8.55454486 L20.7799101,7.5527864 Z M12,1.53806536 C12.2761424,1.53806536 12.5,1.76192299 12.5,2.03806536 L12.5,5.03806536 C12.5,5.31420774 12.2761424,5.53806536 12,5.53806536 C11.7238576,5.53806536 11.5,5.31420774 11.5,5.03806536 L11.5,2.03806536 C11.5,1.76192299 11.7238576,1.53806536 12,1.53806536 Z" id="path-1"></path>
    </defs>
    <g id="Page-1" stroke="none" stroke-width="1" fill="none" fill-rule="evenodd">
        <g id="Hotel-Icons" transform="translate(-106.000000, -259.000000)">
            <g id="Hotels-/-6AM-Checkin" transform="translate(104.000000, 258.000000)">
                <rect id="Rectangle" x="0" y="0" width="24" height="24"></rect>
                <path d="" id="Path-33" stroke="#979797" stroke-width="1"></path>
                <path d="" id="Path-35" stroke="#979797" stroke-width="1"></path>
                <mask id="mask-2" fill="white">
                    <use xlink:href="#path-1"></use>
                </mask>
                <use id="Shape" fill="#000000" fill-rule="nonzero" xlink:href="#path-1"></use>
                <circle id="Oval-33" fill="#000000" fill-rule="evenodd" mask="url(#mask-2)" cx="12" cy="14" r="1"></circle>
                <g id="color-/-black" mask="url(#mask-2)">
                    <rect id="Rectangle" x="0" y="0" width="24" height="24"></rect>
                    <rect id="Rectangle" fill="#000000" fill-rule="evenodd" x="0" y="0" width="24" height="24"></rect>
                </g>
            </g>
        </g>
    </g>
</svg>