<?xml version="1.0" encoding="UTF-8"?>
<svg width="20px" height="15px" viewBox="0 0 20 15" version="1.1" xmlns="http://www.w3.org/2000/svg" xmlns:xlink="http://www.w3.org/1999/xlink">
    <title>mdpi/Hotels / Early Morning Checkin</title>
    <defs>
        <path d="M21.5,19 C21.7761424,19 22,19.2238576 22,19.5 C22,19.7761424 21.7761424,20 21.5,20 L2.5,20 C2.22385763,20 2,19.7761424 2,19.5 C2,19.2238576 2.22385763,19 2.5,19 L21.5,19 Z M12.519326,14.5 C14.4523226,14.5 16.019326,16.0670034 16.019326,18 C16.019326,18.2761424 15.7954683,18.5 15.519326,18.5 C15.2431836,18.5 15.019326,18.2761424 15.019326,18 C15.019326,16.6192881 13.9000378,15.5 12.519326,15.5 C11.1386141,15.5 10.019326,16.6192881 10.019326,18 C10.019326,18.2761424 9.79546833,18.5 9.51932596,18.5 C9.24318358,18.5 9.01932596,18.2761424 9.01932596,18 C9.01932596,16.0670034 10.5863293,14.5 12.519326,14.5 Z M15.7697501,7.73782491 C15.9145454,7.9729609 15.8413098,8.28095606 15.6061738,8.42575136 L15.2724293,8.63553361 C14.913343,8.86654003 14.6607963,9.04888359 14.5205816,9.17653245 C14.3425437,9.33861487 14.0805346,9.65468459 13.7468523,10.1158882 C13.5663037,10.3654358 13.2052339,10.3939698 12.9877297,10.1758787 C12.5652478,9.75225695 12.2351784,9.47252553 12.0137506,9.34290225 C11.7946725,9.21465445 11.4111105,9.07548993 10.874153,8.93584534 C10.6069005,8.86634196 10.4465932,8.59334739 10.5160966,8.3260949 C10.5856,8.05884242 10.8585945,7.8985351 11.125847,7.96803849 C11.7440585,8.1288145 12.2047301,8.29595603 12.5189502,8.47989971 C12.7351553,8.60646568 12.9874051,8.8028633 13.2811067,9.07116421 C13.4987881,8.79418173 13.6863164,8.58370281 13.8473865,8.43706758 C14.0856393,8.22016663 14.4930147,7.93683362 15.0818236,7.57424864 C15.3169596,7.42945333 15.6249548,7.50268893 15.7697501,7.73782491 Z M16.4144419,5.98812249 C16.9998912,6.24362867 17.4287445,6.48077732 17.7103209,6.71161119 C17.9040649,6.87044086 18.1224857,7.10388107 18.3705999,7.4148238 C18.6289308,7.1753043 18.8470765,6.99675262 19.0291024,6.87711962 C19.2983527,6.70016004 19.7450356,6.48404287 20.3833162,6.21803193 C20.6382082,6.11180267 20.9309549,6.23231767 21.0371842,6.48720972 C21.1434134,6.74210177 21.0228984,7.03484843 20.7680064,7.14107769 C20.183342,7.38474343 19.7820621,7.57889339 19.5783316,7.71279138 C19.3771303,7.84502703 19.0689027,8.11621815 18.6671805,8.51954415 C18.449817,8.7377754 18.0887288,8.7094743 17.9080194,8.46004318 C17.557008,7.97554615 17.2747619,7.64762446 17.0763378,7.48495812 C16.8800193,7.32401789 16.5229497,7.1265644 16.0144483,6.90464042 C15.7613588,6.79418523 15.6457309,6.49947409 15.7561861,6.24638465 C15.8666413,5.99329521 16.1613524,5.8776673 16.4144419,5.98812249 Z" id="path-1"></path>
    </defs>
    <g id="Page-1" stroke="none" stroke-width="1" fill="none" fill-rule="evenodd">
        <g id="Hotel-Icons" transform="translate(-106.000000, -623.000000)">
            <g id="Hotels-/-Early-Morning-Checkin" transform="translate(104.000000, 618.000000)">
                <rect id="Rectangle" x="0" y="0" width="24" height="24"></rect>
                <path d="" id="Path-33" stroke="#979797" stroke-width="1"></path>
                <path d="" id="Path-35" stroke="#979797" stroke-width="1"></path>
                <mask id="mask-2" fill="white">
                    <use xlink:href="#path-1"></use>
                </mask>
                <use id="Shape" fill="#000000" fill-rule="nonzero" xlink:href="#path-1"></use>
                <rect id="Rectangle-72" fill="#000000" fill-rule="evenodd" mask="url(#mask-2)" x="3" y="17" width="4" height="1" rx="0.5"></rect>
                <rect id="Rectangle-72-Copy-3" fill="#000000" fill-rule="evenodd" mask="url(#mask-2)" x="18" y="17" width="4" height="1" rx="0.5"></rect>
                <rect id="Rectangle-72-Copy" fill="#000000" fill-rule="evenodd" mask="url(#mask-2)" transform="translate(6.236505, 12.989991) rotate(40.000000) translate(-6.236505, -12.989991) " x="3.73650491" y="12.4899912" width="5" height="1" rx="0.5"></rect>
                <rect id="Rectangle-72-Copy-4" fill="#000000" fill-rule="evenodd" mask="url(#mask-2)" transform="translate(12.500000, 10.000000) rotate(90.000000) translate(-12.500000, -10.000000) " x="10.5" y="9.5" width="4" height="1" rx="0.5"></rect>
                <rect id="Rectangle-72-Copy-2" fill="#000000" fill-rule="evenodd" mask="url(#mask-2)" transform="translate(18.236505, 12.989991) scale(-1, 1) rotate(40.000000) translate(-18.236505, -12.989991) " x="15.7365049" y="12.4899912" width="5" height="1" rx="0.5"></rect>
                <g id="color-/-black" mask="url(#mask-2)">
                    <rect id="Rectangle" x="0" y="0" width="24" height="24"></rect>
                    <rect id="Rectangle" fill="#000000" fill-rule="evenodd" x="0" y="0" width="24" height="24"></rect>
                </g>
            </g>
        </g>
    </g>
</svg>