<?xml version="1.0" encoding="UTF-8"?>
<svg width="20px" height="10px" viewBox="0 0 20 10" version="1.1" xmlns="http://www.w3.org/2000/svg" xmlns:xlink="http://www.w3.org/1999/xlink">
    <title>mdpi/Hotels / Evening</title>
    <defs>
        <path d="M14,16.5 C14.2761424,16.5 14.5,16.7238576 14.5,17 C14.5,17.2761424 14.2761424,17.5 14,17.5 L10,17.5 C9.72385763,17.5 9.5,17.2761424 9.5,17 C9.5,16.7238576 9.72385763,16.5 10,16.5 L14,16.5 Z M18,14.5 C18.2761424,14.5 18.5,14.7238576 18.5,15 C18.5,15.2761424 18.2761424,15.5 18,15.5 L6,15.5 C5.72385763,15.5 5.5,15.2761424 5.5,15 C5.5,14.7238576 5.72385763,14.5 6,14.5 L18,14.5 Z M3,13.5 C2.72385763,13.5 2.5,13.2761424 2.5,13 C2.5,12.7238576 2.72385763,12.5 3,12.5 L7.52743156,12.500297 C7.77601865,10.2501788 9.68362124,8.5 12,8.5 C14.3163788,8.5 16.2239814,10.2501788 16.4725684,12.500297 L21,12.5 C21.2761424,12.5 21.5,12.7238576 21.5,13 C21.5,13.2761424 21.2761424,13.5 21,13.5 L3,13.5 Z M12,9.5 C10.2367468,9.5 8.77803074,10.8038784 8.53543731,12.5000497 L15.4645627,12.5000497 C15.2219693,10.8038784 13.7632532,9.5 12,9.5 Z" id="path-1"></path>
    </defs>
    <g id="Page-1" stroke="none" stroke-width="1" fill="none" fill-rule="evenodd">
        <g id="Hotel-Icons" transform="translate(-106.000000, -706.000000)">
            <g id="Hotels-/-Evening" transform="translate(104.000000, 698.000000)">
                <rect id="Rectangle" x="0" y="0" width="24" height="24"></rect>
                <mask id="mask-2" fill="white">
                    <use xlink:href="#path-1"></use>
                </mask>
                <use id="Shape" fill="#000000" fill-rule="nonzero" xlink:href="#path-1"></use>
                <g id="color-/-black" mask="url(#mask-2)">
                    <rect id="Rectangle" x="0" y="0" width="24" height="24"></rect>
                    <rect id="Rectangle" fill="#000000" fill-rule="evenodd" x="0" y="0" width="24" height="24"></rect>
                </g>
            </g>
        </g>
    </g>
</svg>