<?xml version="1.0" encoding="UTF-8"?>
<svg width="20px" height="20px" viewBox="0 0 20 20" version="1.1" xmlns="http://www.w3.org/2000/svg" xmlns:xlink="http://www.w3.org/1999/xlink">
    <title>mdpi/Hotels / Noon</title>
    <defs>
        <path d="M12,18.6657412 C12.2454599,18.6657412 12.4496084,18.8426163 12.4919443,19.0758655 L12.5,19.1657412 L12.5,20.9657412 C12.5,21.2418835 12.2761424,21.4657412 12,21.4657412 C11.7545401,21.4657412 11.5503916,21.288866 11.5080557,21.0556168 L11.5,20.9657412 L11.5,19.1657412 C11.5,18.8895988 11.7238576,18.6657412 12,18.6657412 Z M6.29223294,17.0210328 C6.50153074,16.8408966 6.81722935,16.8645368 6.99736553,17.0738346 C7.15748658,17.2598771 7.15659916,17.5299894 7.00742862,17.7142329 L6.94456375,17.7789672 L5.56597217,18.9654786 C5.35667437,19.1456147 5.04097576,19.1219746 4.86083958,18.9126768 C4.70071853,18.7266343 4.70160595,18.456522 4.85077649,18.2722785 L4.91364136,18.2075442 L6.29223294,17.0210328 Z M17.7261654,17.0210328 L19.104757,18.2075442 C19.3140548,18.3876804 19.3376949,18.703379 19.1575588,18.9126768 C18.9774226,19.1219746 18.661724,19.1456147 18.4524262,18.9654786 L17.0738346,17.7789672 C16.8645368,17.598831 16.8408966,17.2831324 17.0210328,17.0738346 C17.201169,16.8645368 17.5168676,16.8408966 17.7261654,17.0210328 Z M12,6.1 C15.25848,6.1 17.9,8.74151998 17.9,12 C17.9,15.25848 15.25848,17.9 12,17.9 C8.74151998,17.9 6.1,15.25848 6.1,12 C6.1,8.74151998 8.74151998,6.1 12,6.1 Z M12,7.1 C9.29380473,7.1 7.1,9.29380473 7.1,12 C7.1,14.7061953 9.29380473,16.9 12,16.9 C14.7061953,16.9 16.9,14.7061953 16.9,12 C16.9,9.29380473 14.7061953,7.1 12,7.1 Z M21,11.5178349 C21.2761424,11.5178349 21.5,11.7416925 21.5,12.0178349 C21.5,12.2939773 21.2761424,12.5178349 21,12.5178349 L19.2,12.5178349 C18.9238576,12.5178349 18.7,12.2939773 18.7,12.0178349 C18.7,11.7416925 18.9238576,11.5178349 19.2,11.5178349 L21,11.5178349 Z M4.8,11.5 C5.07614237,11.5 5.3,11.7238576 5.3,12 C5.3,12.2761424 5.07614237,12.5 4.8,12.5 L3,12.5 C2.72385763,12.5 2.5,12.2761424 2.5,12 C2.5,11.7238576 2.72385763,11.5 3,11.5 L4.8,11.5 Z M5.56597217,5.03452145 L6.94456375,6.22103281 C7.15386154,6.40116899 7.17750171,6.7168676 6.99736553,6.9261654 C6.81722935,7.1354632 6.50153074,7.15910337 6.29223294,6.97896719 L4.91364136,5.79245582 C4.70434357,5.61231965 4.6807034,5.29662103 4.86083958,5.08732323 C5.04097576,4.87802543 5.35667437,4.85438527 5.56597217,5.03452145 Z M18.4524262,5.03452145 C18.661724,4.85438527 18.9774226,4.87802543 19.1575588,5.08732323 C19.3176798,5.27336572 19.3167924,5.54347799 19.1676218,5.72772151 L19.104757,5.79245582 L17.7261654,6.97896719 C17.5168676,7.15910337 17.201169,7.1354632 17.0210328,6.9261654 C16.8609118,6.74012291 16.8617992,6.47001065 17.0109697,6.28576712 L17.0738346,6.22103281 L18.4524262,5.03452145 Z M12,2.53425883 C12.2761424,2.53425883 12.5,2.75811645 12.5,3.03425883 L12.5,4.83425883 C12.5,5.1104012 12.2761424,5.33425883 12,5.33425883 C11.7238576,5.33425883 11.5,5.1104012 11.5,4.83425883 L11.5,3.03425883 C11.5,2.75811645 11.7238576,2.53425883 12,2.53425883 Z" id="path-1"></path>
    </defs>
    <g id="Page-1" stroke="none" stroke-width="1" fill="none" fill-rule="evenodd">
        <g id="Hotel-Icons" transform="translate(-106.000000, -1260.000000)">
            <g id="Hotels-/-Noon" transform="translate(104.000000, 1258.000000)">
                <rect id="Rectangle" x="0" y="0" width="24" height="24"></rect>
                <path d="" id="Path-33" stroke="#979797" stroke-width="1"></path>
                <path d="" id="Path-35" stroke="#979797" stroke-width="1"></path>
                <mask id="mask-2" fill="white">
                    <use xlink:href="#path-1"></use>
                </mask>
                <use id="Shape" fill="#000000" fill-rule="nonzero" xlink:href="#path-1"></use>
                <g id="color-/-black" mask="url(#mask-2)">
                    <rect id="Rectangle" x="0" y="0" width="24" height="24"></rect>
                    <rect id="Rectangle" fill="#000000" fill-rule="evenodd" x="0" y="0" width="24" height="24"></rect>
                </g>
            </g>
        </g>
    </g>
</svg>