<svg width="21" height="20" viewBox="0 0 21 20" fill="none" xmlns="http://www.w3.org/2000/svg">
<g clip-path="url(#clip0_142_3984)">
<path d="M8.18555 12.5L13.1855 7.5" stroke="#3BAD69" stroke-width="1.75" stroke-linecap="round" stroke-linejoin="round"/>
<path d="M8.60221 8.33333C8.83233 8.33333 9.01888 8.14679 9.01888 7.91667C9.01888 7.68655 8.83233 7.5 8.60221 7.5C8.37209 7.5 8.18555 7.68655 8.18555 7.91667C8.18555 8.14679 8.37209 8.33333 8.60221 8.33333Z" stroke="#3BAD69" stroke-width="1.75" stroke-linecap="round" stroke-linejoin="round"/>
<path d="M12.7692 12.5C12.9993 12.5 13.1859 12.3134 13.1859 12.0833C13.1859 11.8532 12.9993 11.6667 12.7692 11.6667C12.5391 11.6667 12.3525 11.8532 12.3525 12.0833C12.3525 12.3134 12.5391 12.5 12.7692 12.5Z" stroke="#3BAD69" stroke-width="1.75" stroke-linecap="round" stroke-linejoin="round"/>
<path d="M4.8526 6C4.8526 5.51377 5.04575 5.04746 5.38957 4.70364C5.73339 4.35982 6.1997 4.16667 6.68593 4.16667H7.51926C8.00335 4.16639 8.46767 3.97467 8.81093 3.63334L9.39426 3.05C9.56464 2.87867 9.7672 2.7427 9.9903 2.64993C10.2134 2.55715 10.4526 2.50938 10.6943 2.50938C10.9359 2.50938 11.1751 2.55715 11.3982 2.64993C11.6213 2.7427 11.8239 2.87867 11.9943 3.05L12.5776 3.63334C12.9209 3.97467 13.3852 4.16639 13.8693 4.16667H14.7026C15.1888 4.16667 15.6551 4.35982 15.999 4.70364C16.3428 5.04746 16.5359 5.51377 16.5359 6V6.83334C16.5362 7.31742 16.7279 7.78174 17.0693 8.125L17.6526 8.70834C17.8239 8.87871 17.9599 9.08127 18.0527 9.30437C18.1455 9.52747 18.1932 9.76671 18.1932 10.0083C18.1932 10.25 18.1455 10.4892 18.0527 10.7123C17.9599 10.9354 17.8239 11.138 17.6526 11.3083L17.0693 11.8917C16.7279 12.2349 16.5362 12.6993 16.5359 13.1833V14.0167C16.5359 14.5029 16.3428 14.9692 15.999 15.313C15.6551 15.6568 15.1888 15.85 14.7026 15.85H13.8693C13.3852 15.8503 12.9209 16.042 12.5776 16.3833L11.9943 16.9667C11.8239 17.138 11.6213 17.274 11.3982 17.3667C11.1751 17.4595 10.9359 17.5073 10.6943 17.5073C10.4526 17.5073 10.2134 17.4595 9.9903 17.3667C9.7672 17.274 9.56464 17.138 9.39426 16.9667L8.81093 16.3833C8.46767 16.042 8.00335 15.8503 7.51926 15.85H6.68593C6.1997 15.85 5.73339 15.6568 5.38957 15.313C5.04575 14.9692 4.8526 14.5029 4.8526 14.0167V13.1833C4.85232 12.6993 4.6606 12.2349 4.31926 11.8917L3.73593 11.3083C3.5646 11.138 3.42863 10.9354 3.33585 10.7123C3.24307 10.4892 3.19531 10.25 3.19531 10.0083C3.19531 9.76671 3.24307 9.52747 3.33585 9.30437C3.42863 9.08127 3.5646 8.87871 3.73593 8.70834L4.31926 8.125C4.6606 7.78174 4.85232 7.31742 4.8526 6.83334V6Z" stroke="#3BAD69" stroke-width="1.75" stroke-linecap="round" stroke-linejoin="round"/>
</g>
<defs>
<clipPath id="clip0_142_3984">
<rect width="20" height="20" fill="white" transform="translate(0.685547)"/>
</clipPath>
</defs>
</svg>
