<svg width="48" height="48" viewBox="0 0 48 48" fill="none" xmlns="http://www.w3.org/2000/svg">
<rect width="48" height="48" rx="5" fill="black"/>
<path d="M21.5252 15.9475C21.7042 15.9475 21.8759 16.0223 22.0025 16.1556C22.1291 16.2888 22.2002 16.4695 22.2002 16.658C22.2002 16.8464 22.1291 17.0271 22.0025 17.1604C21.8759 17.2936 21.7042 17.3685 21.5252 17.3685H18.3751C17.838 17.3685 17.3229 17.5931 16.9432 17.9928C16.5634 18.3926 16.35 18.9347 16.35 19.5001V29.4474L16.3608 29.6653C16.4121 30.1901 16.6464 30.6762 17.0184 31.0297C17.3905 31.3832 17.8739 31.5789 18.3751 31.579H27.8253C28.3624 31.579 28.8775 31.3544 29.2573 30.9546C29.637 30.5549 29.8504 30.0127 29.8504 29.4474V27.5527C29.8504 27.3642 29.9215 27.1835 30.0481 27.0502C30.1747 26.917 30.3464 26.8421 30.5254 26.8421C30.7044 26.8421 30.8761 26.917 31.0027 27.0502C31.1293 27.1835 31.2004 27.3642 31.2004 27.5527V29.4474C31.2004 30.3896 30.8448 31.2932 30.2119 31.9595C29.5789 32.6257 28.7205 33 27.8253 33H18.3751C17.51 33 16.678 32.6504 16.0508 32.0233C15.4236 31.3962 15.049 30.5396 15.0045 29.6302L15 29.4474V19.5001C15 18.5579 15.3556 17.6542 15.9885 16.988C16.6215 16.3218 17.48 15.9475 18.3751 15.9475H21.5252ZM25.7436 15.0645C25.8609 15.008 25.9912 14.988 26.1189 15.007C26.2467 15.0259 26.3666 15.0831 26.4645 15.1716L32.7647 20.8557C32.836 20.9202 32.8938 20.9996 32.9342 21.0889C32.9747 21.1782 32.997 21.2755 32.9997 21.3744C33.0024 21.4733 32.9855 21.5717 32.95 21.6633C32.9145 21.7549 32.8612 21.8377 32.7935 21.9064L26.4933 28.3011C26.3979 28.3977 26.2777 28.4626 26.1475 28.4878C26.0173 28.5131 25.883 28.4975 25.7612 28.4429C25.6394 28.3884 25.5355 28.2974 25.4624 28.1812C25.3894 28.0651 25.3504 27.9288 25.3503 27.7895V24.9701C24.4377 25.0308 23.5772 25.2288 22.7042 25.6987C21.6818 26.2491 20.5946 27.1965 19.384 28.8278L19.1401 29.1632C19.0551 29.2825 18.9366 29.3706 18.8014 29.4151C18.6661 29.4595 18.521 29.4581 18.3866 29.4109C18.2522 29.3638 18.1353 29.2733 18.0525 29.1523C17.9697 29.0313 17.9251 28.886 17.9251 28.7369C17.9251 26.0302 18.5434 23.4411 19.8763 21.5104C21.1148 19.717 22.9454 18.529 25.3503 18.3424V15.7106L25.3575 15.6074C25.3738 15.4902 25.4176 15.3791 25.485 15.2843C25.5525 15.1895 25.6414 15.114 25.7436 15.0645Z" fill="white"/>
</svg>
