<svg width="40" height="40" viewBox="0 0 40 40" fill="none" xmlns="http://www.w3.org/2000/svg">
<rect width="40" height="40" rx="8" fill="#FDF6E3"/>
<path d="M16.923 13.3301C17.2234 12.7759 17.6678 12.3132 18.2094 11.9907C18.751 11.6683 19.3697 11.498 20 11.498C20.6303 11.498 21.2489 11.6683 21.7905 11.9907C22.3321 12.3132 22.7766 12.7759 23.077 13.3301C23.4444 12.94 23.9217 12.6708 24.4457 12.5583C24.9696 12.4457 25.5153 12.495 26.0106 12.6998C26.5058 12.9045 26.9271 13.2549 27.2186 13.7046C27.5101 14.1542 27.6581 14.6819 27.6428 15.2175C27.6276 15.7532 27.4498 16.2716 27.1332 16.7039C26.8166 17.1362 26.376 17.4621 25.87 17.6383C25.3639 17.8145 24.8162 17.8327 24.2995 17.6905C23.7829 17.5483 23.3216 17.2524 22.977 16.8421C22.6631 17.3492 22.2249 17.7677 21.7039 18.0578C21.1829 18.348 20.5963 18.5002 20 18.5001C19.4039 18.5002 18.8176 18.348 18.2968 18.058C17.776 17.7681 17.3379 17.3499 17.024 16.8431C16.6793 17.2533 16.218 17.5491 15.7014 17.6912C15.1847 17.8332 14.6371 17.8149 14.1311 17.6387C13.6251 17.4624 13.1846 17.1365 12.8681 16.7042C12.5515 16.2719 12.3738 15.7536 12.3586 15.218C12.3434 14.6824 12.4913 14.1548 12.7827 13.7052C13.0742 13.2555 13.4954 12.9051 13.9905 12.7004C14.4857 12.4956 15.0314 12.4462 15.5553 12.5586C16.0792 12.6711 16.5555 12.9401 16.923 13.3301ZM17.557 14.4701C17.6601 14.8618 17.6721 15.272 17.592 15.6691C17.7384 16.1956 18.0533 16.6596 18.4884 16.9902C18.9236 17.3208 19.455 17.4998 20.0015 17.4998C20.548 17.4998 21.0794 17.3208 21.5145 16.9902C21.9496 16.6596 22.2645 16.1956 22.411 15.6691C22.3307 15.2717 22.3424 14.8613 22.445 14.4691C22.3238 13.911 22.0152 13.4113 21.5706 13.0529C21.1259 12.6944 20.5721 12.499 20.001 12.499C19.4299 12.499 18.876 12.6944 18.4314 13.0529C17.9868 13.4113 17.6782 13.912 17.557 14.4701ZM16.531 14.5411C16.3898 14.1811 16.1261 13.8824 15.7864 13.6977C15.4466 13.513 15.0526 13.454 14.6737 13.5311C14.2948 13.6082 13.9552 13.8166 13.7147 14.1194C13.4743 14.4223 13.3483 14.8002 13.3591 15.1868C13.3698 15.5733 13.5166 15.9437 13.7735 16.2327C14.0305 16.5217 14.3811 16.7109 14.7638 16.7668C15.1464 16.8227 15.5365 16.7419 15.8654 16.5386C16.1943 16.3352 16.441 16.0224 16.562 15.6551C16.4922 15.2878 16.4818 14.9117 16.531 14.5411ZM23.44 15.6541C23.5608 16.0218 23.8076 16.335 24.1367 16.5386C24.4658 16.7423 24.8562 16.8233 25.2391 16.7674C25.6221 16.7116 25.973 16.5224 26.2302 16.2332C26.4874 15.944 26.6343 15.5733 26.6451 15.1864C26.6559 14.7996 26.5298 14.4213 26.2891 14.1182C26.0484 13.8152 25.7086 13.6067 25.3293 13.5296C24.95 13.4525 24.5557 13.5117 24.2158 13.6967C23.8759 13.8817 23.6121 14.1807 23.471 14.5411C23.5201 14.9114 23.5096 15.2871 23.44 15.6541ZM12.951 18.2971C13.298 18.2051 13.626 18.3191 13.852 18.4831C13.942 18.5481 14.066 18.6281 14.217 18.7011C14.3326 18.761 14.4203 18.8636 14.4614 18.9872C14.5025 19.1107 14.4938 19.2454 14.4371 19.3626C14.3805 19.4798 14.2803 19.5703 14.158 19.6149C14.0356 19.6594 13.9007 19.6545 13.782 19.6011C13.6009 19.5139 13.4279 19.4108 13.265 19.2931C13.2488 19.2815 13.2309 19.2724 13.212 19.2661L13.205 19.2651C13.0701 19.3011 12.9364 19.3411 12.804 19.3851L12.118 19.6091C11.8622 19.6924 11.6309 19.8377 11.4449 20.0321C11.2589 20.2265 11.1239 20.4639 11.052 20.7231L10.769 22.7721C10.713 23.1751 10.926 23.4771 11.229 23.5491C11.4523 23.6038 11.7233 23.6571 12.042 23.7091C12.1069 23.7196 12.169 23.7428 12.2249 23.7773C12.2809 23.8118 12.3294 23.857 12.3679 23.9103C12.4063 23.9637 12.4339 24.024 12.449 24.088C12.4641 24.1519 12.4665 24.2182 12.456 24.2831C12.4455 24.348 12.4223 24.4101 12.3878 24.466C12.3532 24.522 12.308 24.5705 12.2547 24.609C12.2014 24.6474 12.1411 24.675 12.0771 24.6901C12.0132 24.7052 11.9469 24.7076 11.882 24.6971C11.5852 24.6498 11.2904 24.5915 10.998 24.5221C10.103 24.3091 9.66498 23.4521 9.77798 22.6351L10.07 20.5291L10.076 20.5021C10.1855 20.0739 10.4015 19.6804 10.704 19.3582C11.0065 19.0359 11.3856 18.7954 11.806 18.6591L12.491 18.4341C12.6443 18.3841 12.7976 18.3384 12.951 18.2971ZM27.18 18.2971C27.0256 18.2593 26.8647 18.2564 26.709 18.2885C26.5533 18.3207 26.4068 18.3872 26.28 18.4831C26.19 18.5481 26.066 18.6281 25.915 18.7011C25.7994 18.761 25.7117 18.8636 25.6706 18.9872C25.6295 19.1107 25.6382 19.2454 25.6948 19.3626C25.7515 19.4798 25.8516 19.5703 25.974 19.6149C26.0963 19.6594 26.2312 19.6545 26.35 19.6011C26.5311 19.5139 26.7041 19.4108 26.867 19.2931C26.8832 19.2815 26.9011 19.2724 26.92 19.2661L26.925 19.2651H26.927C27.0623 19.3004 27.196 19.3404 27.328 19.3851L28.014 19.6091C28.54 19.7821 28.939 20.2031 29.08 20.7231L29.363 22.7721C29.419 23.1751 29.207 23.4771 28.903 23.5491C28.6341 23.6126 28.3629 23.666 28.09 23.7091C27.959 23.7303 27.8417 23.8027 27.7641 23.9103C27.6865 24.018 27.6548 24.1521 27.676 24.2831C27.6972 24.4141 27.7696 24.5313 27.8772 24.609C27.9849 24.6866 28.119 24.7183 28.25 24.6971C28.5913 24.6404 28.886 24.5821 29.134 24.5221C30.029 24.3091 30.467 23.4521 30.354 22.6351L30.062 20.5291L30.056 20.5021C29.9465 20.0739 29.7304 19.6804 29.4279 19.3582C29.1255 19.0359 28.7464 18.7954 28.326 18.6591L27.641 18.4341C27.4889 18.3843 27.3345 18.3387 27.18 18.2971Z" fill="black" stroke="black" stroke-width="0.3"/>
<path d="M21.791 19.9202C22.15 19.6822 22.651 19.5102 23.168 19.6552C23.324 19.6992 23.4797 19.7469 23.635 19.7982L24.594 20.1132C25.1505 20.2939 25.6522 20.6124 26.0526 21.039C26.453 21.4656 26.739 21.9865 26.884 22.5532L26.891 22.5802L27.297 25.5162C27.444 26.5762 26.877 27.6662 25.743 27.9362C24.593 28.2102 22.731 28.5002 20 28.5002C17.27 28.5002 15.407 28.2102 14.257 27.9362C13.123 27.6662 12.556 26.5762 12.703 25.5162L13.109 22.5802L13.116 22.5532C13.2611 21.9865 13.5471 21.4656 13.9475 21.039C14.3479 20.6124 14.8496 20.2939 15.406 20.1132L16.366 19.7982C16.5207 19.7469 16.676 19.6992 16.832 19.6552C17.349 19.5092 17.85 19.6822 18.209 19.9202C18.592 20.1742 19.222 20.4862 20 20.4862C20.778 20.4862 21.409 20.1742 21.791 19.9202ZM22.896 20.6172C22.754 20.5772 22.556 20.6132 22.344 20.7532C21.867 21.0702 21.044 21.4862 20 21.4862C18.956 21.4862 18.133 21.0702 17.656 20.7532C17.445 20.6132 17.246 20.5772 17.104 20.6172C16.9607 20.6572 16.8187 20.7006 16.678 20.7472L15.718 21.0632C15.3263 21.1908 14.9725 21.4139 14.6886 21.7125C14.4047 22.011 14.1997 22.3756 14.092 22.7732L13.693 25.6532C13.603 26.3002 13.946 26.8332 14.489 26.9632C15.556 27.2182 17.341 27.5002 20 27.5002C22.659 27.5002 24.444 27.2182 25.511 26.9632C26.054 26.8332 26.396 26.3002 26.307 25.6532L25.908 22.7732C25.8004 22.3756 25.5953 22.011 25.3114 21.7125C25.0276 21.4139 24.6738 21.1908 24.282 21.0632L23.322 20.7482C23.1814 20.7016 23.0394 20.6582 22.896 20.6182" fill="black"/>
<path d="M22.896 20.6172C22.754 20.5772 22.556 20.6132 22.344 20.7532C21.867 21.0702 21.044 21.4862 20 21.4862C18.956 21.4862 18.133 21.0702 17.656 20.7532C17.445 20.6132 17.246 20.5772 17.104 20.6172C16.9607 20.6572 16.8187 20.7006 16.678 20.7472L15.718 21.0632C15.3263 21.1908 14.9725 21.4139 14.6886 21.7125C14.4047 22.011 14.1997 22.3756 14.092 22.7732L13.693 25.6532C13.603 26.3002 13.946 26.8332 14.489 26.9632C15.556 27.2182 17.341 27.5002 20 27.5002C22.659 27.5002 24.444 27.2182 25.511 26.9632C26.054 26.8332 26.396 26.3002 26.307 25.6532L25.908 22.7732C25.8004 22.3756 25.5953 22.011 25.3114 21.7125C25.0276 21.4139 24.6738 21.1908 24.282 21.0632L23.322 20.7482C23.1814 20.7016 23.0394 20.6582 22.896 20.6182M21.791 19.9202C22.15 19.6822 22.651 19.5102 23.168 19.6552C23.324 19.6992 23.4797 19.7469 23.635 19.7982L24.594 20.1132C25.1505 20.2939 25.6522 20.6124 26.0526 21.039C26.453 21.4656 26.739 21.9865 26.884 22.5532L26.891 22.5802L27.297 25.5162C27.444 26.5762 26.877 27.6662 25.743 27.9362C24.593 28.2102 22.731 28.5002 20 28.5002C17.27 28.5002 15.407 28.2102 14.257 27.9362C13.123 27.6662 12.556 26.5762 12.703 25.5162L13.109 22.5802L13.116 22.5532C13.2611 21.9865 13.5471 21.4656 13.9475 21.039C14.3479 20.6124 14.8496 20.2939 15.406 20.1132L16.366 19.7982C16.5207 19.7469 16.676 19.6992 16.832 19.6552C17.349 19.5092 17.85 19.6822 18.209 19.9202C18.592 20.1742 19.222 20.4862 20 20.4862C20.778 20.4862 21.409 20.1742 21.791 19.9202Z" stroke="black" stroke-width="0.3"/>
</svg>
