<svg width="24" height="24" viewBox="0 0 24 24" fill="none" xmlns="http://www.w3.org/2000/svg">
<path d="M11.8856 20.8687C13.7737 20.8345 15.5152 20.668 17.1811 20.0535C17.6109 19.8951 18.0267 19.6855 18.427 19.4601C19.0387 19.1155 19.3373 18.643 19.245 17.8682C19.0819 16.5004 18.6567 15.2573 17.842 14.151C17.6287 13.8613 17.3808 13.5955 17.1361 13.3307C16.7742 12.9388 16.7569 12.4588 17.1061 12.1204C17.4497 11.7876 17.948 11.8124 18.3159 12.1884C19.7695 13.6734 20.6325 15.4415 20.8402 17.5143C20.8833 17.946 20.9123 18.3913 20.8556 18.8179C20.752 19.5988 20.2514 20.1477 19.643 20.6005C18.7392 21.2727 17.7019 21.6505 16.6261 21.9351C14.7844 22.4216 12.9061 22.5684 11.0114 22.4751C9.29672 22.3907 7.60593 22.1291 6.00562 21.4734C5.47406 21.2554 4.95843 20.9765 4.47656 20.6629C3.42984 19.9823 3.00281 19.0087 3.13593 17.7519C3.33 15.9262 3.94781 14.2846 5.10656 12.8549C5.28609 12.6332 5.48015 12.4223 5.67797 12.217C6.03703 11.8448 6.54984 11.8227 6.88828 12.1555C7.21922 12.4809 7.21547 12.9852 6.86203 13.348C5.94609 14.2884 5.29781 15.3824 4.99547 16.6616C4.875 17.1726 4.83468 17.7032 4.76343 18.2254C4.71609 18.5709 4.85718 18.8465 5.1014 19.0794C5.59218 19.5487 6.19406 19.8252 6.81984 20.0502C8.15578 20.5302 9.54093 20.758 10.9552 20.8223C11.3077 20.8382 11.6597 20.8574 11.8847 20.8687H11.8856Z" fill="black"/>
<path d="M6.35815 7.13763C6.33471 4.09075 8.87393 1.48825 12.0239 1.49857C15.1674 1.50888 17.7042 4.09638 17.6719 7.23888C17.6405 10.2956 15.1092 12.8025 12.0122 12.8142C8.90909 12.8259 6.31971 10.2506 6.35815 7.13763ZM12.0286 3.13075C9.82784 3.1556 8.03159 4.84169 7.99502 7.08982C7.95893 9.31638 9.66706 11.1323 11.9442 11.1726C14.2017 11.2129 15.9835 9.46263 16.0322 7.19857C16.08 4.99263 14.266 3.16263 12.0286 3.13028V3.13075Z" fill="black"/>
</svg>
