<?xml version="1.0" encoding="UTF-8"?>
<svg width="24px" height="24px" viewBox="0 0 24 24" version="1.1" xmlns="http://www.w3.org/2000/svg" xmlns:xlink="http://www.w3.org/1999/xlink">
    <title>mdpi/Icon/24x/Amenities</title>
    <g id="Icon/24x/Amenities" stroke="none" stroke-width="1" fill="none" fill-rule="evenodd">
        <path d="M7.65,3.15168539 C7.85,2.9494382 8.16,2.9494382 8.36,3.15168539 L8.36,3.15168539 L12,6.83258427 L15.64,3.15168539 C15.84,2.9494382 16.15,2.9494382 16.35,3.15168539 C16.55,3.35393258 16.55,3.66741573 16.35,3.86966292 L16.35,3.86966292 L13.41,6.84269663 L20,6.84269663 C21.1,6.84269663 22,7.74269663 22,8.86516854 L22,8.86516854 L22,18.9775281 C22,20.0898876 21.1,21 20,21 L20,21 L4,21 C2.9,21 2,20.0898876 2,18.9775281 L2,18.9775281 L2,8.86516854 C2,7.74269663 2.9,6.84269663 4,6.84269663 L4,6.84269663 L10.59,6.84269663 L7.65,3.86966292 C7.45,3.66741573 7.45,3.35393258 7.65,3.15168539 Z M19,9 L5,9 C4.45,9 4,9.40909091 4,9.90909091 L4,9.90909091 L4,18.0909091 C4,18.5909091 4.45,19 5,19 L5,19 L19,19 C19.55,19 20,18.5909091 20,18.0909091 L20,18.0909091 L20,9.90909091 C20,9.40909091 19.55,9 19,9 L19,9 Z M10,11.9156493 C10,11.2208452 10.6936899,10.7728795 11.2536565,11.1202815 L11.2536565,11.1202815 L14.5800251,13.2046936 C15.1399916,13.5612378 15.1399916,14.4480272 14.5800251,14.7954292 L14.5800251,14.7954292 L11.2536565,16.8798413 C10.6936899,17.2272433 10,16.7792776 10,16.0753314 L10,16.0753314 Z" id="Combined-Shape" fill="#00ADB5"></path>
    </g>
</svg>