<?xml version="1.0" encoding="UTF-8"?>
<svg width="20px" height="13px" viewBox="0 0 20 13" version="1.1" xmlns="http://www.w3.org/2000/svg" xmlns:xlink="http://www.w3.org/1999/xlink">
    <title>mdpi/Bus Amenities / AC / Available</title>
    <defs>
        <path d="M18,14 C18,13.4477153 18.4477153,13 19,13 L20,13 C20.5522847,13 21,12.5522847 21,12 L21,8 C21,7.44771525 20.5522847,7 20,7 L4,7 C3.44771525,7 3,7.44771525 3,8 L3,12.4955342 C3,12.7741429 3.22585705,13 3.50446584,13 L5.00893169,13 C5.56121644,13 6.00893169,13.4477153 6.00893169,14 L3.50446584,14 C2.6735723,14 2,13.3264277 2,12.4955342 L2,8 C2,6.8954305 2.8954305,6 4,6 L20,6 C21.1045695,6 22,6.8954305 22,8 L22,12 C22,13.1045695 21.1045695,14 20,14 L18,14 Z M16.5,9 C16.2238576,9 16,8.77614237 16,8.5 C16,8.22385763 16.2238576,8 16.5,8 L18.5,8 C18.7761424,8 19,8.22385763 19,8.5 C19,8.77614237 18.7761424,9 18.5,9 L16.5,9 Z M4.5,12 C4.22385763,12 4,11.7761424 4,11.5 C4,11.2238576 4.22385763,11 4.5,11 L19.5,11 C19.7761424,11 20,11.2238576 20,11.5 C20,11.7761424 19.7761424,12 19.5,12 L4.5,12 Z M7.9930394,14.4007829 C7.55371327,14.7284864 7.51800272,15.1001847 7.92256175,15.7296747 C8.60276238,16.7880604 8.44581485,17.7635233 7.45563255,18.4172623 C7.22518494,18.5694087 6.91503126,18.5059329 6.76288492,18.2754853 C6.61073859,18.0450377 6.67421432,17.734884 6.90466194,17.5827377 C7.41897123,17.2431799 7.47655096,16.8853095 7.08131452,16.2703253 C6.41043647,15.2264454 6.50282462,14.2648104 7.39513296,13.5992171 C7.61647927,13.4341097 7.92976182,13.4797005 8.09486913,13.7010468 C8.25997643,13.9223931 8.21438571,14.2356756 7.9930394,14.4007829 Z M10.9930394,14.4007829 C10.5537133,14.7284864 10.5180027,15.1001847 10.9225617,15.7296747 C11.6027624,16.7880604 11.4458148,17.7635233 10.4556326,18.4172623 C10.2251849,18.5694087 9.91503126,18.5059329 9.76288492,18.2754853 C9.61073859,18.0450377 9.67421432,17.734884 9.90466194,17.5827377 C10.4189712,17.2431799 10.476551,16.8853095 10.0813145,16.2703253 C9.41043647,15.2264454 9.50282462,14.2648104 10.395133,13.5992171 C10.6164793,13.4341097 10.9297618,13.4797005 11.0948691,13.7010468 C11.2599764,13.9223931 11.2143857,14.2356756 10.9930394,14.4007829 Z M13.9930394,14.4007829 C13.5537133,14.7284864 13.5180027,15.1001847 13.9225617,15.7296747 C14.6027624,16.7880604 14.4458148,17.7635233 13.4556326,18.4172623 C13.2251849,18.5694087 12.9150313,18.5059329 12.7628849,18.2754853 C12.6107386,18.0450377 12.6742143,17.734884 12.9046619,17.5827377 C13.4189712,17.2431799 13.476551,16.8853095 13.0813145,16.2703253 C12.4104365,15.2264454 12.5028246,14.2648104 13.395133,13.5992171 C13.6164793,13.4341097 13.9297618,13.4797005 14.0948691,13.7010468 C14.2599764,13.9223931 14.2143857,14.2356756 13.9930394,14.4007829 Z M16.9930394,14.4007829 C16.5537133,14.7284864 16.5180027,15.1001847 16.9225617,15.7296747 C17.6027624,16.7880604 17.4458148,17.7635233 16.4556326,18.4172623 C16.2251849,18.5694087 15.9150313,18.5059329 15.7628849,18.2754853 C15.6107386,18.0450377 15.6742143,17.734884 15.9046619,17.5827377 C16.4189712,17.2431799 16.476551,16.8853095 16.0813145,16.2703253 C15.4104365,15.2264454 15.5028246,14.2648104 16.395133,13.5992171 C16.6164793,13.4341097 16.9297618,13.4797005 17.0948691,13.7010468 C17.2599764,13.9223931 17.2143857,14.2356756 16.9930394,14.4007829 Z" id="path-1"></path>
    </defs>
    <g id="Page-1" stroke="none" stroke-width="1" fill="none" fill-rule="evenodd">
        <g id="Bus-Amenities" transform="translate(-107.000000, -304.000000)">
            <g id="Bus-Amenities-/-AC-/-Available" transform="translate(105.000000, 298.000000)">
                <rect id="Rectangle" x="0" y="0" width="24" height="24"></rect>
                <mask id="mask-2" fill="white">
                    <use xlink:href="#path-1"></use>
                </mask>
                <use id="Combined-Shape" fill="#000000" fill-rule="nonzero" xlink:href="#path-1"></use>
                <g id="color-/-black" mask="url(#mask-2)">
                    <rect id="Rectangle" x="0" y="0" width="24" height="24"></rect>
                    <rect id="Rectangle" fill="#000000" fill-rule="evenodd" x="0" y="0" width="24" height="24"></rect>
                </g>
            </g>
        </g>
    </g>
</svg>