<svg width="12" height="13" viewBox="0 0 12 13" fill="none" xmlns="http://www.w3.org/2000/svg">
<path d="M10.9453 3.31494H9.93799V11.014H10.9453C11.5269 11.014 12 10.5409 12 9.95935V4.36963C12 3.78807 11.5269 3.31494 10.9453 3.31494Z" fill="#FFBD16"/>
<path d="M7.65624 3.31493V2.87817C7.65624 2.29662 7.18311 1.82349 6.60156 1.82349H5.39849C4.81693 1.82349 4.3438 2.29662 4.3438 2.87817V3.31493H2.76517V11.014H9.23488V3.31493H7.65624ZM6.9531 3.31493H5.0469V2.87817C5.0469 2.68432 5.20461 2.52661 5.39846 2.52661H6.60153C6.79538 2.52661 6.9531 2.68432 6.9531 2.87817V3.31493Z" fill="#FFBD16"/>
<path d="M1.05469 3.31494C0.473133 3.31494 0 3.78807 0 4.36963V9.95935C0 10.5409 0.473133 11.014 1.05469 11.014H2.06201V3.31494H1.05469Z" fill="#FFBD16"/>
</svg>
