<?xml version="1.0"?>
<svg xmlns="http://www.w3.org/2000/svg" width="512" height="512" viewBox="0 0 128 128"><path d="M120.25,63.141h-2.258V23.483a5.923,5.923,0,0,0-1.341-11.694H105.833a5.923,5.923,0,0,0-1.462,11.663,11.242,11.242,0,0,1-11.112,9.673H34.741a11.241,11.241,0,0,1-11.112-9.673,5.923,5.923,0,0,0-1.462-11.663H11.349a5.923,5.923,0,0,0-1.341,11.694V63.141H7.75A7.759,7.759,0,0,0,0,70.891v43.57a1.75,1.75,0,0,0,1.75,1.75h10a1.75,1.75,0,0,0,1.75-1.75,11.246,11.246,0,0,1,11.233-11.233h78.534A11.246,11.246,0,0,1,114.5,114.461a1.749,1.749,0,0,0,1.75,1.75h10a1.749,1.749,0,0,0,1.75-1.75V70.891A7.759,7.759,0,0,0,120.25,63.141ZM103.406,17.715a2.429,2.429,0,0,1,2.427-2.426h10.818a2.427,2.427,0,1,1,0,4.853H105.833A2.43,2.43,0,0,1,103.406,17.715Zm-94.484,0a2.429,2.429,0,0,1,2.427-2.426H22.167a2.427,2.427,0,1,1,0,4.853H11.349A2.43,2.43,0,0,1,8.922,17.715Zm4.586,5.927h6.6a14.755,14.755,0,0,0,14.63,12.983H93.259a14.756,14.756,0,0,0,14.63-12.983h6.6v39.5h-7.617V54.972a9.761,9.761,0,0,0-9.75-9.75H72a9.741,9.741,0,0,0-8,4.192,9.741,9.741,0,0,0-8-4.192H30.875a9.761,9.761,0,0,0-9.75,9.75v8.169H13.508Zm11.117,39.5V54.972a6.257,6.257,0,0,1,6.25-6.25H56a6.257,6.257,0,0,1,6.25,6.25v8.169ZM65.75,54.972A6.257,6.257,0,0,1,72,48.722H97.125a6.257,6.257,0,0,1,6.25,6.25v8.169H65.75ZM3.5,70.891a4.255,4.255,0,0,1,4.25-4.25h112.5a4.255,4.255,0,0,1,4.25,4.25V84.724H3.5Zm121,41.82h-6.6a14.754,14.754,0,0,0-14.629-12.983H24.733A14.756,14.756,0,0,0,10.1,112.711H3.5V88.224h121Z"/></svg>
