<svg width="16" height="16" viewBox="0 0 16 16" fill="none" xmlns="http://www.w3.org/2000/svg">
<path d="M16 6.09385V7.1876C15.9883 7.21611 15.975 7.24424 15.9648 7.27354C15.7996 7.75322 15.4527 8.00088 14.9414 8.00439C14.859 8.00478 14.7762 8.00439 14.6813 8.00439C14.6774 8.08135 14.6715 8.14775 14.6715 8.21416C14.6711 9.55088 14.6715 10.8876 14.6707 12.2243C14.6707 12.5103 14.6766 12.7966 14.6641 13.0821C14.6332 13.7872 14.1641 14.3876 13.4918 14.5974C13.4438 14.6122 13.3961 14.6282 13.3422 14.6458C13.3422 14.7528 13.3438 14.8513 13.3422 14.9497C13.3359 15.3028 13.2137 15.6036 12.9188 15.8095C12.8024 15.8907 12.6613 15.9376 12.5316 16.0001H10.8129C10.7844 15.9884 10.7566 15.9747 10.7277 15.9653C10.2602 15.8106 10.0016 15.4552 9.99649 14.9583C9.99571 14.8704 9.99649 14.7825 9.99649 14.6829H6.0043C6.0043 14.7978 6.00665 14.9017 6.00391 15.0052C5.99649 15.3005 5.89493 15.5622 5.66251 15.745C5.52344 15.8544 5.34766 15.9169 5.18829 16.0005H3.46954C3.4418 15.988 3.41524 15.9728 3.38672 15.963C2.96837 15.8192 2.72188 15.5329 2.67266 15.0896C2.65626 14.9407 2.65704 14.7903 2.64962 14.6372C2.30001 14.5548 2.00938 14.3837 1.77032 14.1239C1.4543 13.7806 1.32657 13.3731 1.32774 12.911C1.33204 11.3454 1.32969 9.77979 1.32891 8.21416C1.32891 8.14775 1.32266 8.08135 1.31915 8.004C1.20352 8.004 1.10001 8.00596 0.99649 8.00361C0.701178 7.99619 0.439459 7.89502 0.256647 7.6626C0.147272 7.52353 0.0843811 7.34736 0.000396729 7.18799C0.000396729 6.82353 0.000396729 6.45869 0.000396729 6.09424C0.0183655 6.03018 0.0363342 5.96572 0.0546936 5.90166C0.215631 5.34307 0.574225 4.96611 1.1129 4.7583C1.32735 4.67549 1.3293 4.68057 1.3293 4.44971C1.3293 4.39775 1.3293 4.3458 1.3293 4.29385C1.33204 3.37353 1.32422 2.45322 1.34141 1.53291C1.34962 1.09111 1.56329 0.731348 1.88399 0.430176C2.13087 0.198145 2.43008 0.0805664 2.7504 0.000488281C6.2504 0.000488281 9.7504 0.000488281 13.2504 0.000488281C13.2789 0.0102539 13.307 0.0227539 13.3363 0.0290039C13.6992 0.106348 13.9992 0.288379 14.2473 0.563379C14.552 0.902051 14.6746 1.30127 14.6727 1.75088C14.6684 2.67627 14.6738 3.60205 14.6684 4.52744C14.6676 4.654 14.7047 4.70791 14.8277 4.74189C15.1473 4.82978 15.4008 5.02197 15.6176 5.27197C15.8254 5.51143 15.9266 5.79541 16.0004 6.09424L16 6.09385ZM8.00001 4.0044C6.58868 4.0044 5.17735 4.00088 3.76602 4.00908C3.58868 4.01025 3.39727 4.04229 3.2379 4.11533C2.84219 4.29619 2.67305 4.63643 2.67227 5.06182C2.66993 6.1294 2.67032 7.19697 2.67305 8.26455C2.67305 8.37275 2.68438 8.48447 2.7129 8.58838C2.84258 9.06416 3.22149 9.32861 3.77383 9.32861C6.59141 9.32979 9.40899 9.3294 12.2266 9.32744C12.3453 9.32744 12.468 9.31924 12.5816 9.28916C13.0535 9.16533 13.3262 8.78604 13.3281 8.24893C13.3316 7.19697 13.3336 6.14502 13.3246 5.09307C13.3231 4.9208 13.2934 4.73486 13.2227 4.57939C13.0367 4.1708 12.6875 4.0044 12.2496 4.0044C10.8332 4.0044 9.41641 4.0044 8.00001 4.0044ZM7.99922 1.34229C7.23399 1.34229 6.46837 1.34189 5.70313 1.34229C5.22422 1.34268 4.74454 1.33252 4.26641 1.3501C3.87305 1.36455 3.58712 1.57744 3.4293 1.9333C3.27149 2.28955 3.31758 2.63564 3.5586 2.94658C3.78946 3.24502 4.10977 3.33018 4.47071 3.32979C6.80313 3.32744 9.13594 3.32861 11.4684 3.32783C11.5723 3.32783 11.6766 3.32197 11.7797 3.31221C12.4492 3.24971 12.8621 2.50557 12.5574 1.90322C12.3621 1.51729 12.0375 1.34033 11.607 1.34111C10.4043 1.34307 9.20157 1.34189 7.99883 1.34189L7.99922 1.34229ZM3.34415 11.6591C3.34063 12.2099 3.78008 12.6544 4.3293 12.6563C4.87969 12.6579 5.32227 12.2173 5.32344 11.6669C5.32462 11.1251 4.89258 10.688 4.34493 10.6774C3.8004 10.6669 3.34766 11.1106 3.34415 11.6595V11.6591ZM12.6559 11.6626C12.6539 11.1134 12.2043 10.6692 11.6582 10.6771C11.1113 10.6849 10.6797 11.1185 10.6762 11.6638C10.6727 12.2118 11.1168 12.6567 11.6668 12.6563C12.2168 12.6563 12.6578 12.213 12.6555 11.6626H12.6559Z" fill="black"/>
</svg>
