<?xml version="1.0" encoding="UTF-8"?>
<svg width="24px" height="24px" viewBox="0 0 24 24" version="1.1" xmlns="http://www.w3.org/2000/svg" xmlns:xlink="http://www.w3.org/1999/xlink">
    <title>mdpi/Icon/24x/Boarding</title>
    <g id="Icon/24x/Boarding" stroke="none" stroke-width="1" fill="none" fill-rule="evenodd">
        <path d="M17.1333333,3 C18.1642649,3 19,3.8954305 19,5 L19,17 C19,17.7689821 18.5949441,18.4366007 18.0009621,18.7712881 L18,20 C18,20.5522847 17.5522847,21 17,21 L16,21 C15.4477153,21 15,20.5522847 15,20 L15,19 L9,19 L9,20 C9,20.5522847 8.55228475,21 8,21 L7,21 C6.44771525,21 6,20.5522847 6,20 L6.00004537,18.7718554 C5.40551401,18.4373555 5,17.7694168 5,17 L5.00085214,12.8794008 C5.09467655,12.8396106 5.1845685,12.7899743 5.2685818,12.7304918 L5.38994949,12.6338835 L8.338,10 L17,10 L17,5 L7.219,5 L5.58811515,3.54278973 C5.92215363,3.20621182 6.37193392,3 6.86666667,3 L17.1333333,3 Z M17,12 L7,12 L7,17 L17,17 L17,12 Z M9.5,13 C10.3284271,13 11,13.6715729 11,14.5 C11,15.3284271 10.3284271,16 9.5,16 C8.67157288,16 8,15.3284271 8,14.5 C8,13.6715729 8.67157288,13 9.5,13 Z M14.5,13 C15.3284271,13 16,13.6715729 16,14.5 C16,15.3284271 15.3284271,16 14.5,16 C13.6715729,16 13,15.3284271 13,14.5 C13,13.6715729 13.6715729,13 14.5,13 Z M5.61289944,5.20970461 L5.70710678,5.29289322 L7.70710678,7.29289322 C8.06759074,7.65337718 8.09532028,8.22060824 7.79029539,8.61289944 L7.70710678,8.70710678 L5.70710678,10.7071068 C5.31658249,11.0976311 4.68341751,11.0976311 4.29289322,10.7071068 C3.93240926,10.3466228 3.90467972,9.77939176 4.20970461,9.38710056 L4.29289322,9.29289322 L5.585,8 L4.29289322,6.70710678 C3.93240926,6.34662282 3.90467972,5.77939176 4.20970461,5.38710056 L4.29289322,5.29289322 C4.65337718,4.93240926 5.22060824,4.90467972 5.61289944,5.20970461 Z" id="Shape" fill="#00ADB5"></path>
    </g>
</svg>