<svg width="24" height="25" viewBox="0 0 24 25" fill="none" xmlns="http://www.w3.org/2000/svg">
<g clip-path="url(#clip0_139_382)">
<path d="M4 17.3548C4 17.8853 4.21071 18.394 4.58579 18.7691C4.96086 19.1441 5.46957 19.3548 6 19.3548C6.53043 19.3548 7.03914 19.1441 7.41421 18.7691C7.78929 18.394 8 17.8853 8 17.3548C8 16.8244 7.78929 16.3157 7.41421 15.9406C7.03914 15.5656 6.53043 15.3548 6 15.3548C5.46957 15.3548 4.96086 15.5656 4.58579 15.9406C4.21071 16.3157 4 16.8244 4 17.3548Z" stroke="#333333" stroke-width="1.75" stroke-linecap="round" stroke-linejoin="round"/>
<path d="M16 17.3548C16 17.8853 16.2107 18.394 16.5858 18.7691C16.9609 19.1441 17.4696 19.3548 18 19.3548C18.5304 19.3548 19.0391 19.1441 19.4142 18.7691C19.7893 18.394 20 17.8853 20 17.3548C20 16.8244 19.7893 16.3157 19.4142 15.9406C19.0391 15.5656 18.5304 15.3548 18 15.3548C17.4696 15.3548 16.9609 15.5656 16.5858 15.9406C16.2107 16.3157 16 16.8244 16 17.3548Z" stroke="#333333" stroke-width="1.75" stroke-linecap="round" stroke-linejoin="round"/>
<path d="M4 17.3548H2V6.35484C2 6.08963 2.10536 5.83527 2.29289 5.64774C2.48043 5.4602 2.73478 5.35484 3 5.35484H17C18.3261 5.35484 19.5979 6.09234 20.5355 7.4051C21.4732 8.71785 22 10.4983 22 12.3548V17.3548H20M16 17.3548H8" stroke="#333333" stroke-width="1.75" stroke-linecap="round" stroke-linejoin="round"/>
<path d="M16 5.35484L17.5 12.3548H22" stroke="#333333" stroke-width="1.75" stroke-linecap="round" stroke-linejoin="round"/>
<path d="M2 10.3548H17" stroke="#333333" stroke-width="1.75" stroke-linecap="round" stroke-linejoin="round"/>
<path d="M7 5.35484V10.3548" stroke="#333333" stroke-width="1.75" stroke-linecap="round" stroke-linejoin="round"/>
<path d="M12 5.35484V10.3548" stroke="#333333" stroke-width="1.75" stroke-linecap="round" stroke-linejoin="round"/>
</g>
<defs>
<clipPath id="clip0_139_382">
<rect width="24" height="24" fill="white" transform="translate(0 0.354843)"/>
</clipPath>
</defs>
</svg>
