<svg width="27" height="27" viewBox="0 0 27 27" fill="none" xmlns="http://www.w3.org/2000/svg">
<path d="M22.7937 24.205C22.7937 24.5956 22.8 24.9875 22.7919 25.3787C22.7856 25.685 22.5994 25.9068 22.3012 25.9931C22.0337 26.0706 21.7287 25.9718 21.5887 25.7225C21.5131 25.5875 21.4731 25.4181 21.465 25.2618C21.4469 24.9131 21.4594 24.5631 21.4594 24.1937C21.3562 24.1887 21.2737 24.1812 21.1906 24.1806C19.4256 24.18 17.6606 24.1837 15.8962 24.175C15.7012 24.1743 15.6187 24.2306 15.5519 24.4162C15.1944 25.4112 14.3037 26.0237 13.2181 26.0262C10.9737 26.0306 8.72875 26.0275 6.48437 26.0275C5.19062 26.0275 3.89687 26.0337 2.60312 26.0256C1.43187 26.0181 0.471872 25.27 0.201247 24.1575C0.147497 23.9356 0.127497 23.7006 0.126872 23.4718C0.121247 21.2787 0.122497 19.0856 0.123747 16.8918C0.124997 15.3962 1.145 14.36 2.64687 14.3343C3.21187 14.325 3.7775 14.3325 4.34312 14.3325C4.435 14.3325 4.52687 14.3325 4.61312 14.3325C4.65937 13.9662 4.67187 13.6225 4.75062 13.2943C5.01437 12.1906 5.995 11.4068 7.12937 11.3781C7.62625 11.3656 8.125 11.3443 8.61937 11.3806C9.02125 11.41 9.4175 11.5193 9.82937 11.5956C9.83062 11.565 9.8375 11.4837 9.8375 11.4025C9.83875 10.6912 9.8325 9.97997 9.83937 9.26935C9.855 7.67622 11.1906 6.32685 12.7831 6.28747C12.8581 6.2856 12.9331 6.27622 13.0375 6.26872C13.0375 6.15622 13.0375 6.0556 13.0375 5.9556C13.0375 4.98747 13.0319 4.01935 13.0387 3.05122C13.0487 1.62247 13.8987 0.525596 15.2437 0.206846C15.4581 0.156221 15.6837 0.131846 15.9044 0.130596C17.2581 0.123721 18.6119 0.121221 19.9656 0.128721C21.3662 0.136846 22.4875 1.05497 22.7637 2.41872C22.8125 2.65997 22.8175 2.91247 22.8194 3.15997C22.8256 4.08497 22.8219 5.0106 22.8219 5.9356C22.8219 6.03747 22.8219 6.13997 22.8219 6.23997C23.1506 6.29185 23.465 6.31747 23.7669 6.39372C25.0494 6.71747 26.0219 7.92622 26.0256 9.24622C26.0362 13.2387 26.0387 17.2312 26.0244 21.2237C26.0194 22.6575 24.8675 23.9312 23.455 24.1312C23.245 24.1612 23.0337 24.1781 22.7944 24.2043L22.7937 24.205ZM15.7106 22.8437H16.0081C18.2862 22.8437 20.5644 22.8437 22.8419 22.8437C23.9662 22.8437 24.6925 22.1206 24.6925 21.0018C24.6931 18.0131 24.6925 15.0243 24.6925 12.0356C24.6925 11.9443 24.6925 11.8537 24.6925 11.7606H11.1925V14.3331C11.3206 14.3331 11.4312 14.3318 11.5412 14.3331C12.2087 14.3406 12.8781 14.32 13.5437 14.3625C14.6862 14.4343 15.6819 15.4606 15.6956 16.6C15.7187 18.5693 15.7075 20.5393 15.71 22.5087C15.71 22.6093 15.71 22.7106 15.71 22.8437H15.7106ZM10.7712 24.6806V15.6831H5.07375V24.6806H10.7712ZM24.6906 10.3912C24.6906 9.98622 24.7125 9.5931 24.6862 9.2031C24.6281 8.32685 23.9025 7.64685 23.0244 7.62435C22.7162 7.61622 22.4075 7.6206 22.0994 7.6206C19.0587 7.6206 16.0181 7.61935 12.9775 7.62185C12.1512 7.62247 11.5231 8.04872 11.2737 8.77122C11.09 9.3031 11.2062 9.84935 11.175 10.3912H24.6906ZM21.4606 6.27247C21.4706 6.22872 21.4844 6.19622 21.4844 6.16372C21.4844 5.08497 21.5069 4.00497 21.4769 2.92685C21.4519 2.0356 20.8169 1.46435 19.9225 1.4631C18.595 1.4606 17.2675 1.45935 15.9406 1.46622C15.7556 1.46747 15.5631 1.49622 15.3875 1.55247C14.755 1.7556 14.3794 2.30497 14.375 3.03122C14.3687 4.04185 14.3731 5.05247 14.3737 6.06247C14.3737 6.12872 14.3837 6.19435 14.39 6.27247H21.4612H21.4606ZM12.1437 15.6925V24.6918C12.4731 24.6918 12.7806 24.6918 13.0887 24.6918C13.9581 24.6918 14.375 24.2743 14.3756 23.4006C14.3762 21.2518 14.3756 19.1025 14.3756 16.9537C14.3756 16.8593 14.3756 16.765 14.3687 16.6712C14.3356 16.1756 13.965 15.7431 13.4712 15.7C13.04 15.6618 12.6025 15.6918 12.1444 15.6918L12.1437 15.6925ZM3.71312 15.6831C3.62187 15.6768 3.555 15.6681 3.48812 15.6687C3.1375 15.6725 2.78437 15.655 2.43562 15.6881C1.87125 15.7418 1.4725 16.1962 1.46187 16.7625C1.45625 17.0537 1.46062 17.345 1.46062 17.6362C1.46062 19.6062 1.45937 21.5768 1.46125 23.5468C1.46125 24.0487 1.74187 24.4787 2.19062 24.6168C2.68937 24.7706 3.20187 24.6712 3.71312 24.6856V15.6831ZM9.83812 14.3175C9.83812 14.2018 9.83812 14.1012 9.83812 14.0012C9.83687 13.2206 9.34437 12.7181 8.56125 12.7075C8.14187 12.7018 7.72125 12.7231 7.30187 12.7025C6.48125 12.6625 5.83437 13.3818 6.02312 14.3175H9.8375H9.83812Z" fill="black"/>
</svg>
