<svg width="20" height="18" viewBox="0 0 20 18" fill="none" xmlns="http://www.w3.org/2000/svg">
<path fill-rule="evenodd" clip-rule="evenodd" d="M17.25 0H2.25C1.00736 0 0 1.00736 0 2.25V12.75C0 13.9926 1.00736 15 2.25 15H17.25C18.4926 15 19.5 13.9926 19.5 12.75V2.25C19.5 1.00736 18.4926 0 17.25 0ZM18 12.75C18 13.1642 17.6642 13.5 17.25 13.5H2.25C1.83579 13.5 1.5 13.1642 1.5 12.75V2.25C1.5 1.83579 1.83579 1.5 2.25 1.5H17.25C17.6642 1.5 18 1.83579 18 2.25V12.75ZM13.5 17.25C13.5 17.6642 13.1642 18 12.75 18H6.75C6.33579 18 6 17.6642 6 17.25C6 16.8358 6.33579 16.5 6.75 16.5H12.75C13.1642 16.5 13.5 16.8358 13.5 17.25ZM13.1663 6.87562L8.66625 3.87563C8.43605 3.72204 8.13998 3.70769 7.89601 3.83831C7.65204 3.96892 7.49982 4.22327 7.5 4.5V10.5C7.49982 10.7767 7.65204 11.0311 7.89601 11.1617C8.13998 11.2923 8.43605 11.278 8.66625 11.1244L13.1663 8.12438C13.3752 7.98533 13.5007 7.75098 13.5007 7.5C13.5007 7.24902 13.3752 7.01467 13.1663 6.87562ZM9 9.09844V5.90625L11.3981 7.5L9 9.09844Z" fill="#626262"/>
</svg>
