<svg width="17" height="20" viewBox="0 0 17 20" fill="none" xmlns="http://www.w3.org/2000/svg">
<path fill-rule="evenodd" clip-rule="evenodd" d="M0.776553 7.4581C0.927808 5.63013 1.76065 3.92579 3.10985 2.68321C4.45906 1.44063 6.22604 0.750597 8.06026 0.75H8.45309C10.2873 0.750597 12.0543 1.44063 13.4035 2.68321C14.7527 3.92579 15.5855 5.63013 15.7368 7.4581C15.9046 9.499 15.2746 11.5255 13.9791 13.1114L9.62066 18.4419C9.45547 18.644 9.24739 18.807 9.01149 18.9189C8.77559 19.0307 8.51776 19.0888 8.25667 19.0888C7.99558 19.0888 7.73776 19.0307 7.50185 18.9189C7.26595 18.807 7.05788 18.644 6.89268 18.4419L2.53519 13.1114C1.23937 11.5256 0.608961 9.49912 0.776553 7.4581ZM8.25667 4.15997C7.11112 4.15997 6.01249 4.61504 5.20247 5.42507C4.39244 6.23509 3.93737 7.33372 3.93737 8.47927C3.93737 9.62482 4.39244 10.7235 5.20247 11.5335C6.01249 12.3435 7.11112 12.7986 8.25667 12.7986C9.40222 12.7986 10.5009 12.3435 11.3109 11.5335C12.1209 10.7235 12.576 9.62482 12.576 8.47927C12.576 7.33372 12.1209 6.23509 11.3109 5.42507C10.5009 4.61504 9.40222 4.15997 8.25667 4.15997Z" stroke="#626262" stroke-width="1.5"/>
</svg>
