<svg width="23" height="18" viewBox="0 0 23 18" fill="none" xmlns="http://www.w3.org/2000/svg">
<path fill-rule="evenodd" clip-rule="evenodd" d="M16.5 0H6C4.34315 0 3 1.34315 3 3V16.5C3 17.3284 3.67157 18 4.5 18H6.75C7.57843 18 8.25 17.3284 8.25 16.5V15H14.25V16.5C14.25 17.3284 14.9216 18 15.75 18H18C18.8284 18 19.5 17.3284 19.5 16.5V3C19.5 1.34315 18.1569 0 16.5 0ZM4.5 13.5V8.25H18V13.5H4.5ZM4.5 4.5H18V6.75H4.5V4.5ZM6 1.5H16.5C17.3284 1.5 18 2.17157 18 3H4.5C4.5 2.17157 5.17157 1.5 6 1.5ZM6.75 16.5H4.5V15H6.75V16.5ZM15.75 16.5V15H18V16.5H15.75ZM9 10.875C9 11.4963 8.49632 12 7.875 12C7.25368 12 6.75 11.4963 6.75 10.875C6.75 10.2537 7.25368 9.75 7.875 9.75C8.49632 9.75 9 10.2537 9 10.875ZM15.75 10.875C15.75 11.4963 15.2463 12 14.625 12C14.0037 12 13.5 11.4963 13.5 10.875C13.5 10.2537 14.0037 9.75 14.625 9.75C15.2463 9.75 15.75 10.2537 15.75 10.875ZM22.5 4.5V6.75C22.5 7.16421 22.1642 7.5 21.75 7.5C21.3358 7.5 21 7.16421 21 6.75V4.5C21 4.08579 21.3358 3.75 21.75 3.75C22.1642 3.75 22.5 4.08579 22.5 4.5ZM1.5 4.5V6.75C1.5 7.16421 1.16421 7.5 0.75 7.5C0.335786 7.5 0 7.16421 0 6.75V4.5C0 4.08579 0.335786 3.75 0.75 3.75C1.16421 3.75 1.5 4.08579 1.5 4.5Z" fill="#626262"/>
</svg>
