<svg width="36" height="35" viewBox="0 0 36 35" fill="none" xmlns="http://www.w3.org/2000/svg">
<path d="M9.25578 11.1754C9.29178 11.0316 9.38462 10.9673 9.53052 10.973C9.59304 10.9768 9.65746 10.973 9.71999 10.973C11.5029 10.973 13.2859 10.9711 15.0688 10.9768C15.2356 10.9768 15.3511 10.9276 15.4686 10.8103C16.8461 9.42732 18.2293 8.04813 19.6105 6.66894C19.7185 6.5611 19.8151 6.42488 19.997 6.54029C20.1013 6.69164 20.0065 6.78813 19.9061 6.8884C19.4457 7.34623 18.9871 7.80407 18.5305 8.2638C18.4699 8.32434 18.3846 8.37164 18.3619 8.52299C18.4093 8.55894 18.4831 8.61002 18.5495 8.67245C18.6669 8.78407 18.7806 8.89948 18.8924 9.01678C18.9739 9.1038 18.9663 9.1984 18.8848 9.27975C18.8071 9.35732 18.72 9.3384 18.6423 9.27218C18.5874 9.22677 18.54 9.17002 18.4869 9.12083C18.3505 8.99407 18.2349 8.84272 18.1288 8.77083C17.3785 9.52191 16.6434 10.2541 15.9423 10.9541H30.4389C30.3783 10.8897 30.3442 10.85 30.3082 10.8122C29.8364 10.3411 29.3608 9.87569 28.8966 9.39705C28.764 9.26083 28.6768 9.23245 28.4968 9.34218C27.917 9.69407 27.3107 9.6865 26.7328 9.3365C25.9124 8.84272 25.6756 7.80407 26.1815 6.98299C26.2591 6.85813 26.2819 6.78434 26.1606 6.66705C25.3781 5.89705 24.6031 5.11759 23.8263 4.34191C23.5933 4.10921 23.3128 4.01461 22.9888 4.06002C22.7463 4.09407 22.5587 4.23407 22.392 4.40245C21.9922 4.80353 21.5867 5.20272 21.1888 5.60569C21.0751 5.7211 20.9671 5.7911 20.8175 5.67191C20.7777 5.5584 20.8061 5.46759 20.8933 5.38245C21.3537 4.9284 21.8084 4.47056 22.2688 4.0165C22.4185 3.86894 22.6023 3.77623 22.805 3.72326C22.8846 3.73272 22.9585 3.72326 23.0248 3.67407H23.2408C23.309 3.71759 23.3829 3.73083 23.4625 3.71948C23.7164 3.77813 23.9229 3.91434 24.1048 4.09596C24.9328 4.92272 25.7608 5.74948 26.5888 6.57623C26.784 6.7711 26.7821 6.79759 26.6002 7.02461C26.1568 7.58083 26.1853 8.32623 26.6646 8.81623C27.1554 9.31759 27.9057 9.35732 28.4779 8.91083C28.7128 8.72921 28.7431 8.72921 28.9497 8.93353C29.5939 9.57488 30.2362 10.2181 30.8804 10.8595C31.0206 10.9995 31.1665 11.1338 31.3162 11.2625C31.68 11.5765 31.8676 11.9719 31.8316 12.4506C31.7804 13.1241 31.8126 13.7995 31.8032 14.473C31.7975 14.9138 31.7994 15.3546 31.8032 15.7954C31.805 16.0679 31.7823 16.136 31.4848 16.1719C30.7819 16.257 30.2968 16.7811 30.2703 17.4357C30.2419 18.1527 30.7535 18.7373 31.4981 18.8319C31.788 18.8697 31.8013 18.8792 31.8013 19.1592C31.8013 20.3114 31.788 21.4616 31.8069 22.6138C31.8202 23.5143 31.1173 24.0327 30.3802 24.0289C27.2463 24.0119 24.1105 24.0233 20.9766 24.0176C20.7815 24.0176 20.645 24.0687 20.5048 24.2087C18.305 26.4146 16.0996 28.613 13.8979 30.8152C13.6554 31.0573 13.3939 31.2541 13.049 31.3014C12.6227 31.36 12.2419 31.2446 11.9349 30.94C11.0785 30.0906 10.2259 29.2373 9.37325 28.3841C9.20841 28.2176 9.2141 28.1892 9.38462 27.9811C10.0705 27.143 9.64989 25.9662 8.59262 25.7752C8.18715 25.7014 7.82715 25.8206 7.51262 26.0798C7.27768 26.2727 7.25683 26.2727 7.04652 26.0627C6.40799 25.427 5.77325 24.7914 5.13662 24.1538C4.98315 24.0006 4.82968 23.8511 4.66104 23.7149C4.43178 23.5295 4.2802 23.2873 4.20631 23.0016C4.21957 22.9373 4.20631 22.8825 4.15704 22.837V22.3508C4.23852 22.2903 4.2082 22.2033 4.2082 22.1276C4.2082 21.0681 4.2082 20.0068 4.20631 18.9473C4.26504 18.8225 4.37873 18.8452 4.48483 18.8338C5.1821 18.7676 5.70504 18.2397 5.73346 17.5757C5.76568 16.8284 5.27494 16.2627 4.50757 16.1606C4.39578 16.1454 4.26504 16.1757 4.20441 16.0376C4.20441 14.7208 4.20441 13.406 4.20441 12.0892C4.34083 11.3987 4.83725 10.9768 5.5402 10.9692C6.29241 10.9616 7.04652 10.9692 7.79873 10.9673C7.9522 10.9673 8.09052 10.9806 8.11704 11.1716C8.06967 11.3438 7.93325 11.34 7.79304 11.34C7.0541 11.34 6.31515 11.3381 5.5762 11.34C4.97178 11.34 4.5682 11.6938 4.55683 12.2879C4.53789 13.4022 4.55115 14.5184 4.54736 15.6346C4.54736 15.7557 4.58904 15.7954 4.7122 15.8238C5.56294 16.0092 6.10673 16.6752 6.10483 17.5057C6.10104 18.3211 5.55536 18.9852 4.71978 19.1649C4.58146 19.1952 4.54546 19.25 4.54736 19.3787C4.55115 20.476 4.53978 21.5733 4.55494 22.6706C4.56252 23.2854 4.95662 23.6487 5.57052 23.6487C11.7341 23.6487 17.8958 23.6487 24.0594 23.6487C24.1276 23.6487 24.2053 23.6752 24.2716 23.6014C24.2716 23.5125 24.2678 23.4141 24.2716 23.3157C24.2792 23.2022 24.3455 23.1227 24.4573 23.1246C24.569 23.1265 24.6335 23.2079 24.6391 23.3214C24.6429 23.4254 24.6391 23.5314 24.6391 23.6506H24.965C26.3255 23.6506 27.6859 23.6506 29.0463 23.6506C29.2718 23.6506 29.4973 23.643 29.7208 23.6411C29.9804 23.6733 30.2419 23.6449 30.5034 23.6543C31.0055 23.6752 31.4507 23.2287 31.4507 22.6876C31.4545 21.5903 31.4507 20.493 31.4545 19.3957C31.4545 19.25 31.428 19.1914 31.2613 19.1516C30.1775 18.8925 29.7038 17.886 29.9994 16.9684C30.2002 16.3441 30.6568 15.9789 31.2859 15.8314C31.3996 15.8049 31.4545 15.7803 31.4545 15.6497C31.4488 14.5165 31.4602 13.3833 31.4469 12.25C31.4413 11.7827 31.0415 11.3589 30.6095 11.3438C30.3139 11.3325 30.0164 11.323 29.7189 11.3533C29.6659 11.3495 29.6109 11.3438 29.5579 11.3438C27.9549 11.3438 26.3539 11.3438 24.7509 11.3438C24.7149 11.3438 24.6789 11.3457 24.6354 11.393C24.6354 11.4649 24.6429 11.5538 24.6335 11.6427C24.6221 11.7525 24.5596 11.83 24.4402 11.8243C24.336 11.8187 24.281 11.7449 24.2697 11.6465C24.2583 11.5519 24.2583 11.4554 24.2526 11.3457H23.94C19.205 11.3457 14.4701 11.3457 9.73515 11.3457C9.66315 11.3457 9.59115 11.34 9.51915 11.3457C9.38273 11.357 9.29557 11.2965 9.24631 11.1754H9.25578ZM12.1566 30.6297C12.3063 30.8454 12.5204 30.9325 12.7762 30.9514C13.1059 30.9741 13.3636 30.8492 13.5947 30.6184C15.732 28.4806 17.8711 26.3446 20.0103 24.2087C20.0577 24.1614 20.1316 24.1273 20.1297 24.0384H5.53073C5.90968 24.4035 6.2261 24.7535 6.5842 25.0638C6.77178 25.2568 6.96883 25.4441 7.14694 25.6446C7.25494 25.7657 7.33262 25.7581 7.46336 25.673C7.89157 25.3911 8.35957 25.3154 8.85599 25.4592C9.96062 25.7789 10.4343 27.0257 9.8261 28.0189C9.76357 28.1211 9.69536 28.1911 9.81852 28.3122C10.6029 29.0784 11.3798 29.856 12.1585 30.6279L12.1566 30.6297Z" fill="#3E3630"/>
<path d="M4.2082 16.0432C4.19115 16.0432 4.17599 16.0432 4.15894 16.0394V12.0986C4.17409 12.0986 4.19115 12.0986 4.2063 12.0948C4.2063 13.4116 4.2063 14.7265 4.2063 16.0432H4.2082Z" fill="#B0ADAB"/>
<path d="M4.15894 18.9548C4.17599 18.9548 4.19115 18.9548 4.2082 18.951C4.2082 20.0105 4.21199 21.0719 4.21009 22.1313C4.21009 22.207 4.23851 22.2959 4.15894 22.3546V18.9529V18.9548Z" fill="#B0ADAB"/>
<path d="M23.4644 3.72326C23.3848 3.73461 23.3109 3.72326 23.2427 3.67786H23.4587C23.4587 3.69299 23.4587 3.70813 23.4644 3.72326Z" fill="#B0ADAB"/>
<path d="M23.0286 3.67786C22.9623 3.72894 22.8884 3.73651 22.8088 3.72705C22.8164 3.71191 22.8164 3.69488 22.8126 3.67786H23.0286Z" fill="#B0ADAB"/>
<path d="M4.15894 22.8428C4.2082 22.8882 4.22146 22.943 4.2082 23.0074L4.18357 23.0017L4.15894 23.0055V22.8428Z" fill="#B0ADAB"/>
<path d="M29.7303 23.6449C29.5048 23.6487 29.2794 23.6544 29.0558 23.6544C27.6954 23.6544 26.3349 23.6544 24.9745 23.6544H24.6486C24.6486 23.5352 24.6524 23.4293 24.6486 23.3252C24.6448 23.2117 24.5785 23.1303 24.4667 23.1284C24.3549 23.1266 24.2867 23.206 24.2811 23.3195C24.2754 23.4179 24.2811 23.5163 24.2811 23.6052C24.2128 23.679 24.1371 23.6525 24.0688 23.6525C17.9053 23.6525 11.7436 23.6525 5.58 23.6525C4.96421 23.6525 4.572 23.2893 4.56442 22.6744C4.54926 21.5771 4.56063 20.4798 4.55684 19.3825C4.55684 19.2539 4.59095 19.199 4.72926 19.1687C5.56484 18.989 6.11053 18.3268 6.11432 17.5095C6.11811 16.679 5.57242 16.013 4.72169 15.8276C4.59853 15.8012 4.55684 15.7614 4.55684 15.6384C4.56063 14.5222 4.54737 13.4079 4.56632 12.2917C4.57769 11.6976 4.98126 11.3457 5.58569 11.3439C6.32463 11.3439 7.06358 11.3439 7.80253 11.3439C7.94274 11.3439 8.07916 11.3476 8.12653 11.1755C8.50548 11.1755 8.88442 11.1755 9.26148 11.1736C9.31074 11.2966 9.3979 11.3552 9.53432 11.3439C9.60632 11.3382 9.67832 11.3439 9.75032 11.3439C14.4853 11.3439 19.2202 11.3439 23.9552 11.3439H24.2678C24.2735 11.4536 24.2735 11.5501 24.2848 11.6447C24.2962 11.743 24.3512 11.8168 24.4554 11.8225C24.5747 11.8282 24.6373 11.7506 24.6486 11.6409C24.6581 11.5539 24.6505 11.463 24.6505 11.3912C24.6941 11.3457 24.7301 11.342 24.7661 11.342C26.3691 11.342 27.9701 11.342 29.5731 11.342C29.6261 11.342 29.6811 11.3495 29.7341 11.3514C29.7644 11.3703 29.7928 11.3912 29.8232 11.4082C30.1869 11.6125 30.3935 11.902 30.3897 12.3409C30.3802 13.3909 30.3859 14.4428 30.3859 15.4928C30.3859 15.7917 30.3859 15.8012 30.1074 15.8617C29.7966 15.9298 29.5389 16.0963 29.3305 16.3157C28.4267 17.273 28.8909 18.8471 30.1661 19.146C30.3518 19.1895 30.3897 19.2482 30.3897 19.4184C30.3821 20.5139 30.3859 21.6093 30.3859 22.7066C30.3859 22.7955 30.3726 22.8825 30.3499 22.9695C30.2665 23.3082 30.0088 23.4784 29.7341 23.6355L29.7303 23.6449ZM14.2693 22.226C14.3697 22.1749 14.4512 22.192 14.5288 22.1957C14.9362 22.2128 15.2072 22.0009 15.4061 21.6736C15.5217 21.4844 15.552 21.2706 15.552 21.0512C15.552 19.0003 15.552 16.9514 15.552 14.9006C15.552 14.8647 15.552 14.8287 15.552 14.7928C15.5103 14.1836 15.0802 13.7598 14.4701 13.7314C14.3091 13.7239 14.1461 13.722 13.9832 13.7314C13.8467 13.7409 13.7785 13.6955 13.7331 13.5593C13.5625 13.0655 13.1987 12.7874 12.6815 12.776C11.7549 12.7571 10.8265 12.7609 9.9 12.776C9.46232 12.7836 9.08526 12.986 8.93558 13.3947C8.81621 13.7182 8.63621 13.7617 8.35769 13.7295C8.26863 13.7201 8.17769 13.7239 8.08863 13.7295C7.61495 13.7712 7.27958 14.0076 7.10716 14.4541C7.04842 14.6055 7.03705 14.7682 7.03705 14.9309C7.03705 16.9628 7.03705 18.9947 7.03705 21.0266C7.03705 21.072 7.03705 21.1174 7.03705 21.1609C7.07305 21.7814 7.49558 22.1825 8.11705 22.1901C8.17769 22.1901 8.24211 22.1712 8.32169 22.2279C8.32169 22.3812 8.3179 22.5495 8.32169 22.7179C8.32737 22.9279 8.3899 22.9922 8.59642 22.9979C8.8579 23.0036 9.11937 23.0036 9.37895 22.9979C9.60632 22.9941 9.65937 22.9336 9.67453 22.7103C9.684 22.5533 9.64042 22.3906 9.70295 22.2449H12.9164C12.9164 22.4095 12.9126 22.559 12.9164 22.7103C12.924 22.9336 12.9827 22.9941 13.2101 22.9979C13.4716 23.0017 13.7331 23.0036 13.9926 22.9979C14.1973 22.9922 14.2598 22.9279 14.2655 22.7179C14.2712 22.5495 14.2655 22.3812 14.2655 22.2222L14.2693 22.226ZM17.2459 13.3682C17.2459 13.6387 17.244 13.9074 17.2459 14.1779C17.2497 14.4163 17.2971 14.4712 17.5244 14.473C18.0815 14.4768 18.6404 14.4768 19.1994 14.473C19.4267 14.473 19.4741 14.4276 19.476 14.2082C19.4817 13.6425 19.4798 13.0749 19.476 12.5093C19.476 12.2917 19.4343 12.2482 19.2278 12.2463C18.6518 12.2406 18.0758 12.2425 17.4998 12.2463C17.2933 12.2463 17.2497 12.2955 17.2459 12.5055C17.2402 12.793 17.2459 13.0806 17.2459 13.3682ZM22.4886 13.3625C22.4886 13.0749 22.4924 12.7874 22.4886 12.4998C22.4848 12.2898 22.4451 12.2482 22.2328 12.2463C21.6568 12.2425 21.0808 12.2463 20.5048 12.2444C20.3362 12.2444 20.2604 12.3144 20.2604 12.4866C20.2642 13.0617 20.2604 13.6368 20.2623 14.212C20.2623 14.4182 20.3135 14.4712 20.5162 14.4712C21.0827 14.4768 21.6493 14.4749 22.2177 14.4712C22.4356 14.4712 22.4848 14.4163 22.4886 14.1968C22.4924 13.9187 22.4886 13.6406 22.4886 13.3606V13.3625ZM19.8587 21.3766C20.7322 21.3766 21.6057 21.3766 22.4792 21.3766C22.7501 21.3766 22.8752 21.3122 22.8524 21.1779C22.8145 20.9603 22.6345 21.0039 22.4867 21.0039C20.7398 21.0039 18.9928 21.0039 17.2459 21.0039C17.0981 21.0039 16.9181 20.9641 16.8859 21.1836C16.867 21.3141 16.9844 21.3747 17.2383 21.3747C18.1118 21.3747 18.9853 21.3747 19.8587 21.3747V21.3766ZM19.8644 22.6271C20.7379 22.6271 21.6114 22.6271 22.4848 22.6271C22.6326 22.6271 22.8126 22.6706 22.8524 22.4549C22.8771 22.3206 22.7539 22.2582 22.4811 22.2582C20.7436 22.2582 19.0061 22.2582 17.2667 22.2582C17.2042 22.2582 17.1398 22.2563 17.0773 22.262C16.9655 22.2714 16.8821 22.3339 16.8859 22.4474C16.8878 22.5571 16.9636 22.6252 17.0811 22.629C17.1436 22.629 17.208 22.629 17.2705 22.629C18.1345 22.629 18.9985 22.629 19.8644 22.629V22.6271ZM28.2202 19.9255C28.2202 19.0628 28.2202 18.2001 28.2202 17.3374C28.2202 17.2655 28.224 17.1936 28.2164 17.1217C28.2051 17.0195 28.1482 16.9571 28.0421 16.9533C27.9322 16.9495 27.8773 17.0176 27.8583 17.1141C27.8451 17.1841 27.8488 17.2579 27.8488 17.3279C27.8488 19.0609 27.8488 20.7957 27.8488 22.5287C27.8488 22.5817 27.8451 22.6366 27.8507 22.6895C27.864 22.8068 27.9076 22.9033 28.0478 22.8957C28.188 22.8882 28.2221 22.7898 28.2202 22.6706C28.2202 22.6082 28.2202 22.5457 28.2202 22.4814C28.2202 21.6282 28.2202 20.7749 28.2202 19.9217V19.9255ZM26.5945 19.9217C26.5945 20.7939 26.5945 21.6641 26.5945 22.5363C26.5945 22.6082 26.5907 22.6801 26.6021 22.752C26.6154 22.8409 26.6703 22.8939 26.7651 22.9033C26.8617 22.9109 26.9242 22.8617 26.9469 22.7784C26.9659 22.7103 26.9659 22.6366 26.9659 22.5666C26.9659 20.8052 26.9659 19.0457 26.9659 17.2844C26.9659 17.239 26.9678 17.1936 26.9621 17.1501C26.947 17.0422 26.8996 16.9571 26.7764 16.959C26.6552 16.959 26.6002 17.0347 26.5945 17.1501C26.5907 17.2125 26.5945 17.2749 26.5945 17.3393C26.5945 18.202 26.5945 19.0647 26.5945 19.9274V19.9217ZM19.8928 20.1052C20.7663 20.1052 21.6398 20.1052 22.5133 20.1052C22.6516 20.1052 22.8411 20.1412 22.8448 19.933C22.8486 19.7212 22.6611 19.7552 22.5208 19.7533C20.7549 19.7533 18.9909 19.7533 17.2251 19.7533C17.0848 19.7533 16.8973 19.7174 16.8935 19.9255C16.8897 20.1355 17.0773 20.1052 17.2175 20.1052C18.1099 20.1052 19.0004 20.1052 19.8928 20.1052ZM24.6467 16.5995C24.6467 16.4482 24.6505 16.2949 24.6467 16.1436C24.643 16.0282 24.571 15.9544 24.4611 15.9544C24.3493 15.9544 24.2811 16.0339 24.2792 16.1493C24.2754 16.4349 24.2754 16.7206 24.2792 17.0063C24.2792 17.1198 24.3417 17.203 24.4535 17.2068C24.5804 17.2125 24.6448 17.1255 24.6486 17.0006C24.6524 16.8663 24.6486 16.732 24.6486 16.5976L24.6467 16.5995ZM24.6467 20.1601C24.6467 20.0257 24.6505 19.8895 24.6467 19.7552C24.643 19.6322 24.5899 19.5433 24.4535 19.5471C24.3303 19.5509 24.2792 19.6379 24.2773 19.7457C24.2716 20.0239 24.2716 20.3039 24.2773 20.582C24.2792 20.703 24.3341 20.7976 24.4705 20.7901C24.6069 20.7844 24.6448 20.6822 24.6467 20.563C24.6486 20.4287 24.6467 20.2925 24.6467 20.1582V20.1601ZM24.6467 12.9917C24.6467 12.8479 24.6524 12.7041 24.6467 12.5603C24.6411 12.4506 24.5823 12.3674 24.4629 12.3712C24.3436 12.373 24.2829 12.4563 24.2811 12.566C24.2754 12.8536 24.2754 13.1412 24.2811 13.4287C24.2829 13.5403 24.3455 13.6179 24.4667 13.616C24.588 13.616 24.6429 13.5347 24.6486 13.423C24.6543 13.2793 24.6486 13.1355 24.6486 12.9917H24.6467ZM24.2754 18.3722C24.2754 18.5066 24.2754 18.6428 24.2754 18.7771C24.2754 18.9001 24.3303 18.9984 24.4573 19.0003C24.5861 19.0041 24.6467 18.9095 24.6467 18.7847C24.6486 18.5141 24.6467 18.2455 24.6467 17.9749C24.6467 17.8539 24.6032 17.7574 24.4648 17.7555C24.3284 17.7536 24.2773 17.8444 24.2754 17.9674C24.2735 18.1017 24.2754 18.2379 24.2754 18.3722ZM24.6467 14.7852C24.6467 14.6414 24.6505 14.4976 24.6467 14.3539C24.643 14.2403 24.5747 14.1609 24.4629 14.1609C24.3512 14.1609 24.2811 14.2422 24.2792 14.3557C24.2754 14.6433 24.2754 14.9309 24.2792 15.2184C24.2792 15.332 24.3455 15.4076 24.4629 15.4076C24.5823 15.4076 24.643 15.332 24.6467 15.2166C24.6505 15.0728 24.6467 14.929 24.6467 14.7852ZM24.6467 21.9479C24.6467 21.8136 24.6486 21.6774 24.6467 21.543C24.6448 21.4314 24.5899 21.3444 24.4743 21.3387C24.3417 21.3312 24.2792 21.422 24.2773 21.5449C24.2716 21.823 24.2735 22.103 24.2773 22.3812C24.2773 22.4928 24.3265 22.576 24.4497 22.5817C24.5861 22.5874 24.643 22.5041 24.6467 22.3793C24.6505 22.2355 24.6467 22.0917 24.6467 21.9479Z" fill="#FAE6C9"/>
<path d="M20.8213 5.67568C20.9709 5.79298 21.0789 5.72298 21.1926 5.60946C21.5905 5.20649 21.9941 4.8073 22.3958 4.40622C22.5644 4.23784 22.7501 4.09784 22.9926 4.06379C23.3166 4.01838 23.5971 4.11298 23.8301 4.34568C24.6069 5.12135 25.3819 5.90081 26.1644 6.67081C26.2857 6.79 26.2611 6.8619 26.1853 6.98676C25.6775 7.80784 25.9162 8.84649 26.7366 9.34027C27.3145 9.68838 27.9189 9.69784 28.5006 9.34595C28.6806 9.23811 28.7678 9.26649 28.9004 9.40081C29.3646 9.87946 29.8402 10.3449 30.312 10.8159C30.348 10.8519 30.3821 10.8916 30.4427 10.9578H15.9461C16.6472 10.2578 17.3804 9.52379 18.1326 8.7746C18.2387 8.84649 18.3543 8.99784 18.4907 9.1246C18.5438 9.17379 18.5912 9.22865 18.6461 9.27595C18.7238 9.34027 18.8091 9.36108 18.8886 9.28352C18.9701 9.20217 18.9777 9.10757 18.8962 9.02054C18.7844 8.90325 18.6707 8.78784 18.5533 8.67622C18.4888 8.61379 18.4131 8.5646 18.3657 8.52676C18.3884 8.37352 18.4737 8.32811 18.5343 8.26757C18.9909 7.80784 19.4495 7.35 19.9099 6.89217C20.0103 6.7919 20.1032 6.69541 20.0008 6.54406C20.2832 6.26406 20.6053 6.0219 20.8213 5.67946V5.67568ZM20.3229 10.5019C20.3192 10.4868 20.3192 10.4546 20.3021 10.4376C20.0709 10.1746 19.8189 9.92865 19.5594 9.69406C19.4968 9.6373 19.4021 9.64487 19.3377 9.71108C19.2657 9.78676 19.2638 9.88135 19.3339 9.95514C19.5651 10.1935 19.8019 10.4281 20.0406 10.6589C20.0975 10.7138 20.1733 10.7119 20.2415 10.6722C20.3002 10.6381 20.3286 10.5832 20.3229 10.5019Z" fill="#89C5DB"/>
<path d="M13.1248 6.80138C13.1135 6.92435 13.0225 6.96786 12.9297 7.0057C12.6796 7.10786 12.4408 7.23273 12.2248 7.39354C11.8459 7.67354 11.5427 8.00462 11.5048 8.50786C11.4972 8.61381 11.4461 8.70084 11.3248 8.70462C11.2055 8.7084 11.1562 8.62894 11.1278 8.523C11.0463 8.2184 10.9383 7.92516 10.7621 7.6603C10.529 7.3103 10.2335 7.053 9.79198 7.00948C9.68019 6.99813 9.57219 6.96597 9.56651 6.82597C9.56082 6.68597 9.66503 6.65381 9.77493 6.62543C9.94924 6.58192 10.1179 6.52327 10.2789 6.44002C10.7564 6.19029 11.0539 5.81192 11.1316 5.27273C11.1486 5.15354 11.1619 5.03057 11.3153 5.01543C11.4707 5.00029 11.501 5.12327 11.5408 5.23489C11.6469 5.53192 11.7833 5.81381 11.9842 6.05975C12.2172 6.34543 12.4958 6.56111 12.8804 6.60273C13.0017 6.61597 13.1116 6.65381 13.1248 6.79948V6.80138ZM10.3964 6.79002C10.6124 6.94894 10.7886 7.08138 10.9326 7.25732C11.0766 7.43327 11.1619 7.65083 11.321 7.83624C11.5655 7.39354 11.9501 7.12111 12.3688 6.843C11.897 6.6084 11.6242 6.23759 11.3703 5.81192C11.1581 6.2584 10.8341 6.55921 10.3964 6.79002Z" fill="#40372F"/>
<path d="M10.0023 5.13276C9.99662 5.26898 9.91515 5.31249 9.83178 5.34844C9.69157 5.40709 9.55515 5.47708 9.4282 5.56222C9.13452 5.75708 8.89578 5.98979 8.86168 6.36817C8.8522 6.46654 8.80294 6.53844 8.69494 6.5479C8.57367 6.55925 8.51494 6.48546 8.48841 6.37952C8.44483 6.20357 8.38231 6.03708 8.29325 5.88006C8.13599 5.60384 7.92757 5.39195 7.59031 5.35411C7.48041 5.34276 7.39704 5.29736 7.39136 5.17627C7.38567 5.05519 7.45957 5.00033 7.56946 4.97763C7.7381 4.94168 7.89346 4.87357 8.03746 4.77898C8.27431 4.62384 8.42399 4.40817 8.48273 4.13006C8.50736 4.00709 8.49789 3.86141 8.66462 3.8406C8.8541 3.8179 8.86736 3.98438 8.91473 4.10357C8.96778 4.2379 9.0322 4.36654 9.11178 4.48573C9.27662 4.73357 9.48883 4.92087 9.79578 4.96627C9.91704 4.98519 10.0004 5.02871 10.0061 5.13465L10.0023 5.13276ZM9.31073 5.18573C9.04736 5.01925 8.88441 4.81114 8.71389 4.57276C8.57746 4.83384 8.35578 4.9833 8.15115 5.16303C8.38231 5.33709 8.5282 5.54708 8.6722 5.77979C8.83704 5.53195 9.05873 5.36736 9.31073 5.18573Z" fill="#40372F"/>
<path d="M8.65515 7.07568C8.7802 7.08136 8.82946 7.13622 8.86357 7.21758C8.91851 7.35001 8.96967 7.48433 9.03788 7.61109C9.20841 7.92325 9.43957 8.16352 9.81473 8.21271C9.91325 8.22595 9.98336 8.27136 9.99852 8.3773C10.0118 8.48703 9.94357 8.54568 9.85641 8.58163C9.69725 8.64595 9.54567 8.72163 9.40357 8.81812C9.12125 9.01109 8.89009 9.2419 8.85788 9.60893C8.84841 9.7092 8.80104 9.7792 8.69304 9.79055C8.57178 9.8019 8.51115 9.7319 8.48462 9.62595C8.44104 9.45001 8.37852 9.28352 8.28946 9.12649C8.13409 8.84839 7.92188 8.63839 7.58652 8.59676C7.47662 8.58352 7.39325 8.54379 7.38567 8.42082C7.37809 8.29785 7.45578 8.24866 7.55999 8.21839C7.65473 8.1919 7.75136 8.16541 7.84041 8.12568C8.19094 7.96866 8.42399 7.71325 8.48273 7.32163C8.50167 7.19866 8.53578 7.0946 8.65136 7.07758L8.65515 7.07568ZM8.6703 9.03568C8.82757 8.7746 9.06441 8.62514 9.2823 8.43406C9.05873 8.25055 8.87873 8.05947 8.71578 7.8173C8.57178 8.07082 8.36715 8.23541 8.14925 8.40568C8.36904 8.57595 8.52062 8.77271 8.6703 9.03568Z" fill="#40372F"/>
<path d="M12.1566 30.6297C11.3779 29.8559 10.601 29.0803 9.81662 28.3141C9.69157 28.193 9.76167 28.123 9.8242 28.0208C10.4324 27.0276 9.95873 25.7808 8.85409 25.4611C8.35767 25.3173 7.88967 25.393 7.46146 25.6749C7.33073 25.76 7.25304 25.7676 7.14504 25.6465C6.96694 25.444 6.77178 25.2586 6.58231 25.0657C6.66567 24.9597 6.78315 25.007 6.88357 25.0051C10.1861 25.0032 13.4886 25.0032 16.7911 25.0032C16.8631 25.0032 16.937 24.9938 17.0071 25.0089C17.1549 25.0392 17.2857 25.1224 17.333 25.2624C17.3728 25.3816 17.2762 25.4781 17.1928 25.5632C17.1493 25.6086 17.1038 25.6522 17.0602 25.6976C15.4951 27.2603 13.9301 28.823 12.365 30.3876C12.2893 30.4632 12.1964 30.5238 12.1566 30.6297Z" fill="#89C5DC"/>
<path d="M12.1566 30.6297C12.1964 30.5238 12.2893 30.4614 12.3651 30.3876C13.9301 28.823 15.4952 27.2603 17.0602 25.6976C17.1057 25.6522 17.1493 25.6087 17.1928 25.5633C17.2762 25.4781 17.3728 25.3816 17.3331 25.2624C17.2857 25.1206 17.1549 25.0392 17.0072 25.0089C16.937 24.9938 16.8632 25.0033 16.7912 25.0033C13.4886 25.0033 10.1861 25.0033 6.88358 25.0051C6.78126 25.0051 6.66568 24.9579 6.58231 25.0657C6.22421 24.7554 5.90779 24.4054 5.52884 24.0403H20.1297C20.1297 24.1292 20.0577 24.1633 20.0103 24.2106C17.873 26.3484 15.732 28.4824 13.5947 30.6203C13.3655 30.8511 13.1059 30.976 12.7762 30.9533C12.5204 30.9362 12.3063 30.8473 12.1566 30.6316V30.6297Z" fill="#68A7BB"/>
<path d="M29.7303 23.6448C30.005 23.4878 30.2627 23.3175 30.3461 22.9789C30.3669 22.89 30.3821 22.8048 30.3821 22.7159C30.3821 21.6205 30.3783 20.5251 30.3859 19.4278C30.3859 19.2557 30.348 19.1989 30.1623 19.1554C28.8852 18.8565 28.421 17.2805 29.3267 16.3251C29.5351 16.1038 29.7928 15.9392 30.1036 15.8711C30.384 15.8105 30.3821 15.8011 30.3821 15.5021C30.3821 14.4521 30.3745 13.4003 30.3859 12.3503C30.3897 11.9113 30.1831 11.6238 29.8194 11.4175C29.789 11.4005 29.7587 11.3797 29.7303 11.3608C30.0259 11.3305 30.3252 11.34 30.6208 11.3513C31.0528 11.3684 31.4526 11.7903 31.4583 12.2575C31.4697 13.3908 31.4602 14.524 31.4659 15.6573C31.4659 15.7897 31.4109 15.8124 31.2972 15.8389C30.6682 15.9884 30.2116 16.3516 30.0107 16.9759C29.7151 17.8935 30.1907 18.9 31.2726 19.1592C31.4394 19.1989 31.4659 19.2575 31.4659 19.4032C31.4621 20.5005 31.4659 21.5978 31.4621 22.6951C31.4621 23.2362 31.0168 23.6827 30.5147 23.6619C30.2551 23.6505 29.9937 23.6789 29.7322 23.6486L29.7303 23.6448Z" fill="#CBAD8B"/>
<path d="M14.2692 22.2259C14.2692 22.3849 14.273 22.5532 14.2692 22.7216C14.2636 22.9316 14.201 22.9978 13.9964 23.0016C13.7349 23.0073 13.4735 23.0073 13.2139 23.0016C12.9865 22.9978 12.9259 22.9373 12.9202 22.7141C12.9164 22.5627 12.9202 22.4114 12.9202 22.2486H9.70671C9.64419 22.3943 9.68966 22.557 9.67829 22.7141C9.66503 22.9373 9.61008 22.9978 9.38271 23.0016C9.12124 23.0054 8.85977 23.0073 8.60019 23.0016C8.39366 22.9978 8.33303 22.9316 8.32545 22.7216C8.31977 22.5532 8.32545 22.3849 8.32545 22.2316C8.24587 22.1749 8.18145 22.1957 8.12082 22.1938C7.49935 22.1862 7.07493 21.7832 7.04082 21.1646C7.03893 21.1192 7.04082 21.0738 7.04082 21.0303C7.04082 18.9984 7.04082 16.9665 7.04082 14.9346C7.04082 14.7719 7.05219 14.6092 7.11093 14.4578C7.28335 14.0114 7.61871 13.7768 8.0924 13.7332C8.18145 13.7257 8.27429 13.7219 8.36145 13.7332C8.63998 13.7654 8.82187 13.7219 8.93935 13.3984C9.09093 12.9897 9.46608 12.7854 9.90377 12.7797C10.8303 12.7665 11.7587 12.7608 12.6852 12.7797C13.2025 12.7911 13.5663 13.0673 13.7368 13.563C13.7842 13.6973 13.8505 13.7427 13.9869 13.7351C14.148 13.7257 14.3109 13.7276 14.4739 13.7351C15.084 13.7635 15.5141 14.1892 15.5558 14.7965C15.5577 14.8324 15.5558 14.8684 15.5558 14.9043C15.5558 16.9551 15.5558 19.0041 15.5558 21.0549C15.5558 21.2743 15.5255 21.4862 15.4099 21.6773C15.2109 22.0046 14.94 22.2165 14.5326 22.1995C14.4549 22.1957 14.3716 22.1786 14.273 22.2297L14.2692 22.2259ZM11.2964 14.1003C10.2865 14.1003 9.2785 14.1192 8.26861 14.0927C7.75135 14.0795 7.39324 14.4541 7.39703 14.9592C7.41598 16.9741 7.41408 18.9889 7.39703 21.0038C7.39324 21.4995 7.71724 21.8759 8.26293 21.8722C10.2808 21.8589 12.2987 21.8665 14.3166 21.8665C14.8983 21.8665 15.1806 21.5865 15.1825 21.0076C15.1825 18.9927 15.1825 16.9778 15.1825 14.963C15.1825 14.3822 14.9002 14.1022 14.3204 14.1003C13.3105 14.1003 12.3025 14.1003 11.2926 14.1003H11.2964ZM13.3787 13.7162C13.2783 13.3511 13.0301 13.143 12.6303 13.1392C11.7322 13.1278 10.8322 13.1297 9.93408 13.1392C9.56272 13.143 9.31261 13.3586 9.2065 13.7162H13.3787Z" fill="#40362F"/>
<path d="M17.2459 13.3681C17.2459 13.0806 17.2421 12.793 17.2459 12.5054C17.2497 12.2954 17.2933 12.2481 17.4998 12.2462C18.0758 12.2425 18.6518 12.2425 19.2278 12.2462C19.4343 12.2462 19.4741 12.2898 19.476 12.5092C19.4798 13.0749 19.4798 13.6425 19.476 14.2081C19.476 14.4257 19.4248 14.4711 19.1994 14.473C18.6423 14.4768 18.0834 14.4768 17.5244 14.473C17.297 14.473 17.2478 14.4162 17.2459 14.1779C17.2421 13.9092 17.2459 13.6387 17.2459 13.3681ZM18.3714 12.5962C18.1724 12.5962 17.9754 12.6 17.7764 12.5962C17.6627 12.5925 17.6135 12.6303 17.6154 12.7495C17.6191 13.1544 17.6191 13.5592 17.6154 13.9641C17.6154 14.07 17.657 14.1041 17.7594 14.1041C18.1648 14.1003 18.5703 14.1003 18.9758 14.1041C19.0989 14.1041 19.1274 14.0492 19.1255 13.9395C19.1217 13.5441 19.1217 13.1487 19.1255 12.7514C19.1255 12.6341 19.08 12.5925 18.9663 12.5962C18.7674 12.6019 18.5703 12.5962 18.3714 12.5962Z" fill="#3D342C"/>
<path d="M22.4886 13.3625C22.4886 13.6406 22.4924 13.9187 22.4886 14.1987C22.4849 14.4163 22.4337 14.4711 22.2177 14.473C21.6512 14.4768 21.0846 14.4768 20.5162 14.473C20.3135 14.473 20.2642 14.42 20.2623 14.2138C20.2585 13.6387 20.2623 13.0635 20.2604 12.4884C20.2604 12.3163 20.3362 12.2444 20.5049 12.2463C21.0809 12.25 21.6569 12.2444 22.2329 12.2481C22.4451 12.2481 22.4868 12.2917 22.4886 12.5017C22.4943 12.7892 22.4886 13.0768 22.4886 13.3644V13.3625ZM20.6129 14.1003C21.0884 14.1003 21.528 14.0965 21.9676 14.1022C22.0889 14.1022 22.1192 14.0511 22.1192 13.9414C22.1154 13.546 22.1154 13.1525 22.1192 12.7571C22.1192 12.6473 22.087 12.5944 21.9657 12.5944C21.5697 12.5981 21.1756 12.5981 20.7796 12.5944C20.6697 12.5944 20.611 12.6303 20.611 12.7476C20.611 13.1865 20.611 13.6235 20.611 14.1003H20.6129Z" fill="#3D342C"/>
<path d="M19.8587 21.3766C18.9853 21.3766 18.1118 21.3766 17.2383 21.3766C16.9844 21.3766 16.8669 21.316 16.8859 21.1855C16.9181 20.966 17.0981 21.0057 17.2459 21.0057C18.9928 21.0057 20.7398 21.0057 22.4867 21.0057C22.6345 21.0057 22.8145 20.9622 22.8524 21.1798C22.877 21.3141 22.7501 21.3785 22.4791 21.3785C21.6057 21.3785 20.7322 21.3785 19.8587 21.3785V21.3766Z" fill="#423830"/>
<path d="M19.8644 22.627C19.0004 22.627 18.1364 22.627 17.2705 22.627C17.208 22.627 17.1436 22.627 17.0811 22.627C16.9636 22.6233 16.8878 22.557 16.8859 22.4454C16.884 22.3319 16.9655 22.2695 17.0773 22.26C17.1398 22.2543 17.2023 22.2581 17.2667 22.2562C19.0042 22.2562 20.7417 22.2562 22.4811 22.2562C22.7539 22.2562 22.8771 22.3187 22.8524 22.453C22.8126 22.6687 22.6326 22.6251 22.4848 22.6251C21.6114 22.6251 20.7379 22.6251 19.8644 22.6251V22.627Z" fill="#423830"/>
<path d="M28.2202 19.9254C28.2202 20.7787 28.2202 21.6319 28.2202 22.4852C28.2202 22.5476 28.2202 22.61 28.2202 22.6744C28.2202 22.7935 28.1861 22.8919 28.0478 22.8995C27.9076 22.9071 27.864 22.8106 27.8507 22.6933C27.845 22.6403 27.8488 22.5854 27.8488 22.5325C27.8488 20.7995 27.8488 19.0646 27.8488 17.3317C27.8488 17.2598 27.845 17.186 27.8583 17.1179C27.8773 17.0214 27.9322 16.9533 28.0421 16.9571C28.1501 16.9608 28.2069 17.0233 28.2164 17.1254C28.224 17.1973 28.2202 17.2692 28.2202 17.3411C28.2202 18.2038 28.2202 19.0665 28.2202 19.9292V19.9254Z" fill="#423830"/>
<path d="M26.5945 19.9216C26.5945 19.0589 26.5945 18.1962 26.5945 17.3335C26.5945 17.2711 26.5945 17.2068 26.5945 17.1443C26.6002 17.0308 26.6551 16.9551 26.7764 16.9532C26.8996 16.9532 26.9469 17.0384 26.9621 17.1443C26.9678 17.1878 26.9659 17.2332 26.9659 17.2787C26.9659 19.04 26.9659 20.7995 26.9659 22.5608C26.9659 22.6327 26.9659 22.7065 26.9469 22.7727C26.9242 22.8578 26.8598 22.907 26.765 22.8976C26.6703 22.89 26.6154 22.8351 26.6021 22.7462C26.5926 22.6762 26.5945 22.6024 26.5945 22.5305C26.5945 21.6584 26.5945 20.7881 26.5945 19.9159V19.9216Z" fill="#423830"/>
<path d="M19.8928 20.1051C19.0004 20.1051 18.1099 20.1051 17.2175 20.1051C17.0772 20.1051 16.8897 20.1354 16.8935 19.9254C16.8972 19.7173 17.0848 19.7532 17.225 19.7532C18.9909 19.7532 20.7549 19.7532 22.5208 19.7532C22.661 19.7532 22.8486 19.7211 22.8448 19.933C22.841 20.1411 22.6535 20.1051 22.5132 20.1051C21.6398 20.1051 20.7663 20.1051 19.8928 20.1051Z" fill="#3C332B"/>
<path d="M24.6467 16.5994C24.6467 16.7337 24.6486 16.8681 24.6467 17.0024C24.643 17.1273 24.5785 17.2143 24.4516 17.2086C24.3398 17.2048 24.2773 17.1197 24.2773 17.0081C24.2754 16.7224 24.2735 16.4367 24.2773 16.151C24.2773 16.0375 24.3474 15.9581 24.4592 15.9562C24.5691 15.9562 24.6411 16.03 24.6449 16.1454C24.6505 16.2967 24.6449 16.45 24.6449 16.6013L24.6467 16.5994Z" fill="#423830"/>
<path d="M24.6467 20.16C24.6467 20.2943 24.6467 20.4306 24.6467 20.5649C24.6467 20.6841 24.6069 20.7843 24.4705 20.7919C24.3341 20.7976 24.2792 20.703 24.2773 20.5838C24.2735 20.3057 24.2735 20.0257 24.2773 19.7476C24.2792 19.6398 24.3303 19.5527 24.4535 19.5489C24.5899 19.5452 24.6429 19.6341 24.6467 19.7571C24.6505 19.8914 24.6467 20.0276 24.6467 20.1619V20.16Z" fill="#423830"/>
<path d="M24.6467 12.9917C24.6467 13.1355 24.6505 13.2792 24.6467 13.423C24.643 13.5346 24.5861 13.6141 24.4648 13.616C24.3436 13.616 24.2811 13.5403 24.2792 13.4287C24.2735 13.1411 24.2735 12.8536 24.2792 12.566C24.2811 12.4563 24.3417 12.373 24.4611 12.3711C24.5823 12.3692 24.6392 12.4506 24.6449 12.5603C24.6524 12.7041 24.6449 12.8479 24.6467 12.9917Z" fill="#423830"/>
<path d="M24.2753 18.3722C24.2753 18.2378 24.2753 18.1016 24.2753 17.9673C24.2772 17.8443 24.3284 17.7535 24.4648 17.7554C24.6031 17.7573 24.6467 17.8538 24.6467 17.9749C24.6467 18.2454 24.6467 18.514 24.6467 18.7846C24.6467 18.9095 24.5861 19.0022 24.4572 19.0003C24.3303 18.9965 24.2753 18.9 24.2753 18.777C24.2753 18.6427 24.2753 18.5065 24.2753 18.3722Z" fill="#423830"/>
<path d="M24.6467 14.7852C24.6467 14.929 24.6505 15.0728 24.6467 15.2166C24.6429 15.3301 24.5823 15.4058 24.4629 15.4076C24.3436 15.4076 24.2791 15.332 24.2791 15.2185C24.2754 14.9309 24.2754 14.6433 24.2791 14.3558C24.2791 14.2422 24.3493 14.1609 24.4629 14.1609C24.5747 14.1609 24.6429 14.2403 24.6467 14.3539C24.6524 14.4976 24.6467 14.6414 24.6467 14.7852Z" fill="#423830"/>
<path d="M24.6467 21.9479C24.6467 22.0917 24.6486 22.2355 24.6467 22.3792C24.6429 22.5041 24.5861 22.5892 24.4497 22.5817C24.3284 22.576 24.2792 22.4909 24.2773 22.3811C24.2735 22.103 24.2735 21.823 24.2773 21.5449C24.2792 21.4219 24.3417 21.3311 24.4743 21.3387C24.5899 21.3463 24.6448 21.4314 24.6467 21.543C24.6505 21.6773 24.6467 21.8117 24.6467 21.9479Z" fill="#423830"/>
<path d="M20.3229 10.5019C20.3286 10.5833 20.3002 10.6381 20.2415 10.6722C20.1733 10.7119 20.0975 10.7138 20.0406 10.659C19.8019 10.4263 19.565 10.1936 19.3339 9.95517C19.2638 9.88328 19.2657 9.78869 19.3377 9.71112C19.4021 9.64301 19.4968 9.63734 19.5594 9.69409C19.8189 9.92869 20.0709 10.1746 20.3021 10.4376C20.3173 10.4565 20.3173 10.4887 20.3229 10.5019Z" fill="#3C332B"/>
<path d="M10.3964 6.79C10.836 6.55919 11.1581 6.25838 11.3703 5.81189C11.6242 6.23567 11.8989 6.60648 12.3688 6.84297C11.9482 7.12108 11.5636 7.39351 11.3211 7.83621C11.1619 7.65081 11.0766 7.43324 10.9326 7.2573C10.7886 7.08135 10.6124 6.94892 10.3964 6.79Z" fill="#D3DB56"/>
<path d="M9.31073 5.18573C9.05873 5.36735 8.83705 5.53194 8.67221 5.77978C8.5301 5.54708 8.38231 5.33519 8.15115 5.16302C8.35579 4.98329 8.57557 4.83383 8.71389 4.57275C8.88442 4.81113 9.04736 5.01924 9.31073 5.18573Z" fill="#D3DB56"/>
<path d="M8.67031 9.03564C8.52252 8.77267 8.36905 8.57591 8.14926 8.40564C8.36716 8.23537 8.57368 8.07077 8.71579 7.81726C8.87874 8.05942 9.05874 8.2524 9.28231 8.43402C9.06253 8.6251 8.82758 8.77456 8.67031 9.03564Z" fill="#D3DB56"/>
<path d="M11.2964 14.1003C12.3063 14.1003 13.3143 14.1003 14.3242 14.1003C14.904 14.1003 15.1863 14.3822 15.1863 14.963C15.1863 16.9779 15.1863 18.9927 15.1863 21.0076C15.1863 21.5846 14.9021 21.8665 14.3204 21.8665C12.3025 21.8665 10.2846 21.859 8.26672 21.8722C7.72104 21.876 7.39515 21.4995 7.40083 21.0038C7.41788 18.989 7.41978 16.9741 7.40083 14.9592C7.39704 14.4541 7.75325 14.0795 8.27241 14.0927C9.28041 14.1192 10.2903 14.1003 11.3002 14.1003H11.2964ZM11.2945 16.2022C10.3301 16.2022 9.36757 16.2022 8.40315 16.2022C7.89725 16.2022 7.62062 16.4765 7.61872 16.9836C7.61683 17.6665 7.61683 18.3495 7.61872 19.0344C7.61872 19.5414 7.89725 19.8176 8.40315 19.8195C10.313 19.8195 12.221 19.8138 14.1309 19.8252C14.5478 19.8271 14.94 19.5395 14.9286 19.0419C14.9097 18.3495 14.9267 17.6571 14.9229 16.9646C14.921 16.4557 14.6671 16.206 14.1575 16.2041C13.2025 16.2041 12.2476 16.2041 11.2945 16.2041V16.2022ZM11.2718 15.8257C11.9008 15.8257 12.5318 15.8257 13.1608 15.8257C13.5379 15.8257 13.9168 15.8314 14.2939 15.8238C14.633 15.8163 14.8907 15.5817 14.9191 15.2714C14.9495 14.9214 14.7657 14.6603 14.4246 14.5714C14.328 14.5449 14.2295 14.5392 14.1309 14.5392C12.2419 14.5392 10.3509 14.5392 8.46188 14.5392C8.33494 14.5392 8.20988 14.5506 8.08862 14.5846C7.76272 14.6755 7.57515 15.0179 7.66609 15.3452C7.75325 15.6555 7.97683 15.8238 8.32736 15.8238C9.30883 15.8257 10.2884 15.8238 11.2699 15.8238L11.2718 15.8257ZM14.1954 21.6622C14.6046 21.666 14.9173 21.3595 14.9191 20.9546C14.9191 20.5517 14.6084 20.2433 14.1991 20.2433C13.8107 20.2433 13.4924 20.5536 13.481 20.9376C13.4697 21.3311 13.7918 21.6565 14.1954 21.6603V21.6622ZM8.3842 20.2452C7.97872 20.2452 7.66799 20.5592 7.67178 20.9622C7.67557 21.3633 7.99199 21.6679 8.39936 21.6622C8.79915 21.6565 9.09094 21.3633 9.09283 20.9603C9.09472 20.5422 8.79915 20.2433 8.3842 20.2452Z" fill="#ED6B78"/>
<path d="M13.3787 13.7163H9.20651C9.31072 13.3568 9.56272 13.143 9.93409 13.1393C10.8322 13.1279 11.7322 13.1279 12.6303 13.1393C13.0301 13.1449 13.2783 13.3511 13.3787 13.7163Z" fill="#87C2D8"/>
<path d="M18.3714 12.5962C18.5703 12.5962 18.7674 12.6 18.9663 12.5962C19.08 12.5924 19.1274 12.634 19.1255 12.7513C19.1217 13.1467 19.1217 13.5421 19.1255 13.9394C19.1255 14.0492 19.0989 14.1059 18.9758 14.104C18.5703 14.0984 18.1648 14.1003 17.7594 14.104C17.657 14.104 17.6154 14.07 17.6154 13.964C17.6191 13.5592 17.6191 13.1543 17.6154 12.7494C17.6154 12.6303 17.6646 12.5924 17.7764 12.5962C17.9754 12.6019 18.1724 12.5962 18.3714 12.5962Z" fill="#D3DB56"/>
<path d="M20.6129 14.1003C20.6129 13.6235 20.6129 13.1865 20.6129 12.7476C20.6129 12.6303 20.6716 12.5944 20.7815 12.5944C21.1775 12.5981 21.5716 12.5981 21.9676 12.5944C22.087 12.5944 22.1211 12.6454 22.1211 12.7571C22.1173 13.1525 22.1173 13.546 22.1211 13.9414C22.1211 14.0511 22.0926 14.1041 21.9695 14.1022C21.5299 14.0965 21.0903 14.1003 20.6147 14.1003H20.6129Z" fill="#D3DB56"/>
<path d="M11.2945 16.2022C12.2495 16.2022 13.2044 16.2022 14.1575 16.2022C14.6672 16.2022 14.921 16.4538 14.9229 16.9628C14.9248 17.6552 14.9097 18.3476 14.9286 19.04C14.9419 19.5395 14.5478 19.8252 14.1309 19.8233C12.221 19.8138 10.313 19.8195 8.40315 19.8176C7.89536 19.8176 7.62063 19.5395 7.61873 19.0325C7.61684 18.3495 7.61684 17.6665 7.61873 16.9817C7.61873 16.4746 7.89726 16.2003 8.40315 16.2003C9.36757 16.2003 10.3301 16.2003 11.2945 16.2003V16.2022ZM10.3168 19.479C10.3888 19.4846 10.4608 19.4941 10.5309 19.4941C11.7189 19.4941 12.9088 19.4941 14.0968 19.4941C14.4644 19.4941 14.5914 19.3617 14.5933 18.9852C14.5933 18.3457 14.5933 17.7082 14.5933 17.0687C14.5933 16.6411 14.4777 16.5257 14.0514 16.5257C12.5204 16.5257 10.9895 16.5257 9.45852 16.5257C9.09852 16.5257 8.73852 16.5219 8.37852 16.5257C8.11515 16.5295 7.9522 16.6657 7.94842 16.9079C7.94084 17.6457 7.94084 18.3836 7.94842 19.1195C7.95031 19.3295 8.09999 19.4809 8.30652 19.4865C8.59452 19.496 8.88631 19.5092 9.17052 19.4771C10.7242 19.2955 12.276 19.1006 13.8278 18.9114C13.8846 18.9038 13.9528 18.8792 14.0059 19.0022C12.7648 19.1536 11.5408 19.303 10.3149 19.4544H10.1103C10.1103 19.4544 10.1103 19.4695 10.1103 19.4771H10.3149L10.3168 19.479Z" fill="#3C332B"/>
<path d="M11.2718 15.8257C10.2903 15.8257 9.31074 15.8257 8.32927 15.8257C7.97874 15.8257 7.75516 15.6574 7.668 15.3471C7.57706 15.0198 7.76464 14.6774 8.09053 14.5865C8.21179 14.5525 8.33685 14.5411 8.46379 14.5411C10.3528 14.543 12.2438 14.5411 14.1328 14.5411C14.2314 14.5411 14.3299 14.5468 14.4265 14.5733C14.7657 14.6641 14.9514 14.9233 14.9211 15.2733C14.8945 15.5836 14.635 15.8182 14.2958 15.8257C13.9187 15.8333 13.5398 15.8276 13.1627 15.8276C12.5337 15.8276 11.9027 15.8276 11.2737 15.8276L11.2718 15.8257ZM11.2888 15.4568C12.2248 15.4568 13.1627 15.4568 14.0987 15.4568C14.1802 15.4568 14.2617 15.4606 14.3413 15.4492C14.4625 15.4322 14.5326 15.3547 14.5478 15.2336C14.5648 15.1049 14.5251 15.0047 14.3981 14.9479C14.3204 14.9119 14.2408 14.9157 14.1594 14.9138C12.2495 14.9138 10.3396 14.9138 8.42969 14.9138C8.15495 14.9138 8.01285 15.0084 8.00716 15.1863C8.00148 15.366 8.1379 15.4549 8.42211 15.4549C9.37706 15.4549 10.332 15.4549 11.287 15.4549L11.2888 15.4568Z" fill="#43362D"/>
<path d="M14.1954 21.6621C13.7918 21.6584 13.4697 21.333 13.481 20.9394C13.4924 20.5535 13.8107 20.2451 14.1991 20.2451C14.6084 20.2451 14.921 20.5516 14.9191 20.9565C14.9191 21.3594 14.6046 21.6659 14.1954 21.664V21.6621ZM14.5478 20.9603C14.5516 20.7654 14.4095 20.6103 14.2219 20.5989C14.0305 20.5875 13.8505 20.7559 13.8467 20.947C13.8429 21.1248 14.004 21.2989 14.1821 21.3103C14.3735 21.3216 14.5459 21.157 14.5497 20.9603H14.5478Z" fill="#3D342C"/>
<path d="M8.38421 20.2451C8.79726 20.2451 9.09473 20.544 9.09284 20.9603C9.09095 21.3632 8.79916 21.6565 8.39937 21.6621C7.992 21.6678 7.67558 21.3632 7.67179 20.9621C7.668 20.5592 7.97873 20.2451 8.38421 20.2451ZM8.04126 20.964C8.04694 21.1589 8.19095 21.3065 8.38231 21.3103C8.56989 21.314 8.748 21.1324 8.74231 20.9432C8.73663 20.754 8.55284 20.5857 8.36337 20.597C8.17389 20.6103 8.03558 20.7654 8.04126 20.9621V20.964Z" fill="#3D342C"/>
<path d="M10.3168 19.4562C11.5408 19.3067 12.7667 19.1573 14.0078 19.004C13.9547 18.8811 13.8865 18.9057 13.8297 18.9132C12.2779 19.1024 10.7261 19.2973 9.1724 19.4789C8.88819 19.513 8.5964 19.4997 8.3084 19.4884C8.10187 19.4808 7.95219 19.3294 7.95029 19.1213C7.94271 18.3835 7.94082 17.6457 7.95029 16.9097C7.95219 16.6675 8.11703 16.5313 8.3804 16.5275C8.7404 16.5219 9.1004 16.5275 9.4604 16.5275C10.9913 16.5275 12.5223 16.5275 14.0532 16.5275C14.4796 16.5275 14.5951 16.6448 14.5951 17.0705C14.5951 17.71 14.5951 18.3475 14.5951 18.987C14.5951 19.3635 14.4682 19.4959 14.0987 19.4959C12.9107 19.4959 11.7208 19.4959 10.5328 19.4959C10.4608 19.4959 10.3888 19.4865 10.3187 19.4808V19.4581L10.3168 19.4562Z" fill="#D6DE56"/>
<path d="M10.3168 19.4562V19.4789H10.1122C10.1122 19.4789 10.1122 19.4637 10.1122 19.4562H10.3168Z" fill="#CBAD8B"/>
<path d="M11.2888 15.4567C10.3339 15.4567 9.37895 15.4567 8.424 15.4567C8.1379 15.4567 8.00337 15.3659 8.00905 15.1881C8.01474 15.0084 8.15684 14.9157 8.43158 14.9157C10.3415 14.9157 12.2514 14.9157 14.1613 14.9157C14.2427 14.9157 14.3223 14.9138 14.4 14.9497C14.5269 15.0084 14.5648 15.1086 14.5497 15.2354C14.5345 15.3565 14.4644 15.434 14.3432 15.4511C14.2636 15.4624 14.1821 15.4586 14.1006 15.4586C13.1646 15.4586 12.2267 15.4586 11.2907 15.4586L11.2888 15.4567Z" fill="#D3DB56"/>
<path d="M14.5478 20.9603C14.544 21.1589 14.3735 21.3235 14.1802 21.3103C14.0021 21.2989 13.841 21.1249 13.8448 20.947C13.8486 20.756 14.0286 20.5876 14.22 20.5989C14.4076 20.6084 14.5497 20.7654 14.5459 20.9603H14.5478Z" fill="#D3DB56"/>
<path d="M8.04125 20.964C8.03556 20.7673 8.17388 20.6121 8.36335 20.5989C8.55282 20.5856 8.73661 20.754 8.7423 20.9451C8.74798 21.1343 8.56988 21.3159 8.3823 21.3121C8.19093 21.3083 8.04504 21.1608 8.04125 20.9659V20.964Z" fill="#D3DB56"/>
</svg>
