<svg width="15" height="15" viewBox="0 0 15 15" fill="none" xmlns="http://www.w3.org/2000/svg">
<path d="M7.51758 5.5452C9.64054 5.5452 11.7635 5.54684 13.8865 5.5415C14.0407 5.5415 14.0834 5.57883 14.0829 5.73551C14.078 8.14477 14.0801 10.5544 14.0788 12.9641C14.0784 13.8554 13.5337 14.398 12.6462 14.398C9.21357 14.398 5.78097 14.398 2.34838 14.398C1.51904 14.398 0.954666 13.8525 0.952615 13.0211C0.946873 10.5811 0.951384 8.14066 0.947693 5.70064C0.947693 5.5657 0.996912 5.54314 1.11709 5.54314C3.25031 5.54643 5.38353 5.54561 7.51676 5.54561L7.51758 5.5452ZM7.51511 7.20346C7.40765 7.20346 7.30019 7.20059 7.19314 7.20387C6.84328 7.21412 6.59267 7.41387 6.55371 7.76209C6.52377 8.0291 6.52336 8.30514 6.55207 8.57256C6.59021 8.92898 6.85599 9.13775 7.21652 9.13981C7.43103 9.14104 7.64596 9.14268 7.86047 9.13898C8.15578 9.13406 8.42361 8.93801 8.4593 8.64639C8.49539 8.34984 8.50236 8.04387 8.47119 7.74732C8.43509 7.40566 8.18285 7.21412 7.8375 7.20428C7.73045 7.201 7.62299 7.20387 7.51552 7.20387L7.51511 7.20346ZM7.51265 12.7397C7.62011 12.7397 7.72758 12.7426 7.83463 12.7393C8.19023 12.7287 8.44289 12.5228 8.47939 12.1684C8.50687 11.9059 8.50687 11.6356 8.47857 11.3731C8.43961 11.0146 8.17629 10.8054 7.81617 10.8038C7.60166 10.8026 7.38674 10.8013 7.17222 10.8046C6.8765 10.8091 6.60744 11.0031 6.57135 11.2944C6.53443 11.5905 6.52746 11.8969 6.55822 12.1938C6.59349 12.5351 6.84697 12.7287 7.19068 12.7397C7.29773 12.743 7.40519 12.7402 7.51265 12.7406V12.7397ZM4.88068 8.16322C4.88068 8.07135 4.88191 7.97906 4.88068 7.88719C4.87412 7.45324 4.62802 7.20756 4.19285 7.20346C3.97834 7.20141 3.76342 7.19813 3.5489 7.20674C3.20437 7.22109 2.94884 7.48852 2.94433 7.83346C2.94146 8.06356 2.94023 8.29324 2.94474 8.52334C2.95131 8.85885 3.22652 9.13119 3.56326 9.13939C3.67564 9.14227 3.78844 9.13365 3.90041 9.14144C4.68873 9.19682 4.93441 8.90602 4.88027 8.16363L4.88068 8.16322ZM10.15 8.16978C10.15 8.26166 10.1491 8.35395 10.15 8.44582C10.1553 8.88715 10.4071 9.13857 10.8452 9.13981C11.0494 9.14022 11.2541 9.14227 11.4584 9.13898C11.8045 9.13324 12.0797 8.8609 12.0859 8.51637C12.09 8.28627 12.0896 8.05658 12.0859 7.82648C12.0806 7.48975 11.8263 7.22314 11.4903 7.20756C11.2812 7.19771 11.0716 7.20223 10.862 7.20305C10.3965 7.20551 10.1541 7.44668 10.1504 7.90934C10.1495 7.99629 10.1504 8.08324 10.1504 8.16978H10.15ZM4.88027 11.7693C4.88027 11.6721 4.88191 11.5749 4.88027 11.4781C4.87166 11.0569 4.61654 10.805 4.19695 10.8034C3.98736 10.8026 3.77777 10.8009 3.56859 10.8042C3.22365 10.81 2.95008 11.0844 2.94474 11.4301C2.94146 11.6549 2.94187 11.8796 2.94474 12.1048C2.94885 12.4576 3.20478 12.7229 3.55998 12.7373C3.75398 12.7451 3.9484 12.741 4.1424 12.7406C4.64689 12.7393 4.87945 12.5055 4.8815 11.9994C4.8815 11.9227 4.8815 11.846 4.8815 11.7693H4.88027ZM10.15 11.7746C10.15 11.8719 10.1483 11.9691 10.15 12.0659C10.1573 12.4822 10.4034 12.7324 10.8173 12.7393C11.042 12.743 11.2672 12.7455 11.4916 12.7352C11.8271 12.7201 12.0802 12.4518 12.0855 12.1147C12.0892 11.8899 12.0888 11.6647 12.0855 11.44C12.081 11.0774 11.8066 10.8075 11.4403 10.8038C11.2562 10.8018 11.0724 10.8034 10.8882 10.8034C10.387 10.8034 10.1504 11.0413 10.1487 11.545C10.1487 11.6217 10.1487 11.6984 10.1487 11.7751L10.15 11.7746Z" fill="black"/>
<path d="M7.51601 4.90821C5.39263 4.90821 3.26966 4.90656 1.14628 4.91149C0.992885 4.91149 0.944077 4.87498 0.947358 4.71707C0.960483 4.08297 0.934643 3.44723 0.971967 2.81518C1.0138 2.10766 1.58351 1.62819 2.29636 1.60932C2.53917 1.60276 2.61998 1.64623 2.61628 1.91283C2.60603 2.67983 3.18927 3.24994 3.9374 3.24461C4.66009 3.23969 5.21955 2.6585 5.20273 1.89438C5.1974 1.65115 5.27122 1.6085 5.4964 1.61055C6.86222 1.62121 8.22845 1.62039 9.59427 1.61055C9.78787 1.60932 9.82724 1.66264 9.82519 1.8468C9.81535 2.66588 10.3613 3.24584 11.1225 3.24461C11.8473 3.24338 12.4207 2.66834 12.4149 1.91365C12.4129 1.67002 12.4641 1.60153 12.7172 1.60809C13.5141 1.6286 14.0695 2.17533 14.0781 2.99688C14.0843 3.57479 14.0752 4.15311 14.0822 4.73102C14.0838 4.8717 14.042 4.91149 13.9005 4.91108C11.7722 4.90657 9.6439 4.90821 7.5156 4.90821H7.51601Z" fill="black"/>
<path d="M4.57313 1.6339C4.57313 1.73111 4.57313 1.82831 4.57313 1.92511C4.57149 2.28482 4.3258 2.57603 3.99891 2.60638C3.62977 2.64042 3.31108 2.43001 3.26637 2.06497C3.22946 1.76433 3.23192 1.45015 3.27498 1.15032C3.32625 0.794309 3.64822 0.594152 4.01039 0.635168C4.3258 0.670852 4.57067 0.957961 4.57313 1.29634C4.57395 1.40872 4.57313 1.52111 4.57313 1.6339Z" fill="black"/>
<path d="M10.4577 1.6196C10.4577 1.51747 10.4577 1.41493 10.4577 1.3128C10.4593 0.960888 10.6988 0.672138 11.0192 0.635634C11.3912 0.593388 11.7218 0.808309 11.764 1.17909C11.7997 1.48999 11.7944 1.81401 11.7476 2.12327C11.6976 2.45427 11.3633 2.64745 11.0167 2.60602C10.707 2.5687 10.4605 2.28364 10.4572 1.95716C10.456 1.84477 10.4572 1.73239 10.4572 1.6196H10.4577Z" fill="black"/>
</svg>
