<svg width="16" height="16" viewBox="0 0 16 16" fill="none" xmlns="http://www.w3.org/2000/svg">
<path d="M15.2281 3.41573V13.7657C15.2186 13.8055 15.2084 13.8448 15.1993 13.8846C15.084 14.3796 14.8154 14.768 14.3671 15.0099C14.1815 15.1101 13.9671 15.1572 13.7656 15.2282H2.29061C2.26881 15.2208 2.24737 15.2103 2.22487 15.2061C1.70104 15.1087 1.29956 14.8299 1.04502 14.3648C0.944126 14.1806 0.898774 13.9661 0.827759 13.7654C0.827759 10.3155 0.827759 6.86526 0.827759 3.41538C0.837251 3.37565 0.847446 3.33628 0.856587 3.29655C0.954321 2.8687 1.17651 2.52171 1.53299 2.26472C1.81389 2.06222 2.12889 1.95604 2.47553 1.95042C2.70791 1.94655 2.9403 1.94972 3.19026 1.94972V0.827881H4.31526V1.94163H11.7403V0.827881H12.8653V1.94937C13.1173 1.94937 13.3416 1.94339 13.5659 1.95042C14.1826 1.97046 14.6544 2.24679 14.9866 2.76534C15.1146 2.96468 15.174 3.18897 15.2278 3.41538L15.2281 3.41573ZM1.9626 6.12698C1.96049 6.16987 1.95768 6.20608 1.95768 6.24229C1.95768 8.65647 1.95698 11.0703 1.95768 13.4845C1.95768 13.8691 2.1869 14.0987 2.57081 14.0987C6.20842 14.0997 9.84569 14.0997 13.4833 14.0987C13.8683 14.0987 14.0982 13.8698 14.0982 13.4862C14.0992 11.0721 14.0989 8.65823 14.0982 6.24405C14.0982 6.20397 14.0926 6.16425 14.0894 6.12698H1.9626ZM1.95733 4.97913H14.0922C14.0922 4.50487 14.1056 4.03729 14.0869 3.57077C14.0767 3.31272 13.8693 3.11479 13.6113 3.09335C13.3705 3.07331 13.1272 3.08913 12.8674 3.08913V4.19726H11.735V3.08983H4.31702V4.19726H3.18463V3.08245C2.97686 3.08245 2.78104 3.08175 2.58557 3.08245C2.18338 3.08456 1.95909 3.30851 1.95768 3.71034C1.95627 4.09003 1.95768 4.46972 1.95768 4.8494C1.95768 4.89019 1.95768 4.93097 1.95768 4.97913H1.95733Z" fill="#2B28CE"/>
<path d="M4.08533 8.42029H2.97369V7.30127H4.08533V8.42029Z" fill="#2B28CE"/>
<path d="M5.21735 8.41633V7.30469H6.33637V8.41633H5.21735Z" fill="#2B28CE"/>
<path d="M8.58533 8.42029H7.47369V7.30127H8.58533V8.42029Z" fill="#2B28CE"/>
<path d="M10.8388 7.30249V8.41378H9.72015V7.30249H10.8388Z" fill="#2B28CE"/>
<path d="M11.9713 7.29883H13.0825V8.41785H11.9713V7.29883Z" fill="#2B28CE"/>
<path d="M2.96704 10.6667V9.55469H4.08642V10.6667H2.96704Z" fill="#2B28CE"/>
<path d="M6.33887 9.55249V10.6638H5.21985V9.55249H6.33887Z" fill="#2B28CE"/>
<path d="M7.47089 9.54883H8.58288V10.6682H7.47089V9.54883Z" fill="#2B28CE"/>
<path d="M10.8389 9.55249V10.6641H9.71985V9.55249H10.8389Z" fill="#2B28CE"/>
<path d="M11.9663 10.6674V9.55396H13.0871V10.6674H11.9663Z" fill="#2B28CE"/>
<path d="M4.08887 11.8025V12.9141H2.96985V11.8025H4.08887Z" fill="#2B28CE"/>
<path d="M6.33572 12.921H5.22302V11.8005H6.33572V12.921Z" fill="#2B28CE"/>
<path d="M8.58461 12.9181H7.46875V11.8015H8.58461V12.9181Z" fill="#2B28CE"/>
<path d="M9.72302 11.8005H10.8361V12.916H9.72302V11.8005Z" fill="#2B28CE"/>
</svg>
