<svg width="18" height="18" viewBox="0 0 18 18" fill="none" xmlns="http://www.w3.org/2000/svg">
<g clip-path="url(#clip0_1513_1995)">
<path d="M6.49935 0.912926V2.57959H11.4993V0.912926H13.166V2.57959H16.4993C16.9596 2.57959 17.3327 2.95269 17.3327 3.41293V16.7463C17.3327 17.2065 16.9596 17.5796 16.4993 17.5796H1.49935C1.03912 17.5796 0.666016 17.2065 0.666016 16.7463V3.41293C0.666016 2.95269 1.03912 2.57959 1.49935 2.57959H4.83268V0.912926H6.49935ZM15.666 9.24626H2.33268V15.9129H15.666V9.24626ZM5.66602 10.9129V12.5796H3.99935V10.9129H5.66602ZM9.83268 10.9129V12.5796H8.16602V10.9129H9.83268ZM13.9993 10.9129V12.5796H12.3327V10.9129H13.9993ZM4.83268 4.24626H2.33268V7.57959H15.666V4.24626H13.166V5.91293H11.4993V4.24626H6.49935V5.91293H4.83268V4.24626Z" fill="#4C4C4C"/>
</g>
<defs>
<clipPath id="clip0_1513_1995">
<rect width="18" height="18" fill="white"/>
</clipPath>
</defs>
</svg>
