<?xml version="1.0" encoding="UTF-8"?>
<svg width="24px" height="24px" viewBox="0 0 24 24" version="1.1" xmlns="http://www.w3.org/2000/svg" xmlns:xlink="http://www.w3.org/1999/xlink">
    <!-- Generator: Sketch 63.1 (92452) - https://sketch.com -->
    <title>mdpi/General / Calendar</title>
    <desc>Created with Sketch.</desc>
    <defs>
        <path d="M3,9 L3,18 C3,18.5522847 3.44771525,19 4,19 L20,19 C20.5522847,19 21,18.5522847 21,18 L21,9 L3,9 Z M2,8 L22,8 L22,18 C22,19.1045695 21.1045695,20 20,20 L4,20 C2.8954305,20 2,19.1045695 2,18 L2,8 Z M3,8 L21,8 L21,6 C21,5.44771525 20.5522847,5 20,5 L4,5 C3.44771525,5 3,5.44771525 3,6 L3,8 Z M4,4 L20,4 C21.1045695,4 22,4.8954305 22,6 L22,9 L2,9 L2,6 C2,4.8954305 2.8954305,4 4,4 Z M9.59599776,14.6146432 C10.1482825,14.6146432 10.5959978,15.0623585 10.5959978,15.6146432 L10.5959978,16.6146432 C10.5959978,17.166928 10.1482825,17.6146432 9.59599776,17.6146432 L8.59599776,17.6146432 C8.04371301,17.6146432 7.59599776,17.166928 7.59599776,16.6146432 L7.59599776,15.6146432 C7.59599776,15.0623585 8.04371301,14.6146432 8.59599776,14.6146432 L9.59599776,14.6146432 Z M15.5959978,14.6146432 C16.1482825,14.6146432 16.5959978,15.0623585 16.5959978,15.6146432 L16.5959978,16.6146432 C16.5959978,17.166928 16.1482825,17.6146432 15.5959978,17.6146432 L14.5959978,17.6146432 C14.043713,17.6146432 13.5959978,17.166928 13.5959978,16.6146432 L13.5959978,15.6146432 C13.5959978,15.0623585 14.043713,14.6146432 14.5959978,14.6146432 L15.5959978,14.6146432 Z M9.59599776,15.6146432 L8.59599776,15.6146432 L8.59599776,16.6146432 L9.59599776,16.6146432 L9.59599776,15.6146432 Z M15.5959978,15.6146432 L14.5959978,15.6146432 L14.5959978,16.6146432 L15.5959978,16.6146432 L15.5959978,15.6146432 Z M9.59599776,10.6146432 C10.1482825,10.6146432 10.5959978,11.0623585 10.5959978,11.6146432 L10.5959978,12.6146432 C10.5959978,13.166928 10.1482825,13.6146432 9.59599776,13.6146432 L8.59599776,13.6146432 C8.04371301,13.6146432 7.59599776,13.166928 7.59599776,12.6146432 L7.59599776,11.6146432 C7.59599776,11.0623585 8.04371301,10.6146432 8.59599776,10.6146432 L9.59599776,10.6146432 Z M9.59599776,11.6146432 L8.59599776,11.6146432 L8.59599776,12.6146432 L9.59599776,12.6146432 L9.59599776,11.6146432 Z M14.5959978,11.6146432 L14.5959978,12.6146432 L15.5959978,12.6146432 L15.5959978,11.6146432 L14.5959978,11.6146432 Z M15.5959978,10.6146432 C16.1482825,10.6146432 16.5959978,11.0623585 16.5959978,11.6146432 L16.5959978,12.6146432 C16.5959978,13.166928 16.1482825,13.6146432 15.5959978,13.6146432 L14.5959978,13.6146432 C14.043713,13.6146432 13.5959978,13.166928 13.5959978,12.6146432 L13.5959978,11.6146432 C13.5959978,11.0623585 14.043713,10.6146432 14.5959978,10.6146432 L15.5959978,10.6146432 Z M6.5,3 C6.77614237,3 7,3.22385763 7,3.5 L7,5.5 C7,5.77614237 6.77614237,6 6.5,6 C6.22385763,6 6,5.77614237 6,5.5 L6,3.5 C6,3.22385763 6.22385763,3 6.5,3 Z M17.5,3 C17.7761424,3 18,3.22385763 18,3.5 L18,5.5 C18,5.77614237 17.7761424,6 17.5,6 C17.2238576,6 17,5.77614237 17,5.5 L17,3.5 C17,3.22385763 17.2238576,3 17.5,3 Z" id="path-1"></path>
    </defs>
    <g id="General-/-Calendar" stroke="none" stroke-width="1" fill="none" fill-rule="evenodd">
        <rect id="Rectangle" x="0" y="0" width="24" height="24"></rect>
        <mask id="mask-2" fill="white">
            <use xlink:href="#path-1"></use>
        </mask>
        <use id="Shape" fill="#000000" fill-rule="nonzero" xlink:href="#path-1"></use>
        <g id="color-/-black-copy-145" mask="url(#mask-2)">
            <rect id="Rectangle" x="0" y="0" width="24" height="24"></rect>
            <rect id="Rectangle" fill="#000000" x="0" y="0" width="24" height="24"></rect>
        </g>
    </g>
</svg>