<?xml version="1.0" encoding="UTF-8"?>
<svg width="24px" height="24px" viewBox="0 0 24 24" version="1.1" xmlns="http://www.w3.org/2000/svg" xmlns:xlink="http://www.w3.org/1999/xlink">
    <title>mdpi/Icon/24x/Calendar</title>
    <g id="Icon/24x/Calendar" stroke="none" stroke-width="1" fill="none" fill-rule="evenodd">
        <path d="M16,4 C16.5522847,4 17,4.44771525 17,5 L17,5.999 L18,6 C19.1045695,6 20,6.8954305 20,8 L20,18 C20,19.1045695 19.1045695,20 18,20 L6,20 C4.8954305,20 4,19.1045695 4,18 L4,8 C4,6.8954305 4.8954305,6 6,6 L7,5.999 L7,5 C7,4.44771525 7.44771525,4 8,4 C8.55228475,4 9,4.44771525 9,5 L9,5.999 L15,5.999 L15,5 C15,4.44771525 15.4477153,4 16,4 Z M18,10 L6,10 L6,18 L18,18 L18,10 Z" id="Shape" fill="#AFAFAF"></path>
    </g>
</svg>