<svg width="20" height="20" viewBox="0 0 20 20" fill="none" xmlns="http://www.w3.org/2000/svg">
<g clip-path="url(#clip0_448_2861)">
<path d="M3.33333 5.83332C3.33333 5.3913 3.50892 4.96737 3.82148 4.65481C4.13404 4.34225 4.55797 4.16666 4.99999 4.16666H15C15.442 4.16666 15.8659 4.34225 16.1785 4.65481C16.4911 4.96737 16.6667 5.3913 16.6667 5.83332V15.8333C16.6667 16.2754 16.4911 16.6993 16.1785 17.0118C15.8659 17.3244 15.442 17.5 15 17.5H4.99999C4.55797 17.5 4.13404 17.3244 3.82148 17.0118C3.50892 16.6993 3.33333 16.2754 3.33333 15.8333V5.83332Z" stroke="#191966" stroke-width="1.75" stroke-linecap="round" stroke-linejoin="round"/>
<path d="M13.3333 2.5V5.83333" stroke="#191966" stroke-width="1.75" stroke-linecap="round" stroke-linejoin="round"/>
<path d="M6.66667 2.5V5.83333" stroke="#191966" stroke-width="1.75" stroke-linecap="round" stroke-linejoin="round"/>
<path d="M3.33333 9.16666H16.6667" stroke="#191966" stroke-width="1.75" stroke-linecap="round" stroke-linejoin="round"/>
</g>
<defs>
<clipPath id="clip0_448_2861">
<rect width="20" height="20" fill="white"/>
</clipPath>
</defs>
</svg>
