<?xml version="1.0" encoding="UTF-8"?>
<svg width="24px" height="24px" viewBox="0 0 24 24" version="1.1" xmlns="http://www.w3.org/2000/svg" xmlns:xlink="http://www.w3.org/1999/xlink">
    <!-- Generator: Sketch 63.1 (92452) - https://sketch.com -->
    <title>mdpi/Navigation / Cancel</title>
    <desc>Created with Sketch.</desc>
    <defs>
        <path d="M7.46677646,7.72899941 C7.64133419,7.55643014 7.91086464,7.53868864 8.1049563,7.67479873 L8.17387164,7.7330499 L11.868,11.47 L15.5624151,7.7330499 C15.7565555,7.53667245 16.0731328,7.53485898 16.2695103,7.72899941 C16.4658877,7.92313985 16.4677012,8.23971714 16.2735608,8.43609459 L12.571,12.181 L16.2735608,15.9260693 C16.44613,16.1006271 16.4638715,16.3701575 16.3277614,16.5642492 L16.2695103,16.6331645 C16.0949525,16.8057338 15.8254221,16.8234753 15.6313304,16.6873652 L15.5624151,16.629114 L11.867,12.892 L8.17387164,16.629114 C7.9797312,16.8254915 7.66315391,16.8273049 7.46677646,16.6331645 C7.270399,16.4390241 7.26858554,16.1224468 7.46272597,15.9260693 L11.164,12.181 L7.46272597,8.43609459 C7.2901567,8.26153686 7.27241519,7.99200641 7.40852528,7.79791475 L7.46677646,7.72899941 Z M12,21 C16.9705627,21 21,16.9705627 21,12 C21,7.02943725 16.9705627,3 12,3 C7.02943725,3 3,7.02943725 3,12 C3,16.9705627 7.02943725,21 12,21 Z M12,22 C6.4771525,22 2,17.5228475 2,12 C2,6.4771525 6.4771525,2 12,2 C17.5228475,2 22,6.4771525 22,12 C22,17.5228475 17.5228475,22 12,22 Z" id="path-1"></path>
    </defs>
    <g id="Navigation-/-Cancel" stroke="none" stroke-width="1" fill="none" fill-rule="evenodd">
        <rect id="Rectangle" x="0" y="0" width="24" height="24"></rect>
        <mask id="mask-2" fill="white">
            <use xlink:href="#path-1"></use>
        </mask>
        <use id="Shape" fill="#000000" fill-rule="nonzero" xlink:href="#path-1"></use>
        <g id="color-/-black-copy-208" mask="url(#mask-2)">
            <rect id="Rectangle" x="0" y="0" width="24" height="24"></rect>
            <rect id="Rectangle" fill="#000000" x="0" y="0" width="24" height="24"></rect>
        </g>
    </g>
</svg>