<svg width="25" height="24" viewBox="0 0 25 24" fill="none" xmlns="http://www.w3.org/2000/svg">
<g clip-path="url(#clip0_135_2129)">
<path d="M5.5 11C6.03043 11 6.53914 11.2107 6.91421 11.5858C7.28929 11.9609 7.5 12.4696 7.5 13V15H17.5V13C17.5 12.4696 17.7107 11.9609 18.0858 11.5858C18.4609 11.2107 18.9696 11 19.5 11C20.0304 11 20.5391 11.2107 20.9142 11.5858C21.2893 11.9609 21.5 12.4696 21.5 13V17C21.5 17.5304 21.2893 18.0391 20.9142 18.4142C20.5391 18.7893 20.0304 19 19.5 19H5.5C4.96957 19 4.46086 18.7893 4.08579 18.4142C3.71071 18.0391 3.5 17.5304 3.5 17V13C3.5 12.4696 3.71071 11.9609 4.08579 11.5858C4.46086 11.2107 4.96957 11 5.5 11Z" stroke="#A0A0A0" stroke-width="1.75" stroke-linecap="round" stroke-linejoin="round"/>
<path d="M5.5 11V6C5.5 5.20435 5.81607 4.44129 6.37868 3.87868C6.94129 3.31607 7.70435 3 8.5 3H16.5C17.2957 3 18.0587 3.31607 18.6213 3.87868C19.1839 4.44129 19.5 5.20435 19.5 6V11" stroke="#A0A0A0" stroke-width="1.75" stroke-linecap="round" stroke-linejoin="round"/>
<path d="M6.5 19V21" stroke="#A0A0A0" stroke-width="1.75" stroke-linecap="round" stroke-linejoin="round"/>
<path d="M18.5 19V21" stroke="#A0A0A0" stroke-width="1.75" stroke-linecap="round" stroke-linejoin="round"/>
</g>
<defs>
<clipPath id="clip0_135_2129">
<rect width="24" height="24" fill="white" transform="translate(0.5)"/>
</clipPath>
</defs>
</svg>
