<svg width="38" height="39" viewBox="0 0 38 39" fill="none" xmlns="http://www.w3.org/2000/svg">
<g filter="url(#filter0_f_382_5867)">
<path d="M13.6993 27.2126L14.0595 27.4255C15.5725 28.3217 17.3072 28.7958 19.0762 28.7966H19.08C24.5127 28.7966 28.934 24.3847 28.9363 18.962C28.9373 16.3343 27.913 13.8632 26.0521 12.0044C25.1393 11.0877 24.0535 10.3608 22.8574 9.86573C21.6613 9.37069 20.3787 9.11736 19.0838 9.12039C13.6469 9.12039 9.2254 13.5318 9.22346 18.9542C9.22079 20.8057 9.74319 22.6203 10.7303 24.188L10.9648 24.5599L9.9689 28.1887L13.6993 27.2126ZM7.12158 31L8.80409 24.8687C7.76644 23.0744 7.22054 21.0388 7.22119 18.9534C7.22393 12.4293 12.5433 7.12163 19.0801 7.12163C22.2522 7.12324 25.2296 8.35531 27.4688 10.5918C29.708 12.8284 30.94 15.8012 30.9389 18.9628C30.936 25.4865 25.6158 30.7951 19.08 30.7951H19.0748C17.0903 30.7943 15.1402 30.2973 13.408 29.3547L7.12158 31Z" fill="#B3B3B3"/>
</g>
<path d="M7 30.8784L8.68251 24.7471C7.64307 22.9485 7.0971 20.9081 7.09961 18.8317C7.10235 12.3076 12.4218 7 18.9585 7C22.1306 7.00161 25.108 8.23368 27.3472 10.4702C29.5864 12.7067 30.8184 15.6796 30.8173 18.8412C30.8144 25.3648 25.4942 30.6734 18.9584 30.6734H18.9532C16.9687 30.6726 15.0186 30.1757 13.2865 29.233L7 30.8784Z" fill="white"/>
<path d="M18.9619 8.99876C13.525 8.99876 9.10351 13.4102 9.10157 18.8325C9.0989 20.6841 9.6213 22.4986 10.6084 24.0663L10.8429 24.4384L9.84701 28.0672L13.5776 27.0909L13.9378 27.3039C15.4507 28.2001 17.1855 28.674 18.9545 28.675H18.9582C24.391 28.675 28.8125 24.2631 28.8146 18.8404C28.8187 17.5479 28.5659 16.2675 28.0708 15.0732C27.5757 13.8789 26.8482 12.7945 25.9303 11.8828C25.0176 10.966 23.9317 10.2391 22.7356 9.74407C21.5395 9.24903 20.2568 8.9957 18.9619 8.99876Z" fill="url(#paint0_linear_382_5867)"/>
<path fill-rule="evenodd" clip-rule="evenodd" d="M15.9946 13.8852C15.7725 13.3928 15.5388 13.3829 15.3278 13.3743L14.7599 13.3674C14.5623 13.3674 14.2412 13.4414 13.9698 13.7374C13.6984 14.0334 12.9326 14.7488 12.9326 16.2038C12.9326 17.6589 13.9944 19.0648 14.1424 19.2624C14.2904 19.4599 16.1922 22.541 19.2041 23.7264C21.707 24.7116 22.2163 24.5156 22.7598 24.4664C23.3033 24.4172 24.5129 23.751 24.7596 23.0604C25.0064 22.3698 25.0066 21.7782 24.9326 21.6545C24.8586 21.5307 24.661 21.4572 24.3644 21.3092C24.0679 21.1612 22.6113 20.4459 22.3398 20.3471C22.0682 20.2483 21.8707 20.1993 21.673 20.4952C21.4752 20.7912 20.908 21.4571 20.7351 21.6545C20.5622 21.8518 20.3895 21.8766 20.093 21.7288C19.7964 21.5809 18.8423 21.2685 17.7102 20.261C16.8293 19.4771 16.2348 18.509 16.0617 18.2132C15.8886 17.9174 16.0433 17.7571 16.1919 17.6098C16.3249 17.4772 16.4881 17.2644 16.6366 17.0918C16.785 16.9192 16.8339 16.7958 16.9325 16.5987C17.0311 16.4017 16.982 16.2286 16.9078 16.0808C16.8337 15.9329 16.258 14.4702 15.9946 13.8852Z" fill="white"/>
<defs>
<filter id="filter0_f_382_5867" x="0.0595822" y="0.059628" width="37.9414" height="38.0024" filterUnits="userSpaceOnUse" color-interpolation-filters="sRGB">
<feFlood flood-opacity="0" result="BackgroundImageFix"/>
<feBlend mode="normal" in="SourceGraphic" in2="BackgroundImageFix" result="shape"/>
<feGaussianBlur stdDeviation="3.531" result="effect1_foregroundBlur_382_5867"/>
</filter>
<linearGradient id="paint0_linear_382_5867" x1="18.7574" y1="10.1795" x2="18.8569" y2="26.9941" gradientUnits="userSpaceOnUse">
<stop stop-color="#57D163"/>
<stop offset="1" stop-color="#23B33A"/>
</linearGradient>
</defs>
</svg>
