<svg width="25" height="25" viewBox="0 0 25 25" fill="none" xmlns="http://www.w3.org/2000/svg">
<g clip-path="url(#clip0_135_2479)">
<path d="M3.16003 10.7542C3.16003 10.2238 3.37075 9.71507 3.74582 9.34C4.12089 8.96493 4.6296 8.75421 5.16003 8.75421H19.16C19.6905 8.75421 20.1992 8.96493 20.5742 9.34C20.9493 9.71507 21.16 10.2238 21.16 10.7542V14.7542C21.16 15.2846 20.9493 15.7934 20.5742 16.1684C20.1992 16.5435 19.6905 16.7542 19.16 16.7542H5.16003C4.6296 16.7542 4.12089 16.5435 3.74582 16.1684C3.37075 15.7934 3.16003 15.2846 3.16003 14.7542V10.7542Z" stroke="#333333" stroke-width="1.75" stroke-linecap="round" stroke-linejoin="round"/>
<path d="M4.16003 5.25421L18.66 19.7542" stroke="#333333" stroke-width="1.75" stroke-linecap="round"/>
<path d="M7.16003 16.7542V13.7542C7.16003 13.489 7.26539 13.2346 7.45293 13.0471C7.64046 12.8596 7.89482 12.7542 8.16003 12.7542H16.16C16.4253 12.7542 16.6796 12.8596 16.8671 13.0471C17.0547 13.2346 17.16 13.489 17.16 13.7542V16.7542" stroke="#333333" stroke-width="1.75" stroke-linecap="round" stroke-linejoin="round"/>
</g>
<defs>
<clipPath id="clip0_135_2479">
<rect width="24" height="24" fill="white" transform="translate(0.160034 0.754211)"/>
</clipPath>
</defs>
</svg>
