<svg width="25" height="25" viewBox="0 0 25 25" fill="none" xmlns="http://www.w3.org/2000/svg">
<g clip-path="url(#clip0_135_2445)">
<path d="M12.5 3.62711C12.632 3.62711 12.763 3.62711 12.893 3.62711C11.6084 4.82082 10.7826 6.42695 10.5593 8.16633C10.336 9.90571 10.7293 11.6683 11.6708 13.1478C12.6122 14.6273 14.0424 15.7302 15.7126 16.2646C17.3829 16.799 19.1876 16.7313 20.813 16.0731C20.1878 17.5776 19.1658 18.8841 17.8562 19.8534C16.5466 20.8226 14.9985 21.4181 13.3769 21.5765C11.7554 21.7349 10.1213 21.4501 8.64892 20.7525C7.17654 20.055 5.92114 18.9708 5.01661 17.6157C4.11209 16.2606 3.59238 14.6854 3.51291 13.0581C3.43345 11.4308 3.79721 9.81241 4.5654 8.37562C5.33359 6.93884 6.47739 5.73753 7.87479 4.89984C9.27219 4.06215 10.8708 3.6195 12.5 3.61911V3.62711Z" stroke="#333333" stroke-width="1.75" stroke-linecap="round" stroke-linejoin="round"/>
</g>
<defs>
<clipPath id="clip0_135_2445">
<rect width="24" height="24" fill="white" transform="translate(0.5 0.627106)"/>
</clipPath>
</defs>
</svg>
