<svg width="24" height="25" viewBox="0 0 24 25" fill="none" xmlns="http://www.w3.org/2000/svg">
<g clip-path="url(#clip0_135_2434)">
<path d="M14.828 15.4551C15.2101 15.0861 15.5148 14.6447 15.7244 14.1567C15.9341 13.6687 16.0444 13.1438 16.049 12.6127C16.0537 12.0816 15.9525 11.5549 15.7513 11.0633C15.5502 10.5717 15.2532 10.1251 14.8776 9.74951C14.5021 9.37394 14.0554 9.07693 13.5639 8.87581C13.0723 8.67468 12.5456 8.57348 12.0144 8.57809C11.4833 8.58271 10.9584 8.69305 10.4704 8.90269C9.98241 9.11233 9.54103 9.41705 9.17204 9.79909C8.44341 10.5535 8.04023 11.5639 8.04935 12.6127C8.05846 13.6615 8.47914 14.6647 9.22077 15.4064C9.9624 16.148 10.9656 16.5687 12.0144 16.5778C13.0632 16.5869 14.0736 16.1837 14.828 15.4551Z" stroke="#333333" stroke-width="1.75" stroke-linecap="round" stroke-linejoin="round"/>
<path d="M6.34296 18.2841L4.92896 19.6981" stroke="#333333" stroke-width="1.75" stroke-linecap="round" stroke-linejoin="round"/>
<path d="M6.34296 6.97009L4.92896 5.55609" stroke="#333333" stroke-width="1.75" stroke-linecap="round" stroke-linejoin="round"/>
<path d="M17.657 6.97009L19.071 5.55609" stroke="#333333" stroke-width="1.75" stroke-linecap="round" stroke-linejoin="round"/>
<path d="M17.657 18.2841L19.071 19.6981" stroke="#333333" stroke-width="1.75" stroke-linecap="round" stroke-linejoin="round"/>
<path d="M4 12.6271H2" stroke="#333333" stroke-width="1.75" stroke-linecap="round" stroke-linejoin="round"/>
<path d="M12 4.62711V2.62711" stroke="#333333" stroke-width="1.75" stroke-linecap="round" stroke-linejoin="round"/>
<path d="M20 12.6271H22" stroke="#333333" stroke-width="1.75" stroke-linecap="round" stroke-linejoin="round"/>
<path d="M12 20.6271V22.6271" stroke="#333333" stroke-width="1.75" stroke-linecap="round" stroke-linejoin="round"/>
</g>
<defs>
<clipPath id="clip0_135_2434">
<rect width="24" height="24" fill="white" transform="translate(0 0.627106)"/>
</clipPath>
</defs>
</svg>
