<svg width="96" height="96" viewBox="0 0 96 96" fill="none" xmlns="http://www.w3.org/2000/svg">
<path fill-rule="evenodd" clip-rule="evenodd" d="M62.3769 57.6214C62.0255 55.5133 62.7282 54.1079 64.4849 53.0539C65.8903 52.3512 67.6471 52.3512 69.0525 53.4052C70.4578 54.4593 71.1605 55.8647 70.8092 57.6214H71.1605C73.9713 57.6214 76.7821 57.6214 79.9442 57.6214C80.9983 57.6214 81.3496 57.2701 81.3496 56.216C81.3496 54.1079 81.3496 51.6485 81.3496 49.5404C81.3496 49.1891 81.3496 48.8377 80.9983 48.8377C80.6469 48.4864 80.6469 48.4864 80.6469 48.135C80.6469 45.3242 80.2956 42.8648 80.2956 40.054C80.2956 39.3513 79.9442 39 79.2415 39C76.7821 39 74.3227 39 71.8632 39C60.6201 39 49.7284 39 38.4853 39C32.161 39 25.4854 39 19.1612 39C17.7558 39 16.3504 40.054 15.999 41.4594V41.8108C15.999 46.0269 15.999 50.2431 15.999 54.8106C15.999 55.162 16.3504 55.5133 16.7017 55.5133C18.1071 55.8647 19.8639 56.216 21.2692 56.5674C23.026 56.9187 25.1341 57.2701 26.8908 57.6214C27.5935 57.6214 28.6475 57.9727 29.7016 57.9727C29.7016 56.216 30.0529 54.4593 31.8097 53.4052C32.5124 53.0539 33.5664 52.7025 34.2691 52.7025C36.7285 53.0539 38.4853 55.162 38.1339 57.6214C45.8635 57.6214 53.9445 57.6214 62.3769 57.6214ZM50.7824 41.4594C52.1878 41.4594 53.9445 41.4594 55.3499 41.4594C56.0526 41.4594 56.7553 41.8108 56.7553 42.8648C56.7553 43.9189 56.7553 44.9729 56.7553 46.3783C56.7553 47.4323 56.404 47.7837 55.3499 47.7837C52.1878 47.7837 49.377 47.7837 46.2149 47.7837C45.5122 47.7837 44.8095 47.4323 44.8095 46.3783C44.8095 45.3242 44.8095 43.9189 44.8095 42.8648C44.8095 42.1621 45.1608 41.4594 46.2149 41.4594C47.6203 41.4594 49.377 41.4594 50.7824 41.4594ZM64.4849 41.4594C65.8903 41.4594 67.6471 41.4594 69.0525 41.4594C69.7552 41.4594 70.1065 41.8108 70.4578 42.5135C70.4578 43.5675 70.4578 44.9729 70.4578 46.0269C70.4578 46.7296 70.1065 47.081 69.4038 47.081C66.2417 47.081 63.0796 47.081 59.9174 47.081C59.2147 47.081 58.8634 46.7296 58.8634 46.0269C58.8634 44.9729 58.8634 43.5675 58.8634 42.5135C58.8634 41.4594 59.2147 41.1081 60.2688 41.1081C61.6742 41.4594 63.0796 41.4594 64.4849 41.4594ZM37.0799 41.4594C38.4853 41.4594 40.242 41.4594 41.6474 41.4594C42.3501 41.4594 42.7014 41.8108 42.7014 42.5135C42.7014 43.5675 42.7014 44.9729 42.7014 46.0269C42.7014 46.7296 42.3501 47.081 41.6474 47.081C38.4853 47.081 35.3231 47.081 32.161 47.081C31.4583 47.081 31.107 46.7296 31.107 46.0269C31.107 44.9729 31.107 43.5675 31.107 42.5135C31.107 41.4594 31.4583 41.1081 32.5123 41.1081C33.9177 41.4594 35.6745 41.4594 37.0799 41.4594ZM23.3773 47.4323C21.9719 47.4323 20.2152 47.4323 18.8098 47.4323C18.1071 47.4323 17.7558 47.081 17.7558 46.3783C17.7558 45.6756 17.7558 44.9729 17.7558 43.9189C17.7558 42.8648 18.1071 42.1621 19.1612 41.8108C19.5125 41.4594 20.2152 41.4594 20.9179 41.4594C23.3773 41.4594 25.8368 41.4594 28.2962 41.4594C29.3502 41.4594 29.7016 41.8108 29.7016 42.8648C29.7016 43.9189 29.7016 44.9729 29.7016 46.0269C29.7016 47.081 29.3502 47.4323 28.2962 47.4323C26.5395 47.4323 24.7827 47.4323 23.3773 47.4323ZM77.4848 48.4864C77.4848 50.2431 77.4848 52.3512 77.4848 54.1079C77.4848 54.8106 77.1334 55.162 76.4307 55.162C75.7281 55.162 75.0254 55.162 74.3227 55.162C73.62 55.162 72.9173 54.8106 72.9173 53.7566C72.9173 49.8918 72.9173 46.0269 72.9173 42.5135C72.9173 41.8108 73.2686 41.4594 73.9713 41.1081C74.674 41.1081 75.3767 41.1081 75.7281 41.1081C76.7821 41.1081 77.1334 41.4594 77.1334 42.5135C77.4848 44.9729 77.4848 46.7296 77.4848 48.4864Z" fill="#ADADAD"/>
<path fill-rule="evenodd" clip-rule="evenodd" d="M69.7559 56.5674C69.7559 54.8106 67.9991 53.4052 66.2424 53.4052C64.4857 53.4052 63.0803 54.8106 63.0803 56.9187C63.0803 58.6755 64.4857 60.0808 66.2424 60.0808C68.3505 60.0808 69.7559 58.6755 69.7559 56.5674ZM64.837 56.9187C64.837 56.216 65.5397 55.162 66.2424 55.162C66.9451 55.162 67.6478 55.8647 67.9991 56.5674C67.9991 57.2701 67.2964 58.3241 66.5937 58.3241C65.5397 58.3241 64.837 57.6214 64.837 56.9187Z" fill="#ADADAD"/>
<path fill-rule="evenodd" clip-rule="evenodd" d="M33.568 60.0808C35.3248 60.0808 37.0815 58.6755 36.7302 56.5674C36.7302 54.8106 35.3248 53.4052 33.568 53.4052C31.8113 53.4052 30.4059 54.8106 30.4059 56.9187C30.0546 58.6755 31.46 60.0808 33.568 60.0808ZM31.8113 56.5674C31.8113 55.8647 32.514 55.162 33.2167 55.162C33.9194 55.162 34.6221 55.8647 34.6221 56.9187C34.6221 57.6214 33.9194 58.3241 32.8653 58.3241C32.514 58.3241 31.8113 57.6214 31.8113 56.5674Z" fill="#ADADAD"/>
<circle cx="48" cy="48" r="47" stroke="#ADADAD" stroke-width="2"/>
<line x1="82.7071" y1="14.7071" x2="15.7071" y2="81.7071" stroke="#ADADAD" stroke-width="2"/>
</svg>
