<svg width="24" height="25" viewBox="0 0 24 25" fill="none" xmlns="http://www.w3.org/2000/svg">
<g clip-path="url(#clip0_144_534)">
<path d="M17 8.88089V5.88089C17 5.61567 16.8946 5.36132 16.7071 5.17378C16.5196 4.98625 16.2652 4.88089 16 4.88089H6C5.46957 4.88089 4.96086 5.0916 4.58579 5.46668C4.21071 5.84175 4 6.35046 4 6.88089M4 6.88089C4 7.41132 4.21071 7.92003 4.58579 8.2951C4.96086 8.67018 5.46957 8.88089 6 8.88089H18C18.2652 8.88089 18.5196 8.98625 18.7071 9.17378C18.8946 9.36132 19 9.61567 19 9.88089V12.8809M4 6.88089V18.8809C4 19.4113 4.21071 19.92 4.58579 20.2951C4.96086 20.6702 5.46957 20.8809 6 20.8809H18C18.2652 20.8809 18.5196 20.7755 18.7071 20.588C18.8946 20.4005 19 20.1461 19 19.8809V16.8809" stroke="#333333" stroke-width="1.5" stroke-linecap="round" stroke-linejoin="round"/>
<path d="M20 12.8809V16.8809H16C15.4696 16.8809 14.9609 16.6702 14.5858 16.2951C14.2107 15.92 14 15.4113 14 14.8809C14 14.3505 14.2107 13.8417 14.5858 13.4667C14.9609 13.0916 15.4696 12.8809 16 12.8809H20Z" stroke="#333333" stroke-width="1.5" stroke-linecap="round" stroke-linejoin="round"/>
</g>
<defs>
<clipPath id="clip0_144_534">
<rect width="24" height="24" fill="white" transform="translate(0 0.88089)"/>
</clipPath>
</defs>
</svg>
