<svg width="20" height="20" viewBox="0 0 20 20" fill="none" xmlns="http://www.w3.org/2000/svg">
<path d="M11.5637 5L2.74588 13.8183C2.70152 13.8627 2.66949 13.9189 2.65423 13.9793L1.67687 17.9022C1.64763 18.0203 1.68233 18.1458 1.76852 18.232C1.83372 18.2972 1.92258 18.3333 2.01346 18.3333C2.0413 18.3333 2.06977 18.3299 2.09748 18.3229L6.02042 17.3454C6.08156 17.3302 6.13711 17.2983 6.18147 17.2539L15 8.43629L11.5637 5Z" fill="#191966"/>
<path d="M17.8396 3.10259L16.886 2.14597C16.2487 1.50662 15.138 1.50723 14.5014 2.14597L13.3333 3.31778L16.6715 6.66669L17.8396 5.49488C18.158 5.17564 18.3333 4.75072 18.3333 4.2988C18.3333 3.84688 18.158 3.42196 17.8396 3.10259Z" fill="#191966"/>
</svg>
