<svg width="23" height="20" viewBox="0 0 23 20" fill="none" xmlns="http://www.w3.org/2000/svg">
<rect x="2.87412" y="0.775" width="16.7661" height="16.2111" rx="2.225" fill="white" stroke="#C2C2C2" stroke-width="1.55"/>
<rect x="20.5551" y="16.0861" width="3.13893" height="18.6598" rx="1.225" transform="rotate(90 20.5551 16.0861)" fill="white" stroke="#C2C2C2" stroke-width="1.55"/>
<path d="M0.775 7.9332C0.775 7.25666 1.32345 6.7082 2 6.7082H2.68893C3.36548 6.7082 3.91393 7.25666 3.91393 7.9332V19.225H3C1.77117 19.225 0.775 18.2288 0.775 17V7.9332Z" fill="white" stroke="#C2C2C2" stroke-width="1.55"/>
<path d="M18.5265 7.9332C18.5265 7.25666 19.0749 6.7082 19.7515 6.7082H20.4404C21.1169 6.7082 21.6654 7.25666 21.6654 7.9332V17C21.6654 18.2288 20.6692 19.225 19.4404 19.225H18.5265V7.9332Z" fill="white" stroke="#C2C2C2" stroke-width="1.55"/>
</svg>
