<svg width="25" height="24" viewBox="0 0 25 24" fill="none" xmlns="http://www.w3.org/2000/svg">
<g clip-path="url(#clip0_135_2146)">
<path d="M3.5 10C3.5 9.46957 3.71071 8.96086 4.08579 8.58579C4.46086 8.21071 4.96957 8 5.5 8H19.5C20.0304 8 20.5391 8.21071 20.9142 8.58579C21.2893 8.96086 21.5 9.46957 21.5 10V14C21.5 14.5304 21.2893 15.0391 20.9142 15.4142C20.5391 15.7893 20.0304 16 19.5 16H5.5C4.96957 16 4.46086 15.7893 4.08579 15.4142C3.71071 15.0391 3.5 14.5304 3.5 14V10Z" stroke="#A0A0A0" stroke-width="1.75" stroke-linecap="round" stroke-linejoin="round"/>
<path d="M4.5 4.5L19 19" stroke="#A0A0A0" stroke-width="1.75" stroke-linecap="round"/>
<path d="M7.5 16V13C7.5 12.7348 7.60536 12.4804 7.79289 12.2929C7.98043 12.1054 8.23478 12 8.5 12H16.5C16.7652 12 17.0196 12.1054 17.2071 12.2929C17.3946 12.4804 17.5 12.7348 17.5 13V16" stroke="#A0A0A0" stroke-width="1.75" stroke-linecap="round" stroke-linejoin="round"/>
</g>
<defs>
<clipPath id="clip0_135_2146">
<rect width="24" height="24" fill="white" transform="translate(0.5)"/>
</clipPath>
</defs>
</svg>
