<svg width="25" height="24" viewBox="0 0 25 24" fill="none" xmlns="http://www.w3.org/2000/svg">
<g clip-path="url(#clip0_135_2137)">
<path d="M8.5 16C8.5 16.7956 8.18393 17.5587 7.62132 18.1213C7.05871 18.6839 6.29565 19 5.5 19" stroke="#A0A0A0" stroke-width="1.75" stroke-linecap="round" stroke-linejoin="round"/>
<path d="M16.5 16C16.5 16.7956 16.8161 17.5587 17.3787 18.1213C17.9413 18.6839 18.7044 19 19.5 19" stroke="#A0A0A0" stroke-width="1.75" stroke-linecap="round" stroke-linejoin="round"/>
<path d="M12.5 16V20" stroke="#A0A0A0" stroke-width="1.75" stroke-linecap="round" stroke-linejoin="round"/>
<path d="M3.5 7C3.5 6.46957 3.71071 5.96086 4.08579 5.58579C4.46086 5.21071 4.96957 5 5.5 5H19.5C20.0304 5 20.5391 5.21071 20.9142 5.58579C21.2893 5.96086 21.5 6.46957 21.5 7V11C21.5 11.5304 21.2893 12.0391 20.9142 12.4142C20.5391 12.7893 20.0304 13 19.5 13H5.5C4.96957 13 4.46086 12.7893 4.08579 12.4142C3.71071 12.0391 3.5 11.5304 3.5 11V7Z" stroke="#A0A0A0" stroke-width="1.75" stroke-linecap="round" stroke-linejoin="round"/>
<path d="M7.5 13V10C7.5 9.73478 7.60536 9.48043 7.79289 9.29289C7.98043 9.10536 8.23478 9 8.5 9H16.5C16.7652 9 17.0196 9.10536 17.2071 9.29289C17.3946 9.48043 17.5 9.73478 17.5 10V13" stroke="#A0A0A0" stroke-width="1.75" stroke-linecap="round" stroke-linejoin="round"/>
</g>
<defs>
<clipPath id="clip0_135_2137">
<rect width="24" height="24" fill="white" transform="translate(0.5)"/>
</clipPath>
</defs>
</svg>
