<svg width="275" height="51" viewBox="0 0 275 51" fill="none" xmlns="http://www.w3.org/2000/svg">
<mask id="mask0_912_2034" style="mask-type:luminance" maskUnits="userSpaceOnUse" x="63" y="13" width="20" height="22">
<path d="M79.798 27.9137L82.8503 29.9168L79.798 27.9137ZM82.7549 29.9168C81.7057 31.3476 80.4657 32.5876 78.8441 33.3507C77.318 34.2092 75.601 34.5907 73.7887 34.5907C70.8317 34.5907 68.2563 33.4461 66.2532 31.443C64.2501 29.4399 63.1055 26.8645 63.1055 23.9075C63.1055 20.9506 64.2501 18.3752 66.2532 16.3721C68.2563 14.369 70.8317 13.2244 73.7887 13.2244C75.5056 13.2244 77.2226 13.6059 78.6533 14.369C80.1795 15.1321 81.4195 16.2767 82.4688 17.6121L79.5118 19.806C78.8441 18.9475 78.081 18.1844 77.0318 17.7075C75.9826 17.2306 74.9333 16.9444 73.7887 16.9444C71.881 16.9444 70.164 17.7075 68.8286 19.0429C67.4932 20.3783 66.7302 22.0952 66.7302 24.0029C66.7302 26.006 67.4932 27.6276 68.8286 28.963C70.0686 30.203 71.7856 30.9661 73.7887 30.9661C75.0287 30.9661 76.1733 30.6799 77.1272 30.1076C78.1764 29.5353 79.0349 28.7722 79.7026 27.8184L82.7549 29.9168Z" fill="white"/>
</mask>
<g mask="url(#mask0_912_2034)">
<path d="M63.2009 13.3198H82.8503V34.5908H63.2009V13.3198Z" fill="white"/>
</g>
<path d="M100.592 13.9873V34.1137H96.872V26.0059H90.6719V34.1137H86.9519V13.9873H90.6719V22.2859H96.872V13.9873H100.592Z" fill="white"/>
<mask id="mask1_912_2034" style="mask-type:luminance" maskUnits="userSpaceOnUse" x="103" y="13" width="20" height="22">
<path d="M112.801 22.1904L110.989 26.1012L112.801 22.1904ZM110.989 26.1012H114.709L112.801 22.1904L110.989 26.1012ZM116.426 29.5351H109.368L107.174 34.1136H103.167L111.084 17.3257L112.706 13.8918L114.423 17.3257L122.721 34.1136H118.715L116.426 29.5351Z" fill="white"/>
</mask>
<g mask="url(#mask1_912_2034)">
<path d="M103.167 13.8918H122.817V34.209H103.167V13.8918Z" fill="white"/>
</g>
<mask id="mask2_912_2034" style="mask-type:luminance" maskUnits="userSpaceOnUse" x="125" y="13" width="13" height="22">
<path d="M128.922 23.6212H130.638C131.497 23.6212 132.165 23.3351 132.737 22.7628C133.309 22.1905 133.595 21.5228 133.595 20.6643C133.595 19.9012 133.309 19.1381 132.737 18.5658C132.165 17.9935 131.402 17.7073 130.638 17.7073H128.922V23.6212ZM137.792 34.1137H133.5L129.398 27.2459H128.826V34.1137H125.202V13.9873H128.826H130.543C132.355 13.9873 133.977 14.655 135.217 15.895C136.457 17.2304 137.22 18.7566 137.22 20.5689C137.22 22.3812 136.457 24.0982 135.217 25.2428C134.645 25.8151 133.977 26.292 133.214 26.5782L137.792 34.1137Z" fill="white"/>
</mask>
<g mask="url(#mask2_912_2034)">
<path d="M125.297 13.9873H137.888V34.1137H125.297V13.9873Z" fill="white"/>
</g>
<path d="M152.1 13.9873V17.612H148.189V34.1137H144.565V17.612H140.749V13.9873H152.1Z" fill="white"/>
<path d="M159.826 17.6119V22.2858H165.263V26.0058H159.826V30.4889H167.076V34.0182H156.106V13.8918H167.076V17.6119H159.826Z" fill="white"/>
<mask id="mask3_912_2034" style="mask-type:luminance" maskUnits="userSpaceOnUse" x="171" y="13" width="13" height="22">
<path d="M174.993 23.6212H176.71C177.568 23.6212 178.236 23.3351 178.808 22.7628C179.381 22.1905 179.667 21.5228 179.667 20.6643C179.667 19.9012 179.381 19.1381 178.808 18.5658C178.236 17.9935 177.473 17.7073 176.71 17.7073H174.993V23.6212ZM183.864 34.1137H179.571L175.47 27.2459H174.897V34.1137H171.273V13.9873H174.897H176.614C178.427 13.9873 180.048 14.655 181.288 15.895C182.528 17.2304 183.291 18.7566 183.291 20.5689C183.291 22.3812 182.528 24.0982 181.288 25.2428C180.716 25.8151 180.048 26.292 179.285 26.5782L183.864 34.1137Z" fill="white"/>
</mask>
<g mask="url(#mask3_912_2034)">
<path d="M171.273 13.9873H183.864V34.1137H171.273V13.9873Z" fill="white"/>
</g>
<path d="M191.113 17.6119V22.2858H196.55V26.0058H191.113V30.4889H198.458V34.0182H187.488V13.8918H198.458V17.6119H191.113Z" fill="white"/>
<mask id="mask4_912_2034" style="mask-type:luminance" maskUnits="userSpaceOnUse" x="202" y="13" width="17" height="22">
<path d="M206.279 17.612V30.489H208.568C210.285 30.489 211.907 29.7259 213.052 28.5813C214.196 27.4367 214.959 25.8151 214.959 24.0982C214.959 22.3812 214.196 20.7597 213.052 19.6151C211.907 18.4704 210.285 17.7073 208.568 17.7073H206.279V17.612ZM202.655 13.9873H206.279H202.655ZM206.279 13.9873H208.568C211.335 13.9873 213.91 15.1319 215.722 16.9443C217.535 18.7566 218.679 21.2366 218.679 24.0982C218.679 26.8644 217.535 29.4398 215.722 31.2521C213.91 33.0644 211.335 34.209 208.568 34.209H202.559V13.9873H206.279Z" fill="white"/>
</mask>
<g mask="url(#mask4_912_2034)">
<path d="M202.655 13.9873H218.775V34.1137H202.655V13.9873Z" fill="white"/>
</g>
<mask id="mask5_912_2034" style="mask-type:luminance" maskUnits="userSpaceOnUse" x="227" y="13" width="14" height="22">
<path d="M232.606 25.4334C234.132 25.4334 235.086 25.7196 235.658 26.1965C236.23 26.6734 236.516 27.3411 236.516 28.1042C236.516 28.8673 236.23 29.535 235.658 30.0119C235.086 30.4889 234.227 30.6796 232.987 30.6796H231.461V25.4334H232.606ZM234.227 21.618C233.75 21.9995 233.083 22.2857 232.033 22.2857H231.461V17.3257H232.129C232.987 17.3257 233.75 17.5164 234.132 17.9934C234.609 18.3749 234.8 19.0426 234.8 19.8057C234.895 20.5688 234.609 21.2365 234.227 21.618ZM236.04 33.6366C236.898 33.3504 237.661 32.8735 238.329 32.2058C239.473 31.0612 240.046 29.7258 240.046 28.1042C240.046 26.8642 239.76 25.815 239.092 24.8611C238.52 24.098 237.852 23.4303 236.993 23.0488C237.852 22.0949 238.329 20.9503 238.329 19.6149C238.329 18.8518 238.138 17.9934 237.852 17.2303C237.47 16.4672 237.089 15.7995 236.421 15.2272C235.849 14.7502 235.086 14.3687 234.323 14.0825C233.56 13.8918 232.415 13.7964 231.079 13.7964H227.836V34.0181H232.606C234.036 34.0181 235.181 33.9227 236.04 33.6366Z" fill="white"/>
</mask>
<g mask="url(#mask5_912_2034)">
<path d="M227.836 13.8918H240.046V34.0182H227.836V13.8918Z" fill="white"/>
</g>
<mask id="mask6_912_2034" style="mask-type:luminance" maskUnits="userSpaceOnUse" x="243" y="13" width="16" height="22">
<path d="M256.261 32.1105C257.597 30.6797 258.264 28.9628 258.264 26.7689V13.8918H254.64V26.0058C254.64 27.6274 254.354 28.772 253.877 29.4397C253.114 30.4889 252.064 30.9659 250.729 30.9659C249.394 30.9659 248.344 30.4889 247.581 29.4397C247.104 28.6766 246.818 27.532 246.818 26.0058V13.8918H243.193V26.7689C243.193 28.8674 243.861 30.6797 245.197 32.1105C246.723 33.6367 248.535 34.3997 250.729 34.3997C252.827 34.3997 254.735 33.6367 256.261 32.1105Z" fill="white"/>
</mask>
<g mask="url(#mask6_912_2034)">
<path d="M243.098 13.8918H258.264V34.4951H243.098V13.8918Z" fill="white"/>
</g>
<path d="M267.994 30.9661C266.945 30.9661 266.181 30.5845 265.609 29.8214C265.323 29.4399 265.132 28.6768 264.941 27.6276V27.246L261.317 28.0091V28.2953C261.603 30.203 262.271 31.6338 263.415 32.683C264.56 33.7322 266.086 34.3046 267.803 34.3046C269.711 34.3046 271.237 33.6369 272.477 32.3968C273.717 31.1568 274.385 29.6307 274.385 27.7229C274.385 26.2922 274.003 25.0522 273.24 24.0983C272.477 23.1444 271.237 22.286 269.615 21.6183L267.708 20.8552C266.468 20.2829 265.8 19.7106 265.8 18.8521C265.8 18.2798 265.991 17.8028 266.468 17.4213C266.945 17.0398 267.517 16.849 268.28 16.849C268.852 16.849 269.329 16.9444 269.711 17.2305C270.092 17.4213 270.474 17.8982 270.855 18.6613L271.046 18.9475L274.003 17.2305L273.812 16.9444C272.477 14.6551 270.665 13.5105 268.28 13.5105C266.563 13.5105 265.037 14.0828 263.892 15.1321C262.748 16.1813 262.08 17.5167 262.08 19.0429C262.08 21.3321 263.511 23.1444 266.277 24.2891L268.185 25.0522C268.661 25.2429 269.043 25.4337 269.425 25.7199C269.711 25.9106 269.997 26.1968 270.188 26.3876C270.378 26.5783 270.569 26.8645 270.569 27.1506C270.665 27.4368 270.76 27.723 270.76 28.1045C270.76 28.963 270.474 29.6307 269.901 30.203C269.425 30.6799 268.757 30.9661 267.994 30.9661Z" fill="white"/>
<path d="M13.466 14.561L7.21821 8.31323C-1.58551 17.8269 -1.58551 32.5945 7.21821 42.2502L13.466 36.0024C8.07018 29.8966 8.07018 20.6668 13.466 14.561Z" fill="#FBAE17"/>
<path d="M14.744 37.2805L8.49619 43.5283C18.0099 52.332 32.7774 52.332 42.4331 43.5283L36.1853 37.2805C30.0795 42.6763 20.8498 42.6763 14.744 37.2805Z" fill="#FBAE17"/>
<path d="M37.4633 36.0024L43.7111 42.2502C52.5148 32.7365 52.5148 17.9689 43.7111 8.31323L37.4633 14.561C42.8591 20.6668 42.8591 29.8966 37.4633 36.0024Z" fill="#BBBDBF"/>
<path d="M36.1853 13.2832L42.4331 7.03541C32.9194 -1.76831 18.1519 -1.76831 8.49619 7.03541L14.744 13.2832C20.8498 7.88738 30.0795 7.88738 36.1853 13.2832Z" fill="#FBAE17"/>
<path fill-rule="evenodd" clip-rule="evenodd" d="M19.8558 28.7609C19.9978 27.9089 19.7138 27.3409 19.0039 26.9149C18.4359 26.6309 17.7259 26.6309 17.1579 27.0569C16.5899 27.4829 16.306 28.0509 16.4479 28.7609H16.306C15.17 28.7609 14.034 28.7609 12.7561 28.7609C12.3301 28.7609 12.1881 28.6189 12.1881 28.1929C12.1881 27.3409 12.1881 26.3469 12.1881 25.495C12.1881 25.353 12.1881 25.211 12.3301 25.211C12.4721 25.069 12.4721 25.069 12.4721 24.927C12.4721 23.791 12.6141 22.7971 12.6141 21.6611C12.6141 21.3771 12.7561 21.2351 13.0401 21.2351C14.034 21.2351 15.028 21.2351 16.022 21.2351C20.5658 21.2351 24.9677 21.2351 29.5115 21.2351C32.0675 21.2351 34.7654 21.2351 37.3213 21.2351C37.8893 21.2351 38.4573 21.6611 38.5992 22.2291V22.3711C38.5992 24.075 38.5992 25.779 38.5992 27.6249C38.5992 27.7669 38.4573 27.9089 38.3153 27.9089C37.7473 28.0509 37.0373 28.1929 36.4693 28.3349C35.7593 28.4769 34.9074 28.6189 34.1974 28.7609C33.9134 28.7609 33.4874 28.9029 33.0614 28.9029C33.0614 28.1929 32.9194 27.4829 32.2095 27.0569C31.9255 26.9149 31.4995 26.7729 31.2155 26.7729C30.2215 26.9149 29.5115 27.7669 29.6535 28.7609C26.5296 28.7609 23.2637 28.7609 19.8558 28.7609ZM24.5417 22.2291C23.9737 22.2291 23.2637 22.2291 22.6958 22.2291C22.4118 22.2291 22.1278 22.3711 22.1278 22.7971C22.1278 23.223 22.1278 23.649 22.1278 24.217C22.1278 24.643 22.2698 24.785 22.6958 24.785C23.9737 24.785 25.1097 24.785 26.3876 24.785C26.6716 24.785 26.9556 24.643 26.9556 24.217C26.9556 23.791 26.9556 23.223 26.9556 22.7971C26.9556 22.5131 26.8136 22.2291 26.3876 22.2291C25.8197 22.2291 25.1097 22.2291 24.5417 22.2291ZM19.0039 22.2291C18.4359 22.2291 17.7259 22.2291 17.1579 22.2291C16.8739 22.2291 16.7319 22.3711 16.5899 22.6551C16.5899 23.081 16.5899 23.649 16.5899 24.075C16.5899 24.359 16.7319 24.501 17.0159 24.501C18.2939 24.501 19.5718 24.501 20.8498 24.501C21.1338 24.501 21.2758 24.359 21.2758 24.075C21.2758 23.649 21.2758 23.081 21.2758 22.6551C21.2758 22.2291 21.1338 22.0871 20.7078 22.0871C20.1398 22.2291 19.5718 22.2291 19.0039 22.2291ZM30.0795 22.2291C29.5115 22.2291 28.8016 22.2291 28.2336 22.2291C27.9496 22.2291 27.8076 22.3711 27.8076 22.6551C27.8076 23.081 27.8076 23.649 27.8076 24.075C27.8076 24.359 27.9496 24.501 28.2336 24.501C29.5115 24.501 30.7895 24.501 32.0675 24.501C32.3514 24.501 32.4934 24.359 32.4934 24.075C32.4934 23.649 32.4934 23.081 32.4934 22.6551C32.4934 22.2291 32.3514 22.0871 31.9255 22.0871C31.3575 22.2291 30.6475 22.2291 30.0795 22.2291ZM35.6173 24.643C36.1853 24.643 36.8953 24.643 37.4633 24.643C37.7473 24.643 37.8893 24.501 37.8893 24.217C37.8893 23.933 37.8893 23.649 37.8893 23.223C37.8893 22.7971 37.7473 22.5131 37.3213 22.3711C37.1793 22.2291 36.8953 22.2291 36.6113 22.2291C35.6173 22.2291 34.6234 22.2291 33.6294 22.2291C33.2034 22.2291 33.0614 22.3711 33.0614 22.7971C33.0614 23.223 33.0614 23.649 33.0614 24.075C33.0614 24.501 33.2034 24.643 33.6294 24.643C34.3394 24.643 35.0494 24.643 35.6173 24.643ZM13.75 25.069C13.75 25.779 13.75 26.6309 13.75 27.3409C13.75 27.6249 13.892 27.7669 14.176 27.7669C14.46 27.7669 14.744 27.7669 15.028 27.7669C15.312 27.7669 15.596 27.6249 15.596 27.1989C15.596 25.637 15.596 24.075 15.596 22.6551C15.596 22.3711 15.454 22.2291 15.17 22.0871C14.886 22.0871 14.602 22.0871 14.46 22.0871C14.034 22.0871 13.892 22.2291 13.892 22.6551C13.75 23.649 13.75 24.359 13.75 25.069Z" fill="#BBBDBF"/>
<path fill-rule="evenodd" clip-rule="evenodd" d="M16.8739 28.3348C16.8739 27.6249 17.5839 27.0569 18.2939 27.0569C19.0038 27.0569 19.5718 27.6249 19.5718 28.4768C19.5718 29.1868 19.0038 29.7548 18.2939 29.7548C17.4419 29.7548 16.8739 29.1868 16.8739 28.3348ZM18.8618 28.4768C18.8618 28.1928 18.5778 27.7669 18.2939 27.7669C18.0099 27.7669 17.7259 28.0509 17.5839 28.3348C17.5839 28.6188 17.8679 29.0448 18.1519 29.0448C18.5778 29.0448 18.8618 28.7608 18.8618 28.4768Z" fill="#BBBDBF"/>
<path fill-rule="evenodd" clip-rule="evenodd" d="M31.4995 29.7548C30.7895 29.7548 30.0795 29.1868 30.2215 28.3348C30.2215 27.6249 30.7895 27.0569 31.4995 27.0569C32.2095 27.0569 32.7774 27.6249 32.7774 28.4768C32.9194 29.1868 32.3515 29.7548 31.4995 29.7548ZM32.2095 28.3348C32.2095 28.0509 31.9255 27.7669 31.6415 27.7669C31.3575 27.7669 31.0735 28.0509 31.0735 28.4768C31.0735 28.7608 31.3575 29.0448 31.7835 29.0448C31.9255 29.0448 32.2095 28.7608 32.2095 28.3348Z" fill="#BBBDBF"/>
</svg>
