<svg width="21" height="21" viewBox="0 0 21 21" fill="none" xmlns="http://www.w3.org/2000/svg">
<g clip-path="url(#clip0_142_3050)">
<path d="M8 9.98308C8 10.6461 8.26339 11.282 8.73223 11.7508C9.20107 12.2197 9.83696 12.4831 10.5 12.4831C11.163 12.4831 11.7989 12.2197 12.2678 11.7508C12.7366 11.282 13 10.6461 13 9.98308C13 9.32004 12.7366 8.68415 12.2678 8.21531C11.7989 7.74647 11.163 7.48308 10.5 7.48308C9.83696 7.48308 9.20107 7.74647 8.73223 8.21531C8.26339 8.68415 8 9.32004 8 9.98308Z" stroke="#191966" stroke-width="1.75" stroke-linecap="round" stroke-linejoin="round"/>
<path d="M15.2143 14.6972L11.6785 18.2331C11.366 18.5453 10.9423 18.7206 10.5006 18.7206C10.0588 18.7206 9.63518 18.5453 9.32267 18.2331L5.786 14.6972C4.85368 13.7649 4.21878 12.577 3.96157 11.2838C3.70437 9.9906 3.83641 8.65017 4.341 7.43201C4.8456 6.21386 5.70008 5.17269 6.7964 4.44016C7.89272 3.70763 9.18164 3.31665 10.5002 3.31665C11.8187 3.31665 13.1076 3.70763 14.2039 4.44016C15.3003 5.17269 16.1547 6.21386 16.6593 7.43201C17.1639 8.65017 17.296 9.9906 17.0388 11.2838C16.7816 12.577 16.1466 13.7649 15.2143 14.6972Z" stroke="#191966" stroke-width="1.75" stroke-linecap="round" stroke-linejoin="round"/>
</g>
<defs>
<clipPath id="clip0_142_3050">
<rect width="20" height="20" fill="white" transform="translate(0.5 0.816406)"/>
</clipPath>
</defs>
</svg>
