<svg width="23" height="8" viewBox="0 0 23 8" fill="none" xmlns="http://www.w3.org/2000/svg">
<path fill-rule="evenodd" clip-rule="evenodd" d="M16.0089 6.42781C15.8876 5.70013 16.1301 5.21501 16.7365 4.85117C17.2217 4.60862 17.8281 4.60861 18.3132 4.97245C18.7983 5.33629 19.0409 5.82141 18.9196 6.42781H19.0409C20.0111 6.42781 20.9813 6.42781 22.0728 6.42781C22.4367 6.42781 22.558 6.30653 22.558 5.94269C22.558 5.21501 22.558 4.36606 22.558 3.63838C22.558 3.5171 22.558 3.39582 22.4367 3.39582C22.3154 3.27454 22.3154 3.27454 22.3154 3.15326C22.3154 2.18303 22.1941 1.33407 22.1941 0.363838C22.1941 0.12128 22.0728 0 21.8303 0C20.9813 0 20.1324 0 19.2834 0C15.4025 0 11.6428 0 7.76187 0C5.57884 0 3.27453 0 1.09151 0C0.606388 0 0.121273 0.363838 -5.72205e-06 0.848955V0.970235C-5.72205e-06 2.42559 -5.72205e-06 3.88094 -5.72205e-06 5.45757C-5.72205e-06 5.57885 0.121269 5.70013 0.24255 5.70013C0.727667 5.82141 1.33407 5.94269 1.81919 6.06397C2.42558 6.18525 3.15325 6.30653 3.75965 6.42781C4.00221 6.42781 4.36605 6.54909 4.72989 6.54909C4.72989 5.94269 4.85117 5.33629 5.45756 4.97245C5.70012 4.85117 6.06396 4.7299 6.30652 4.7299C7.15547 4.85117 7.76187 5.57885 7.64059 6.42781C10.3087 6.42781 13.0982 6.42781 16.0089 6.42781ZM12.0066 0.848955C12.4918 0.848955 13.0982 0.848955 13.5833 0.848955C13.8258 0.848955 14.0684 0.970235 14.0684 1.33407C14.0684 1.69791 14.0684 2.06175 14.0684 2.54687C14.0684 2.9107 13.9471 3.03198 13.5833 3.03198C12.4918 3.03198 11.5215 3.03198 10.43 3.03198C10.1875 3.03198 9.9449 2.9107 9.9449 2.54687C9.9449 2.18303 9.9449 1.69791 9.9449 1.33407C9.9449 1.09151 10.0662 0.848955 10.43 0.848955C10.9151 0.848955 11.5215 0.848955 12.0066 0.848955ZM16.7365 0.848955C17.2217 0.848955 17.8281 0.848955 18.3132 0.848955C18.5557 0.848955 18.677 0.970235 18.7983 1.21279C18.7983 1.57663 18.7983 2.06175 18.7983 2.42559C18.7983 2.66815 18.677 2.78943 18.4345 2.78943C17.3429 2.78943 16.2514 2.78943 15.1599 2.78943C14.9174 2.78943 14.7961 2.66815 14.7961 2.42559C14.7961 2.06175 14.7961 1.57663 14.7961 1.21279C14.7961 0.848955 14.9174 0.727677 15.2812 0.727677C15.7663 0.848956 16.2514 0.848955 16.7365 0.848955ZM7.27675 0.848955C7.76187 0.848955 8.36827 0.848955 8.85338 0.848955C9.09594 0.848955 9.21722 0.970235 9.21722 1.21279C9.21722 1.57663 9.21722 2.06175 9.21722 2.42559C9.21722 2.66815 9.09594 2.78943 8.85338 2.78943C7.76187 2.78943 6.67036 2.78943 5.57884 2.78943C5.33628 2.78943 5.215 2.66815 5.215 2.42559C5.215 2.06175 5.215 1.57663 5.215 1.21279C5.215 0.848955 5.33628 0.727677 5.70012 0.727677C6.18524 0.848956 6.79164 0.848955 7.27675 0.848955ZM2.54686 2.91071C2.06174 2.91071 1.45535 2.91071 0.970228 2.91071C0.727669 2.91071 0.60639 2.78942 0.60639 2.54687C0.60639 2.30431 0.60639 2.06175 0.60639 1.69791C0.60639 1.33407 0.727667 1.09151 1.09151 0.970235C1.21279 0.848956 1.45534 0.848955 1.6979 0.848955C2.54686 0.848955 3.39581 0.848955 4.24477 0.848955C4.60861 0.848955 4.72989 0.970235 4.72989 1.33407C4.72989 1.69791 4.72989 2.06175 4.72989 2.42559C4.72989 2.78943 4.60861 2.91071 4.24477 2.91071C3.63837 2.91071 3.03198 2.91071 2.54686 2.91071ZM21.2239 3.27454C21.2239 3.88094 21.2239 4.60862 21.2239 5.21501C21.2239 5.45757 21.1026 5.57885 20.86 5.57885C20.6175 5.57885 20.3749 5.57885 20.1324 5.57885C19.8898 5.57885 19.6472 5.45757 19.6472 5.09373C19.6472 3.75966 19.6472 2.42559 19.6472 1.21279C19.6472 0.970235 19.7685 0.848956 20.0111 0.727677C20.2536 0.727677 20.4962 0.727677 20.6175 0.727677C20.9813 0.727677 21.1026 0.848955 21.1026 1.21279C21.2239 2.06175 21.2239 2.66815 21.2239 3.27454Z" fill="#191966"/>
<path fill-rule="evenodd" clip-rule="evenodd" d="M18.5557 6.06396C18.5557 5.45756 17.9493 4.97244 17.3429 4.97244C16.7365 4.97244 16.2514 5.45756 16.2514 6.18524C16.2514 6.79163 16.7365 7.27675 17.3429 7.27675C18.0706 7.27675 18.5557 6.79163 18.5557 6.06396ZM16.8578 6.18524C16.8578 5.94268 17.1004 5.57884 17.3429 5.57884C17.5855 5.57884 17.8281 5.8214 17.9493 6.06396C17.9493 6.30652 17.7068 6.67036 17.4642 6.67036C17.1004 6.67036 16.8578 6.42779 16.8578 6.18524Z" fill="#191966"/>
<path fill-rule="evenodd" clip-rule="evenodd" d="M6.06398 7.27675C6.67038 7.27675 7.27677 6.79163 7.15549 6.06396C7.15549 5.45756 6.67038 4.97244 6.06398 4.97244C5.45758 4.97244 4.97246 5.45756 4.97246 6.18524C4.85118 6.79163 5.3363 7.27675 6.06398 7.27675ZM5.45758 6.06396C5.45758 5.8214 5.70014 5.57884 5.9427 5.57884C6.18526 5.57884 6.42782 5.8214 6.42782 6.18524C6.42782 6.42779 6.18526 6.67036 5.82142 6.67036C5.70014 6.67036 5.45758 6.4278 5.45758 6.06396Z" fill="#191966"/>
</svg>
