<?xml version="1.0" encoding="UTF-8"?>
<svg width="24px" height="24px" viewBox="0 0 24 24" version="1.1" xmlns="http://www.w3.org/2000/svg" xmlns:xlink="http://www.w3.org/1999/xlink">
    <title>mdpi/Icon/24x/Password</title>
    <g id="Icon/24x/Password" stroke="none" stroke-width="1" fill="none" fill-rule="evenodd">
        <path d="M12.4875,10.5 C11.775,8.4825 9.675,7.125 7.3275,7.59 C5.61,7.935 4.215,9.3075 3.855,11.025 C3.24,13.9275 5.445,16.5 8.25,16.5 C10.2075,16.5 11.8725,15.2475 12.4875,13.5 L15.75,13.5 L15.75,15 C15.75,15.825 16.425,16.5 17.25,16.5 C18.075,16.5 18.75,15.825 18.75,15 L18.75,13.5 C19.575,13.5 20.25,12.825 20.25,12 C20.25,11.175 19.575,10.5 18.75,10.5 L12.4875,10.5 Z M8.25,13.5 C7.425,13.5 6.75,12.825 6.75,12 C6.75,11.175 7.425,10.5 8.25,10.5 C9.075,10.5 9.75,11.175 9.75,12 C9.75,12.825 9.075,13.5 8.25,13.5 Z" id="Shape" fill="#4A4A4A"></path>
    </g>
</svg>