<svg width="40" height="40" viewBox="0 0 40 40" fill="none" xmlns="http://www.w3.org/2000/svg">
<rect width="40" height="40" rx="8" fill="#FDF6E3"/>
<path fill-rule="evenodd" clip-rule="evenodd" d="M27.9184 16.75H24.8423V14.5C24.8423 12.0147 22.7765 10 20.2282 10C17.6799 10 15.6141 12.0147 15.6141 14.5V16.75H12.538C11.6886 16.75 11 17.4216 11 18.25V28.75C11 29.5784 11.6886 30.25 12.538 30.25H27.9184C28.7678 30.25 29.4564 29.5784 29.4564 28.75V18.25C29.4564 17.4216 28.7678 16.75 27.9184 16.75ZM17.1521 14.5C17.1521 12.8431 18.5293 11.5 20.2282 11.5C21.9271 11.5 23.3043 12.8431 23.3043 14.5V16.75H17.1521V14.5ZM27.9184 28.75H12.538V18.25H27.9184V28.75ZM21.3817 23.5C21.3817 24.1213 20.8653 24.625 20.2282 24.625C19.5911 24.625 19.0747 24.1213 19.0747 23.5C19.0747 22.8787 19.5911 22.375 20.2282 22.375C20.8653 22.375 21.3817 22.8787 21.3817 23.5Z" fill="#140D1C"/>
</svg>
