<svg width="34" height="34" viewBox="0 0 34 34" fill="none" xmlns="http://www.w3.org/2000/svg">
<rect x="1" y="1" width="32" height="32" rx="16" fill="white" stroke="#DFDFDF"/>
<path d="M11.4697 12.0437L8.66703 9.24098C4.71776 13.5087 4.71776 20.1333 8.66703 24.4648L11.4697 21.6621C9.04921 18.923 9.04921 14.7827 11.4697 12.0437Z" fill="#FBAE17"/>
<path d="M12.0429 22.2353L9.24023 25.038C13.508 28.9873 20.1326 28.9873 24.464 25.038L21.6613 22.2353C18.9223 24.6559 14.7819 24.6559 12.0429 22.2353Z" fill="#FBAE17"/>
<path d="M22.2344 21.6621L25.0371 24.4648C28.9863 20.197 28.9863 13.5724 25.0371 9.24098L22.2344 12.0437C24.6549 14.7827 24.6549 18.9231 22.2344 21.6621Z" fill="#BBBDBF"/>
<path d="M21.6613 11.4704L24.464 8.6677C20.1963 4.71843 13.5717 4.71843 9.24023 8.6677L12.0429 11.4704C14.7819 9.04989 18.9223 9.04989 21.6613 11.4704Z" fill="#FBAE17"/>
<path fill-rule="evenodd" clip-rule="evenodd" d="M14.3362 18.4135C14.3999 18.0313 14.2725 17.7765 13.954 17.5854C13.6992 17.458 13.3807 17.458 13.1259 17.6491C12.8711 17.8402 12.7437 18.095 12.8074 18.4135H12.7437C12.2341 18.4135 11.7246 18.4135 11.1513 18.4135C10.9602 18.4135 10.8965 18.3498 10.8965 18.1587C10.8965 17.7765 10.8965 17.3306 10.8965 16.9484C10.8965 16.8847 10.8965 16.821 10.9602 16.821C11.0239 16.7573 11.0239 16.7573 11.0239 16.6936C11.0239 16.184 11.0876 15.7382 11.0876 15.2286C11.0876 15.1012 11.1513 15.0375 11.2787 15.0375C11.7246 15.0375 12.1704 15.0375 12.6163 15.0375C14.6547 15.0375 16.6293 15.0375 18.6676 15.0375C19.8142 15.0375 21.0244 15.0375 22.171 15.0375C22.4258 15.0375 22.6806 15.2286 22.7443 15.4834V15.5471C22.7443 16.3114 22.7443 17.0758 22.7443 17.9039C22.7443 17.9676 22.6806 18.0313 22.6169 18.0313C22.3621 18.095 22.0436 18.1587 21.7888 18.2224C21.4703 18.2861 21.0881 18.3498 20.7696 18.4135C20.6423 18.4135 20.4512 18.4772 20.2601 18.4772C20.2601 18.1587 20.1964 17.8402 19.8779 17.6491C19.7505 17.5854 19.5594 17.5217 19.432 17.5217C18.9861 17.5854 18.6676 17.9676 18.7313 18.4135C17.33 18.4135 15.8649 18.4135 14.3362 18.4135ZM16.4382 15.4834C16.1834 15.4834 15.8649 15.4834 15.6101 15.4834C15.4827 15.4834 15.3553 15.5471 15.3553 15.7382C15.3553 15.9293 15.3553 16.1203 15.3553 16.3751C15.3553 16.5662 15.419 16.6299 15.6101 16.6299C16.1834 16.6299 16.693 16.6299 17.2663 16.6299C17.3937 16.6299 17.5211 16.5662 17.5211 16.3751C17.5211 16.184 17.5211 15.9293 17.5211 15.7382C17.5211 15.6108 17.4574 15.4834 17.2663 15.4834C17.0115 15.4834 16.693 15.4834 16.4382 15.4834ZM13.954 15.4834C13.6992 15.4834 13.3807 15.4834 13.1259 15.4834C12.9985 15.4834 12.9348 15.5471 12.8711 15.6745C12.8711 15.8656 12.8711 16.1203 12.8711 16.3114C12.8711 16.4388 12.9348 16.5025 13.0622 16.5025C13.6355 16.5025 14.2088 16.5025 14.7821 16.5025C14.9094 16.5025 14.9731 16.4388 14.9731 16.3114C14.9731 16.1203 14.9731 15.8656 14.9731 15.6745C14.9731 15.4834 14.9094 15.4197 14.7184 15.4197C14.4636 15.4834 14.2088 15.4834 13.954 15.4834ZM18.9224 15.4834C18.6676 15.4834 18.3491 15.4834 18.0943 15.4834C17.9669 15.4834 17.9032 15.5471 17.9032 15.6745C17.9032 15.8656 17.9032 16.1203 17.9032 16.3114C17.9032 16.4388 17.9669 16.5025 18.0943 16.5025C18.6676 16.5025 19.2409 16.5025 19.8142 16.5025C19.9416 16.5025 20.0053 16.4388 20.0053 16.3114C20.0053 16.1203 20.0053 15.8656 20.0053 15.6745C20.0053 15.4834 19.9416 15.4197 19.7505 15.4197C19.4957 15.4834 19.1772 15.4834 18.9224 15.4834ZM21.4066 16.5662C21.6614 16.5662 21.9799 16.5662 22.2347 16.5662C22.3621 16.5662 22.4258 16.5025 22.4258 16.3751C22.4258 16.2477 22.4258 16.1203 22.4258 15.9293C22.4258 15.7382 22.3621 15.6108 22.171 15.5471C22.1073 15.4834 21.9799 15.4834 21.8525 15.4834C21.4066 15.4834 20.9607 15.4834 20.5149 15.4834C20.3238 15.4834 20.2601 15.5471 20.2601 15.7382C20.2601 15.9293 20.2601 16.1203 20.2601 16.3114C20.2601 16.5025 20.3238 16.5662 20.5149 16.5662C20.8333 16.5662 21.1518 16.5662 21.4066 16.5662ZM11.5972 16.7573C11.5972 17.0758 11.5972 17.458 11.5972 17.7765C11.5972 17.9039 11.6609 17.9676 11.7883 17.9676C11.9157 17.9676 12.043 17.9676 12.1704 17.9676C12.2978 17.9676 12.4252 17.9039 12.4252 17.7128C12.4252 17.0121 12.4252 16.3114 12.4252 15.6745C12.4252 15.5471 12.3615 15.4834 12.2341 15.4197C12.1067 15.4197 11.9793 15.4197 11.9156 15.4197C11.7246 15.4197 11.6609 15.4834 11.6609 15.6745C11.5972 16.1203 11.5972 16.4388 11.5972 16.7573Z" fill="#BBBDBF"/>
<path fill-rule="evenodd" clip-rule="evenodd" d="M12.998 18.2224C12.998 17.9039 13.3165 17.6491 13.635 17.6491C13.9535 17.6491 14.2083 17.9039 14.2083 18.2861C14.2083 18.6046 13.9535 18.8594 13.635 18.8594C13.2528 18.8594 12.998 18.6046 12.998 18.2224ZM13.8898 18.2861C13.8898 18.1587 13.7624 17.9676 13.635 17.9676C13.5076 17.9676 13.3802 18.095 13.3165 18.2224C13.3165 18.3498 13.4439 18.5409 13.5713 18.5409C13.7624 18.5409 13.8898 18.4135 13.8898 18.2861Z" fill="#BBBDBF"/>
<path fill-rule="evenodd" clip-rule="evenodd" d="M19.558 18.8594C19.2396 18.8594 18.9211 18.6046 18.9848 18.2224C18.9848 17.9039 19.2396 17.6491 19.558 17.6491C19.8765 17.6491 20.1313 17.9039 20.1313 18.2861C20.195 18.6046 19.9402 18.8594 19.558 18.8594ZM19.8765 18.2224C19.8765 18.095 19.7491 17.9676 19.6217 17.9676C19.4943 17.9676 19.3669 18.095 19.3669 18.2861C19.3669 18.4135 19.4943 18.5409 19.6854 18.5409C19.7491 18.5409 19.8765 18.4135 19.8765 18.2224Z" fill="#BBBDBF"/>
</svg>
