<svg width="10" height="10" viewBox="0 0 10 10" fill="none" xmlns="http://www.w3.org/2000/svg">
<path d="M9.40471 9.3805C9.24604 9.44613 9.09253 9.53753 8.92753 9.57222C8.5394 9.65425 8.20401 9.52324 7.91878 9.25675C7.04432 8.44042 6.17081 7.62339 5.29659 6.80683C5.26706 6.77918 5.2387 6.75011 5.20706 6.72503C5.1112 6.6491 5.00151 6.65355 4.91057 6.73699C4.88104 6.76417 4.85456 6.79535 4.8269 6.82488C4.01011 7.69886 3.19401 8.57308 2.37651 9.4466C2.11307 9.72808 1.79268 9.86543 1.40198 9.83425C0.852605 9.79066 0.383152 9.26144 0.40448 8.71183C0.416668 8.40175 0.534558 8.14183 0.742918 7.91847C1.55104 7.05293 2.35987 6.18808 3.16823 5.323L3.23432 5.25222C3.36675 5.10808 3.36417 5.00214 3.22143 4.86878C2.33292 4.03793 1.44393 3.20777 0.555418 2.37691C0.332293 2.16832 0.196824 1.9173 0.163777 1.60839C0.105183 1.0616 0.537371 0.501675 1.08229 0.420816C1.47018 0.36316 1.79925 0.478238 2.0812 0.741441C2.94393 1.54652 3.80596 2.35277 4.668 3.15832L4.74768 3.23285C4.89253 3.36644 4.998 3.3641 5.13136 3.2223C5.42432 2.90988 5.71636 2.59628 6.00886 2.28339C6.54698 1.70753 7.08464 1.13168 7.62323 0.556285C7.7512 0.41941 7.89675 0.305503 8.07417 0.239175C8.3894 0.120581 8.69831 0.133472 8.99878 0.290035C9.03042 0.306441 9.06464 0.318394 9.09768 0.331988L9.38104 0.596831C9.44667 0.755503 9.53807 0.909019 9.573 1.07425C9.65479 1.46214 9.52401 1.7973 9.25776 2.08277C8.43886 2.9598 7.61925 3.83613 6.80034 4.71316C6.77268 4.74269 6.74339 4.77082 6.71901 4.80293C6.65292 4.89105 6.65667 4.99722 6.72862 5.08089C6.75464 5.11136 6.78628 5.13738 6.81581 5.16503C7.69261 5.98418 8.56964 6.80308 9.44573 7.62293C9.72721 7.88589 9.86854 8.20558 9.83503 8.59652C9.81932 8.77746 9.74128 8.93566 9.66932 9.09691L9.40448 9.38027V9.38074L9.40471 9.3805Z" fill="black"/>
</svg>
