<svg width="33" height="33" viewBox="0 0 33 33" fill="none" xmlns="http://www.w3.org/2000/svg">
<path d="M2.51175 20.9434C2.49757 20.5876 2.62712 20.2692 2.76247 19.9502C2.91909 19.5815 3.15563 19.2753 3.44052 18.9956C4.11212 18.3356 4.77405 17.6659 5.43276 17.0072C6.54136 18.1158 7.64995 19.2244 8.76692 20.3414C8.76692 20.4026 8.69989 20.4303 8.658 20.4729C8.1746 20.9595 7.69056 21.4448 7.20329 21.9269C7.1079 22.0217 7.02604 22.1235 6.95128 22.2344C6.86169 22.3672 6.87007 22.5173 6.93452 22.6372C6.98544 22.732 7.05183 22.8299 7.1369 22.9124C7.51782 23.2811 7.88907 23.6594 8.26419 24.0346C8.3222 24.0926 8.37698 24.1544 8.4395 24.2079C8.50976 24.2679 8.56841 24.2389 8.60192 24.1441C8.70247 23.8573 8.77853 23.5602 8.93128 23.2933C9.06083 23.0671 9.18845 22.8377 9.3831 22.6578C9.56743 22.487 9.72599 22.2917 9.93997 22.1506C10.2455 21.9482 10.5632 21.8148 10.9635 21.7033C11.104 21.664 11.2484 21.6395 11.3882 21.6105C11.5313 21.5808 11.675 21.5067 11.8297 21.546C12.0328 21.4448 12.2654 21.4693 12.4781 21.3913C12.5922 21.3494 12.734 21.3559 12.8642 21.3307C13.2142 21.2637 13.5693 21.2244 13.9187 21.1567C14.0018 21.1406 14.0811 21.0968 14.1752 21.111C14.2203 21.0233 14.1836 20.935 14.201 20.8525C14.0392 20.8132 13.9283 20.712 13.8104 20.6314C13.5036 20.4213 13.2451 20.1519 13.0002 19.876C12.6676 19.5022 12.453 19.0491 12.2229 18.6089C12.2087 18.3749 12.0386 18.179 12.0579 17.9366C12.0631 17.8728 12.0115 17.8284 11.9657 17.82C11.7775 17.7832 11.6203 17.6821 11.4533 17.5989C11.1033 17.4236 10.667 16.9009 10.6328 16.4491C10.5523 16.3382 10.5787 16.2106 10.5787 16.0881C10.5774 14.9911 10.5787 13.8941 10.5787 12.7972C10.5787 12.6966 10.571 12.5954 10.5813 12.4955C10.5909 12.4001 10.5491 12.3047 10.6135 12.2068C10.6683 12.1236 10.6135 12.0102 10.6361 11.9154C10.707 11.617 10.7733 11.3173 10.8681 11.0247C10.9461 10.783 11.0499 10.5503 11.1485 10.3183C11.2516 10.0772 11.4089 9.85873 11.5494 9.63444C11.8407 9.16908 12.2087 8.76496 12.6199 8.40854C12.8726 8.19004 13.1439 7.9883 13.4436 7.82395C13.6222 7.72662 13.7975 7.61641 13.9825 7.53326C14.3144 7.38373 14.6515 7.2458 15.0124 7.17039C15.189 7.13366 15.365 7.09176 15.5416 7.05438C15.7291 7.01442 15.9116 7.01893 16.0972 7.00991C16.237 7.00282 16.3666 6.94287 16.5135 6.94739C16.6405 6.95125 16.7488 7.01957 16.8745 7.01184C17.0021 7.0041 17.1413 6.97832 17.2554 7.01764C17.4223 7.075 17.5976 7.05567 17.762 7.1169C17.9212 7.17619 18.0933 7.19811 18.2531 7.25612C18.4117 7.31348 18.5696 7.37213 18.7256 7.43981C19.2625 7.67248 19.4481 7.75949 19.9302 8.10625C20.2802 8.35826 20.6115 8.63541 20.8893 8.96283C21.2966 9.44237 21.6447 9.96186 21.8857 10.5503C22.0178 10.8739 22.1384 11.1974 22.2118 11.5403C22.2615 11.7711 22.284 12.0057 22.3291 12.2338C22.3955 12.5683 22.3685 12.8977 22.3698 13.2283C22.3768 14.9286 22.373 16.6289 22.373 18.3292C22.373 18.6108 22.2653 18.8931 22.0907 19.1181C22.0056 19.2276 21.9302 19.3314 21.8077 19.4152C21.5377 19.6015 21.2521 19.6898 20.9292 19.6833C20.6914 19.6788 20.4536 19.6891 20.2164 19.6795C20.1113 19.6749 20.0411 19.7155 19.9882 19.7922C19.7987 20.0668 19.5609 20.2885 19.296 20.4903C19.1503 20.6011 19.0066 20.7146 18.8532 20.8151C18.8255 20.8332 18.7907 20.8403 18.7591 20.8525V21.0871C19.0472 21.1735 19.3482 21.1599 19.6234 21.2727C19.7858 21.2437 19.9308 21.3643 20.0946 21.3275C20.3272 21.4242 20.5831 21.4132 20.8248 21.4809C20.9518 21.5164 21.0994 21.5286 21.238 21.546C21.5383 21.5847 21.8335 21.6517 22.1274 21.72C22.3047 21.7613 22.4658 21.8709 22.6359 21.9456C23.0426 22.1235 23.3623 22.4174 23.6472 22.7442C23.9592 23.1026 24.148 23.5325 24.295 23.983C24.5025 24.6185 24.7171 25.2521 24.9298 25.8863C25.0239 26.1673 25.1013 26.4535 25.2173 26.7274C25.2392 26.7796 25.2205 26.8492 25.2205 26.9291H15.5487C15.7382 27.1186 15.9064 27.2849 16.072 27.4525C16.2254 27.6078 16.2248 27.613 16.0643 27.7754C15.9264 27.9153 15.7536 28.0139 15.6196 28.1615C15.327 28.4825 14.9847 28.7519 14.667 29.0471C14.4568 29.2424 14.2577 29.4525 14.036 29.6349C13.7556 29.8656 13.4804 30.1138 13.1414 30.253C12.8829 30.3587 12.627 30.4908 12.335 30.4902C12.2835 30.4902 12.2319 30.4902 12.1804 30.4902C12.143 30.4902 12.1127 30.4973 12.1159 30.545H11.4578C11.4611 30.4973 11.4308 30.4902 11.3934 30.4902C11.3418 30.4902 11.2903 30.4902 11.2387 30.4902C10.9719 30.496 10.7418 30.3755 10.5039 30.2781C10.1024 30.1144 9.76208 29.856 9.46108 29.5563C7.56809 27.6749 5.68284 25.7857 3.79759 23.896C3.62034 23.7187 3.44825 23.537 3.2839 23.3455C3.09376 23.1238 2.93198 22.8931 2.80952 22.6333C2.65548 22.3072 2.5169 21.974 2.5169 21.6027V20.9447L2.51175 20.9434ZM19.0781 8.65539C19.0736 8.57354 19.0098 8.60899 18.9686 8.60061C18.9686 8.59159 18.9718 8.57547 18.9686 8.57418C18.3034 8.25965 18.4297 8.23903 17.5706 8.04502C17.3753 8.00055 17.1858 7.9419 16.9841 7.94254C16.9396 7.94254 16.8893 7.95028 16.8513 7.93352C16.6244 7.8349 16.3879 7.91418 16.1578 7.8884C16.0778 7.97283 15.9721 7.95221 15.88 7.93932C15.7665 7.92321 15.6782 7.99862 15.5732 7.99797C15.238 7.99604 14.9332 8.12881 14.6386 8.2545C14.2081 8.43819 13.793 8.65604 13.4198 8.95639C13.1143 9.20196 12.8288 9.46879 12.5851 9.76528C12.2841 10.132 12.0469 10.5471 11.8716 11.0002C11.6602 11.5468 11.5094 12.0978 11.51 12.6856C11.51 13.2155 11.51 13.7453 11.5107 14.2751C11.5107 14.3369 11.4939 14.4007 11.5249 14.4607C11.666 14.4091 11.7808 14.2976 11.9419 14.2989C11.9612 14.1133 11.9322 13.9335 11.958 13.7697C12.3705 13.7253 12.7662 13.8 13.162 13.7117C13.3624 13.6673 13.5706 13.6389 13.7711 13.5893C13.8755 13.5635 13.978 13.5171 14.0824 13.4823C14.4949 13.3444 14.8797 13.14 15.2361 12.8996C15.5055 12.7179 15.7594 12.5032 15.9902 12.268C16.15 12.1056 16.3118 11.9444 16.4723 11.7839C16.7978 12.0998 17.1001 12.4369 17.4597 12.7147C17.5564 12.7894 17.6479 12.8732 17.753 12.9344C18.043 13.1039 18.5399 13.3869 19.1123 13.5564C19.3005 13.6118 19.4913 13.666 19.6814 13.6963C19.8806 13.7279 20.0784 13.7814 20.2879 13.7639C20.5238 13.7446 20.7623 13.7594 21.0001 13.7594V14.2905C21.1555 14.3511 21.2921 14.4046 21.4391 14.462C21.4391 13.7884 21.4436 13.1239 21.4352 12.4594C21.4333 12.3125 21.403 12.1604 21.3707 12.0198C21.3456 11.9096 21.3636 11.7897 21.314 11.6905C21.2218 11.5074 21.1916 11.3051 21.1181 11.1149C20.995 10.7959 20.8493 10.4936 20.6611 10.21C20.5896 10.103 20.5219 9.99344 20.4478 9.88838C20.2396 9.59125 19.9637 9.35664 19.7136 9.09819C19.6034 8.9841 19.4694 8.90289 19.3353 8.82233C19.2702 8.78301 19.2373 8.68311 19.1349 8.71211C19.1361 8.67408 19.1181 8.65604 19.0801 8.65733L19.0781 8.65539ZM19.6266 14.6347C19.5486 14.6618 19.5055 14.5767 19.43 14.5773C19.1581 14.5812 18.9209 14.4239 18.654 14.402C18.2957 14.2113 17.9006 14.1049 17.5538 13.8755C17.2264 13.6582 16.8893 13.4617 16.6096 13.1813C16.4858 13.0575 16.4562 13.0569 16.3266 13.1916C16.1352 13.3901 15.9058 13.5416 15.684 13.6969C15.2941 13.9702 14.87 14.1848 14.4149 14.3356C14.239 14.3943 14.063 14.4594 13.8877 14.5168C13.7021 14.5773 13.4984 14.5889 13.3038 14.627C13.1446 14.6579 12.9738 14.6308 12.8249 14.723C12.8249 15.1342 12.8178 15.5454 12.8268 15.9566C12.8365 16.3698 12.8088 16.7816 12.8687 17.1967C12.9125 17.4984 12.9525 17.7929 13.0369 18.0888C13.2019 18.6656 13.5551 19.1161 13.9354 19.5531C14.0147 19.6447 14.1256 19.7117 14.2242 19.7826C14.4659 19.9566 14.7076 20.1242 14.9899 20.2466C15.3237 20.391 15.6737 20.449 16.0121 20.5586C16.4465 20.5412 16.8764 20.5708 17.3128 20.4606C17.8748 20.3188 18.3537 20.0552 18.8403 19.6827H16.4439C16.4439 19.5099 16.4433 19.3559 16.4439 19.2019C16.4446 19.0504 16.4401 18.8983 16.4472 18.7481H19.6079C19.7059 18.5303 19.8103 18.3356 19.8819 18.13C19.9663 17.8889 20.0578 17.6421 20.0604 17.3856C20.0694 16.4942 20.0636 15.6022 20.0636 14.7217C19.9276 14.6044 19.7729 14.6379 19.6247 14.6341L19.6266 14.6347ZM22.5889 25.9901H23.9605C23.9605 25.9385 23.9708 25.8998 23.9592 25.8689C23.8122 25.4905 23.691 25.1038 23.5744 24.7152C23.5016 24.4735 23.4055 24.2389 23.3166 24.0017C23.1754 23.6253 22.9395 23.3165 22.6417 23.0497C22.4336 22.8628 22.2002 22.7281 21.9347 22.6417C21.7529 22.5824 21.5667 22.5554 21.3798 22.5218C21.2418 22.4967 21.0929 22.4503 20.9569 22.4368C20.8081 22.4213 20.6598 22.3846 20.5187 22.3556C20.3904 22.3291 20.2589 22.3362 20.1339 22.3014C19.9676 22.255 19.8032 22.1989 19.6266 22.2054C19.4217 22.1731 19.2251 22.1029 19.0137 22.0906C18.8957 22.0836 18.7623 22.0674 18.6605 22.0217C18.5122 21.9547 18.4317 21.9991 18.3356 22.0952C17.7878 22.6462 17.2374 23.1947 16.6882 23.7445C16.6495 23.7832 16.6122 23.8238 16.5716 23.8605C16.4981 23.9263 16.4433 23.9237 16.3653 23.8534C16.3247 23.8167 16.2873 23.7761 16.2486 23.7374C15.6995 23.1883 15.1491 22.6398 14.6012 22.0881C14.5116 21.9978 14.4298 21.9463 14.2983 22.0152C14.1919 22.0713 14.063 22.0436 13.9451 22.0881C13.8529 22.1229 13.7433 22.108 13.6389 22.1429C13.5358 22.1777 13.4191 22.1673 13.3057 22.197C13.0717 22.2589 12.8236 22.2666 12.5864 22.3188C12.4562 22.3472 12.3305 22.3794 12.1971 22.3691C12.0998 22.4877 11.929 22.3614 11.831 22.4787C11.6847 22.4381 11.5558 22.5257 11.4153 22.5373C11.2974 22.547 11.1788 22.5798 11.0666 22.6198C10.6386 22.7719 10.2629 22.9943 9.97929 23.3675C9.80462 23.5969 9.6654 23.8328 9.58419 24.1106C9.49202 24.4245 9.37601 24.7306 9.26966 25.0407C9.5597 25.3307 9.85103 25.6214 10.1417 25.9127C10.2223 25.9939 10.3157 26.0494 10.4176 26.1054C10.5987 26.2053 10.7605 26.1435 10.8687 26.039C11.122 25.7948 11.4179 25.5975 11.648 25.3288C11.6892 25.2804 11.7298 25.2205 11.7846 25.196C11.9483 25.1232 12.0515 24.9839 12.1642 24.8602C12.2867 24.7261 12.4536 24.6514 12.5729 24.5154C12.6599 24.4161 12.7585 24.3272 12.8526 24.2331C13.4449 24.826 14.0269 25.4074 14.6083 25.9894H22.5883L22.5889 25.9901ZM4.29903 19.4126C4.04702 19.6137 3.84851 19.8644 3.68093 20.1358C3.49337 20.4394 3.44761 20.7926 3.3896 21.138C3.35222 21.363 3.46823 21.5744 3.4489 21.7987C3.58554 22.1822 3.75569 22.545 4.04895 22.8383C6.07149 24.8596 8.09403 26.8808 10.1133 28.9046C10.3196 29.1115 10.5581 29.2572 10.8127 29.399C11.2503 29.642 11.7144 29.6233 12.1778 29.6007C12.3099 29.5943 12.4588 29.5401 12.5916 29.4834C12.7314 29.4235 12.87 29.3577 13.0002 29.2791C13.238 29.136 13.4275 28.9388 13.5977 28.7422C12.8945 28.039 12.2068 27.3513 11.5184 26.663C11.4153 26.7822 11.2864 26.8814 11.1278 26.9491C10.9512 27.0245 10.7598 27.0245 10.5819 27.0858C10.4975 27.1148 10.4427 27.0303 10.3583 27.0265C10.0992 27.0142 9.87616 26.9105 9.69054 26.7235C8.59354 25.624 7.4972 24.5244 6.3944 23.4313C6.24165 23.2798 6.12628 23.1103 6.05022 22.915C5.92841 22.6024 5.9239 22.2885 6.05796 21.9727C6.13595 21.7897 6.24552 21.6292 6.36347 21.4758C5.66673 20.779 4.98224 20.0945 4.29903 19.4113V19.4126ZM14.8668 27.5956C14.6032 27.2759 12.9764 25.662 12.8107 25.5524C12.6006 25.6878 12.4175 25.8515 12.2622 26.0481C12.2906 26.0803 12.306 26.1016 12.3247 26.1203C12.9377 26.7339 13.5506 27.3468 14.1642 27.9597C14.19 27.9855 14.2145 28.0132 14.2422 28.0371C14.3047 28.0906 14.3673 28.0957 14.4291 28.0345C14.5754 27.8876 14.7224 27.7413 14.8674 27.5962L14.8668 27.5956ZM7.49333 20.3137C7.49655 20.3201 7.49204 20.3014 7.48108 20.2898C6.84944 19.6569 6.21651 19.0246 5.58423 18.3917C5.57134 18.3788 5.5578 18.3665 5.54556 18.353C5.48626 18.2866 5.41923 18.2931 5.35929 18.3446C5.29032 18.4039 5.22651 18.4703 5.16528 18.538C5.10018 18.6095 5.01253 18.663 4.97515 18.743C5.67575 19.4436 6.36347 20.1313 7.0196 20.7874C7.16978 20.6372 7.32897 20.478 7.49333 20.3137ZM16.4368 22.6082C16.8725 22.1725 17.2992 21.7458 17.7175 21.3275C17.6995 21.3275 17.6492 21.314 17.6118 21.3295C17.3527 21.439 17.0698 21.4229 16.8004 21.4841C16.627 21.5235 16.4368 21.4893 16.2544 21.4925C16.0766 21.4951 15.9103 21.3978 15.7291 21.4358C15.7156 21.4384 15.6995 21.421 15.6834 21.4158C15.4836 21.3552 15.3108 21.3346 15.1839 21.3546C15.6099 21.7806 16.0359 22.2067 16.4368 22.6076V22.6082ZM20.663 18.7488C20.8139 18.7488 20.9324 18.752 21.051 18.7481C21.2367 18.7417 21.4287 18.5676 21.4352 18.3878C21.4436 18.1442 21.4371 17.9005 21.4371 17.6157C21.2489 17.7381 21.0691 17.7832 20.8931 17.8387C20.9047 18.1558 20.7049 18.4213 20.6637 18.7488H20.663ZM11.9309 16.8177C11.9741 16.2564 11.9606 15.452 11.9051 15.2934C11.3992 15.5345 11.3038 16.4381 11.9309 16.8177ZM21.0072 16.821C21.6505 16.4381 21.5158 15.5164 21.0072 15.2979V16.821Z" fill="#0C0A08"/>
<path d="M30.4883 3.66347C30.4928 3.38955 30.3845 3.15751 30.1982 2.96738C30.0945 2.86103 29.9952 2.75146 29.8624 2.66703C29.7419 2.59033 29.6259 2.53425 29.4886 2.51105C29.4603 2.50654 29.4396 2.49107 29.4454 2.45691H22.4787C22.4039 2.5581 22.2744 2.5581 22.1745 2.61289C21.7239 2.85974 21.4365 3.29093 21.4365 3.784C21.4365 4.99958 21.4436 6.21517 21.4326 7.43011C21.4288 7.84519 21.6079 8.18293 21.878 8.44783C22.1139 8.67857 22.4368 8.81521 22.7874 8.81972C23.1438 8.82423 23.5003 8.81972 23.8567 8.82166C23.9083 8.82166 23.9656 8.79845 24.0243 8.8571C23.9514 8.93896 23.9863 9.05498 23.954 9.14714C23.8638 9.40238 23.8979 9.68017 23.7948 9.93089C23.8283 10.1023 23.7097 10.2583 23.7407 10.4291C23.7549 10.5058 23.6704 10.5458 23.6807 10.6263C23.6898 10.694 23.7181 10.7817 23.6659 10.8358C23.5744 10.9306 23.6969 11.0769 23.575 11.1561V11.5061C23.6775 11.4571 23.7671 11.4275 23.8419 11.3753C24.3066 11.0511 24.7996 10.7727 25.2753 10.4659C25.5634 10.2802 25.8547 10.0998 26.1441 9.91671C26.3472 9.78845 26.5483 9.65826 26.7532 9.53322C27.1026 9.31923 27.459 9.11556 27.8012 8.88998C27.876 8.84099 27.9392 8.81908 28.0204 8.81908C28.4135 8.81908 28.8061 8.81908 29.1992 8.81908C29.3842 8.81908 29.5498 8.74753 29.7194 8.68437C29.9198 8.61025 30.0571 8.46072 30.1957 8.31312C30.38 8.11718 30.4889 7.88644 30.487 7.61187H30.5418V3.66218H30.487L30.4883 3.66347ZM29.6124 7.36308C29.613 7.60736 29.4893 7.74851 29.2895 7.85873C29.2244 7.89482 29.1683 7.8858 29.109 7.8858C28.6797 7.88837 28.2505 7.89031 27.8212 7.8858C27.7007 7.88451 27.6046 7.92382 27.506 7.98763C27.2186 8.17326 26.9305 8.35888 26.6333 8.5271C26.5354 8.58253 26.449 8.6515 26.3536 8.70886C25.878 8.99632 25.4087 9.29539 24.935 9.58607C24.897 9.60992 24.8647 9.68017 24.7996 9.63119C24.9182 9.06078 24.9672 8.47812 25.109 7.91093C25.0646 7.86517 25.0065 7.88902 24.9556 7.88902C24.2434 7.88708 23.5306 7.88709 22.8184 7.88837C22.6244 7.88837 22.4942 7.81103 22.4039 7.62992C22.3627 7.54613 22.3717 7.4733 22.3717 7.39724C22.3685 6.33763 22.3698 5.27802 22.3698 4.21906C22.3698 4.10949 22.3775 3.99927 22.3678 3.89035C22.353 3.71761 22.4084 3.57904 22.5386 3.46689C22.5663 3.44304 22.5902 3.41533 22.616 3.38955C24.7719 3.38955 26.9279 3.38955 29.0832 3.39148C29.1696 3.39148 29.2534 3.38375 29.3455 3.41791C29.5357 3.48751 29.5621 3.648 29.6091 3.80205C29.6195 3.83556 29.6104 3.87488 29.6104 3.91097C29.6104 5.06146 29.6079 6.21259 29.6124 7.36308Z" fill="#0E0D0D"/>
<path d="M2.51176 21.6014H2.45697V20.9434H2.51176V21.6014Z" fill="#0C0A08"/>
<path d="M11.2336 30.5429V30.4882C11.2851 30.4882 11.3367 30.4882 11.3883 30.4882C11.4257 30.4882 11.4559 30.4952 11.4527 30.5429H11.2336Z" fill="#0C0A08"/>
<path d="M12.1114 30.5429C12.1082 30.4952 12.1385 30.4882 12.1758 30.4882C12.2274 30.4882 12.279 30.4882 12.3305 30.4882V30.5429H12.1114Z" fill="#0C0A08"/>
<path d="M5.1015 13.6234C5.4966 13.3863 5.8685 13.1633 6.25973 12.928C6.44986 13.1678 6.56846 13.4604 6.75408 13.7117C6.31387 13.9825 5.89428 14.2448 5.47018 14.5C5.07572 14.7372 4.67676 14.9667 4.27908 15.198C4.21398 15.2361 4.15275 15.3057 4.07348 15.2876C3.99871 15.2702 3.99291 15.1787 3.95746 15.12C3.75766 14.7913 3.56107 14.4607 3.36127 14.1326C3.22398 13.907 3.07703 13.6866 2.94877 13.4546C2.84564 13.2677 2.73607 13.084 2.61748 12.9067C2.46666 12.6805 2.45893 12.6322 2.69418 12.5149C2.85467 12.4349 2.99066 12.315 3.16146 12.2545C3.28715 12.21 3.2807 12.2042 3.35031 12.3189C3.55463 12.6554 3.76281 12.9892 3.96971 13.3237C4.01547 13.3979 4.01353 13.5448 4.11602 13.5287C4.2185 13.5126 4.09668 13.3373 4.21141 13.2825C4.20432 13.1394 4.26555 13.0163 4.3184 12.888C4.36932 12.763 4.37576 12.6231 4.42861 12.4949C4.50273 12.315 4.55559 12.1275 4.62584 11.9457C4.83402 11.4082 5.08346 10.8906 5.35996 10.3853C5.58232 9.97862 5.80727 9.57514 6.09537 9.20841C6.19656 9.0795 6.29518 8.94222 6.37961 8.80429C6.46275 8.66765 6.61937 8.59095 6.66062 8.42917C7.08408 7.93095 7.53912 7.45979 8.02252 7.0228C8.55941 6.53811 9.14529 6.1095 9.75631 5.72085C10.2507 5.40632 10.7792 5.15108 11.3012 4.88489C11.4875 4.87973 11.6196 4.73343 11.8008 4.69669C11.9606 4.66382 12.1121 4.57036 12.2726 4.51622C12.4408 4.4595 12.6045 4.38409 12.7772 4.34542C13.1201 4.26936 13.4508 4.15141 13.8001 4.09405C14.1062 4.04378 14.413 3.98577 14.7186 3.92905C14.8778 3.8994 15.0395 3.91487 15.1897 3.87749C15.5655 3.7821 15.9438 3.84333 16.3202 3.83108C16.7037 3.81884 17.0879 3.83044 17.4713 3.82722C17.5867 3.82657 17.6834 3.90198 17.8059 3.8878C17.9167 3.87427 18.0263 3.8878 18.1423 3.92905C18.2686 3.97352 18.4195 3.96966 18.5561 3.9819C18.81 4.00446 19.0575 4.06569 19.3018 4.11661C19.5287 4.16366 19.7768 4.183 19.9824 4.32028C19.9889 4.32479 20.0005 4.32028 20.0089 4.32222C20.1636 4.35573 20.219 4.44575 20.1752 4.59227C20.121 4.77081 20.0662 4.94934 20.0102 5.12724C19.9721 5.24776 19.9631 5.23423 19.8316 5.21747C19.557 5.18266 19.3115 5.02604 19.0285 5.03507C18.8287 4.92034 18.5935 4.95321 18.3814 4.8778C18.2551 4.83268 18.0985 4.8952 17.9683 4.81593C17.7072 4.84751 17.4585 4.74374 17.1955 4.75663C16.8217 4.77468 16.4453 4.77661 16.0721 4.75663C15.6918 4.73665 15.3122 4.76759 14.9448 4.82753C14.3892 4.91841 13.8169 4.96223 13.2916 5.19813C13.0312 5.21554 12.8037 5.34444 12.5594 5.41534C12.3222 5.48431 12.103 5.59581 11.8729 5.67702C11.4946 5.81044 11.1466 6.0038 10.7985 6.19265C10.3145 6.45497 9.84912 6.75081 9.41535 7.09434C9.22908 7.24194 9.04539 7.39276 8.85912 7.53907C8.42922 7.87745 8.06699 8.28415 7.68865 8.6728C7.4766 8.89065 7.2884 9.13493 7.1118 9.38823C6.9584 9.60866 6.77793 9.81233 6.63678 10.0431C6.46727 10.3196 6.29002 10.5929 6.13855 10.879C6.08635 10.9783 6.01287 11.0659 5.97162 11.1658C5.8266 11.5171 5.66096 11.8594 5.52303 12.2145C5.39734 12.5387 5.28326 12.8655 5.184 13.1981C5.14598 13.3244 5.07443 13.4468 5.1015 13.6228V13.6234Z" fill="#0E0D0D"/>
<path d="M27.6175 12.7153C27.4577 12.9828 27.3049 13.2484 27.1412 13.5075C27.0677 13.6235 27.011 13.7485 26.9253 13.8581C26.8209 13.9909 26.8325 13.9941 26.6842 13.9322C26.4548 13.8362 26.2595 13.6821 26.0313 13.5571C26.1209 13.4011 26.2086 13.2458 26.2988 13.0917C26.4329 12.8636 26.5682 12.636 26.7061 12.4105C26.9111 12.0747 27.1232 11.7434 27.3242 11.405C27.4074 11.2651 27.5086 11.1317 27.5692 10.986C27.6136 10.8791 27.6781 10.8836 27.7239 10.9177C28.0062 11.1298 28.3291 11.2754 28.6198 11.4733C28.8163 11.6074 29.0284 11.7195 29.2359 11.8368C29.555 12.0167 29.8527 12.2326 30.186 12.3879C30.2652 12.4246 30.2981 12.5316 30.2517 12.5916C30.1196 12.7617 30.0216 12.9512 29.9217 13.1407C29.8972 13.1871 29.8463 13.2193 29.8038 13.2619C29.4035 13.0228 29.0026 12.783 28.6024 12.5439C28.485 12.6747 28.5985 12.7965 28.632 12.8951C28.7267 13.1723 28.7751 13.4578 28.8524 13.7369C28.9124 13.9522 28.9208 14.1758 28.9994 14.3872C29.0406 14.4981 28.9762 14.636 29.0619 14.7456C29.0213 14.9802 29.1457 15.2026 29.1154 15.4352C29.0832 15.6885 29.1882 15.9283 29.1741 16.1803C29.1605 16.4265 29.1567 16.6747 29.176 16.9202C29.1889 17.0775 29.0967 17.209 29.1128 17.3643C29.1276 17.5087 29.145 17.664 29.1077 17.8007C29.0716 17.9328 29.0696 18.0604 29.0593 18.1913C29.049 18.3124 29.0265 18.4381 28.9962 18.5496C28.9362 18.7733 28.9549 19.015 28.8415 19.2244C28.7809 19.8522 28.5353 20.4317 28.3349 21.0169C28.1415 21.5815 27.8708 22.1248 27.575 22.6469C27.39 22.9743 27.1966 23.2985 26.9846 23.6111C26.9182 23.7091 26.8234 23.7864 26.7725 23.9044C26.7268 24.0101 26.6572 24.1248 26.5489 24.1957C26.4715 24.2466 26.4722 24.3517 26.3961 24.4084C26.3291 24.458 26.2685 24.4896 26.2086 24.4226C26.0648 24.2608 25.8625 24.1667 25.7245 23.9985C25.6452 23.9012 25.6401 23.8618 25.7116 23.7716C26.0397 23.3591 26.3259 22.9195 26.5991 22.4684C26.8164 22.1107 26.9917 21.7343 27.1773 21.3624C27.2927 21.131 27.3848 20.8822 27.477 20.6373C27.5659 20.4007 27.671 20.1635 27.7335 19.9231C27.8199 19.5925 27.9211 19.2631 27.9707 18.9215C28.0004 18.7172 28.0803 18.5193 28.0725 18.3079C28.0687 18.2093 28.1512 18.1345 28.1325 18.0282C28.1177 17.945 28.1048 17.849 28.1821 17.7762C28.1911 17.7678 28.1828 17.7407 28.1834 17.7227C28.1989 17.1452 28.2865 16.5677 28.2298 15.9915C28.2053 15.7427 28.2131 15.4907 28.1725 15.2477C28.1505 15.1168 28.1422 14.9879 28.126 14.8577C28.1106 14.7372 28.0945 14.6115 28.0648 14.4987C27.9881 14.2093 27.9494 13.9122 27.8689 13.6228C27.7844 13.3199 27.6884 13.0195 27.6162 12.7153H27.6175Z" fill="#0E0D0D"/>
<path d="M20.9982 13.7575C20.761 13.7575 20.5219 13.7426 20.286 13.762C20.0765 13.7794 19.878 13.7259 19.6795 13.6943C19.4893 13.664 19.2985 13.6105 19.1103 13.5544C18.5374 13.3849 18.0411 13.1013 17.751 12.9325C17.6466 12.8712 17.5544 12.7874 17.4578 12.7127C17.0988 12.4355 16.7958 12.0984 16.4703 11.782C16.3105 11.9425 16.1487 12.1036 15.9882 12.266C15.7568 12.5013 15.5035 12.7153 15.2341 12.8977C14.8777 13.1387 14.4923 13.3424 14.0804 13.4803C13.976 13.5151 13.8735 13.5615 13.7691 13.5873C13.5687 13.6369 13.3605 13.6653 13.16 13.7098C12.7643 13.7981 12.3692 13.7233 11.956 13.7678C11.9303 13.9315 11.9586 14.112 11.9399 14.2969C11.7788 14.2957 11.6634 14.4078 11.5229 14.4587C11.492 14.3988 11.5087 14.335 11.5087 14.2731C11.5075 13.7433 11.5081 13.2135 11.5081 12.6837C11.5081 12.0959 11.6583 11.5448 11.8697 10.9982C12.045 10.5451 12.2822 10.1294 12.5832 9.76331C12.8268 9.46747 13.1123 9.19999 13.4178 8.95442C13.791 8.65471 14.2061 8.43622 14.6367 8.25252C14.9312 8.12684 15.2361 7.99407 15.5712 7.996C15.6763 7.996 15.7639 7.92188 15.878 7.93735C15.9702 7.95024 16.0765 7.97087 16.1558 7.88643C16.3859 7.91221 16.6225 7.83358 16.8493 7.93155C16.888 7.94831 16.9376 7.94057 16.9821 7.94057C17.1845 7.93993 17.3733 7.99922 17.5686 8.04305C18.4278 8.2377 18.3021 8.25833 18.9666 8.57221C18.9705 8.57415 18.9666 8.58962 18.9666 8.59864C18.9711 8.68049 19.0349 8.64504 19.0762 8.65342C19.0749 8.69145 19.0929 8.7095 19.131 8.70821C19.1226 8.76622 19.1432 8.80747 19.187 8.84936C19.3385 8.99374 19.4842 9.14456 19.6331 9.29215C19.9192 9.57575 20.1332 9.91219 20.3259 10.2622C20.4316 10.4536 20.5193 10.6553 20.6115 10.8539C20.7036 11.0537 20.7475 11.2702 20.8209 11.4771C20.8802 11.6428 20.9189 11.8297 20.9292 12.0024C20.9408 12.1887 21.002 12.3653 20.9988 12.5528C20.9911 12.9531 20.9962 13.354 20.9962 13.7549L20.9982 13.7575Z" fill="#D3A06D"/>
<path d="M22.5889 25.9901H14.609C14.027 25.408 13.4456 24.826 12.8533 24.2337C12.7592 24.3278 12.6606 24.4168 12.5735 24.516C12.4543 24.652 12.2874 24.7268 12.1649 24.8608C12.0521 24.9846 11.9484 25.1238 11.7853 25.1966C11.7305 25.2211 11.6899 25.2811 11.6486 25.3294C11.4185 25.5982 11.1227 25.7954 10.8694 26.0397C10.7611 26.1441 10.5993 26.206 10.4182 26.1061C10.3164 26.05 10.2236 25.9939 10.1424 25.9134C9.85169 25.622 9.56101 25.3313 9.27032 25.0413C9.37603 24.7313 9.49269 24.4245 9.58486 24.1112C9.66671 23.8335 9.80593 23.5976 9.97995 23.3681C10.2635 22.9949 10.6393 22.7726 11.0673 22.6204C11.1794 22.5805 11.298 22.5476 11.416 22.5379C11.5565 22.5263 11.6854 22.438 11.8317 22.4793C11.9297 22.362 12.1005 22.4883 12.1978 22.3697C12.3312 22.38 12.4575 22.3478 12.5871 22.3194C12.8243 22.2672 13.0724 22.2595 13.3064 22.1976C13.4198 22.1673 13.5365 22.1776 13.6396 22.1435C13.744 22.1087 13.8536 22.1235 13.9458 22.0887C14.0637 22.0442 14.1926 22.0713 14.299 22.0159C14.4298 21.9469 14.5117 21.9985 14.6019 22.0887C15.1491 22.6404 15.6995 23.1883 16.2493 23.7381C16.288 23.7767 16.3254 23.8173 16.366 23.8541C16.4433 23.9243 16.4981 23.9263 16.5722 23.8612C16.6135 23.8251 16.6502 23.7838 16.6889 23.7452C17.238 23.196 17.7884 22.6469 18.3363 22.0958C18.4323 21.9991 18.5129 21.9553 18.6611 22.0223C18.763 22.0681 18.8964 22.0842 19.0143 22.0913C19.2251 22.1035 19.4217 22.1738 19.6273 22.206C19.9025 22.4335 20.2338 22.5695 20.5393 22.7448C20.7797 22.8828 21.0279 23.0155 21.2741 23.1457C21.5332 23.283 21.782 23.4429 21.9953 23.6601C22.2911 23.9611 22.3923 24.3368 22.4742 24.7229C22.5064 24.875 22.4561 25.0426 22.5335 25.1921C22.4993 25.4622 22.6179 25.7213 22.5883 25.9907L22.5889 25.9901Z" fill="#99D3BB"/>
<path d="M19.2425 18.7487H16.4485C16.4414 18.8982 16.4459 19.0503 16.4452 19.2025C16.4446 19.3565 16.4452 19.5105 16.4452 19.6833H18.8416C18.3543 20.0558 17.8761 20.3201 17.3141 20.4612C16.8777 20.5714 16.4472 20.5411 16.0134 20.5592C15.675 20.4496 15.3244 20.3916 14.9912 20.2472C14.7089 20.1248 14.4672 19.9572 14.2255 19.7832C14.1269 19.7123 14.0166 19.6446 13.9367 19.5537C13.5558 19.1167 13.2032 18.6662 13.0382 18.0893C12.9538 17.7935 12.9139 17.499 12.87 17.1973C12.8101 16.7822 12.8372 16.3704 12.8281 15.9572C12.8191 15.546 12.8262 15.1348 12.8262 14.7236C12.9744 14.6314 13.1452 14.6585 13.3051 14.6276C13.5004 14.5895 13.7034 14.5779 13.889 14.5174C14.065 14.46 14.2403 14.3949 14.4163 14.3362C14.8713 14.1854 15.296 13.9701 15.6853 13.6975C15.9071 13.5422 16.1372 13.3907 16.3279 13.1922C16.4575 13.0575 16.4871 13.0588 16.6109 13.1819C16.8906 13.4616 17.2283 13.6588 17.5551 13.876C17.9012 14.1061 18.2963 14.2118 18.6553 14.4026C18.9228 14.4245 19.16 14.5818 19.4314 14.5779C19.5068 14.5767 19.5499 14.6617 19.6279 14.6353C19.6279 15.4023 19.6318 16.1693 19.6254 16.9363C19.6234 17.1664 19.6466 17.3945 19.5802 17.6279C19.5081 17.8812 19.4984 18.1519 19.3598 18.3865C19.3785 18.5257 19.2335 18.6127 19.2438 18.7493L19.2425 18.7487Z" fill="#F8DFA5"/>
<path d="M4.29905 19.4126C4.98225 20.0958 5.66674 20.7803 6.36348 21.477C6.24618 21.6298 6.13596 21.7909 6.05797 21.974C5.92391 22.2898 5.92778 22.6037 6.05024 22.9163C6.12629 23.1116 6.24167 23.2811 6.39442 23.4325C7.49721 24.5263 8.59356 25.6259 9.69055 26.7248C9.87682 26.9117 10.0998 27.0155 10.3583 27.0277C10.4421 27.0316 10.4975 27.116 10.5819 27.087C10.7598 27.0258 10.9519 27.0258 11.1279 26.9504C11.2864 26.8827 11.4153 26.7835 11.5184 26.6642C12.2068 27.3526 12.8945 28.0403 13.5977 28.7435C13.4275 28.9401 13.2381 29.1379 13.0002 29.2804C12.87 29.3584 12.7315 29.4247 12.5916 29.4847C12.4588 29.5414 12.3099 29.5955 12.1778 29.602C11.7137 29.6246 11.2497 29.6432 10.8127 29.4003C10.5581 29.2591 10.3196 29.1128 10.1134 28.9059C8.0934 26.8821 6.07151 24.8608 4.04897 22.8396C3.75571 22.5463 3.58555 22.1834 3.44891 21.7999C3.46825 21.5763 3.35223 21.3642 3.38961 21.1393C3.44762 20.7938 3.49338 20.4406 3.68094 20.1371C3.84788 19.8657 4.04704 19.615 4.29905 19.4139V19.4126Z" fill="#EF5B69"/>
<path d="M22.5889 25.9901C22.6186 25.7206 22.5 25.4609 22.5341 25.1915C22.4561 25.042 22.5071 24.875 22.4748 24.7223C22.393 24.3362 22.2918 23.9604 21.9959 23.6594C21.7826 23.4422 21.5332 23.2824 21.2747 23.1451C21.0285 23.0143 20.7804 22.8815 20.5399 22.7442C20.2344 22.5689 19.9031 22.4329 19.6279 22.2054C19.8045 22.1996 19.9689 22.255 20.1352 22.3014C20.2602 22.3369 20.3917 22.3291 20.52 22.3556C20.6611 22.3846 20.8094 22.4213 20.9582 22.4368C21.0949 22.4509 21.2431 22.4973 21.3811 22.5218C21.568 22.5554 21.7536 22.5824 21.936 22.6417C22.2015 22.7287 22.4349 22.8634 22.643 23.0497C22.9408 23.3165 23.1767 23.6253 23.3179 24.0017C23.4068 24.2382 23.5029 24.4735 23.5757 24.7152C23.6923 25.1038 23.8135 25.4906 23.9605 25.8689C23.9721 25.8992 23.9618 25.9385 23.9618 25.9901H22.5902H22.5889Z" fill="#52BC95"/>
<path d="M14.8668 27.5956C14.7218 27.7406 14.5748 27.8869 14.4285 28.0338C14.3673 28.0957 14.3041 28.0906 14.2416 28.0364C14.2139 28.0126 14.1894 27.9849 14.1636 27.9591C13.5507 27.3461 12.9371 26.7325 12.3241 26.1196C12.3054 26.1009 12.29 26.0803 12.2616 26.0474C12.4169 25.8508 12.6 25.6871 12.8101 25.5518C12.9757 25.6613 14.6019 27.2752 14.8661 27.5949L14.8668 27.5956Z" fill="#EF5B69"/>
<path d="M20.9982 13.7575C20.9982 13.3566 20.993 12.9557 21.0008 12.5554C21.004 12.3678 20.9427 12.1912 20.9311 12.005C20.9208 11.8322 20.8822 11.646 20.8229 11.4797C20.7494 11.2728 20.7062 11.0562 20.6134 10.8564C20.5212 10.6579 20.4329 10.4562 20.3279 10.2647C20.1351 9.91476 19.9218 9.57831 19.635 9.29472C19.4861 9.14712 19.3411 8.9963 19.189 8.85192C19.1451 8.81003 19.1239 8.76878 19.1329 8.71077C19.2354 8.68177 19.2683 8.78167 19.3333 8.82099C19.4674 8.90155 19.6015 8.98341 19.7117 9.09685C19.9618 9.3553 20.2376 9.58991 20.4458 9.88704C20.5199 9.9921 20.5876 10.1017 20.6592 10.2087C20.848 10.4923 20.993 10.7945 21.1161 11.1136C21.1896 11.3031 21.2192 11.5061 21.3121 11.6892C21.3617 11.7878 21.3436 11.9083 21.3688 12.0185C21.401 12.1584 21.4313 12.3111 21.4332 12.4581C21.4416 13.1226 21.4371 13.7871 21.4371 14.4606C21.2901 14.4033 21.1535 14.3498 20.9982 14.2892V13.7581V13.7575Z" fill="#B17947"/>
<path d="M7.49334 20.3137C7.32899 20.478 7.16979 20.6372 7.01961 20.7874C6.36348 20.1312 5.67576 19.4435 4.97516 18.7429C5.01254 18.663 5.1002 18.6095 5.1653 18.538C5.22653 18.4703 5.29033 18.4046 5.3593 18.3446C5.41924 18.293 5.48627 18.2866 5.54557 18.353C5.55781 18.3665 5.57135 18.3788 5.58424 18.3917C6.21653 19.0239 6.84946 19.6569 7.4811 20.2898C7.4927 20.3014 7.49656 20.3195 7.49334 20.3137Z" fill="#E95966"/>
<path d="M19.2425 18.7487C19.2322 18.6121 19.3772 18.5251 19.3585 18.3859C19.4971 18.1512 19.5067 17.8799 19.5789 17.6272C19.6453 17.3946 19.6221 17.1658 19.624 16.9357C19.6305 16.1687 19.6266 15.4017 19.6266 14.6347C19.7749 14.6385 19.9295 14.605 20.0655 14.7223C20.0655 15.6028 20.0713 16.4942 20.0623 17.3862C20.0597 17.6434 19.9682 17.8896 19.8838 18.1306C19.8116 18.3362 19.7078 18.5309 19.6099 18.7487H19.2431H19.2425Z" fill="#E9BD8B"/>
<path d="M16.4369 22.6082C16.036 22.2073 15.6099 21.7813 15.1839 21.3552C15.3109 21.3352 15.4836 21.3552 15.6834 21.4165C15.6995 21.4216 15.7156 21.439 15.7292 21.4364C15.9109 21.3984 16.0772 21.4957 16.2545 21.4932C16.4369 21.4906 16.627 21.5247 16.8004 21.4848C17.0692 21.4235 17.3521 21.4397 17.6118 21.3301C17.6492 21.314 17.6995 21.3282 17.7176 21.3282C17.2993 21.7465 16.8726 22.1731 16.4369 22.6088V22.6082Z" fill="#F6DCA3"/>
<path d="M11.9309 16.8177C11.3044 16.438 11.3992 15.5344 11.9051 15.2933C11.9599 15.4519 11.9741 16.2563 11.9309 16.8177Z" fill="#EDD59E"/>
<path d="M21.0072 16.8209V15.2979C21.5157 15.5157 21.6504 16.438 21.0072 16.8209Z" fill="#F6DCA3"/>
<path d="M19.0781 8.65534C19.0362 8.64696 18.9731 8.68241 18.9686 8.60055C19.0105 8.60893 19.0736 8.57348 19.0781 8.65534Z" fill="#B17947"/>
<path d="M19.1329 8.71012C19.0949 8.71141 19.0768 8.69337 19.0781 8.65534C19.1162 8.65405 19.1342 8.6721 19.1329 8.71012Z" fill="#B17947"/>
<path d="M24.7996 9.63117C24.9182 9.06076 24.9672 8.4781 25.109 7.91091C25.0645 7.86515 25.0065 7.889 24.9556 7.889C24.2434 7.88707 23.5306 7.88707 22.8183 7.88835C22.6243 7.88835 22.4941 7.81101 22.4039 7.6299C22.3627 7.54611 22.3717 7.47328 22.3717 7.39722C22.3685 6.33761 22.3698 5.278 22.3698 4.21904C22.3698 4.10947 22.3775 3.99925 22.3678 3.89033C22.353 3.71759 22.4084 3.57902 22.5386 3.46687C22.5663 3.44302 22.5902 3.41531 22.616 3.38953C24.7719 3.38953 26.9279 3.38953 29.0832 3.39146C29.1696 3.39146 29.2533 3.38373 29.3455 3.41789C29.5356 3.4875 29.5621 3.64798 29.6091 3.80203C29.6194 3.83554 29.6104 3.87486 29.6104 3.91095C29.6104 5.06144 29.6078 6.21257 29.6123 7.36306C29.613 7.60734 29.4892 7.74849 29.2894 7.85871C29.2243 7.8948 29.1683 7.88578 29.109 7.88578C28.6797 7.88835 28.2505 7.89029 27.8212 7.88578C27.7007 7.88449 27.6046 7.9238 27.506 7.98761C27.2186 8.17324 26.9305 8.35886 26.6333 8.52709C26.5354 8.58252 26.449 8.65148 26.3536 8.70884C25.8779 8.9963 25.4087 9.29537 24.935 9.58605C24.897 9.6099 24.8647 9.68015 24.7996 9.63117ZM23.256 5.19292C23.2901 5.1955 23.3166 5.19937 23.3424 5.19937C25.0594 5.19937 26.7764 5.19937 28.4928 5.19937C28.5295 5.19937 28.5663 5.20324 28.6024 5.19873C28.6804 5.18777 28.7332 5.15039 28.7326 5.06273C28.7326 4.80041 28.7326 4.53808 28.7326 4.28027H23.2553V5.19357L23.256 5.19292ZM23.2521 7.00084H26.8679C26.8679 6.83777 26.8686 6.68373 26.8679 6.52968C26.8673 6.37822 26.8724 6.22675 26.8647 6.08625H23.2528V7.00084H23.2521ZM27.8051 7.00986C28.0706 7.00986 28.3162 7.01179 28.5611 7.00921C28.6926 7.00792 28.73 6.96925 28.7319 6.83261C28.7345 6.63281 28.7351 6.43236 28.7319 6.23255C28.73 6.1204 28.6849 6.07916 28.5669 6.07787C28.3143 6.07529 28.0623 6.07722 27.8051 6.07722V7.00986Z" fill="#EAEBEB"/>
<path d="M23.256 5.19296V4.27966H28.7332C28.7332 4.53748 28.7332 4.7998 28.7332 5.06212C28.7332 5.14978 28.6804 5.18781 28.603 5.19812C28.5669 5.20328 28.5302 5.19876 28.4934 5.19876C26.7764 5.19876 25.0594 5.19876 23.343 5.19876C23.3172 5.19876 23.2908 5.1949 23.2566 5.19232L23.256 5.19296Z" fill="#111212"/>
<path d="M23.2521 7.00089V6.0863H26.8641C26.8718 6.22681 26.8666 6.37828 26.8673 6.52974C26.8679 6.68378 26.8673 6.83783 26.8673 7.00089H23.2515H23.2521Z" fill="#111212"/>
<path d="M27.8051 7.00987V6.07723C28.0623 6.07723 28.3143 6.0753 28.567 6.07788C28.6849 6.07917 28.73 6.12042 28.732 6.23257C28.7352 6.43237 28.7352 6.63282 28.732 6.83262C28.73 6.96862 28.6933 7.00729 28.5612 7.00923C28.3156 7.0118 28.0707 7.00987 27.8051 7.00987Z" fill="#111212"/>
</svg>
