<?xml version="1.0" standalone="no"?>
<!DOCTYPE svg PUBLIC "-//W3C//DTD SVG 20010904//EN"
 "http://www.w3.org/TR/2001/REC-SVG-20010904/DTD/svg10.dtd">
<svg version="1.0" xmlns="http://www.w3.org/2000/svg"
 width="200.000000pt" height="200.000000pt" viewBox="0 0 200.000000 200.000000"
 preserveAspectRatio="xMidYMid meet">

<g transform="translate(0.000000,200.000000) scale(0.100000,-0.100000)"
fill="#000000" stroke="none">
<path d="M853 1869 c-135 -17 -271 -115 -332 -241 -110 -227 -21 -483 208
-596 73 -36 78 -37 185 -37 128 1 186 18 271 83 183 139 229 399 106 590 -98
151 -256 223 -438 201z m203 -144 c70 -34 147 -120 169 -186 25 -74 17 -187
-18 -255 -34 -67 -114 -138 -180 -160 -163 -55 -331 17 -409 175 -31 64 -32
195 -2 262 78 169 278 243 440 164z"/>
<path d="M1437 1242 c-20 -21 -37 -42 -37 -47 0 -5 27 -37 60 -70 l60 -61 -60
-59 c-33 -33 -60 -64 -60 -71 0 -6 18 -25 41 -44 l41 -33 62 62 62 61 59 -60
c33 -33 64 -60 70 -60 6 0 28 17 48 38 l37 38 -65 64 -65 64 65 66 65 66 -43
42 -43 42 -64 -65 -64 -65 -66 65 -66 65 -37 -38z"/>
<path d="M345 1048 c-72 -66 -129 -151 -157 -237 -18 -57 -22 -97 -26 -284 -5
-267 -2 -296 44 -347 28 -30 47 -41 88 -50 37 -7 245 -10 657 -8 l604 3 38 24
c69 43 77 72 77 301 l0 200 -60 0 -60 0 0 -193 c0 -137 -3 -196 -12 -205 -9
-9 -160 -12 -619 -12 -539 0 -609 2 -623 16 -14 13 -16 48 -16 228 0 291 20
360 136 472 l53 51 -26 39 c-14 21 -29 43 -33 47 -4 5 -33 -16 -65 -45z"/>
</g>
</svg>
