<?xml version="1.0" encoding="UTF-8"?>
<svg width="24px" height="24px" viewBox="0 0 24 24" version="1.1" xmlns="http://www.w3.org/2000/svg" xmlns:xlink="http://www.w3.org/1999/xlink">
    <title>mdpi/Icon/24x/Deals</title>
    <defs>
        <filter id="filter-1">
            <feColorMatrix in="SourceGraphic" type="matrix" values="0 0 0 0 0.854902 0 0 0 0 0.192157 0 0 0 0 0.211765 0 0 0 1.000000 0"></feColorMatrix>
        </filter>
    </defs>
    <g id="Icon/24x/Deals" stroke="none" stroke-width="1" fill="none" fill-rule="evenodd">
        <g filter="url(#filter-1)" id="Red-Deal-icon-Copy-17">
            <g transform="translate(6.000000, 6.000000)">
                <path d="M5.35247316,0 C5.53275837,0 5.74108794,0.0236003013 5.91936998,0.200351494 L5.91936998,0.200351494 L11.798671,6.03916646 C11.9283762,6.16721065 11.9999895,6.33843836 11.9999895,6.52121516 C12.0009911,6.70348983 11.9303794,6.87521968 11.8021766,7.00426814 L11.8021766,7.00426814 L7.06518265,11.7996485 C6.93898301,11.9271906 6.76370572,12 6.58492288,12 C6.48776919,12 6.39261866,11.9794125 6.30297685,11.9377354 C6.24288178,11.9111223 6.14823204,11.868943 0.272436566,6.01355762 L0.272436566,6.01355762 L0.223859718,5.96585488 C0.096658486,5.83730856 0.0240436097,5.66256591 0.0230420252,5.48481044 L0.0230420252,5.48481044 L5.58166049e-06,0.711021843 C-0.00149679509,0.338940497 0.300480932,0.0311323123 0.673571159,0.0256088376 L0.673571159,0.0256088376 Z M3,2 C2.44892325,2 2,2.44892325 2,3 C2,3.55107675 2.44892325,4 3,4 C3.55162893,4 4,3.55107675 4,3 C4,2.44892325 3.55162893,2 3,2 Z" id="Combined-Shape" fill="#D84E55"></path>
            </g>
        </g>
    </g>
</svg>