<?xml version="1.0" encoding="UTF-8"?>
<svg width="24px" height="24px" viewBox="0 0 24 24" version="1.1" xmlns="http://www.w3.org/2000/svg" xmlns:xlink="http://www.w3.org/1999/xlink">
    <!-- Generator: Sketch 63.1 (92452) - https://sketch.com -->
    <title>mdpi/Icon/24x/Destination</title>
    <desc>Created with Sketch.</desc>
    <g id="Icon/24x/Destination" stroke="none" stroke-width="1" fill="none" fill-rule="evenodd">
        <g id="Group-42" transform="translate(1.000000, 2.000000)" fill="#4A4A4A" fill-rule="nonzero">
            <path d="M18.2519651,1 L9.90663313,1 C9.16635078,1 8.52000694,1.40219863 8.17419752,2 L19.9844007,2 C19.6385913,1.40219863 18.9922475,1 18.2519651,1 Z M9.90663313,0 L18.2519651,0 C19.9088194,0 21.2519651,1.34314575 21.2519651,3 L6.90663313,3 C6.90663313,1.34314575 8.24977888,0 9.90663313,0 Z M10.5653515,17 L10.5653515,18.5 C10.5653515,19.3284271 9.89377861,20 9.06535148,20 L8.06535148,20 C7.23692436,20 6.56535148,19.3284271 6.56535148,18.5 L6.56535148,17 L10.5653515,17 Z M21.5653515,17 L21.5653515,18.5 C21.5653515,19.3284271 20.8937786,20 20.0653515,20 L19.0653515,20 C18.2369244,20 17.5653515,19.3284271 17.5653515,18.5 L17.5653515,17 L21.5653515,17 Z M9.56535148,18 L7.56535148,18 L7.56535148,18.5 C7.56535148,18.7761424 7.78920911,19 8.06535148,19 L9.06535148,19 C9.34149386,19 9.56535148,18.7761424 9.56535148,18.5 L9.56535148,18 Z M20.5653515,18 L18.5653515,18 L18.5653515,18.5 C18.5653515,18.7761424 18.7892091,19 19.0653515,19 L20.0653515,19 C20.3414939,19 20.5653515,18.7761424 20.5653515,18.5 L20.5653515,18 Z M5.6472051,8.63653165 L5.59804011,9.99784672 L5.07675204,9.47952125 L5.30556248,13.6448472 C5.31507582,13.8180306 5.41362282,13.9736763 5.5655418,14.0564568 L5.56549349,15.1842792 L5.11134753,14.9475015 C4.64179439,14.7026909 4.33611283,14.2284394 4.30706785,13.6996967 L4.28026035,13.211686 L3.18025912,14.2742807 C3.07670557,14.3743128 3.02129958,14.5141295 3.02822363,14.6579412 L3.17996663,17.8096278 C3.19324656,18.0854507 2.98041346,18.3198148 2.7045906,18.3330947 C2.42876773,18.3463747 2.1944036,18.1335416 2.18112367,17.8577187 L2.02938067,14.7060321 C2.00860852,14.2745968 2.17482648,13.855147 2.48548713,13.5550507 L4.20773261,11.8913717 L4.07093166,9.40101088 L3.30496963,10.1387776 C3.02650252,10.4069943 2.65522339,10.5573278 2.26859317,10.5584138 L0.501404428,10.5633774 C0.225263143,10.564153 0.0007776359,10.3409251 -4.26325641e-14,10.0647838 C-0.000773605699,9.7886425 0.222454371,9.56415699 0.498595657,9.56338137 L2.2657844,9.55841772 C2.39466114,9.55805573 2.51842085,9.50794455 2.61124322,9.418539 L4.03089529,8.05114475 C4.05439631,7.97930314 4.09460417,7.91172065 4.15153615,7.85446326 C4.34624106,7.65864547 4.66282227,7.65774331 4.85864006,7.85244822 L4.86034954,7.85414799 L5.6472051,8.63653165 Z M4.33613027,7.0652329 C3.66628086,7.23224512 2.92447113,6.57033421 2.75745891,5.90048479 C2.5904467,5.23063537 2.99807679,4.55222498 3.6679262,4.38521276 C4.33777562,4.21820055 5.01618601,4.62583064 5.18319823,5.29568005 C5.35021045,5.96552947 5.00597969,6.89822068 4.33613027,7.0652329 Z M7.56535148,12 L7.56535148,17 L20.5653515,17 L20.5653515,12 L7.56535148,12 Z M21.5653515,11 L21.5653515,17 C21.5653515,17.5522847 21.1176362,18 20.5653515,18 L7.56535148,18 C7.01306673,18 6.56535148,17.5522847 6.56535148,17 L6.56535148,11 L21.5653515,11 Z M18.0848845,15.9928154 C17.2564574,15.9928154 16.5848845,15.3212425 16.5848845,14.4928154 C16.5848845,13.6643883 17.2564574,12.9928154 18.0848845,12.9928154 C18.9133116,12.9928154 19.5848845,13.6643883 19.5848845,14.4928154 C19.5848845,15.3212425 18.9133116,15.9928154 18.0848845,15.9928154 Z M18.0848845,14.9928154 C18.3610269,14.9928154 18.5848845,14.7689578 18.5848845,14.4928154 C18.5848845,14.216673 18.3610269,13.9928154 18.0848845,13.9928154 C17.8087421,13.9928154 17.5848845,14.216673 17.5848845,14.4928154 C17.5848845,14.7689578 17.8087421,14.9928154 18.0848845,14.9928154 Z M10.0645214,15.9928154 C9.23609432,15.9928154 8.56452145,15.3212425 8.56452145,14.4928154 C8.56452145,13.6643883 9.23609432,12.9928154 10.0645214,12.9928154 C10.8929486,12.9928154 11.5645214,13.6643883 11.5645214,14.4928154 C11.5645214,15.3212425 10.8929486,15.9928154 10.0645214,15.9928154 Z M10.0645214,14.9928154 C10.3406638,14.9928154 10.5645214,14.7689578 10.5645214,14.4928154 C10.5645214,14.216673 10.3406638,13.9928154 10.0645214,13.9928154 C9.78837907,13.9928154 9.56452145,14.216673 9.56452145,14.4928154 C9.56452145,14.7689578 9.78837907,14.9928154 10.0645214,14.9928154 Z M7.87848887,3 L7.61864594,10.4826474 C7.61834474,10.7761424 7.84220236,11 8.11834474,11 L20.0123582,11 C20.3056868,10.9901152 20.5216406,10.7586235 20.512057,10.4826474 L20.2522141,3 L7.87848887,3 Z M15.2579518,14.5 C15.5340942,14.5 15.7579518,14.7238576 15.7579518,15 C15.7579518,15.2761424 15.5340942,15.5 15.2579518,15.5 L13.2579518,15.5 C12.9818094,15.5 12.7579518,15.2761424 12.7579518,15 C12.7579518,14.7238576 12.9818094,14.5 13.2579518,14.5 L15.2579518,14.5 Z M20.2522141,2 C20.7909911,2 21.2329134,2.42684237 21.2516117,2.96529485 L21.4111195,7.55255665 C21.5139408,9.3776492 21.5653515,10.5280804 21.5653515,11.0038502 L21.5653515,12.0006304 L21.5653515,12.0006304 L20.5653515,12.0006304 L20.5660396,11.8945118 C20.4103054,11.9563507 20.2414785,11.9929477 20.0644159,11.9990964 C20.0470699,11.9996988 20.0297147,12 20.0123582,12 L8.11834474,12 C7.92303086,12 7.73643572,11.9626706 7.56530471,11.8947572 L7.5651533,12.0117954 L6.5651533,12.0117954 L6.5651533,12.0117954 L6.56566783,10.9258239 C6.57129372,10.4012933 6.62305548,9.27132251 6.7209531,7.53591156 L6.87909127,2.96529485 C6.89778961,2.42684237 7.33971183,2 7.87848887,2 L20.2522141,2 Z" id="Rectangle-14"></path>
        </g>
    </g>
</svg>