<svg width="319" height="16" viewBox="0 0 319 16" fill="none" xmlns="http://www.w3.org/2000/svg">
<path fill-rule="evenodd" clip-rule="evenodd" d="M0 0.00939941C1.05058 0.00939941 2.09086 0.216325 3.06147 0.618363C4.03207 1.0204 4.91399 1.60968 5.65685 2.35255C6.39972 3.09541 6.989 3.97733 7.39104 4.94793C7.79307 5.91854 8 6.95882 8 8.0094C8 9.05997 7.79307 10.1003 7.39104 11.0709C6.989 12.0415 6.39972 12.9234 5.65685 13.6663C4.91399 14.4091 4.03207 14.9984 3.06147 15.4004C2.09086 15.8025 1.05058 16.0094 0 16.0094H318.5C317.449 16.0094 316.409 15.8025 315.439 15.4004C314.468 14.9984 313.586 14.4091 312.843 13.6663C312.1 12.9234 311.511 12.0415 311.109 11.0709C310.707 10.1003 310.5 9.05997 310.5 8.0094C310.5 6.95882 310.707 5.91854 311.109 4.94793C311.511 3.97733 312.1 3.09541 312.843 2.35254C313.586 1.60968 314.468 1.0204 315.439 0.618362C316.409 0.216325 317.449 0.00939941 318.5 0.00939941H0Z" fill="white"/>
<path fill-rule="evenodd" clip-rule="evenodd" d="M1.79855e-06 0.890767C1.89005 0.890768 3.70269 1.64159 5.03916 2.97805C6.37563 4.31452 7.12645 6.12716 7.12645 8.01721C7.12644 9.90726 6.37562 11.7199 5.03916 13.0564C3.70269 14.3928 1.89005 15.1437 7.56857e-08 15.1437L0 16.0094C0.336111 16.0094 0.670038 15.9882 1 15.9466C2.75092 15.7258 4.39017 14.9297 5.65133 13.6685C7.15016 12.1697 7.99219 10.1369 7.99219 8.01721C7.99219 5.89755 7.15016 3.86471 5.65133 2.36588C4.39017 1.10472 2.75092 0.308577 1 0.0878013C0.67004 0.0461963 0.336112 0.0250237 1.87424e-06 0.0250237L1.79855e-06 0.890767Z" fill="#DFDFDF"/>
<path fill-rule="evenodd" clip-rule="evenodd" d="M318.521 15.1437C316.63 15.1437 314.818 14.3928 313.481 13.0564C312.145 11.7199 311.394 9.90726 311.394 8.01721C311.394 6.12716 312.145 4.31452 313.481 2.97805C314.818 1.64159 316.63 0.890768 318.521 0.890768V0.0250244C318.184 0.0250244 317.85 0.0461963 317.521 0.0878016C315.77 0.308578 314.13 1.10472 312.869 2.36588C311.37 3.86471 310.528 5.89755 310.528 8.01721C310.528 10.1369 311.37 12.1697 312.869 13.6685C314.13 14.9297 315.77 15.7258 317.521 15.9466C317.85 15.9882 318.184 16.0094 318.521 16.0094V15.1437Z" fill="#DFDFDF"/>
<path fill-rule="evenodd" clip-rule="evenodd" d="M13.6024 8.0094L7.6582 8.0094L7.6582 7.0094H13.6024V8.0094ZM25.4908 8.0094L19.5466 8.0094V7.0094L25.4908 7.0094V8.0094ZM37.3792 8.0094L31.435 8.0094V7.0094L37.3792 7.0094V8.0094ZM49.2675 8.0094L43.3234 8.0094V7.0094L49.2675 7.0094V8.0094ZM61.1559 8.0094L55.2117 8.0094V7.0094L61.1559 7.0094V8.0094ZM73.0443 8.00941L67.1001 8.00941V7.00941L73.0443 7.00941V8.00941ZM84.9327 8.00941L78.9885 8.00941V7.00941L84.9327 7.00941V8.00941ZM96.8211 8.00941L90.8769 8.00941V7.00941L96.8211 7.00941V8.00941ZM108.709 8.00941L102.765 8.00941V7.00941L108.709 7.00941V8.00941ZM120.598 8.00941L114.654 8.00941V7.00941L120.598 7.00941V8.00941ZM132.486 8.00941L126.542 8.00941V7.00941L132.486 7.00941V8.00941ZM144.375 8.00941L138.43 8.00941V7.00941L144.375 7.00941V8.00941ZM156.263 8.00941L150.319 8.00941V7.00941L156.263 7.00941V8.00941ZM168.151 8.00941L162.207 8.00941V7.00941L168.151 7.00941V8.00941ZM180.04 8.00942L174.096 8.00941V7.00941L180.04 7.00942V8.00942ZM191.928 8.00942L185.984 8.00942V7.00942L191.928 7.00942V8.00942ZM203.817 8.00942L197.872 8.00942V7.00942L203.817 7.00942V8.00942ZM215.705 8.00942L209.761 8.00942V7.00942L215.705 7.00942V8.00942ZM227.593 8.00942L221.649 8.00942V7.00942L227.593 7.00942V8.00942ZM239.482 8.00942L233.538 8.00942V7.00942L239.482 7.00942V8.00942ZM251.37 8.00942L245.426 8.00942V7.00942L251.37 7.00942V8.00942ZM263.259 8.00942L257.314 8.00942V7.00942L263.259 7.00942V8.00942ZM275.147 8.00942L269.203 8.00942V7.00942L275.147 7.00942V8.00942ZM287.035 8.00942L281.091 8.00942V7.00942L287.035 7.00942V8.00942ZM298.924 8.00943L292.979 8.00943V7.00943L298.924 7.00943V8.00943ZM310.812 8.00943L304.868 8.00943V7.00943L310.812 7.00943V8.00943Z" fill="#DFDFDF"/>
</svg>
