<svg width="23" height="23" viewBox="0 0 23 23" fill="none" xmlns="http://www.w3.org/2000/svg">
<path d="M10.1531 0C10.7578 0 11.3631 0 11.9678 0C12.0015 0.0102745 12.0348 0.0249523 12.0691 0.0308234C12.5999 0.117422 13.1376 0.172219 13.6606 0.293556C18.0698 1.31855 21.7882 5.20915 22.1209 10.3611C22.1884 11.4042 22.1038 12.4419 21.8787 13.4688C20.7373 18.6843 15.7957 22.7002 9.84635 22.0783C8.39423 21.9267 7.01452 21.5064 5.74342 20.7828C2.78584 19.0987 0.916873 16.6025 0.205 13.2629C0.113998 12.8362 0.0670286 12.4003 0 11.9688C0 11.364 0 10.7588 0 10.1541C0.0435441 9.8351 0.0773031 9.51463 0.133079 9.19808C0.50198 7.10112 1.38265 5.24829 2.81226 3.66749C4.50853 1.79167 6.59913 0.611085 9.09289 0.159988C9.44467 0.0963843 9.79987 0.0528401 10.1536 0.000489271L10.1531 0ZM1.73932 11.0529C1.77748 16.1979 5.85595 20.3601 11.047 20.3718C16.1867 20.3835 20.3571 16.2772 20.3713 11.0793C20.385 5.92934 16.2645 1.75106 11.0627 1.74959C5.9083 1.74764 1.78922 5.87258 1.73932 11.0529Z" fill="#626262"/>
<path d="M11.0509 15.5119C9.08802 13.549 7.10064 11.5616 5.11816 9.57912C5.50468 9.19309 5.9093 8.78945 6.31 8.38973C7.87416 9.95487 9.44469 11.5259 11.0196 13.1013C12.6239 11.4965 14.1983 9.92209 15.7708 8.34961C16.1994 8.79239 16.5967 9.20288 16.9724 9.59086C15.0159 11.5474 13.0285 13.5343 11.0509 15.5119Z" fill="#626262"/>
</svg>
