<?xml version="1.0" encoding="UTF-8"?>
<svg width="24px" height="24px" viewBox="0 0 24 24" version="1.1" xmlns="http://www.w3.org/2000/svg" xmlns:xlink="http://www.w3.org/1999/xlink">
    <title>mdpi/Icon/24x/Dropping</title>
    <g id="Icon/24x/Dropping" stroke="none" stroke-width="1" fill="none" fill-rule="evenodd">
        <path d="M17.1333333,3 C17.8944408,3 18.5491575,3.48804988 18.8397362,4.18799198 C18.0938937,3.8391408 17.1862828,3.97907897 16.5795754,4.58578644 L16.4539103,4.72519048 L16.3512402,4.86788187 L16.27,5 L7,5 L7,10 L16.0000635,10.0002999 C15.9959377,10.5189313 16.1930116,11.0276498 16.5795754,11.4142136 C17.2358927,12.0705309 18.2348715,12.1753429 19.0006329,11.7286497 L19,17 C19,17.7689821 18.5949441,18.4366007 18.0009621,18.7712881 L18,20 C18,20.5522847 17.5522847,21 17,21 L16,21 C15.4477153,21 15,20.5522847 15,20 L15,19 L9,19 L9,20 C9,20.5522847 8.55228475,21 8,21 L7,21 C6.44771525,21 6,20.5522847 6,20 L6.00004537,18.7718554 C5.40551401,18.4373555 5,17.7694168 5,17 L5,5 C5,3.8954305 5.83573513,3 6.86666667,3 L17.1333333,3 Z M17,12 L7,12 L7,17 L17,17 L17,12 Z M9.5,13 C10.3284271,13 11,13.6715729 11,14.5 C11,15.3284271 10.3284271,16 9.5,16 C8.67157288,16 8,15.3284271 8,14.5 C8,13.6715729 8.67157288,13 9.5,13 Z M14.5,13 C15.3284271,13 16,13.6715729 16,14.5 C16,15.3284271 15.3284271,16 14.5,16 C13.6715729,16 13,15.3284271 13,14.5 C13,13.6715729 13.6715729,13 14.5,13 Z M17.2866822,10.7071068 C17.0915462,10.5119709 16.9939152,10.2562532 16.9937891,10.0004963 C16.9998932,9.78378123 17.0697947,9.56703805 17.2097046,9.38710056 L17.2928932,9.29289322 L18.585,8 L17.2928932,6.70710678 C17.1302799,6.54449351 17.0353784,6.33980956 17.0081886,6.12809117 L17,6 L16.9989039,5.89867967 C17.017328,5.7167065 17.0855245,5.53882002 17.2034935,5.38710056 L17.2866822,5.29289322 C17.4669241,5.11265124 17.6988529,5.01559786 17.9347575,5.0017331 L18.0590314,5.0017331 C18.2556186,5.01328707 18.4494448,5.08261091 18.6128994,5.20970461 L18.7071068,5.29289322 L20.7071068,7.29289322 C21.0675907,7.65337718 21.0953203,8.22060824 20.7902954,8.61289944 L20.7071068,8.70710678 L18.7071068,10.7071068 C18.5268648,10.8873488 18.294936,10.9844021 18.0590314,10.9982669 L17.9347575,10.9982669 C17.6988529,10.9844021 17.4669241,10.8873488 17.2866822,10.7071068 Z" id="Shape" fill="#00ADB5"></path>
    </g>
</svg>