<svg width="335" height="50" viewBox="0 0 335 50" fill="none" xmlns="http://www.w3.org/2000/svg">
<rect x="0.5" y="0.5" width="334" height="49" rx="4.5" fill="white"/>
<rect x="0.5" y="0.5" width="334" height="49" rx="4.5" stroke="#C2C2C2"/>
<path d="M305.153 14C305.758 14 306.363 14 306.968 14C307.002 14.0103 307.035 14.025 307.069 14.0308C307.6 14.1174 308.138 14.1722 308.661 14.2936C313.07 15.3186 316.788 19.2091 317.121 24.3611C317.188 25.4042 317.104 26.4419 316.879 27.4688C315.737 32.6843 310.796 36.7002 304.846 36.0783C303.394 35.9267 302.015 35.5064 300.743 34.7828C297.786 33.0987 295.917 30.6025 295.205 27.2629C295.114 26.8362 295.067 26.4003 295 25.9688C295 25.364 295 24.7588 295 24.1541C295.044 23.8351 295.077 23.5146 295.133 23.1981C295.502 21.1011 296.383 19.2483 297.812 17.6675C299.509 15.7917 301.599 14.6111 304.093 14.16C304.445 14.0964 304.8 14.0528 305.154 14.0005L305.153 14ZM296.739 25.0529C296.777 30.1979 300.856 34.3601 306.047 34.3718C311.187 34.3835 315.357 30.2772 315.371 25.0793C315.385 19.9293 311.264 15.7511 306.063 15.7496C300.908 15.7476 296.789 19.8726 296.739 25.0529Z" fill="#626262"/>
<path d="M306.051 29.5119C304.088 27.549 302.101 25.5616 300.118 23.5791C300.505 23.1931 300.909 22.7895 301.31 22.3897C302.874 23.9549 304.445 25.5259 306.02 27.1013C307.624 25.4965 309.198 23.9221 310.771 22.3496C311.199 22.7924 311.597 23.2029 311.972 23.5909C310.016 25.5474 308.029 27.5343 306.051 29.5119Z" fill="#626262"/>
</svg>
