<svg width="12" height="13" viewBox="0 0 12 13" fill="none" xmlns="http://www.w3.org/2000/svg">
<path d="M11.6484 1.91876H0.351562C0.157379 1.91876 0 2.07614 0 2.27032V9.17423C0 9.36841 0.157379 9.52579 0.351562 9.52579H5.64844V10.237H4.62268C4.4285 10.237 4.27112 10.3943 4.27112 10.5885C4.27112 10.7827 4.4285 10.9401 4.62268 10.9401H7.37732C7.5715 10.9401 7.72888 10.7827 7.72888 10.5885C7.72888 10.3943 7.5715 10.237 7.37732 10.237H6.35156V9.52579H11.6484C11.8426 9.52579 12 9.36841 12 9.17423V2.27032C12 2.07614 11.8426 1.91876 11.6484 1.91876Z" fill="#FFBD16"/>
<path d="M4.79999 5.28728C4.79999 4.48858 5.69013 4.01219 6.35469 4.45523L7.15191 4.98671C7.74564 5.38253 7.74564 6.25499 7.15191 6.65081L6.35469 7.18229C5.69013 7.62533 4.79999 7.14894 4.79999 6.35024V5.28728Z" fill="white"/>
</svg>
