<?xml version="1.0" encoding="UTF-8"?>
<svg width="24px" height="24px" viewBox="0 0 24 24" version="1.1" xmlns="http://www.w3.org/2000/svg" xmlns:xlink="http://www.w3.org/1999/xlink">
    <!-- Generator: Sketch 63.1 (92452) - https://sketch.com -->
    <title>mdpi/Navigation / Error</title>
    <desc>Created with Sketch.</desc>
    <g id="Navigation-/-Error" stroke="none" stroke-width="1" fill="none" fill-rule="evenodd">
        <rect id="Rectangle" x="0" y="0" width="24" height="24"></rect>
        <path d="M12.0333907,15.5724772 C12.2584683,15.5724772 12.4468456,15.6507639 12.5985283,15.8073396 C12.750211,15.9639153 12.8260512,16.1645249 12.8260512,16.4091745 C12.8260512,16.653824 12.750211,16.8568801 12.5985283,17.0183488 C12.4468456,17.1798175 12.2584683,17.2605506 12.0333907,17.2605506 C11.8083131,17.2605506 11.6174893,17.1798175 11.4609136,17.0183488 C11.3043379,16.8568801 11.2260512,16.653824 11.2260512,16.4091745 C11.2260512,16.1645249 11.3043379,15.9639153 11.4609136,15.8073396 C11.6174893,15.6507639 11.8083131,15.5724772 12.0333907,15.5724772 Z M12.6939411,7 L12.6939411,9.51009178 L12.4737577,13.9724772 L11.5783448,13.9724772 L11.3728402,9.51009178 L11.3728402,7 L12.6939411,7 Z M12,21 C16.9705627,21 21,16.9705627 21,12 C21,7.02943725 16.9705627,3 12,3 C7.02943725,3 3,7.02943725 3,12 C3,16.9705627 7.02943725,21 12,21 Z M12,22 C6.4771525,22 2,17.5228475 2,12 C2,6.4771525 6.4771525,2 12,2 C17.5228475,2 22,6.4771525 22,12 C22,17.5228475 17.5228475,22 12,22 Z" id="Oval" fill="#000000" fill-rule="nonzero"></path>
    </g>
</svg>