<svg width="16" height="16" viewBox="0 0 16 16" fill="none" xmlns="http://www.w3.org/2000/svg">
<g clip-path="url(#clip0_912_2095)">
<path d="M11.9218 12.8645C10.7876 13.5836 9.44255 14.0001 8.00022 14.0001C4.40543 14.0001 1.41479 11.4135 0.787781 8.00006C1.0789 6.41514 1.87957 5.00852 3.01367 3.9563L0.929127 1.87177L1.87194 0.928955L15.0713 14.1283L14.1285 15.0711L11.9218 12.8645ZM3.95709 4.89972C3.07117 5.70669 2.42522 6.77806 2.14854 8.00006C2.76017 10.7013 5.17642 12.6667 8.00022 12.6667C9.06649 12.6667 10.0747 12.3865 10.9496 11.8922L9.59735 10.54C9.13489 10.8314 8.58722 11.0001 8.00022 11.0001C6.34334 11.0001 5.00019 9.65686 5.00019 8.00006C5.00019 7.41299 5.1688 6.86532 5.46023 6.40287L3.95709 4.89972ZM8.60929 9.55192L6.44833 7.39099C6.37422 7.57966 6.33353 7.78506 6.33353 8.00006C6.33353 8.92052 7.07975 9.66672 8.00022 9.66672C8.21515 9.66672 8.42062 9.62599 8.60929 9.55192ZM13.8712 11.0616L12.9174 10.1077C13.3546 9.48446 13.677 8.77232 13.8518 8.00006C13.2402 5.29871 10.824 3.33336 8.00022 3.33336C7.43629 3.33336 6.88862 3.41174 6.36835 3.55871L5.31633 2.50669C6.14753 2.17965 7.05289 2.00003 8.00022 2.00003C11.595 2.00003 14.5856 4.58654 15.2126 8.00006C15.0045 9.13312 14.5359 10.1751 13.8712 11.0616ZM7.81529 5.00564C7.87642 5.00192 7.93809 5.00003 8.00022 5.00003C9.65702 5.00003 11.0002 6.34318 11.0002 8.00006C11.0002 8.06212 10.9983 8.12379 10.9946 8.18492L7.81529 5.00564Z" fill="#ADB4C0"/>
</g>
<defs>
<clipPath id="clip0_912_2095">
<rect width="16" height="16" fill="white"/>
</clipPath>
</defs>
</svg>
