<?xml version="1.0" encoding="UTF-8"?>
<svg width="24px" height="24px" viewBox="0 0 24 24" version="1.1" xmlns="http://www.w3.org/2000/svg" xmlns:xlink="http://www.w3.org/1999/xlink">
    <title>mdpi/Icon/24x/Feedback</title>
    <g id="Icon/24x/Feedback" stroke="none" stroke-width="1" fill="none" fill-rule="evenodd">
        <polygon id="Path" points="0 0 24 0 24 24 0 24"></polygon>
        <polygon id="Path" points="0 0 24 0 24 24 0 24"></polygon>
        <path d="M20,2 L4,2 C2.9,2 2.01,2.9 2.01,4 L2,22 L6,18 L20,18 C21.1,18 22,17.1 22,16 L22,4 C22,2.9 21.1,2 20,2 Z M9,11 L7,11 L7,9 L9,9 L9,11 Z M13,11 L11,11 L11,9 L13,9 L13,11 Z M17,11 L15,11 L15,9 L17,9 L17,11 Z" id="Shape" fill="#AFAFAF"></path>
    </g>
</svg>