<svg width="26" height="25" viewBox="0 0 26 25" fill="none" xmlns="http://www.w3.org/2000/svg">
<rect x="2.62158" y="0.5" width="20.5414" height="20.5414" rx="2.5" fill="#FFE2ED" stroke="#FF71A4"/>
<rect x="23.9979" y="19.3385" width="4.38536" height="22.2115" rx="2.19268" transform="rotate(90 23.9979 19.3385)" fill="#FFE2ED" stroke="#FF71A4"/>
<path d="M0.5 10.0678C0.5 9.23938 1.17157 8.56781 2 8.56781H3.38536C4.21378 8.56781 4.88536 9.23938 4.88536 10.0678V23.7239H2C1.17157 23.7239 0.5 23.0523 0.5 22.2239V10.0678Z" fill="#FFE2ED" stroke="#FF71A4"/>
<path d="M20.8883 10.0678C20.8883 9.23938 21.5599 8.56781 22.3883 8.56781H23.7737C24.6021 8.56781 25.2737 9.23938 25.2737 10.0678V22.2239C25.2737 23.0523 24.6021 23.7239 23.7737 23.7239H20.8883V10.0678Z" fill="#FFE2ED" stroke="#FF71A4"/>
<path d="M15.3552 6.15069V7.22069H11.6152V9.10069H14.7952V10.1707H11.6152V13.2707H10.4052V6.15069H15.3552Z" fill="#333333"/>
</svg>
