<svg width="52" height="59" viewBox="0 0 52 59" fill="none" xmlns="http://www.w3.org/2000/svg">
<path d="M32.584 25.737L19.62 38.7L38.268 57.348C38.5128 57.6154 38.8245 57.8127 39.171 57.9195C39.5174 58.0264 39.886 58.0391 40.239 57.9562C40.5919 57.8733 40.9164 57.6978 41.179 57.4478C41.4416 57.1979 41.6328 56.8824 41.733 56.534L42.526 50.041C42.6132 49.704 42.789 49.3964 43.0352 49.1502C43.2814 48.904 43.5889 48.7282 43.926 48.641L50.418 47.849C50.7665 47.7488 51.082 47.5575 51.332 47.2949C51.5821 47.0322 51.7576 46.7077 51.8406 46.3547C51.9236 46.0017 51.9111 45.633 51.8043 45.2864C51.6975 44.9399 51.5003 44.628 51.233 44.383L32.584 25.737Z" fill="#212529"/>
<path d="M19.416 25.737L32.38 38.7L13.732 57.348C13.4872 57.6154 13.1755 57.8127 12.829 57.9195C12.4826 58.0264 12.114 58.0391 11.761 57.9562C11.4081 57.8733 11.0836 57.6978 10.821 57.4478C10.5584 57.1979 10.3672 56.8824 10.267 56.534L9.47401 50.041C9.38679 49.704 9.21097 49.3964 8.96479 49.1502C8.71861 48.904 8.41105 48.7282 8.07401 48.641L1.58301 47.85C1.23451 47.7498 0.919005 47.5585 0.668962 47.2959C0.418919 47.0332 0.243364 46.7087 0.160359 46.3557C0.0773536 46.0027 0.0898961 45.634 0.196696 45.2874C0.303495 44.9409 0.500695 44.629 0.768006 44.384L19.416 25.737Z" fill="#212529"/>
<path d="M48.167 24.5C48.167 21.983 50.044 19.2 49.307 16.927C48.542 14.573 45.361 13.427 43.935 11.471C42.5 9.492 42.381 6.118 40.4 4.678C38.441 3.252 35.2 4.178 32.85 3.412C30.581 2.675 28.517 0 26 0C23.483 0 21.419 2.675 19.147 3.412C16.793 4.177 13.557 3.252 11.597 4.678C9.61901 6.119 9.50501 9.492 8.06501 11.471C6.63901 13.43 3.45701 14.571 2.69301 16.927C1.95601 19.198 3.83301 21.983 3.83301 24.5C3.83301 27.017 1.95601 29.8 2.69301 32.073C3.45801 34.427 6.63901 35.573 8.06501 37.529C9.50501 39.508 9.61901 42.882 11.598 44.322C13.557 45.748 16.798 44.822 19.148 45.588C21.419 46.325 23.483 49 26 49C28.517 49 30.581 46.325 32.853 45.588C35.207 44.823 38.443 45.748 40.403 44.322C42.381 42.881 42.495 39.508 43.935 37.529C45.361 35.57 48.543 34.429 49.307 32.073C50.044 29.8 48.167 27.017 48.167 24.5Z" fill="#FAA307"/>
<path d="M26 42C35.665 42 43.5 34.165 43.5 24.5C43.5 14.835 35.665 7 26 7C16.335 7 8.5 14.835 8.5 24.5C8.5 34.165 16.335 42 26 42Z" fill="#FFD100"/>
<path d="M20 22C21.6569 22 23 20.6569 23 19C23 17.3431 21.6569 16 20 16C18.3431 16 17 17.3431 17 19C17 20.6569 18.3431 22 20 22Z" fill="white"/>
<path d="M32 34C33.6569 34 35 32.6569 35 31C35 29.3431 33.6569 28 32 28C30.3431 28 29 29.3431 29 31C29 32.6569 30.3431 34 32 34Z" fill="white"/>
<path d="M18.5 32.5C18.3035 32.3034 18.1478 32.0699 18.0418 31.8129C17.9359 31.556 17.8817 31.2806 17.8826 31.0026C17.8834 30.7247 17.9392 30.4496 18.0467 30.1933C18.1542 29.9369 18.3113 29.7044 18.509 29.509L30.586 17.586C30.9632 17.2217 31.4684 17.0201 31.9928 17.0246C32.5172 17.0292 33.0188 17.2395 33.3897 17.6104C33.7605 17.9812 33.9708 18.4828 33.9754 19.0072C33.9799 19.5316 33.7783 20.0368 33.414 20.414L21.491 32.491C21.2956 32.6887 21.0631 32.8458 20.8067 32.9533C20.5504 33.0608 20.2754 33.1166 19.9974 33.1174C19.7194 33.1183 19.444 33.0642 19.1871 32.9582C18.9301 32.8522 18.6966 32.6965 18.5 32.5Z" fill="white"/>
</svg>
