<?xml version="1.0"?>
<svg xmlns="http://www.w3.org/2000/svg" viewBox="0 0 512 512" width="512" height="512"><g id="Outline"><path d="M80.02,224h47.96A48.074,48.074,0,0,0,176,175.98V64.02A48.074,48.074,0,0,0,127.98,16H80.02A48.074,48.074,0,0,0,32,64.02V175.98A48.074,48.074,0,0,0,80.02,224Zm0-16a32.076,32.076,0,0,1-31-24H88a24,24,0,0,0,0-48H86.987A32.056,32.056,0,0,0,56,112H48V72h80V176a32.036,32.036,0,0,1-32,32ZM48,168V128h8a16.019,16.019,0,0,1,16,16,8,8,0,0,0,8,8h8a8,8,0,0,1,0,16Zm83.961,39.744A47.8,47.8,0,0,0,144,176V72h16V175.98A32.062,32.062,0,0,1,131.961,207.744ZM80.02,32h47.96a32.076,32.076,0,0,1,31,24H49.018A32.076,32.076,0,0,1,80.02,32Z"/><path d="M371.265,480l20.442-81.765a56.359,56.359,0,0,0,41.048-42.694l46.222-219.016A46.892,46.892,0,0,0,433.023,80q-.05,0-.1,0H288.57c-.152,0-.3,0-.455.013A46.708,46.708,0,0,0,255.47,93.72a68.452,68.452,0,0,0-19.818,56.13l1.87,17.2L220.588,240H152a24.028,24.028,0,0,0-24,24v24a8,8,0,0,0,8,8h71.59l-5.571,24H88.079a40,40,0,1,0,0,80H190.434l-11.428,40H117.04a28.175,28.175,0,0,0-19.817,8.184A28.038,28.038,0,0,0,91.747,480H16v16H496V480ZM433.282,96a30.89,30.89,0,0,1,30.04,37.22L417.1,352.236A40.271,40.271,0,0,1,377.843,384H232.16a24,24,0,1,1,0-48h120.4a8,8,0,0,0,7.793-6.192L368.2,296H388a28,28,0,0,0,0-56h-6.8l16.353-70.185c.039-.166.072-.332.1-.5l.08-.48a7.99,7.99,0,0,0,.063-2.173l-2-18.57a52.571,52.571,0,0,1,15.193-43.044A31.066,31.066,0,0,1,432.938,96C433.053,96,433.162,96.006,433.282,96Zm-196,344,10-40h87.128l-11.429,40ZM312,280H288V264a8.009,8.009,0,0,1,8-8h17.376A23.885,23.885,0,0,0,312,264Zm16-16a8.009,8.009,0,0,1,8-8h52a12,12,0,0,1,0,24H328Zm-74.425-97.331-2.016-18.549a52.528,52.528,0,0,1,15.21-43.072A30.809,30.809,0,0,1,288.59,96.01c.125,0,.25,0,.374-.01H397.531a68.442,68.442,0,0,0-17.645,53.817l1.1,10.183H273.02v16H379.681L364.77,240H296a24.028,24.028,0,0,0-24,24v24a8,8,0,0,0,8,8h71.771L346.2,320H232.16a40.343,40.343,0,0,0-14.322,2.611l35.577-153.269A7.985,7.985,0,0,0,253.575,166.669ZM144,264a8.009,8.009,0,0,1,8-8h17.376A23.885,23.885,0,0,0,168,264v16H144Zm40,16V264a8.009,8.009,0,0,1,8-8h24.875L211.3,280ZM64,360a24.067,24.067,0,0,1,24.079-24h111.97a39.8,39.8,0,0,0,0,48H88.079A24.067,24.067,0,0,1,64,360Zm143.074,40h23.72l-10,40H195.646ZM117.04,480a12.026,12.026,0,0,1-8.565-20.441A12.214,12.214,0,0,1,117.04,456H235.727a27.951,27.951,0,0,0,0,24Zm143.98,0a12,12,0,1,1,0-24h68a8,8,0,0,0,7.692-5.8L351.054,400h23.719l-20,80Z"/></g></svg>
