<svg height="512" viewBox="0 0 60 60" width="512" xmlns="http://www.w3.org/2000/svg"><g id="Page-1" fill="none" fill-rule="evenodd"><g id="008---Seat" fill-rule="nonzero" transform="translate(-1)"><g id="Color" transform="translate(2 1)"><path id="Shape" d="m52 45v2c0 2.209139-1.790861 4-4 4h-38c-2.209139 0-4-1.790861-4-4v-2z" fill="#a0522d"/><path id="Shape" d="m49 45v2c0 2.209139-1.790861 4-4 4h3c2.209139 0 4-1.790861 4-4v-2z" fill="#783e22"/><path id="Shape" d="m12 33v12h-6v-6c-3.3137085 0-6-2.6862915-6-6s2.6862915-6 6-6 6 2.6862915 6 6z" fill="#ff9801"/><path id="Shape" d="m6 27c-.50644964.0029108-1.01048026.0701149-1.5.2 2.64569834.6831127 4.49568409 3.0675388 4.5 5.8v12h3v-12c0-3.3137085-2.6862915-6-6-6z" fill="#f57c00"/><circle id="Oval" cx="6" cy="33" fill="#fec108" r="2"/><path id="Shape" d="m58 33c0 3.3137085-2.6862915 6-6 6v6h-6v-12c.0000001-3.3137084 2.6862916-5.9999998 6-5.9999998s5.9999999 2.6862914 6 5.9999998z" fill="#ff9801"/><path id="Shape" d="m52 27c-.5064496.0029108-1.0104803.0701149-1.5.2 2.907338.7698415 4.7955388 3.5732036 4.416277 6.5567301-.3792619 2.9835266-2.9087951 5.2253123-5.916277 5.2432699v6h3v-6c3.3137085 0 6-2.6862915 6-6s-2.6862915-6-6-6z" fill="#f57c00"/><circle id="Oval" cx="52" cy="33" fill="#fec108" r="2"/><path id="Shape" d="m16 51-.72 5.02c-.1517582 1.1432448-1.1267267 1.9973451-2.28 1.9973451s-2.1282418-.8541003-2.28-1.9973451l-.72-5.02z" fill="#624421"/><path id="Shape" d="m48 51-.72 5.02c-.1517582 1.1432448-1.1267267 1.9973451-2.28 1.9973451s-2.1282418-.8541003-2.28-1.9973451l-.72-5.02z" fill="#624421"/><path id="Shape" d="m46 12v33h-4v-33c-.0060592-4.41576577-3.5842342-7.99394081-8-8h-10c-4.4157658.00605919-7.9939408 3.58423423-8 8v33h-4v-33c0-6.627417 5.372583-12 12-12h10c6.627417 0 12 5.372583 12 12z" fill="#ff9801"/><path id="Shape" d="m34 0h-3c6.627417 0 12 5.372583 12 12v33h3v-33c0-6.627417-5.372583-12-12-12z" fill="#f57c00"/><path id="Shape" d="m42 12v28c0-2.7614237-2.2385763-5-5-5h-16c-2.7614237 0-5 2.2385763-5 5v-28c.0060592-4.41576577 3.5842342-7.99394081 8-8h10c4.4157658.00605919 7.9939408 3.58423423 8 8z" fill="#e91e63"/><path id="Shape" d="m34 4h-3c4.4157658.00605919 7.9939408 3.58423423 8 8v23.423c1.8202802.7944339 2.9977847 2.5909133 3 4.577v-28c-.0060592-4.41576577-3.5842342-7.99394081-8-8z" fill="#ad1457"/><path id="Rectangle-path" d="m16 41h26v4h-26z" fill="#f57c00"/><path id="Shape" d="m42 40v1h-26v-1c0-2.7614237 2.2385763-5 5-5h16c2.7614237 0 5 2.2385763 5 5z" fill="#9d27b0"/><path id="Shape" d="m37 35h-3c2.7614237 0 5 2.2385763 5 5v1h3v-1c0-2.7614237-2.2385763-5-5-5z" fill="#6a1b9a"/></g><g id="Outline" fill="#000"><path id="Shape" d="m11 34c0-1.6568542-1.34314575-3-3-3s-3 1.3431458-3 3 1.34314575 3 3 3 3-1.3431458 3-3zm-4 0c0-.5522847.44771525-1 1-1s1 .4477153 1 1-.44771525 1-1 1-1-.4477153-1-1z"/><path id="Shape" d="m54 37c1.6568542 0 3-1.3431458 3-3s-1.3431458-3-3-3-3 1.3431458-3 3 1.3431458 3 3 3zm0-4c.5522847 0 1 .4477153 1 1s-.4477153 1-1 1-1-.4477153-1-1 .4477153-1 1-1z"/><path id="Shape" d="m50.88 52.911c2.3800924-.4255329 4.1147035-2.4931724 4.12-4.911v-7.071c3.025623-.4320565 5.4211578-2.7771352 5.9175148-5.7928767s-1.0212266-6.0048754-3.748776-7.3838392c-2.7275495-1.3789638-6.0344272-.8289269-8.1687388 1.3587159v-16.111c-.008266-7.17627506-5.8237249-12.99173398-13-13h-10c-7.1762751.00826602-12.991734 5.82372494-13 13v16.111c-2.1343116-2.1876428-5.44118934-2.7376797-8.16873878-1.3587159s-4.24513303 4.3680977-3.74877601 7.3838392c.49635703 3.0157415 2.89189183 5.3608202 5.91751479 5.7928767v7.071c.00529649 2.4178276 1.73990757 4.4854671 4.12 4.911l.607 4.251c.0452303.2895549.1300229.571524.252.838h-3.979c-.55228475 0-1 .4477153-1 1s.44771525 1 1 1h52c.5522847 0 1-.4477153 1-1s-.4477153-1-1-1h-9.979c.1219578-.2668322.2067477-.5491287.252-.839zm3.12-23.911c2.7614237 0 5 2.2385763 5 5s-2.2385763 5-5 5c-.5522847 0-1 .4477153-1 1v5h-4v-11c.0033061-2.7600532 2.2399468-4.9966939 5-5zm-39-16c.0071635-6.07216255 4.9278374-10.9928365 11-11h10c6.0721626.0071635 10.9928365 4.92783745 11 11v32h-2v-32c-.0055111-4.96827817-4.0317218-8.99448887-9-9h-10c-4.9682782.00551113-8.9944889 4.03172183-9 9v32h-2zm4 32v-2h24v2zm24-8.46c-1.0966853-.9908585-2.5219881-1.5396001-4-1.54h-16c-1.4780119.0003999-2.9033147.5491415-4 1.54v-23.54c.0044086-3.86416566 3.1358343-6.99559136 7-7h10c3.8641657.00440864 6.9955914 3.13583434 7 7zm0 4.46h-24c0-2.209139 1.790861-4 4-4h16c2.209139 0 4 1.790861 4 4zm-40-7c0-2.7614237 2.23857625-5 5-5 2.7614237 0 5 2.2385763 5 5v11h-4v-5c0-.5522847-.44771525-1-1-1-2.76005315-.0033061-4.99669388-2.2399468-5-5zm6 14v-1h44v1c0 1.6568542-1.3431458 3-3 3h-38c-1.6568542 0-3-1.3431458-3-3zm34.727 9.162c.0452303.2895549.1300229.571524.252.838h-25.958c.1219578-.2668322.2067477-.5491287.252-.839l.595-4.161h24.264zm-30.02-.283-.554-3.879h3.694l-.554 3.878c-.091522.6437976-.6427295 1.1221876-1.293 1.1221876s-1.201478-.47839-1.293-1.1221876zm32 0-.554-3.879h3.694l-.554 3.878c-.091522.6437976-.6427295 1.1221876-1.293 1.1221876s-1.201478-.47839-1.293-1.1221876z"/><path id="Shape" d="m25 14c.5522847 0 1-.4477153 1-1v-1c0-.5522847-.4477153-1-1-1s-1 .4477153-1 1v1c0 .5522847.4477153 1 1 1z"/><path id="Shape" d="m26 17c0-.5522847-.4477153-1-1-1s-1 .4477153-1 1v1c0 .5522847.4477153 1 1 1s1-.4477153 1-1z"/><path id="Shape" d="m22 16h1c.5522847 0 1-.4477153 1-1s-.4477153-1-1-1h-1c-.5522847 0-1 .4477153-1 1s.4477153 1 1 1z"/><path id="Shape" d="m28 14h-1c-.5522847 0-1 .4477153-1 1s.4477153 1 1 1h1c.5522847 0 1-.4477153 1-1s-.4477153-1-1-1z"/><path id="Shape" d="m25 24c-.5522847 0-1 .4477153-1 1v1c0 .5522847.4477153 1 1 1s1-.4477153 1-1v-1c0-.5522847-.4477153-1-1-1z"/><path id="Shape" d="m25 29c-.5522847 0-1 .4477153-1 1v1c0 .5522847.4477153 1 1 1s1-.4477153 1-1v-1c0-.5522847-.4477153-1-1-1z"/><path id="Shape" d="m23 27h-1c-.5522847 0-1 .4477153-1 1s.4477153 1 1 1h1c.5522847 0 1-.4477153 1-1s-.4477153-1-1-1z"/><path id="Shape" d="m28 27h-1c-.5522847 0-1 .4477153-1 1s.4477153 1 1 1h1c.5522847 0 1-.4477153 1-1s-.4477153-1-1-1z"/><path id="Shape" d="m37 14c.5522847 0 1-.4477153 1-1v-1c0-.5522847-.4477153-1-1-1s-1 .4477153-1 1v1c0 .5522847.4477153 1 1 1z"/><path id="Shape" d="m38 17c0-.5522847-.4477153-1-1-1s-1 .4477153-1 1v1c0 .5522847.4477153 1 1 1s1-.4477153 1-1z"/><path id="Shape" d="m34 16h1c.5522847 0 1-.4477153 1-1s-.4477153-1-1-1h-1c-.5522847 0-1 .4477153-1 1s.4477153 1 1 1z"/><path id="Shape" d="m40 14h-1c-.5522847 0-1 .4477153-1 1s.4477153 1 1 1h1c.5522847 0 1-.4477153 1-1s-.4477153-1-1-1z"/><path id="Shape" d="m37 24c-.5522847 0-1 .4477153-1 1v1c0 .5522847.4477153 1 1 1s1-.4477153 1-1v-1c0-.5522847-.4477153-1-1-1z"/><path id="Shape" d="m37 29c-.5522847 0-1 .4477153-1 1v1c0 .5522847.4477153 1 1 1s1-.4477153 1-1v-1c0-.5522847-.4477153-1-1-1z"/><path id="Shape" d="m35 27h-1c-.5522847 0-1 .4477153-1 1s.4477153 1 1 1h1c.5522847 0 1-.4477153 1-1s-.4477153-1-1-1z"/><path id="Shape" d="m40 27h-1c-.5522847 0-1 .4477153-1 1s.4477153 1 1 1h1c.5522847 0 1-.4477153 1-1s-.4477153-1-1-1z"/><path id="Shape" d="m2 60h2c.55228475 0 1-.4477153 1-1s-.44771525-1-1-1h-2c-.55228475 0-1 .4477153-1 1s.44771525 1 1 1z"/></g></g></g></svg>