<?xml version="1.0" encoding="UTF-8"?>
<svg width="24px" height="24px" viewBox="0 0 24 24" version="1.1" xmlns="http://www.w3.org/2000/svg" xmlns:xlink="http://www.w3.org/1999/xlink">
    <!-- Generator: Sketch 63.1 (92452) - https://sketch.com -->
    <title>mdpi/General / Help</title>
    <desc>Created with Sketch.</desc>
    <g id="General-/-Help" stroke="none" stroke-width="1" fill="none" fill-rule="evenodd">
        <rect id="Rectangle" x="0" y="0" width="24" height="24"></rect>
        <path d="M4,5 C3.44771525,5 3,5.44771525 3,6 L3,13.7363216 C3,14.2886064 3.44771525,14.7363216 4,14.7363216 L6.01572429,14.7363216 L6.01572429,18.5689525 L9.67046403,14.7363216 L20,14.7363216 C20.5522847,14.7363216 21,14.2886064 21,13.7363216 L21,6 C21,5.44771525 20.5522847,5 20,5 L4,5 Z M20,4 C21.1045695,4 22,4.8954305 22,6 L22,13.7363216 C22,14.8408911 21.1045695,15.7363216 20,15.7363216 L10.098662,15.7363216 L6.73942686,19.2590645 C6.35828852,19.6587544 5.72530217,19.6737934 5.32561228,19.292655 C5.12771022,19.1039386 5.01572429,18.8424102 5.01572429,18.5689525 L5.01572429,15.7363216 L4,15.7363216 C2.8954305,15.7363216 2,14.8408911 2,13.7363216 L2,6 C2,4.8954305 2.8954305,4 4,4 L20,4 Z M12,9 C11.4477153,9 11,9.44771525 11,10 C11,10.5522847 11.4477153,11 12,11 C12.5522847,11 13,10.5522847 13,10 C13,9.44771525 12.5522847,9 12,9 Z M17,9 C16.4477153,9 16,9.44771525 16,10 C16,10.5522847 16.4477153,11 17,11 C17.5522847,11 18,10.5522847 18,10 C18,9.44771525 17.5522847,9 17,9 Z M7,9 C6.44771525,9 6,9.44771525 6,10 C6,10.5522847 6.44771525,11 7,11 C7.55228475,11 8,10.5522847 8,10 C8,9.44771525 7.55228475,9 7,9 Z" id="Rectangle-41" fill="#000000" fill-rule="nonzero"></path>
    </g>
</svg>