<?xml version="1.0" encoding="UTF-8" standalone="no"?>
<svg
   xmlns:dc="http://purl.org/dc/elements/1.1/"
   xmlns:cc="http://creativecommons.org/ns#"
   xmlns:rdf="http://www.w3.org/1999/02/22-rdf-syntax-ns#"
   xmlns:svg="http://www.w3.org/2000/svg"
   xmlns="http://www.w3.org/2000/svg"
   id="svg8"
   version="1.1"
   viewBox="0 0 24 24"
   height="24px"
   width="24px">
  <metadata
     id="metadata14">
    <rdf:RDF>
      <cc:Work
         rdf:about="">
        <dc:format>image/svg+xml</dc:format>
        <dc:type
           rdf:resource="http://purl.org/dc/dcmitype/StillImage" />
      </cc:Work>
    </rdf:RDF>
  </metadata>
  <defs
     id="defs12" />
  <title
     id="title2">mdpi/Icon/24x/Home</title>
  <g
     fill-rule="evenodd"
     fill="none"
     stroke-width="1"
     stroke="none"
     id="Icon/24x/Home">
    <polygon
       points="0 0 24 0 24 24 0 24"
       id="Path" />
    <path
       fill="#AFAFAF"
       id="path5"
       d="M11.33,3.6 C11.6783333,3.28833333 12.1947222,3.26236111 12.5710648,3.52208333 L12.67,3.6 L21.03,11.13 C21.3566667,11.41 21.1868,11.9252 20.7887022,11.9926489 L20.7,12 L19,12 L19,19 C19,19.5107143 18.6119898,19.9352041 18.116199,19.9932398 L18,20 L15,20 C14.4892857,20 14.0647959,19.6119898 14.0067602,19.116199 L14,19 L14,14 L10,14 L10,19 C10,19.5107143 9.6119898,19.9352041 9.11619898,19.9932398 L9,20 L6,20 C5.48928571,20 5.06479592,19.6119898 5.0067602,19.116199 L5,19 L5,12 L3.3,12 C2.87066667,12 2.65911111,11.5034667 2.90924444,11.1933511 L2.97,11.13 L11.33,3.6 Z" />
  </g>
</svg>
