<svg width="24" height="24" viewBox="0 0 24 24" fill="none" xmlns="http://www.w3.org/2000/svg">
<path d="M13.8905 17.7422H10.0706C10.0706 17.8466 10.0706 17.9451 10.0706 18.044C10.0706 19.2346 10.0455 20.4262 10.0777 21.6162C10.1084 22.7466 9.23827 23.4838 8.24788 23.4548C7.10929 23.4215 5.96851 23.4477 4.82882 23.4466C3.70992 23.4455 3.01046 22.7488 3.00992 21.6354C3.00992 18.4548 3.00992 15.2736 3.00992 12.093V11.7145C2.71187 11.7145 2.4264 11.7216 2.14148 11.7129C1.65421 11.6981 1.25554 11.4914 0.948197 11.1168C0.359213 10.3982 0.482806 9.38756 1.23038 8.78217C2.09609 8.08108 2.96343 7.38162 3.83023 6.68217C6.18562 4.78069 8.54156 2.8792 10.8969 0.978265C11.6019 0.409515 12.3839 0.39639 13.0866 0.962953C16.311 3.5617 19.5321 6.16483 22.7532 8.76741C23.3066 9.2142 23.5407 9.78952 23.3652 10.4868C23.2044 11.1266 22.7773 11.5275 22.1325 11.6784C21.9777 11.7145 21.812 11.7118 21.6512 11.7167C21.4402 11.7227 21.2285 11.7183 20.9742 11.7183V12.0552C20.9742 15.2703 20.9753 18.4848 20.9737 21.6999C20.9737 22.5891 20.4241 23.2629 19.5742 23.4209C19.4501 23.4439 19.3205 23.4461 19.1936 23.4466C18.02 23.4483 16.8464 23.4494 15.6723 23.4472C14.6091 23.445 13.8933 22.733 13.8905 21.6726C13.8873 20.4733 13.89 19.274 13.89 18.0747C13.89 17.9735 13.89 17.8723 13.89 17.7427L13.8905 17.7422Z" fill="#D42027"/>
</svg>
