<?xml version="1.0" encoding="UTF-8"?>
<svg width="24px" height="24px" viewBox="0 0 24 24" version="1.1" xmlns="http://www.w3.org/2000/svg" xmlns:xlink="http://www.w3.org/1999/xlink">
    <!-- Generator: Sketch 63.1 (92452) - https://sketch.com -->
    <title>mdpi/Icon/24x/Home</title>
    <desc>Created with Sketch.</desc>
    <defs>
        <path d="M2.08507652,7.9450113 C2.57496154,8.12935158 2.92349664,8.60228178 2.92349664,9.15661671 L2.92349664,18.8202928 C2.92349664,18.8152182 4.37323753,18.816297 7.27271933,18.8235294 C7.29542313,18.8235294 7.31052012,17.8764365 7.31801031,15.9822507 C7.31801031,14.5152412 8.53202496,13.3430142 10.0093917,13.3430142 C11.4867583,13.3430142 12.700773,14.5152412 12.700773,15.9822507 L12.700773,18.8202928 C12.700773,18.8152182 14.0901561,18.816297 16.8689223,18.8235294 C16.8916261,18.8235294 16.9067231,15.6012252 16.9142133,9.15661671 C16.9142133,8.55872361 17.3196743,8.055531 17.8706327,7.90700251 L10.0454626,1.19071885 C10.0233283,1.17172117 9.97666511,1.17172117 9.95453083,1.19071885 L2.08507652,7.9450113 Z M1.62937899,9.03896965 L0.610880787,9.03896965 C0.273500645,9.03896965 0,8.7748832 0,8.44911606 C0,8.28063156 0.0746177427,8.12018898 0.205033682,8.00825398 L9.18830252,0.297983044 C9.6512109,-0.0993276812 10.3487826,-0.0993276812 10.8116909,0.297983044 L19.7949598,8.00825398 C20.0471208,8.22468189 20.0698338,8.59751205 19.8456907,8.84099345 C19.7297654,8.96692033 19.5636033,9.03896965 19.3891127,9.03896965 L18.2083309,9.03896965 C18.1433563,9.03896965 18.0906839,9.09164203 18.0906839,9.15661671 L18.0906839,18.8202928 C18.0906839,19.4718271 17.5436826,20 16.8689223,20 L12.746064,20 C12.0713037,20 11.5243024,19.4718271 11.5243024,18.8202928 L11.5243024,15.9822507 C11.5243024,15.1743874 10.8460538,14.5194848 10.0093917,14.5194848 C9.17272955,14.5194848 8.4944809,15.1743874 8.4944809,15.9822507 L8.4944809,18.8202928 C8.4944809,19.4718271 7.94747961,20 7.27271933,20 L2.96878762,20 C2.29402734,20 1.74702605,19.4718271 1.74702605,18.8202928 L1.74702605,9.15661671 C1.74702605,9.09164203 1.69435366,9.03896965 1.62937899,9.03896965 Z" id="path-1"></path>
    </defs>
    <g id="Icon/24x/Home" stroke="none" stroke-width="1" fill="none" fill-rule="evenodd">
        <g id="Rectangle" transform="translate(2.000000, 2.000000)">
            <mask id="mask-2" fill="white">
                <use xlink:href="#path-1"></use>
            </mask>
            <use id="Mask" fill="#ED3237" fill-rule="nonzero" xlink:href="#path-1"></use>
            <rect fill="#ED3237" mask="url(#mask-2)" x="-2" y="-2" width="24" height="24"></rect>
        </g>
    </g>
</svg>