<?xml version="1.0" encoding="UTF-8"?>
<svg width="24px" height="24px" viewBox="0 0 24 24" version="1.1" xmlns="http://www.w3.org/2000/svg" xmlns:xlink="http://www.w3.org/1999/xlink">
    <!-- Generator: Sketch 63.1 (92452) - https://sketch.com -->
    <title>mdpi/Navigation / More / Horizontal</title>
    <desc>Created with Sketch.</desc>
    <defs>
        <path d="M2,0 C0.9,0 0,0.9 0,2 C0,3.1 0.9,4 2,4 C3.1,4 4,3.1 4,2 C4,0.9 3.1,0 2,0 Z M14,0 C12.9,0 12,0.9 12,2 C12,3.1 12.9,4 14,4 C15.1,4 16,3.1 16,2 C16,0.9 15.1,0 14,0 Z M8,0 C6.9,0 6,0.9 6,2 C6,3.1 6.9,4 8,4 C9.1,4 10,3.1 10,2 C10,0.9 9.1,0 8,0 Z" id="path-1"></path>
    </defs>
    <g id="Navigation-/-More-/-Horizontal" stroke="none" stroke-width="1" fill="none" fill-rule="evenodd">
        <rect id="Rectangle" x="0" y="0" width="24" height="24"></rect>
        <g id="Rectangle" transform="translate(4.000000, 10.000000)">
            <mask id="mask-2" fill="white">
                <use xlink:href="#path-1"></use>
            </mask>
            <use id="Mask" fill="#3E3E52" fill-rule="nonzero" xlink:href="#path-1"></use>
            <rect fill="#3E3E52" mask="url(#mask-2)" x="-4" y="-10" width="24" height="24"></rect>
        </g>
    </g>
</svg>