<svg id="vector" xmlns="http://www.w3.org/2000/svg" width="24" height="24" viewBox="0 0 24 24"><path fill="#FFFFFF" d="M13,15C13.5523,15 14,15.4477 14,16C14,16.5523 13.5523,17 13,17L11,17C10.4477,17 10,16.5523 10,16C10,15.4477 10.4477,15 11,15L13,15ZM15,11C15.5523,11 16,11.4477 16,12C16,12.5523 15.5523,13 15,13L9,13C8.4477,13 8,12.5523 8,12C8,11.4477 8.4477,11 9,11L15,11ZM17,7C17.5523,7 18,7.4477 18,8C18,8.5523 17.5523,9 17,9L7,9C6.4477,9 6,8.5523 6,8C6,7.4477 6.4477,7 7,7L17,7Z" stroke="#000000" stroke-opacity="0" stroke-width="1" fill-rule="evenodd" id="path_0"/></svg>