<svg width="25" height="24" viewBox="0 0 25 24" fill="none" xmlns="http://www.w3.org/2000/svg">
<g clip-path="url(#clip0_6083_436)">
<path d="M24.8333 10.7852C24.8333 9.39665 23.7037 8.26701 22.3152 8.26701C20.9267 8.26701 19.797 9.39665 19.797 10.7852C19.797 11.4168 20.0314 11.9943 20.4168 12.4368L17.8137 14.8248L14.4937 7.96374L16.4341 5.68461L12.847 1.47119L9.25995 5.68472L11.1139 7.86239L7.81766 14.7857L5.25107 12.4355C5.63595 11.9931 5.86973 11.4161 5.86973 10.7852C5.86973 9.39665 4.74009 8.26701 3.35158 8.26701C1.96296 8.26701 0.833328 9.39665 0.833328 10.7852C0.833328 12.0718 1.80369 13.1355 3.05093 13.2848L3.82253 22.5286H21.8442L22.6158 13.2848C23.863 13.1355 24.8333 12.0718 24.8333 10.7852Z" fill="#CFA23D"/>
</g>
<defs>
<clipPath id="clip0_6083_436">
<rect width="24" height="24" fill="white" transform="translate(0.833328)"/>
</clipPath>
</defs>
</svg>
