<svg id="vector" xmlns="http://www.w3.org/2000/svg" width="24" height="24" viewBox="0 0 24 24"><path fill="#AFAFAF" d="M12,4C16.4183,4 20,7.5817 20,12C20,16.4183 16.4183,20 12,20C7.5817,20 4,16.4183 4,12C4,7.5817 7.5817,4 12,4ZM12,11C11.4872,11 11.0645,11.386 11.0067,11.8834L11,12L11,15L11.0067,15.1166C11.0645,15.614 11.4872,16 12,16C12.5128,16 12.9355,15.614 12.9933,15.1166L13,15L13,12L12.9933,11.8834C12.9355,11.386 12.5128,11 12,11ZM12,8C11.4477,8 11,8.4477 11,9C11,9.5523 11.4477,10 12,10C12.5523,10 13,9.5523 13,9C13,8.4477 12.5523,8 12,8Z" stroke-width="1" fill-rule="evenodd" stroke="#00000000" id="path_0"/></svg>