<svg id="vector" xmlns="http://www.w3.org/2000/svg" width="24" height="24" viewBox="0 0 24 24"><path fill="#AFAFAF" d="M12.4875,10.5C11.775,8.4825 9.675,7.125 7.3275,7.59C5.61,7.935 4.215,9.3075 3.855,11.025C3.24,13.9275 5.445,16.5 8.25,16.5C10.2075,16.5 11.8725,15.2475 12.4875,13.5L15.75,13.5L15.75,15C15.75,15.825 16.425,16.5 17.25,16.5C18.075,16.5 18.75,15.825 18.75,15L18.75,13.5C19.575,13.5 20.25,12.825 20.25,12C20.25,11.175 19.575,10.5 18.75,10.5L12.4875,10.5ZM8.25,13.5C7.425,13.5 6.75,12.825 6.75,12C6.75,11.175 7.425,10.5 8.25,10.5C9.075,10.5 9.75,11.175 9.75,12C9.75,12.825 9.075,13.5 8.25,13.5Z" stroke-width="1" fill-rule="evenodd" stroke="#00000000" id="path_0"/></svg>