<?xml version="1.0" encoding="UTF-8"?>
<svg width="24px" height="24px" viewBox="0 0 24 24" version="1.1" xmlns="http://www.w3.org/2000/svg" xmlns:xlink="http://www.w3.org/1999/xlink">
    <title>mdpi/Icon/24x/Solid/Info</title>
    <g id="Icon/24x/Solid/Info" stroke="none" stroke-width="1" fill="none" fill-rule="evenodd">
        <path d="M12,4 C16.418278,4 20,7.581722 20,12 C20,16.418278 16.418278,20 12,20 C7.581722,20 4,16.418278 4,12 C4,7.581722 7.581722,4 12,4 Z M12,11 C11.4871642,11 11.0644928,11.3860402 11.0067277,11.8833789 L11,12 L11,15 L11.0067277,15.1166211 C11.0644928,15.6139598 11.4871642,16 12,16 C12.5128358,16 12.9355072,15.6139598 12.9932723,15.1166211 L13,15 L13,12 L12.9932723,11.8833789 C12.9355072,11.3860402 12.5128358,11 12,11 Z M12,8 C11.4477153,8 11,8.44771525 11,9 C11,9.55228475 11.4477153,10 12,10 C12.5522847,10 13,9.55228475 13,9 C13,8.44771525 12.5522847,8 12,8 Z" id="Shape" fill="#AFAFAF"></path>
    </g>
</svg>