<svg width="18" height="18" viewBox="0 0 18 18" fill="none" xmlns="http://www.w3.org/2000/svg">
<path d="M4.73674 0.0351557C7.56705 0.0351558 10.3974 0.0351559 13.2281 0.035156C13.4667 0.0820311 13.7096 0.112969 13.943 0.177656C16.0463 0.763594 17.3583 2.11641 17.8627 4.24453C17.9039 4.41844 17.9316 4.59609 17.9653 4.77188C17.9653 7.60219 17.9653 10.4325 17.9653 13.2633C17.9194 13.4963 17.8781 13.7302 17.8266 13.9622C17.3171 16.2483 15.1645 17.9934 12.8269 18.0005C10.2661 18.008 7.70533 18.0094 5.14455 17.9948C4.74611 17.9925 4.33783 17.9344 3.95205 17.8345C1.59283 17.2238 0.000489528 15.1519 -0.0013872 12.7172C-0.0027928 10.2497 -0.00419841 7.78266 0.00142647 5.31516C0.00189569 5.01844 0.0262697 4.71937 0.071739 4.42641C0.391426 2.36203 2.0133 0.634218 4.05611 0.172031C4.28205 0.120937 4.51033 0.0806245 4.73768 0.0356245L4.73674 0.0351557ZM12.8799 11.2181C12.8663 11.2106 12.8531 11.2036 12.8396 11.1961L12.8396 10.9866C12.8396 8.81766 12.8396 6.64922 12.8396 4.48031C12.8396 4.41609 12.8419 4.35141 12.8372 4.28766C12.8119 3.90422 12.5602 3.57984 12.2133 3.48141C11.8556 3.37969 11.4853 3.50531 11.2641 3.80438C11.1258 3.99141 11.0888 4.20609 11.0892 4.43297C11.0902 6.62484 11.0897 8.81719 11.0897 11.0091L11.0897 11.2055C10.8038 10.9645 10.5591 10.7147 10.3092 10.4695C10.0852 10.2497 9.81518 10.1625 9.50627 10.2309C9.17674 10.3041 8.95361 10.5084 8.85893 10.8305C8.76236 11.1586 8.83924 11.4558 9.08299 11.7C9.82174 12.4411 10.5614 13.1813 11.3025 13.92C11.7141 14.3306 12.2171 14.3283 12.6324 13.9153C13.0922 13.4578 13.5502 12.998 14.0091 12.5391C14.2983 12.2498 14.5936 11.9658 14.8744 11.6686C15.2588 11.2613 15.1585 10.6069 14.6785 10.3275C14.3367 10.1283 13.9224 10.177 13.6294 10.462C13.3749 10.7091 13.1292 10.9655 12.8799 11.2177L12.8799 11.2181ZM6.87471 6.83719L6.92346 6.81516C7.17658 7.07438 7.42127 7.34203 7.68424 7.59C8.03439 7.92 8.57111 7.89984 8.89971 7.56094C9.22408 7.22625 9.23439 6.69562 8.90205 6.35859C8.13893 5.58422 7.37018 4.81547 6.59627 4.05234C6.26346 3.72422 5.7483 3.73031 5.40658 4.04766C5.28236 4.16297 5.16565 4.28625 5.04565 4.40578C4.40908 5.04234 3.77299 5.67938 3.13549 6.31453C2.93346 6.51609 2.82939 6.75562 2.86174 7.04062C2.90299 7.40531 3.10268 7.66031 3.44861 7.77703C3.79596 7.89469 4.10439 7.80375 4.36361 7.54641C4.57924 7.33219 4.79346 7.11656 5.00908 6.90234C5.03814 6.87375 5.07377 6.85125 5.12533 6.81047L5.12533 7.05047C5.12533 9.21891 5.12533 11.3873 5.12533 13.5563C5.12533 13.6148 5.12346 13.6734 5.12674 13.7316C5.14783 14.1239 5.39955 14.4534 5.75393 14.5538C6.12143 14.6578 6.50908 14.5172 6.7233 14.2003C6.84564 14.0189 6.87564 13.8136 6.87564 13.5994C6.87471 11.4075 6.87518 9.21563 6.87518 7.02375C6.87518 6.96141 6.87518 6.89906 6.87518 6.83672L6.87471 6.83719Z" fill="black"/>
</svg>
