<svg width="319" height="17" viewBox="0 0 319 17" fill="none" xmlns="http://www.w3.org/2000/svg">
<path fill-rule="evenodd" clip-rule="evenodd" d="M0 0.792603C1.05078 0.792603 2.09082 0.999512 3.06152 1.40155C4.03223 1.80359 4.91406 2.39288 5.65723 3.13574C6.39941 3.8786 6.98926 4.76056 7.39062 5.73114C7.79297 6.70172 8 7.742 8 8.7926C8 9.8432 7.79297 10.8835 7.39062 11.8541C6.98926 12.8246 6.39941 13.7066 5.65723 14.4495C4.91406 15.1923 4.03223 15.7816 3.06152 16.1837C2.09082 16.5857 1.05078 16.7926 0 16.7926H318.5C317.449 16.7926 316.409 16.5857 315.438 16.1837C314.468 15.7816 313.586 15.1923 312.843 14.4495C312.101 13.7066 311.511 12.8246 311.109 11.8541C310.707 10.8835 310.5 9.8432 310.5 8.7926C310.5 7.742 310.707 6.70172 311.109 5.73114C311.511 4.76056 312.101 3.8786 312.843 3.13574C313.586 2.39288 314.468 1.80359 315.438 1.40155C316.409 0.999512 317.449 0.792603 318.5 0.792603H0Z" fill="white"/>
<path d="M7.99219 8.7926L310.528 8.79263" stroke="#DFDFDF" stroke-dasharray="6 6"/>
</svg>
