<svg width="10" height="10" viewBox="0 0 10 10" fill="none" xmlns="http://www.w3.org/2000/svg">
<path d="M5.21955 1C5.39202 1.03555 5.5676 1.06016 5.73635 1.10859C6.17834 1.23516 6.55608 1.47246 6.87268 1.80586C7.20666 2.15762 7.426 2.57246 7.52522 3.0457C7.63655 3.57656 7.5885 4.09687 7.37014 4.59551C7.30686 4.74004 7.22795 4.8791 7.1428 5.0123C6.51155 6.00117 5.87287 6.98535 5.2467 7.97734C5.10901 8.19551 4.89573 8.20039 4.75452 7.97637C4.1176 6.96641 3.46819 5.96445 2.82561 4.9582C2.60842 4.61797 2.47424 4.24766 2.43577 3.84336C2.3758 3.21582 2.51623 2.6377 2.87327 2.11953C3.25354 1.56738 3.77717 1.2166 4.43049 1.06348C4.54631 1.03633 4.66487 1.0209 4.78205 1.0002C4.92795 1.0002 5.07366 1.0002 5.21955 1.0002V1ZM6.17112 3.57617C6.16877 2.93613 5.63948 2.40781 5.00061 2.40781C4.36174 2.40781 3.83245 2.93633 3.8303 3.57637C3.82815 4.2166 4.36565 4.75312 5.00471 4.74863C5.64592 4.74414 6.17346 4.21387 6.17112 3.57617Z" fill="black"/>
<path d="M4.57885 9C4.47064 8.98984 4.36264 8.97891 4.25443 8.96973C3.62025 8.91562 2.9974 8.8082 2.40541 8.56328C2.15678 8.46035 1.92064 8.33437 1.73139 8.13691C1.38842 7.7793 1.4015 7.36035 1.76439 7.02051C1.97299 6.8252 2.21967 6.6918 2.48471 6.59473C2.69389 6.51816 2.9099 6.45977 3.12279 6.39375C3.1349 6.39004 3.14818 6.39023 3.16791 6.38769C3.18568 6.41387 3.20482 6.44102 3.2226 6.46875C3.59174 7.04453 3.96107 7.62031 4.32924 8.19668C4.45248 8.38965 4.61674 8.52539 4.84623 8.56582C5.16049 8.62109 5.4306 8.5334 5.61557 8.26992C5.82455 7.97207 6.01283 7.65996 6.20951 7.35352C6.40189 7.05371 6.59369 6.75332 6.78568 6.45332C6.79955 6.43164 6.81439 6.41074 6.83275 6.38379C6.94154 6.4123 7.04994 6.43711 7.15619 6.46953C7.46498 6.56406 7.76654 6.67598 8.03607 6.85938C8.16596 6.94785 8.28314 7.0498 8.37553 7.17852C8.58334 7.46797 8.55912 7.82285 8.31908 8.08652C8.11791 8.30762 7.86615 8.4498 7.59564 8.56309C7.13705 8.75488 6.65639 8.8623 6.16498 8.92207C5.93803 8.94961 5.70971 8.96504 5.48217 8.98652C5.46205 8.98848 5.44232 8.99512 5.4224 8.99961H4.57865L4.57885 9Z" fill="black"/>
</svg>
