<?xml version="1.0" encoding="UTF-8"?>
<svg width="24px" height="24px" viewBox="0 0 24 24" version="1.1" xmlns="http://www.w3.org/2000/svg" xmlns:xlink="http://www.w3.org/1999/xlink">
    <title>mdpi/Icon/24x/Location</title>
    <g id="Icon/24x/Location" stroke="none" stroke-width="1" fill="none" fill-rule="evenodd">
        <path d="M6,20 L18,20 C18.55,20 19,20.45 19,21 C19,21.55 18.55,22 18,22 L6,22 C5.45,22 5,21.55 5,21 C5,20.45 5.45,20 6,20 Z M12,7 C10.9,7 10,7.9 10,9 C10,10.1 10.9,11 12,11 C13.1045695,11 14,10.1045695 14,9 C14,7.8954305 13.1045695,7 12,7 Z M12,2 C15.27,2 19,4.46 19,9.15 C19,12.13 16.87,15.27 12.61,18.54 C12.25,18.82 11.75,18.82 11.39,18.54 C7.13,15.26 5,12.13 5,9.15 C5,4.46 8.73,2 12,2 Z" id="Shape" fill="#AFAFAF"></path>
    </g>
</svg>