<svg width="27" height="25" viewBox="0 0 27 25" fill="none" xmlns="http://www.w3.org/2000/svg">
<rect x="3.39526" y="0.5" width="20.5414" height="20.5414" rx="2.5" fill="#D9F8FF" stroke="#00D1FF"/>
<rect x="24.7716" y="19.3385" width="4.38536" height="22.2115" rx="2.19268" transform="rotate(90 24.7716 19.3385)" fill="#D9F8FF" stroke="#00D1FF"/>
<path d="M1.27368 10.0678C1.27368 9.23938 1.94525 8.56781 2.77368 8.56781H4.15904C4.98747 8.56781 5.65904 9.23938 5.65904 10.0678V23.7239H2.77368C1.94525 23.7239 1.27368 23.0523 1.27368 22.2239V10.0678Z" fill="#D9F8FF" stroke="#00D1FF"/>
<path d="M21.662 10.0678C21.662 9.23938 22.3336 8.56781 23.162 8.56781H24.5473C25.3758 8.56781 26.0473 9.23938 26.0473 10.0678V22.2239C26.0473 23.0523 25.3758 23.7239 24.5473 23.7239H21.662V10.0678Z" fill="#D9F8FF" stroke="#00D1FF"/>
<path d="M14.221 10.9507L15.731 6.15069H17.441V13.2707H16.321V9.60069L16.421 7.22069L15.921 8.91069L14.561 13.2707H13.351L11.911 8.80069L11.431 7.18069L11.531 9.60069V13.2707H10.421V6.15069H12.121L13.681 10.9507L13.951 12.0207L14.221 10.9507Z" fill="#333333"/>
</svg>
