<svg width="46" height="46" viewBox="0 0 46 46" fill="none" xmlns="http://www.w3.org/2000/svg">
<g clip-path="url(#clip0_380_5472)">
<path d="M15 32V19C15 18.2044 15.3161 17.4413 15.8787 16.8787C16.4413 16.3161 17.2044 16 18 16H28C28.7956 16 29.5587 16.3161 30.1213 16.8787C30.6839 17.4413 31 18.2044 31 19V25C31 25.7956 30.6839 26.5587 30.1213 27.1213C29.5587 27.6839 28.7956 28 28 28H19L15 32Z" stroke="#3FC1C9" stroke-width="1.75" stroke-linecap="round" stroke-linejoin="round"/>
<path d="M23 22V22.01" stroke="#3FC1C9" stroke-width="1.75" stroke-linecap="round" stroke-linejoin="round"/>
<path d="M19 22V22.01" stroke="#3FC1C9" stroke-width="1.75" stroke-linecap="round" stroke-linejoin="round"/>
<path d="M27 22V22.01" stroke="#3FC1C9" stroke-width="1.75" stroke-linecap="round" stroke-linejoin="round"/>
</g>
<circle cx="23" cy="23" r="22.5" stroke="#DADEE3"/>
<defs>
<clipPath id="clip0_380_5472">
<rect width="24" height="24" fill="white" transform="translate(11 11)"/>
</clipPath>
</defs>
</svg>
