<svg width="19" height="19" viewBox="0 0 19 19" fill="none" xmlns="http://www.w3.org/2000/svg">
<path fill-rule="evenodd" clip-rule="evenodd" d="M17.8472 12.6054L13.4306 10.6263L13.4184 10.6207C12.9526 10.4215 12.4177 10.4708 11.9963 10.7519C11.9718 10.7681 11.9483 10.7856 11.9259 10.8044L9.64406 12.7498C8.19844 12.0476 6.70594 10.5663 6.00375 9.13944L7.95187 6.82288C7.97062 6.79944 7.98844 6.77601 8.00531 6.75069C8.28032 6.33046 8.32677 5.80048 8.12906 5.33882V5.32757L6.14437 0.903506C5.88009 0.29366 5.246 -0.0695517 4.58625 0.0110059C1.95833 0.35681 -0.00475144 2.59919 0 5.24976C0 12.6935 6.05625 18.7498 13.5 18.7498C16.1506 18.7545 18.3929 16.7914 18.7388 14.1635C18.8195 13.504 18.4567 12.87 17.8472 12.6054ZM13.5 17.2498C6.87558 17.2425 1.50723 11.8742 1.5 5.24976C1.4927 3.35594 2.89195 1.75084 4.76906 1.49976C4.76869 1.5035 4.76869 1.50727 4.76906 1.51101L6.73781 5.91726L4.8 8.23663C4.78033 8.25926 4.76246 8.2834 4.74656 8.30882C4.45961 8.74914 4.42405 9.30752 4.65281 9.78069C5.50219 11.5179 7.2525 13.2551 9.00844 14.1035C9.48515 14.3302 10.0459 14.2896 10.485 13.9966C10.5091 13.9804 10.5322 13.9629 10.5544 13.9441L12.8334 11.9998L17.2397 13.9732C17.2397 13.9732 17.2472 13.9732 17.25 13.9732C17.002 15.8531 15.3962 17.2561 13.5 17.2498Z" fill="#ADADAD"/>
</svg>
