<svg width="19" height="19" viewBox="0 0 19 19" fill="none" xmlns="http://www.w3.org/2000/svg">
<g clip-path="url(#clip0_380_5436)">
<path d="M9.49923 18.7121C14.5869 18.7121 18.7114 14.5877 18.7114 9.49999C18.7114 4.41228 14.5869 0.287872 9.49923 0.287872C4.41152 0.287872 0.287109 4.41228 0.287109 9.49999C0.287109 14.5877 4.41152 18.7121 9.49923 18.7121Z" fill="#FFCC33"/>
<path d="M9.49995 16.9042C13.5892 16.9042 16.9042 13.5893 16.9042 9.50001C16.9042 5.41076 13.5892 2.09576 9.49995 2.09576C5.4107 2.09576 2.0957 5.41076 2.0957 9.50001C2.0957 13.5893 5.4107 16.9042 9.49995 16.9042Z" fill="#EDB529"/>
<path d="M11.8485 6.36351C10.736 7.21596 9.39228 7.80834 8.36645 8.73303L8.352 8.74748C7.03721 8.74748 5.72241 9.45544 5 10.568C5.07224 9.70106 5.65017 8.93531 6.37259 8.45851C7.095 7.98172 7.94745 7.7361 8.7999 7.54827C9.19 7.46158 9.59456 7.38934 9.97021 7.27375C10.3025 7.17261 10.6204 7.04258 10.9238 6.88365C11.2561 6.72472 11.5595 6.55134 11.8485 6.36351Z" fill="white"/>
<path d="M12.7866 6.1759C12.5554 6.63825 12.3242 7.08615 12.0353 7.50515C11.7174 7.95304 11.3129 8.34315 10.8939 8.7188C10.8939 8.7188 10.8794 8.7188 10.8794 8.73325C10.0559 9.45567 9.13117 10.0769 8.4232 10.9005C8.3943 10.9294 8.36541 10.9583 8.35096 10.9872C7.90306 11.5362 7.57075 12.143 7.33958 12.8077C7.33958 12.8221 7.32513 12.8366 7.32513 12.8366C7.12285 13.4145 7.00727 14.0358 6.99282 14.6426C6.99282 14.7582 6.99282 14.8738 6.99282 14.9749C6.67496 14.3825 6.54492 13.7179 6.54492 13.0388C6.54492 12.2875 6.70385 11.5218 6.92058 10.8716C7.10841 10.3081 7.41182 9.80242 7.77303 9.34008C7.94641 9.12335 8.14868 8.92108 8.35096 8.7188L8.36541 8.70435C9.39124 7.77966 10.7205 7.18728 11.8474 6.33483C11.9919 6.21925 12.1364 6.10366 12.2809 5.97363C12.6132 5.67021 12.9455 5.30901 13.09 4.89001C13.1333 4.78887 13.1767 4.67328 13.22 4.57214C13.2778 5.15008 13.0322 5.68466 12.7866 6.1759Z" fill="white"/>
<path d="M13.3218 13.9491C13.1917 14.4692 12.9895 14.9605 12.7294 15.4373C12.0648 16.6509 11.0245 17.7201 9.68081 18.0524C9.99867 17.8935 10.2587 17.6623 10.4899 17.4022C11.6169 16.203 12.2959 14.527 12.0792 12.8944C11.9925 12.2297 11.7325 11.5651 11.2701 11.0739C10.8078 10.5826 10.1143 10.2937 9.44963 10.4092C9.03063 10.4815 8.66942 10.6982 8.35156 11.0016C8.38046 10.9727 8.39491 10.9438 8.4238 10.9149C9.13177 10.0769 10.0565 9.45566 10.88 8.74769C10.88 8.74769 10.8945 8.74769 10.8945 8.73325C11.3713 8.83438 11.7903 9.15225 12.1226 9.51345C13.2351 10.6549 13.6974 12.3887 13.3218 13.9491Z" fill="white"/>
<path d="M10.7358 5.8724C10.5914 6.52257 10.1146 6.97047 9.68113 6.86933C9.24768 6.76819 9.03095 6.16136 9.17544 5.51119C9.31992 4.86102 9.79671 4.41312 10.2302 4.51426C10.6636 4.61539 10.8948 5.22222 10.7358 5.8724Z" fill="white"/>
</g>
<defs>
<clipPath id="clip0_380_5436">
<rect width="19" height="19" fill="white"/>
</clipPath>
</defs>
</svg>
