<svg id="vector" xmlns="http://www.w3.org/2000/svg" width="800" height="800" viewBox="0 0 24 24"><path fill="#000000" d="M9,12C9,12.552 8.552,13 8,13C7.448,13 7,12.552 7,12C7,11.448 7.448,11 8,11C8.552,11 9,11.448 9,12Z" id="path_0"/><path fill="#000000" d="M13,12C13,12.552 12.552,13 12,13C11.448,13 11,12.552 11,12C11,11.448 11.448,11 12,11C12.552,11 13,11.448 13,12Z" id="path_1"/><path fill="#000000" d="M16,13C16.552,13 17,12.552 17,12C17,11.448 16.552,11 16,11C15.448,11 15,11.448 15,12C15,12.552 15.448,13 16,13Z" id="path_2"/><path fill="#000000" d="M12,1.25C6.063,1.25 1.25,6.063 1.25,12C1.25,17.937 6.063,22.75 12,22.75C17.937,22.75 22.75,17.937 22.75,12C22.75,6.063 17.937,1.25 12,1.25ZM2.75,12C2.75,6.891 6.891,2.75 12,2.75C17.109,2.75 21.25,6.891 21.25,12C21.25,17.109 17.109,21.25 12,21.25C6.891,21.25 2.75,17.109 2.75,12Z" fill-rule="evenodd" id="path_3"/></svg>