<svg width="21" height="21" viewBox="0 0 21 21" fill="none" xmlns="http://www.w3.org/2000/svg">
<path d="M1.05005 18.1078V6.02352C1.58093 3.54636 4.17401 4.28682 6.03881 4.18476C6.79523 4.39686 6.72089 5.32758 5.89601 5.39856C5.01485 5.47458 3.82163 5.26626 2.99297 5.40612C2.54273 5.48214 2.21639 5.96682 2.22731 6.40866L2.22941 17.794C2.28191 18.2737 2.59355 18.6374 3.07445 18.7172L17.7228 18.7352C18.2961 18.6937 18.6611 18.3677 18.7341 17.794L18.743 10.9132C18.9513 10.3436 19.6594 10.3226 19.8963 10.885L19.9097 18.0481C19.7514 19.0246 18.9719 19.7999 17.9807 19.9138L2.94803 19.9121C1.97867 19.7684 1.26341 19.0523 1.05047 18.1069L1.05005 18.1078Z" fill="#333333"/>
<path d="M14.3867 1.04998C14.5421 1.13146 14.6769 1.22932 14.7928 1.36204C16.2834 3.08782 18.1129 4.64014 19.6002 6.35458C20.0361 6.85732 20.0353 7.03288 19.6002 7.53436L14.6248 12.6907C14.3304 13.0246 13.6126 12.7621 13.6126 12.3417V9.70744C12.6949 9.68056 11.8415 9.7003 10.9519 9.93886C9.48026 10.3337 8.13122 11.3123 7.2971 12.584C7.11902 12.8553 6.91952 13.3728 6.66164 13.5328C6.28532 13.7659 5.80484 13.5068 5.76326 13.0805C5.69018 12.3245 5.75234 11.1556 5.89346 10.4067C6.57806 6.77038 9.90319 4.08238 13.6126 4.18108V1.54684C13.6126 1.3591 13.8798 1.10416 14.0549 1.04956H14.3863L14.3867 1.04998ZM14.829 10.7394L18.4737 6.93124L14.829 3.14998V4.8262C14.829 4.88332 14.7252 5.10046 14.6815 5.15758C14.3821 5.54524 13.3329 5.3659 12.8583 5.39782C10.4316 5.56078 8.16818 7.35208 7.34918 9.61504C7.19378 10.0447 7.0514 10.5495 7.0367 10.9973C8.06444 9.86368 9.46556 9.03712 10.9675 8.70154C11.5236 8.57722 12.1061 8.51296 12.6723 8.4907C13.0465 8.476 14.1582 8.43778 14.4493 8.55874C14.6206 8.62972 14.829 8.87878 14.829 9.06316V10.7394Z" fill="#333333"/>
</svg>
