<svg width="19" height="19" viewBox="0 0 19 19" fill="none" xmlns="http://www.w3.org/2000/svg">
<path d="M16.2924 2.16945C17.3346 2.31616 18.1139 2.80872 18.6231 3.70024C18.872 4.13704 18.9995 4.60902 18.9995 5.11486C18.9988 8.75928 19.0021 12.403 18.9975 16.0475C18.9955 17.6148 17.6426 18.9617 16.0687 18.963C11.6987 18.967 7.32934 18.967 2.95935 18.963C1.483 18.9617 0.199151 17.798 0.0385047 16.3289C0.0172622 16.1331 0.00332133 15.9346 0.00332133 15.7375C0.00132984 12.2583 -0.00398037 8.77854 0.00531324 5.29941C0.00863239 4.07398 0.522436 3.11408 1.61775 2.52393C1.95232 2.34404 2.33735 2.25707 2.75025 2.1097C2.75025 1.90126 2.75025 1.63241 2.75025 1.36356C2.75025 1.1903 2.74693 1.01704 2.75158 0.844446C2.76618 0.338608 3.08814 0.00802078 3.56211 0.0060293C4.04472 0.00403781 4.38526 0.345246 4.39588 0.855067C4.40385 1.22615 4.39721 1.59723 4.39854 1.96831C4.39854 2.01611 4.40584 2.0639 4.41115 2.12763H8.70015C8.70015 1.82559 8.70015 1.52354 8.70015 1.22216C8.70015 1.07347 8.69551 0.925433 8.70214 0.776735C8.72139 0.32865 9.07455 0.00337398 9.53193 0.0060293C9.97404 0.00868461 10.3265 0.335953 10.3378 0.77408C10.3491 1.21752 10.3405 1.66162 10.3405 2.12497H14.6321C14.6361 2.04531 14.6434 1.95835 14.6441 1.87139C14.6461 1.5169 14.6348 1.16176 14.6487 0.807935C14.666 0.388395 14.9521 0.0644461 15.3285 0.0100121C15.7454 -0.0503964 16.1277 0.166676 16.2452 0.549706C16.2857 0.68048 16.289 0.825195 16.291 0.963935C16.297 1.35825 16.293 1.75323 16.293 2.16679L16.2924 2.16945ZM9.54255 17.2756C11.6861 17.2756 13.8296 17.2769 15.9724 17.2756C16.7936 17.2749 17.3578 16.7133 17.3585 15.8961C17.3598 12.3267 17.3591 8.75729 17.3585 5.18788C17.3585 5.08167 17.3545 4.9728 17.3319 4.86924C17.1792 4.16824 16.6727 3.79849 15.8569 3.79849C11.6442 3.79716 7.43157 3.79716 3.21958 3.80048C3.03171 3.80048 2.83721 3.81243 2.65798 3.86221C2.04526 4.03282 1.71135 4.52804 1.71135 5.25493C1.70936 8.77522 1.71003 12.2948 1.71268 15.8151C1.71268 15.9784 1.72065 16.1477 1.76181 16.3044C1.91648 16.8939 2.43095 17.2749 3.0649 17.2756C5.225 17.2775 7.38444 17.2762 9.54454 17.2762L9.54255 17.2756Z" fill="#333333"/>
<path d="M8.24272 10.7532C7.65523 10.167 7.08965 9.61406 6.53735 9.04914C6.05806 8.55857 6.26451 7.83035 6.92569 7.65577C7.23702 7.57345 7.48928 7.68896 7.70701 7.90736C8.19625 8.39726 8.68682 8.88518 9.17474 9.37707C9.23847 9.4408 9.28693 9.5198 9.35862 9.61274C9.45886 9.52046 9.52458 9.46337 9.58631 9.40164C10.0882 8.90111 10.5834 8.39328 11.0919 7.90005C11.5871 7.42011 12.3107 7.61992 12.4886 8.27777C12.5722 8.58778 12.4627 8.84269 12.2443 9.06109C11.7491 9.55631 11.2532 10.0515 10.7586 10.5474C10.6956 10.6105 10.6365 10.6762 10.5143 10.8056C10.6146 10.8733 10.7155 10.9205 10.7905 10.9942C11.2778 11.4741 11.7617 11.9574 12.2423 12.4446C12.4634 12.6683 12.5762 12.9339 12.4853 13.2532C12.389 13.5891 12.1474 13.7716 11.8214 13.8466C11.5307 13.9137 11.2897 13.8081 11.0846 13.601C10.5847 13.0985 10.0829 12.598 9.58167 12.0968C9.52458 12.0397 9.46351 11.9873 9.38517 11.9142C9.05724 12.2442 8.73927 12.5641 8.42063 12.8841C8.1936 13.1118 7.96723 13.3395 7.73821 13.5658C7.34854 13.9509 6.87988 13.9774 6.53602 13.6349C6.1729 13.2738 6.18485 12.8051 6.57386 12.4154C7.12019 11.8671 7.66984 11.3228 8.24272 10.7532Z" fill="#333333"/>
</svg>
