<svg width="20" height="20" viewBox="0 0 20 20" fill="none" xmlns="http://www.w3.org/2000/svg">
<path d="M19.9539 13.532C19.8991 13.6759 19.8611 13.8297 19.7856 13.9619C19.5958 14.2923 19.3051 14.4789 18.9198 14.5047C18.8425 14.5098 18.7647 14.5117 18.6869 14.5117C16.562 14.5117 14.4372 14.5113 12.3128 14.5131C12.0353 14.5131 11.7705 14.4822 11.5375 14.3153C11.2112 14.0819 11.0626 13.7547 11.0598 13.3642C11.0533 12.5673 11.05 11.7705 11.0598 10.9741C11.0687 10.2719 11.5361 9.81953 12.2453 9.81016C12.692 9.80406 13.1392 9.80875 13.5864 9.80875C15.2964 9.80875 17.0069 9.80969 18.7169 9.80875C19.1139 9.80875 19.4687 9.91703 19.7036 10.2498C19.8194 10.4139 19.8728 10.6216 19.9544 10.8095V13.532H19.9539ZM13.7523 12.9508V12.9559C13.8039 12.9559 13.8559 12.9569 13.9075 12.9559C14.2792 12.9484 14.5066 12.7202 14.5136 12.3461C14.5155 12.2364 14.5173 12.1263 14.5126 12.0166C14.4995 11.7109 14.3012 11.4873 13.9989 11.4602C13.8264 11.4447 13.6497 11.4484 13.4776 11.4681C13.2405 11.4958 13.0525 11.6739 13.0248 11.9078C13.0023 12.0981 13.0014 12.2955 13.022 12.4863C13.0497 12.7347 13.2526 12.9194 13.5001 12.9498C13.5826 12.9602 13.668 12.9513 13.7519 12.9513L13.7523 12.9508Z" fill="#E6B417"/>
<path d="M18.7633 9.01469H12.2444C11.5797 9.01469 11.0355 9.26406 10.6337 9.80125C10.3806 10.1397 10.263 10.525 10.262 10.945C10.2597 11.7812 10.2559 12.6175 10.2634 13.4533C10.2709 14.3387 10.9459 15.1295 11.8216 15.2861C11.98 15.3142 12.1436 15.3236 12.3044 15.3236C14.372 15.3259 16.4397 15.325 18.5073 15.325H18.7703C18.7773 15.3986 18.7877 15.4544 18.7877 15.5106C18.7886 16.4762 18.783 17.4423 18.7895 18.408C18.7933 18.9691 18.408 19.39 17.9823 19.4912C17.8389 19.5255 17.688 19.5428 17.5403 19.5428C12.1281 19.5452 6.71594 19.5447 1.30375 19.5456C0.814374 19.5456 0.39953 19.3937 0.181092 18.9306C0.0906234 18.7394 0.0526547 18.5069 0.0517172 18.2927C0.042811 15.9592 0.0460923 13.6258 0.0460923 11.2923C0.0460923 9.54859 0.0460923 7.80531 0.0460923 6.06156C0.0460923 5.61297 0.209217 5.24453 0.60953 5.02609C0.774061 4.93656 0.976092 4.91359 1.16265 4.86765C1.2175 4.85406 1.2789 4.86437 1.33703 4.86437C6.74265 4.86437 12.1487 4.86531 17.5544 4.86297C17.9673 4.86297 18.3325 4.96937 18.5697 5.32234C18.6737 5.47703 18.768 5.67531 18.7712 5.85578C18.7914 6.87953 18.783 7.90375 18.7834 8.9275C18.7834 8.94578 18.7745 8.96453 18.7623 9.01375L18.7633 9.01469Z" fill="#E6B417"/>
<path d="M16.4753 4.05578H7.4261C7.42422 4.04968 7.42235 4.04312 7.42047 4.03703C7.61735 3.98265 7.81422 3.92734 8.0111 3.87343C10.2452 3.26359 12.4792 2.65468 14.7128 2.04297C15.2106 1.90656 15.6386 2.00218 15.9663 2.41422C16.0525 2.52297 16.1177 2.65797 16.1584 2.79156C16.2738 3.1689 16.3717 3.5514 16.4739 3.93203C16.4833 3.96718 16.4753 4.00656 16.4753 4.05531V4.05578Z" fill="#E6B417"/>
<path d="M3.71687 4.03797C3.77171 4.00797 3.82515 3.97562 3.88093 3.94797C6.12109 2.8375 8.36171 1.72797 10.6014 0.616562C10.8203 0.507812 11.0439 0.437968 11.2919 0.457186C11.6528 0.484843 11.9434 0.64328 12.1277 0.951249C12.303 1.24469 12.4464 1.55687 12.6133 1.87891C12.5491 1.90422 12.5055 1.92672 12.4586 1.93937C9.90484 2.63781 7.35296 3.34422 4.79406 4.02344C4.45609 4.11297 4.08109 4.06469 3.72343 4.08016C3.72109 4.06562 3.71874 4.05156 3.7164 4.03703V4.03797H3.71687Z" fill="#E6B417"/>
</svg>
