<svg width="19" height="20" viewBox="0 0 19 20" fill="none" xmlns="http://www.w3.org/2000/svg">
<path d="M15.4663 10.651C16.0851 10.7649 16.6509 10.9723 17.1542 11.3257C18.2713 12.1104 18.8918 13.1817 18.9897 14.5482C19.1357 16.5939 17.7155 18.5091 15.6156 18.9216C15.3076 18.9825 14.9863 18.9819 14.6705 18.9958C14.3608 19.0096 14.0505 19.0085 13.7408 19.0085C9.73903 19.009 5.73725 19.0079 1.73601 19.0107C1.2875 19.0107 0.873275 18.9255 0.530391 18.6147C0.22622 18.3393 0.0453764 18.0014 0.0149593 17.5888C0.00666376 17.4788 0.000580648 17.3687 0.000580648 17.2581C2.76103e-05 12.0905 -0.00107884 6.92293 0.00279243 1.75479C0.00279243 1.54298 0.0177248 1.32453 0.0713695 1.12101C0.230644 0.515985 0.777046 0.0735541 1.40143 0.0176972C1.51093 0.00774252 1.62154 0.00165905 1.73214 0.00165905C5.73393 0.00110601 9.73571 0.00165911 13.7369 0C14.1467 0 14.5355 0.0630466 14.864 0.326846C15.2578 0.642631 15.4674 1.05188 15.4674 1.56289C15.4668 4.50228 15.4674 7.44113 15.4674 10.3805C15.4674 10.4629 15.4674 10.5453 15.4674 10.651H15.4663ZM14.129 10.6438C14.1318 10.599 14.1368 10.5514 14.1368 10.5044C14.1368 7.55948 14.1373 4.61455 14.1368 1.66907C14.1368 1.41412 14.0715 1.34886 13.8216 1.34831C9.76613 1.34831 5.7107 1.34831 1.65527 1.34831C1.39479 1.34831 1.34612 1.39919 1.34612 1.6663C1.34612 6.89417 1.34612 12.122 1.34612 17.3505C1.34612 17.6132 1.39645 17.6624 1.66135 17.6624C4.94419 17.6624 8.22758 17.6624 11.5104 17.6624C11.5663 17.6624 11.6227 17.6535 11.694 17.6474C9.49182 15.1328 10.7948 11.2676 14.129 10.6438ZM14.817 11.9489C13.2901 11.9147 11.939 13.1855 11.9434 14.7993C11.9479 16.3921 13.2138 17.6607 14.8076 17.6613C16.3937 17.6618 17.6596 16.3849 17.6607 14.7877C17.6619 13.1894 16.3213 11.9274 14.8176 11.9489H14.817Z" fill="#333333"/>
<path d="M7.74538 7.06504C9.04834 7.06504 10.3513 7.06393 11.6543 7.06559C12.0541 7.06614 12.3444 7.32054 12.3749 7.6861C12.4036 8.03396 12.1664 8.33869 11.8202 8.39288C11.7322 8.40671 11.6421 8.41058 11.5525 8.41058C9.00852 8.41169 6.4651 8.41224 3.92112 8.40892C3.78563 8.40892 3.64184 8.39786 3.5163 8.35306C3.23259 8.25186 3.05562 7.94603 3.09378 7.66619C3.13691 7.34432 3.38744 7.10154 3.71318 7.06836C3.78176 7.06172 3.85089 7.06504 3.92002 7.06504C5.19532 7.06504 6.47063 7.06504 7.74594 7.06504H7.74538Z" fill="#333333"/>
<path d="M7.71892 4.87123C6.40933 4.87123 5.09973 4.87178 3.79014 4.87123C3.44283 4.87123 3.19396 4.67877 3.11101 4.35248C3.01644 3.98029 3.29683 3.58044 3.67898 3.54505C3.7199 3.54118 3.76138 3.54283 3.80286 3.54283C6.42205 3.54283 9.04124 3.54117 11.661 3.54726C11.7987 3.54726 11.9519 3.58431 12.0708 3.65178C12.3318 3.8 12.4369 4.12186 12.3512 4.40779C12.2699 4.67767 12.0099 4.87068 11.7108 4.87068C10.3807 4.87234 9.05009 4.87123 7.72003 4.87123H7.71892Z" fill="#333333"/>
<path d="M6.62817 11.9458C5.69021 11.9458 4.75171 11.9475 3.81376 11.9447C3.46147 11.9436 3.20707 11.755 3.11803 11.4398C3.01683 11.0809 3.25076 10.6926 3.61687 10.6229C3.71753 10.6036 3.8226 10.6003 3.92547 10.6003C5.7328 10.5992 7.54013 10.5986 9.34746 10.6014C9.47687 10.6014 9.61291 10.6097 9.73403 10.6495C10.0365 10.7479 10.2141 11.0704 10.1626 11.3906C10.1151 11.6881 9.8474 11.9265 9.52498 11.943C9.3187 11.9536 9.11131 11.9464 8.90447 11.9464C8.1457 11.9464 7.38694 11.9464 6.62817 11.9464V11.9458Z" fill="#333333"/>
<path d="M6.1935 14.1393C7.00039 14.1393 7.80672 14.1376 8.6136 14.1398C8.96201 14.1409 9.233 14.3771 9.28775 14.7183C9.33587 15.0186 9.13069 15.3399 8.82209 15.4373C8.75131 15.4594 8.67388 15.4666 8.59922 15.4671C6.99264 15.4688 5.38607 15.4693 3.77949 15.4677C3.38739 15.4677 3.08488 15.1679 3.09041 14.7957C3.09594 14.4274 3.39071 14.1409 3.77396 14.1398C4.58084 14.1376 5.38717 14.1393 6.19406 14.1393H6.1935Z" fill="#333333"/>
<path d="M14.343 14.7473C14.4205 14.6732 14.4752 14.6229 14.5278 14.5709C14.8988 14.2009 15.2638 13.8243 15.6416 13.4609C16.0199 13.0976 16.6066 13.2392 16.7598 13.7242C16.8367 13.967 16.7908 14.1954 16.6127 14.3762C16.0176 14.9807 15.4198 15.5824 14.8131 16.1753C14.5526 16.4297 14.1633 16.4208 13.8984 16.167C13.5898 15.8716 13.2862 15.5697 12.9914 15.26C12.7331 14.9884 12.7459 14.5858 13.0041 14.3292C13.2618 14.0732 13.6611 14.066 13.9354 14.322C14.0759 14.4531 14.2015 14.5991 14.3419 14.7479L14.343 14.7473Z" fill="#333333"/>
</svg>
