<svg width="18" height="18" viewBox="0 0 18 18" fill="none" xmlns="http://www.w3.org/2000/svg">
<path d="M0 9.66375C0 9.2187 0 8.77366 0 8.32862C0.0107975 8.27838 0.0234727 8.22862 0.0314534 8.17792C0.0981162 7.76292 0.137081 7.34182 0.234258 6.93433C0.774602 4.67531 2.01397 2.88621 3.91761 1.56188C5.02881 0.788686 6.2616 0.307024 7.60143 0.102341C7.8432 0.0652544 8.08591 0.0338008 8.32862 0C8.77366 0 9.2187 0 9.66375 0C9.93509 0.0366175 10.2083 0.0643155 10.4783 0.110792C12.2289 0.412652 13.7729 1.1497 15.0761 2.35808C16.7854 3.94296 17.7548 5.90153 17.9637 8.23003C18.0482 9.17035 17.9853 10.1013 17.7727 11.0191C16.8882 14.8371 13.6142 17.7299 9.54403 17.9848C8.35913 18.059 7.19816 17.9055 6.07335 17.513C4.18801 16.8558 2.67965 15.7 1.55014 14.0574C0.783521 12.9424 0.299513 11.711 0.100464 10.3707C0.0652543 10.1355 0.0338007 9.89941 0.000938754 9.66375H0ZM8.99806 1.26565C4.73634 1.26471 1.27082 4.7246 1.26612 8.98444C1.26143 13.2537 4.72601 16.7248 8.99383 16.7258C13.256 16.7267 16.7215 13.2668 16.7262 9.00651C16.7309 4.73587 13.2673 1.26659 8.99806 1.26565Z" fill="#333333"/>
<path d="M8.86806 4.46582C9.45394 4.4846 9.99522 4.57896 10.4863 4.87472C11.3505 5.39534 11.6449 6.33895 11.2275 7.25767C10.9839 7.79379 10.5867 8.20222 10.137 8.56699C10.0778 8.61487 10.0192 8.66275 9.96001 8.71064C9.62153 8.98292 9.43657 9.33267 9.42718 9.77067C9.42483 9.8702 9.42248 9.96972 9.42061 10.0688C9.41591 10.311 9.32014 10.4655 9.08401 10.5176C8.89998 10.5584 8.7014 10.5706 8.51409 10.5514C8.25072 10.5237 8.11599 10.3786 8.08547 10.1176C7.98126 9.23361 8.20378 8.47216 8.93284 7.90458C9.11264 7.76469 9.29338 7.62432 9.46145 7.47034C9.57224 7.36847 9.6774 7.25298 9.75721 7.12576C10.1004 6.57743 9.84546 5.98639 9.20841 5.87888C8.97134 5.83898 8.71924 5.85118 8.47841 5.87794C8.23946 5.90423 8.04135 6.03756 7.893 6.23238C7.83291 6.31125 7.77469 6.392 7.7193 6.47509C7.5794 6.68541 7.39021 6.79057 7.13624 6.73846C6.85409 6.68071 6.64331 6.53518 6.56491 6.23755C6.50623 6.01362 6.56162 5.80659 6.65504 5.60941C6.86677 5.16343 7.232 4.88411 7.67611 4.69491C8.06435 4.52967 8.47418 4.47803 8.86712 4.46582H8.86806Z" fill="#333333"/>
<path d="M7.82753 12.2881C7.83035 11.7749 8.22985 11.3778 8.74015 11.3801C9.24153 11.383 9.65559 11.8017 9.64996 12.2998C9.64432 12.7984 9.22463 13.2138 8.72795 13.2129C8.22844 13.212 7.82471 12.797 7.82753 12.2876V12.2881Z" fill="#333333"/>
</svg>
