<?xml version="1.0" encoding="UTF-8"?>
<svg width="20px" height="15px" viewBox="0 0 20 15" version="1.1" xmlns="http://www.w3.org/2000/svg" xmlns:xlink="http://www.w3.org/1999/xlink">
    <title>mdpi/Bus Amenities / AC / No AC</title>
    <defs>
        <path d="M20.3593,5.14662524 C20.5543,5.34162524 20.5543,5.65762524 20.3593,5.85362524 L6.3603,19.8606252 C6.1653,20.0566252 5.8483,20.0566252 5.6523,19.8606252 C5.4573,19.6656252 5.4573,19.3496252 5.6523,19.1536252 L19.6523,5.14662524 C19.8473,4.95162524 20.1643,4.95062524 20.3593,5.14662524 Z M20,8.49862524 C21.104,8.49862524 22,9.39462524 22,10.4986252 L22,10.4986252 L22,14.4986252 C22,15.6026252 21.104,16.4986252 20,16.4986252 L20,16.4986252 L18,16.4986252 C18,15.9456252 18.447,15.4986252 19,15.4986252 L19,15.4986252 L20,15.4986252 C20.553,15.4986252 21,15.0516252 21,14.4986252 L21,14.4986252 L21,10.4986252 C21,9.94662524 20.553,9.49862524 20,9.49862524 L20,9.49862524 L18.424,9.49862524 L19.423,8.49862524 Z M14.5948,8.49862524 L13.5958,9.49862524 L3.9998,9.49862524 C3.4478,9.49862524 2.9998,9.94662524 2.9998,10.4986252 L2.9998,10.4986252 L2.9998,14.9936252 C2.9998,15.2726252 3.2258,15.4986252 3.5048,15.4986252 L3.5048,15.4986252 L5.0088,15.4986252 C5.5608,15.4986252 6.0088,15.9456252 6.0088,16.4986252 L6.0088,16.4986252 L3.5048,16.4986252 C2.6738,16.4986252 1.9998,15.8246252 1.9998,14.9936252 L1.9998,14.9936252 L1.9998,10.4986252 C1.9998,9.39462524 2.8958,8.49862524 3.9998,8.49862524 L3.9998,8.49862524 L14.5948,8.49862524 Z M9.598,13.4986252 L8.599,14.4986252 L4.5,14.4986252 C4.224,14.4986252 4,14.2746252 4,13.9986252 C4,13.7226252 4.224,13.4986252 4.5,13.4986252 L4.5,13.4986252 L9.598,13.4986252 Z M19.5,13.4986252 C19.776,13.4986252 20,13.7226252 20,13.9986252 C20,14.2746252 19.776,14.4986252 19.5,14.4986252 L19.5,14.4986252 L13.427,14.4986252 L14.426,13.4986252 Z M18.5,10.4986252 C18.776,10.4986252 19,10.7226252 19,10.9986252 C19,11.2746252 18.776,11.4986252 18.5,11.4986252 L18.5,11.4986252 L16.5,11.4986252 C16.478,11.4986252 16.459,11.4886252 16.437,11.4856252 L16.437,11.4856252 L17.424,10.4986252 Z" id="path-1"></path>
    </defs>
    <g id="Page-1" stroke="none" stroke-width="1" fill="none" fill-rule="evenodd">
        <g id="Bus-Amenities" transform="translate(-107.000000, -339.000000)">
            <g id="Bus-Amenities-/-AC-/-No-AC" transform="translate(105.000000, 334.000000)">
                <rect id="Rectangle" x="0" y="0" width="24" height="24"></rect>
                <mask id="mask-2" fill="white">
                    <use xlink:href="#path-1"></use>
                </mask>
                <use id="Combined-Shape" fill="#000000" fill-rule="evenodd" xlink:href="#path-1"></use>
                <g id="color-/-black" mask="url(#mask-2)">
                    <rect id="Rectangle" x="0" y="0" width="24" height="24"></rect>
                    <rect id="Rectangle" fill="#000000" fill-rule="evenodd" x="0" y="0" width="24" height="24"></rect>
                </g>
            </g>
        </g>
    </g>
</svg>