<?xml version="1.0" encoding="UTF-8"?>
<svg width="48px" height="48px" viewBox="0 0 48 48" version="1.1" xmlns="http://www.w3.org/2000/svg" xmlns:xlink="http://www.w3.org/1999/xlink">
    <title>mdpi/Icon/48x/Amenities/NoAmenities</title>
    <g id="Icon/48x/Amenities/NoAmenities" stroke="none" stroke-width="1" fill="none" fill-rule="evenodd">
        <rect id="Rectangle" x="0" y="0" width="24" height="24"></rect>
        <rect id="Rectangle" x="0" y="0" width="24" height="24"></rect>
        <path d="M40.5745766,12.876228 C40.8094229,13.4025041 40.9318966,13.984072 40.9062234,14.5863742 L40.8727557,14.9499672 L40.6491214,16.5242718 C40.4805279,17.7119917 40.8213212,18.9086846 41.5772463,19.8302069 L41.8163835,20.0981243 L42.9254643,21.238138 C44.2785833,22.6309854 44.3537566,24.7953583 43.1509841,26.2724063 L42.9254643,26.5256301 L41.8163835,27.6674533 C40.9783746,28.5311001 40.546072,29.6983317 40.6137307,30.8863643 L40.6491214,31.2431153 L40.8727557,32.8138009 C41.1456623,34.7443146 39.913869,36.5490784 38.0472137,37.0288145 L37.7473296,37.0933761 L36.1764348,37.368427 C34.9896687,37.5757023 33.950159,38.2675169 33.3037882,39.2671311 L33.1219171,39.5760726 L32.3746511,40.98028 C31.4600183,42.6963006 29.4047461,43.4346252 27.6156317,42.7413664 L27.3201516,42.61249 L25.8874374,41.915815 C24.8048026,41.3894018 23.5553774,41.341546 22.4410511,41.7722478 L22.1111081,41.915815 L20.6783938,42.61249 C18.924917,43.4662146 16.8254951,42.8631397 15.7869254,41.2571528 L15.6238943,40.98028 L14.8766284,39.5760726 C14.542086,38.9499698 14.0548177,38.4342494 13.4766411,38.0488162 C14.4141326,37.1768414 15.910923,37.3243264 16.6411742,38.3570795 L16.7766111,38.5753939 L17.5238771,39.9759822 C17.9105402,40.7025147 18.7646991,41.0291503 19.5289746,40.7746934 L19.734766,40.6907527 L21.1674803,39.9940776 C22.8270756,39.185857 24.7484774,39.128127 26.4440179,39.8208875 L26.8310652,39.9940776 L28.2655976,40.6907527 C29.0072575,41.0523602 29.8909995,40.816403 30.3580438,40.1640765 L30.4746684,39.9759822 L31.2237525,38.5753939 C32.0942901,36.9422187 33.6252822,35.7677513 35.4176053,35.3403522 L35.805529,35.2603065 L37.3764239,34.9852555 C38.1971157,34.8416055 38.7761314,34.1259248 38.760252,33.3178512 L38.7436841,33.1141854 L38.5200498,31.5416904 C38.2617405,29.7219338 38.7998246,27.8865745 39.9858184,26.4934407 L40.270943,26.1800069 L41.3782057,25.0399932 C41.9501013,24.4527134 42.0020918,23.5543712 41.5355432,22.9105347 L41.3800238,22.7255844 L40.3073063,21.6199521 C38.9127735,20.186792 38.2564159,18.199911 38.5200498,16.2220777 C38.6441396,15.2926499 39.050812,14.4255665 39.6767296,13.7335673 L39.9582186,13.4480444 L40.5745766,12.876228 Z M41.6960687,7.34816437 C42.1206997,7.8025939 42.0977466,8.51370958 41.6405989,8.93581568 L7.71985531,40.4074379 C7.26462034,40.8314454 6.5492511,40.8067275 6.12270741,40.352298 C5.69616372,39.8978684 5.72102949,39.1867527 6.17626446,38.7646466 L40.0989208,7.29302438 C40.5541558,6.8690169 41.269525,6.89373483 41.6960687,7.34816437 Z M20.3828221,5.25773877 L20.6780302,5.38634419 L22.1107444,6.08301923 C23.1950321,6.61107753 24.4446075,6.65908283 25.5575815,6.22703513 L25.8870738,6.08301923 L27.3216062,5.38634419 C29.075083,4.53433396 31.1745049,5.1374991 32.2115287,6.7434907 L32.3742875,7.02036383 L33.1215534,8.42276163 C33.4560959,9.05248349 33.9470005,9.56458488 34.5033591,9.96811353 C33.5590495,10.8451776 32.0730189,10.6646119 31.3561243,9.64261402 L31.2233889,9.42705941 L30.4743048,8.02466161 C30.0876416,7.29647032 29.2334827,6.96969655 28.4706077,7.22414191 L28.265234,7.30808157 L26.8307015,8.00656616 C25.1727945,8.81310646 23.2515133,8.87071648 21.5545257,8.17939622 L21.1671167,8.00656616 L19.7344024,7.30808157 C18.9910758,6.94647405 18.107195,7.18243125 17.640139,7.83615157 L17.5235134,8.02466161 L16.7762475,9.42705941 C15.9057099,11.0585457 14.3747178,12.2329005 12.5809165,12.6602921 L12.1926528,12.7403373 L10.621758,13.0135787 C9.80274445,13.1572288 9.22385784,13.8729094 9.23831709,14.6824063 L9.25449769,14.8864583 L9.47813202,16.4571439 C9.73644136,18.2785807 9.19835719,20.11406 8.0138192,21.5072024 L7.72905701,21.8206369 L6.61997618,22.9606506 C6.04973343,23.5462853 5.99789318,24.4459735 6.46445543,25.0887088 L6.61997618,25.2732498 L7.72905701,26.4150731 C9.11086263,27.8373759 9.75631131,29.8170187 9.47813202,31.7767565 C9.35404224,32.7061844 8.95015386,33.5746531 8.32249622,34.2669987 L8.03996327,34.5525994 L7.42542341,35.1244158 C7.18906192,34.5996476 7.06633576,34.0170745 7.09301902,33.4133481 L7.1272443,33.0488671 L7.35087863,31.4781815 C7.51947214,30.2888166 7.17867884,29.0904787 6.42275374,28.1700304 L6.18361651,27.9025195 L5.07453569,26.7606963 C3.72141667,25.3695579 3.6462434,23.2052799 4.84901585,21.7267127 L5.07453569,21.4732042 L6.18361651,20.3313809 C7.02162542,19.4693792 7.45392803,18.3008016 7.38626933,17.1138703 L7.35087863,16.7575284 L7.1272443,15.1850334 C6.85261043,13.2562388 8.08595831,11.4515609 9.95121453,10.9718291 L10.2508523,10.9072677 L11.8217471,10.6322168 C13.0085131,10.4249415 14.0480229,9.73312685 14.6943936,8.73215314 L14.8762648,8.42276163 L15.6235307,7.02036383 C16.539886,5.30434321 18.5952488,4.56601855 20.3828221,5.25773877 Z" id="Shape" fill="#4A4A4A"></path>
    </g>
</svg>