<?xml version="1.0" encoding="UTF-8"?>
<svg width="48px" height="48px" viewBox="0 0 48 48" version="1.1" xmlns="http://www.w3.org/2000/svg" xmlns:xlink="http://www.w3.org/1999/xlink">
    <title>mdpi/Icon/48x/Amenities/NoBus</title>
    <g id="Icon/48x/Amenities/NoBus" stroke="none" stroke-width="1" fill="none" fill-rule="evenodd">
        <rect id="Rectangle" x="0" y="0" width="24" height="24"></rect>
        <rect id="Rectangle" x="0" y="0" width="24" height="24"></rect>
        <path d="M12.0133541,8.6 C12.0139549,9.40712278 11.5223668,10.1494147 10.7604051,10.4553045 C10.6664361,10.7205853 10.6020532,11.1906105 10.6008757,11.9013379 L10.1096521,25.6 L10.1096521,25.6 C10.1096521,26.1522847 10.5573674,26.6 11.1096521,26.6 L36.9287186,26.5993976 C37.4806707,26.5802305 37.9125782,26.1172469 37.8934111,25.5652949 L37.3694319,10.4763656 C36.6068684,10.1942809 36.0632802,9.46062137 36.0632802,8.6 L38.0632802,8.6 C38.7561926,8.6 39.3245417,9.14895509 39.3485893,9.84145014 L39.6904404,19.6856713 L39.9132376,23.955169 L39.9132376,23.955169 L39.9903597,25.9765413 L39.9903597,25.9765413 L40,26.6077004 L40,26.6077004 L40,41.6 C40,43.2568542 38.6568542,44.6 37,44.6 L35,44.6 C33.3431458,44.6 32,43.2568542 32,41.6 L32,40.6 L16,40.6 L16,41.6 C16,43.2568542 14.6568542,44.6 13,44.6 L11,44.6 C9.34314575,44.6 8,43.2568542 8,41.6 L8.001044,26.4279282 L8.001044,26.4279282 L8.03758397,25.1180557 L8.03758397,25.1180557 L8.23489981,21.0340368 L8.23489981,21.0340368 L8.33825572,19.1794834 L8.33825572,19.1794834 L8.60216373,11.8295715 C8.60216373,9.91387646 9.0724019,8.83735261 10.0128782,8.6 L12.0133541,8.6 Z M14,40.6 L10,40.6 L10,41.6 C10,42.1522847 10.4477153,42.6 11,42.6 L13,42.6 C13.5522847,42.6 14,42.1522847 14,41.6 L14,40.6 Z M38,40.6 L34,40.6 L34,41.6 C34,42.1522847 34.4477153,42.6 35,42.6 L37,42.6 C37.5522847,42.6 38,42.1522847 38,41.6 L38,40.6 Z M38,28.6 L10,28.6 L10,38.6 L38,38.6 L38,28.6 Z M33.0390661,30.5856308 C34.6959203,30.5856308 36.0390661,31.9287766 36.0390661,33.5856308 C36.0390661,35.2424851 34.6959203,36.5856308 33.0390661,36.5856308 C31.3822118,36.5856308 30.0390661,35.2424851 30.0390661,33.5856308 C30.0390661,31.9287766 31.3822118,30.5856308 33.0390661,30.5856308 Z M14.9983399,30.5856308 C16.6551942,30.5856308 17.9983399,31.9287766 17.9983399,33.5856308 C17.9983399,35.2424851 16.6551942,36.5856308 14.9983399,36.5856308 C13.3414857,36.5856308 11.9983399,35.2424851 11.9983399,33.5856308 C11.9983399,31.9287766 13.3414857,30.5856308 14.9983399,30.5856308 Z M27.0073073,33.6 C27.5595921,33.6 28.0073073,34.0477153 28.0073073,34.6 C28.0073073,35.1522847 27.5595921,35.6 27.0073073,35.6 L21.0073073,35.6 C20.4550226,35.6 20.0073073,35.1522847 20.0073073,34.6 C20.0073073,34.0477153 20.4550226,33.6 21.0073073,33.6 L27.0073073,33.6 Z M33.0390661,32.5856308 C32.4867813,32.5856308 32.0390661,33.0333461 32.0390661,33.5856308 C32.0390661,34.1379156 32.4867813,34.5856308 33.0390661,34.5856308 C33.5913508,34.5856308 34.0390661,34.1379156 34.0390661,33.5856308 C34.0390661,33.0333461 33.5913508,32.5856308 33.0390661,32.5856308 Z M14.9983399,32.5856308 C14.4460552,32.5856308 13.9983399,33.0333461 13.9983399,33.5856308 C13.9983399,34.1379156 14.4460552,34.5856308 14.9983399,34.5856308 C15.5506247,34.5856308 15.9983399,34.1379156 15.9983399,33.5856308 C15.9983399,33.0333461 15.5506247,32.5856308 14.9983399,32.5856308 Z M24,3.6 C30.0751322,3.6 35,8.52486775 35,14.6 C35,20.6751322 30.0751322,25.6 24,25.6 C17.9248678,25.6 13,20.6751322 13,14.6 C13,8.52486775 17.9248678,3.6 24,3.6 Z M24,5.6 C19.0294373,5.6 15,9.62943725 15,14.6 C15,19.5705627 19.0294373,23.6 24,23.6 C28.9705627,23.6 33,19.5705627 33,14.6 C33,9.62943725 28.9705627,5.6 24,5.6 Z M21.885987,10.6743939 L24.0073073,12.7957142 L26.1286277,10.6743939 C26.5191519,10.2838696 27.1523169,10.2838696 27.5428412,10.6743939 C27.9333655,11.0649182 27.9333655,11.6980831 27.5428412,12.0886074 L25.4215209,14.2099278 L27.5428412,16.3312481 C27.9333655,16.7217724 27.9333655,17.3549374 27.5428412,17.7454617 C27.1523169,18.135986 26.5191519,18.135986 26.1286277,17.7454617 L24.0073073,15.6241413 L21.885987,17.7454617 C21.4954627,18.135986 20.8622977,18.135986 20.4717734,17.7454617 C20.0812491,17.3549374 20.0812491,16.7217724 20.4717734,16.3312481 L22.5930938,14.2099278 L20.4717734,12.0886074 C20.0812491,11.6980831 20.0812491,11.0649182 20.4717734,10.6743939 C20.8622977,10.2838696 21.4954627,10.2838696 21.885987,10.6743939 Z M6,11.6 C6.55228475,11.6 7,12.0477153 7,12.6 L7,16.6 C7,17.1522847 6.55228475,17.6 6,17.6 C5.44771525,17.6 5,17.1522847 5,16.6 L5,12.6 C5,12.0477153 5.44771525,11.6 6,11.6 Z M42,11.6 C42.5522847,11.6 43,12.0477153 43,12.6 L43,16.6 C43,17.1522847 42.5522847,17.6 42,17.6 C41.4477153,17.6 41,17.1522847 41,16.6 L41,12.6 C41,12.0477153 41.4477153,11.6 42,11.6 Z" id="Shape" fill="#4A4A4A"></path>
    </g>
</svg>