<svg width="30" height="32" viewBox="0 0 30 32" fill="none" xmlns="http://www.w3.org/2000/svg">
<path d="M14.5296 0.974951H15.469C16.2923 1.17956 16.8844 1.72519 17.456 2.30667C17.8259 2.68284 18.2126 3.04354 18.5923 3.41058C18.8552 3.6644 19.1527 3.75933 19.5274 3.70026C20.3754 3.56737 21.2269 3.44925 22.0805 3.35714C23.3152 3.22355 24.5056 4.03495 24.7981 5.24222C24.9998 6.07472 25.132 6.9248 25.2713 7.77136C25.3451 8.22065 25.537 8.54269 25.9589 8.7494C26.6248 9.07636 27.2724 9.44058 27.9298 9.78511C29.2756 10.491 29.8247 12.0091 29.1089 13.4301C28.7707 14.1016 28.4557 14.7843 28.1147 15.4544C27.9256 15.825 27.9256 16.1723 28.1147 16.5428C28.4557 17.2129 28.7763 17.8928 29.1075 18.5678C29.4998 19.3687 29.5491 20.1752 29.1532 20.9908C28.8818 21.5498 28.4431 21.9379 27.9031 22.2234C27.2295 22.5792 26.5587 22.9399 25.8837 23.2921C25.5687 23.4567 25.3704 23.6943 25.3113 24.055C25.1883 24.8053 25.0371 25.552 24.9211 26.3036C24.6792 27.8709 23.3665 28.8229 21.9631 28.6338C21.267 28.5403 20.5645 28.4742 19.8769 28.3385C19.2652 28.2175 18.7716 28.311 18.3546 28.8074C18.0853 29.1274 17.7492 29.391 17.4553 29.6913C16.8851 30.2742 16.2916 30.8191 15.4683 31.0237H14.5289C13.7056 30.8191 13.1135 30.2735 12.5419 29.692C12.172 29.3158 11.7846 28.9551 11.4056 28.5874C11.1687 28.3575 10.8966 28.2358 10.557 28.285C9.70688 28.4074 8.8568 28.5276 8.00532 28.6394C6.74672 28.8053 5.49024 27.9848 5.19774 26.7585C4.99875 25.9253 4.86516 25.0753 4.72594 24.2287C4.65282 23.7801 4.46227 23.4567 4.03969 23.2492C3.37383 22.9223 2.72204 22.5665 2.07024 22.2114C0.664693 21.4464 0.201333 20.0142 0.890396 18.5692C1.21383 17.8907 1.54079 17.2136 1.8818 16.5435C2.07094 16.173 2.07235 15.8264 1.88321 15.4551C1.54219 14.7857 1.22086 14.1051 0.890396 13.4301C0.498052 12.6292 0.450942 11.8221 0.845396 11.0064C1.1161 10.4467 1.55415 10.0586 2.09485 9.77245C2.76844 9.41667 3.43922 9.05597 4.11422 8.7037C4.42993 8.53917 4.6268 8.30151 4.68657 7.94081C4.80961 7.19058 4.96079 6.44386 5.0761 5.69222C5.31727 4.12354 6.63844 3.17222 8.03415 3.36136C8.7204 3.45417 9.41438 3.51464 10.0915 3.65245C10.7257 3.78183 11.2341 3.68269 11.6637 3.16729C11.9252 2.8537 12.255 2.59776 12.5419 2.30386C13.1121 1.72026 13.7056 1.17604 14.5289 0.971436L14.5296 0.974951ZM7.74938 26.909C8.48344 26.8042 9.24915 26.7121 10.0085 26.5814C10.9366 26.4224 11.7846 26.5582 12.4948 27.2071C13.1009 27.7612 13.6816 28.3427 14.273 28.9136C14.775 29.3988 15.2243 29.3981 15.7277 28.9108C16.2902 28.3666 16.8506 27.821 17.4152 27.2789C17.9883 26.729 18.6759 26.4457 19.4663 26.5244C20.3395 26.6116 21.2072 26.7543 22.0763 26.8844C22.624 26.9667 23.0536 26.6861 23.1513 26.1475C23.2751 25.4662 23.4157 24.787 23.5036 24.1007C23.6498 22.9525 24.1969 22.1193 25.2635 21.6229C25.8823 21.3346 26.4757 20.9908 27.0776 20.6681C27.6738 20.3482 27.8095 19.9368 27.5177 19.3307C27.1957 18.6621 26.8793 17.9913 26.5404 17.331C26.082 16.4381 26.082 15.5599 26.5411 14.6669C26.8849 13.9989 27.2013 13.3162 27.5346 12.6426C27.7041 12.3002 27.7322 11.9606 27.4847 11.6526C27.3785 11.5204 27.2245 11.4157 27.0734 11.3334C26.3871 10.96 25.6931 10.6014 25.0048 10.2323C24.2559 9.83151 23.7666 9.22612 23.6056 8.38308C23.4466 7.54987 23.3046 6.71315 23.1541 5.87855C23.062 5.36667 22.6627 5.0355 22.1888 5.09808C21.454 5.19511 20.7171 5.28651 19.988 5.4194C18.9256 5.61276 18.0227 5.36175 17.262 4.57917C16.7649 4.0673 16.2382 3.58354 15.7249 3.08714C15.2229 2.60128 14.7722 2.60128 14.2702 3.08714C13.7077 3.63136 13.1473 4.17698 12.5827 4.71909C12.0096 5.26894 11.322 5.5537 10.5323 5.47425C9.65907 5.38706 8.79071 5.24503 7.92235 5.11425C7.37461 5.03198 6.9436 5.31183 6.84586 5.84901C6.72141 6.53034 6.58079 7.20956 6.4936 7.89581C6.34735 9.04401 5.80102 9.87722 4.73508 10.375C4.11633 10.6633 3.5229 11.0071 2.92102 11.3299C2.32407 11.6498 2.18766 12.0625 2.47875 12.6665C2.80079 13.3352 3.11719 14.0067 3.4561 14.6662C3.91524 15.5592 3.91524 16.4374 3.4561 17.3303C3.11227 17.999 2.79657 18.681 2.46258 19.3546C2.28118 19.721 2.26993 20.0746 2.54625 20.3917C2.65172 20.5127 2.8029 20.602 2.94704 20.6793C3.62555 21.0457 4.3104 21.4014 4.99032 21.7649C5.73915 22.1657 6.22922 22.7704 6.39024 23.6135C6.54915 24.4467 6.69118 25.2834 6.84235 26.118C6.93024 26.6017 7.27126 26.9069 7.74797 26.9069L7.74938 26.909Z" fill="black"/>
<path d="M9.34339 22.5897C8.93839 22.5954 8.66839 22.4364 8.50738 22.125C8.34777 21.8163 8.36394 21.5013 8.56925 21.2109C8.63675 21.116 8.72113 21.0323 8.80339 20.9493C12.5215 17.2298 16.241 13.5117 19.9585 9.79145C20.18 9.56996 20.4127 9.39418 20.7474 9.40895C21.0933 9.42371 21.3471 9.58754 21.4983 9.88778C21.6439 10.1768 21.6319 10.4749 21.454 10.7526C21.3964 10.8419 21.3225 10.9228 21.2466 10.9987C17.501 14.7464 13.7541 18.4926 10.0085 22.2396C9.80956 22.4386 9.59582 22.601 9.34339 22.5897Z" fill="black"/>
<path d="M14.7153 11.3973C14.7089 13.1404 13.2359 14.6022 11.5132 14.5748C9.74699 14.5473 8.33581 13.1116 8.35058 11.3573C8.36534 9.59031 9.78706 8.18406 11.5533 8.18898C13.3034 8.1946 14.7223 9.6332 14.7153 11.3966V11.3973ZM12.9504 11.3861C12.9532 10.5958 12.3359 9.96366 11.5554 9.95734C10.7496 9.95031 10.121 10.5684 10.1168 11.3713C10.1126 12.168 10.7546 12.8162 11.54 12.8092C12.3211 12.8015 12.9469 12.1701 12.9497 11.3868L12.9504 11.3861Z" fill="black"/>
<path d="M21.6481 20.6238C21.6481 22.3851 20.2235 23.8104 18.4643 23.8104C16.7058 23.8104 15.2841 22.3837 15.2848 20.6217C15.2855 18.8667 16.7213 17.426 18.4671 17.4281C20.2172 17.4302 21.6495 18.8688 21.6488 20.6238H21.6481ZM19.8811 20.6351C19.8882 19.8342 19.2574 19.1937 18.4636 19.1951C17.6817 19.1965 17.0524 19.8251 17.0482 20.609C17.044 21.4001 17.6585 22.035 18.4376 22.0427C19.2455 22.0511 19.8741 21.438 19.8811 20.6351Z" fill="black"/>
</svg>
