<svg width="40" height="40" viewBox="0 0 40 40" fill="none" xmlns="http://www.w3.org/2000/svg">
<rect width="40" height="40" rx="4" fill="#D9D9D9"/>
<path d="M29.75 17.75C29.9489 17.75 30.1397 17.671 30.2803 17.5303C30.421 17.3897 30.5 17.1989 30.5 17V14C30.5 13.6022 30.342 13.2206 30.0607 12.9393C29.7794 12.658 29.3978 12.5 29 12.5H11C10.6022 12.5 10.2206 12.658 9.93934 12.9393C9.65804 13.2206 9.5 13.6022 9.5 14V17C9.5 17.1989 9.57902 17.3897 9.71967 17.5303C9.86032 17.671 10.0511 17.75 10.25 17.75C10.8467 17.75 11.419 17.9871 11.841 18.409C12.2629 18.831 12.5 19.4033 12.5 20C12.5 20.5967 12.2629 21.169 11.841 21.591C11.419 22.0129 10.8467 22.25 10.25 22.25C10.0511 22.25 9.86032 22.329 9.71967 22.4697C9.57902 22.6103 9.5 22.8011 9.5 23V26C9.5 26.3978 9.65804 26.7794 9.93934 27.0607C10.2206 27.342 10.6022 27.5 11 27.5H29C29.3978 27.5 29.7794 27.342 30.0607 27.0607C30.342 26.7794 30.5 26.3978 30.5 26V23C30.5 22.8011 30.421 22.6103 30.2803 22.4697C30.1397 22.329 29.9489 22.25 29.75 22.25C29.1533 22.25 28.581 22.0129 28.159 21.591C27.7371 21.169 27.5 20.5967 27.5 20C27.5 19.4033 27.7371 18.831 28.159 18.409C28.581 17.9871 29.1533 17.75 29.75 17.75ZM11 23.675C11.8477 23.5029 12.6099 23.043 13.1573 22.3732C13.7047 21.7034 14.0038 20.865 14.0038 20C14.0038 19.135 13.7047 18.2966 13.1573 17.6268C12.6099 16.957 11.8477 16.4971 11 16.325V14H16.25V26H11V23.675ZM29 23.675V26H17.75V14H29V16.325C28.1523 16.4971 27.3901 16.957 26.8427 17.6268C26.2953 18.2966 25.9962 19.135 25.9962 20C25.9962 20.865 26.2953 21.7034 26.8427 22.3732C27.3901 23.043 28.1523 23.5029 29 23.675Z" fill="#747474"/>
</svg>
