<?xml version="1.0" encoding="UTF-8"?>
<svg id="Layer_1" data-name="Layer 1" xmlns="http://www.w3.org/2000/svg" viewBox="0 0 1024 1024">
  <defs>
    <style>
      .cls-1 {
        fill: #4eae4d;
      }

      .cls-2 {
        fill: #247e3e;
      }

      .cls-3 {
        fill: #fff;
        stroke: #4eae4d;
        stroke-miterlimit: 10;
      }
    </style>
  </defs>
  <circle class="cls-3" cx="512" cy="512" r="512"/>
  <g>
    <path class="cls-1" d="M609.17,338.11c4.36,0,8.7.35,13,1.03,19.54,3.09,43.07,8.03,61.95,13.17,148.83,40.48,245.57,179.85,234.67,333.36l-51.88-.03c1.25-66-72.05-105.04-127.14-67.47-25.81,17.59-31.4,40.8-42.23,67.72l-198.91-.24c.08-105.15-160.56-105.73-160.84,0-130.57-15.08-235.34-126.09-233.39-259.35h103.74l-5.19-88.18h406.22Z"/>
    <path class="cls-2" d="M632.9,685.87h-134.86c-9.71-79.7-93.93-108.72-148.78-43.37-73.77-46.66-134.62-128.1-146.88-215.98h184.14c21.53,0,76.54,17.05,97.81,26.67,88.94,40.25,150.82,134.75,148.57,232.68Z"/>
  </g>
</svg>