<svg width="36" height="36" viewBox="0 0 36 36" fill="none" xmlns="http://www.w3.org/2000/svg">
<g filter="url(#filter0_b_235_52888)">
<rect width="36" height="36" rx="4" fill="#EFEFEF"/>
<path d="M22.375 22.375C22.375 23.038 22.1116 23.6739 21.6428 24.1427C21.1739 24.6115 20.538 24.8749 19.875 24.8749C18.8047 24.8749 17.7696 24.1773 17.4141 23.2171C17.36 23.0626 17.3688 22.8929 17.4385 22.7447C17.5082 22.5965 17.6332 22.4816 17.7868 22.4247C17.9404 22.3678 18.1101 22.3734 18.2596 22.4404C18.409 22.5073 18.5262 22.6303 18.586 22.7828C18.761 23.2554 19.3281 23.6249 19.875 23.6249C20.2065 23.6249 20.5245 23.4932 20.7589 23.2588C20.9933 23.0244 21.125 22.7065 21.125 22.375C21.125 22.0434 20.9933 21.7255 20.7589 21.4911C20.5245 21.2567 20.2065 21.125 19.875 21.125H11.1251C10.9593 21.125 10.8004 21.0591 10.6832 20.9419C10.566 20.8247 10.5001 20.6657 10.5001 20.5C10.5001 20.3342 10.566 20.1752 10.6832 20.058C10.8004 19.9408 10.9593 19.875 11.1251 19.875H19.875C20.538 19.875 21.1739 20.1384 21.6428 20.6072C22.1116 21.076 22.375 21.7119 22.375 22.375ZM17.375 16.125C18.0381 16.125 18.6739 15.8616 19.1428 15.3928C19.6116 14.924 19.875 14.2881 19.875 13.625C19.875 12.962 19.6116 12.3261 19.1428 11.8573C18.6739 11.3885 18.0381 11.1251 17.375 11.1251C16.3047 11.1251 15.2696 11.8227 14.9141 12.7829C14.86 12.9375 14.8688 13.1071 14.9385 13.2553C15.0082 13.4035 15.1333 13.5184 15.2868 13.5753C15.4404 13.6322 15.6102 13.6266 15.7596 13.5596C15.9091 13.4927 16.0263 13.3697 16.086 13.2172C16.261 12.7446 16.8282 12.3751 17.375 12.3751C17.7066 12.3751 18.0245 12.5068 18.2589 12.7412C18.4933 12.9756 18.625 13.2935 18.625 13.625C18.625 13.9566 18.4933 14.2745 18.2589 14.5089C18.0245 14.7433 17.7066 14.875 17.375 14.875H9.87512C9.70936 14.875 9.55039 14.9409 9.43318 15.0581C9.31597 15.1753 9.25012 15.3343 9.25012 15.5C9.25012 15.6658 9.31597 15.8248 9.43318 15.942C9.55039 16.0592 9.70936 16.125 9.87512 16.125H17.375ZM24.25 13.625C23.1797 13.625 22.1445 14.3227 21.7891 15.2828C21.735 15.4374 21.7437 15.6071 21.8134 15.7553C21.8831 15.9035 22.0082 16.0184 22.1618 16.0753C22.3153 16.1322 22.4851 16.1266 22.6345 16.0596C22.784 15.9927 22.9012 15.8697 22.9609 15.7172C23.1359 15.2446 23.7031 14.875 24.25 14.875C24.5815 14.875 24.8994 15.0067 25.1338 15.2411C25.3683 15.4756 25.4999 15.7935 25.4999 16.125C25.4999 16.4565 25.3683 16.7745 25.1338 17.0089C24.8994 17.2433 24.5815 17.375 24.25 17.375H10.5001C10.3344 17.375 10.1754 17.4409 10.0582 17.5581C9.94096 17.6753 9.87512 17.8342 9.87512 18C9.87512 18.1658 9.94096 18.3247 10.0582 18.4419C10.1754 18.5591 10.3344 18.625 10.5001 18.625H24.25C24.913 18.625 25.5489 18.3616 26.0177 17.8928C26.4865 17.4239 26.7499 16.7881 26.7499 16.125C26.7499 15.462 26.4865 14.8261 26.0177 14.3573C25.5489 13.8884 24.913 13.625 24.25 13.625Z" fill="#747474"/>
<path d="M11.5001 24.2931L24.7931 11.0001" stroke="#EFEFEF" stroke-width="3" stroke-linecap="round"/>
<path d="M11.5001 24.2931L24.7931 11.0001" stroke="#747474" stroke-width="1.25" stroke-linecap="round"/>
</g>
<defs>
<filter id="filter0_b_235_52888" x="-3" y="-3" width="42" height="42" filterUnits="userSpaceOnUse" color-interpolation-filters="sRGB">
<feFlood flood-opacity="0" result="BackgroundImageFix"/>
<feGaussianBlur in="BackgroundImageFix" stdDeviation="1.5"/>
<feComposite in2="SourceAlpha" operator="in" result="effect1_backgroundBlur_235_52888"/>
<feBlend mode="normal" in="SourceGraphic" in2="effect1_backgroundBlur_235_52888" result="shape"/>
</filter>
</defs>
</svg>
