<svg width="48" height="48" viewBox="0 0 48 48" fill="none" xmlns="http://www.w3.org/2000/svg">
<rect x="0.5" y="0.5" width="47" height="47" rx="7.5" stroke="#4CAF50"/>
<path d="M33.3112 14.689C33.1226 14.5005 32.8871 14.3657 32.629 14.2985C32.371 14.2312 32.0997 14.234 31.843 14.3065H31.829L13.8346 19.7665C13.5425 19.8507 13.2828 20.0217 13.0901 20.2568C12.8973 20.4919 12.7805 20.78 12.7552 21.0829C12.7299 21.3859 12.7972 21.6894 12.9483 21.9532C13.0994 22.2171 13.3271 22.4287 13.6012 22.5602L21.5624 26.4377L25.4343 34.3943C25.5547 34.6513 25.7462 34.8685 25.9861 35.0201C26.226 35.1718 26.5042 35.2517 26.788 35.2502C26.8312 35.2502 26.8743 35.2484 26.9174 35.2446C27.2201 35.2201 27.5081 35.1036 27.7427 34.9107C27.9773 34.7178 28.1473 34.4578 28.2299 34.1656L33.6862 16.1712C33.6862 16.1665 33.6862 16.1618 33.6862 16.1571C33.7596 15.9012 33.7636 15.6302 33.6977 15.3722C33.6318 15.1142 33.4984 14.8784 33.3112 14.689ZM26.7965 33.7362L26.7918 33.7493V33.7427L23.0362 26.0271L27.5362 21.5271C27.6709 21.3853 27.7449 21.1965 27.7424 21.0009C27.7399 20.8054 27.6611 20.6185 27.5228 20.4802C27.3845 20.3419 27.1976 20.2631 27.002 20.2606C26.8065 20.2581 26.6177 20.3321 26.4759 20.4668L21.9759 24.9668L14.2574 21.2112H14.2509H14.264L32.2499 15.7502L26.7965 33.7362Z" fill="#4CAF50"/>
</svg>
