<svg width="24" height="24" viewBox="0 0 24 24" fill="none" xmlns="http://www.w3.org/2000/svg">
<path d="M17.25 17.2501C17.25 18.0458 16.9339 18.8088 16.3713 19.3714C15.8087 19.9341 15.0456 20.2501 14.25 20.2501C12.9656 20.2501 11.7234 19.4129 11.2969 18.2607C11.232 18.0752 11.2425 17.8717 11.3261 17.6938C11.4097 17.516 11.5598 17.3781 11.7441 17.3098C11.9284 17.2415 12.1321 17.2482 12.3115 17.3286C12.4908 17.409 12.6314 17.5565 12.7031 17.7395C12.9131 18.3067 13.5938 18.7501 14.25 18.7501C14.6478 18.7501 15.0294 18.5921 15.3107 18.3108C15.592 18.0295 15.75 17.6479 15.75 17.2501C15.75 16.8523 15.592 16.4708 15.3107 16.1895C15.0294 15.9082 14.6478 15.7501 14.25 15.7501H3.75C3.55109 15.7501 3.36032 15.6711 3.21967 15.5305C3.07902 15.3898 3 15.199 3 15.0001C3 14.8012 3.07902 14.6104 3.21967 14.4698C3.36032 14.3291 3.55109 14.2501 3.75 14.2501H14.25C15.0456 14.2501 15.8087 14.5662 16.3713 15.1288C16.9339 15.6914 17.25 16.4545 17.25 17.2501ZM11.25 9.75012C12.0456 9.75012 12.8087 9.43405 13.3713 8.87144C13.9339 8.30883 14.25 7.54577 14.25 6.75012C14.25 5.95447 13.9339 5.19141 13.3713 4.6288C12.8087 4.06619 12.0456 3.75012 11.25 3.75012C9.96562 3.75012 8.72344 4.58731 8.29688 5.7395C8.23197 5.925 8.24246 6.12856 8.3261 6.3064C8.40974 6.48424 8.55985 6.62214 8.74412 6.69045C8.92839 6.75875 9.13212 6.752 9.31146 6.67164C9.49081 6.59128 9.63145 6.44374 9.70312 6.26075C9.91313 5.69356 10.5938 5.25012 11.25 5.25012C11.6478 5.25012 12.0294 5.40816 12.3107 5.68946C12.592 5.97077 12.75 6.3523 12.75 6.75012C12.75 7.14795 12.592 7.52948 12.3107 7.81078C12.0294 8.09209 11.6478 8.25012 11.25 8.25012H2.25C2.05109 8.25012 1.86032 8.32914 1.71967 8.46979C1.57902 8.61044 1.5 8.80121 1.5 9.00012C1.5 9.19903 1.57902 9.3898 1.71967 9.53045C1.86032 9.6711 2.05109 9.75012 2.25 9.75012H11.25ZM19.5 6.75012C18.2156 6.75012 16.9734 7.58731 16.5469 8.7395C16.482 8.925 16.4925 9.12856 16.5761 9.3064C16.6597 9.48424 16.8098 9.62214 16.9941 9.69045C17.1784 9.75875 17.3821 9.752 17.5615 9.67164C17.7408 9.59128 17.8814 9.44374 17.9531 9.26075C18.1631 8.69356 18.8438 8.25012 19.5 8.25012C19.8978 8.25012 20.2794 8.40816 20.5607 8.68946C20.842 8.97077 21 9.3523 21 9.75012C21 10.1479 20.842 10.5295 20.5607 10.8108C20.2794 11.0921 19.8978 11.2501 19.5 11.2501H3C2.80109 11.2501 2.61032 11.3291 2.46967 11.4698C2.32902 11.6104 2.25 11.8012 2.25 12.0001C2.25 12.199 2.32902 12.3898 2.46967 12.5305C2.61032 12.6711 2.80109 12.7501 3 12.7501H19.5C20.2956 12.7501 21.0587 12.4341 21.6213 11.8714C22.1839 11.3088 22.5 10.5458 22.5 9.75012C22.5 8.95447 22.1839 8.19141 21.6213 7.6288C21.0587 7.06619 20.2956 6.75012 19.5 6.75012Z" fill="white"/>
</svg>
