<svg width="72" height="32" viewBox="0 0 72 32" fill="none" xmlns="http://www.w3.org/2000/svg">
<path d="M16.2235 23.2178C13.3549 20.0257 11.1507 16.1378 9.85946 11.8108C9.49157 10.5735 9.20196 9.30318 8.9873 8H0C0.197605 11.939 1.21965 15.64 2.88559 18.9128C5.66222 24.3709 10.2275 28.6284 15.7364 30.7773C17.1536 31.3301 18.6322 31.7437 20.1585 32C20.1619 30.4113 20.6218 28.9396 21.4054 27.7242C19.5078 26.4539 17.7703 24.9384 16.2235 23.2178Z" fill="#4CAF50"/>
<path d="M20.5384 8.16693H8.2266C7.93935 6.52053 7.7832 4.8272 7.7832 3.09419C7.7832 2.05076 7.83998 1.01817 7.94643 0H43.6016L45.5595 0.14798C52.0223 0.642645 58.1942 3.24943 62.9367 7.74456C63.3091 8.09473 63.671 8.45941 64.0221 8.82767C68.9595 14.0268 71.9994 21.1034 71.9994 28.9057C71.9994 29.9491 71.9426 30.9818 71.8363 32H67.4237C67.4237 31.9494 67.4308 31.9025 67.4308 31.852C67.4308 27.7323 64.1498 24.3927 60.1026 24.3927C56.0553 24.3927 52.7743 27.7323 52.7743 31.852C52.7743 31.9025 52.7813 31.9494 52.7813 32H47.1841C47.1416 31.2707 47.0706 30.5486 46.9713 29.8373C46.5421 26.79 45.5843 23.9124 44.1869 21.3165" fill="#4CAF50"/>
<path d="M47.0823 29.8156C46.632 26.7479 45.6274 23.851 44.1614 21.2376C40.0017 13.8046 33.6289 8.62152 24.5095 8H24.2677H20.8148H8.31055C8.54499 9.2903 8.86117 10.5552 9.26306 11.7837C10.6732 16.08 13.0369 20.022 16.1734 23.1915C17.8627 24.8997 19.3327 26.4748 21.4052 27.7397C22.793 25.7805 25.1644 24.3416 27.7874 24.3416C31.2998 24.3416 34.2542 26.6461 35.1731 29.7864C35.3665 30.4444 35.4745 31.1349 35.4745 31.851C35.4745 31.8838 35.4708 31.9128 35.4708 31.9454C36.0512 31.9782 36.6391 32 37.227 32H47.3055C47.2645 31.2585 47.1864 30.5316 47.0823 29.8156Z" fill="#397D32"/>
</svg>
