<svg width="17" height="16" viewBox="0 0 17 16" fill="none" xmlns="http://www.w3.org/2000/svg">
<path d="M14.0205 5.14625L10.5205 1.64625C10.474 1.59983 10.4189 1.56303 10.3582 1.53793C10.2975 1.51284 10.2324 1.49995 10.1667 1.5H4.16675C3.90153 1.5 3.64718 1.60536 3.45964 1.79289C3.2721 1.98043 3.16675 2.23478 3.16675 2.5V13.5C3.16675 13.7652 3.2721 14.0196 3.45964 14.2071C3.64718 14.3946 3.90153 14.5 4.16675 14.5H13.1667C13.432 14.5 13.6863 14.3946 13.8739 14.2071C14.0614 14.0196 14.1667 13.7652 14.1667 13.5V5.5C14.1668 5.43432 14.1539 5.36927 14.1288 5.30858C14.1037 5.24788 14.0669 5.19272 14.0205 5.14625ZM10.6667 3.20688L12.4599 5H10.6667V3.20688ZM13.1667 13.5H4.16675V2.5H9.66675V5.5C9.66675 5.63261 9.71943 5.75979 9.81319 5.85355C9.90696 5.94732 10.0341 6 10.1667 6H13.1667V13.5ZM11.1667 8.5C11.1667 8.63261 11.1141 8.75979 11.0203 8.85355C10.9265 8.94732 10.7994 9 10.6667 9H6.66675C6.53414 9 6.40696 8.94732 6.31319 8.85355C6.21943 8.75979 6.16675 8.63261 6.16675 8.5C6.16675 8.36739 6.21943 8.24021 6.31319 8.14645C6.40696 8.05268 6.53414 8 6.66675 8H10.6667C10.7994 8 10.9265 8.05268 11.0203 8.14645C11.1141 8.24021 11.1667 8.36739 11.1667 8.5ZM11.1667 10.5C11.1667 10.6326 11.1141 10.7598 11.0203 10.8536C10.9265 10.9473 10.7994 11 10.6667 11H6.66675C6.53414 11 6.40696 10.9473 6.31319 10.8536C6.21943 10.7598 6.16675 10.6326 6.16675 10.5C6.16675 10.3674 6.21943 10.2402 6.31319 10.1464C6.40696 10.0527 6.53414 10 6.66675 10H10.6667C10.7994 10 10.9265 10.0527 11.0203 10.1464C11.1141 10.2402 11.1667 10.3674 11.1667 10.5Z" fill="#4CAF50"/>
</svg>
