<svg width="32" height="33" viewBox="0 0 32 33" fill="none" xmlns="http://www.w3.org/2000/svg">
<path d="M12 13.5127C12 13.2475 12.1054 12.9931 12.2929 12.8056C12.4804 12.6181 12.7348 12.5127 13 12.5127H21C21.2652 12.5127 21.5196 12.6181 21.7071 12.8056C21.8946 12.9931 22 13.2475 22 13.5127C22 13.7779 21.8946 14.0323 21.7071 14.2198C21.5196 14.4073 21.2652 14.5127 21 14.5127H13C12.7348 14.5127 12.4804 14.4073 12.2929 14.2198C12.1054 14.0323 12 13.7779 12 13.5127ZM13 18.5127H21C21.2652 18.5127 21.5196 18.4073 21.7071 18.2198C21.8946 18.0323 22 17.7779 22 17.5127C22 17.2475 21.8946 16.9931 21.7071 16.8056C21.5196 16.6181 21.2652 16.5127 21 16.5127H13C12.7348 16.5127 12.4804 16.6181 12.2929 16.8056C12.1054 16.9931 12 17.2475 12 17.5127C12 17.7779 12.1054 18.0323 12.2929 18.2198C12.4804 18.4073 12.7348 18.5127 13 18.5127ZM29 24.5127C29 25.5736 28.5786 26.591 27.8284 27.3411C27.0783 28.0913 26.0609 28.5127 25 28.5127H11C9.93913 28.5127 8.92172 28.0913 8.17157 27.3411C7.42143 26.591 7 25.5736 7 24.5127V8.5127C7 7.98226 6.78929 7.47355 6.41421 7.09848C6.03914 6.72341 5.53043 6.5127 5 6.5127C4.46957 6.5127 3.96086 6.72341 3.58579 7.09848C3.21071 7.47355 3 7.98226 3 8.5127C3 9.2302 3.60375 9.7152 3.61 9.7202C3.7755 9.84756 3.89698 10.0235 3.95738 10.2234C4.01779 10.4234 4.01409 10.6372 3.94681 10.8349C3.87953 11.0326 3.75205 11.2042 3.58224 11.3258C3.41244 11.4474 3.20883 11.5127 3 11.5127C2.78375 11.5131 2.57337 11.4424 2.40125 11.3114C2.25625 11.2052 1 10.2139 1 8.5127C1 7.45183 1.42143 6.43441 2.17157 5.68427C2.92172 4.93412 3.93913 4.5127 5 4.5127H22C23.0609 4.5127 24.0783 4.93412 24.8284 5.68427C25.5786 6.43441 26 7.45183 26 8.5127V21.5127H27C27.2164 21.5127 27.4269 21.5829 27.6 21.7127C27.75 21.8202 29 22.8114 29 24.5127ZM12.0325 22.1977C12.1008 21.996 12.2312 21.8211 12.405 21.6981C12.5788 21.575 12.7871 21.5101 13 21.5127H24V8.5127C24 7.98226 23.7893 7.47355 23.4142 7.09848C23.0391 6.72341 22.5304 6.5127 22 6.5127H8.46125C8.81492 7.11983 9.00086 7.81006 9 8.5127V24.5127C9 25.0431 9.21071 25.5518 9.58579 25.9269C9.96086 26.302 10.4696 26.5127 11 26.5127C11.5304 26.5127 12.0391 26.302 12.4142 25.9269C12.7893 25.5518 13 25.0431 13 24.5127C13 23.7952 12.3963 23.3102 12.39 23.3052C12.2196 23.1833 12.0928 23.0098 12.0285 22.8104C11.9641 22.611 11.9655 22.3962 12.0325 22.1977ZM27 24.5127C26.9875 24.1422 26.8445 23.788 26.5963 23.5127H14.8462C14.9468 23.8365 14.9978 24.1736 14.9975 24.5127C14.9985 25.215 14.8134 25.9051 14.4613 26.5127H25C25.5304 26.5127 26.0391 26.302 26.4142 25.9269C26.7893 25.5518 27 25.0431 27 24.5127Z" fill="#4CAF50"/>
</svg>
