<svg width="16" height="16" viewBox="0 0 16 16" fill="none" xmlns="http://www.w3.org/2000/svg">
<path d="M4.5 6.5C4.5 6.36739 4.55268 6.24021 4.64645 6.14645C4.74021 6.05268 4.86739 6 5 6H11C11.1326 6 11.2598 6.05268 11.3536 6.14645C11.4473 6.24021 11.5 6.36739 11.5 6.5C11.5 6.63261 11.4473 6.75979 11.3536 6.85355C11.2598 6.94732 11.1326 7 11 7H5C4.86739 7 4.74021 6.94732 4.64645 6.85355C4.55268 6.75979 4.5 6.63261 4.5 6.5ZM5 9H11C11.1326 9 11.2598 8.94732 11.3536 8.85355C11.4473 8.75979 11.5 8.63261 11.5 8.5C11.5 8.36739 11.4473 8.24021 11.3536 8.14645C11.2598 8.05268 11.1326 8 11 8H5C4.86739 8 4.74021 8.05268 4.64645 8.14645C4.55268 8.24021 4.5 8.36739 4.5 8.5C4.5 8.63261 4.55268 8.75979 4.64645 8.85355C4.74021 8.94732 4.86739 9 5 9ZM14.5 3.5V13C14.5 13.0852 14.4781 13.169 14.4366 13.2434C14.3951 13.3178 14.3352 13.3804 14.2627 13.4252C14.1902 13.4699 14.1074 13.4954 14.0223 13.4992C13.9372 13.503 13.8525 13.485 13.7762 13.4469L12 12.5588L10.2238 13.4469C10.1543 13.4816 10.0777 13.4997 10 13.4997C9.92232 13.4997 9.84571 13.4816 9.77625 13.4469L8 12.5588L6.22375 13.4469C6.15428 13.4816 6.07768 13.4997 6 13.4997C5.92232 13.4997 5.84572 13.4816 5.77625 13.4469L4 12.5588L2.22375 13.4469C2.14754 13.485 2.06285 13.503 1.97771 13.4992C1.89258 13.4954 1.80983 13.4699 1.73732 13.4252C1.66481 13.3804 1.60494 13.3178 1.56341 13.2434C1.52187 13.169 1.50005 13.0852 1.5 13V3.5C1.5 3.23478 1.60536 2.98043 1.79289 2.79289C1.98043 2.60536 2.23478 2.5 2.5 2.5H13.5C13.7652 2.5 14.0196 2.60536 14.2071 2.79289C14.3946 2.98043 14.5 3.23478 14.5 3.5ZM13.5 3.5H2.5V12.1912L3.77625 11.5525C3.84571 11.5177 3.92232 11.4996 4 11.4996C4.07768 11.4996 4.15429 11.5177 4.22375 11.5525L6 12.4412L7.77625 11.5525C7.84572 11.5177 7.92232 11.4996 8 11.4996C8.07768 11.4996 8.15428 11.5177 8.22375 11.5525L10 12.4412L11.7762 11.5525C11.8457 11.5177 11.9223 11.4996 12 11.4996C12.0777 11.4996 12.1543 11.5177 12.2238 11.5525L13.5 12.1912V3.5Z" fill="#397D32"/>
</svg>
