<svg width="36" height="36" viewBox="0 0 36 36" fill="none" xmlns="http://www.w3.org/2000/svg">
<g filter="url(#filter0_b_235_52895)">
<rect width="36" height="36" rx="4" fill="#4CAF50" fill-opacity="0.15"/>
<rect x="11.0001" y="11.0001" width="13.9999" height="13.9999" rx="2.8333" stroke="#4CAF50" stroke-width="0.833324"/>
<path d="M26.3332 23.4166V17.2803C26.3332 16.7573 25.9093 16.3333 25.3863 16.3333C24.8633 16.3333 24.4393 16.7573 24.4393 17.2803V21.0083C24.4393 22.2379 23.1016 23.1527 21.8943 22.9196C20.8808 22.724 19.5758 22.5666 18 22.5666C16.4242 22.5666 15.1192 22.724 14.1057 22.9196C12.8984 23.1527 11.5607 22.2379 11.5607 21.0083V17.2803C11.5607 16.7573 11.1367 16.3333 10.6137 16.3333C10.0907 16.3333 9.66675 16.7573 9.66675 17.2803V23.4166C9.66675 24.5672 10.5995 25.4999 11.7501 25.4999H12.697H13.8334H14.9697H15.9167H18H20.0833H21.0303H22.1666H23.303H24.2499C25.4005 25.4999 26.3332 24.5672 26.3332 23.4166Z" fill="#4CAF50" stroke="#4CAF50" stroke-width="0.999989"/>
</g>
<defs>
<filter id="filter0_b_235_52895" x="-3" y="-3" width="42" height="42" filterUnits="userSpaceOnUse" color-interpolation-filters="sRGB">
<feFlood flood-opacity="0" result="BackgroundImageFix"/>
<feGaussianBlur in="BackgroundImageFix" stdDeviation="1.5"/>
<feComposite in2="SourceAlpha" operator="in" result="effect1_backgroundBlur_235_52895"/>
<feBlend mode="normal" in="SourceGraphic" in2="effect1_backgroundBlur_235_52895" result="shape"/>
</filter>
</defs>
</svg>
