<svg width="24" height="24" viewBox="0 0 24 24" fill="none" xmlns="http://www.w3.org/2000/svg">
<path d="M21.5306 7.28055L9.53061 19.2806C9.46096 19.3503 9.37824 19.4056 9.2872 19.4433C9.19615 19.4811 9.09855 19.5005 8.99999 19.5005C8.90143 19.5005 8.80383 19.4811 8.71278 19.4433C8.62174 19.4056 8.53902 19.3503 8.46936 19.2806L3.21936 14.0306C3.07863 13.8898 2.99957 13.699 2.99957 13.4999C2.99957 13.3009 3.07863 13.11 3.21936 12.9693C3.3601 12.8286 3.55097 12.7495 3.74999 12.7495C3.94901 12.7495 4.13988 12.8286 4.28061 12.9693L8.99999 17.6896L20.4694 6.2193C20.6101 6.07857 20.801 5.99951 21 5.99951C21.199 5.99951 21.3899 6.07857 21.5306 6.2193C21.6713 6.36003 21.7504 6.55091 21.7504 6.74993C21.7504 6.94895 21.6713 7.13982 21.5306 7.28055Z" fill="#397D32"/>
</svg>
