<svg width="36" height="36" viewBox="0 0 36 36" fill="none" xmlns="http://www.w3.org/2000/svg">
<g filter="url(#filter0_b_235_52864)">
<rect width="36" height="36" rx="4" fill="#EFEFEF"/>
<path d="M20.8125 13.625C20.2777 13.6247 19.7453 13.6964 19.2297 13.8383C19.0262 13.5062 18.7789 13.2029 18.4945 12.9367L19.2375 11.8766C19.2846 11.8093 19.318 11.7335 19.3358 11.6533C19.3535 11.5731 19.3553 11.4903 19.3411 11.4094C19.3268 11.3286 19.2968 11.2513 19.2527 11.1821C19.2086 11.1128 19.1513 11.053 19.084 11.0059C19.0168 10.9588 18.9409 10.9254 18.8607 10.9076C18.7806 10.8899 18.6977 10.888 18.6169 10.9023C18.536 10.9166 18.4588 10.9466 18.3895 10.9907C18.3203 11.0348 18.2604 11.0921 18.2133 11.1594L17.4703 12.2188C16.8594 11.9103 16.1844 11.7497 15.5 11.75C15.4547 11.75 15.4094 11.75 15.3641 11.75L15.1383 10.4774C15.1264 10.3944 15.098 10.3147 15.0548 10.243C15.0115 10.1713 14.9543 10.109 14.8865 10.0598C14.8187 10.0106 14.7417 9.97557 14.66 9.95675C14.5784 9.93793 14.4938 9.9357 14.4113 9.95021C14.3288 9.96472 14.2501 9.99567 14.1798 10.0412C14.1095 10.0868 14.049 10.146 14.0021 10.2153C13.9551 10.2847 13.9226 10.3628 13.9064 10.445C13.8902 10.5272 13.8907 10.6118 13.9078 10.6938L14.1328 11.9703C13.4397 12.1996 12.8148 12.5984 12.3149 13.1305L11.2508 12.3859C11.1836 12.3377 11.1075 12.3033 11.0269 12.2847C10.9463 12.266 10.8628 12.2636 10.7812 12.2775C10.6997 12.2914 10.6217 12.3214 10.5518 12.3656C10.4819 12.4099 10.4215 12.4676 10.3741 12.5354C10.3267 12.6032 10.2932 12.6797 10.2756 12.7605C10.258 12.8414 10.2566 12.9249 10.2715 13.0063C10.2864 13.0876 10.3173 13.1652 10.3625 13.2346C10.4076 13.3039 10.466 13.3636 10.5344 13.4102L11.5938 14.1539C11.2842 14.7648 11.1236 15.4402 11.125 16.125C11.125 16.1695 11.125 16.2149 11.125 16.2594L9.85236 16.4844C9.69832 16.5114 9.55999 16.5951 9.46468 16.7191C9.36938 16.8431 9.32401 16.9983 9.33755 17.1541C9.35109 17.3099 9.42255 17.455 9.53782 17.5607C9.65308 17.6664 9.80379 17.725 9.96017 17.725C9.99657 17.725 10.0329 17.7218 10.0688 17.7156L11.3438 17.4906C11.4558 17.8317 11.6096 18.1576 11.8016 18.4609C11.2038 19.0162 10.787 19.7387 10.6056 20.5342C10.4241 21.3296 10.4864 22.1613 10.7844 22.9209C11.0823 23.6805 11.602 24.3328 12.2759 24.7928C12.9498 25.2528 13.7466 25.4992 14.5625 25.5H20.8125C22.3872 25.5 23.8975 24.8745 25.011 23.761C26.1245 22.6475 26.75 21.1372 26.75 19.5625C26.75 17.9878 26.1245 16.4776 25.011 15.3641C23.8975 14.2506 22.3872 13.625 20.8125 13.625ZM12.375 16.125C12.3754 15.4632 12.5859 14.8186 12.9761 14.284C13.3664 13.7495 13.9163 13.3527 14.5466 13.1508C15.1769 12.9488 15.855 12.9522 16.4832 13.1605C17.1114 13.3687 17.6573 13.771 18.0422 14.3094C16.7673 14.9803 15.7786 16.0905 15.2594 17.4344C14.4378 17.2926 13.5924 17.4063 12.8375 17.7602C12.5353 17.2683 12.3752 16.7023 12.375 16.125ZM20.8125 24.25H14.5625C14.1778 24.2493 13.7974 24.1697 13.4447 24.0161C13.0921 23.8625 12.7746 23.6382 12.5121 23.3571C12.2496 23.0759 12.0475 22.7439 11.9184 22.3816C11.7892 22.0192 11.7358 21.6342 11.7614 21.2504C11.787 20.8666 11.8911 20.4921 12.0671 20.1501C12.2432 19.8081 12.4876 19.5058 12.7851 19.262C13.0827 19.0182 13.4271 18.8381 13.797 18.7327C14.167 18.6273 14.5546 18.5989 14.936 18.6492C14.907 18.8344 14.8867 19.0234 14.8758 19.2141C14.8663 19.3798 14.923 19.5426 15.0334 19.6665C15.1439 19.7905 15.2991 19.8655 15.4649 19.875C15.6306 19.8845 15.7934 19.8278 15.9173 19.7174C16.0413 19.6069 16.1163 19.4517 16.1258 19.2859C16.1433 18.9742 16.1925 18.6651 16.2727 18.3633C16.2727 18.3508 16.2797 18.3383 16.282 18.3258C16.5118 17.4816 16.9729 16.7185 17.6135 16.1225C18.254 15.5266 19.0484 15.1216 19.9069 14.9533C20.7654 14.785 21.6539 14.86 22.4721 15.17C23.2902 15.48 24.0054 16.0125 24.5368 16.7075C25.0683 17.4024 25.3949 18.2321 25.4797 19.1029C25.5645 19.9737 25.4042 20.8508 25.0168 21.6352C24.6295 22.4197 24.0305 23.0803 23.2876 23.5423C22.5447 24.0043 21.6874 24.2495 20.8125 24.25Z" fill="#747474"/>
</g>
<defs>
<filter id="filter0_b_235_52864" x="-3" y="-3" width="42" height="42" filterUnits="userSpaceOnUse" color-interpolation-filters="sRGB">
<feFlood flood-opacity="0" result="BackgroundImageFix"/>
<feGaussianBlur in="BackgroundImageFix" stdDeviation="1.5"/>
<feComposite in2="SourceAlpha" operator="in" result="effect1_backgroundBlur_235_52864"/>
<feBlend mode="normal" in="SourceGraphic" in2="effect1_backgroundBlur_235_52864" result="shape"/>
</filter>
</defs>
</svg>
