<svg width="17" height="16" viewBox="0 0 17 16" fill="none" xmlns="http://www.w3.org/2000/svg">
<path d="M14.0204 5.14625L10.5204 1.64625C10.4739 1.59983 10.4187 1.56303 10.3581 1.53793C10.2974 1.51284 10.2323 1.49995 10.1666 1.5H4.16663C3.90141 1.5 3.64706 1.60536 3.45952 1.79289C3.27198 1.98043 3.16663 2.23478 3.16663 2.5V13.5C3.16663 13.7652 3.27198 14.0196 3.45952 14.2071C3.64706 14.3946 3.90141 14.5 4.16663 14.5H13.1666C13.4318 14.5 13.6862 14.3946 13.8737 14.2071C14.0613 14.0196 14.1666 13.7652 14.1666 13.5V5.5C14.1667 5.43432 14.1538 5.36927 14.1287 5.30858C14.1036 5.24788 14.0668 5.19272 14.0204 5.14625ZM10.6666 3.20688L12.4598 5H10.6666V3.20688ZM13.1666 13.5H4.16663V2.5H9.66663V5.5C9.66663 5.63261 9.7193 5.75979 9.81307 5.85355C9.90684 5.94732 10.034 6 10.1666 6H13.1666V13.5ZM11.1666 8.5C11.1666 8.63261 11.1139 8.75979 11.0202 8.85355C10.9264 8.94732 10.7992 9 10.6666 9H6.66663C6.53402 9 6.40684 8.94732 6.31307 8.85355C6.2193 8.75979 6.16663 8.63261 6.16663 8.5C6.16663 8.36739 6.2193 8.24021 6.31307 8.14645C6.40684 8.05268 6.53402 8 6.66663 8H10.6666C10.7992 8 10.9264 8.05268 11.0202 8.14645C11.1139 8.24021 11.1666 8.36739 11.1666 8.5ZM11.1666 10.5C11.1666 10.6326 11.1139 10.7598 11.0202 10.8536C10.9264 10.9473 10.7992 11 10.6666 11H6.66663C6.53402 11 6.40684 10.9473 6.31307 10.8536C6.2193 10.7598 6.16663 10.6326 6.16663 10.5C6.16663 10.3674 6.2193 10.2402 6.31307 10.1464C6.40684 10.0527 6.53402 10 6.66663 10H10.6666C10.7992 10 10.9264 10.0527 11.0202 10.1464C11.1139 10.2402 11.1666 10.3674 11.1666 10.5Z" fill="#747474"/>
</svg>
