<svg width="36" height="36" viewBox="0 0 36 36" fill="none" xmlns="http://www.w3.org/2000/svg">
<g filter="url(#filter0_b_235_52857)">
<rect width="36" height="36" rx="4" fill="#EFEFEF"/>
<path d="M17.375 11.125V10.5C17.375 10.3342 17.4408 10.1753 17.5581 10.0581C17.6753 9.94085 17.8342 9.875 18 9.875C18.1658 9.875 18.3247 9.94085 18.4419 10.0581C18.5592 10.1753 18.625 10.3342 18.625 10.5V11.125C18.625 11.2908 18.5592 11.4497 18.4419 11.5669C18.3247 11.6842 18.1658 11.75 18 11.75C17.8342 11.75 17.6753 11.6842 17.5581 11.5669C17.4408 11.4497 17.375 11.2908 17.375 11.125ZM23 18C23 18.9889 22.7068 19.9556 22.1573 20.7779C21.6079 21.6001 20.827 22.241 19.9134 22.6194C18.9998 22.9978 17.9945 23.0969 17.0245 22.9039C16.0546 22.711 15.1637 22.2348 14.4645 21.5355C13.7652 20.8363 13.289 19.9454 13.0961 18.9755C12.9031 18.0055 13.0022 17.0002 13.3806 16.0866C13.759 15.173 14.3999 14.3921 15.2221 13.8427C16.0444 13.2932 17.0111 13 18 13C19.3256 13.0014 20.5966 13.5287 21.5339 14.4661C22.4713 15.4034 22.9986 16.6744 23 18ZM21.75 18C21.75 17.2583 21.5301 16.5333 21.118 15.9166C20.706 15.2999 20.1203 14.8193 19.4351 14.5355C18.7498 14.2516 17.9958 14.1774 17.2684 14.3221C16.541 14.4668 15.8728 14.8239 15.3483 15.3483C14.8239 15.8728 14.4668 16.541 14.3221 17.2684C14.1774 17.9958 14.2516 18.7498 14.5355 19.4351C14.8193 20.1203 15.2999 20.706 15.9166 21.118C16.5333 21.5301 17.2583 21.75 18 21.75C18.9942 21.749 19.9475 21.3535 20.6505 20.6505C21.3535 19.9475 21.749 18.9942 21.75 18ZM12.5578 13.4422C12.6751 13.5595 12.8341 13.6253 13 13.6253C13.1659 13.6253 13.3249 13.5595 13.4422 13.4422C13.5595 13.3249 13.6253 13.1659 13.6253 13C13.6253 12.8341 13.5595 12.6751 13.4422 12.5578L12.8172 11.9328C12.6999 11.8155 12.5409 11.7497 12.375 11.7497C12.2091 11.7497 12.0501 11.8155 11.9328 11.9328C11.8155 12.0501 11.7497 12.2091 11.7497 12.375C11.7497 12.5409 11.8155 12.6999 11.9328 12.8172L12.5578 13.4422ZM12.5578 22.5578L11.9328 23.1828C11.8155 23.3001 11.7497 23.4591 11.7497 23.625C11.7497 23.7909 11.8155 23.9499 11.9328 24.0672C12.0501 24.1845 12.2091 24.2503 12.375 24.2503C12.5409 24.2503 12.6999 24.1845 12.8172 24.0672L13.4422 23.4422C13.5003 23.3841 13.5463 23.3152 13.5777 23.2393C13.6092 23.1634 13.6253 23.0821 13.6253 23C13.6253 22.9179 13.6092 22.8366 13.5777 22.7607C13.5463 22.6848 13.5003 22.6159 13.4422 22.5578C13.3841 22.4997 13.3152 22.4537 13.2393 22.4223C13.1634 22.3908 13.0821 22.3747 13 22.3747C12.9179 22.3747 12.8366 22.3908 12.7607 22.4223C12.6848 22.4537 12.6159 22.4997 12.5578 22.5578ZM23 13.625C23.0821 13.6251 23.1634 13.609 23.2393 13.5776C23.3152 13.5462 23.3841 13.5002 23.4422 13.4422L24.0672 12.8172C24.1845 12.6999 24.2503 12.5409 24.2503 12.375C24.2503 12.2091 24.1845 12.0501 24.0672 11.9328C23.9499 11.8155 23.7909 11.7497 23.625 11.7497C23.4591 11.7497 23.3001 11.8155 23.1828 11.9328L22.5578 12.5578C22.4703 12.6452 22.4107 12.7566 22.3865 12.8779C22.3624 12.9992 22.3748 13.125 22.4221 13.2392C22.4695 13.3535 22.5496 13.4512 22.6525 13.5198C22.7554 13.5885 22.8763 13.6251 23 13.625ZM23.4422 22.5578C23.3249 22.4405 23.1659 22.3747 23 22.3747C22.8341 22.3747 22.6751 22.4405 22.5578 22.5578C22.4405 22.6751 22.3747 22.8341 22.3747 23C22.3747 23.1659 22.4405 23.3249 22.5578 23.4422L23.1828 24.0672C23.2409 24.1253 23.3098 24.1713 23.3857 24.2027C23.4616 24.2342 23.5429 24.2503 23.625 24.2503C23.7071 24.2503 23.7884 24.2342 23.8643 24.2027C23.9402 24.1713 24.0091 24.1253 24.0672 24.0672C24.1253 24.0091 24.1713 23.9402 24.2027 23.8643C24.2342 23.7884 24.2503 23.7071 24.2503 23.625C24.2503 23.5429 24.2342 23.4616 24.2027 23.3857C24.1713 23.3098 24.1253 23.2409 24.0672 23.1828L23.4422 22.5578ZM11.125 17.375H10.5C10.3342 17.375 10.1753 17.4408 10.0581 17.5581C9.94085 17.6753 9.875 17.8342 9.875 18C9.875 18.1658 9.94085 18.3247 10.0581 18.4419C10.1753 18.5592 10.3342 18.625 10.5 18.625H11.125C11.2908 18.625 11.4497 18.5592 11.5669 18.4419C11.6842 18.3247 11.75 18.1658 11.75 18C11.75 17.8342 11.6842 17.6753 11.5669 17.5581C11.4497 17.4408 11.2908 17.375 11.125 17.375ZM18 24.25C17.8342 24.25 17.6753 24.3158 17.5581 24.4331C17.4408 24.5503 17.375 24.7092 17.375 24.875V25.5C17.375 25.6658 17.4408 25.8247 17.5581 25.9419C17.6753 26.0592 17.8342 26.125 18 26.125C18.1658 26.125 18.3247 26.0592 18.4419 25.9419C18.5592 25.8247 18.625 25.6658 18.625 25.5V24.875C18.625 24.7092 18.5592 24.5503 18.4419 24.4331C18.3247 24.3158 18.1658 24.25 18 24.25ZM25.5 17.375H24.875C24.7092 17.375 24.5503 17.4408 24.4331 17.5581C24.3158 17.6753 24.25 17.8342 24.25 18C24.25 18.1658 24.3158 18.3247 24.4331 18.4419C24.5503 18.5592 24.7092 18.625 24.875 18.625H25.5C25.6658 18.625 25.8247 18.5592 25.9419 18.4419C26.0592 18.3247 26.125 18.1658 26.125 18C26.125 17.8342 26.0592 17.6753 25.9419 17.5581C25.8247 17.4408 25.6658 17.375 25.5 17.375Z" fill="#747474"/>
</g>
<defs>
<filter id="filter0_b_235_52857" x="-3" y="-3" width="42" height="42" filterUnits="userSpaceOnUse" color-interpolation-filters="sRGB">
<feFlood flood-opacity="0" result="BackgroundImageFix"/>
<feGaussianBlur in="BackgroundImageFix" stdDeviation="1.5"/>
<feComposite in2="SourceAlpha" operator="in" result="effect1_backgroundBlur_235_52857"/>
<feBlend mode="normal" in="SourceGraphic" in2="effect1_backgroundBlur_235_52857" result="shape"/>
</filter>
</defs>
</svg>
