<svg width="328" height="112" viewBox="0 0 328 112" fill="none" xmlns="http://www.w3.org/2000/svg">
<rect x="124" width="80" height="80" rx="40" fill="#DBEFDC"/>
<path d="M168.926 45.9743C168.726 44.6477 168.279 43.395 167.628 42.2649C165.779 39.0506 162.946 36.8093 158.893 36.5405H158.786H157.251H151.694C151.798 37.0985 151.939 37.6455 152.117 38.1767C152.744 40.0346 153.812 41.7038 155.206 43.0744C155.957 43.8131 156.638 44.5206 157.559 45.0676C158.176 44.2203 159.184 43.6072 160.35 43.6072C161.911 43.6072 163.224 44.6037 163.633 45.9617C163.719 46.2462 163.767 46.5448 163.767 46.8545C163.767 46.8686 163.765 46.8812 163.765 46.8953C164.023 46.9095 164.284 46.9189 164.546 46.9189H169.025C169.007 46.5983 168.972 46.2839 168.926 45.9743Z" fill="#397D32"/>
<path d="M157.128 36.6127H151.657C151.529 35.9007 151.459 35.1685 151.459 34.4191C151.459 33.9679 151.485 33.5213 151.532 33.0811H167.379L168.249 33.145C171.121 33.359 173.864 34.4862 175.972 36.4301C176.138 36.5815 176.298 36.7392 176.455 36.8984C178.649 39.1467 180 42.2068 180 45.5808C180 46.032 179.975 46.4786 179.928 46.9189H177.966C177.966 46.897 177.97 46.8767 177.97 46.8549C177.97 45.0734 176.511 43.6292 174.713 43.6292C172.914 43.6292 171.456 45.0734 171.456 46.8549C171.456 46.8767 171.459 46.897 171.459 46.9189H168.971C168.952 46.6035 168.921 46.2913 168.876 45.9837C168.686 44.6659 168.26 43.4216 167.639 42.299" fill="#4CAF50"/>
<path d="M155.21 43.1212C153.936 41.7408 152.956 40.0596 152.382 38.1884C152.218 37.6534 152.09 37.1041 151.994 36.5405H148C148.088 38.2439 148.542 39.8443 149.282 41.2596C150.517 43.6198 152.546 45.4609 154.994 46.3902C155.624 46.6292 156.281 46.8081 156.959 46.9189C156.961 46.2319 157.165 45.5955 157.514 45.0699C156.67 44.5206 155.898 43.8652 155.21 43.1212Z" fill="#4CAF50"/>
<path d="M89.3989 94.456H83.8549V109H80.7829V94.456H75.2389V91.768H89.3989V94.456ZM90.9913 94.72V91.768H93.9673V94.72H90.9913ZM93.9193 96.4V109H91.0393V96.4H93.9193ZM99.0336 102.712C99.0336 105.28 100.378 106.768 102.346 106.768C103.882 106.768 104.818 105.76 105.178 104.368L107.65 105.616C107.002 107.656 105.082 109.264 102.346 109.264C98.7456 109.264 96.1536 106.6 96.1536 102.712C96.1536 98.824 98.7456 96.16 102.346 96.16C105.058 96.16 106.93 97.696 107.602 99.712L105.178 101.032C104.818 99.664 103.882 98.632 102.346 98.632C100.378 98.632 99.0336 100.144 99.0336 102.712ZM112.271 91.768V101.704L117.119 96.4H120.647L115.895 101.296L121.031 109H117.695L113.927 103.312L112.271 104.992V109H109.391V91.768H112.271ZM127.211 109.264C123.611 109.264 121.091 106.6 121.091 102.712C121.091 99.016 123.587 96.16 127.091 96.16C130.739 96.16 132.683 98.92 132.683 102.376V103.336H123.851C124.067 105.496 125.363 106.816 127.211 106.816C128.627 106.816 129.755 106.096 130.139 104.8L132.611 105.736C131.723 107.944 129.731 109.264 127.211 109.264ZM127.067 98.584C125.579 98.584 124.427 99.472 123.995 101.176H129.779C129.755 99.784 128.891 98.584 127.067 98.584ZM135.108 105.832V98.848H133.356V96.4H135.108V92.704H137.94V96.4H140.58V98.848H137.94V105.376C137.94 106.504 138.588 106.624 139.62 106.624C140.1 106.624 140.364 106.6 140.796 106.552V108.976C140.268 109.072 139.548 109.144 138.804 109.144C136.404 109.144 135.108 108.4 135.108 105.832ZM150.203 100.384C150.203 104.104 152.219 106.552 155.051 106.552C157.067 106.552 158.531 105.328 159.059 103.312L161.939 104.296C160.931 107.344 158.531 109.264 155.051 109.264C150.467 109.264 147.131 105.616 147.131 100.384C147.131 95.152 150.467 91.504 155.051 91.504C158.531 91.504 160.931 93.424 161.939 96.472L159.059 97.456C158.531 95.44 157.067 94.216 155.051 94.216C152.219 94.216 150.203 96.664 150.203 100.384ZM167.243 109.216C164.843 109.216 162.995 107.752 162.995 105.496C162.995 103.096 164.795 102.04 167.219 101.536L170.699 100.816V100.6C170.699 99.4 170.075 98.656 168.539 98.656C167.171 98.656 166.451 99.28 166.115 100.504L163.403 99.88C164.027 97.792 165.875 96.16 168.659 96.16C171.683 96.16 173.507 97.6 173.507 100.504V105.928C173.507 106.648 173.819 106.864 174.611 106.768V109C172.523 109.24 171.419 108.832 170.987 107.8C170.195 108.688 168.875 109.216 167.243 109.216ZM170.699 104.56V103.024L167.987 103.6C166.763 103.864 165.851 104.248 165.851 105.376C165.851 106.36 166.571 106.912 167.675 106.912C169.211 106.912 170.699 106.096 170.699 104.56ZM176.657 109V96.4H179.537V97.744C180.257 96.904 181.385 96.16 183.017 96.16C185.657 96.16 187.241 97.984 187.241 100.696V109H184.361V101.536C184.361 99.976 183.737 98.848 182.153 98.848C180.857 98.848 179.537 99.808 179.537 101.608V109H176.657ZM192.268 102.712C192.268 105.28 193.612 106.768 195.58 106.768C197.116 106.768 198.052 105.76 198.412 104.368L200.884 105.616C200.236 107.656 198.316 109.264 195.58 109.264C191.98 109.264 189.388 106.6 189.388 102.712C189.388 98.824 191.98 96.16 195.58 96.16C198.292 96.16 200.164 97.696 200.836 99.712L198.412 101.032C198.052 99.664 197.116 98.632 195.58 98.632C193.612 98.632 192.268 100.144 192.268 102.712ZM207.953 109.264C204.353 109.264 201.833 106.6 201.833 102.712C201.833 99.016 204.329 96.16 207.833 96.16C211.481 96.16 213.425 98.92 213.425 102.376V103.336H204.593C204.809 105.496 206.105 106.816 207.953 106.816C209.369 106.816 210.497 106.096 210.881 104.8L213.353 105.736C212.465 107.944 210.473 109.264 207.953 109.264ZM207.809 98.584C206.321 98.584 205.169 99.472 204.737 101.176H210.521C210.497 99.784 209.633 98.584 207.809 98.584ZM218.466 91.768V109H215.586V91.768H218.466ZM224.372 91.768V109H221.492V91.768H224.372ZM232.727 109.264C229.127 109.264 226.607 106.6 226.607 102.712C226.607 99.016 229.103 96.16 232.607 96.16C236.255 96.16 238.199 98.92 238.199 102.376V103.336H229.367C229.583 105.496 230.879 106.816 232.727 106.816C234.143 106.816 235.271 106.096 235.655 104.8L238.127 105.736C237.239 107.944 235.247 109.264 232.727 109.264ZM232.583 98.584C231.095 98.584 229.943 99.472 229.511 101.176H235.295C235.271 99.784 234.407 98.584 232.583 98.584ZM245.112 109.264C241.584 109.264 239.568 106.288 239.568 102.712C239.568 99.136 241.584 96.16 245.112 96.16C246.744 96.16 247.944 96.808 248.736 97.744V91.768H251.616V109H248.736V107.68C247.944 108.616 246.744 109.264 245.112 109.264ZM248.808 102.352C248.808 99.976 247.464 98.68 245.688 98.68C243.6 98.68 242.472 100.312 242.472 102.712C242.472 105.112 243.6 106.744 245.688 106.744C247.464 106.744 248.808 105.424 248.808 103.096V102.352Z" fill="#4CAF50"/>
</svg>
