<svg width="24" height="25" viewBox="0 0 24 25" fill="none" xmlns="http://www.w3.org/2000/svg">
<path d="M11.9999 3.8637C10.2199 3.8637 8.47984 4.39154 6.9998 5.38047C5.51975 6.3694 4.3662 7.77501 3.68501 9.41955C3.00382 11.0641 2.82559 12.8737 3.17286 14.6195C3.52013 16.3653 4.3773 17.969 5.63597 19.2277C6.89464 20.4863 8.49829 21.3435 10.2441 21.6908C11.9899 22.038 13.7995 21.8598 15.4441 21.1786C17.0886 20.4974 18.4942 19.3439 19.4832 17.8638C20.4721 16.3838 20.9999 14.6437 20.9999 12.8637C20.9972 10.4776 20.0481 8.18999 18.3609 6.50275C16.6736 4.81552 14.386 3.86643 11.9999 3.8637ZM11.9999 20.3637C10.5166 20.3637 9.06652 19.9238 7.83315 19.0997C6.59978 18.2756 5.63849 17.1043 5.07083 15.7338C4.50318 14.3634 4.35465 12.8554 4.64404 11.4005C4.93343 9.94566 5.64773 8.60929 6.69663 7.5604C7.74552 6.5115 9.08189 5.7972 10.5368 5.50781C11.9916 5.21842 13.4996 5.36694 14.8701 5.9346C16.2405 6.50226 17.4118 7.46355 18.236 8.69692C19.0601 9.93029 19.4999 11.3803 19.4999 12.8637C19.4977 14.8521 18.7068 16.7585 17.3008 18.1645C15.8947 19.5706 13.9884 20.3615 11.9999 20.3637ZM5.78055 3.64432L2.78055 6.64432C2.63982 6.78505 2.44895 6.86411 2.24993 6.86411C2.05091 6.86411 1.86003 6.78505 1.7193 6.64432C1.57857 6.50359 1.49951 6.31272 1.49951 6.1137C1.49951 5.91467 1.57857 5.7238 1.7193 5.58307L4.7193 2.58307C4.86003 2.44234 5.05091 2.36328 5.24993 2.36328C5.44895 2.36328 5.63982 2.44234 5.78055 2.58307C5.92128 2.7238 6.00035 2.91468 6.00035 3.1137C6.00035 3.31272 5.92128 3.50359 5.78055 3.64432ZM22.2806 6.64432C22.2109 6.71406 22.1282 6.76937 22.0371 6.80712C21.9461 6.84486 21.8485 6.86429 21.7499 6.86429C21.6514 6.86429 21.5538 6.84486 21.4627 6.80712C21.3717 6.76937 21.289 6.71406 21.2193 6.64432L18.2193 3.64432C18.0786 3.50359 17.9995 3.31272 17.9995 3.1137C17.9995 2.91468 18.0786 2.7238 18.2193 2.58307C18.36 2.44234 18.5509 2.36328 18.7499 2.36328C18.949 2.36328 19.1398 2.44234 19.2806 2.58307L22.2806 5.58307C22.3503 5.65273 22.4056 5.73544 22.4433 5.82649C22.4811 5.91754 22.5005 6.01514 22.5005 6.1137C22.5005 6.21226 22.4811 6.30985 22.4433 6.4009C22.4056 6.49195 22.3503 6.57467 22.2806 6.64432ZM17.2499 12.1137C17.4488 12.1137 17.6396 12.1927 17.7803 12.3334C17.9209 12.474 17.9999 12.6648 17.9999 12.8637C17.9999 13.0626 17.9209 13.2534 17.7803 13.394C17.6396 13.5347 17.4488 13.6137 17.2499 13.6137H11.9999C11.801 13.6137 11.6103 13.5347 11.4696 13.394C11.3289 13.2534 11.2499 13.0626 11.2499 12.8637V7.6137C11.2499 7.41479 11.3289 7.22402 11.4696 7.08337C11.6103 6.94272 11.801 6.8637 11.9999 6.8637C12.1988 6.8637 12.3896 6.94272 12.5303 7.08337C12.6709 7.22402 12.7499 7.41479 12.7499 7.6137V12.1137H17.2499Z" fill="#2D2D2D"/>
</svg>
