<svg width="20" height="20" viewBox="0 0 20 20" fill="none" xmlns="http://www.w3.org/2000/svg">
<path d="M14.375 14.375C14.375 15.038 14.1116 15.6739 13.6428 16.1427C13.1739 16.6115 12.538 16.8749 11.875 16.8749C10.8047 16.8749 9.76956 16.1773 9.4141 15.2171C9.36001 15.0626 9.36875 14.8929 9.43845 14.7447C9.50815 14.5965 9.63324 14.4816 9.7868 14.4247C9.94036 14.3678 10.1101 14.3734 10.2596 14.4404C10.409 14.5073 10.5262 14.6303 10.586 14.7828C10.761 15.2554 11.3281 15.6249 11.875 15.6249C12.2065 15.6249 12.5245 15.4932 12.7589 15.2588C12.9933 15.0244 13.125 14.7065 13.125 14.375C13.125 14.0434 12.9933 13.7255 12.7589 13.4911C12.5245 13.2567 12.2065 13.125 11.875 13.125H3.1251C2.95934 13.125 2.80037 13.0591 2.68317 12.9419C2.56596 12.8247 2.50011 12.6657 2.50011 12.5C2.50011 12.3342 2.56596 12.1752 2.68317 12.058C2.80037 11.9408 2.95934 11.875 3.1251 11.875H11.875C12.538 11.875 13.1739 12.1384 13.6428 12.6072C14.1116 13.076 14.375 13.7119 14.375 14.375ZM9.37504 8.12502C10.0381 8.12502 10.6739 7.86163 11.1428 7.3928C11.6116 6.92396 11.875 6.28808 11.875 5.62505C11.875 4.96202 11.6116 4.32614 11.1428 3.8573C10.6739 3.38847 10.0381 3.12508 9.37504 3.12508C8.30473 3.12508 7.26959 3.82273 6.91412 4.78287C6.86003 4.93745 6.86878 5.10709 6.93848 5.25528C7.00818 5.40348 7.13326 5.5184 7.28682 5.57532C7.44038 5.63224 7.61015 5.62661 7.7596 5.55965C7.90906 5.49268 8.02626 5.36973 8.08599 5.21724C8.26098 4.74459 8.82817 4.37506 9.37504 4.37506C9.70655 4.37506 10.0245 4.50676 10.2589 4.74118C10.4933 4.97559 10.625 5.29353 10.625 5.62505C10.625 5.95657 10.4933 6.27451 10.2589 6.50892C10.0245 6.74334 9.70655 6.87504 9.37504 6.87504H1.87512C1.70936 6.87504 1.55039 6.94088 1.43318 7.05809C1.31597 7.1753 1.25012 7.33427 1.25012 7.50003C1.25012 7.66579 1.31597 7.82476 1.43318 7.94197C1.55039 8.05918 1.70936 8.12502 1.87512 8.12502H9.37504ZM16.25 5.62505C15.1797 5.62505 14.1445 6.3227 13.7891 7.28284C13.735 7.43742 13.7437 7.60706 13.8134 7.75526C13.8831 7.90345 14.0082 8.01837 14.1618 8.07529C14.3153 8.13221 14.4851 8.12659 14.6345 8.05962C14.784 7.99265 14.9012 7.8697 14.9609 7.71721C15.1359 7.24456 15.7031 6.87504 16.25 6.87504C16.5815 6.87504 16.8994 7.00673 17.1338 7.24115C17.3683 7.47557 17.4999 7.79351 17.4999 8.12502C17.4999 8.45654 17.3683 8.77448 17.1338 9.0089C16.8994 9.24331 16.5815 9.37501 16.25 9.37501H2.50011C2.33435 9.37501 2.17538 9.44086 2.05817 9.55807C1.94096 9.67527 1.87512 9.83424 1.87512 10C1.87512 10.1658 1.94096 10.3247 2.05817 10.4419C2.17538 10.5591 2.33435 10.625 2.50011 10.625H16.25C16.913 10.625 17.5489 10.3616 18.0177 9.89277C18.4865 9.42393 18.7499 8.78806 18.7499 8.12502C18.7499 7.46199 18.4865 6.82611 18.0177 6.35727C17.5489 5.88844 16.913 5.62505 16.25 5.62505Z" fill="#747474"/>
<path d="M3.50012 16.2931L16.7931 3.00011" stroke="#EFEFEF" stroke-width="3" stroke-linecap="round"/>
<path d="M3.50012 16.2931L16.7931 3.00011" stroke="#747474" stroke-width="1.25" stroke-linecap="round"/>
</svg>
