<svg width="24" height="24" viewBox="0 0 24 24" fill="none" xmlns="http://www.w3.org/2000/svg">
<rect x="3.6" y="3.60012" width="16.8" height="16.8" rx="3.4" stroke="white" stroke-width="1.2"/>
<path d="M22 18.5001V11.1365C22 10.5089 21.4912 10.0001 20.8636 10.0001C20.236 10.0001 19.7273 10.5089 19.7273 11.1365V15.6102C19.7273 17.0857 18.122 18.1834 16.6732 17.9037C15.457 17.6689 13.891 17.4801 12 17.4801C10.109 17.4801 8.54304 17.6689 7.32678 17.9037C5.87801 18.1834 4.27273 17.0857 4.27273 15.6102V11.1365C4.27273 10.5089 3.76396 10.0001 3.13636 10.0001C2.50877 10.0001 2 10.5089 2 11.1365V18.5001C2 19.8808 3.11929 21.0001 4.5 21.0001H5.63636H7H8.36364H9.5H12H14.5H15.6364H17H18.3636H19.5C20.8807 21.0001 22 19.8808 22 18.5001Z" fill="#2D2D2D" stroke="white" stroke-width="1.2"/>
</svg>
