<svg width="16" height="16" viewBox="0 0 16 16" fill="none" xmlns="http://www.w3.org/2000/svg">
<path d="M7.99988 4C7.50542 4 7.02208 4.14662 6.61095 4.42133C6.19983 4.69603 5.8794 5.08648 5.69018 5.54329C5.50096 6.00011 5.45145 6.50277 5.54791 6.98773C5.64438 7.47268 5.88248 7.91814 6.23211 8.26777C6.58174 8.6174 7.0272 8.8555 7.51215 8.95196C7.9971 9.04843 8.49977 8.99892 8.95659 8.8097C9.4134 8.62048 9.80385 8.30005 10.0786 7.88893C10.3533 7.4778 10.4999 6.99445 10.4999 6.5C10.4999 5.83696 10.2365 5.20107 9.76764 4.73223C9.2988 4.26339 8.66292 4 7.99988 4ZM7.99988 8C7.70321 8 7.4132 7.91203 7.16652 7.7472C6.91985 7.58238 6.72759 7.34811 6.61406 7.07403C6.50053 6.79994 6.47082 6.49834 6.5287 6.20736C6.58658 5.91639 6.72944 5.64912 6.93922 5.43934C7.149 5.22956 7.41627 5.0867 7.70724 5.02882C7.99821 4.97094 8.29981 5.00065 8.5739 5.11418C8.84799 5.22771 9.08226 5.41997 9.24708 5.66664C9.4119 5.91332 9.49988 6.20333 9.49988 6.5C9.49988 6.89782 9.34184 7.27936 9.06054 7.56066C8.77923 7.84196 8.3977 8 7.99988 8ZM7.99988 1C6.5417 1.00165 5.14371 1.58165 4.11262 2.61274C3.08153 3.64383 2.50153 5.04182 2.49988 6.5C2.49988 8.4625 3.40675 10.5425 5.12488 12.5156C5.89689 13.4072 6.76579 14.2101 7.7155 14.9094C7.79957 14.9683 7.89973 14.9999 8.00238 14.9999C8.10502 14.9999 8.20518 14.9683 8.28925 14.9094C9.23722 14.2098 10.1044 13.4069 10.8749 12.5156C12.5905 10.5425 13.4999 8.4625 13.4999 6.5C13.4982 5.04182 12.9182 3.64383 11.8871 2.61274C10.856 1.58165 9.45806 1.00165 7.99988 1ZM7.99988 13.875C6.96675 13.0625 3.49988 10.0781 3.49988 6.5C3.49988 5.30653 3.97398 4.16193 4.8179 3.31802C5.66181 2.47411 6.8064 2 7.99988 2C9.19335 2 10.3379 2.47411 11.1819 3.31802C12.0258 4.16193 12.4999 5.30653 12.4999 6.5C12.4999 10.0769 9.033 13.0625 7.99988 13.875Z" fill="#747474"/>
</svg>
