<svg width="20" height="20" viewBox="0 0 20 20" fill="none" xmlns="http://www.w3.org/2000/svg">
<path d="M16.25 6.25C16.25 6.41576 16.1842 6.57473 16.0669 6.69194C15.9497 6.80915 15.7908 6.875 15.625 6.875H13.1133C13.1203 6.97813 13.125 7.08203 13.125 7.1875C13.1236 8.43026 12.6292 9.6217 11.7505 10.5005C10.8717 11.3792 9.68026 11.8736 8.4375 11.875H7.24141L12.9203 17.0375C12.9822 17.0924 13.0325 17.159 13.0685 17.2335C13.1044 17.308 13.1252 17.3889 13.1296 17.4715C13.1341 17.5541 13.1221 17.6367 13.0944 17.7146C13.0666 17.7925 13.0237 17.8642 12.9681 17.9254C12.9125 17.9866 12.8452 18.0361 12.7703 18.0712C12.6954 18.1062 12.6143 18.126 12.5316 18.1295C12.449 18.1329 12.3665 18.12 12.2889 18.0913C12.2113 18.0626 12.1402 18.0189 12.0797 17.9625L5.20469 11.7125C5.11134 11.6277 5.04585 11.5165 5.01683 11.3938C4.98781 11.271 4.99662 11.1423 5.04209 11.0247C5.08757 10.907 5.16759 10.8059 5.27163 10.7345C5.37566 10.6632 5.49885 10.625 5.625 10.625H8.4375C9.34886 10.624 10.2226 10.2615 10.867 9.61704C11.5115 8.97261 11.874 8.09886 11.875 7.1875C11.875 7.08203 11.8695 6.97813 11.8602 6.875H5.625C5.45924 6.875 5.30027 6.80915 5.18306 6.69194C5.06585 6.57473 5 6.41576 5 6.25C5 6.08424 5.06585 5.92527 5.18306 5.80806C5.30027 5.69085 5.45924 5.625 5.625 5.625H11.4977C11.2098 5.06091 10.7717 4.5873 10.2317 4.25644C9.6917 3.92557 9.0708 3.75031 8.4375 3.75H5.625C5.45924 3.75 5.30027 3.68415 5.18306 3.56694C5.06585 3.44973 5 3.29076 5 3.125C5 2.95924 5.06585 2.80027 5.18306 2.68306C5.30027 2.56585 5.45924 2.5 5.625 2.5H15.625C15.7908 2.5 15.9497 2.56585 16.0669 2.68306C16.1842 2.80027 16.25 2.95924 16.25 3.125C16.25 3.29076 16.1842 3.44973 16.0669 3.56694C15.9497 3.68415 15.7908 3.75 15.625 3.75H11.6203C12.1778 4.26589 12.6019 4.90927 12.8562 5.625H15.625C15.7908 5.625 15.9497 5.69085 16.0669 5.80806C16.1842 5.92527 16.25 6.08424 16.25 6.25Z" fill="#397D32"/>
</svg>
