<svg width="36" height="36" viewBox="0 0 36 36" fill="none" xmlns="http://www.w3.org/2000/svg">
<g filter="url(#filter0_b_235_52850)">
<rect width="36" height="36" rx="4" fill="#4CAF50" fill-opacity="0.15"/>
<path d="M26.75 19.875H23.5898C23.6129 19.6675 23.6246 19.4588 23.625 19.25C23.625 17.7582 23.0324 16.3274 21.9775 15.2725C20.9226 14.2176 19.4918 13.625 18 13.625C16.5082 13.625 15.0774 14.2176 14.0225 15.2725C12.9676 16.3274 12.375 17.7582 12.375 19.25C12.3754 19.4588 12.3871 19.6675 12.4102 19.875H9.25C9.08424 19.875 8.92527 19.9409 8.80806 20.0581C8.69085 20.1753 8.625 20.3342 8.625 20.5C8.625 20.6658 8.69085 20.8247 8.80806 20.9419C8.92527 21.0592 9.08424 21.125 9.25 21.125H26.75C26.9158 21.125 27.0747 21.0592 27.1919 20.9419C27.3092 20.8247 27.375 20.6658 27.375 20.5C27.375 20.3342 27.3092 20.1753 27.1919 20.0581C27.0747 19.9409 26.9158 19.875 26.75 19.875ZM13.625 19.25C13.6239 18.6484 13.7468 18.053 13.9862 17.501C14.2255 16.949 14.5762 16.4524 15.0162 16.042C15.4562 15.6317 15.9761 15.3166 16.5434 15.1163C17.1107 14.9159 17.7132 14.8348 18.3133 14.8779C18.9134 14.921 19.4982 15.0874 20.0311 15.3667C20.5639 15.646 21.0335 16.0322 21.4103 16.5012C21.7872 16.9702 22.0633 17.5118 22.2213 18.0923C22.3794 18.6728 22.416 19.2797 22.3289 19.875H13.6711C13.6408 19.668 13.6254 19.4592 13.625 19.25ZM24.875 23.625C24.875 23.7908 24.8092 23.9497 24.6919 24.0669C24.5747 24.1842 24.4158 24.25 24.25 24.25H11.75C11.5842 24.25 11.4253 24.1842 11.3081 24.0669C11.1908 23.9497 11.125 23.7908 11.125 23.625C11.125 23.4592 11.1908 23.3003 11.3081 23.1831C11.4253 23.0659 11.5842 23 11.75 23H24.25C24.4158 23 24.5747 23.0659 24.6919 23.1831C24.8092 23.3003 24.875 23.4592 24.875 23.625ZM13.6906 11.4047C13.6164 11.2563 13.6042 11.0846 13.6567 10.9272C13.7091 10.7699 13.822 10.6398 13.9703 10.5656C14.1187 10.4915 14.2904 10.4792 14.4478 10.5317C14.6051 10.5841 14.7352 10.697 14.8094 10.8453L15.4344 12.0953C15.4711 12.1688 15.493 12.2487 15.4988 12.3307C15.5046 12.4126 15.4943 12.4949 15.4683 12.5728C15.4423 12.6507 15.4013 12.7227 15.3475 12.7848C15.2937 12.8468 15.2281 12.8977 15.1547 12.9344C15.0812 12.9711 15.0013 12.993 14.9193 12.9988C14.8374 13.0047 14.7551 12.9943 14.6772 12.9683C14.5993 12.9423 14.5273 12.9013 14.4652 12.8475C14.4032 12.7937 14.3524 12.7281 14.3156 12.6547L13.6906 11.4047ZM9.31563 15.2203C9.35238 15.1469 9.40325 15.0814 9.46532 15.0277C9.52739 14.9739 9.59944 14.9329 9.67736 14.907C9.75529 14.8811 9.83755 14.8708 9.91945 14.8767C10.0014 14.8826 10.0813 14.9046 10.1547 14.9414L11.4047 15.5664C11.5529 15.6406 11.6657 15.7706 11.718 15.9279C11.7704 16.0852 11.7582 16.2568 11.684 16.4051C11.6098 16.5533 11.4798 16.666 11.3225 16.7184C11.1652 16.7708 10.9936 16.7586 10.8453 16.6844L9.59531 16.0594C9.52182 16.0227 9.45628 15.9719 9.40244 15.9098C9.34859 15.8478 9.30751 15.7758 9.28154 15.6978C9.25556 15.6199 9.2452 15.5376 9.25105 15.4557C9.2569 15.3737 9.27884 15.2938 9.31563 15.2203ZM24.3156 16.4047C24.2416 16.2564 24.2295 16.0848 24.2819 15.9276C24.3344 15.7704 24.4471 15.6405 24.5953 15.5664L25.8453 14.9414C25.9187 14.9047 25.9986 14.8828 26.0805 14.8769C26.1624 14.8711 26.2446 14.8814 26.3225 14.9074C26.4004 14.9333 26.4724 14.9743 26.5344 15.0281C26.5964 15.0818 26.6473 15.1473 26.684 15.2207C26.7207 15.2941 26.7426 15.374 26.7485 15.4559C26.7543 15.5378 26.744 15.62 26.718 15.6979C26.6921 15.7758 26.6511 15.8478 26.5973 15.9098C26.5435 15.9718 26.4781 16.0227 26.4047 16.0594L25.1547 16.6844C25.0812 16.7212 25.0013 16.7431 24.9193 16.749C24.8374 16.7548 24.7551 16.7444 24.6772 16.7185C24.5992 16.6925 24.5272 16.6514 24.4652 16.5976C24.4031 16.5437 24.3523 16.4782 24.3156 16.4047ZM20.5656 12.0953L21.1906 10.8453C21.2648 10.697 21.3949 10.5841 21.5522 10.5317C21.7096 10.4792 21.8813 10.4915 22.0297 10.5656C22.178 10.6398 22.2909 10.7699 22.3433 10.9272C22.3958 11.0846 22.3836 11.2563 22.3094 11.4047L21.6844 12.6547C21.6102 12.803 21.4801 12.9159 21.3228 12.9683C21.1654 13.0208 20.9937 13.0086 20.8453 12.9344C20.697 12.8602 20.5841 12.7301 20.5317 12.5728C20.4792 12.4154 20.4914 12.2437 20.5656 12.0953Z" fill="#397D32"/>
</g>
<defs>
<filter id="filter0_b_235_52850" x="-3" y="-3" width="42" height="42" filterUnits="userSpaceOnUse" color-interpolation-filters="sRGB">
<feFlood flood-opacity="0" result="BackgroundImageFix"/>
<feGaussianBlur in="BackgroundImageFix" stdDeviation="1.5"/>
<feComposite in2="SourceAlpha" operator="in" result="effect1_backgroundBlur_235_52850"/>
<feBlend mode="normal" in="SourceGraphic" in2="effect1_backgroundBlur_235_52850" result="shape"/>
</filter>
</defs>
</svg>
