<svg width="16" height="16" viewBox="0 0 16 16" fill="none" xmlns="http://www.w3.org/2000/svg">
<mask id="mask0_235_53579" style="mask-type:alpha" maskUnits="userSpaceOnUse" x="0" y="0" width="16" height="16">
<rect width="16" height="16" fill="#C4C4C4"/>
</mask>
<g mask="url(#mask0_235_53579)">
<path d="M9.81177 2.60358C11.0795 2.60358 11.9247 3.27081 11.9247 4.60526V4.82767C11.9247 5.93972 11.0795 6.82936 9.81177 6.82936" stroke="#747474" stroke-width="1.33333"/>
<path d="M8.80024 4.59196C8.80024 3.2575 7.95509 2.59027 6.68735 2.59027C5.41962 2.59027 4.57446 3.2575 4.57446 4.59196V4.81437C4.57446 5.92641 5.41962 6.81605 6.68735 6.81605C7.95509 6.81605 8.80024 5.92641 8.80024 4.81437V4.59196Z" stroke="#747474" stroke-width="1.33333"/>
<path d="M10.6647 12.6498H2.7688C2.7688 11.4091 2.86509 9.97569 4.2009 9.22399C4.77771 8.89939 5.58564 8.7019 6.71674 8.7019C7.84784 8.7019 8.65577 8.89939 9.23258 9.22399C10.5684 9.97569 10.6647 11.4091 10.6647 12.6498Z" stroke="#747474" stroke-width="1.33333"/>
<path d="M13.3334 12.4638C13.3334 11.1884 13.2387 9.71501 11.9248 8.94232" stroke="#747474" stroke-width="1.33333"/>
</g>
</svg>
