<svg width="36" height="36" viewBox="0 0 36 36" fill="none" xmlns="http://www.w3.org/2000/svg">
<g filter="url(#filter0_b_235_52871)">
<rect width="36" height="36" rx="4" fill="#EFEFEF"/>
<path d="M26.2453 19.1117C26.1651 19.0314 26.0646 18.9744 25.9545 18.9469C25.8443 18.9193 25.7288 18.9223 25.6203 18.9555C24.4285 19.3158 23.1614 19.346 21.9538 19.0429C20.7463 18.7398 19.6435 18.1148 18.7632 17.2344C17.8828 16.3541 17.2578 15.2514 16.9547 14.0438C16.6517 12.8362 16.6819 11.5691 17.0421 10.3773C17.0756 10.2688 17.0788 10.1531 17.0514 10.0428C17.024 9.93255 16.9671 9.83182 16.8868 9.75148C16.8064 9.67113 16.7057 9.61421 16.5954 9.58683C16.4851 9.55946 16.3695 9.56266 16.2609 9.5961C14.6133 10.1008 13.1668 11.1123 12.1273 12.4867C11.2182 13.6936 10.6637 15.1301 10.5261 16.6348C10.3885 18.1395 10.6731 19.6528 11.3481 21.0046C12.0231 22.3564 13.0616 23.4933 14.3471 24.2874C15.6326 25.0815 17.114 25.5014 18.625 25.5C20.3877 25.5054 22.1036 24.9324 23.5093 23.8688C24.8837 22.8293 25.8952 21.3828 26.4 19.7352C26.433 19.627 26.4361 19.5118 26.4088 19.402C26.3816 19.2923 26.3251 19.1919 26.2453 19.1117ZM22.7578 22.8703C21.434 23.8674 19.7946 24.3527 18.1413 24.237C16.4881 24.1212 14.9323 23.4121 13.7604 22.2403C12.5884 21.0685 11.8793 19.5128 11.7634 17.8595C11.6475 16.2063 12.1327 14.5668 13.1296 13.243C13.7792 12.3852 14.6189 11.6899 15.5828 11.2117C15.5279 11.5971 15.5002 11.9858 15.5 12.375C15.5022 14.5292 16.359 16.5945 17.8822 18.1177C19.4055 19.641 21.4708 20.4977 23.625 20.5C24.015 20.4999 24.4045 20.4722 24.7906 20.4172C24.312 21.3812 23.6161 22.221 22.7578 22.8703Z" fill="#747474"/>
</g>
<defs>
<filter id="filter0_b_235_52871" x="-3" y="-3" width="42" height="42" filterUnits="userSpaceOnUse" color-interpolation-filters="sRGB">
<feFlood flood-opacity="0" result="BackgroundImageFix"/>
<feGaussianBlur in="BackgroundImageFix" stdDeviation="1.5"/>
<feComposite in2="SourceAlpha" operator="in" result="effect1_backgroundBlur_235_52871"/>
<feBlend mode="normal" in="SourceGraphic" in2="effect1_backgroundBlur_235_52871" result="shape"/>
</filter>
</defs>
</svg>
