<svg width="46" height="44" viewBox="0 0 46 44" fill="none" xmlns="http://www.w3.org/2000/svg">
<rect x="3.5" y="0.5" width="39" height="39" rx="3.5" stroke="#2D2D2D"/>
<path d="M45 39V20.5C45 19.1193 43.8807 18 42.5 18C41.1193 18 40 19.1193 40 20.5V34.7639C40 36.2507 38.3937 37.3097 36.9708 36.8786C34.1582 36.0265 29.4345 35 23 35C16.5655 35 11.8418 36.0265 9.02922 36.8786C7.60632 37.3097 6 36.2507 6 34.7639V20.5C6 19.1193 4.88071 18 3.5 18C2.11929 18 1 19.1193 1 20.5V39C1 41.2091 2.79086 43 5 43H6.5H9H12H15H17.5H23H28.5H31H34H37H39.5H41C43.2091 43 45 41.2091 45 39Z" fill="#FCFCFC" stroke="#2D2D2D"/>
</svg>
