<svg width="24" height="25" viewBox="0 0 24 25" fill="none" xmlns="http://www.w3.org/2000/svg">
<path d="M10.9921 14.9186C11.9973 14.2494 12.7605 13.2745 13.1687 12.138C13.577 11.0016 13.6087 9.76389 13.2591 8.60802C12.9095 7.45215 12.1973 6.43946 11.2276 5.7197C10.258 4.99994 9.0825 4.61133 7.87492 4.61133C6.66735 4.61133 5.49184 4.99994 4.52221 5.7197C3.55258 6.43946 2.84032 7.45215 2.49076 8.60802C2.1412 9.76389 2.17288 11.0016 2.58114 12.138C2.9894 13.2745 3.75255 14.2494 4.75774 14.9186C2.93945 15.5888 1.38659 16.8289 0.330862 18.4539C0.275377 18.5364 0.236837 18.6291 0.217482 18.7266C0.198127 18.824 0.198344 18.9244 0.218119 19.0218C0.237895 19.1192 0.276835 19.2117 0.332676 19.294C0.388516 19.3762 0.460144 19.4465 0.543396 19.5008C0.626647 19.5551 0.719861 19.5923 0.81762 19.6103C0.915378 19.6282 1.01573 19.6266 1.11285 19.6054C1.20996 19.5842 1.3019 19.544 1.38332 19.487C1.46473 19.4299 1.53401 19.3573 1.58711 19.2733C2.2681 18.2259 3.19995 17.3652 4.29802 16.7694C5.3961 16.1736 6.62562 15.8615 7.87492 15.8615C9.12423 15.8615 10.3538 16.1736 11.4518 16.7694C12.5499 17.3652 13.4817 18.2259 14.1627 19.2733C14.2727 19.4368 14.4427 19.5504 14.6358 19.5896C14.8289 19.6288 15.0297 19.5905 15.1947 19.4828C15.3598 19.3752 15.4758 19.2069 15.5178 19.0143C15.5598 18.8218 15.5243 18.6205 15.419 18.4539C14.3633 16.8289 12.8104 15.5888 10.9921 14.9186ZM3.74992 10.2386C3.74992 9.42276 3.99185 8.62524 4.44511 7.94688C4.89837 7.26853 5.54261 6.73982 6.29636 6.42761C7.0501 6.1154 7.8795 6.03371 8.67967 6.19287C9.47984 6.35204 10.2148 6.7449 10.7917 7.32179C11.3686 7.89869 11.7615 8.63369 11.9207 9.43386C12.0798 10.234 11.9981 11.0634 11.6859 11.8172C11.3737 12.5709 10.845 13.2152 10.1667 13.6684C9.4883 14.1217 8.69077 14.3636 7.87492 14.3636C6.78129 14.3624 5.7328 13.9274 4.95948 13.1541C4.18616 12.3807 3.75117 11.3322 3.74992 10.2386ZM23.4506 19.4917C23.284 19.6004 23.081 19.6384 22.8864 19.5974C22.6918 19.5565 22.5214 19.4399 22.4127 19.2733C21.7326 18.2253 20.8008 17.3642 19.7025 16.7687C18.6042 16.1731 17.3743 15.8619 16.1249 15.8636C15.926 15.8636 15.7352 15.7846 15.5946 15.6439C15.4539 15.5033 15.3749 15.3125 15.3749 15.1136C15.3749 14.9147 15.4539 14.7239 15.5946 14.5833C15.7352 14.4426 15.926 14.3636 16.1249 14.3636C16.7324 14.363 17.3322 14.2283 17.8816 13.969C18.431 13.7098 18.9163 13.3324 19.3029 12.8638C19.6895 12.3952 19.9678 11.847 20.118 11.2584C20.2682 10.6698 20.2865 10.0553 20.1716 9.45875C20.0568 8.86223 19.8116 8.29845 19.4536 7.80767C19.0956 7.31689 18.6337 6.91124 18.1007 6.6197C17.5678 6.32816 16.977 6.15793 16.3707 6.12117C15.7643 6.08441 15.1573 6.18203 14.5931 6.40705C14.501 6.44682 14.402 6.46775 14.3018 6.46859C14.2016 6.46944 14.1022 6.45019 14.0095 6.41198C13.9169 6.37377 13.8328 6.31737 13.7623 6.24613C13.6918 6.17488 13.6363 6.09022 13.5991 5.99716C13.5619 5.9041 13.5437 5.80453 13.5456 5.70432C13.5475 5.6041 13.5695 5.50529 13.6102 5.41372C13.651 5.32215 13.7097 5.23967 13.7828 5.17116C13.856 5.10266 13.9421 5.04951 14.0362 5.01486C15.3275 4.49985 16.7639 4.48131 18.0681 4.96284C19.3723 5.44436 20.452 6.39182 21.0989 7.62244C21.7458 8.85306 21.914 10.2796 21.5711 11.627C21.2283 12.9743 20.3986 14.1469 19.2421 14.9186C21.0604 15.5888 22.6133 16.8289 23.669 18.4539C23.7776 18.6205 23.8156 18.8234 23.7747 19.0181C23.7337 19.2127 23.6171 19.3831 23.4506 19.4917Z" fill="#2D2D2D"/>
</svg>
