<svg width="24" height="24" viewBox="0 0 24 24" fill="none" xmlns="http://www.w3.org/2000/svg">
<path d="M23.8408 10.1168L21.4483 5.32995C21.3602 5.15376 21.2382 4.99666 21.0894 4.86762C20.9405 4.73858 20.7677 4.64012 20.5808 4.57788C20.3939 4.51563 20.1965 4.49081 20 4.50484C19.8035 4.51887 19.6117 4.57147 19.4355 4.65964L17.104 5.82495L12.1924 4.52557C12.0664 4.49278 11.934 4.49278 11.808 4.52557L6.89645 5.82495L4.56489 4.65964C4.38872 4.57147 4.1969 4.51887 4.0004 4.50484C3.8039 4.49081 3.60655 4.51563 3.41964 4.57788C3.23273 4.64012 3.05991 4.73858 2.91105 4.86762C2.7622 4.99666 2.64022 5.15376 2.55208 5.32995L0.159578 10.1159C0.0714119 10.2921 0.0188128 10.4839 0.00478447 10.6804C-0.00924383 10.8769 0.0155735 11.0742 0.0778192 11.2611C0.140065 11.448 0.23852 11.6209 0.367561 11.7697C0.496603 11.9186 0.653703 12.0406 0.829891 12.1287L3.36114 13.3953L8.56333 17.1106C8.63998 17.1651 8.72615 17.2049 8.81739 17.2278L14.8174 18.7278C14.943 18.7593 15.0747 18.7577 15.1996 18.7232C15.3244 18.6887 15.4382 18.6224 15.5299 18.5309L20.6927 13.3671L23.1696 12.1287C23.5252 11.9507 23.7955 11.6388 23.9212 11.2615C24.0469 10.8843 24.0177 10.4725 23.8399 10.1168H23.8408ZM18.6949 13.2453L15.469 10.6615C15.3244 10.5458 15.1422 10.4876 14.9574 10.4981C14.7725 10.5087 14.5981 10.5873 14.4677 10.7187C12.798 12.4006 10.9371 12.1878 9.7502 11.4378L13.804 7.50026H16.7861L19.3371 12.6012L18.6949 13.2453ZM3.89364 6.00026L5.8127 6.95839L3.41552 11.7443L1.5002 10.7871L3.89364 6.00026ZM14.7686 17.1687L9.32083 15.8074L4.70833 12.5131L7.33333 7.26307L12.0002 6.02651L12.919 6.26932L8.7002 10.3643L8.6927 10.3728C8.5339 10.5316 8.41278 10.724 8.33828 10.9359C8.26379 11.1478 8.23782 11.3736 8.26229 11.5969C8.28677 11.8201 8.36106 12.035 8.47969 12.2257C8.59832 12.4164 8.75826 12.5781 8.9477 12.6987C10.8752 13.9296 13.2011 13.7299 15.033 12.2299L17.6252 14.3121L14.7686 17.1687ZM20.5811 11.7434L18.1886 6.96214L20.1068 6.00026L22.5002 10.7871L20.5811 11.7434ZM12.3546 20.4312C12.3141 20.5933 12.2206 20.7372 12.089 20.8401C11.9573 20.9431 11.7951 20.9991 11.628 20.9993C11.5664 20.9992 11.505 20.9917 11.4452 20.9768L7.53864 19.9999C7.44727 19.9774 7.36104 19.9376 7.28458 19.8828L4.81427 18.1184C4.66237 17.9991 4.56234 17.8259 4.53499 17.6347C4.50764 17.4435 4.55509 17.2492 4.66745 17.0921C4.77981 16.9351 4.94842 16.8274 5.13818 16.7915C5.32794 16.7557 5.52422 16.7944 5.68614 16.8996L8.0402 18.5815L11.8127 19.5228C12.0056 19.571 12.1715 19.6939 12.2738 19.8645C12.3761 20.035 12.4065 20.2392 12.3583 20.4321L12.3546 20.4312Z" fill="#2D2D2D"/>
</svg>
