<svg width="20" height="20" viewBox="0 0 20 20" fill="none" xmlns="http://www.w3.org/2000/svg">
<path d="M16.3726 6.62476L16.7791 6.29217C17.1224 6.01129 17.072 5.47216 16.6826 5.25976L16.0468 4.913C15.8603 4.81125 15.6348 4.81125 15.4483 4.913L14.4976 5.43157" stroke="#747474" stroke-width="0.78125"/>
<path d="M3.44943 9.25H5.5M3.44943 12.25H5.5M2.5 10.7476H5.20468" stroke="#747474" stroke-width="0.78125" stroke-linecap="round"/>
<path d="M11.499 4.75V2.5" stroke="#747474" stroke-width="0.78125"/>
<path d="M10 2.5H13" stroke="#747474" stroke-width="0.875" stroke-linecap="round"/>
<path d="M5.53705 8.05487C6.43301 5.85146 8.51383 4.74976 11.2757 4.74976C15.0091 4.74976 17.498 6.76291 17.498 10.7892V11.4603C17.498 14.8155 15.0091 17.4998 11.2757 17.4998C8.47295 17.4998 6.37156 15.987 5.49805 13.8132" stroke="#747474" stroke-width="0.78125" stroke-linecap="round"/>
<path d="M10.7319 7.68186C10.7319 7.89759 10.9068 8.07248 11.1226 8.07248C11.3383 8.07248 11.5132 7.89759 11.5132 7.68186V6.64993C12.729 6.71275 13.7069 7.07292 14.3953 7.69402C15.1262 8.35349 15.5783 9.35004 15.6056 10.7338H14.7473C14.5316 10.7338 14.3567 10.9087 14.3567 11.1244C14.3567 11.3401 14.5316 11.515 14.7473 11.515H15.605C15.5422 13.6809 13.9581 15.4272 11.5132 15.5955V14.7182C11.5132 14.5024 11.3383 14.3276 11.1226 14.3276C10.9068 14.3276 10.7319 14.5024 10.7319 14.7182V15.5955C8.28702 15.4272 6.70292 13.6809 6.64012 11.515H7.49779C7.71353 11.515 7.88841 11.3401 7.88841 11.1244C7.88841 10.9087 7.71353 10.7338 7.49779 10.7338H6.6395C6.66684 9.35004 7.11894 8.35349 7.84986 7.69402C8.53824 7.07292 9.51615 6.71275 10.7319 6.64993V7.68186Z" stroke="#747474" stroke-width="0.78125" stroke-linecap="round"/>
<path d="M10.7495 10L10.7495 12.25L12.2495 11.8467" stroke="#747474" stroke-width="0.78125" stroke-linecap="round" stroke-linejoin="round"/>
</svg>
