<svg width="20" height="20" viewBox="0 0 20 20" fill="none" xmlns="http://www.w3.org/2000/svg">
<path d="M17.4571 3.1305C17.4482 2.9776 17.3834 2.8333 17.2751 2.72499C17.1668 2.61669 17.0225 2.55193 16.8696 2.543C10.922 2.19378 6.15792 3.9844 4.12667 7.34378C3.42258 8.49293 3.07562 9.8253 3.12979 11.1719C3.17432 12.4157 3.53682 13.6719 4.20713 14.9102L2.68292 16.4336C2.56564 16.5509 2.49976 16.71 2.49976 16.8758C2.49976 17.0417 2.56564 17.2007 2.68292 17.318C2.80019 17.4353 2.95925 17.5012 3.1251 17.5012C3.29096 17.5012 3.45002 17.4353 3.56729 17.318L5.09073 15.7938C6.32823 16.4633 7.58526 16.8258 8.82823 16.8703C8.91521 16.8735 9.00193 16.875 9.08838 16.875C10.3476 16.8784 11.5829 16.5316 12.6564 15.8735C16.0157 13.8422 17.8071 9.07894 17.4571 3.1305ZM12.0118 14.8047C10.2345 15.8813 8.13057 15.8985 6.01885 14.8649L12.9431 7.94144C13.0011 7.88337 13.0472 7.81443 13.0786 7.73856C13.1101 7.66269 13.1262 7.58137 13.1262 7.49925C13.1262 7.41713 13.1101 7.33581 13.0786 7.25994C13.0472 7.18407 13.0011 7.11513 12.9431 7.05706C12.885 6.99899 12.8161 6.95293 12.7402 6.9215C12.6643 6.89008 12.583 6.8739 12.5009 6.8739C12.4188 6.8739 12.3374 6.89008 12.2616 6.9215C12.1857 6.95293 12.1168 6.99899 12.0587 7.05706L5.13526 13.9844C4.10479 11.875 4.11963 9.76565 5.19542 7.99144C6.9212 5.14222 11.0235 3.58206 16.2353 3.768C16.422 8.97581 14.861 13.0789 12.0118 14.8047Z" fill="#397D32"/>
</svg>
