<svg width="24" height="24" viewBox="0 0 24 24" fill="none" xmlns="http://www.w3.org/2000/svg">
<path d="M13.5253 4.30594C13.5508 4.21076 13.5947 4.12152 13.6547 4.04334C13.7147 3.96515 13.7894 3.89954 13.8748 3.85027C13.9601 3.80099 14.0543 3.76901 14.152 3.75615C14.2496 3.74329 14.3489 3.7498 14.4441 3.77531C15.8344 4.13808 17.103 4.86492 18.119 5.88097C19.1351 6.89703 19.8619 8.16557 20.2247 9.55594C20.2502 9.65111 20.2567 9.75037 20.2439 9.84805C20.231 9.94574 20.199 10.0399 20.1497 10.1253C20.1005 10.2106 20.0349 10.2854 19.9567 10.3453C19.8785 10.4053 19.7893 10.4492 19.6941 10.4747C19.6307 10.4913 19.5655 10.4998 19.5 10.5C19.3347 10.5 19.1741 10.4454 19.043 10.3447C18.912 10.244 18.8179 10.1028 18.7753 9.94313C18.4795 8.80812 17.8863 7.77254 17.0569 6.94315C16.2275 6.11375 15.1919 5.52055 14.0569 5.22469C13.9616 5.19933 13.8723 5.15544 13.794 5.09553C13.7157 5.03561 13.65 4.96085 13.6006 4.87552C13.5513 4.79019 13.5192 4.69596 13.5063 4.59823C13.4933 4.50049 13.4998 4.40117 13.5253 4.30594ZM13.3069 8.22469C14.5997 8.56969 15.4303 9.40031 15.7753 10.6931C15.8179 10.8528 15.912 10.994 16.043 11.0947C16.1741 11.1954 16.3347 11.25 16.5 11.25C16.5655 11.2498 16.6307 11.2413 16.6941 11.2247C16.7893 11.1992 16.8785 11.1553 16.9567 11.0953C17.0349 11.0354 17.1005 10.9606 17.1497 10.8753C17.199 10.7899 17.231 10.6957 17.2439 10.5981C17.2567 10.5004 17.2502 10.4011 17.2247 10.3059C16.7447 8.50969 15.4903 7.25531 13.6941 6.77531C13.5019 6.72397 13.2971 6.75108 13.1249 6.85068C12.9527 6.95028 12.8271 7.11421 12.7758 7.30641C12.7244 7.49861 12.7516 7.70333 12.8512 7.87554C12.9508 8.04775 13.1147 8.17334 13.3069 8.22469ZM20.9888 17.1638C20.8216 18.4341 20.1977 19.6001 19.2337 20.4441C18.2696 21.2881 17.0313 21.7523 15.75 21.75C8.30626 21.75 2.25001 15.6938 2.25001 8.25C2.24771 6.96871 2.7119 5.7304 3.55588 4.76634C4.39986 3.80228 5.56592 3.17841 6.83626 3.01125C7.1575 2.97203 7.4828 3.03775 7.76362 3.1986C8.04444 3.35945 8.2657 3.60681 8.39438 3.90375L10.3744 8.32406V8.33531C10.4729 8.56261 10.5136 8.81078 10.4928 9.05764C10.472 9.30449 10.3904 9.54237 10.2553 9.75C10.2384 9.77531 10.2206 9.79875 10.2019 9.82219L8.25001 12.1359C8.9522 13.5628 10.4447 15.0422 11.8903 15.7463L14.1722 13.8047C14.1946 13.7859 14.2181 13.7683 14.2425 13.7522C14.45 13.6138 14.6887 13.5294 14.937 13.5064C15.1853 13.4835 15.4354 13.5229 15.6647 13.6209L15.6769 13.6266L20.0934 15.6056C20.3909 15.7338 20.6389 15.9549 20.8003 16.2358C20.9616 16.5166 21.0278 16.8422 20.9888 17.1638ZM19.5 16.9763C19.5 16.9763 19.4934 16.9763 19.4897 16.9763L15.0834 15.0028L12.8006 16.9444C12.7785 16.9631 12.7553 16.9807 12.7313 16.9969C12.5154 17.1409 12.2659 17.2264 12.0071 17.2452C11.7483 17.2639 11.489 17.2152 11.2547 17.1038C9.49876 16.2553 7.74845 14.5181 6.89907 12.7809C6.7866 12.5483 6.73613 12.2906 6.75255 12.0327C6.76898 11.7748 6.85174 11.5255 6.99282 11.3091C7.00872 11.2836 7.02659 11.2595 7.04626 11.2369L9.00001 8.92031L7.03126 4.51406C7.03089 4.51032 7.03089 4.50655 7.03126 4.50281C6.12212 4.62141 5.28739 5.06734 4.68339 5.75711C4.0794 6.44688 3.74755 7.33317 3.75001 8.25C3.75348 11.4315 5.01888 14.4818 7.26856 16.7314C9.51825 18.9811 12.5685 20.2465 15.75 20.25C16.6663 20.2531 17.5523 19.9225 18.2425 19.3198C18.9327 18.7171 19.3797 17.8837 19.5 16.9753V16.9763Z" fill="#2D2D2D"/>
</svg>
