<svg width="14" height="14" viewBox="0 0 14 14" fill="none" xmlns="http://www.w3.org/2000/svg">
<path d="M11.375 5.25001C11.375 4.40337 11.1293 3.57492 10.6678 2.86514C10.2063 2.15536 9.54872 1.59473 8.77489 1.25126C8.00105 0.907792 7.14418 0.79623 6.30819 0.930107C5.4722 1.06398 4.69302 1.43755 4.06514 2.0055C3.43726 2.57344 2.98766 3.31137 2.77086 4.12978C2.55407 4.94819 2.5794 5.81192 2.84377 6.61623C3.10815 7.42053 3.60021 8.13084 4.26029 8.66102C4.92037 9.1912 5.72011 9.51847 6.5625 9.60314V10.9375H4.8125C4.69647 10.9375 4.58519 10.9836 4.50314 11.0656C4.42109 11.1477 4.375 11.259 4.375 11.375C4.375 11.491 4.42109 11.6023 4.50314 11.6844C4.58519 11.7664 4.69647 11.8125 4.8125 11.8125H6.5625V13.125C6.5625 13.241 6.60859 13.3523 6.69064 13.4344C6.77269 13.5164 6.88397 13.5625 7 13.5625C7.11603 13.5625 7.22731 13.5164 7.30936 13.4344C7.39141 13.3523 7.4375 13.241 7.4375 13.125V11.8125H9.1875C9.30353 11.8125 9.41481 11.7664 9.49686 11.6844C9.57891 11.6023 9.625 11.491 9.625 11.375C9.625 11.259 9.57891 11.1477 9.49686 11.0656C9.41481 10.9836 9.30353 10.9375 9.1875 10.9375H7.4375V9.60314C8.51613 9.49338 9.51575 8.98755 10.2431 8.18348C10.9704 7.37941 11.3737 6.33421 11.375 5.25001ZM3.5 5.25001C3.5 4.55777 3.70527 3.88109 4.08986 3.30551C4.47444 2.72994 5.02107 2.28134 5.66061 2.01643C6.30015 1.75152 7.00388 1.68221 7.68282 1.81726C8.36175 1.95231 8.98539 2.28565 9.47487 2.77514C9.96436 3.26462 10.2977 3.88826 10.4327 4.56719C10.5678 5.24613 10.4985 5.94986 10.2336 6.5894C9.96867 7.22894 9.52007 7.77557 8.9445 8.16015C8.36892 8.54474 7.69223 8.75001 7 8.75001C6.07205 8.749 5.1824 8.37992 4.52625 7.72376C3.87009 7.06761 3.50101 6.17796 3.5 5.25001Z" fill="#D7008F"/>
</svg>
