<svg width="32" height="33" viewBox="0 0 32 33" fill="none" xmlns="http://www.w3.org/2000/svg">
<path d="M18.0338 6.51053C18.0677 6.38362 18.1263 6.26464 18.2063 6.16039C18.2862 6.05614 18.3859 5.96867 18.4997 5.90297C18.6134 5.83726 18.739 5.79462 18.8693 5.77747C18.9995 5.76032 19.1319 5.76901 19.2588 5.80303C21.1126 6.28671 22.804 7.25583 24.1587 8.61057C25.5135 9.96531 26.4826 11.6567 26.9663 13.5105C27.0003 13.6374 27.009 13.7698 26.9918 13.9C26.9747 14.0303 26.932 14.1559 26.8663 14.2696C26.8006 14.3834 26.7131 14.4831 26.6089 14.563C26.5047 14.643 26.3857 14.7016 26.2588 14.7355C26.1743 14.7577 26.0873 14.7691 26 14.7693C25.7796 14.7693 25.5655 14.6965 25.3907 14.5622C25.216 14.4279 25.0905 14.2397 25.0338 14.0268C24.6393 12.5134 23.8483 11.1327 22.7425 10.0268C21.6366 8.92095 20.2559 8.13001 18.7425 7.73553C18.6155 7.70172 18.4964 7.6432 18.392 7.56331C18.2876 7.48343 18.2 7.38374 18.1342 7.26997C18.0683 7.15619 18.0256 7.03056 18.0084 6.90024C17.9911 6.76993 17.9998 6.6375 18.0338 6.51053ZM17.7425 11.7355C19.4663 12.1955 20.5738 13.303 21.0338 15.0268C21.0905 15.2397 21.216 15.4279 21.3907 15.5622C21.5655 15.6965 21.7796 15.7693 22 15.7693C22.0873 15.7691 22.1743 15.7577 22.2588 15.7355C22.3857 15.7016 22.5047 15.643 22.6089 15.563C22.7131 15.4831 22.8006 15.3834 22.8663 15.2696C22.932 15.1559 22.9747 15.0303 22.9918 14.9C23.009 14.7698 23.0003 14.6374 22.9663 14.5105C22.3263 12.1155 20.6538 10.443 18.2588 9.80303C18.0025 9.73457 17.7295 9.77072 17.4999 9.90352C17.2703 10.0363 17.1028 10.2549 17.0344 10.5112C16.9659 10.7674 17.0021 11.0404 17.1349 11.27C17.2677 11.4996 17.4862 11.6671 17.7425 11.7355ZM27.985 23.6543C27.7621 25.3481 26.9303 26.9028 25.6449 28.0281C24.3595 29.1534 22.7084 29.7723 21 29.7693C11.075 29.7693 3.00001 21.6943 3.00001 11.7693C2.99695 10.0609 3.61587 8.40981 4.74118 7.1244C5.86649 5.83899 7.42122 5.00716 9.11501 4.78428C9.54333 4.73198 9.97707 4.81961 10.3515 5.03408C10.7259 5.24855 11.0209 5.57836 11.1925 5.97428L13.8325 11.868V11.883C13.9639 12.1861 14.0181 12.517 13.9904 12.8461C13.9627 13.1753 13.8539 13.4924 13.6738 13.7693C13.6513 13.803 13.6275 13.8343 13.6025 13.8655L11 16.9505C11.9363 18.853 13.9263 20.8255 15.8538 21.7643L18.8963 19.1755C18.9261 19.1504 18.9574 19.127 18.99 19.1055C19.2666 18.921 19.5849 18.8084 19.916 18.7779C20.2471 18.7473 20.5806 18.7998 20.8863 18.9305L20.9025 18.938L26.7913 21.5768C27.1879 21.7477 27.5185 22.0425 27.7337 22.417C27.9489 22.7915 28.037 23.2255 27.985 23.6543ZM26 23.4043C26 23.4043 25.9913 23.4043 25.9863 23.4043L20.1113 20.773L17.0675 23.3618C17.038 23.3868 17.0071 23.4102 16.975 23.4318C16.6872 23.6238 16.3545 23.7379 16.0094 23.7628C15.6644 23.7878 15.3187 23.7228 15.0063 23.5743C12.665 22.443 10.3313 20.1268 9.19876 17.8105C9.0488 17.5003 8.9815 17.1567 9.0034 16.8129C9.0253 16.469 9.13565 16.1367 9.32376 15.848C9.34496 15.8141 9.36879 15.782 9.39501 15.7518L12 12.663L9.37501 6.78803C9.37452 6.78304 9.37452 6.77802 9.37501 6.77303C8.16283 6.93115 7.04986 7.52573 6.24453 8.44542C5.43919 9.36511 4.99674 10.5468 5.00001 11.7693C5.00464 16.0113 6.69184 20.0783 9.69142 23.0779C12.691 26.0774 16.758 27.7646 21 27.7693C22.2217 27.7735 23.4031 27.3326 24.3233 26.529C25.2436 25.7254 25.8396 24.6142 26 23.403V23.4043Z" fill="#4CAF50"/>
</svg>
