<svg width="56" height="56" viewBox="0 0 56 56" fill="none" xmlns="http://www.w3.org/2000/svg">
<g filter="url(#filter0_d_643_183)">
<rect x="4" y="52" width="48" height="48" rx="24" transform="rotate(-90 4 52)" fill="white" shape-rendering="crispEdges"/>
<path d="M23.3806 40H22.5407C21.8449 40 21.2809 39.4963 21.2809 38.875V22H18.7611C17.6395 22 17.0791 20.786 17.8702 20.0795L22.0698 16.3295C22.5618 15.8902 23.3595 15.8902 23.8515 16.3295L28.0511 20.0795C28.8391 20.7833 28.2866 22 27.1602 22H24.6405V38.875C24.6405 39.4963 24.0764 40 23.3806 40ZM31.3598 17.125V34H28.8401C27.7212 34 27.156 35.2123 27.9492 35.9205L32.1487 39.6705C32.6408 40.1098 33.4385 40.1098 33.9304 39.6705L38.13 35.9205C38.9188 35.2161 38.3645 34 37.2392 34H34.7194V17.125C34.7194 16.5037 34.1554 16 33.4596 16H32.6197C31.9238 16 31.3598 16.5037 31.3598 17.125Z" fill="#4CAF50"/>
</g>
<defs>
<filter id="filter0_d_643_183" x="0" y="0" width="56" height="56" filterUnits="userSpaceOnUse" color-interpolation-filters="sRGB">
<feFlood flood-opacity="0" result="BackgroundImageFix"/>
<feColorMatrix in="SourceAlpha" type="matrix" values="0 0 0 0 0 0 0 0 0 0 0 0 0 0 0 0 0 0 127 0" result="hardAlpha"/>
<feOffset/>
<feGaussianBlur stdDeviation="2"/>
<feComposite in2="hardAlpha" operator="out"/>
<feColorMatrix type="matrix" values="0 0 0 0 0.2 0 0 0 0 0.2 0 0 0 0 0.2 0 0 0 0.25 0"/>
<feBlend mode="normal" in2="BackgroundImageFix" result="effect1_dropShadow_643_183"/>
<feBlend mode="normal" in="SourceGraphic" in2="effect1_dropShadow_643_183" result="shape"/>
</filter>
</defs>
</svg>
