<svg width="24" height="25" viewBox="0 0 24 25" fill="none" xmlns="http://www.w3.org/2000/svg">
<g clip-path="url(#clip0_332_22809)">
<path d="M9.75 8.36328V17.3633C9.75 17.5622 9.67098 17.753 9.53033 17.8936C9.38968 18.0343 9.19891 18.1133 9 18.1133C8.80109 18.1133 8.61032 18.0343 8.46967 17.8936C8.32902 17.753 8.25 17.5622 8.25 17.3633V8.36328C8.25 8.16437 8.32902 7.9736 8.46967 7.83295C8.61032 7.6923 8.80109 7.61328 9 7.61328C9.19891 7.61328 9.38968 7.6923 9.53033 7.83295C9.67098 7.9736 9.75 8.16437 9.75 8.36328ZM12 7.61328C11.8011 7.61328 11.6103 7.6923 11.4697 7.83295C11.329 7.9736 11.25 8.16437 11.25 8.36328V17.3633C11.25 17.5622 11.329 17.753 11.4697 17.8936C11.6103 18.0343 11.8011 18.1133 12 18.1133C12.1989 18.1133 12.3897 18.0343 12.5303 17.8936C12.671 17.753 12.75 17.5622 12.75 17.3633V8.36328C12.75 8.16437 12.671 7.9736 12.5303 7.83295C12.3897 7.6923 12.1989 7.61328 12 7.61328ZM15 7.61328C14.8011 7.61328 14.6103 7.6923 14.4697 7.83295C14.329 7.9736 14.25 8.16437 14.25 8.36328V17.3633C14.25 17.5622 14.329 17.753 14.4697 17.8936C14.6103 18.0343 14.8011 18.1133 15 18.1133C15.1989 18.1133 15.3897 18.0343 15.5303 17.8936C15.671 17.753 15.75 17.5622 15.75 17.3633V8.36328C15.75 8.16437 15.671 7.9736 15.5303 7.83295C15.3897 7.6923 15.1989 7.61328 15 7.61328ZM19.5 6.11328V19.6133C19.5 20.0111 19.342 20.3926 19.0607 20.6739C18.7794 20.9552 18.3978 21.1133 18 21.1133H16.5V22.6133C16.5 22.8122 16.421 23.003 16.2803 23.1436C16.1397 23.2843 15.9489 23.3633 15.75 23.3633C15.5511 23.3633 15.3603 23.2843 15.2197 23.1436C15.079 23.003 15 22.8122 15 22.6133V21.1133H9V22.6133C9 22.8122 8.92098 23.003 8.78033 23.1436C8.63968 23.2843 8.44891 23.3633 8.25 23.3633C8.05109 23.3633 7.86032 23.2843 7.71967 23.1436C7.57902 23.003 7.5 22.8122 7.5 22.6133V21.1133H6C5.60218 21.1133 5.22064 20.9552 4.93934 20.6739C4.65804 20.3926 4.5 20.0111 4.5 19.6133V6.11328C4.5 5.71546 4.65804 5.33393 4.93934 5.05262C5.22064 4.77132 5.60218 4.61328 6 4.61328H8.25V2.36328C8.25 1.76654 8.48705 1.19425 8.90901 0.772291C9.33097 0.350334 9.90326 0.113281 10.5 0.113281L13.5 0.113281C14.0967 0.113281 14.669 0.350334 15.091 0.772291C15.5129 1.19425 15.75 1.76654 15.75 2.36328V4.61328H18C18.3978 4.61328 18.7794 4.77132 19.0607 5.05262C19.342 5.33393 19.5 5.71546 19.5 6.11328ZM9.75 4.61328H14.25V2.36328C14.25 2.16437 14.171 1.9736 14.0303 1.83295C13.8897 1.6923 13.6989 1.61328 13.5 1.61328H10.5C10.3011 1.61328 10.1103 1.6923 9.96967 1.83295C9.82902 1.9736 9.75 2.16437 9.75 2.36328V4.61328ZM18 19.6133V6.11328H6V19.6133H18Z" fill="#2D2D2D"/>
</g>
<defs>
<clipPath id="clip0_332_22809">
<rect width="24" height="24" fill="white" transform="translate(0 0.113281)"/>
</clipPath>
</defs>
</svg>
