<svg width="32" height="33" viewBox="0 0 32 33" fill="none" xmlns="http://www.w3.org/2000/svg">
<path d="M28 6.5127H4C3.73478 6.5127 3.48043 6.61805 3.29289 6.80559C3.10536 6.99313 3 7.24748 3 7.5127V24.5127C3 25.0431 3.21071 25.5518 3.58579 25.9269C3.96086 26.302 4.46957 26.5127 5 26.5127H27C27.5304 26.5127 28.0391 26.302 28.4142 25.9269C28.7893 25.5518 29 25.0431 29 24.5127V7.5127C29 7.24748 28.8946 6.99313 28.7071 6.80559C28.5196 6.61805 28.2652 6.5127 28 6.5127ZM16 17.1564L6.57125 8.5127H25.4287L16 17.1564ZM12.3387 16.5127L5 23.2389V9.78645L12.3387 16.5127ZM13.8188 17.8689L15.3188 19.2502C15.5032 19.4196 15.7446 19.5135 15.995 19.5135C16.2454 19.5135 16.4868 19.4196 16.6712 19.2502L18.1712 17.8689L25.4212 24.5127H6.57125L13.8188 17.8689ZM19.6612 16.5127L27 9.7852V23.2402L19.6612 16.5127Z" fill="#4CAF50"/>
</svg>
