<svg width="17" height="16" viewBox="0 0 17 16" fill="none" xmlns="http://www.w3.org/2000/svg">
<path d="M14.3336 7.50028C14.3336 7.63289 14.2809 7.76006 14.1871 7.85383C14.0934 7.9476 13.9662 8.00028 13.8336 8.00028H8.33359C8.20098 8.00028 8.07381 7.9476 7.98004 7.85383C7.88627 7.76006 7.83359 7.63289 7.83359 7.50028C7.83359 7.36767 7.88627 7.24049 7.98004 7.14672C8.07381 7.05296 8.20098 7.00028 8.33359 7.00028H13.8336C13.9662 7.00028 14.0934 7.05296 14.1871 7.14672C14.2809 7.24049 14.3336 7.36767 14.3336 7.50028ZM8.33359 4.00028H13.8336C13.9662 4.00028 14.0934 3.9476 14.1871 3.85383C14.2809 3.76006 14.3336 3.63289 14.3336 3.50028C14.3336 3.36767 14.2809 3.24049 14.1871 3.14672C14.0934 3.05296 13.9662 3.00028 13.8336 3.00028H8.33359C8.20098 3.00028 8.07381 3.05296 7.98004 3.14672C7.88627 3.24049 7.83359 3.36767 7.83359 3.50028C7.83359 3.63289 7.88627 3.76006 7.98004 3.85383C8.07381 3.9476 8.20098 4.00028 8.33359 4.00028ZM13.8336 11.0003H8.33359C8.20098 11.0003 8.07381 11.053 7.98004 11.1467C7.88627 11.2405 7.83359 11.3677 7.83359 11.5003C7.83359 11.6329 7.88627 11.7601 7.98004 11.8538C8.07381 11.9476 8.20098 12.0003 8.33359 12.0003H13.8336C13.9662 12.0003 14.0934 11.9476 14.1871 11.8538C14.2809 11.7601 14.3336 11.6329 14.3336 11.5003C14.3336 11.3677 14.2809 11.2405 14.1871 11.1467C14.0934 11.053 13.9662 11.0003 13.8336 11.0003ZM5.47984 2.14653L3.83359 3.7934L3.18734 3.14653C3.09352 3.05271 2.96627 3 2.83359 3C2.70091 3 2.57366 3.05271 2.47984 3.14653C2.38602 3.24035 2.33331 3.3676 2.33331 3.50028C2.33331 3.63296 2.38602 3.76021 2.47984 3.85403L3.47984 4.85403C3.52628 4.90052 3.58142 4.9374 3.64212 4.96256C3.70282 4.98772 3.76788 5.00067 3.83359 5.00067C3.8993 5.00067 3.96436 4.98772 4.02506 4.96256C4.08576 4.9374 4.1409 4.90052 4.18734 4.85403L6.18734 2.85403C6.28116 2.76021 6.33387 2.63296 6.33387 2.50028C6.33387 2.3676 6.28116 2.24035 6.18734 2.14653C6.09352 2.05271 5.96627 2 5.83359 2C5.70091 2 5.57366 2.05271 5.47984 2.14653ZM5.47984 6.14653L3.83359 7.7934L3.18734 7.14653C3.09352 7.05271 2.96627 7 2.83359 7C2.70091 7 2.57366 7.05271 2.47984 7.14653C2.38602 7.24035 2.33331 7.3676 2.33331 7.50028C2.33331 7.56598 2.34625 7.63103 2.37139 7.69173C2.39654 7.75242 2.43339 7.80757 2.47984 7.85403L3.47984 8.85403C3.52628 8.90052 3.58142 8.9374 3.64212 8.96256C3.70282 8.98772 3.76788 9.00067 3.83359 9.00067C3.8993 9.00067 3.96436 8.98772 4.02506 8.96256C4.08576 8.9374 4.1409 8.90052 4.18734 8.85403L6.18734 6.85403C6.28116 6.76021 6.33387 6.63296 6.33387 6.50028C6.33387 6.3676 6.28116 6.24035 6.18734 6.14653C6.09352 6.05271 5.96627 6 5.83359 6C5.70091 6 5.57366 6.05271 5.47984 6.14653ZM5.47984 10.1465L3.83359 11.7934L3.18734 11.1465C3.14089 11.1001 3.08574 11.0632 3.02504 11.0381C2.96434 11.0129 2.89929 11 2.83359 11C2.76789 11 2.70284 11.0129 2.64214 11.0381C2.58145 11.0632 2.5263 11.1001 2.47984 11.1465C2.43339 11.193 2.39654 11.2481 2.37139 11.3088C2.34625 11.3695 2.33331 11.4346 2.33331 11.5003C2.33331 11.566 2.34625 11.631 2.37139 11.6917C2.39654 11.7524 2.43339 11.8076 2.47984 11.854L3.47984 12.854C3.52628 12.9005 3.58142 12.9374 3.64212 12.9626C3.70282 12.9877 3.76788 13.0007 3.83359 13.0007C3.8993 13.0007 3.96436 12.9877 4.02506 12.9626C4.08576 12.9374 4.1409 12.9005 4.18734 12.854L6.18734 10.854C6.28116 10.7602 6.33387 10.633 6.33387 10.5003C6.33387 10.3676 6.28116 10.2403 6.18734 10.1465C6.09352 10.0527 5.96627 10 5.83359 10C5.70091 10 5.57366 10.0527 5.47984 10.1465Z" fill="#4CAF50"/>
</svg>
