<svg width="130" height="25" viewBox="0 0 130 25" fill="none" xmlns="http://www.w3.org/2000/svg">
<g clip-path="url(#clip0_1428_77533)">
<path d="M8.8371 19.7222C7.36295 18.1261 6.23024 16.1822 5.56667 14.0187C5.37761 13.4 5.22879 12.7649 5.11848 12.1133H0.5C0.601547 14.0828 1.12677 15.9333 1.98287 17.5697C3.40975 20.2987 5.7558 22.4275 8.58674 23.5019C9.31503 23.7783 10.0749 23.9851 10.8592 24.1133C10.861 23.3189 11.0973 22.5831 11.5 21.9754C10.5249 21.3402 9.63194 20.5825 8.8371 19.7222Z" fill="#4CAF50"/>
<path d="M11.0548 12.1967H4.72786C4.58024 11.3735 4.5 10.5269 4.5 9.66037C4.5 9.13866 4.52918 8.62237 4.58388 8.11328H22.9067L23.9128 8.18727C27.234 8.4346 30.4056 9.73799 32.8428 11.9856C33.0341 12.1606 33.2201 12.343 33.4005 12.5271C35.9378 15.1267 37.5 18.665 37.5 22.5661C37.5 23.0879 37.4708 23.6042 37.4162 24.1133H35.1486C35.1486 24.088 35.1522 24.0646 35.1522 24.0393C35.1522 21.9794 33.4662 20.3096 31.3864 20.3096C29.3065 20.3096 27.6204 21.9794 27.6204 24.0393C27.6204 24.0646 27.624 24.088 27.624 24.1133H24.7477C24.7258 23.7486 24.6894 23.3876 24.6383 23.0319C24.4178 21.5083 23.9256 20.0695 23.2074 18.7715" fill="#4CAF50"/>
<path d="M24.6958 23.0211C24.4644 21.4872 23.9482 20.0388 23.1949 18.7321C21.0572 15.0156 17.7823 12.424 13.0959 12.1133H12.9717H11.1973H4.77148C4.89196 12.7584 5.05444 13.3909 5.26097 14.0051C5.9856 16.1533 7.22082 18.0833 8.83262 19.6681C9.70075 20.5222 10.4877 21.3402 11.5528 21.9727C12.2659 20.9931 13.4325 20.2841 14.7804 20.2841C16.5854 20.2841 18.1036 21.4363 18.5759 23.0065C18.6753 23.3355 18.7307 23.6807 18.7307 24.0388C18.7307 24.0552 18.7288 24.0697 18.7288 24.086C19.0271 24.1024 19.3292 24.1133 19.6313 24.1133H24.8105C24.7895 23.7426 24.7493 23.3791 24.6958 23.0211Z" fill="#397D32"/>
<path d="M102.155 23.9599C102.092 23.842 101.969 23.8733 101.875 23.8512C100.363 23.4958 99.5482 22.4661 99.5007 20.8562C99.4719 19.902 99.685 18.992 99.9315 18.0857C100.716 15.2067 101.49 12.324 102.271 9.44313C102.539 8.45396 103.122 8.00271 104.117 8.00083C104.992 7.99896 105.869 8.00083 106.744 8.00083C107.108 8.00083 107.108 8.00083 107.012 8.35635C106.167 11.4785 105.32 14.6007 104.479 17.7247C104.412 17.9771 104.357 18.235 104.332 18.4947C104.252 19.2941 104.69 19.8651 105.457 19.948C106.799 20.0917 107.873 19.506 108.812 18.5794C108.894 18.5002 108.91 18.3915 108.938 18.2847C109.735 15.3412 110.536 12.3977 111.333 9.45414C111.595 8.48532 112.186 8.0119 113.148 8.00819C114.066 8.00454 114.984 8.00636 115.901 8.00819C115.993 8.00819 116.086 8.01555 116.203 8.02108C115.876 9.22943 115.556 10.4175 115.236 11.6038C114.537 14.19 113.818 16.7706 113.148 19.3659C112.815 20.6627 112.568 21.9834 112.3 23.2986C112.255 23.516 112.178 23.5804 111.97 23.5768C111.327 23.5638 110.681 23.5381 110.04 23.5804C109.197 23.6357 108.453 23.1052 108.405 22.0055C108.274 22.1216 108.159 22.2285 108.04 22.3297C106.939 23.2765 105.647 23.7259 104.246 23.8881C104.16 23.8973 104.053 23.8476 103.989 23.9581C103.863 23.9581 103.735 23.9581 103.609 23.9581C103.483 23.9046 103.356 23.9046 103.23 23.9581C102.873 23.9599 102.514 23.9599 102.155 23.9599Z" fill="#4CAF50"/>
<path d="M118.804 23.9604C118.531 23.8094 118.218 23.837 117.927 23.7652C117.276 23.6067 116.648 23.3949 116.093 22.997C114.959 22.1829 114.592 21.0243 114.719 19.652C114.744 19.3812 114.822 19.116 114.858 18.847C114.879 18.6831 114.949 18.6352 115.104 18.6352C116.445 18.6407 117.784 18.6444 119.124 18.6334C119.336 18.6315 119.327 18.7181 119.303 18.882C119.17 19.7607 119.463 20.2212 120.307 20.3704C121.035 20.4993 121.759 20.4588 122.429 20.0775C123.045 19.7257 123.341 19.1583 123.405 18.4528C123.439 18.0752 123.245 17.7934 122.856 17.6221C122.374 17.4102 121.855 17.379 121.341 17.3256C120.249 17.2132 119.161 17.0787 118.131 16.6532C116.702 16.0619 116.171 15.0083 116.5 13.4389C117.157 10.2928 119.07 8.39918 122.221 7.81165C123.826 7.51139 125.432 7.48926 127.015 7.94975C128.087 8.26107 128.952 8.85601 129.333 10.0183C129.392 10.1988 129.381 10.4033 129.5 10.5636C129.5 10.6078 129.5 10.652 129.5 10.6943C129.449 10.8252 129.449 10.9577 129.5 11.0885C129.5 11.1548 129.5 11.2193 129.5 11.2856C129.401 11.3814 129.271 11.3943 129.147 11.4164C127.858 11.643 126.571 11.8842 125.283 12.1127C124.999 12.1624 124.825 12.1072 124.711 11.8162C124.604 11.5454 124.372 11.3998 124.106 11.3317C123.394 11.1511 122.699 11.2101 122.043 11.5527C121.537 11.8179 121.252 12.2656 121.179 12.8476C121.12 13.3082 121.26 13.5439 121.675 13.7171C122.233 13.951 122.831 13.9491 123.415 14.0191C124.37 14.1334 125.32 14.266 126.23 14.6049C126.752 14.8002 127.239 15.0544 127.62 15.4854C127.991 15.9035 128.19 16.3935 128.196 16.97C128.224 19.6409 126.534 22.4094 123.728 23.4133C122.886 23.7136 122.031 23.9346 121.133 23.9272C121.09 23.9272 121.049 23.9291 121.016 23.9604C120.93 23.9604 120.847 23.9604 120.761 23.9604C120.572 23.907 120.382 23.907 120.192 23.9604C119.732 23.9604 119.269 23.9604 118.804 23.9604Z" fill="#4CAF50"/>
<path d="M85.4172 7.60566C84.9341 7.60013 84.476 7.71621 84.0326 7.89668C82.8095 8.39588 81.766 9.18976 80.7612 10.0445C80.5888 10.0297 80.6671 9.91738 80.6813 9.82894C80.7079 9.5674 80.7397 9.30762 80.7612 9.04608C80.8144 8.3627 80.4896 7.9943 79.8242 7.99065C78.9792 7.98694 78.1357 7.99983 77.2912 7.98329C77.0583 7.97954 76.993 8.07168 76.9429 8.28538C76.6039 9.71661 76.2952 11.1589 75.8905 12.5717C75.0758 15.4194 74.1654 18.2358 73.3862 21.0964C73.2066 21.754 73.2013 21.7522 72.536 21.7227C71.6037 21.6822 71.0501 21.1646 70.9243 20.2086C70.8229 19.4405 70.9968 18.7092 71.2167 17.9872C72.2054 14.7379 73.1925 11.4885 74.1884 8.24114C74.2574 8.0146 74.1989 7.98329 74.002 7.98512C73.0948 7.99248 72.1876 7.98694 71.2789 7.98877C70.2866 7.99065 69.7277 8.41613 69.4332 9.39053C68.6111 12.1001 67.763 14.7987 66.9853 17.5211C66.7738 18.2616 66.3816 18.7405 65.7674 19.0905C65.6666 19.1476 65.5668 19.2102 65.4624 19.2618C64.7166 19.632 63.9483 19.8697 63.1106 19.6892C62.5408 19.5657 62.2604 19.2102 62.2494 18.6098C62.2426 18.2542 62.3256 17.9172 62.4285 17.5819C63.1211 15.3125 63.8219 13.0451 64.5004 10.7702C64.926 9.34268 63.975 8.00354 62.5335 7.99248C60.6043 7.97776 58.7617 8.36087 57.0648 9.35187C56.8941 9.45131 56.7933 9.44213 56.6637 9.28738C56.1968 8.72745 55.6129 8.32957 54.9345 8.1251C52.1976 7.29987 49.6167 7.69592 47.2133 9.27632C46.5974 9.68155 46.04 10.1679 45.6531 10.8328C44.9093 12.1075 45.0229 13.7414 45.9442 14.9129C46.8104 16.0144 48.0547 16.3256 49.4889 15.7841C50.6036 15.3641 51.6207 14.7416 52.6449 14.1318C52.7781 14.0526 52.8987 13.9366 53.0622 13.9145C53.1066 14.0287 53.0763 14.1355 53.0601 14.2405C52.9003 15.2352 52.6147 16.1949 52.3006 17.1453C52.1426 17.6206 51.9189 18.0682 51.642 18.4863C50.9214 19.5712 49.938 20.0797 48.6635 19.9544C47.9003 19.8807 47.4032 19.4128 47.2542 18.6374C47.1689 18.2008 47.1654 17.7588 47.2701 17.3351C47.3571 16.9814 47.24 16.8598 46.9364 16.7328C45.5466 16.147 44.6484 15.1246 44.439 13.5406C44.3999 13.2459 44.4052 12.9456 44.3875 12.5846C44.3112 12.7246 44.265 12.8056 44.2206 12.8903C43.6491 13.9974 43.326 15.1965 43.0065 16.3975C42.7474 17.3719 42.5663 18.3556 42.5787 19.3705C42.6054 21.7227 43.8532 23.2902 46.0685 23.7728C46.34 23.8318 46.6311 23.8078 46.8831 23.9589C47.2843 23.9589 47.6855 23.9589 48.0866 23.9589C48.2127 23.9055 48.3404 23.9055 48.4665 23.9589C48.6351 23.9589 48.8037 23.9589 48.9724 23.9589C49.0097 23.8594 49.0966 23.8981 49.1623 23.8889C51.8976 23.5242 54.0221 22.1464 55.5419 19.7573C56.4381 18.3482 56.9244 16.7733 57.3328 15.1615C57.6487 13.9145 57.8368 12.6564 57.6148 11.3689C57.585 11.1975 57.6733 11.1589 57.7798 11.1073C58.2577 10.8771 58.7418 10.6634 59.2552 10.5289C59.5514 10.4515 59.8496 10.387 60.1765 10.4552C60.1426 10.5768 60.1144 10.6928 60.0804 10.8052C59.3649 13.1593 58.6515 15.5133 57.9329 17.8674C57.6879 18.6705 57.4748 19.4755 57.4268 20.3265C57.3328 21.9364 58.1224 23.1465 59.6349 23.4947C61.3636 23.8907 63.073 23.7286 64.7291 23.0729C65.5245 22.7561 66.1528 22.1869 66.7315 21.557C66.8239 21.4556 66.8981 21.3561 66.9978 21.5698C67.3634 22.36 68.011 22.78 68.8049 22.9734C69.8787 23.2369 70.9791 23.2645 72.0743 23.2921C73.6453 23.3289 75.2178 23.3013 76.7904 23.3142C77.0196 23.3161 77.1116 23.246 77.181 23.0158C78.0506 20.0944 78.9489 17.1822 79.8028 14.2552C79.9746 13.664 80.2995 13.2919 80.804 13.0377C80.9654 12.9567 81.1252 12.8719 81.2902 12.8037C82.176 12.4372 83.1004 12.312 84.0467 12.3359C84.24 12.3414 84.3183 12.2733 84.3732 12.0835C84.7831 10.6837 85.2004 9.28555 85.6266 7.89115C85.694 7.65355 85.6266 7.60748 85.4172 7.60566ZM52.4177 12.2217C51.713 12.6804 51.0722 13.2385 50.3178 13.6143C50.0977 13.7229 49.8705 13.8095 49.6256 13.8316C49.2102 13.8685 48.9883 13.605 49.0718 13.1832C49.2191 12.4353 49.8457 11.8901 50.7296 11.7501C50.9266 11.7188 51.1272 11.7096 51.3065 11.693C51.7148 11.7022 52.0751 11.7999 52.4052 12.0172C52.5064 12.0835 52.5472 12.137 52.4177 12.2217Z" fill="#4CAF50"/>
<path d="M99.8204 10.8875C99.6554 9.37154 98.8725 8.26817 97.5376 7.89977C95.4804 7.33431 93.5725 7.70641 91.8611 9.05474C91.778 9.121 91.7085 9.21497 91.5649 9.24074C91.5863 9.145 91.5984 9.08239 91.6161 9.01973C92.2125 6.83511 92.8111 4.65052 93.4038 2.4641C93.7496 1.18571 92.9902 0.128403 91.7247 0.121045C91.1017 0.117366 90.4802 0.133947 89.8571 0.113688C89.6174 0.10633 89.5411 0.198403 89.4811 0.421304C88.3697 4.55476 87.2531 8.68629 86.1313 12.8161C85.5244 15.0541 84.9295 17.2976 84.2871 19.5246C83.9231 20.7901 83.4797 22.0298 83.0551 23.275C82.9648 23.5401 83.0269 23.5733 83.2682 23.5696C84.1007 23.5567 84.9353 23.5641 85.7678 23.5641C86.5412 23.5641 87.0933 23.2031 87.4202 22.4737C87.5268 22.2361 87.6333 21.9985 87.743 21.7535C87.7785 21.7829 87.7895 21.7866 87.7947 21.7958C87.8161 21.8327 87.837 21.8714 87.8532 21.91C88.2861 22.9397 89.0622 23.5328 90.0916 23.8109C90.2692 23.8589 90.4676 23.8349 90.6259 23.9583C91.1743 23.9583 91.7226 23.9583 92.2716 23.9583C92.6638 23.8589 93.0607 23.7796 93.4482 23.6599C95.3707 23.0594 96.6623 21.6871 97.6316 19.9335C98.4306 18.4895 98.8918 16.9127 99.3039 15.3157C99.682 13.8661 99.9854 12.409 99.8204 10.8875ZM93.7125 18.4176C93.0079 19.6333 91.8454 20.1638 90.6295 19.8912C90.113 19.777 89.7025 19.4878 89.3724 19.0679C89.1275 18.7565 89.0424 18.4453 89.1651 18.0216C89.6158 16.4651 90.0221 14.8939 90.4447 13.3282C90.4817 13.1919 90.5261 13.0647 90.6348 12.9616C91.3377 12.2874 92.1222 11.7864 93.0931 11.6483C93.4341 11.6004 93.7673 11.6207 94.0958 11.7109C94.6855 11.8748 95.0474 12.328 95.12 12.9819C95.1414 13.1661 95.1414 13.3521 95.1503 13.5382C94.9106 15.242 94.5805 16.9201 93.7125 18.4176Z" fill="#4CAF50"/>
</g>
<defs>
<clipPath id="clip0_1428_77533">
<rect width="129" height="24" fill="white" transform="translate(0.5 0.113281)"/>
</clipPath>
</defs>
</svg>
