<svg width="17" height="15" viewBox="0 0 17 15" fill="none" xmlns="http://www.w3.org/2000/svg">
<path d="M14.3337 7.50028C14.3337 7.63289 14.281 7.76006 14.1872 7.85383C14.0934 7.9476 13.9663 8.00028 13.8337 8.00028H8.33365C8.20104 8.00028 8.07387 7.9476 7.9801 7.85383C7.88633 7.76006 7.83365 7.63289 7.83365 7.50028C7.83365 7.36767 7.88633 7.24049 7.9801 7.14672C8.07387 7.05296 8.20104 7.00028 8.33365 7.00028H13.8337C13.9663 7.00028 14.0934 7.05296 14.1872 7.14672C14.281 7.24049 14.3337 7.36767 14.3337 7.50028ZM8.33365 4.00028H13.8337C13.9663 4.00028 14.0934 3.9476 14.1872 3.85383C14.281 3.76006 14.3337 3.63289 14.3337 3.50028C14.3337 3.36767 14.281 3.24049 14.1872 3.14672C14.0934 3.05296 13.9663 3.00028 13.8337 3.00028H8.33365C8.20104 3.00028 8.07387 3.05296 7.9801 3.14672C7.88633 3.24049 7.83365 3.36767 7.83365 3.50028C7.83365 3.63289 7.88633 3.76006 7.9801 3.85383C8.07387 3.9476 8.20104 4.00028 8.33365 4.00028ZM13.8337 11.0003H8.33365C8.20104 11.0003 8.07387 11.053 7.9801 11.1467C7.88633 11.2405 7.83365 11.3677 7.83365 11.5003C7.83365 11.6329 7.88633 11.7601 7.9801 11.8538C8.07387 11.9476 8.20104 12.0003 8.33365 12.0003H13.8337C13.9663 12.0003 14.0934 11.9476 14.1872 11.8538C14.281 11.7601 14.3337 11.6329 14.3337 11.5003C14.3337 11.3677 14.281 11.2405 14.1872 11.1467C14.0934 11.053 13.9663 11.0003 13.8337 11.0003ZM5.4799 2.14653L3.83365 3.7934L3.1874 3.14653C3.09358 3.05271 2.96633 3 2.83365 3C2.70097 3 2.57372 3.05271 2.4799 3.14653C2.38608 3.24035 2.33337 3.3676 2.33337 3.50028C2.33337 3.63296 2.38608 3.76021 2.4799 3.85403L3.4799 4.85403C3.52634 4.90052 3.58148 4.9374 3.64218 4.96256C3.70288 4.98772 3.76794 5.00067 3.83365 5.00067C3.89936 5.00067 3.96442 4.98772 4.02512 4.96256C4.08582 4.9374 4.14097 4.90052 4.1874 4.85403L6.1874 2.85403C6.28122 2.76021 6.33393 2.63296 6.33393 2.50028C6.33393 2.3676 6.28122 2.24035 6.1874 2.14653C6.09358 2.05271 5.96633 2 5.83365 2C5.70097 2 5.57372 2.05271 5.4799 2.14653ZM5.4799 6.14653L3.83365 7.7934L3.1874 7.14653C3.09358 7.05271 2.96633 7 2.83365 7C2.70097 7 2.57372 7.05271 2.4799 7.14653C2.38608 7.24035 2.33337 7.3676 2.33337 7.50028C2.33337 7.56598 2.34631 7.63103 2.37146 7.69173C2.3966 7.75242 2.43345 7.80757 2.4799 7.85403L3.4799 8.85403C3.52634 8.90052 3.58148 8.9374 3.64218 8.96256C3.70288 8.98772 3.76794 9.00067 3.83365 9.00067C3.89936 9.00067 3.96442 8.98772 4.02512 8.96256C4.08582 8.9374 4.14097 8.90052 4.1874 8.85403L6.1874 6.85403C6.28122 6.76021 6.33393 6.63296 6.33393 6.50028C6.33393 6.3676 6.28122 6.24035 6.1874 6.14653C6.09358 6.05271 5.96633 6 5.83365 6C5.70097 6 5.57372 6.05271 5.4799 6.14653ZM5.4799 10.1465L3.83365 11.7934L3.1874 11.1465C3.14095 11.1001 3.0858 11.0632 3.0251 11.0381C2.9644 11.0129 2.89935 11 2.83365 11C2.76795 11 2.7029 11.0129 2.6422 11.0381C2.58151 11.0632 2.52636 11.1001 2.4799 11.1465C2.43345 11.193 2.3966 11.2481 2.37146 11.3088C2.34631 11.3695 2.33337 11.4346 2.33337 11.5003C2.33337 11.566 2.34631 11.631 2.37146 11.6917C2.3966 11.7524 2.43345 11.8076 2.4799 11.854L3.4799 12.854C3.52634 12.9005 3.58148 12.9374 3.64218 12.9626C3.70288 12.9877 3.76794 13.0007 3.83365 13.0007C3.89936 13.0007 3.96442 12.9877 4.02512 12.9626C4.08582 12.9374 4.14097 12.9005 4.1874 12.854L6.1874 10.854C6.28122 10.7602 6.33393 10.633 6.33393 10.5003C6.33393 10.3676 6.28122 10.2403 6.1874 10.1465C6.09358 10.0527 5.96633 10 5.83365 10C5.70097 10 5.57372 10.0527 5.4799 10.1465Z" fill="#747474"/>
</svg>
