<svg width="19" height="21" viewBox="0 0 19 21" fill="none" xmlns="http://www.w3.org/2000/svg">
<path fill-rule="evenodd" clip-rule="evenodd" d="M16.9184 6.75H13.8423V4.5C13.8423 2.01472 11.7765 0 9.22821 0C6.67991 0 4.61411 2.01472 4.61411 4.5V6.75H1.53804C0.688602 6.75 0 7.42157 0 8.25V18.75C0 19.5784 0.688602 20.25 1.53804 20.25H16.9184C17.7678 20.25 18.4564 19.5784 18.4564 18.75V8.25C18.4564 7.42157 17.7678 6.75 16.9184 6.75ZM6.15214 4.5C6.15214 2.84315 7.52935 1.5 9.22821 1.5C10.9271 1.5 12.3043 2.84315 12.3043 4.5V6.75H6.15214V4.5ZM16.9184 18.75H1.53804V8.25H16.9184V18.75ZM10.3817 13.5C10.3817 14.1213 9.86529 14.625 9.22821 14.625C8.59114 14.625 8.07469 14.1213 8.07469 13.5C8.07469 12.8787 8.59114 12.375 9.22821 12.375C9.86529 12.375 10.3817 12.8787 10.3817 13.5Z" fill="#ADADAD"/>
</svg>
