<svg width="24" height="25" viewBox="0 0 24 25" fill="none" xmlns="http://www.w3.org/2000/svg">
<path d="M21 17.2613V20.7974C21 21.3224 20.5941 21.758 20.0705 21.795C19.6331 21.8259 19.2763 21.8413 19 21.8413C10.1634 21.8413 3 14.6779 3 5.84131C3 5.56502 3.01545 5.20818 3.04635 4.77081C3.08337 4.24719 3.51894 3.84131 4.04386 3.84131H7.5801C7.83678 3.84131 8.05176 4.03573 8.07753 4.29111C8.10067 4.52038 8.12218 4.70445 8.14207 4.84333C8.34435 6.25603 8.75753 7.60067 9.3487 8.84434C9.44359 9.04396 9.38171 9.2829 9.20185 9.41137L7.04355 10.9531C8.35752 14.0224 10.8189 16.4838 13.8882 17.7978L15.4271 15.6432C15.5572 15.4612 15.799 15.3986 16.001 15.4945C17.2446 16.0852 18.5891 16.4979 20.0016 16.6997C20.1396 16.7195 20.3225 16.7408 20.5502 16.7638C20.8056 16.7896 21 17.0046 21 17.2613Z" fill="#ADB4C0"/>
</svg>
