<svg width="14" height="14" viewBox="0 0 14 14" fill="none" xmlns="http://www.w3.org/2000/svg">
<path d="M7 0.5C5.71442 0.5 4.45772 0.881218 3.3888 1.59545C2.31988 2.30968 1.48676 3.32484 0.994786 4.51256C0.502816 5.70028 0.374095 7.00721 0.624899 8.26809C0.875703 9.52896 1.49477 10.6872 2.40381 11.5962C3.31285 12.5052 4.47104 13.1243 5.73192 13.3751C6.99279 13.6259 8.29973 13.4972 9.48744 13.0052C10.6752 12.5132 11.6903 11.6801 12.4046 10.6112C13.1188 9.54229 13.5 8.28558 13.5 7C13.4982 5.27665 12.8128 3.62441 11.5942 2.40582C10.3756 1.18722 8.72335 0.50182 7 0.5ZM7 12.5C5.91221 12.5 4.84884 12.1774 3.94437 11.5731C3.0399 10.9687 2.33495 10.1098 1.91867 9.10476C1.50238 8.09977 1.39347 6.9939 1.60568 5.927C1.8179 4.86011 2.34173 3.8801 3.11092 3.11091C3.8801 2.34172 4.86011 1.8179 5.92701 1.60568C6.9939 1.39346 8.09977 1.50238 9.10476 1.91866C10.1098 2.33494 10.9687 3.03989 11.5731 3.94436C12.1774 4.84883 12.5 5.9122 12.5 7C12.4983 8.45818 11.9184 9.85617 10.8873 10.8873C9.85617 11.9184 8.45819 12.4983 7 12.5ZM10 7C10 7.13261 9.94732 7.25979 9.85356 7.35355C9.75979 7.44732 9.63261 7.5 9.5 7.5H7.5V9.5C7.5 9.63261 7.44732 9.75979 7.35356 9.85355C7.25979 9.94732 7.13261 10 7 10C6.86739 10 6.74022 9.94732 6.64645 9.85355C6.55268 9.75979 6.5 9.63261 6.5 9.5V7.5H4.5C4.36739 7.5 4.24022 7.44732 4.14645 7.35355C4.05268 7.25979 4 7.13261 4 7C4 6.86739 4.05268 6.74021 4.14645 6.64645C4.24022 6.55268 4.36739 6.5 4.5 6.5H6.5V4.5C6.5 4.36739 6.55268 4.24021 6.64645 4.14645C6.74022 4.05268 6.86739 4 7 4C7.13261 4 7.25979 4.05268 7.35356 4.14645C7.44732 4.24021 7.5 4.36739 7.5 4.5V6.5H9.5C9.63261 6.5 9.75979 6.55268 9.85356 6.64645C9.94732 6.74021 10 6.86739 10 7Z" fill="#747474"/>
</svg>
