<?xml version="1.0" encoding="UTF-8"?>
<svg width="24px" height="24px" viewBox="0 0 24 24" version="1.1" xmlns="http://www.w3.org/2000/svg" xmlns:xlink="http://www.w3.org/1999/xlink">
    <title>mdpi/Icon/24x/Policies</title>
    <g id="Icon/24x/Policies" stroke="none" stroke-width="1" fill="none" fill-rule="evenodd">
        <polygon id="Path" points="0 0 24 0 24 24 0 24"></polygon>
        <path d="M20.0909091,4 L3.90909091,4 C2.85909091,4 2,4.9 2,6 L2,18 C2,19.1 2.85909091,20 3.90909091,20 L20.0909091,20 C21.1409091,20 22,19.1 22,18 L22,6 C22,4.9 21.1409091,4 20.0909091,4 Z M20,17 C20,17.55 19.55,18 19,18 L12,18 L12,6 L19,6 C19.55,6 20,6.45 20,7 L20,17 Z M18.25,9 L13.75,9 C13.34,9 13,9.34 13,9.75 C13,10.16 13.34,10.5 13.75,10.5 L18.25,10.5 C18.66,10.5 19,10.16 19,9.75 C19,9.34 18.66,9 18.25,9 Z M18.25,11.5 L13.75,11.5 C13.34,11.5 13,11.84 13,12.25 C13,12.66 13.34,13 13.75,13 L18.25,13 C18.66,13 19,12.66 19,12.25 C19,11.84 18.66,11.5 18.25,11.5 Z M18.25,14 L13.75,14 C13.34,14 13,14.34 13,14.75 C13,15.16 13.34,15.5 13.75,15.5 L18.25,15.5 C18.66,15.5 19,15.16 19,14.75 C19,14.34 18.66,14 18.25,14 Z" id="Shape" fill="#00ADB5"></path>
    </g>
</svg>