<?xml version="1.0" encoding="UTF-8"?>
<svg width="24px" height="24px" viewBox="0 0 24 24" version="1.1" xmlns="http://www.w3.org/2000/svg" xmlns:xlink="http://www.w3.org/1999/xlink">
    <title>mdpi/Icon/24x/Pre-postponeTicket</title>
    <g id="Icon/24x/Pre-postponeTicket" stroke="none" stroke-width="1" fill="none" fill-rule="evenodd">
        <path d="M16.1737614,8.49781029 C14.7345161,6.50066137 12.1490492,5.51861756 9.64982433,6.23500593 C6.46483305,7.14802755 4.62458943,10.4727273 5.53925368,13.6625797 C6.45380351,16.852033 9.77791289,18.6972491 12.9624997,17.7844056 C13.4936696,17.6321489 14.0476963,17.9393186 14.1999531,18.4704885 C14.3522099,19.0016583 14.0450401,19.5556851 13.5138703,19.7079418 C9.2665314,20.925417 4.83476954,18.4653421 3.61576724,14.2141238 C2.39663925,9.9624672 4.8504763,5.52921099 9.09843641,4.3114747 C12.4531233,3.34987308 15.9232654,4.68221441 17.8344229,7.37917599 L18.4789618,5.67947663 C18.7034737,5.0874212 19.3654323,4.78946831 19.9574877,5.01398022 C20.5495432,5.23849214 20.8474961,5.90045076 20.6229842,6.49250619 L19.1080189,10.4875877 C18.9063594,11.0193795 18.3453249,11.3229482 17.7898455,11.2008347 L14.0767372,10.3845655 C13.4583098,10.2486138 13.067186,9.63706883 13.2031376,9.01864149 C13.3390893,8.40021414 13.9506343,8.00909031 14.5690616,8.14504196 L16.1737614,8.49781029 L16.1737614,8.49781029 Z M11,9.56628507 L11,12.5662851 L13,12.5662851 C13.5522847,12.5662851 14,13.0140003 14,13.5662851 C14,14.1185698 13.5522847,14.5662851 13,14.5662851 L10,14.5662851 C9.44771525,14.5662851 9,14.1185698 9,13.5662851 L9,9.56628507 C9,9.01400032 9.44771525,8.56628507 10,8.56628507 C10.5522847,8.56628507 11,9.01400032 11,9.56628507 Z" id="Shape" fill="#4A4A4A"></path>
    </g>
</svg>