<svg id="vector" xmlns="http://www.w3.org/2000/svg" width="28" height="34" viewBox="0 0 928 1120"><path fill="#000000" d="M445.9,301.4L443.1,302.6L439.7,304.5L435.9,307.1L431.6,310.3L426.9,314.2L421.7,318.7L416,323.9L409.8,329.8L403.2,336.3L396.3,342L389,346.9L381.4,351.1L373.6,354.4L365.4,357L356.9,358.8L348.1,359.9L338.9,360.1L330.6,360.5L323.1,360.9L316.4,361.3L310.6,361.9L305.5,362.5L301.3,363.3L297.8,364.1L295.2,364.9L292.7,365.9L290.3,366.9L288,368L285.8,369.2L283.7,370.5L281.7,371.8L279.9,373.3L278.1,374.8L276.4,376.5L274.8,378.4L273.3,380.5L271.8,382.8L270.3,385.3L268.9,388L267.6,390.9L266.4,394.1L265.3,398L264.3,402.6L263.4,408L262.6,414.2L262,421.2L261.5,428.9L261.1,437.4L260.9,446.6L259.8,455.6L257.9,464.3L255.3,472.7L251.8,480.8L247.4,488.7L242.3,496.2L236.4,503.5L229.6,510.5L223.6,517.2L218.3,523.5L213.8,529.4L210,535.1L206.9,540.3L204.6,545.3L202.9,549.9L202.1,554.1L201.4,558.2L201,562L200.8,565.7L200.9,569.1L201.2,572.3L201.7,575.4L202.5,578.2L203.5,580.8L205.2,584L207.7,587.8L210.8,592.1L214.7,596.9L219.3,602.4L224.6,608.4L230.6,614.9L237.4,622.1L243.3,629.5L248.4,637.3L252.8,645.3L256.3,653.7L258.9,662.4L260.8,671.4L261.9,680.7L262.1,690.3L262.6,699.2L263.4,707.4L264.5,714.8L265.8,721.5L267.4,727.4L269.2,732.6L271.3,737.1L273.7,740.9L276.2,744.3L278.8,747.4L281.5,750.2L284.3,752.6L287.2,754.7L290.2,756.5L293.4,757.9L296.6,759.1L300.6,760.1L305.3,761L310.7,761.8L316.8,762.5L323.7,763L331.2,763.5L339.5,763.9L348.5,764.1L357.2,765.2L365.6,767L373.7,769.6L381.5,772.9L389,777.1L396.3,782L403.2,787.8L409.8,794.3L415.8,800.1L421.3,805.2L426.1,809.6L430.4,813.4L434,816.4L437.1,818.8L439.6,820.5L441.4,821.5L443.4,822.4L445.4,823.2L447.5,823.9L449.7,824.6L452,825.1L454.3,825.5L456.8,825.9L459.3,826.1L461.9,826.2L464.6,826L467.5,825.6L470.5,824.9L473.6,824.1L476.9,823L480.3,821.8L483.8,820.3L487.6,818.2L491.8,815.5L496.4,812.2L501.3,808.3L506.6,803.8L512.3,798.8L518.3,793.1L524.7,786.9L531.4,781.4L538.6,776.6L546.1,772.6L553.9,769.4L562.2,766.9L570.8,765.1L579.8,764.1L589.2,763.9L597.6,763.6L605.2,763.2L611.8,762.8L617.5,762.4L622.2,761.9L626.1,761.4L629,760.8L631,760.2L633,759.4L635,758.5L637.1,757.5L639.2,756.3L641.2,755L643.3,753.5L645.4,751.9L647.6,750.1L649.6,748.2L651.5,746L653.3,743.7L655,741.1L656.5,738.3L658,735.4L659.4,732.2L660.6,728.8L661.7,724.8L662.7,720L663.5,714.7L664.2,708.6L664.8,701.9L665.2,694.5L665.4,686.4L665.6,677.6L666.5,669.1L668.3,660.8L670.8,652.7L674.2,644.8L678.4,637.2L683.4,629.7L689.2,622.5L695.8,615.5L701.7,609.2L706.9,603.5L711.4,598.5L715.1,594.2L718.2,590.6L720.5,587.6L722.1,585.3L722.9,583.7L723.7,581.9L724.5,580L725.1,578L725.7,575.8L726.1,573.5L726.5,571L726.9,568.4L727.1,565.6L727.2,562.8L727,559.9L726.7,557L726.1,554L725.3,550.9L724.4,547.8L723.2,544.6L721.8,541.4L719.8,537.7L717.2,533.6L713.9,529.1L710.1,524.2L705.6,518.8L700.4,513L694.7,506.8L688.3,500.2L682.7,493.2L677.9,485.8L673.8,478.1L670.5,469.9L667.9,461.4L666.1,452.6L665.1,443.3L664.9,433.7L664.4,424.8L663.7,416.7L662.7,409.4L661.5,402.8L660.1,397L658.5,392L656.6,387.8L654.4,384.3L652.1,381L649.7,378L647,375.3L644.2,372.9L641.2,370.7L638.1,368.8L634.8,367.2L631.3,365.8L627.1,364.6L622.3,363.5L616.9,362.6L610.8,361.9L604.1,361.3L596.8,360.8L588.8,360.6L580.2,360.4L571.7,359.5L563.4,357.7L555.3,355L547.3,351.5L539.4,347.2L531.7,342L524.2,335.9L516.8,329.1L509.8,322.9L503.2,317.5L496.9,312.8L491.1,308.9L485.6,305.7L480.4,303.2L475.7,301.5L471.3,300.5L467.1,299.8L463.1,299.3L459.3,299.2L455.7,299.3L452.3,299.7L449,300.4Z" fill-opacity="0" stroke-linejoin="round" stroke-linecap="round" stroke="#444444" stroke-width="32" id="path_0"/><path fill="#000000" d="M466,324.3L468,324.7L470.7,325.9L474.1,328L478.2,330.9L483,334.6L488.5,339.2L494.8,344.7L501.7,350.9L509.3,358.1L517.4,364.4L526,370L535.1,374.8L544.7,378.9L554.7,382.2L565.2,384.7L576.3,386.5L587.8,387.5L598,388.7L607,390L614.7,391.5L621.1,393.2L626.3,395.1L630.2,397.1L632.8,399.3L634.2,401.7L635.4,404.8L636.4,408.7L637.3,413.3L638,418.7L638.5,424.8L638.8,431.7L639,439.3L639,447.7L639.1,455.2L639.2,461.9L639.4,467.8L639.6,472.8L639.9,476.9L640.3,480.2L640.8,482.7L641.3,484.3L642.5,486.7L644.6,489.7L647.5,493.5L651.2,498L655.7,503.2L661,509.2L667.1,515.8L673.9,523.2L680,529.8L685.3,535.8L689.8,541L693.5,545.5L696.4,549.3L698.5,552.3L699.8,554.7L700.3,556.3L700.6,557.9L700.9,559.6L701,561.2L701,562.8L700.9,564.4L700.6,566.1L700.3,567.7L699.8,569.3L698.4,571.7L696.3,574.8L693.4,578.7L689.6,583.3L685.1,588.7L679.7,594.8L673.5,601.7L666.5,609.3L660.3,617.4L654.8,625.9L650.1,634.9L646.2,644.3L643,654.2L640.6,664.6L638.9,675.4L638.1,686.6L637,696.6L635.8,705.4L634.5,713L633,719.3L631.3,724.4L629.5,728.2L627.6,730.8L625.4,732.2L622.5,733.4L618.8,734.4L614.4,735.3L609.1,736L603.1,736.5L596.3,736.8L588.7,737L580.3,737L572.8,737.1L566,737.2L560.1,737.4L554.9,737.6L550.6,737.9L547.1,738.3L544.4,738.8L542.6,739.3L540,740.6L536.7,742.7L532.6,745.7L527.9,749.5L522.4,754.2L516.2,759.6L509.3,765.9L501.7,773.1L494.9,779.3L488.9,784.8L483.7,789.4L479.3,793.1L475.8,796L473,798.1L471.1,799.3L469.9,799.7L468.7,800L467.5,800.2L466.1,800.3L464.7,800.3L463.1,800.2L461.5,800L459.9,799.7L458.1,799.3L455.6,798.1L452.3,796L448.3,793L443.5,789.2L437.9,784.5L431.5,779L424.4,772.6L416.6,765.4L408.4,759L400,753.5L391.3,748.8L382.4,745L373.2,742L363.7,739.9L354,738.7L344,738.3L335.1,737.9L327.3,737.5L320.6,737.1L314.9,736.7L310.4,736.2L307,735.7L304.6,735.3L303.4,734.8L302.1,734.1L300.9,733.3L299.6,732.3L298.4,731.2L297.1,729.9L295.9,728.5L294.6,726.9L293.4,725.1L292.2,722.3L291.2,718.4L290.2,713.4L289.3,707.3L288.5,700.2L287.8,692L287.3,682.7L286.8,672.3L285.4,662.3L283.3,652.5L280.3,643.2L276.5,634.1L271.8,625.4L266.4,617L260.1,608.9L252.9,601.1L246.7,594.2L241.2,588.1L236.6,582.8L232.9,578.4L230,574.8L227.9,572L226.7,570.1L226.3,568.9L226,567.7L225.8,566.4L225.8,565L225.8,563.5L225.8,561.9L226,560.2L226.3,558.4L226.7,556.6L227.8,554.1L229.6,551.2L232.2,547.7L235.5,543.6L239.6,539L244.4,533.8L249.9,528.1L256.1,521.9L261.7,516.2L266.7,511L270.9,506.4L274.6,502.3L277.5,498.8L279.8,495.9L281.5,493.4L282.5,491.6L283.4,488.7L284.2,485L284.9,480.2L285.6,474.5L286.1,467.9L286.5,460.3L286.9,451.8L287.1,442.3L287.4,433.8L287.7,426.3L288.1,419.8L288.4,414.4L288.8,410L289.3,406.6L289.8,404.2L290.3,402.8L291,401.4L291.9,400.1L293,398.7L294.3,397.3L295.8,395.9L297.5,394.6L299.4,393.2L301.6,391.8L304.5,390.6L308.2,389.6L312.7,388.7L318,388L324.1,387.5L331,387.2L338.8,387L347.3,387L354.9,386.9L361.7,386.8L367.7,386.6L372.8,386.4L377.1,386.1L380.5,385.7L383.1,385.3L384.9,384.8L387.5,383.4L390.9,381.1L395.2,378L400.3,374L406.3,369.1L413.1,363.4L420.8,356.8L429.3,349.3L436.9,342.7L443.8,337.2L449.9,332.7L455.1,329.1L459.6,326.5L463.2,324.9Z" fill-opacity="0" stroke-linejoin="round" stroke-linecap="round" stroke="#444444" stroke-width="32" id="path_1"/><path fill="#000000" d="M522.6,576.9L521.4,577.1L520.1,577.4L518.7,577.8L517.3,578.3L515.9,578.8L514.4,579.3L512.9,579.9L511.3,580.6L509.7,581.4L508.1,582.2L506.5,583.1L504.9,584L503.3,585L501.8,586.1L500.3,587.2L498.8,588.4L497.3,589.6L495.8,590.9L494.5,592.1L493.2,593.4L492,594.6L490.9,595.9L489.9,597.1L488.9,598.4L488.1,599.6L487.2,600.9L486.5,602.1L485.7,603.4L485,604.6L484.4,605.9L483.8,607.1L483.3,608.4L482.8,609.6L482.3,610.9L481.8,612.1L481.4,613.4L481.1,614.6L480.7,615.9L480.4,617.1L480.1,618.4L479.9,619.6L479.7,620.9L479.5,622.2L479.3,623.5L479.2,624.8L479.1,626.1L479,627.5L479,628.8L479,630.2L479,631.6L479.1,633.1L479.3,634.6L479.5,636.2L479.7,637.8L480,639.4L480.3,641.1L480.7,642.9L481.1,644.6L481.6,646.3L482.2,648L482.8,649.7L483.5,651.4L484.3,653L485.1,654.7L485.9,656.3L486.8,657.9L487.7,659.4L488.7,660.8L489.6,662.2L490.5,663.5L491.5,664.8L492.5,665.9L493.5,667.1L494.5,668.1L495.5,669.1L496.4,670.1L497.3,670.9L498.3,671.8L499.2,672.5L500.1,673.2L500.9,673.8L501.9,674.5L503,675.1L504.2,675.8L505.5,676.5L507,677.2L508.5,677.9L510.1,678.6L511.9,679.4L513.7,680.1L515.7,680.7L517.7,681.3L519.8,681.8L522,682.2L524.3,682.6L526.8,682.9L529.3,683.1L531.7,683.3L534,683.4L536.2,683.4L538.3,683.3L540.3,683.2L542.3,683L544.1,682.7L545.9,682.3L547.6,681.9L549.3,681.4L550.9,680.9L552.6,680.3L554.2,679.7L555.7,679.1L557.3,678.4L558.8,677.6L560.3,676.8L561.8,675.9L563.3,674.9L564.8,673.8L566.3,672.7L567.8,671.5L569.3,670.2L570.8,668.8L572.2,667.5L573.5,666.2L574.7,664.9L575.8,663.6L576.8,662.4L577.8,661.2L578.6,660.1L579.4,658.9L580.1,657.8L580.8,656.6L581.4,655.4L582.1,654.1L582.7,652.8L583.2,651.5L583.8,650.2L584.3,648.8L584.7,647.2L585.1,645.5L585.5,643.5L585.8,641.3L586,638.9L586.3,636.3L586.4,633.5L586.6,630.5L586.5,627.6L586.4,624.7L586.1,621.9L585.7,619.1L585.1,616.4L584.4,613.8L583.5,611.3L582.5,608.8L581.4,606.4L580.3,604.1L579.1,601.9L577.9,599.8L576.6,597.9L575.2,596L573.8,594.3L572.3,592.7L570.8,591.2L569.3,589.7L567.8,588.4L566.3,587.1L564.8,586L563.3,584.9L561.8,583.9L560.3,583.1L558.8,582.3L557.4,581.5L556,580.8L554.7,580.2L553.5,579.6L552.2,579.1L551.1,578.7L549.9,578.3L548.7,578L547.2,577.7L545.6,577.4L543.9,577.1L542,576.9L539.9,576.7L537.7,576.6L535.3,576.4L533.1,576.4L531,576.3L529,576.3L527.2,576.4L525.5,576.5L524,576.7Z" fill-opacity="0" stroke-linejoin="round" stroke-linecap="round" stroke="#444444" stroke-width="32" id="path_2"/><path fill="#000000" d="M373.7,444.5L371.3,445.5L369,446.5L366.9,447.6L364.8,448.8L362.9,450L361.1,451.2L359.4,452.5L357.8,453.8L356.3,455.2L354.8,456.7L353.3,458.3L351.9,460.1L350.6,461.9L349.2,463.9L347.9,466.1L346.6,468.3L345.4,470.7L344.3,473.2L343.3,475.7L342.5,478.4L341.8,481.1L341.2,484L340.8,486.9L340.6,489.9L340.4,493.1L340.4,496.1L340.6,499L340.8,501.8L341.2,504.5L341.7,507L342.3,509.5L343.1,511.9L343.9,514.1L344.8,516.2L345.5,518.1L346.3,519.8L347,521.3L347.6,522.6L348.2,523.7L348.8,524.6L349.3,525.4L349.9,526.2L350.6,527.1L351.5,528.1L352.5,529.2L353.6,530.3L354.9,531.5L356.3,532.8L357.8,534.2L359.4,535.5L361.1,536.8L362.9,538L364.8,539.2L366.9,540.4L369,541.5L371.3,542.5L373.7,543.5L376.1,544.4L378.7,545.1L381.3,545.8L384,546.3L386.7,546.6L389.6,546.9L392.5,547L395.5,547L398.4,546.9L401.3,546.6L404.1,546.2L406.9,545.6L409.6,544.9L412.2,544L414.8,543.1L417.3,541.9L419.7,540.7L422,539.3L424.3,537.8L426.5,536.2L428.6,534.4L430.6,532.6L432.6,530.6L434.4,528.4L436.1,526.5L437.7,524.6L439,522.9L440.2,521.3L441.2,519.9L442.1,518.6L442.8,517.5L443.3,516.5L443.7,515.4L444.2,514.3L444.7,513L445.1,511.7L445.5,510.3L445.9,508.9L446.3,507.3L446.7,505.7L447,504L447.3,502.2L447.4,500.3L447.6,498.4L447.6,496.4L447.6,494.3L447.6,492.1L447.4,489.9L447.3,487.8L447.1,485.8L446.9,484L446.6,482.3L446.3,480.7L446,479.3L445.7,478.1L445.3,476.9L444.9,475.8L444.4,474.5L443.8,473.3L443.2,472L442.5,470.6L441.8,469.2L440.9,467.8L440.1,466.3L439,464.7L437.9,463.2L436.6,461.6L435.2,459.9L433.6,458.3L431.9,456.6L430,454.9L428,453.1L426.1,451.5L424.2,450L422.4,448.7L420.6,447.5L418.9,446.5L417.3,445.6L415.8,444.8L414.3,444.2L412.8,443.6L411.3,443.1L409.9,442.6L408.6,442.2L407.2,441.8L405.9,441.4L404.6,441.1L403.4,440.9L402,440.7L400.5,440.5L399,440.4L397.3,440.3L395.5,440.3L393.6,440.4L391.6,440.4L389.4,440.6L387.3,440.8L385.1,441.1L382.9,441.6L380.6,442.2L378.3,442.8L376,443.6Z" fill-opacity="0" stroke-linejoin="round" stroke-linecap="round" stroke="#444444" stroke-width="32" id="path_3"/><path fill="#000000" d="M550.8,452.7L549.3,452.3L547.8,452.1L546.3,452.1L544.8,452.3L543.4,452.7L542,453.3L540.6,454L539.2,454.9L537.8,456.1L534,460.1L527.8,467L519.2,476.9L508.1,489.6L494.6,505.3L478.7,523.8L460.4,545.3L439.6,569.7L421.5,591.2L405.9,609.7L392.9,625.4L382.6,638.1L374.8,648L369.6,654.9L367,658.9L367,660.1L367.1,661.2L367.3,662.2L367.6,663.3L367.9,664.3L368.4,665.2L369,666.2L369.6,667.1L370.4,667.9L371.2,668.7L372.2,669.4L373.2,670L374.3,670.5L375.5,670.9L376.8,671.2L378.3,671.4L379.8,671.6L381.2,671.6L382.5,671.5L383.7,671.4L384.8,671.1L385.8,670.8L386.8,670.3L387.6,669.8L388.4,669.2L391.7,665.6L397.5,658.9L405.8,649.3L416.7,636.7L430.1,621.1L446,602.4L464.5,580.8L485.5,556.2L503.9,534.5L519.7,515.9L532.9,500.2L543.6,487.5L551.6,477.8L557,471.1L559.9,467.4L560.1,466.6L560.3,465.8L560.3,464.9L560.2,464L560,463L559.7,461.9L559.3,460.8L558.8,459.6L558.2,458.4L557.5,457.2L556.6,456.2L555.7,455.3L554.6,454.5L553.4,453.8L552.1,453.2Z" fill-opacity="0" stroke-linejoin="round" stroke-linecap="round" stroke="#444444" stroke-width="32" id="path_4"/><path fill="#000000" d="M532.3,603L534.7,603L536.9,603.1L538.9,603.2L540.7,603.4L542.3,603.6L543.8,603.9L545,604.3L546.1,604.8L546.9,605.3L547.8,605.9L548.8,606.6L549.8,607.4L550.8,608.3L551.8,609.4L552.8,610.5L553.9,611.8L555.1,613.2L556.1,614.5L557,615.7L557.8,616.8L558.5,617.9L559,618.9L559.5,619.8L559.9,620.6L560.1,621.4L560.3,622.3L560.5,623.3L560.6,624.5L560.7,625.8L560.7,627.2L560.6,628.8L560.6,630.6L560.4,632.4L560.3,634.2L560,635.9L559.7,637.5L559.3,639L558.9,640.4L558.4,641.7L557.8,642.9L557.2,644.1L556.5,645.2L555.7,646.3L554.8,647.3L553.8,648.4L552.7,649.5L551.5,650.5L550.2,651.5L548.8,652.5L547.5,653.4L546.2,654.2L545,654.9L543.8,655.6L542.6,656.1L541.5,656.5L540.5,656.9L539.5,657.1L538.4,657.3L537.2,657.4L535.9,657.5L534.6,657.5L533.1,657.4L531.5,657.3L529.9,657.1L528.1,656.9L526.5,656.6L525,656.3L523.7,656L522.5,655.7L521.5,655.4L520.6,655L519.8,654.7L519.2,654.3L518.5,653.8L517.7,653.1L516.8,652.3L515.9,651.4L514.9,650.3L513.8,649.1L512.6,647.8L511.4,646.3L510.3,644.8L509.3,643.5L508.4,642.2L507.6,641L507,639.9L506.5,638.9L506.1,637.9L505.9,637.1L505.7,636.2L505.5,635.3L505.3,634.3L505.2,633.4L505.1,632.5L505,631.5L505,630.5L505,629.5L505,628.5L505.1,627.5L505.2,626.6L505.3,625.7L505.5,624.7L505.7,623.8L505.9,622.9L506.1,622.1L506.5,621.1L507,620L507.7,618.9L508.5,617.6L509.5,616.3L510.6,614.8L511.8,613.3L513.2,611.7L514.5,610.2L515.7,608.9L516.8,607.8L517.9,606.8L518.9,605.9L519.8,605.2L520.6,604.7L521.4,604.3L522.3,604L523.5,603.7L524.8,603.5L526.4,603.3L528.2,603.1L530.1,603Z" fill-opacity="0" stroke-linejoin="round" stroke-linecap="round" stroke="#444444" stroke-width="32" id="path_5"/><path fill="#000000" d="M391.1,466.6L392.9,466.4L394.5,466.4L396.1,466.4L397.6,466.4L398.9,466.6L400.2,466.8L401.4,467L402.5,467.3L403.5,467.7L404.5,468.1L405.5,468.7L406.6,469.3L407.7,470L408.7,470.7L409.8,471.6L410.9,472.5L412.1,473.5L413.1,474.5L414.1,475.6L415.1,476.7L415.9,477.8L416.8,479L417.5,480.2L418.2,481.4L418.8,482.6L419.4,483.9L419.9,485.1L420.3,486.3L420.7,487.5L421,488.6L421.3,489.8L421.4,490.9L421.6,492.1L421.6,493.2L421.6,494.4L421.6,495.6L421.4,496.9L421.3,498.2L421,499.5L420.7,500.8L420.3,502.2L419.8,503.5L419.3,504.9L418.6,506.2L417.9,507.5L417,508.8L416.1,510.1L415.1,511.4L413.9,512.6L412.8,513.8L411.7,514.8L410.7,515.8L409.6,516.7L408.5,517.5L407.5,518.2L406.5,518.8L405.5,519.3L404.5,519.7L403.4,520.1L402.2,520.5L401,520.8L399.8,521L398.5,521.3L397.2,521.4L395.8,521.6L394.4,521.6L393,521.6L391.6,521.5L390.2,521.3L388.7,521L387.2,520.7L385.8,520.3L384.3,519.8L382.8,519.2L381.4,518.6L380.1,518L378.9,517.3L377.7,516.5L376.6,515.8L375.5,514.9L374.5,514.1L373.5,513.1L372.6,512.2L371.8,511.2L371,510.1L370.2,509L369.5,507.8L368.8,506.6L368.2,505.4L367.6,504.1L367.2,502.7L366.8,501.3L366.5,499.8L366.2,498.2L366.1,496.6L366,494.9L366,493.1L366,491.5L366.1,490L366.3,488.5L366.5,487.2L366.7,486L367,484.9L367.3,483.9L367.7,483.1L368.1,482.2L368.6,481.3L369.2,480.3L369.8,479.4L370.5,478.5L371.3,477.5L372.1,476.5L372.9,475.5L373.8,474.5L374.8,473.6L375.8,472.8L376.8,472L377.8,471.2L378.8,470.5L379.9,469.8L381.1,469.2L382.3,468.6L383.5,468.1L384.9,467.7L386.3,467.3L387.9,467L389.5,466.8Z" fill-opacity="0" stroke-linejoin="round" stroke-linecap="round" stroke="#444444" stroke-width="32" id="path_6"/></svg>