<svg width="24" height="25" viewBox="0 0 24 25" fill="none" xmlns="http://www.w3.org/2000/svg">
<g clip-path="url(#clip0_142_3862)">
<path d="M3 12.8922C3 14.0741 3.23279 15.2444 3.68508 16.3364C4.13738 17.4283 4.80031 18.4204 5.63604 19.2562C6.47177 20.0919 7.46392 20.7548 8.55585 21.2071C9.64778 21.6594 10.8181 21.8922 12 21.8922C13.1819 21.8922 14.3522 21.6594 15.4442 21.2071C16.5361 20.7548 17.5282 20.0919 18.364 19.2562C19.1997 18.4204 19.8626 17.4283 20.3149 16.3364C20.7672 15.2444 21 14.0741 21 12.8922C21 11.7103 20.7672 10.54 20.3149 9.44806C19.8626 8.35613 19.1997 7.36398 18.364 6.52825C17.5282 5.69252 16.5361 5.02959 15.4442 4.5773C14.3522 4.125 13.1819 3.89221 12 3.89221C10.8181 3.89221 9.64778 4.125 8.55585 4.5773C7.46392 5.02959 6.47177 5.69252 5.63604 6.52825C4.80031 7.36398 4.13738 8.35613 3.68508 9.44806C3.23279 10.54 3 11.7103 3 12.8922Z" stroke="#ADADAD" stroke-width="1.75" stroke-linecap="round" stroke-linejoin="round"/>
<g clip-path="url(#clip1_142_3862)">
<path d="M3 12.8922C3 14.0741 3.23279 15.2444 3.68508 16.3364C4.13738 17.4283 4.80031 18.4204 5.63604 19.2562C6.47177 20.0919 7.46392 20.7548 8.55585 21.2071C9.64778 21.6594 10.8181 21.8922 12 21.8922C13.1819 21.8922 14.3522 21.6594 15.4442 21.2071C16.5361 20.7548 17.5282 20.0919 18.364 19.2562C19.1997 18.4204 19.8626 17.4283 20.3149 16.3364C20.7672 15.2444 21 14.0741 21 12.8922C21 11.7103 20.7672 10.54 20.3149 9.44806C19.8626 8.35613 19.1997 7.36398 18.364 6.52825C17.5282 5.69252 16.5361 5.02959 15.4442 4.5773C14.3522 4.125 13.1819 3.89221 12 3.89221C10.8181 3.89221 9.64778 4.125 8.55585 4.5773C7.46392 5.02959 6.47177 5.69252 5.63604 6.52825C4.80031 7.36398 4.13738 8.35613 3.68508 9.44806C3.23279 10.54 3 11.7103 3 12.8922Z" stroke="#191966" stroke-width="1.75" stroke-linecap="round" stroke-linejoin="round"/>
<path d="M7 12.8922C7 13.5488 7.12933 14.199 7.3806 14.8056C7.63188 15.4123 8.00017 15.9635 8.46447 16.4277C8.92876 16.892 9.47995 17.2603 10.0866 17.5116C10.6932 17.7629 11.3434 17.8922 12 17.8922C12.6566 17.8922 13.3068 17.7629 13.9134 17.5116C14.52 17.2603 15.0712 16.892 15.5355 16.4277C15.9998 15.9635 16.3681 15.4123 16.6194 14.8056C16.8707 14.199 17 13.5488 17 12.8922C17 12.2356 16.8707 11.5854 16.6194 10.9788C16.3681 10.3722 15.9998 9.82097 15.5355 9.35668C15.0712 8.89239 14.52 8.52409 13.9134 8.27281C13.3068 8.02154 12.6566 7.89221 12 7.89221C11.3434 7.89221 10.6932 8.02154 10.0866 8.27281C9.47995 8.52409 8.92876 8.89239 8.46447 9.35668C8.00017 9.82097 7.63188 10.3722 7.3806 10.9788C7.12933 11.5854 7 12.2356 7 12.8922Z" fill="#191966"/>
</g>
</g>
<defs>
<clipPath id="clip0_142_3862">
<rect width="24" height="24" fill="white" transform="translate(0 0.892212)"/>
</clipPath>
<clipPath id="clip1_142_3862">
<rect width="24" height="24" fill="white" transform="translate(0 0.892212)"/>
</clipPath>
</defs>
</svg>
