<svg width="24" height="25" viewBox="0 0 24 25" fill="none" xmlns="http://www.w3.org/2000/svg">
<g clip-path="url(#clip0_1902_1226)">
<path d="M3 12.2549C3 13.4368 3.23279 14.6071 3.68508 15.699C4.13738 16.791 4.80031 17.7831 5.63604 18.6188C6.47177 19.4546 7.46392 20.1175 8.55585 20.5698C9.64778 21.0221 10.8181 21.2549 12 21.2549C13.1819 21.2549 14.3522 21.0221 15.4442 20.5698C16.5361 20.1175 17.5282 19.4546 18.364 18.6188C19.1997 17.7831 19.8626 16.791 20.3149 15.699C20.7672 14.6071 21 13.4368 21 12.2549C21 11.073 20.7672 9.90266 20.3149 8.81073C19.8626 7.7188 19.1997 6.72665 18.364 5.89092C17.5282 5.05519 16.5361 4.39226 15.4442 3.93997C14.3522 3.48767 13.1819 3.25488 12 3.25488C10.8181 3.25488 9.64778 3.48767 8.55585 3.93997C7.46392 4.39226 6.47177 5.05519 5.63604 5.89092C4.80031 6.72665 4.13738 7.7188 3.68508 8.81073C3.23279 9.90266 3 11.073 3 12.2549Z" stroke="#ADADAD" stroke-width="1.75" stroke-linecap="round" stroke-linejoin="round"/>
</g>
<defs>
<clipPath id="clip0_1902_1226">
<rect width="24" height="24" fill="white" transform="translate(0 0.254883)"/>
</clipPath>
</defs>
</svg>
