<?xml version="1.0" encoding="UTF-8"?>
<svg width="24px" height="24px" viewBox="0 0 24 24" version="1.1" xmlns="http://www.w3.org/2000/svg" xmlns:xlink="http://www.w3.org/1999/xlink">
    <!-- Generator: Sketch 63.1 (92452) - https://sketch.com -->
    <title>mdpi/General / Rating &amp; Reviews</title>
    <desc>Created with Sketch.</desc>
    <g id="General-/-Rating-&amp;-Reviews" stroke="none" stroke-width="1" fill="none" fill-rule="evenodd">
        <rect id="Rectangle" x="0" y="0" width="24" height="24"></rect>
        <path d="M6.86837172,19.9327375 L11.7439307,17.0255851 C11.9016859,16.9315204 12.0983141,16.9315204 12.2560693,17.0255851 L17.1316283,19.9327375 L15.8733927,14.3974458 C15.8326808,14.2183441 15.8934423,14.0313396 16.0316522,13.9103731 L20.303149,10.1718004 L14.6499576,9.65795442 C14.4670411,9.64132825 14.3079655,9.52575309 14.2356288,9.35692696 L12,4.13920959 L9.76437117,9.35692696 C9.69203445,9.52575309 9.53295888,9.64132825 9.35004242,9.65795442 L3.69685102,10.1718004 L7.96834782,13.9103731 C8.10655773,14.0313396 8.16731919,14.2183441 8.12660732,14.3974458 L6.86837172,19.9327375 Z M6.37821673,21.3892785 C6.00060959,21.6144345 5.53713606,21.2777013 5.63458514,20.8489985 L7.08539884,14.4665078 L2.160132,10.1557313 C1.82930887,9.86618258 2.00634001,9.32133676 2.44417399,9.2815399 L8.96260944,8.68904764 L11.5404104,2.67273731 C11.7135576,2.26863035 12.2864424,2.26863035 12.4595896,2.67273731 L15.0373906,8.68904764 L21.555826,9.2815399 C21.99366,9.32133676 22.1706911,9.86618258 21.839868,10.1557313 L16.9146012,14.4665078 L18.3654149,20.8489985 C18.4628639,21.2777013 17.9993904,21.6144345 17.6217833,21.3892785 L12,18.0371746 L6.37821673,21.3892785 Z" id="Star" fill="#000000" fill-rule="nonzero"></path>
    </g>
</svg>