<svg width="327" height="118" viewBox="0 0 327 118" fill="none" xmlns="http://www.w3.org/2000/svg">
<mask id="path-1-inside-1_49_314" fill="white">
<path fill-rule="evenodd" clip-rule="evenodd" d="M0 10C0 4.47715 4.47715 0 10 0H317C322.523 0 327 4.47715 327 10V56C322.582 56 319 59.5817 319 64C319 68.4183 322.582 72 327 72V108C327 113.523 322.523 118 317 118H10C4.47716 118 0 113.523 0 108V72C4.41828 72 8 68.4183 8 64C8 59.5817 4.41828 56 0 56V10Z"/>
</mask>
<path fill-rule="evenodd" clip-rule="evenodd" d="M0 10C0 4.47715 4.47715 0 10 0H317C322.523 0 327 4.47715 327 10V56C322.582 56 319 59.5817 319 64C319 68.4183 322.582 72 327 72V108C327 113.523 322.523 118 317 118H10C4.47716 118 0 113.523 0 108V72C4.41828 72 8 68.4183 8 64C8 59.5817 4.41828 56 0 56V10Z" fill="white"/>
<path d="M327 56V57H328V56H327ZM327 72H328V71H327V72ZM0 72V71H-1V72H0ZM0 56H-1V57H0V56ZM10 -1C3.92487 -1 -1 3.92487 -1 10H1C1 5.02944 5.02944 1 10 1V-1ZM317 -1H10V1H317V-1ZM328 10C328 3.92487 323.075 -1 317 -1V1C321.971 1 326 5.02944 326 10H328ZM328 56V10H326V56H328ZM320 64C320 60.134 323.134 57 327 57V55C322.029 55 318 59.0294 318 64H320ZM327 71C323.134 71 320 67.866 320 64H318C318 68.9706 322.029 73 327 73V71ZM328 108V72H326V108H328ZM317 119C323.075 119 328 114.075 328 108H326C326 112.971 321.971 117 317 117V119ZM10 119H317V117H10V119ZM-1 108C-1 114.075 3.92487 119 10 119V117C5.02944 117 1 112.971 1 108H-1ZM-1 72V108H1V72H-1ZM7 64C7 67.866 3.86599 71 0 71V73C4.97056 73 9 68.9706 9 64H7ZM0 57C3.86599 57 7 60.134 7 64H9C9 59.0294 4.97056 55 0 55V57ZM-1 10V56H1V10H-1Z" fill="#DFDFDF" mask="url(#path-1-inside-1_49_314)"/>
</svg>
