<svg width="23" height="23" viewBox="0 0 23 23" fill="none" xmlns="http://www.w3.org/2000/svg">
<path d="M6.4704 7.04368L3.6677 4.24098C-0.281567 8.50873 -0.281567 15.1333 3.6677 19.4648L6.4704 16.6621C4.04989 13.923 4.04989 9.78269 6.4704 7.04368Z" fill="#FBAE17"/>
<path d="M7.04367 17.2353L4.24097 20.038C8.50872 23.9873 15.1333 23.9873 19.4648 20.038L16.662 17.2353C13.923 19.6559 9.78268 19.6559 7.04367 17.2353Z" fill="#FBAE17"/>
<path d="M17.2353 16.6621L20.038 19.4648C23.9873 15.197 23.9873 8.57243 20.038 4.24098L17.2353 7.04368C19.6558 9.78269 19.6558 13.923 17.2353 16.6621Z" fill="#BBBDBF"/>
<path d="M16.662 6.4704L19.4648 3.6677C15.197 -0.281567 8.57242 -0.281567 4.24097 3.6677L7.04367 6.4704C9.78268 4.04989 13.923 4.04989 16.662 6.4704Z" fill="#FBAE17"/>
<path fill-rule="evenodd" clip-rule="evenodd" d="M9.33681 13.4135C9.40051 13.0313 9.27311 12.7765 8.95462 12.5854C8.69983 12.458 8.38134 12.458 8.12655 12.6491C7.87176 12.8402 7.74436 13.095 7.80806 13.4135H7.74436C7.23478 13.4135 6.7252 13.4135 6.15192 13.4135C5.96082 13.4135 5.89713 13.3498 5.89713 13.1587C5.89713 12.7765 5.89713 12.3306 5.89713 11.9484C5.89713 11.8847 5.89713 11.821 5.96082 11.821C6.02452 11.7573 6.02452 11.7573 6.02452 11.6936C6.02452 11.184 6.08822 10.7382 6.08822 10.2286C6.08822 10.1012 6.15192 10.0375 6.27931 10.0375C6.7252 10.0375 7.17108 10.0375 7.61697 10.0375C9.6553 10.0375 11.6299 10.0375 13.6683 10.0375C14.8148 10.0375 16.0251 10.0375 17.1716 10.0375C17.4264 10.0375 17.6812 10.2286 17.7449 10.4834V10.5471C17.7449 11.3114 17.7449 12.0758 17.7449 12.9039C17.7449 12.9676 17.6812 13.0313 17.6175 13.0313C17.3627 13.095 17.0442 13.1587 16.7895 13.2224C16.471 13.2861 16.0888 13.3498 15.7703 13.4135C15.6429 13.4135 15.4518 13.4772 15.2607 13.4772C15.2607 13.1587 15.197 12.8402 14.8785 12.6491C14.7511 12.5854 14.56 12.5217 14.4326 12.5217C13.9868 12.5854 13.6683 12.9676 13.732 13.4135C12.3306 13.4135 10.8656 13.4135 9.33681 13.4135ZM11.4388 10.4834C11.184 10.4834 10.8656 10.4834 10.6108 10.4834C10.4834 10.4834 10.356 10.5471 10.356 10.7382C10.356 10.9293 10.356 11.1203 10.356 11.3751C10.356 11.5662 10.4197 11.6299 10.6108 11.6299C11.184 11.6299 11.6936 11.6299 12.2669 11.6299C12.3943 11.6299 12.5217 11.5662 12.5217 11.3751C12.5217 11.184 12.5217 10.9293 12.5217 10.7382C12.5217 10.6108 12.458 10.4834 12.2669 10.4834C12.0121 10.4834 11.6936 10.4834 11.4388 10.4834ZM8.95462 10.4834C8.69983 10.4834 8.38134 10.4834 8.12655 10.4834C7.99915 10.4834 7.93546 10.5471 7.87176 10.6745C7.87176 10.8656 7.87176 11.1203 7.87176 11.3114C7.87176 11.4388 7.93546 11.5025 8.06285 11.5025C8.63613 11.5025 9.20941 11.5025 9.78269 11.5025C9.91009 11.5025 9.97379 11.4388 9.97379 11.3114C9.97379 11.1203 9.97379 10.8656 9.97379 10.6745C9.97379 10.4834 9.91009 10.4197 9.719 10.4197C9.4642 10.4834 9.20941 10.4834 8.95462 10.4834ZM13.9231 10.4834C13.6683 10.4834 13.3498 10.4834 13.095 10.4834C12.9676 10.4834 12.9039 10.5471 12.9039 10.6745C12.9039 10.8656 12.9039 11.1203 12.9039 11.3114C12.9039 11.4388 12.9676 11.5025 13.095 11.5025C13.6683 11.5025 14.2415 11.5025 14.8148 11.5025C14.9422 11.5025 15.0059 11.4388 15.0059 11.3114C15.0059 11.1203 15.0059 10.8656 15.0059 10.6745C15.0059 10.4834 14.9422 10.4197 14.7511 10.4197C14.4963 10.4834 14.1778 10.4834 13.9231 10.4834ZM16.4073 11.5662C16.6621 11.5662 16.9805 11.5662 17.2353 11.5662C17.3627 11.5662 17.4264 11.5025 17.4264 11.3751C17.4264 11.2477 17.4264 11.1203 17.4264 10.9293C17.4264 10.7382 17.3627 10.6108 17.1716 10.5471C17.1079 10.4834 16.9805 10.4834 16.8532 10.4834C16.4073 10.4834 15.9614 10.4834 15.5155 10.4834C15.3244 10.4834 15.2607 10.5471 15.2607 10.7382C15.2607 10.9293 15.2607 11.1203 15.2607 11.3114C15.2607 11.5025 15.3244 11.5662 15.5155 11.5662C15.834 11.5662 16.1525 11.5662 16.4073 11.5662ZM6.5978 11.7573C6.5978 12.0758 6.5978 12.458 6.5978 12.7765C6.5978 12.9039 6.6615 12.9676 6.7889 12.9676C6.91629 12.9676 7.04369 12.9676 7.17108 12.9676C7.29848 12.9676 7.42587 12.9039 7.42587 12.7128C7.42587 12.0121 7.42587 11.3114 7.42587 10.6745C7.42587 10.5471 7.36218 10.4834 7.23478 10.4197C7.10738 10.4197 6.97999 10.4197 6.91629 10.4197C6.7252 10.4197 6.6615 10.4834 6.6615 10.6745C6.5978 11.1203 6.5978 11.4388 6.5978 11.7573Z" fill="#BBBDBF"/>
<path fill-rule="evenodd" clip-rule="evenodd" d="M7.99916 13.2224C7.99916 12.9039 8.31765 12.6491 8.63614 12.6491C8.95463 12.6491 9.20942 12.9039 9.20942 13.2861C9.20942 13.6046 8.95463 13.8594 8.63614 13.8594C8.25395 13.8594 7.99916 13.6046 7.99916 13.2224ZM8.89093 13.2861C8.89093 13.1587 8.76353 12.9676 8.63614 12.9676C8.50874 12.9676 8.38135 13.095 8.31765 13.2224C8.31765 13.3498 8.44505 13.5409 8.57244 13.5409C8.76353 13.5409 8.89093 13.4135 8.89093 13.2861Z" fill="#BBBDBF"/>
<path fill-rule="evenodd" clip-rule="evenodd" d="M14.56 13.8594C14.2415 13.8594 13.923 13.6046 13.9867 13.2224C13.9867 12.9039 14.2415 12.6491 14.56 12.6491C14.8785 12.6491 15.1333 12.9039 15.1333 13.2861C15.197 13.6046 14.9422 13.8594 14.56 13.8594ZM14.8785 13.2224C14.8785 13.095 14.7511 12.9676 14.6237 12.9676C14.4963 12.9676 14.3689 13.095 14.3689 13.2861C14.3689 13.4135 14.4963 13.5409 14.6874 13.5409C14.7511 13.5409 14.8785 13.4135 14.8785 13.2224Z" fill="#BBBDBF"/>
</svg>
