<?xml version="1.0" encoding="UTF-8"?>
<svg width="24px" height="24px" viewBox="0 0 24 24" version="1.1" xmlns="http://www.w3.org/2000/svg" xmlns:xlink="http://www.w3.org/1999/xlink">
    <!-- Generator: Sketch 61 (89581) - https://sketch.com -->
    <title>Icon/24x/Recliner</title>
    <desc>Created with Sketch.</desc>
    <g id="Icon/24x/Recliner" stroke="none" stroke-width="1" fill="none" fill-rule="evenodd">
        <rect id="Rectangle" x="0" y="0" width="24" height="24"></rect>
        <path d="M15.90734,14.269638 C15.8022921,14.1454444 14.8431467,13.8876893 13.8265702,13.8580752 C13.6313799,13.8523891 13.4215583,13.8529325 13.1972886,13.8592817 C12.7739899,13.8712655 12.3316714,13.9019139 11.7842573,13.952311 C11.6332621,13.9662122 11.1385632,14.0141589 11.0454444,14.022714 C10.7770524,14.0473721 10.6101384,14.0589014 10.471713,14.0589014 C9.15233875,14.0589014 7.70784713,12.0232148 6.93859861,10.0210754 C5.75643835,6.94424191 5.60940155,6.83303441 3.64007175,7.46310574 C3.57081352,7.48526325 3.58220408,7.46475319 3.64585419,7.59574365 L6.93310757,14.1593874 C7.76838692,15.6067616 8.90494861,16.2317641 10.8160842,16.2317641 L16.5157389,16.2317641 C16.491954,15.4985161 16.2446722,14.6684511 15.90734,14.269638 Z M16.795002,17.2227154 C16.7544733,17.2286738 16.7130158,17.2317592 16.6708444,17.2317592 L10.8160851,17.2317641 C8.51980887,17.2317641 7.06851186,16.3946674 6.06698824,14.6592246 L2.75182884,8.04376003 C2.3306547,7.17803844 2.89007292,6.65312009 3.33535985,6.51066117 C6.04030293,5.64523625 6.59806681,6.3465485 7.87206993,9.66242335 C8.37508891,10.9716415 9.66662124,13.0589014 10.471713,13.0589014 C10.9352035,13.0589014 12.5061155,12.8191846 13.855689,12.8584993 C14.853996,12.8875811 15.8136072,13.0897936 16.3452588,13.3779159 C16.5672337,13.4441107 16.7940676,13.5323356 17.0254893,13.657599 C20.0435648,15.2912161 22.3197364,18.7912274 22.0352632,19.621026 C21.6411873,20.7705316 20.3174066,21.153327 19.5540507,20.2177328 C19.4447289,20.0837444 19.2567868,19.8786082 18.9519982,19.5582245 C18.8601467,19.4616733 18.2346036,18.8092818 18.0418327,18.6060571 C17.9274616,18.4853017 17.8859766,18.4413468 17.813044,18.3636058 C17.3917579,17.9145447 17.0561794,17.5405325 16.795002,17.2227154 Z M18.5423452,17.679413 C18.61396,17.7557494 18.654649,17.7988608 18.7673536,17.917857 C18.9577972,18.1186282 19.5826617,18.7703119 19.6765186,18.8689712 C19.9989055,19.2078537 20.1980822,19.4252523 20.3288719,19.5855523 C20.5560698,19.8640136 20.9321081,19.7552753 21.089307,19.2967314 C21.1835588,19.0218022 20.8048839,18.4687117 19.1765243,16.4908705 C19.0870125,16.3820158 19.0870125,16.3820158 18.9971464,16.2720415 C18.6347613,15.8277122 17.9744821,15.3287824 17.258251,14.9130574 C17.3230642,15.0966221 17.3621221,15.2716759 17.382742,15.4562307 C17.3994755,15.6060013 17.4042461,15.754898 17.4023871,15.9653824 C17.4023773,15.9664895 17.3987494,16.1942065 17.3967962,16.3735608 C17.6528446,16.706215 18.0305861,17.1339141 18.5423452,17.679413 Z M10.1086938,13.3837587 L13.7540527,13.1132265 C13.7018593,12.6823455 13.6445922,12.4346471 13.5515579,12.1496208 C13.517219,12.0456453 13.4957936,11.9807916 13.4785336,11.9269343 C13.4477602,11.83091 13.4210939,11.7421283 13.3946441,11.6458606 C13.3138494,11.3517973 13.1684296,11.2679543 12.8715675,11.2679543 L8.60054625,11.2679543 L10.1086938,13.3837587 Z M12.8715675,10.2679543 C13.5770461,10.2679543 14.1427287,10.5941033 14.3589104,11.3809257 C14.3813909,11.4627466 14.4040946,11.5383354 14.4308261,11.6217474 C14.4464578,11.6705238 14.4660973,11.7299716 14.5021983,11.8393261 C14.6513373,12.2962387 14.7258695,12.6836802 14.8021308,13.5288432 C12.4089982,13.6016894 10.8027777,13.6016894 9.98346938,13.5288432 C9.16416107,13.4559969 8.30260019,12.369034 7.39878673,10.2679543 L12.8715675,10.2679543 Z M14.920777,16.2857143 C15.336342,17.0858472 15.6764878,17.8798062 15.9412143,18.6675911 C16.1423198,19.2660498 16.3022953,20.0672576 16.4211407,21.0712146 L17.7619048,21.0714286 C18.0380471,21.0714286 18.2619048,21.2952862 18.2619048,21.5714286 C18.2619048,21.8475709 18.0380471,22.0714286 17.7619048,22.0714286 L16.5204944,22.0716523 C16.5208583,22.0760697 16.5212216,22.0804903 16.5215843,22.084914 L7.63400822,22.084914 L7.63353742,22.0709938 L7.28571429,22.0714286 C7.00957191,22.0714286 6.78571429,21.8475709 6.78571429,21.5714286 C6.78571429,21.2952862 7.00957191,21.0714286 7.28571429,21.0714286 L7.66236444,21.0700679 C7.69915893,19.8945375 7.7403652,19.0937119 7.78598323,18.6675911 C7.84370508,18.1284079 7.96304007,17.3344489 8.14398819,16.2857143 L14.920777,16.2857143 Z M14.3017286,17.2857143 L8.99053842,17.2857143 C8.88950017,17.91212 8.81936646,18.409131 8.78030172,18.7740371 C8.73810668,19.1681835 8.69830774,19.9434276 8.66240863,21.084914 L15.4155086,21.084914 C15.3059291,20.1951261 15.1637139,19.4932418 14.9933033,18.9861263 C14.8045307,18.4243683 14.5740839,17.8575641 14.3017286,17.2857143 Z M13,18.1666667 C13.2761424,18.1666667 13.5,18.3905243 13.5,18.6666667 C13.5,18.942809 13.2761424,19.1666667 13,19.1666667 L10.1428571,19.1666667 C9.86671477,19.1666667 9.64285714,18.942809 9.64285714,18.6666667 C9.64285714,18.3905243 9.86671477,18.1666667 10.1428571,18.1666667 L13,18.1666667 Z M5.12179461,3.36835876 C5.65860593,4.63523977 5.33932889,5.39853796 4.02497643,5.77776659 C3.136377,6.07448565 2.61357144,5.99455456 2.18275355,5.33468265 C1.50390497,4.29490898 1.24580907,2.48670594 2.41272465,2.01114829 C3.64219202,1.51009867 4.51332696,1.93236797 5.12179461,3.36835876 Z M2.79012199,2.93719972 C2.48148045,3.06298161 2.64589343,4.21484816 3.02009309,4.78799948 C3.15234518,4.99056636 3.20228237,4.99820119 3.72785492,4.82314771 C4.46305068,4.61077704 4.51229117,4.4930574 4.20104219,3.75850615 C3.79627228,2.80324441 3.48685307,2.65325819 2.79012199,2.93719972 Z" id="Combined-Shape" fill="#9B9B9B" fill-rule="nonzero"></path>
    </g>
</svg>