<svg width="51" height="48" viewBox="0 0 51 48" fill="none" xmlns="http://www.w3.org/2000/svg">
<path d="M46.6827 5.04026C41.2469 -0.39334 32.4085 -0.389074 26.9771 5.04026L24.272 7.74533L23.7771 7.24826C18.3477 1.81679 9.50933 1.81679 4.0736 7.24826C-1.35787 12.6797 -1.35787 21.5181 4.0736 26.9539L6.95573 29.8339C6.7424 30.3075 6.62293 30.8237 6.62293 31.3592C6.62293 32.3576 7.0112 33.2941 7.7152 33.996C8.42133 34.7021 9.35787 35.0925 10.3563 35.0925C10.4864 35.0925 10.6101 35.0691 10.736 35.0563C10.6272 36.1336 10.9685 37.2472 11.7899 38.0707C12.496 38.7768 13.4325 39.1672 14.4288 39.1672C14.5568 39.1672 14.6805 39.1437 14.8043 39.1309C14.6955 40.2083 15.0368 41.324 15.8603 42.1475C16.5877 42.8749 17.5456 43.2376 18.4992 43.2376C18.6251 43.2376 18.7509 43.2141 18.8768 43.2013C18.864 43.3272 18.8405 43.4509 18.8405 43.5789C18.8405 44.5773 19.2288 45.5139 19.9328 46.22C20.6603 46.9475 21.616 47.3101 22.5717 47.3101C23.5275 47.3101 24.4832 46.9475 25.2128 46.22L26.4821 44.9507L27.7515 46.22C28.4789 46.9475 29.4347 47.3101 30.3904 47.3101C31.3461 47.3101 32.3019 46.9475 33.0293 46.22C33.7333 45.5139 34.1237 44.5752 34.1237 43.5789C34.1237 43.4509 34.1003 43.3272 34.0875 43.2013C34.2133 43.2141 34.3371 43.2376 34.4629 43.2376C35.4187 43.2376 36.3744 42.8728 37.104 42.1475C37.9275 41.324 38.2667 40.2083 38.1579 39.1309C38.2837 39.1437 38.4096 39.1672 38.5355 39.1672C39.4891 39.1672 40.4469 38.8024 41.1744 38.0749C41.9979 37.2515 42.3371 36.1357 42.2283 35.0584C42.3541 35.0712 42.4779 35.0947 42.6037 35.0947C43.6021 35.0947 44.5387 34.7043 45.2448 34.0003C46.6997 32.5453 46.6997 30.1773 45.2448 28.7181L43.9755 27.4488L46.6805 24.7437C52.112 19.3144 52.112 10.4739 46.6827 5.04026ZM8.92053 32.7928C8.53867 32.4109 8.32747 31.9032 8.32747 31.3613C8.32747 30.8195 8.53867 30.3096 8.92053 29.9277L13.3323 25.5181C13.7163 25.1341 14.224 24.9251 14.7659 24.9251C15.3077 24.9251 15.8155 25.1363 16.1973 25.516L16.1995 25.5181C16.5813 25.9 16.7925 26.4077 16.7925 26.9496C16.7925 27.4915 16.5813 27.9992 16.1973 28.3832L11.7856 32.7928C11.0197 33.5587 9.68427 33.5565 8.92053 32.7928ZM12.9952 36.8675C12.2037 36.076 12.2037 34.7896 12.9952 34.0003L17.4069 29.5885C17.7888 29.2067 18.2965 28.9976 18.8384 28.9976C19.3781 28.9976 19.888 29.2088 20.272 29.5907C20.6539 29.9725 20.8651 30.4803 20.8651 31.0221C20.8651 31.564 20.6539 32.0717 20.272 32.4536L15.856 36.8675L15.8539 36.8696C15.0901 37.6269 13.7589 37.6291 12.9952 36.8675ZM17.0656 40.94C16.2763 40.1485 16.2763 38.8664 17.0613 38.0771L17.0656 38.0728L21.4773 33.6611C21.872 33.2643 22.3904 33.0701 22.9109 33.0701C23.4293 33.0701 23.9477 33.2664 24.3424 33.6611C24.7264 34.0451 24.9355 34.5528 24.9355 35.0947C24.9355 35.6365 24.7221 36.1443 24.3403 36.5261L19.9285 40.9379C19.1413 41.7293 17.8549 41.7272 17.0656 40.94ZM24.0032 45.0104C23.216 45.8019 21.9275 45.7997 21.1381 45.0125C20.7541 44.6285 20.5451 44.1187 20.5451 43.5768C20.5451 43.0349 20.7563 42.5272 21.1381 42.1453L25.5499 37.7336C25.9467 37.3389 26.4651 37.1427 26.9856 37.1427C27.504 37.1427 28.0224 37.3411 28.4192 37.7336C29.2085 38.5229 29.2085 39.8093 28.4171 40.5987L25.8827 43.1331L25.8763 43.1373L25.872 43.1437L24.0032 45.0104ZM32.4149 43.5768C32.4149 44.1187 32.2037 44.6285 31.8219 45.0104C31.0347 45.8019 29.744 45.8019 28.9568 45.0104L27.6896 43.7432L29.6267 41.8083C29.9552 41.4797 30.1984 41.1021 30.3776 40.7011L31.824 42.1475C32.2037 42.5272 32.4149 43.0349 32.4149 43.5768ZM44.0395 32.7928C43.2501 33.5864 41.9573 33.5821 41.1744 32.7928L36.7627 28.3832C36.4299 28.0504 35.888 28.0504 35.5552 28.3832C35.2224 28.716 35.2224 29.2579 35.5552 29.5907L39.9669 34.0003C40.7584 34.7896 40.7584 36.076 39.9669 36.8653C39.1819 37.6547 37.8912 37.6589 37.1019 36.8653L32.6901 32.4536C32.3573 32.1208 31.8155 32.1208 31.4827 32.4536C31.1499 32.7864 31.1499 33.3283 31.4827 33.6611L35.8944 38.0728C36.6859 38.8621 36.6859 40.1485 35.8965 40.9379C35.1072 41.7272 33.8187 41.7315 33.0293 40.9379L30.6592 38.5656C30.5376 37.8189 30.2005 37.1 29.6267 36.5261H29.6224C28.7989 35.7027 27.6832 35.3656 26.6059 35.4744C26.6187 35.3485 26.6421 35.2248 26.6421 35.0968C26.6443 34.0984 26.256 33.1597 25.5499 32.4536H25.5477C24.7264 31.6301 23.6107 31.2909 22.5333 31.3997C22.5461 31.2739 22.5696 31.1501 22.5696 31.0221C22.5696 30.0237 22.1813 29.0872 21.4773 28.3832C20.6795 27.5853 19.5467 27.2568 18.4565 27.3635C18.4715 27.2248 18.4971 27.0904 18.4971 26.9496C18.4971 25.9533 18.1067 25.0168 17.4005 24.3128C15.9925 22.9027 13.5328 22.9048 12.1227 24.3128L7.98187 28.4536L5.2768 25.7485C0.510934 20.9805 0.510934 13.2237 5.2768 8.45786C10.0448 3.69199 17.8016 3.68986 22.5675 8.45786L23.0645 8.95279L15.6917 16.3256C15.3589 16.6584 15.3589 17.1981 15.6917 17.5309C17.9509 19.7901 20.9163 20.9187 23.8837 20.9187C26.7531 20.9187 29.6096 19.8392 31.8389 17.7272L42.1621 28.0483L42.1664 28.0547L42.1728 28.0589L44.0395 29.9256C44.8288 30.7171 44.8288 32.0035 44.0395 32.7928ZM42.7701 26.2413L33.0699 16.5411L34.2603 15.3507C34.5931 15.0179 34.5931 14.4781 34.2603 14.1453C33.9275 13.8125 33.3856 13.8125 33.0528 14.1453L30.8725 16.3256C27.2245 19.9715 21.4069 20.1656 17.5307 16.9037L24.8757 9.55866L24.88 9.55653L24.8821 9.55226L28.1867 6.24773C32.9504 1.48613 40.7072 1.48186 45.4752 6.24773C50.2411 11.0157 50.2411 18.7725 45.4752 23.5384L42.7701 26.2413Z" fill="#E62553"/>
</svg>
