<svg width="20" height="19" viewBox="0 0 20 19" fill="none" xmlns="http://www.w3.org/2000/svg">
<path fill-rule="evenodd" clip-rule="evenodd" d="M18 5.25146H14.7113C14.7478 5.22053 14.7853 5.19053 14.8209 5.15771C15.3965 4.64635 15.7332 3.91839 15.75 3.14865C15.7749 2.30675 15.4514 1.49185 14.856 0.896182C14.2605 0.300516 13.4457 -0.0231745 12.6038 0.00146484C11.8337 0.0180513 11.1053 0.354708 10.5938 0.930527C10.2436 1.33637 9.9589 1.79438 9.75 2.28803C9.5411 1.79438 9.25642 1.33637 8.90625 0.930527C8.39467 0.354708 7.66632 0.0180513 6.89625 0.00146484C6.05434 -0.0231745 5.23953 0.300516 4.64405 0.896182C4.04856 1.49185 3.72511 2.30675 3.75 3.14865C3.76685 3.91839 4.10348 4.64635 4.67906 5.15771C4.71469 5.18865 4.75219 5.21865 4.78875 5.25146H1.5C0.671573 5.25146 0 5.92304 0 6.75146V9.75146C0 10.5799 0.671573 11.2515 1.5 11.2515V17.2515C1.5 18.0799 2.17157 18.7515 3 18.7515H16.5C17.3284 18.7515 18 18.0799 18 17.2515V11.2515C18.8284 11.2515 19.5 10.5799 19.5 9.75146V6.75146C19.5 5.92304 18.8284 5.25146 18 5.25146ZM11.7188 1.92428C11.9588 1.65917 12.2986 1.50626 12.6562 1.5024H12.7022C13.1211 1.50502 13.5212 1.67618 13.8124 1.97726C14.1036 2.27834 14.2613 2.684 14.25 3.10272C14.2461 3.46035 14.0932 3.80015 13.8281 4.04022C12.9384 4.82771 11.4619 5.10522 10.5469 5.20271C10.6594 4.2099 10.9688 2.76709 11.7188 1.92428ZM5.71031 1.95803C6.00088 1.66749 6.39441 1.50341 6.80531 1.50146H6.85125C7.20888 1.50532 7.54868 1.65823 7.78875 1.92334C8.57531 2.81209 8.85281 4.28584 8.95031 5.19709C8.03906 5.10334 6.56531 4.82209 5.67656 4.03553C5.41145 3.79546 5.25854 3.45566 5.25469 3.09803C5.24294 2.6722 5.40626 2.26017 5.70656 1.95803H5.71031ZM1.5 6.75146H9V9.75146H1.5V6.75146ZM3 11.2515H9V17.2515H3V11.2515ZM16.5 17.2515H10.5V11.2515H16.5V17.2515ZM18 9.75146H10.5V6.75146H18V9.75146Z" fill="#ADADAD"/>
</svg>
