<?xml version="1.0" encoding="UTF-8"?>
<svg width="24px" height="24px" viewBox="0 0 24 24" version="1.1" xmlns="http://www.w3.org/2000/svg" xmlns:xlink="http://www.w3.org/1999/xlink">
    <!-- Generator: Sketch 63.1 (92452) - https://sketch.com -->
    <title>mdpi/Navigation / Refresh</title>
    <desc>Created with Sketch.</desc>
    <defs>
        <path d="M17.1996507,5.27539313 L17.2309438,5.30413096 L18.2925994,4.24049814 C18.7916471,3.73859338 19.6607627,4.07478386 19.7570892,4.76445668 L19.7655994,4.87049814 L19.8335994,7.99449814 C19.8428302,8.4283443 19.5274219,8.77953956 19.1083887,8.82471025 L19.0015994,8.82949814 L15.8775994,8.77049814 C15.1537899,8.75716481 14.7519759,7.91843465 15.1680001,7.38334341 L15.2365994,7.30549814 L16.5209438,6.01613096 L16.3380668,5.88145758 C14.8173672,4.80300218 12.9463821,4.31972588 11.0531907,4.56102345 C6.94432409,5.08506097 4.03777444,8.84052606 4.56091639,12.9487843 C5.08497008,17.0577777 8.84054994,19.9641918 12.9496213,19.4410657 C15.8437894,19.0716169 18.2242898,17.0739685 19.1242249,14.3530335 C19.2109378,14.0908589 19.4937669,13.9486191 19.7559415,14.035332 C20.018116,14.1220449 20.1603558,14.404874 20.0736429,14.6670485 C19.0538957,17.7502331 16.3558372,20.0143673 13.0760793,20.4330376 C8.41908239,21.0259202 4.16286777,17.7320688 3.56893912,13.0752005 C2.97602964,8.41905485 6.2700449,4.16295714 10.9267176,3.56905341 C13.190664,3.28050109 15.4290456,3.90724792 17.1996507,5.27539313 Z" id="path-1"></path>
    </defs>
    <g id="Navigation-/-Refresh" stroke="none" stroke-width="1" fill="none" fill-rule="evenodd">
        <rect id="Rectangle" x="0" y="0" width="24" height="24"></rect>
        <mask id="mask-2" fill="white">
            <use xlink:href="#path-1"></use>
        </mask>
        <use id="Path" fill="#000000" fill-rule="nonzero" xlink:href="#path-1"></use>
        <g id="color-/-black-copy-229" mask="url(#mask-2)">
            <rect id="Rectangle" x="0" y="0" width="24" height="24"></rect>
            <rect id="Rectangle" fill="#000000" x="0" y="0" width="24" height="24"></rect>
        </g>
    </g>
</svg>