<svg width="25" height="24" viewBox="0 0 25 24" fill="none" xmlns="http://www.w3.org/2000/svg">
<path d="M20.5307 17.0306L17.5307 20.0306C17.39 20.1713 17.1991 20.2504 17.0001 20.2504C16.8011 20.2504 16.6102 20.1713 16.4695 20.0306C16.3287 19.8899 16.2497 19.699 16.2497 19.5C16.2497 19.301 16.3287 19.1101 16.4695 18.9694L18.1898 17.25H5.0001C4.80119 17.25 4.61042 17.171 4.46977 17.0303C4.32912 16.8897 4.2501 16.6989 4.2501 16.5C4.2501 16.3011 4.32912 16.1103 4.46977 15.9697C4.61042 15.829 4.80119 15.75 5.0001 15.75H18.1898L16.4695 14.0306C16.3287 13.8899 16.2497 13.699 16.2497 13.5C16.2497 13.301 16.3287 13.1101 16.4695 12.9694C16.6102 12.8286 16.8011 12.7496 17.0001 12.7496C17.1991 12.7496 17.39 12.8286 17.5307 12.9694L20.5307 15.9694C20.6005 16.039 20.6558 16.1217 20.6935 16.2128C20.7313 16.3038 20.7507 16.4014 20.7507 16.5C20.7507 16.5986 20.7313 16.6961 20.6935 16.7872C20.6558 16.8782 20.6005 16.961 20.5307 17.0306ZM7.46948 11.0306C7.61021 11.1713 7.80108 11.2504 8.0001 11.2504C8.19912 11.2504 8.39 11.1713 8.53073 11.0306C8.67146 10.8899 8.75052 10.699 8.75052 10.5C8.75052 10.301 8.67146 10.1101 8.53073 9.96936L6.81041 8.24999H20.0001C20.199 8.24999 20.3898 8.17097 20.5304 8.03032C20.6711 7.88967 20.7501 7.6989 20.7501 7.49999C20.7501 7.30108 20.6711 7.11031 20.5304 6.96966C20.3898 6.82901 20.199 6.74999 20.0001 6.74999H6.81041L8.53073 5.03061C8.67146 4.88988 8.75052 4.69901 8.75052 4.49999C8.75052 4.30097 8.67146 4.1101 8.53073 3.96936C8.39 3.82863 8.19912 3.74957 8.0001 3.74957C7.80108 3.74957 7.61021 3.82863 7.46948 3.96936L4.46948 6.96936C4.39974 7.03902 4.34443 7.12174 4.30668 7.21278C4.26894 7.30383 4.24951 7.40143 4.24951 7.49999C4.24951 7.59855 4.26894 7.69615 4.30668 7.7872C4.34443 7.87824 4.39974 7.96096 4.46948 8.03061L7.46948 11.0306Z" fill="#747474"/>
</svg>
