<svg id="Capa_1" enable-background="new 0 0 512.004 512.004" height="512" viewBox="0 0 512.004 512.004" width="512" xmlns="http://www.w3.org/2000/svg"><g><g><path d="m7.494 265.45v63.279c0 6.471 5.295 11.766 11.766 11.766h33.14 97.471 184.546 97.471 44.472c6.471 0 11.766-5.294 11.766-11.766v-51.825c0-3.828-.158-7.648-.454-11.454z" fill="#ff4756"/><path d="m41.994 328.729v-63.279h-34.5v63.279c0 6.471 5.295 11.766 11.766 11.766h33.14 1.36c-6.471 0-11.766-5.295-11.766-11.766z" fill="#fc2d39"/><path d="m389.02 241.2c-3.798-3.05-8.523-4.713-13.394-4.713h-368.132v30.963h413.722z" fill="#ffd301"/><path d="m7.494 236.487h34.5v30.963h-34.5z" fill="#ffc20c"/><path d="m478.695 224.975-21.81-74.35h-449.391v87.863h368.132c4.871 0 9.596 1.663 13.395 4.713l36.999 29.714c3.798 3.05 8.523 4.713 13.395 4.713h48.711v-.723c0-17.737-3.195-35.327-9.431-51.93z" fill="#23a8fe"/><path d="m423.521 243.2c-3.798-3.05-8.523-4.713-13.395-4.713h-34.5c4.871 0 9.596 1.663 13.395 4.713l36.999 29.714c3.798 3.05 8.523 4.713 13.395 4.713h34.5c-4.871 0-9.597-1.662-13.395-4.713z" fill="#0193fa"/><path d="m7.494 150.624h34.5v87.863h-34.5z" fill="#0193fa"/><path d="m19.26 123.323c-6.471 0-11.766 5.294-11.766 11.766v17.536h449.978l-2.416-8.236c-4.76-12.672-16.878-21.065-30.414-21.065h-405.382z" fill="#ffd301"/><path d="m53.76 123.323h-34.5c-6.471 0-11.766 5.294-11.766 11.765v17.536h34.5v-17.536c0-6.471 5.295-11.765 11.766-11.765z" fill="#ffc20c"/><g fill="#665e68"><path d="m352.839 238.487h22.787c1.915 0 3.805.266 5.628.764v-86.627h-28.415z"/><path d="m258.159 152.624h28.416v85.863h-28.416z"/><path d="m163.478 152.624h28.416v85.863h-28.416z"/><path d="m68.798 152.624h28.416v85.863h-28.416z"/></g><path d="m352.839 152.624h17.667v85.863h-17.667z" fill="#554e56"/><path d="m258.159 152.624h17.667v85.863h-17.667z" fill="#554e56"/><path d="m163.479 152.624h17.667v85.863h-17.667z" fill="#554e56"/><path d="m68.798 152.624h17.667v85.863h-17.667z" fill="#554e56"/><circle cx="383.152" cy="340.494" fill="#665e68" r="48.735"/><path d="m360.685 340.494c0-22.363 15.068-41.195 35.602-46.93-4.18-1.167-8.581-1.805-13.134-1.805-26.916 0-48.736 21.82-48.736 48.735 0 26.916 21.82 48.735 48.736 48.735 4.553 0 8.954-.638 13.134-1.805-20.534-5.735-35.602-24.566-35.602-46.93z" fill="#554e56"/><circle cx="383.152" cy="340.494" fill="#dfebfa" r="24.368"/><path d="m385.053 340.494c0-8.62 4.48-16.188 11.234-20.52-3.791-2.431-8.296-3.847-13.134-3.847-13.458 0-24.368 10.91-24.368 24.368s10.91 24.368 24.368 24.368c4.838 0 9.343-1.416 13.134-3.847-6.755-4.333-11.234-11.902-11.234-20.522z" fill="#b1dbfc"/><circle cx="101.136" cy="340.494" fill="#665e68" r="48.735"/><path d="m78.668 340.494c0-22.363 15.068-41.195 35.602-46.93-4.18-1.167-8.581-1.805-13.134-1.805-26.916 0-48.736 21.82-48.736 48.735 0 26.916 21.82 48.735 48.736 48.735 4.553 0 8.954-.638 13.134-1.805-20.534-5.735-35.602-24.566-35.602-46.93z" fill="#554e56"/><circle cx="101.136" cy="340.494" fill="#dfebfa" r="24.368"/><path d="m103.036 340.494c0-8.62 4.48-16.188 11.234-20.52-3.791-2.431-8.296-3.847-13.134-3.847-13.458 0-24.368 10.91-24.368 24.368s10.91 24.368 24.368 24.368c4.838 0 9.343-1.416 13.134-3.847-6.755-4.333-11.234-11.902-11.234-20.522z" fill="#b1dbfc"/></g><g fill="#050402"><path d="m383.158 308.353c-17.572 0-31.868 14.296-31.868 31.868s14.296 31.868 31.868 31.868 31.868-14.296 31.868-31.868-14.296-31.868-31.868-31.868zm0 48.735c-9.301 0-16.868-7.567-16.868-16.868s7.567-16.868 16.868-16.868 16.868 7.567 16.868 16.868-7.567 16.868-16.868 16.868z"/><path d="m101.142 308.353c-17.572 0-31.868 14.296-31.868 31.868s14.296 31.868 31.868 31.868 31.868-14.296 31.868-31.868-14.296-31.868-31.868-31.868zm0 48.735c-9.301 0-16.868-7.567-16.868-16.868s7.567-16.868 16.868-16.868 16.868 7.567 16.868 16.868-7.568 16.868-16.868 16.868z"/><path d="m500.176 167.304c-.994-3.105-3.882-5.213-7.143-5.213h-24.882l-3.477-11.851v-.001l-2.416-8.237c-.052-.177-.11-.353-.175-.526-5.825-15.508-20.869-25.928-37.436-25.928h-405.381c-10.623.001-19.266 8.643-19.266 19.266v193.641c0 10.623 8.643 19.266 19.266 19.266h26.156c3.68 27.473 27.257 48.735 55.72 48.735s52.041-21.262 55.72-48.735h170.576c3.68 27.473 27.257 48.735 55.72 48.735s52.041-21.262 55.72-48.735h37.488c10.623 0 19.266-8.643 19.266-19.266v-51.102-.723c0-18.605-3.301-36.873-9.811-54.303l-13.27-45.235h15.008l9.798 30.603c1.02 3.185 3.967 5.215 7.141 5.215 5.089 0 8.691-4.961 7.145-9.789zm-19.711 102.549h-41.045c-3.152 0-6.241-1.086-8.698-3.06-11.688-9.387-25.224-20.258-36.999-29.714-1.542-1.238-3.214-2.286-4.962-3.177v-74.052h63.102c1.777 6.058 17.294 58.955 19.642 66.961.911 3.129 7.79 19.013 8.96 43.042zm-186.385-39.14v-17.55c0-4.142-3.357-7.5-7.5-7.5s-7.5 3.358-7.5 7.5v17.55h-13.415v-70.863h13.415v18.313c0 4.142 3.357 7.5 7.5 7.5s7.5-3.358 7.5-7.5v-18.313h51.265v70.863zm-94.68 0v-70.863h51.265v70.863zm-94.68 0v-70.863h51.265v70.863zm-89.72 0v-70.863h46.305v70.863zm61.305-70.863h13.415v70.863h-13.415zm94.679 0h13.416v70.863h-13.416zm189.361 0h13.416v70.863h-13.416zm-345.345-25.036c0-2.312 1.953-4.266 4.266-4.266h405.383c9.656 0 18.534 5.746 22.583 14.302-28.728 0-415.431 0-432.231 0v-10.036zm86.142 246.642c-22.737 0-41.235-18.498-41.235-41.235s18.498-41.235 41.235-41.235 41.235 18.498 41.235 41.235-18.498 41.235-41.235 41.235zm282.016 0c-22.737 0-41.235-18.498-41.235-41.235s18.498-41.235 41.235-41.235 41.235 18.498 41.235 41.235-18.497 41.235-41.235 41.235zm93.208-48.736h-37.471c-3.706-27.722-27.556-48.735-55.737-48.735-28.641 0-52.095 21.49-55.737 48.735h-170.542c-3.659-27.374-27.241-48.735-55.737-48.735-28.457 0-52.07 21.302-55.737 48.735h-26.139c-2.313 0-4.266-1.954-4.266-4.266v-53.779h206.409c4.143 0 7.5-3.358 7.5-7.5s-3.357-7.5-7.5-7.5h-206.409v-13.963h360.632c3.001 0 6.166 1.027 8.698 3.061l13.575 10.902h-141.496c-4.143 0-7.5 3.358-7.5 7.5s3.357 7.5 7.5 7.5h160.173l4.747 3.812c5.11 4.104 11.535 6.365 18.091 6.365h41.212v43.602c0 2.313-1.953 4.266-4.266 4.266z"/></g></g></svg>