<svg width="17" height="17" viewBox="0 0 17 17" fill="none" xmlns="http://www.w3.org/2000/svg">
<path d="M15.3 4.70092C15.2373 4.92305 15.1596 5.13655 14.9985 5.31153C14.7787 5.55026 14.5095 5.68374 14.1867 5.70997C14.1426 5.71362 14.0984 5.71262 14.0539 5.71262C11.4126 5.71262 8.77096 5.71196 6.12965 5.71362C5.71727 5.71362 5.38325 5.56022 5.12758 5.23682C4.69129 4.68499 4.86661 3.82137 5.48286 3.47905C5.67676 3.37147 5.88163 3.31702 6.10342 3.31702C8.76266 3.31768 11.4219 3.31702 14.0808 3.31801C14.6662 3.31801 15.1167 3.67063 15.2731 4.24139C15.2811 4.27094 15.2911 4.30016 15.3 4.32938V4.70125V4.70092Z" fill="black"/>
<path d="M15.3 8.6853C15.2373 8.90743 15.1596 9.12092 14.9985 9.2959C14.7787 9.53463 14.5095 9.66811 14.1867 9.69434C14.1426 9.69799 14.0984 9.697 14.0539 9.697C11.4126 9.697 8.77096 9.69633 6.12965 9.69799C5.71727 9.69799 5.38325 9.5446 5.12758 9.2212C4.69129 8.66936 4.86661 7.80575 5.48286 7.46342C5.67676 7.35584 5.88163 7.30139 6.10342 7.30139C8.76266 7.30206 11.4219 7.30139 14.0808 7.30239C14.6662 7.30239 15.1167 7.65501 15.2731 8.22577C15.2811 8.25532 15.2911 8.28454 15.3 8.31376V8.68563V8.6853Z" fill="black"/>
<path d="M15.3 12.6697C15.2373 12.8918 15.1596 13.1053 14.9985 13.2803C14.7787 13.519 14.5095 13.6525 14.1867 13.6787C14.1426 13.6824 14.0984 13.6814 14.0539 13.6814C11.4126 13.6814 8.77096 13.6807 6.12965 13.6824C5.71727 13.6824 5.38325 13.529 5.12758 13.2056C4.69129 12.6537 4.86661 11.7901 5.48286 11.4478C5.67676 11.3402 5.88163 11.2858 6.10342 11.2858C8.76266 11.2864 11.4219 11.2858 14.0808 11.2868C14.6662 11.2868 15.1167 11.6394 15.2731 12.2101C15.2811 12.2397 15.2911 12.2689 15.3 12.2981V12.67V12.6697Z" fill="black"/>
<path d="M1.70001 4.329C1.76376 4.10256 1.8481 3.88939 2.0088 3.70844C2.53939 3.11144 3.54013 3.22101 3.93259 3.9143C4.27691 4.52291 4.04515 5.30551 3.37976 5.61197C2.76085 5.89685 1.98058 5.56084 1.76775 4.91437C1.7445 4.84332 1.72259 4.77193 1.70001 4.70088V4.329Z" fill="black"/>
<path d="M1.70001 8.31338C1.76376 8.08693 1.8481 7.87377 2.0088 7.69281C2.53939 7.09582 3.54013 7.20539 3.93259 7.89867C4.27691 8.50728 4.04515 9.28988 3.37976 9.59635C2.76085 9.88123 1.98058 9.54521 1.76775 8.89875C1.7445 8.82769 1.72259 8.75631 1.70001 8.68525C1.70001 8.56141 1.70001 8.43723 1.70001 8.31338Z" fill="black"/>
<path d="M1.70001 12.2978C1.76376 12.0713 1.8481 11.8581 2.0088 11.6772C2.53939 11.0802 3.54013 11.1898 3.93259 11.883C4.27691 12.4917 4.04515 13.2743 3.37976 13.5807C2.76085 13.8656 1.98058 13.5296 1.76775 12.8831C1.7445 12.8121 1.72259 12.7407 1.70001 12.6696C1.70001 12.5458 1.70001 12.4216 1.70001 12.2978Z" fill="black"/>
</svg>
