<svg width="53" height="53" viewBox="0 0 53 53" fill="none" xmlns="http://www.w3.org/2000/svg">
<rect x="9" y="10" width="35" height="34" fill="white"/>
<path d="M48.0489 26.4172C48.0489 30.2286 48.0696 34.0411 48.0385 37.8525C48.0261 39.4405 47.9412 41.0232 47.3915 42.5542C46.3574 45.434 43.3451 47.7507 40.2914 47.8946C38.601 47.9743 36.9075 48.0292 35.215 48.0323C28.473 48.0447 21.731 48.0447 14.9891 48.0219C13.0595 48.0157 11.1341 47.8863 9.39923 46.8915C6.72852 45.3605 5.3176 43.0262 5.08469 39.9787C4.99567 38.8163 4.95633 37.6476 4.95426 36.482C4.94288 29.797 4.93149 23.1129 4.96151 16.4279C4.96772 14.9104 4.98842 13.367 5.25239 11.8805C5.95112 7.9448 9.22221 5.19853 13.22 5.04636C14.6485 4.99254 16.0801 4.95941 17.5097 4.95941C24.6295 4.96045 31.7493 4.96562 38.8681 4.99254C41.4829 5.00289 43.8399 5.72543 45.6835 7.70154C47.2155 9.34433 47.9526 11.3236 47.9702 13.5409C48.0054 17.8326 47.9805 22.1244 47.9805 26.4161C48.0033 26.4161 48.025 26.4161 48.0478 26.4161L48.0489 26.4172ZM11.7884 41.2634C12.0192 41.2189 12.1621 41.2002 12.3008 41.164C14.6143 40.5584 16.9258 39.9467 19.2425 39.3535C19.4309 39.3049 19.6814 39.3328 19.8553 39.4198C22.5509 40.7613 25.3862 41.3037 28.3798 40.9135C36.3857 39.869 42.0077 32.7523 41.1433 24.7682C40.2458 16.4828 32.6136 10.6072 24.3748 11.8618C14.3349 13.3908 8.83507 24.4742 13.6868 33.3869C13.779 33.5566 13.8131 33.8092 13.7655 33.9955C13.4808 35.1156 13.1641 36.2273 12.8598 37.3412C12.5099 38.6186 12.1621 39.897 11.7884 41.2644V41.2634Z" fill="#33D951"/>
<path d="M15.3628 37.7376C15.7489 36.307 16.1215 34.9644 16.4621 33.6136C16.5108 33.421 16.4694 33.1477 16.3627 32.9811C11.5741 25.5642 16.077 15.6132 24.8086 14.3348C31.4967 13.3556 37.7304 18.0624 38.6269 24.7702C39.5678 31.802 34.185 38.2128 27.1035 38.5036C24.6554 38.604 22.3925 37.9995 20.2756 36.7832C20.0748 36.6683 19.7725 36.6186 19.5489 36.6724C18.3026 36.9716 17.0677 37.3111 15.8276 37.6362C15.6992 37.6703 15.5677 37.6941 15.3617 37.7387L15.3628 37.7376ZM30.8549 33.9179C31.3073 33.7274 32.1251 33.4541 32.8714 33.0494C33.8641 32.5101 34.0567 31.5112 34.0919 30.4833C34.096 30.3539 33.979 30.1603 33.8631 30.0971C32.7969 29.5206 31.7296 28.944 30.6344 28.4264C30.4605 28.3446 30.0848 28.4906 29.9109 28.65C29.5247 29.003 29.1904 29.417 28.8674 29.8321C28.5165 30.2824 28.119 30.2876 27.6553 30.0537C26.0104 29.2266 24.5933 28.1241 23.5767 26.5714C22.5861 25.057 22.4971 25.2681 23.703 23.9255C23.7941 23.8241 23.9204 23.7206 23.9473 23.5995C24.0105 23.3117 24.1202 22.9835 24.0395 22.7258C23.7776 21.8863 23.4422 21.0685 23.1275 20.2456C22.6513 18.9992 21.3015 18.697 20.317 19.6296C18.991 20.8863 18.5366 22.4629 19.1318 24.1471C20.3709 27.6511 22.6161 30.4149 25.8458 32.2813C27.2557 33.096 28.7608 33.7813 30.8549 33.9179Z" fill="#33D951"/>
</svg>
