<svg width="23" height="23" viewBox="0 0 23 23" fill="none" xmlns="http://www.w3.org/2000/svg">
<path d="M9.82793 17.8309C10.3697 17.1808 10.858 16.5955 11.3449 16.0093C11.4829 15.8435 11.6589 15.7752 11.8642 15.8278C12.0511 15.8759 12.1684 16.0102 12.2133 16.2011C12.251 16.361 12.1958 16.4976 12.0969 16.6162C11.3135 17.56 10.5314 18.5047 9.74123 19.4427C9.49776 19.7315 9.17791 19.723 8.93623 19.4341C8.15863 18.5051 7.38373 17.5739 6.61063 16.6409C6.40668 16.3947 6.42241 16.1009 6.63668 15.9235C6.85545 15.742 7.13801 15.7743 7.34645 16.021C7.84283 16.6081 8.33338 17.2002 8.86346 17.8349V17.5514C8.86346 13.0242 8.86346 8.49654 8.86346 3.96931C8.86346 3.56816 9.03461 3.35119 9.34727 3.35478C9.65768 3.35792 9.82748 3.5758 9.82748 3.97875C9.82793 8.48351 9.82748 12.9887 9.82748 17.4935C9.82748 17.5797 9.82748 17.6655 9.82748 17.8295L9.82793 17.8309Z" fill="#050404"/>
<path d="M4.06226 5.18046C3.54432 5.80173 3.06545 6.37628 2.58568 6.94994C2.35838 7.22216 2.07447 7.27158 1.84627 7.07976C1.61851 6.88839 1.61672 6.60089 1.84357 6.32867C2.58029 5.44326 3.31701 4.55785 4.05508 3.67378C4.42389 3.2322 4.67949 3.234 5.051 3.67962C5.78906 4.56369 6.52623 5.4491 7.26295 6.33451C7.48756 6.60404 7.48082 6.89513 7.24947 7.0856C7.02217 7.27247 6.73871 7.21857 6.51051 6.94499C6.03254 6.37179 5.55502 5.79904 5.03976 5.18046V5.46212C5.03976 9.96734 5.03976 14.473 5.03976 18.9782C5.03976 19.0532 5.04785 19.1296 5.03527 19.2024C4.98721 19.4809 4.82818 19.6534 4.53574 19.6458C4.25408 19.6386 4.10674 19.4629 4.06586 19.1947C4.05463 19.1215 4.06226 19.0451 4.06226 18.9706C4.06226 14.4726 4.06226 9.97452 4.06226 5.47695V5.18091V5.18046Z" fill="#0D0D0C"/>
<path d="M17.5506 6.24185C15.6913 6.24185 13.8432 6.24185 11.9951 6.24185C11.4955 6.24185 11.2579 6.08776 11.2521 5.75983C11.2458 5.42607 11.492 5.2639 12.0036 5.2639C13.845 5.2639 15.6859 5.2639 17.525 5.2639C18.1903 4.03259 18.9661 3.60718 19.9777 3.91669C20.8618 4.18712 21.3945 5.02267 21.3078 6.00286C21.2319 6.86042 20.4831 7.57333 19.5536 7.67306C18.688 7.76605 17.8614 7.18251 17.551 6.24185H17.5506ZM19.4045 6.7023C19.9323 6.70274 20.3609 6.28138 20.3636 5.75894C20.3663 5.2338 19.9431 4.80659 19.4171 4.80345C18.8731 4.8003 18.44 5.22526 18.445 5.75714C18.4499 6.28452 18.8731 6.7014 19.4045 6.70185V6.7023Z" fill="#0C0C0C"/>
<path d="M17.5379 11.992C16.9009 11.992 16.2581 11.992 15.6157 11.992C14.3583 11.992 13.1005 11.9924 11.8431 11.992C11.4806 11.992 11.2439 11.7903 11.2515 11.4933C11.2587 11.2022 11.4865 11.0145 11.84 11.0145C13.6665 11.0136 15.4926 11.0145 17.3191 11.0145C17.3932 11.0145 17.4669 11.0145 17.537 11.0145C17.8213 10.1106 18.66 9.39367 19.8204 9.62592C20.6842 9.79887 21.3235 10.6052 21.3253 11.5019C21.3266 12.4061 20.6694 13.2188 19.8024 13.3859C18.7935 13.5799 17.9736 13.0795 17.5383 11.9928L17.5379 11.992ZM19.4084 12.4511C19.9354 12.4511 20.3653 12.0225 20.3635 11.4996C20.3617 10.9763 19.9313 10.5527 19.403 10.554C18.8707 10.5553 18.4471 10.9776 18.4494 11.505C18.4516 12.0333 18.8752 12.4515 19.4084 12.4511Z" fill="#0D0B0B"/>
<path d="M17.5478 17.7419C16.294 17.7419 15.0515 17.7419 13.8094 17.7419C13.3943 17.7419 13.1733 17.568 13.1764 17.2459C13.1796 16.9346 13.4001 16.7635 13.7999 16.7635C15.0425 16.7635 16.2855 16.7635 17.5258 16.7635C18.1686 15.5438 18.9233 15.1211 19.9349 15.4095C20.8365 15.6665 21.3859 16.4859 21.3104 17.4607C21.2421 18.3429 20.522 19.0518 19.5724 19.1713C18.7112 19.2795 17.8766 18.6969 17.5478 17.7423V17.7419ZM19.4012 18.2032C19.9291 18.205 20.3594 17.7841 20.3639 17.2621C20.3684 16.7383 19.9448 16.308 19.421 16.3048C18.8761 16.3017 18.444 16.7217 18.4453 17.254C18.4467 17.7783 18.873 18.2019 19.4017 18.2037L19.4012 18.2032Z" fill="#0C0B0B"/>
<path d="M19.4044 6.70237C18.873 6.70192 18.4498 6.28505 18.4449 5.75766C18.4399 5.22579 18.8734 4.80083 19.417 4.80397C19.943 4.80712 20.3662 5.23432 20.3635 5.75946C20.3608 6.2819 19.9322 6.70327 19.4044 6.70282V6.70237Z" fill="#73C7B6"/>
<path d="M19.4084 12.451C18.8752 12.451 18.4516 12.0332 18.4493 11.505C18.4471 10.9776 18.8712 10.5553 19.403 10.554C19.9313 10.5526 20.3617 10.9762 20.3635 11.4996C20.3653 12.0225 19.9354 12.4506 19.4084 12.451Z" fill="#F07D86"/>
<path d="M19.4013 18.2033C18.8731 18.2015 18.4463 17.7779 18.4449 17.2537C18.4436 16.7213 18.8758 16.3013 19.4207 16.3045C19.9444 16.3076 20.3681 16.738 20.3636 17.2617C20.3591 17.7837 19.9287 18.2047 19.4009 18.2029L19.4013 18.2033Z" fill="#C7E7F6"/>
</svg>
