<svg width="36" height="36" viewBox="0 0 36 36" fill="none" xmlns="http://www.w3.org/2000/svg">
<path d="M30.5205 6.69653H5.55398C4.85771 6.69653 4.29327 7.26097 4.29327 7.95724V15.8034C4.29327 16.4997 4.85771 17.0641 5.55398 17.0641H30.5205C31.2168 17.0641 31.7812 16.4997 31.7812 15.8034V7.95724C31.7812 7.26097 31.2168 6.69653 30.5205 6.69653Z" fill="#F6F0F5"/>
<path d="M30.4832 18.8767H5.51668C4.82042 18.8767 4.25598 19.4411 4.25598 20.1374V27.9836C4.25598 28.6799 4.82042 29.2443 5.51668 29.2443H30.4832C31.1795 29.2443 31.7439 28.6799 31.7439 27.9836V20.1374C31.7439 19.4411 31.1795 18.8767 30.4832 18.8767Z" fill="#F6F0F5"/>
<path d="M30.2962 17.4157H5.70374C4.73202 17.4157 3.94171 16.6254 3.94171 15.6537V8.22443C3.94171 7.25271 4.73202 6.4624 5.70374 6.4624H30.2962C31.268 6.4624 32.0583 7.25271 32.0583 8.22443V15.6537C32.0583 16.6254 31.268 17.4157 30.2962 17.4157ZM5.70374 6.81396C4.92609 6.81396 4.29327 7.44678 4.29327 8.22443V15.6537C4.29327 16.4313 4.92609 17.0641 5.70374 17.0641H30.2962C31.0739 17.0641 31.7067 16.4313 31.7067 15.6537V8.22443C31.7067 7.44678 31.0739 6.81396 30.2962 6.81396H5.70374Z" fill="black"/>
<path d="M30.0719 8.47827H25.9312V15.5292H30.0719V8.47827Z" fill="#F16C7A"/>
<path d="M30.2962 29.5375H5.70374C4.73202 29.5375 3.94171 28.7472 3.94171 27.7755V20.3463C3.94171 19.3745 4.73202 18.5842 5.70374 18.5842H30.2962C31.268 18.5842 32.0583 19.3745 32.0583 20.3463V27.7755C32.0583 28.7472 31.268 29.5375 30.2962 29.5375ZM5.70374 18.9358C4.92609 18.9358 4.29327 19.5686 4.29327 20.3463V27.7755C4.29327 28.5531 4.92609 29.1859 5.70374 29.1859H30.2962C31.0739 29.1859 31.7067 28.5531 31.7067 27.7755V20.3463C31.7067 19.5686 31.0739 18.9358 30.2962 18.9358H5.70374Z" fill="black"/>
<path d="M30.0719 20.6001H25.9312V27.651H30.0719V20.6001Z" fill="#F16C7A"/>
</svg>
