<svg width="16" height="16" viewBox="0 0 16 16" fill="none" xmlns="http://www.w3.org/2000/svg">
<path d="M8.12875 2.02344C8.24844 2.08875 8.3225 2.19344 8.38969 2.30844C8.50125 2.5 8.62219 2.68594 8.73469 2.87719C8.77156 2.93969 8.81844 2.96906 8.88875 2.985C9.1425 3.04187 9.39563 3.10281 9.64719 3.16812C9.93969 3.24437 10.0306 3.53437 9.83656 3.76656C9.66906 3.96656 9.49594 4.16187 9.33125 4.36406C9.29844 4.40437 9.27469 4.4675 9.2775 4.51875C9.29063 4.77125 9.30031 5.02531 9.33688 5.275C9.38188 5.58188 9.10031 5.81594 8.80906 5.67906C8.57375 5.56844 8.33 5.475 8.0875 5.38062C8.04313 5.36344 7.98063 5.36375 7.93625 5.38094C7.69375 5.47531 7.45031 5.56875 7.215 5.67938C6.92375 5.81625 6.64219 5.58 6.68719 5.27469C6.72469 5.02125 6.73313 4.76312 6.74781 4.50688C6.75031 4.46281 6.72938 4.4075 6.70094 4.37281C6.53531 4.17125 6.36375 3.97469 6.19531 3.77562C5.99031 3.53344 6.08219 3.2425 6.38844 3.16594C6.63719 3.10375 6.88594 3.04125 7.13594 2.98563C7.21156 2.96875 7.2575 2.93219 7.29563 2.86719C7.40594 2.67937 7.52531 2.49687 7.63469 2.30875C7.70156 2.19344 7.775 2.08812 7.89531 2.02344H8.12938H8.12875Z" fill="black"/>
<path d="M2.02344 4.78373C2.10813 4.62373 2.24562 4.55279 2.42062 4.52029C2.63812 4.47967 2.85094 4.41467 3.06719 4.36654C3.14125 4.34998 3.19031 4.31779 3.22969 4.25123C3.35781 4.03311 3.49125 3.81811 3.625 3.60311C3.79688 3.32623 4.10031 3.32717 4.27281 3.60467C4.40844 3.82311 4.54344 4.04154 4.67469 4.26248C4.70969 4.32123 4.75437 4.34904 4.81938 4.36373C5.07687 4.42279 5.33406 4.48342 5.59 4.54967C5.8725 4.62279 5.96813 4.90717 5.78469 5.13217C5.61719 5.33748 5.44344 5.53779 5.26844 5.73686C5.22125 5.79092 5.20031 5.84311 5.2075 5.91561C5.23187 6.15592 5.25187 6.39654 5.27031 6.63717C5.275 6.69873 5.27875 6.76342 5.26562 6.82311C5.21844 7.04061 5.00063 7.15498 4.78438 7.07154C4.53406 6.97498 4.28625 6.87154 4.04094 6.76342C3.9725 6.73342 3.91906 6.73873 3.85531 6.76592C3.61906 6.86592 3.3775 6.95404 3.145 7.06217C2.88219 7.18436 2.58906 6.98842 2.62594 6.68154C2.65719 6.42279 2.66281 6.16092 2.68656 5.90123C2.6925 5.83561 2.675 5.79061 2.63438 5.74404C2.48375 5.57029 2.33375 5.39592 2.18719 5.21904C2.12812 5.14779 2.07812 5.06936 2.02406 4.99404V4.78342L2.02344 4.78373Z" fill="black"/>
<path d="M7.19782 9.52843C7.22626 9.515 7.25032 9.50312 7.27469 9.49218C7.59469 9.34906 7.81157 9.11125 7.91813 8.77781C8.07657 8.28187 8.23001 7.78468 8.38532 7.28781C8.49938 6.9225 8.78469 6.79406 9.13282 6.95125C9.62594 7.17406 9.88719 7.71625 9.74344 8.23906C9.65376 8.565 9.55001 8.88687 9.45282 9.21062C9.44282 9.24375 9.43438 9.2775 9.42126 9.32625C9.47157 9.32625 9.51313 9.32625 9.55438 9.32625C10.0881 9.32625 10.6222 9.32468 11.1559 9.32687C11.5878 9.32843 11.9375 9.56156 12.0913 9.94187C12.1781 10.1569 12.1634 10.3756 12.1244 10.5966C11.9931 11.3391 11.8628 12.0819 11.7316 12.8244C11.6238 13.4334 11.1406 13.8678 10.525 13.8766C9.71063 13.8884 8.89626 13.8841 8.08188 13.8772C7.76376 13.8744 7.48063 13.7584 7.24782 13.5369C7.21813 13.5087 7.19282 13.4591 7.19282 13.4194C7.19032 12.1334 7.19094 10.8475 7.19157 9.56156C7.19157 9.55406 7.19438 9.54625 7.19751 9.52843H7.19782Z" fill="black"/>
<path d="M6.49155 11.5463C6.49155 12.2322 6.48593 12.9185 6.49468 13.6044C6.49749 13.8288 6.3353 14.0091 6.09593 14.0038C5.59343 13.9932 5.08999 13.9913 4.58749 14.0044C4.33687 14.011 4.1578 13.86 4.1603 13.5719C4.16812 12.691 4.16312 11.81 4.16312 10.9291C4.16312 10.4613 4.16249 9.99346 4.16312 9.52565C4.16374 9.22221 4.29562 9.09003 4.59593 9.08971C5.08718 9.08971 5.57843 9.09628 6.06937 9.0869C6.30374 9.08221 6.49905 9.22878 6.49468 9.51159C6.48343 10.1897 6.49093 10.8682 6.49093 11.5463H6.49155Z" fill="black"/>
<path d="M10.7497 6.69061C10.7697 6.4528 10.7884 6.19624 10.8138 5.94061C10.8219 5.85811 10.8084 5.79436 10.7497 5.72905C10.5778 5.5378 10.4116 5.34124 10.2478 5.14311C10.0525 4.90655 10.1475 4.62092 10.4428 4.54811C10.6956 4.48592 10.9484 4.42249 11.2022 4.36499C11.2725 4.34905 11.3178 4.31655 11.3544 4.25467C11.4791 4.04342 11.6175 3.8403 11.7341 3.62467C11.9047 3.30874 12.2725 3.34874 12.4122 3.61874C12.5247 3.83593 12.6675 4.03749 12.7925 4.24842C12.8309 4.31342 12.8775 4.34874 12.9534 4.36561C13.2075 4.42155 13.4606 4.48343 13.7122 4.54905C14.005 4.6253 14.0947 4.9153 13.8991 5.14874C13.7341 5.34592 13.5666 5.54124 13.3969 5.73436C13.3503 5.78749 13.3309 5.83874 13.3378 5.91218C13.3622 6.17186 13.3791 6.43249 13.3956 6.6928C13.4153 7.00311 13.1709 7.17718 12.8803 7.05968C12.6388 6.96218 12.3981 6.86249 12.1584 6.7603C12.1009 6.73561 12.0525 6.73436 11.9941 6.75936C11.7513 6.86343 11.5072 6.9653 11.2616 7.06343C10.9847 7.17405 10.7425 7.00467 10.7494 6.6903L10.7497 6.69061Z" fill="black"/>
</svg>
