<svg width="12" height="12" viewBox="0 0 12 12" fill="none" xmlns="http://www.w3.org/2000/svg">
<g clip-path="url(#clip0_907_1316)">
<path d="M3.57374 5.7935C4.94554 5.78623 6.15726 6.77225 6.17718 8.41147C6.19429 9.82615 5.00812 10.9926 3.58077 10.9985C2.1532 11.0044 0.959289 9.83717 0.97218 8.41287C0.986945 6.77834 2.19913 5.78717 3.57398 5.7935H3.57374ZM2.92007 8.73912C2.4321 8.26264 2.52398 7.64295 2.85163 7.30006C3.21468 6.92014 3.7957 6.8824 4.20421 7.21404C4.41632 7.38631 4.53609 7.61365 4.56374 7.88342C4.59796 8.21904 4.47281 8.50029 4.22788 8.73865C4.73952 8.98311 5.05335 9.37522 5.18366 9.91686C5.68546 9.44623 6.00023 8.56123 5.67445 7.62186C5.3557 6.7024 4.52132 6.13287 3.48445 6.16334C2.57695 6.19006 1.75523 6.72795 1.4496 7.69522C1.15054 8.64256 1.51429 9.50975 1.9657 9.91662C2.09437 9.37545 2.40937 8.98451 2.91984 8.73912H2.92007ZM3.56109 10.6188C4.00312 10.616 4.4039 10.504 4.76859 10.2719C4.8021 10.2506 4.84241 10.1934 4.83538 10.1627C4.79718 9.99139 4.76882 9.81186 4.69406 9.65576C4.45101 9.14881 3.87538 8.89428 3.29296 9.01592C2.74945 9.12936 2.35312 9.58475 2.30976 10.1419C2.3046 10.2075 2.32757 10.2436 2.38241 10.2773C2.74734 10.5019 3.14343 10.6137 3.56085 10.619L3.56109 10.6188ZM2.96179 7.97717C2.95991 8.32475 3.22827 8.60154 3.56906 8.60318C3.91031 8.60483 4.18616 8.33037 4.18757 7.98748C4.18874 7.64318 3.9164 7.36193 3.57937 7.35959C3.23976 7.35725 2.96366 7.63334 2.96179 7.97717Z" fill="black"/>
<path d="M8.39202 6.14602C7.0221 6.15704 5.8289 4.98868 5.81695 3.62368C5.80382 2.13821 6.93562 0.940789 8.36343 0.929773C9.84867 0.918289 11.018 2.06321 11.028 3.53884C11.0377 4.97415 9.86484 6.13407 8.39202 6.14602ZM10.0324 5.07587C10.6041 4.53305 10.8525 3.59087 10.4782 2.68735C10.1351 1.85954 9.30913 1.18712 8.14335 1.31626C7.25343 1.41493 6.49921 2.06415 6.25429 3.02227C6.03867 3.86626 6.36913 4.69384 6.81445 5.06579C6.94265 4.52157 7.26421 4.13274 7.76577 3.89016C7.2682 3.40196 7.38632 2.77266 7.69617 2.44829C8.04749 2.08032 8.66952 2.04704 9.06538 2.37259C9.27515 2.54509 9.38179 2.77337 9.41015 3.03657C9.44624 3.37243 9.31921 3.65251 9.07476 3.8904C9.58757 4.13555 9.90327 4.52977 10.0324 5.0754V5.07587ZM8.40773 5.77384C8.80546 5.76704 9.17249 5.68079 9.50976 5.4886C9.71976 5.36907 9.70429 5.41571 9.66538 5.17899C9.54703 4.45899 8.90906 4.04766 8.21671 4.15899C7.60406 4.25743 7.23281 4.67251 7.1571 5.29735C7.1496 5.35899 7.16929 5.39157 7.22085 5.42391C7.58742 5.65477 7.98843 5.76305 8.40796 5.77384H8.40773ZM8.41827 2.51673C8.07913 2.51907 7.80023 2.79868 7.8007 3.13595C7.80093 3.47321 8.08031 3.75212 8.41968 3.75399C8.75859 3.75587 9.0532 3.46196 9.0464 3.12915C9.0396 2.79376 8.7532 2.51462 8.41827 2.51673Z" fill="black"/>
<path d="M8.31539 8.14483C8.19257 8.14483 8.08804 8.1439 7.98375 8.14507C7.88343 8.14624 7.79156 8.12679 7.75078 8.02272C7.71257 7.92522 7.75921 7.85116 7.82859 7.78226C8.19281 7.42085 8.55445 7.0571 8.91773 6.69476C9.04617 6.56655 9.13617 6.56679 9.2639 6.69429C9.62695 7.05663 9.98859 7.42061 10.3528 7.78179C10.4219 7.85046 10.4707 7.92288 10.4327 8.02179C10.3924 8.12702 10.3005 8.14554 10.2007 8.14483C10.0889 8.14413 9.97687 8.14483 9.88289 8.14483C9.82312 8.40897 9.79054 8.6614 9.70851 8.89671C9.2925 10.0878 8.45859 10.7998 7.2157 11.0288C6.87421 11.0919 6.53297 11.0783 6.19218 11.0227C6.05554 11.0005 5.97961 10.9313 5.97796 10.8296C5.97632 10.7337 6.04406 10.6698 6.17625 10.6346C7.3125 10.3316 8.01398 9.60874 8.27086 8.45936C8.29265 8.36186 8.29945 8.26132 8.31562 8.14483H8.31539ZM7.16156 10.6662C7.21289 10.6573 7.26421 10.6496 7.31531 10.6395C8.51484 10.4056 9.45117 9.3003 9.48539 8.07804C9.49265 7.81835 9.52125 7.78694 9.7732 7.76257C9.77718 7.7621 9.78023 7.75202 9.77414 7.76187C9.54023 7.52796 9.30914 7.2971 9.09351 7.08147C8.87086 7.30413 8.64 7.53452 8.41617 7.75835C8.6775 7.79866 8.70703 7.83054 8.68898 8.11038C8.64351 8.81233 8.39953 9.43624 7.94484 9.97577C7.71961 10.2432 7.45218 10.4607 7.16179 10.6658L7.16156 10.6662Z" fill="black"/>
<path d="M2.09366 3.8562C2.11827 3.51565 2.18272 3.20276 2.30881 2.90674C2.76842 1.82932 3.57397 1.18175 4.72874 0.972214C5.0742 0.909636 5.41897 0.921823 5.7635 0.979011C5.93624 1.00784 6.02553 1.14143 5.94327 1.26003C5.90928 1.30901 5.83967 1.34628 5.7792 1.36198C4.7571 1.62776 4.07436 2.25659 3.74835 3.26229C3.68881 3.44628 3.66561 3.64198 3.62085 3.8562C3.75327 3.8562 3.8571 3.85714 3.96116 3.85596C4.06053 3.85479 4.15381 3.87003 4.19764 3.97315C4.24124 4.07581 4.18991 4.15151 4.11795 4.22299C3.75397 4.58464 3.39233 4.94862 3.02928 5.31096C2.90717 5.4326 2.81319 5.43237 2.69108 5.31073C2.32522 4.94581 1.96053 4.57948 1.59397 4.21526C1.52436 4.14612 1.47913 4.07276 1.51967 3.97432C1.56069 3.87518 1.64811 3.8562 1.74397 3.85643C1.85647 3.85643 1.96897 3.85643 2.09389 3.85643L2.09366 3.8562ZM3.53928 4.23776C3.53272 4.23706 3.51514 4.23471 3.49733 4.23378C3.3171 4.22581 3.25522 4.16323 3.26014 3.98042C3.26319 3.86393 3.26858 3.74628 3.28663 3.63143C3.43686 2.67401 3.91288 1.92635 4.72991 1.39948C4.75311 1.38448 4.7742 1.36643 4.80889 1.34018C4.7721 1.34018 4.75311 1.33784 4.73506 1.34042C3.49616 1.53003 2.50194 2.66042 2.46491 3.92135C2.45717 4.18385 2.42905 4.21479 2.1785 4.23823C2.17428 4.2387 2.17124 4.24854 2.17756 4.23893C2.41077 4.4726 2.64139 4.70346 2.85655 4.91885C3.07967 4.6962 3.31053 4.46604 3.53905 4.23776H3.53928Z" fill="black"/>
</g>
<defs>
<clipPath id="clip0_907_1316">
<rect width="12" height="12" fill="white"/>
</clipPath>
</defs>
</svg>
