<svg width="14" height="14" viewBox="0 0 14 14" fill="none" xmlns="http://www.w3.org/2000/svg">
<path d="M2.23453 13.0006C2.02945 12.9303 1.82738 12.8549 1.65484 12.7168C1.2816 12.4176 1.0716 12.034 1.07105 11.5528C1.06804 9.21897 1.06886 6.88491 1.07023 4.55112C1.0705 3.82268 1.63379 3.18667 2.35511 3.09616C2.44726 3.08468 2.5405 3.07757 2.63347 3.07757C3.92273 3.07647 5.21199 3.07647 6.50125 3.07702C6.7416 3.07702 6.92945 3.19925 7.00519 3.40104C7.12851 3.72862 6.89035 4.07343 6.5357 4.07425C5.54148 4.07616 4.54754 4.07507 3.55332 4.07507C3.23476 4.07507 2.91648 4.07889 2.59793 4.07397C2.27418 4.06878 2.06445 4.32389 2.065 4.60745C2.07074 6.90241 2.07101 9.19764 2.06472 11.4926C2.0639 11.7942 2.29879 12.0288 2.59437 12.028C4.89343 12.0225 7.19222 12.0253 9.49129 12.0247C9.81367 12.0247 10.0179 11.8166 10.0182 11.4888C10.019 10.1801 10.0182 8.87143 10.019 7.56276C10.019 7.26417 10.2408 7.05143 10.5388 7.05882C10.7945 7.06511 10.9993 7.271 11.016 7.53925C11.0182 7.57397 11.0171 7.60925 11.0171 7.64397C11.0171 8.90999 11.0171 10.176 11.0171 11.442C11.0171 12.218 10.6241 12.7499 9.88175 12.9804C9.87164 12.9834 9.86398 12.9938 9.85523 13.0006H2.23453Z" fill="black"/>
<path d="M13.0006 2.51404C12.9864 2.56162 12.9702 2.60865 12.9582 2.65678C12.9076 2.85666 12.8116 3.03303 12.6686 3.18014C12.4441 3.41146 12.2145 3.63732 11.9864 3.86537C11.976 3.87576 11.9626 3.88342 11.9591 3.88615C11.3736 3.30072 10.7926 2.71967 10.2063 2.13342C10.2216 2.11646 10.2435 2.08994 10.2676 2.06588C10.4623 1.87064 10.6567 1.67514 10.8525 1.481C11.2077 1.12854 11.632 1.00303 12.1114 1.14549C12.5852 1.28658 12.874 1.61635 12.9793 2.10252C12.9823 2.11619 12.9932 2.12822 13.0006 2.14107V2.51404Z" fill="black"/>
<path d="M9.64141 2.67349C10.2422 3.27423 10.8232 3.85529 11.4261 4.45822C11.3969 4.479 11.3542 4.50115 11.3217 4.53341C10.0882 5.76525 8.85419 6.99599 7.6259 8.23275C7.49301 8.36646 7.35001 8.44302 7.16762 8.47666C6.66532 8.5699 6.16465 8.67326 5.66372 8.77361C5.41243 8.82392 5.26833 8.68365 5.31809 8.43455C5.42555 7.89533 5.53438 7.35666 5.64047 6.81716C5.66126 6.7108 5.7061 6.62466 5.7843 6.54673C7.04895 5.28591 8.31114 4.02263 9.5736 2.75935C9.60094 2.73201 9.622 2.69837 9.64141 2.67322V2.67349Z" fill="black"/>
</svg>
