<svg width="29" height="29" viewBox="0 0 29 29" fill="none" xmlns="http://www.w3.org/2000/svg">
<path d="M3.23706 8.95887C3.00823 8.91413 2.91421 8.77592 2.91817 8.54256C2.92667 8.08321 2.94706 7.62159 2.91534 7.1645C2.84907 6.20784 3.59276 5.19114 4.8802 5.1968C8.08946 5.21096 11.2987 5.20133 14.508 5.20133C14.794 5.20133 15.0806 5.20133 15.3666 5.20133C15.6 5.20133 15.7586 5.29366 15.7881 5.54457C15.7201 5.83401 15.6312 5.89745 15.2834 5.89745C12.7957 5.89745 10.3075 5.89745 7.81985 5.89745C7.29196 5.89745 6.76464 5.90141 6.23675 5.89461C6.11044 5.89291 6.06796 5.92577 6.07079 6.05717C6.07928 6.44913 6.06569 6.84164 6.07759 7.23303C6.09401 7.77905 6.48483 8.1727 7.02518 8.17723C8.00507 8.18573 8.98552 8.17836 9.9654 8.18233C10.0957 8.18233 10.1331 8.16194 10.0957 8.0192C10.0152 7.71334 10.0991 7.43807 10.3171 7.20924C10.4944 7.02403 10.6745 6.84164 10.8603 6.66493C11.2098 6.33245 11.672 6.30922 12.0469 6.60998C12.1302 6.67682 12.2072 6.69948 12.3109 6.69948C13.766 6.69608 15.2211 6.69551 16.6756 6.69948C16.7951 6.69948 16.8835 6.67229 16.9792 6.59582C17.327 6.31829 17.7897 6.33528 18.1143 6.63434C18.3193 6.82295 18.5142 7.02289 18.7062 7.22567C18.9118 7.4426 18.9911 7.71108 18.9186 7.99655C18.8761 8.16477 18.9186 8.18233 19.0664 8.18176C20.0163 8.17666 20.9661 8.18176 21.916 8.17836C22.5379 8.1761 22.9242 7.78924 22.9338 7.16393C22.9389 6.81729 22.9225 6.46952 22.9401 6.12401C22.9497 5.93086 22.8885 5.89178 22.7039 5.89235C20.8568 5.89971 19.0098 5.89461 17.1627 5.89914C16.9033 5.89971 16.7226 5.81928 16.6716 5.54457C16.7175 5.29309 16.8778 5.19907 17.1219 5.19963C19.4805 5.20133 21.8384 5.1951 24.1969 5.2036C25.1474 5.207 25.8859 5.80739 26.0485 6.67059C26.0349 6.72496 26.0406 6.77424 26.0882 6.81219V14.4145C26.0372 14.4502 26.0355 14.5006 26.0474 14.555C25.891 15.3519 25.1972 15.9585 24.3946 16.0016C24.3493 16.0038 24.304 16.0118 24.2592 16.0078C23.8854 15.9721 23.5948 15.9823 23.4447 16.4592C23.319 16.858 22.9083 17.029 22.4779 17.0358C21.9664 17.0438 21.4544 17.0341 20.9423 17.0392C20.6909 17.0415 20.5436 16.935 20.5153 16.6796C20.5646 16.4417 20.7107 16.3482 20.952 16.3533C21.434 16.3629 21.9166 16.3556 22.3991 16.3561C22.5991 16.3561 22.7696 16.2995 22.8755 16.1148C23.0143 15.8724 22.9542 15.7614 22.6846 15.7614C17.2352 15.7614 11.7853 15.7614 6.33587 15.7614C6.29792 15.7614 6.25997 15.7659 6.22315 15.7608C6.08098 15.741 6.06286 15.8124 6.07645 15.9336C6.10874 16.2111 6.30358 16.3567 6.66438 16.3567C10.8252 16.3567 14.9855 16.3578 19.1463 16.3544C19.3932 16.3544 19.579 16.4054 19.6249 16.6807C19.6034 16.9271 19.4646 17.0387 19.2222 17.0387C14.986 17.0387 10.7499 17.0392 6.51315 17.0364C6.00792 17.0364 5.55479 16.696 5.43415 16.2021C5.38884 16.0169 5.30557 16.0055 5.15887 16.0078C4.75333 16.0135 4.34552 16.0339 3.96659 15.8367C3.30106 15.4912 2.92837 14.9537 2.92157 14.1987C2.91081 12.8948 2.92214 11.5904 2.91477 10.2865C2.91364 10.0441 3.0054 9.90137 3.23536 9.84133C3.5061 9.88495 3.60352 10.0435 3.60126 10.3154C3.59276 11.5972 3.59559 12.8795 3.59843 14.1613C3.59956 14.726 3.96093 15.1893 4.50637 15.2987C4.71708 15.3411 4.94307 15.3038 5.15944 15.3264C5.35542 15.3468 5.39167 15.2743 5.38997 15.0914C5.38487 14.6167 5.33446 14.137 5.42225 13.6685C5.57179 12.8682 6.26393 12.3482 7.14979 12.3454C8.4395 12.3409 9.72864 12.3426 11.0183 12.3471C11.1565 12.3471 11.2557 12.3109 11.3537 12.21C11.7637 11.7886 12.18 11.3729 12.6015 10.9628C12.7006 10.8665 12.7062 10.8189 12.6037 10.7187C12.0277 10.154 11.4579 9.58248 10.892 9.00702C10.7884 8.90166 10.683 8.86088 10.5363 8.86145C9.38993 8.86655 8.24409 8.86768 7.09768 8.86315C6.25204 8.85975 5.59614 8.35565 5.42395 7.56778C5.34805 7.22 5.38657 6.86147 5.38487 6.50746C5.38204 5.87762 5.3843 5.87762 4.7437 5.89745C4.07591 5.91784 3.60182 6.39928 3.59729 7.06651C3.59389 7.54909 3.59729 8.03166 3.59673 8.51424C3.59673 8.80934 3.5197 8.90223 3.23423 8.95831L3.23706 8.95887ZM17.4442 14.4666L17.4408 14.4643C17.4765 14.5238 17.5264 14.5142 17.5785 14.4927C17.7931 14.3216 17.9863 14.1285 18.1579 13.9132C18.1806 13.8606 18.1896 13.8113 18.1296 13.7756L18.1318 13.779L18.0826 13.7263C17.2545 12.8926 16.4264 12.0588 15.5977 11.2256C15.2868 10.913 15.2868 10.7674 15.5977 10.4542C16.4264 9.621 17.2545 8.78725 18.0826 7.9535C18.099 7.93594 18.1154 7.91838 18.1318 7.90082L18.1296 7.90422C18.1896 7.86911 18.1806 7.81926 18.1579 7.76659C17.9868 7.55135 17.7931 7.35877 17.5785 7.18715C17.5264 7.16506 17.4765 7.156 17.4403 7.21491L17.4437 7.21264C17.4261 7.22907 17.4085 7.24549 17.391 7.26192C16.5578 8.08944 15.7246 8.91752 14.892 9.74561C14.5867 10.0492 14.423 10.0492 14.1172 9.74561C13.2845 8.91752 12.4514 8.09 11.6182 7.26192C11.6006 7.24549 11.5831 7.22907 11.5655 7.21264L11.5689 7.21491C11.5332 7.156 11.4834 7.16506 11.4313 7.18659C11.2166 7.35821 11.024 7.55135 10.8518 7.76602C10.8292 7.8187 10.8201 7.86797 10.8801 7.90366L10.8779 7.90026C10.8943 7.91782 10.9107 7.93538 10.9272 7.95293C11.7552 8.78668 12.5833 9.62043 13.412 10.4536C13.7224 10.7657 13.7224 10.913 13.412 11.2256C12.5833 12.0588 11.7552 12.8926 10.9272 13.7263C10.9107 13.7439 10.8943 13.7614 10.8779 13.7784L10.8801 13.775C10.8201 13.8101 10.8292 13.86 10.8518 13.9127C11.0229 14.1279 11.2166 14.3205 11.4313 14.4921C11.4839 14.5142 11.5332 14.5232 11.5695 14.4643L11.5661 14.4666C11.5836 14.4502 11.6012 14.4338 11.6187 14.4173C12.4468 13.5943 13.2749 12.7719 14.1024 11.9489C14.4338 11.6193 14.5759 11.6193 14.9073 11.9489C15.7348 12.7719 16.5629 13.5943 17.391 14.4173C17.4085 14.4338 17.4261 14.4502 17.4437 14.4666H17.4442ZM23.6367 15.0494C23.5722 15.2652 23.6452 15.3525 23.8741 15.3253C24.0077 15.3094 24.1454 15.3236 24.2807 15.3219C24.9004 15.3128 25.4056 14.8268 25.4073 14.2032C25.4136 11.8062 25.4124 9.4086 25.4073 7.01157C25.4062 6.51709 25.0782 6.10305 24.6087 5.94842C24.3725 5.87082 24.1295 5.91897 23.8916 5.89405C23.66 5.86969 23.5665 5.94389 23.6367 6.17838C23.6141 6.53125 23.6124 6.88356 23.6373 7.23643C23.6316 7.27495 23.626 7.31346 23.6198 7.35198C23.4742 8.3126 22.8364 8.86258 21.8611 8.86428C20.7237 8.86598 19.5864 8.86655 18.449 8.86202C18.3182 8.86202 18.2247 8.89827 18.133 8.99116C17.5615 9.57002 16.9871 10.1461 16.4071 10.7164C16.3103 10.8116 16.299 10.8597 16.4037 10.9606C16.8155 11.3582 17.2205 11.7631 17.6181 12.1749C17.7371 12.2978 17.856 12.3494 18.0293 12.3482C19.2873 12.3409 20.5453 12.342 21.8033 12.3471C21.9902 12.3477 22.1839 12.3562 22.3618 12.4049C23.1304 12.6156 23.5342 13.1423 23.6271 13.9223C23.6305 13.9449 23.6339 13.967 23.6373 13.9897C23.6152 14.3431 23.6141 14.6966 23.6373 15.0494H23.6367ZM18.0769 14.9985C18.0973 15.0256 18.1177 15.0528 18.1381 15.08H22.3986C22.9531 15.08 22.9469 15.08 22.9446 14.5255C22.944 14.3703 22.8919 14.3403 22.7498 14.3409C21.4844 14.346 20.2185 14.3437 18.9526 14.3437C18.8857 14.3437 18.8195 14.3363 18.7617 14.3884C18.5346 14.5935 18.3052 14.7951 18.0769 14.9985ZM10.9492 15.08C10.7136 14.8523 10.5159 14.6813 10.3438 14.4876C10.2418 14.3726 10.1365 14.3409 9.99202 14.3414C8.85468 14.346 7.71677 14.3437 6.57942 14.3437C6.06682 14.3437 6.07589 14.3437 6.06569 14.8625C6.06229 15.0477 6.12233 15.084 6.29452 15.0834C7.77114 15.0772 9.24776 15.0795 10.7244 15.0795H10.9498L10.9492 15.08ZM16.8971 15.0772L16.9435 15.0223C16.7583 14.8501 16.5646 14.6858 16.3918 14.5023C16.2786 14.3816 16.1607 14.3392 15.9971 14.3409C15.071 14.3482 14.1426 14.3862 13.22 14.3295C12.6088 14.2922 12.4457 14.7781 12.1121 15.0778H16.8976L16.8971 15.0772ZM10.5216 13.0268C9.50094 13.0268 8.53069 13.0262 7.55987 13.0268C7.32708 13.0268 7.09202 13.0087 6.86149 13.0546C6.52165 13.122 6.28376 13.3128 6.13932 13.6623C7.44376 13.6623 8.72214 13.6623 10.0011 13.6623C10.0464 13.6623 10.0957 13.6572 10.1093 13.6023C10.1676 13.374 10.3455 13.2279 10.5216 13.0268ZM18.483 13.0274C18.6405 13.2018 18.8019 13.3174 18.8557 13.5014C18.8993 13.6504 18.9894 13.6668 19.1231 13.6657C20.1998 13.6612 21.2765 13.6629 22.3533 13.6629C22.517 13.6629 22.6807 13.6629 22.8506 13.6629C22.7243 13.2664 22.4054 13.0353 21.9239 13.0302C20.7957 13.0189 19.6674 13.0268 18.4836 13.0268L18.483 13.0274ZM12.8122 7.39332C13.0801 7.65047 13.3004 7.85325 13.5094 8.06678C13.5966 8.15571 13.6873 8.18459 13.8073 8.18289C14.2735 8.17723 14.7402 8.18176 15.2069 8.1795C15.2726 8.1795 15.361 8.18799 15.4001 8.15118C15.6527 7.91385 15.894 7.66463 16.1658 7.39332H12.8127H12.8122ZM15.4907 13.6527C15.1803 13.1503 14.7532 12.8965 14.184 13.0364C13.8736 13.1123 13.7371 13.4346 13.463 13.6527H15.4907ZM14.3279 8.86485C14.3924 8.94188 14.4258 9.03987 14.5108 9.03194C14.5782 9.02514 14.6479 8.95887 14.6507 8.86485H14.3279Z" fill="#0F0E0E"/>
<path d="M26.0486 14.5555C26.0367 14.5011 26.0378 14.4513 26.0893 14.415V14.551H26.0684L26.0486 14.5555Z" fill="#7C7979"/>
<path d="M26.0893 6.81274C26.0417 6.77536 26.036 6.72608 26.0496 6.67114C26.0632 6.67114 26.0763 6.67341 26.0893 6.67681V6.81274Z" fill="#7C7979"/>
<path d="M3.23706 8.95896C3.52253 8.90289 3.59956 8.81 3.59956 8.5149C3.60013 8.03232 3.59729 7.54974 3.60013 7.06716C3.60466 6.39994 4.07874 5.91849 4.74653 5.8981C5.38714 5.87828 5.38544 5.87828 5.38771 6.50812C5.3894 6.86213 5.35089 7.22066 5.42679 7.56843C5.59897 8.35631 6.25487 8.86041 7.10052 8.86381C8.24692 8.86834 9.39276 8.86777 10.5392 8.86211C10.6859 8.86154 10.7912 8.90232 10.8949 9.00767C11.4607 9.58314 12.0305 10.1541 12.6066 10.7194C12.7091 10.8196 12.7034 10.8672 12.6043 10.9635C12.1823 11.373 11.7666 11.7893 11.3565 12.2107C11.2585 12.3115 11.16 12.3483 11.0212 12.3478C9.73147 12.3432 8.44233 12.3415 7.15263 12.3461C6.26677 12.3489 5.57462 12.8689 5.42509 13.6692C5.33786 14.137 5.3877 14.6174 5.3928 15.092C5.39507 15.275 5.35825 15.348 5.16228 15.3271C4.94591 15.3044 4.72048 15.3412 4.50921 15.2993C3.96376 15.19 3.60239 14.7267 3.60126 14.162C3.59843 12.8802 3.5956 11.5978 3.60409 10.3161C3.60579 10.0442 3.50837 9.8856 3.23819 9.84199C3.23819 9.54802 3.23819 9.25349 3.23763 8.95953L3.23706 8.95896Z" fill="#F7F1F0"/>
<path d="M16.6722 5.54565C16.7231 5.82036 16.9032 5.90079 17.1632 5.90022C19.0103 5.89626 20.8573 5.90079 22.7044 5.89343C22.889 5.89286 22.9502 5.93194 22.9406 6.12509C22.923 6.47116 22.94 6.81837 22.9343 7.16501C22.9247 7.79089 22.5379 8.17718 21.9165 8.17944C20.9666 8.18284 20.0168 8.17831 19.0669 8.18284C18.9191 8.18341 18.8766 8.16585 18.9191 7.99763C18.9916 7.71216 18.9123 7.44368 18.7067 7.22675C18.5147 7.02454 18.3198 6.82403 18.1148 6.63542C17.7902 6.33636 17.3275 6.31937 16.9797 6.5969C16.8834 6.67337 16.7956 6.70056 16.6761 6.70056C15.221 6.69659 13.7659 6.69659 12.3114 6.70056C12.2077 6.70056 12.1313 6.6779 12.0475 6.61106C11.6725 6.3103 11.2103 6.33353 10.8608 6.66601C10.675 6.84272 10.4944 7.02454 10.3176 7.21032C10.099 7.43858 10.0158 7.71442 10.0962 8.02028C10.1336 8.16358 10.0962 8.18397 9.96591 8.18341C8.98602 8.17944 8.00558 8.18681 7.02569 8.17831C6.48534 8.17378 6.09452 7.78013 6.0781 7.23411C6.0662 6.84216 6.08036 6.4502 6.0713 6.05825C6.06847 5.92685 6.11095 5.89456 6.23726 5.89569C6.76515 5.90192 7.29247 5.89853 7.82036 5.89853C10.308 5.89853 12.7962 5.89853 15.2839 5.89853C15.6311 5.89853 15.7206 5.83509 15.7886 5.54565C16.0831 5.54565 16.3782 5.54622 16.6727 5.54679L16.6722 5.54565Z" fill="#EFE1DC"/>
<path d="M19.6266 16.6796C19.5801 16.4043 19.3949 16.3527 19.148 16.3533C14.9872 16.3573 10.8269 16.3561 6.66608 16.3556C6.30528 16.3556 6.10987 16.21 6.07815 15.9325C6.06399 15.8118 6.08268 15.7405 6.22485 15.7597C6.26166 15.7648 6.30018 15.7603 6.33756 15.7603C11.787 15.7603 17.2369 15.7603 22.6863 15.7603C22.9559 15.7603 23.016 15.8713 22.8772 16.1137C22.7718 16.2984 22.6008 16.355 22.4008 16.355C21.9183 16.355 21.4357 16.3618 20.9537 16.3522C20.7124 16.3471 20.5663 16.4405 20.517 16.6784C20.2202 16.6784 19.924 16.6784 19.6272 16.6784L19.6266 16.6796Z" fill="#C6E6F4"/>
<path d="M13.7059 23.3871C13.7269 23.0512 13.8515 22.7595 14.0786 22.5125C14.1602 22.4236 14.2468 22.3398 14.3307 22.2531C14.7169 21.8538 14.7186 21.4851 14.329 21.0925C14.0514 20.8127 13.7886 20.5312 13.7269 20.1138C13.6578 19.6476 13.7812 19.2483 14.103 18.913C14.3533 18.6525 14.6156 18.4151 14.6371 18.0079C14.6478 17.8063 14.8308 17.7281 15.0268 17.7649C15.2443 17.8051 15.3151 17.9688 15.3026 18.1682C15.2822 18.5018 15.1604 18.7963 14.9299 19.0422C14.8064 19.1741 14.6733 19.2982 14.5589 19.4375C14.3341 19.7105 14.3414 20.0798 14.5731 20.3472C14.6767 20.4667 14.794 20.5743 14.9005 20.691C15.4459 21.288 15.4425 22.0685 14.892 22.6609C14.8302 22.7272 14.7691 22.7935 14.7039 22.8563C14.5312 23.0223 14.4066 23.2035 14.3969 23.4607C14.389 23.6759 14.2542 23.8079 14.0271 23.8011C13.8254 23.7949 13.6923 23.6159 13.7059 23.3882V23.3871Z" fill="#0F0E0E"/>
<path d="M10.7051 23.2662C10.7141 23.017 10.8586 22.7049 11.1214 22.4613C11.8135 21.819 11.7218 21.4633 11.1197 20.872C10.5363 20.2994 10.5487 19.4888 11.1106 18.8913C11.3519 18.6341 11.6181 18.4081 11.626 18.0015C11.6294 17.8253 11.8067 17.7324 11.9999 17.7613C12.1806 17.7885 12.2774 17.9012 12.287 18.083C12.3063 18.458 12.1619 18.7729 11.9177 19.0471C11.8175 19.1598 11.7065 19.2623 11.604 19.3727C11.3123 19.6865 11.3083 20.0649 11.5949 20.3849C11.6855 20.4863 11.7846 20.5792 11.8781 20.6777C12.4326 21.2611 12.4394 22.0547 11.8974 22.6494C11.7558 22.8052 11.5847 22.9343 11.4754 23.1189C11.421 23.2113 11.3967 23.3132 11.3853 23.4191C11.3564 23.6831 11.2228 23.8213 11.0143 23.802C10.811 23.7833 10.7017 23.6355 10.7056 23.2668L10.7051 23.2662Z" fill="#0F0E0E"/>
<path d="M18.3062 21.6662C18.3221 22.0768 18.1522 22.411 17.8701 22.6937C17.6294 22.935 17.3921 23.1638 17.3853 23.5495C17.3824 23.7189 17.2148 23.8152 17.0364 23.7987C16.8506 23.7817 16.7333 23.6724 16.7226 23.4764C16.7022 23.0924 16.8506 22.7724 17.1043 22.4949C17.2159 22.3725 17.3377 22.2587 17.4464 22.1335C17.6832 21.8605 17.6894 21.507 17.4606 21.2272C17.3558 21.0992 17.2346 20.9848 17.1213 20.8642C16.5861 20.2927 16.5713 19.5071 17.097 18.9282C17.3485 18.6512 17.6407 18.4156 17.6515 17.9846C17.6554 17.8214 17.8327 17.7342 18.0151 17.7608C18.1958 17.7875 18.2955 17.8968 18.3057 18.0792C18.3272 18.4632 18.1771 18.7832 17.9245 19.0607C17.8231 19.1723 17.7115 19.2748 17.6101 19.3864C17.3371 19.686 17.3309 20.0565 17.5965 20.3646C17.7444 20.5357 17.9126 20.6897 18.0514 20.867C18.24 21.1083 18.3062 21.3507 18.3068 21.6668L18.3062 21.6662Z" fill="#0F0E0E"/>
<path d="M23.6374 7.23651C23.6124 6.88421 23.6141 6.53134 23.6368 6.17847C23.715 6.17847 23.7569 6.22378 23.7914 6.28948C23.9194 6.5319 24.0084 6.78339 24.0084 7.06263C24.0072 9.42284 24.0067 11.7831 24.0089 14.1433C24.0089 14.4225 23.9285 14.6751 23.8016 14.9187C23.7654 14.9889 23.7274 15.0512 23.6362 15.0495C23.613 14.6961 23.6136 14.3426 23.6362 13.9898C23.6328 13.9671 23.6294 13.945 23.626 13.9224C23.5331 13.1424 23.1293 12.6162 22.3607 12.405C22.1823 12.3563 21.9886 12.3478 21.8022 12.3472C20.5442 12.3427 19.2862 12.3415 18.0282 12.3483C17.8555 12.3495 17.736 12.2979 17.617 12.175C17.2194 11.7632 16.8144 11.3583 16.4027 10.9606C16.2984 10.8598 16.3092 10.8122 16.4061 10.7165C16.9861 10.1461 17.5604 9.57011 18.1319 8.99124C18.2237 8.89835 18.3177 8.86153 18.4479 8.8621C19.5853 8.86663 20.7226 8.86606 21.86 8.86437C22.8353 8.86267 23.4731 8.31212 23.6187 7.35206C23.6243 7.31354 23.63 7.27503 23.6362 7.23651H23.6374ZM21.8424 11.9473C22.4043 11.9411 22.8569 11.484 22.8546 10.9255C22.8518 10.3687 22.3918 9.90655 21.8373 9.90372C21.2788 9.90089 20.7985 10.3874 20.811 10.9425C20.8235 11.5027 21.2868 11.9535 21.843 11.9473H21.8424ZM19.3967 11.9473C19.9546 11.945 20.4151 11.4857 20.4162 10.9306C20.4173 10.3784 19.9552 9.91108 19.4006 9.90429C18.8422 9.89749 18.3653 10.3767 18.372 10.938C18.3788 11.4982 18.8376 11.9501 19.3967 11.9479V11.9473Z" fill="#F5F0EE"/>
<path d="M10.9277 13.727C11.7558 12.8932 12.5839 12.0595 13.4126 11.2263C13.723 10.9136 13.723 10.7669 13.4126 10.4543C12.5839 9.6211 11.7558 8.78735 10.9277 7.9536C10.9113 7.93604 10.8949 7.91849 10.8785 7.90093L10.8807 7.90433C10.8836 7.85618 10.8938 7.80577 10.8524 7.76669C11.024 7.55202 11.2172 7.35888 11.4319 7.18726C11.4709 7.22917 11.5213 7.21841 11.5695 7.21558L11.5661 7.21331C11.5836 7.22974 11.6012 7.24616 11.6188 7.26259C12.4519 8.09067 13.2851 8.91819 14.1177 9.74628C14.423 10.0499 14.5867 10.0504 14.8926 9.74628C15.7252 8.91819 16.5584 8.09067 17.3916 7.26259C17.4091 7.24616 17.4267 7.22974 17.4443 7.21331L17.4409 7.21558C17.4896 7.21841 17.5394 7.22917 17.5791 7.18726C17.7937 7.35888 17.9874 7.55145 18.1585 7.76669C18.1166 7.80577 18.1273 7.85562 18.1302 7.90433L18.1324 7.90093C18.116 7.91849 18.0996 7.93604 18.0832 7.9536C17.2551 8.78735 16.427 9.6211 15.5983 10.4543C15.2874 10.7675 15.2874 10.9125 15.5983 11.2257C16.427 12.0589 17.2551 12.8927 18.0832 13.7264C18.0996 13.744 18.116 13.7615 18.1324 13.7791L18.1302 13.7757C18.1273 13.8238 18.1171 13.8742 18.1585 13.9133C17.9874 14.128 17.7943 14.3211 17.5791 14.4928C17.54 14.4508 17.4901 14.4616 17.4414 14.4644L17.4448 14.4667C17.4273 14.4503 17.4097 14.4339 17.3921 14.4174C16.5641 13.5944 15.736 12.772 14.9085 11.949C14.5771 11.6194 14.4349 11.6194 14.1036 11.949C13.2761 12.772 12.448 13.5944 11.6199 14.4174C11.6023 14.4339 11.5848 14.4503 11.5672 14.4667L11.5706 14.4644C11.5219 14.461 11.4721 14.4508 11.4324 14.4922C11.2183 14.32 11.0246 14.1274 10.853 13.9128C10.8949 13.8737 10.8841 13.8238 10.8813 13.7751L10.879 13.7785C10.8955 13.761 10.9119 13.7434 10.9283 13.7264L10.9277 13.727Z" fill="#EE4538"/>
<path d="M23.6368 15.0495C23.728 15.0512 23.7654 14.9889 23.8022 14.9187C23.9291 14.6751 24.0095 14.4225 24.0095 14.1433C24.0072 11.7831 24.0078 9.42285 24.0089 7.06264C24.0089 6.7834 23.92 6.53191 23.792 6.28949C23.7574 6.22379 23.7155 6.17904 23.6374 6.17848C23.5671 5.94398 23.6606 5.87035 23.8922 5.89414C24.1301 5.91906 24.3731 5.87092 24.6093 5.94852C25.0789 6.10314 25.4068 6.51719 25.4079 7.01166C25.413 9.40869 25.4142 11.8063 25.4079 14.2033C25.4062 14.8269 24.901 15.3129 24.2814 15.322C24.1454 15.3237 24.0084 15.3095 23.8747 15.3254C23.6459 15.3526 23.5728 15.2648 23.6374 15.0495H23.6368Z" fill="#F1E8E3"/>
<path d="M18.0769 14.9984C18.3052 14.7951 18.5346 14.5934 18.7617 14.3884C18.8195 14.3363 18.8857 14.3437 18.9526 14.3437C20.2185 14.3437 21.4838 14.3454 22.7498 14.3408C22.8919 14.3408 22.944 14.3703 22.9446 14.5255C22.9469 15.08 22.9531 15.08 22.3986 15.08H18.1381C18.1177 15.0528 18.0973 15.0256 18.0769 14.9984Z" fill="#BDDAE7"/>
<path d="M10.9492 15.0801H10.7238C9.24715 15.0801 7.77053 15.0772 6.29391 15.084C6.12172 15.0846 6.06168 15.0483 6.06508 14.8631C6.07527 14.3443 6.06621 14.3443 6.57881 14.3443C7.71615 14.3443 8.85406 14.346 9.99141 14.342C10.1358 14.342 10.2412 14.3738 10.3431 14.4882C10.5153 14.6819 10.713 14.8529 10.9486 15.0806L10.9492 15.0801Z" fill="#BDDAE7"/>
<path d="M16.8971 15.0772H12.1116C12.4458 14.7775 12.6089 14.2916 13.2195 14.3289C14.1421 14.3856 15.0705 14.3476 15.9966 14.3403C16.1602 14.3391 16.2781 14.3816 16.3913 14.5017C16.5641 14.6852 16.7584 14.8495 16.943 15.0217L16.8966 15.0766L16.8971 15.0772Z" fill="#BEDBE8"/>
<path d="M10.5216 13.0267C10.3454 13.2284 10.1676 13.3739 10.1092 13.6022C10.0956 13.6566 10.0464 13.6617 10.001 13.6622C8.72266 13.6622 7.44428 13.6622 6.13928 13.6622C6.28372 13.3133 6.52161 13.1219 6.86145 13.0545C7.09254 13.0086 7.32704 13.0273 7.55983 13.0267C8.53008 13.0256 9.5009 13.0267 10.5216 13.0267Z" fill="#C3E1EE"/>
<path d="M18.483 13.0274C19.6668 13.0274 20.7951 13.02 21.9233 13.0308C22.4054 13.0353 22.7237 13.267 22.85 13.6634C22.6801 13.6634 22.5164 13.6634 22.3527 13.6634C21.2759 13.6634 20.1992 13.6612 19.1225 13.6663C18.9888 13.6668 18.8987 13.651 18.8551 13.502C18.8013 13.3179 18.6399 13.2024 18.4824 13.0279L18.483 13.0274Z" fill="#C3E1EE"/>
<path d="M12.8122 7.39331H16.1653C15.894 7.66462 15.6522 7.91327 15.3996 8.15116C15.3605 8.18798 15.2721 8.17948 15.2064 8.17948C14.7397 8.18175 14.2735 8.17722 13.8068 8.18288C13.6862 8.18458 13.5956 8.15569 13.5089 8.06677C13.2999 7.85323 13.0796 7.65046 12.8116 7.39331H12.8122Z" fill="#EFE1DC"/>
<path d="M15.4907 13.6527H13.463C13.7372 13.4347 13.8737 13.1124 14.184 13.0365C14.7533 12.8971 15.1804 13.1503 15.4907 13.6527Z" fill="#C6E6F4"/>
<path d="M14.3279 8.86475H14.6507C14.6479 8.9582 14.5782 9.02504 14.5108 9.03184C14.4259 9.03977 14.3925 8.94234 14.3279 8.86475Z" fill="#CDC7C6"/>
<path d="M18.129 7.90473C18.1262 7.85658 18.116 7.80617 18.1574 7.76709C18.1795 7.81977 18.1885 7.86904 18.129 7.90473Z" fill="#F04F42"/>
<path d="M10.8808 13.7756C10.8836 13.8238 10.8943 13.8742 10.8524 13.9133C10.8303 13.8606 10.8213 13.8113 10.8808 13.7756Z" fill="#F04F42"/>
<path d="M18.1574 13.9133C18.116 13.8742 18.1262 13.8238 18.129 13.7756C18.1891 13.8113 18.1795 13.8606 18.1574 13.9133Z" fill="#F04F42"/>
<path d="M10.853 7.76709C10.8943 7.80674 10.8841 7.85658 10.8813 7.90473C10.8213 7.86904 10.8303 7.8192 10.853 7.76709Z" fill="#F04F42"/>
<path d="M11.4319 14.4927C11.4715 14.4508 11.5214 14.4616 11.5701 14.465C11.5338 14.5239 11.4846 14.5148 11.4319 14.4927Z" fill="#F04F42"/>
<path d="M17.5785 7.18777C17.5389 7.22912 17.489 7.21892 17.4403 7.21609C17.476 7.15662 17.5258 7.16625 17.5785 7.18777Z" fill="#F04F42"/>
<path d="M11.5695 7.21608C11.5208 7.21892 11.471 7.22968 11.4319 7.18776C11.484 7.16567 11.5338 7.15661 11.5695 7.21608Z" fill="#F04F42"/>
<path d="M17.4403 14.4643C17.4885 14.4614 17.5389 14.4507 17.5779 14.4926C17.5258 14.5147 17.476 14.5237 17.4403 14.4643Z" fill="#F04F42"/>
<path d="M23.6373 7.23633C23.6316 7.27484 23.626 7.31336 23.6198 7.35188C23.6254 7.31336 23.6311 7.27484 23.6373 7.23633Z" fill="#F1E8E3"/>
<path d="M10.9277 13.7268C10.9113 13.7444 10.8948 13.7619 10.8784 13.7789C10.8948 13.7614 10.9113 13.7438 10.9277 13.7268Z" fill="#F04F42"/>
<path d="M21.8424 11.9472C21.2862 11.9534 20.8229 11.5025 20.8104 10.9424C20.798 10.3873 21.2783 9.90131 21.8367 9.90357C22.3913 9.9064 22.8517 10.368 22.854 10.9254C22.8568 11.4838 22.4037 11.9409 21.8418 11.9472H21.8424ZM22.1658 10.9322C22.1528 10.7215 22.0446 10.602 21.839 10.6003C21.6345 10.598 21.5156 10.7107 21.5054 10.9186C21.4952 11.1196 21.6396 11.2641 21.8413 11.2573C22.0508 11.2499 22.1511 11.1304 22.1664 10.9327L22.1658 10.9322Z" fill="#0D0909"/>
<path d="M19.3967 11.9472C18.8376 11.9495 18.3794 11.4981 18.372 10.9373C18.3652 10.376 18.8416 9.89684 19.4006 9.90364C19.9551 9.91043 20.4173 10.3777 20.4162 10.93C20.415 11.4856 19.9546 11.9444 19.3967 11.9467V11.9472ZM19.7286 10.9419C19.728 10.7363 19.57 10.576 19.3814 10.5924C19.1831 10.6094 19.0647 10.7204 19.0613 10.9283C19.0579 11.1282 19.2029 11.2681 19.4046 11.259C19.6136 11.2494 19.7104 11.1259 19.728 10.9419H19.7286Z" fill="#080B0A"/>
<path d="M22.1658 10.9321C22.151 11.1304 22.0502 11.2499 21.8407 11.2567C21.639 11.2635 21.4946 11.119 21.5048 10.918C21.5155 10.7101 21.6339 10.5974 21.8384 10.5996C22.0446 10.6019 22.1522 10.7214 22.1652 10.9316L22.1658 10.9321Z" fill="#EE7C85"/>
<path d="M19.7285 10.9419C19.7109 11.126 19.6141 11.2495 19.4051 11.2591C19.2034 11.2682 19.0579 11.1283 19.0618 10.9283C19.0652 10.721 19.1836 10.61 19.3819 10.5925C19.5705 10.576 19.7285 10.7363 19.7291 10.9419H19.7285Z" fill="#70C3B2"/>
</svg>
