<svg width="16" height="16" viewBox="0 0 16 16" fill="none" xmlns="http://www.w3.org/2000/svg">
<path d="M11.3812 8.65906C11.7309 8.72344 12.0506 8.84063 12.335 9.04031C12.9662 9.48375 13.3169 10.0891 13.3722 10.8612C13.4547 12.0172 12.6522 13.0994 11.4656 13.3325C11.2915 13.3669 11.11 13.3666 10.9315 13.3744C10.7565 13.3822 10.5812 13.3816 10.4062 13.3816C8.14499 13.3819 5.88374 13.3813 3.6228 13.3828C3.36936 13.3828 3.1353 13.3347 2.94155 13.1591C2.76967 13.0034 2.66749 12.8125 2.6503 12.5794C2.64561 12.5172 2.64217 12.455 2.64217 12.3925C2.64186 9.4725 2.64124 6.5525 2.64342 3.63219C2.64342 3.5125 2.65186 3.38906 2.68217 3.27406C2.77217 2.93219 3.08092 2.68219 3.43374 2.65062C3.49561 2.645 3.55811 2.64156 3.62061 2.64156C5.88186 2.64125 8.14311 2.64156 10.404 2.64062C10.6356 2.64062 10.8553 2.67625 11.0409 2.82531C11.2634 3.00375 11.3819 3.235 11.3819 3.52375C11.3815 5.18469 11.3819 6.84531 11.3819 8.50625C11.3819 8.55281 11.3819 8.59937 11.3819 8.65906H11.3812ZM10.6256 8.655C10.6272 8.62969 10.63 8.60281 10.63 8.57625C10.63 6.91219 10.6303 5.24813 10.63 3.58375C10.63 3.43969 10.5931 3.40281 10.4519 3.4025C8.1603 3.4025 5.86874 3.4025 3.57717 3.4025C3.42999 3.4025 3.40249 3.43125 3.40249 3.58219C3.40249 6.53625 3.40249 9.49031 3.40249 12.4447C3.40249 12.5931 3.43092 12.6209 3.58061 12.6209C5.43561 12.6209 7.29092 12.6209 9.14592 12.6209C9.17749 12.6209 9.20936 12.6159 9.24967 12.6125C8.0053 11.1916 8.74155 9.0075 10.6256 8.655ZM11.0144 9.3925C10.1515 9.37313 9.38811 10.0913 9.39061 11.0031C9.39311 11.9031 10.1084 12.62 11.009 12.6203C11.9053 12.6206 12.6206 11.8991 12.6212 10.9966C12.6219 10.0934 11.8644 9.38031 11.0147 9.3925H11.0144Z" fill="black"/>
<path d="M7.01844 6.63279C7.75469 6.63279 8.49094 6.63217 9.22719 6.63311C9.45312 6.63342 9.61719 6.77717 9.63437 6.98373C9.65062 7.18029 9.51656 7.35248 9.32094 7.38311C9.27125 7.39092 9.22031 7.39311 9.16969 7.39311C7.73219 7.39373 6.295 7.39404 4.8575 7.39217C4.78094 7.39217 4.69969 7.38592 4.62875 7.36061C4.46844 7.30342 4.36844 7.13061 4.39 6.97248C4.41437 6.79061 4.55594 6.65342 4.74 6.63467C4.77875 6.63092 4.81781 6.63279 4.85687 6.63279C5.5775 6.63279 6.29812 6.63279 7.01875 6.63279H7.01844Z" fill="black"/>
<path d="M7.00341 5.39316C6.26341 5.39316 5.52341 5.39347 4.78341 5.39316C4.58716 5.39316 4.44654 5.28441 4.39966 5.10003C4.34623 4.88972 4.50466 4.66378 4.7206 4.64378C4.74373 4.6416 4.76716 4.64253 4.7906 4.64253C6.2706 4.64253 7.7506 4.6416 9.23091 4.64503C9.30873 4.64503 9.39529 4.66597 9.46247 4.7041C9.60997 4.78785 9.66935 4.96972 9.62091 5.13128C9.57498 5.28378 9.4281 5.39285 9.25904 5.39285C8.50748 5.39378 7.7556 5.39316 7.00404 5.39316H7.00341Z" fill="black"/>
<path d="M6.38716 9.39059C5.85716 9.39059 5.32685 9.39152 4.79685 9.38996C4.59779 9.38934 4.45404 9.28277 4.40373 9.10465C4.34654 8.90184 4.47873 8.68246 4.6856 8.64308C4.74248 8.63215 4.80185 8.63027 4.85998 8.63027C5.88123 8.62965 6.90248 8.62934 7.92373 8.6309C7.99685 8.6309 8.07373 8.63558 8.14216 8.65808C8.3131 8.71371 8.41341 8.8959 8.38435 9.07683C8.35748 9.24496 8.20623 9.37965 8.02404 9.38902C7.90748 9.39496 7.79029 9.3909 7.67341 9.3909C7.24466 9.3909 6.81591 9.3909 6.38716 9.3909V9.39059Z" fill="black"/>
<path d="M6.14154 10.6303C6.59748 10.6303 7.0531 10.6294 7.50904 10.6307C7.70592 10.6313 7.85904 10.7647 7.88998 10.9575C7.91717 11.1272 7.80123 11.3088 7.62685 11.3638C7.58685 11.3763 7.5431 11.3803 7.50092 11.3807C6.5931 11.3816 5.68529 11.3819 4.77748 11.381C4.55592 11.381 4.38498 11.2116 4.3881 11.0013C4.39123 10.7932 4.55779 10.6313 4.77435 10.6307C5.23029 10.6294 5.68592 10.6303 6.14185 10.6303H6.14154Z" fill="black"/>
<path d="M10.7465 10.9737C10.7903 10.9318 10.8212 10.9034 10.8509 10.874C11.0606 10.6649 11.2668 10.4521 11.4803 10.2468C11.694 10.0415 12.0256 10.1215 12.1122 10.3956C12.1556 10.5328 12.1297 10.6618 12.029 10.764C11.6928 11.1056 11.355 11.4456 11.0122 11.7806C10.865 11.9243 10.645 11.9193 10.4953 11.7759C10.3209 11.609 10.1494 11.4384 9.98279 11.2634C9.83685 11.1099 9.84404 10.8824 9.98997 10.7374C10.1356 10.5928 10.3612 10.5887 10.5162 10.7334C10.5956 10.8074 10.6665 10.8899 10.7459 10.974L10.7465 10.9737Z" fill="black"/>
</svg>
