<svg width="17" height="17" viewBox="0 0 17 17" fill="none" xmlns="http://www.w3.org/2000/svg">
<path d="M15.5506 11.0019C15.5117 11.1038 15.4848 11.2127 15.4314 11.3063C15.2969 11.5404 15.091 11.6726 14.8181 11.6908C14.7633 11.6945 14.7082 11.6958 14.6531 11.6958C13.148 11.6958 11.6429 11.6955 10.1381 11.6968C9.94157 11.6968 9.75398 11.6749 9.58896 11.5567C9.35786 11.3913 9.25261 11.1596 9.25062 10.883C9.24597 10.3185 9.24364 9.75408 9.25062 9.18996C9.25693 8.69258 9.58796 8.37217 10.0903 8.36553C10.4067 8.36121 10.7235 8.36453 11.0403 8.36453C12.2515 8.36453 13.4631 8.3652 14.6743 8.36453C14.9556 8.36453 15.2069 8.44123 15.3733 8.67697C15.4553 8.79318 15.4931 8.94027 15.5509 9.07342V11.0019H15.5506ZM11.1578 10.5901V10.5938C11.1943 10.5938 11.2312 10.5945 11.2677 10.5938C11.531 10.5885 11.692 10.4268 11.697 10.1618C11.6984 10.0841 11.6997 10.0061 11.6964 9.9284C11.6871 9.71191 11.5466 9.55354 11.3325 9.53428C11.2103 9.52332 11.0851 9.52598 10.9632 9.53992C10.7952 9.55951 10.6621 9.68568 10.6425 9.85137C10.6266 9.98617 10.6259 10.126 10.6405 10.2611C10.6601 10.4371 10.8039 10.5679 10.9792 10.5895C11.0376 10.5968 11.098 10.5905 11.1575 10.5905L11.1578 10.5901Z" fill="black"/>
<path d="M14.7073 7.80208H10.0897C9.6189 7.80208 9.23341 7.97872 8.94886 8.35923C8.76956 8.59895 8.68622 8.87188 8.68556 9.16938C8.6839 9.76173 8.68124 10.3541 8.68656 10.9461C8.69187 11.5733 9.16999 12.1334 9.79023 12.2443C9.90245 12.2642 10.0183 12.2709 10.1322 12.2709C11.5968 12.2725 13.0614 12.2719 14.526 12.2719H14.7123C14.7172 12.324 14.7245 12.3635 14.7245 12.4034C14.7252 13.0874 14.7212 13.7717 14.7259 14.4557C14.7285 14.8531 14.4556 15.1513 14.1541 15.223C14.0525 15.2472 13.9456 15.2595 13.841 15.2595C10.0074 15.2612 6.17374 15.2608 2.34011 15.2615C1.99347 15.2615 1.69962 15.1539 1.5449 14.8259C1.48081 14.6904 1.45392 14.5257 1.45326 14.374C1.44695 12.7211 1.44927 11.0683 1.44927 9.41542C1.44927 8.18026 1.44927 6.94544 1.44927 5.71028C1.44927 5.39253 1.56482 5.13155 1.84837 4.97682C1.96492 4.91341 2.10802 4.89714 2.24017 4.8646C2.27902 4.85497 2.32251 4.86227 2.36369 4.86227C6.19267 4.86227 10.022 4.86294 13.851 4.86128C14.1435 4.86128 14.4021 4.93665 14.5702 5.18667C14.6439 5.29624 14.7106 5.43669 14.7129 5.56452C14.7272 6.28968 14.7212 7.01516 14.7216 7.74032C14.7216 7.75327 14.7152 7.76655 14.7066 7.80141L14.7073 7.80208Z" fill="black"/>
<path d="M13.0866 4.28951H6.67671C6.67539 4.28519 6.67406 4.28054 6.67273 4.27622C6.81218 4.23771 6.95164 4.19853 7.09109 4.16035C8.67355 3.72837 10.256 3.29706 11.8381 2.86376C12.1908 2.76714 12.4939 2.83488 12.726 3.12673C12.7871 3.20376 12.8332 3.29939 12.8621 3.39402C12.9438 3.6613 13.0132 3.93224 13.0856 4.20185C13.0922 4.22675 13.0866 4.25464 13.0866 4.28917V4.28951Z" fill="black"/>
<path d="M4.0494 4.27689C4.08825 4.25564 4.1261 4.23273 4.16562 4.21314C5.75239 3.42656 7.3395 2.64064 8.92595 1.85339C9.08101 1.77636 9.23938 1.72689 9.41503 1.7405C9.67069 1.76009 9.87655 1.87232 10.007 2.09046C10.1312 2.29831 10.2328 2.51945 10.351 2.74755C10.3055 2.76548 10.2747 2.78142 10.2415 2.79038C8.43255 3.28511 6.62497 3.78548 4.81241 4.26659C4.57302 4.33001 4.30739 4.29581 4.05405 4.30677C4.05239 4.29648 4.05073 4.28652 4.04907 4.27622V4.27689H4.0494Z" fill="black"/>
</svg>
