<svg width="15" height="15" viewBox="0 0 15 15" fill="none" xmlns="http://www.w3.org/2000/svg">
<path d="M4.56415 11.6715C4.529 11.6715 4.48505 11.6715 4.44081 11.6715C4.07138 11.6715 3.70165 11.6745 3.33222 11.671C2.53359 11.6636 1.87236 11.1571 1.67841 10.3968C1.64032 10.2474 1.62187 10.0892 1.62157 9.93482C1.61747 8.39937 1.61689 6.86363 1.62011 5.32818C1.62187 4.48853 2.15185 3.81968 2.95605 3.63511C3.05917 3.61138 3.16698 3.59761 3.27245 3.59761C4.72997 3.59498 6.18749 3.59527 7.64501 3.59586C7.93564 3.59586 8.11728 3.83668 8.01943 4.08629C7.96523 4.22457 7.83925 4.31246 7.68515 4.31392C7.47978 4.31597 7.2747 4.31451 7.06933 4.31451C5.82948 4.31451 4.58935 4.31363 3.3495 4.31509C2.89599 4.31568 2.52304 4.57701 2.39531 4.99039C2.36337 5.0941 2.35048 5.20777 2.35019 5.31675C2.34726 6.86041 2.35282 8.40435 2.34579 9.948C2.34345 10.4616 2.69999 10.8448 3.11689 10.9251C3.20068 10.9412 3.28798 10.9423 3.37382 10.9426C3.86659 10.9441 4.35907 10.9432 4.85185 10.9438C4.90488 10.9438 4.95907 10.9453 5.01093 10.9544C5.20312 10.9889 5.31503 11.1164 5.31562 11.3124C5.3162 11.5215 5.30741 11.731 5.30156 11.9402C5.29716 12.1002 5.29072 12.2601 5.28544 12.4201C5.28368 12.4781 5.28046 12.5346 5.3455 12.5683C5.41113 12.602 5.45566 12.5645 5.50107 12.5305C5.90156 12.2299 6.30146 11.9288 6.70165 11.6279C6.94775 11.443 7.19618 11.2614 7.43847 11.0715C7.55829 10.9775 7.68661 10.9412 7.8372 10.9418C8.58456 10.9453 9.33163 10.9438 10.079 10.9429C10.5038 10.9423 10.8135 10.7472 10.9819 10.3614C11.0437 10.2199 11.0666 10.0517 11.0678 9.89527C11.0754 8.97974 11.073 8.06421 11.0704 7.14869C11.0701 7.00074 11.1164 6.88209 11.2421 6.80328C11.4656 6.66324 11.7542 6.80709 11.7882 7.0731C11.7923 7.10562 11.7908 7.13873 11.7908 7.17154C11.7908 8.10347 11.7999 9.0357 11.7879 9.96763C11.7788 10.686 11.4346 11.2063 10.7886 11.5215C10.5562 11.6349 10.3046 11.6712 10.0476 11.6715C9.3621 11.6718 8.67626 11.6733 7.99072 11.6698C7.89081 11.6692 7.81142 11.6944 7.73173 11.7553C7.13378 12.2094 6.52939 12.6553 5.93349 13.1121C5.42226 13.5041 4.81669 13.2436 4.6289 12.8059C4.57411 12.6785 4.56122 12.5461 4.56298 12.4092C4.5662 12.1716 4.56386 11.9337 4.56386 11.6718L4.56415 11.6715Z" fill="black"/>
<path d="M9.32695 5.57048C9.34453 5.30037 9.3586 5.02996 9.38203 4.76042C9.38819 4.68835 9.37295 4.6365 9.32695 4.58289C9.14326 4.36755 8.96074 4.15105 8.78203 3.93162C8.64375 3.76199 8.61885 3.56658 8.68623 3.36355C8.75274 3.16287 8.89541 3.03308 9.10049 2.97917C9.35772 2.91179 9.61524 2.84441 9.87481 2.78611C9.97471 2.76384 10.038 2.71726 10.0896 2.62878C10.2138 2.41667 10.3597 2.21658 10.4769 2.00095C10.6948 1.59958 11.3285 1.58874 11.5567 2.00154C11.6815 2.22712 11.831 2.43923 11.9637 2.66072C12.0029 2.72605 12.0516 2.75974 12.1236 2.77673C12.3747 2.83533 12.6249 2.89744 12.8751 2.96013C13.176 3.03572 13.3447 3.21824 13.3781 3.50828C13.3986 3.68582 13.3348 3.83787 13.2217 3.97205C13.0526 4.17302 12.8859 4.37605 12.7137 4.5741C12.6639 4.63152 12.6454 4.68835 12.651 4.76306C12.6715 5.04519 12.6835 5.32791 12.7049 5.61003C12.7354 6.01287 12.3012 6.3656 11.8752 6.18835C11.6259 6.08464 11.3719 5.99119 11.1243 5.88337C11.0443 5.84851 10.9808 5.85496 10.9052 5.8863C10.6521 5.99148 10.3986 6.09695 10.1414 6.19246C9.78047 6.32634 9.41104 6.11804 9.33369 5.74187C9.32227 5.68621 9.3249 5.62761 9.3211 5.57048C9.32285 5.57048 9.3249 5.57048 9.32666 5.57048H9.32695ZM11.9646 5.44421C11.9646 5.40496 11.966 5.38064 11.9646 5.35662C11.9499 5.13982 11.9408 4.92244 11.9177 4.70681C11.8983 4.52546 11.9221 4.36404 12.0592 4.2322C12.0826 4.20964 12.1025 4.18298 12.1236 4.15779C12.2678 3.98582 12.4116 3.81355 12.5654 3.62957C12.2865 3.55925 12.0261 3.49011 11.7633 3.42917C11.6262 3.39753 11.528 3.32517 11.456 3.20593C11.3309 2.9991 11.2005 2.79548 11.0716 2.5907C11.0558 2.5655 11.0353 2.54324 11.0121 2.51306C10.8773 2.72839 10.7402 2.92849 10.6236 3.13972C10.524 3.32019 10.3819 3.41423 10.183 3.45408C9.94834 3.50095 9.71748 3.56804 9.46963 3.63044C9.61113 3.7989 9.73037 3.96794 9.87656 4.10886C10.0975 4.32126 10.152 4.56501 10.103 4.85769C10.0714 5.04607 10.0752 5.2406 10.0626 5.4448C10.1098 5.42781 10.144 5.41638 10.1774 5.40291C10.3939 5.31648 10.6122 5.23298 10.8264 5.14099C10.9556 5.08562 11.0786 5.0821 11.2058 5.13982C11.2652 5.16677 11.3268 5.18992 11.3874 5.21423C11.5761 5.28953 11.765 5.36482 11.9643 5.44421H11.9646Z" fill="black"/>
<path d="M6.80125 6.3773C7.43729 6.3773 8.07332 6.37818 8.70906 6.37671C8.87283 6.37642 8.99588 6.43941 9.06443 6.59058C9.16639 6.81499 9.01287 7.07046 8.76326 7.09595C8.74686 7.09771 8.73045 7.09712 8.71404 7.09712C7.42967 7.09712 6.14559 7.09741 4.86121 7.09683C4.67781 7.09683 4.54656 7.00454 4.49324 6.84575C4.41912 6.62427 4.57352 6.39077 4.80701 6.38052C4.97078 6.37319 5.13514 6.37759 5.2992 6.37759C5.79988 6.37759 6.30027 6.37759 6.80096 6.37759L6.80125 6.3773Z" fill="black"/>
<path d="M5.86141 8.8916C5.54969 8.8916 5.23768 8.8916 4.92596 8.8916C4.88904 8.8916 4.85184 8.89336 4.81521 8.88896C4.61277 8.86494 4.46863 8.70937 4.47185 8.521C4.47508 8.33613 4.61453 8.19228 4.81551 8.16914C4.86004 8.16387 4.90545 8.16387 4.95057 8.16387C5.56199 8.16357 6.17312 8.16328 6.78455 8.16416C6.84578 8.16416 6.90789 8.16709 6.96824 8.17705C7.13025 8.20371 7.24949 8.3373 7.25887 8.49639C7.26912 8.66865 7.17332 8.81953 7.01541 8.86699C6.9574 8.88428 6.89441 8.89043 6.83377 8.89072C6.50975 8.89307 6.18543 8.89189 5.86141 8.89189V8.8916Z" fill="black"/>
</svg>
