<svg width="16" height="16" viewBox="0 0 16 16" fill="none" xmlns="http://www.w3.org/2000/svg">
<path d="M2.00906 8.44099C2.00906 8.14474 2.00906 7.84849 2.00906 7.55224C2.01625 7.5188 2.02469 7.48568 2.03 7.45193C2.07438 7.17568 2.10031 6.89537 2.165 6.62412C2.52469 5.12037 3.34969 3.92943 4.61688 3.04787C5.35656 2.53318 6.17719 2.21255 7.06906 2.0763C7.23 2.05162 7.39156 2.03068 7.55313 2.00818C7.84938 2.00818 8.14563 2.00818 8.44188 2.00818C8.6225 2.03255 8.80438 2.05099 8.98406 2.08193C10.1494 2.28287 11.1772 2.77349 12.0447 3.57787C13.1825 4.63287 13.8278 5.93662 13.9669 7.48662C14.0231 8.11255 13.9813 8.73224 13.8397 9.34318C13.2509 11.8847 11.0716 13.8104 8.36219 13.9801C7.57344 14.0294 6.80063 13.9272 6.05188 13.666C4.79688 13.2285 3.79281 12.4591 3.04094 11.3657C2.53063 10.6235 2.20844 9.8038 2.07594 8.91162C2.0525 8.75505 2.03156 8.59787 2.00969 8.44099H2.00906ZM7.99875 2.85068C5.16188 2.85005 2.855 5.15318 2.85188 7.9888C2.84875 10.8307 5.155 13.1413 7.99594 13.1419C10.8331 13.1426 13.14 10.8394 13.1431 8.00349C13.1463 5.16068 10.8406 2.8513 7.99875 2.85068Z" fill="black"/>
<path d="M7.9122 4.98096C8.3022 4.99346 8.66251 5.05627 8.98939 5.25314C9.5647 5.59971 9.76064 6.22783 9.48282 6.83939C9.32064 7.19627 9.05626 7.46814 8.75689 7.71096C8.71751 7.74283 8.67845 7.77471 8.63907 7.80658C8.41376 7.98783 8.29064 8.22064 8.28439 8.51221C8.28282 8.57846 8.28126 8.64471 8.28001 8.71064C8.27689 8.87189 8.21314 8.97471 8.05595 9.00939C7.93345 9.03658 7.80126 9.04471 7.67657 9.03189C7.50126 9.01346 7.41157 8.91689 7.39126 8.74314C7.32189 8.15471 7.47001 7.64783 7.95532 7.27002C8.07501 7.17689 8.19532 7.08346 8.3072 6.98096C8.38095 6.91314 8.45095 6.83627 8.50407 6.75158C8.73251 6.38658 8.56282 5.99314 8.13876 5.92158C7.98095 5.89502 7.81314 5.90314 7.65282 5.92096C7.49376 5.93846 7.36189 6.02721 7.26314 6.15689C7.22314 6.20939 7.18439 6.26314 7.14751 6.31846C7.05439 6.45846 6.92845 6.52846 6.75939 6.49377C6.57157 6.45533 6.43126 6.35846 6.37907 6.16033C6.34001 6.01127 6.37689 5.87346 6.43907 5.74221C6.58001 5.44533 6.82314 5.25939 7.11876 5.13346C7.3772 5.02346 7.65001 4.98908 7.91157 4.98096H7.9122Z" fill="black"/>
<path d="M7.21968 10.1881C7.22155 9.84656 7.48749 9.58218 7.82718 9.58375C8.16093 9.58562 8.43655 9.86437 8.4328 10.1959C8.42905 10.5278 8.14968 10.8044 7.81905 10.8037C7.48655 10.8031 7.2178 10.5269 7.21968 10.1878V10.1881Z" fill="black"/>
</svg>
