<svg id="vector" xmlns="http://www.w3.org/2000/svg" width="14" height="14" viewBox="0 0 14 14"><path fill="#000000" d="M6.997,13.067H6.079C6.046,13.059 6.014,13.047 5.981,13.045C5.359,13 4.758,12.859 4.179,12.632C1.072,11.41 -0.618,8.124 0.215,4.898C0.622,3.323 1.51,2.068 2.851,1.148C4.244,0.193 5.792,-0.154 7.463,0.071C8.537,0.215 9.518,0.615 10.389,1.263C11.831,2.337 12.703,3.764 12.993,5.541C13.022,5.72 13.042,5.9 13.067,6.08V6.998C13.049,7.144 13.033,7.29 13.012,7.436C12.826,8.711 12.323,9.845 11.474,10.815C10.422,12.017 9.104,12.746 7.525,12.995C7.35,13.023 7.173,13.043 6.997,13.067V13.067ZM6.537,1.082C3.524,1.083 1.084,3.521 1.082,6.533C1.08,9.55 3.523,11.995 6.539,11.995C9.549,11.994 11.993,9.552 11.994,6.543C11.996,3.525 9.553,1.081 6.536,1.082H6.537Z" id="path_0"/><path fill="#000000" d="M4.935,6.013V4.94H7.454V9.803H8.046V10.839H4.89V9.809H5.601V6.013H4.934H4.935Z" id="path_1"/><path fill="#000000" d="M6.539,2.38C7.406,2.363 7.714,3.225 7.386,3.768C7.19,4.091 6.881,4.21 6.524,4.216C6.072,4.224 5.713,3.959 5.597,3.546C5.434,2.966 5.847,2.402 6.45,2.38C6.48,2.379 6.51,2.38 6.539,2.38V2.38Z" id="path_2"/></svg>