<svg width="18" height="18" viewBox="0 0 18 18" fill="none" xmlns="http://www.w3.org/2000/svg">
<g clip-path="url(#clip0_907_1403)">
<path d="M17.4578 9.25914C17.2978 14.0727 13.3076 17.7191 8.57066 17.4558C3.8657 17.1943 0.372573 13.23 0.614096 8.60102C0.859838 3.88762 4.81667 0.420509 9.37574 0.614572C14.099 0.815666 17.5707 4.74192 17.4578 9.25949V9.25914ZM2.99031 13.1383C4.67359 11.4793 6.68453 10.6 9.03788 10.6C11.3912 10.6 13.4008 11.4814 15.0746 13.132C16.787 10.7786 17.0117 6.76692 14.2843 3.93473C11.573 1.11942 7.08109 0.957697 4.15152 3.58774C1.2216 6.21777 1.06867 10.3996 2.99066 13.1383H2.99031Z" fill="#2B28CE"/>
<path d="M9.02597 9.59202C7.1655 9.57866 5.65379 8.06027 5.66609 6.21738C5.67875 4.3337 7.20066 2.83745 9.08855 2.85327C10.9202 2.86874 12.4147 4.40191 12.4041 6.25464C12.3936 8.09226 10.8625 9.60503 9.02597 9.59202Z" fill="#2B28CE"/>
</g>
<defs>
<clipPath id="clip0_907_1403">
<rect width="18" height="18" fill="white"/>
</clipPath>
</defs>
</svg>
