<svg width="29" height="29" viewBox="0 0 29 29" fill="none" xmlns="http://www.w3.org/2000/svg">
<path d="M21.7495 26.1001C21.848 26.0321 21.959 26.0553 22.0672 26.0553C22.0672 26.0701 22.0672 26.0854 22.0672 26.1001H21.75H21.7495Z" fill="#8E8F95"/>
<path d="M25.3376 20.6851C24.671 19.426 23.3399 18.6818 21.9364 18.8177C21.2165 18.8874 20.5 18.9984 19.7823 19.093C18.5787 19.2516 17.3757 19.413 16.1726 19.5721C14.9316 19.7358 13.6912 19.899 12.4502 20.061C12.1608 20.0989 11.8708 20.1329 11.566 20.1703C11.5241 19.7545 11.485 19.358 11.4437 18.9621C11.3446 18.0094 11.2392 17.0579 11.1458 16.1046C11.0676 15.3088 10.9521 14.5192 10.7974 13.7348C10.4785 12.1171 9.94216 10.5691 9.31684 9.04889C9.09651 8.51363 8.77026 8.06051 8.30071 7.7184C8.14325 7.60398 7.9705 7.50996 7.80171 7.40461C8.03393 6.83934 8.11889 6.25877 7.98636 5.65668C7.84022 4.99342 7.47942 4.45193 7.00364 3.98635C6.40438 3.39955 5.68221 3.04951 4.84733 2.93906C4.84337 2.92604 4.84223 2.91301 4.8445 2.89941H4.1195C4.1195 2.91301 4.11667 2.92604 4.1127 2.93906C3.50212 3.05688 3.0371 3.72637 3.20192 4.40492C3.51118 5.67707 3.81477 6.94978 4.1263 8.22137C4.58112 10.078 4.97024 11.9489 5.38938 13.8129C5.79096 15.5965 6.18235 17.3824 6.57997 19.1672C6.6468 19.4674 6.72214 19.5308 7.01554 19.5603C7.27268 19.4085 7.3129 19.3337 7.24946 19.0482C6.92548 17.5784 6.59866 16.1091 6.27128 14.6393C5.83118 12.6631 5.38768 10.6875 4.94985 8.71074C4.80485 8.05768 5.37239 7.715 5.79153 7.83168C6.31716 7.83734 6.84845 7.78014 7.35651 7.97781C7.97276 8.2174 8.40436 8.64504 8.65755 9.25393C9.1928 10.5402 9.66802 11.8469 9.9818 13.208C10.2118 14.2066 10.3772 15.2142 10.4706 16.2354C10.5431 17.0301 10.6405 17.822 10.7232 18.6155C10.7793 19.1536 10.8286 19.6922 10.8813 20.2371C10.6926 20.3243 10.4995 20.3034 10.3188 20.343C10.239 20.3606 10.1965 20.2988 10.1523 20.2479C9.86003 19.912 9.4913 19.7064 9.0597 19.609C8.30751 19.4912 7.69126 19.7381 7.19339 20.3028C6.78331 20.846 6.70345 21.4464 6.8643 22.0978C7.13335 23.1841 7.38993 24.2728 7.65444 25.3603C7.73884 25.7069 7.94048 25.9499 8.29108 26.0541C8.35565 26.0513 8.42249 26.0394 8.47063 26.1005H21.75C21.8486 26.0326 21.9596 26.0558 22.0678 26.0558C22.9395 25.8281 23.3733 25.2283 23.4742 24.3594C23.7053 24.3594 23.9086 24.3622 24.1119 24.3583C24.2847 24.3549 24.4591 24.3504 24.6268 24.3016C25.3694 24.0853 25.8321 23.4447 25.8332 22.6364C25.8338 21.9443 25.6622 21.2974 25.3388 20.6857L25.3376 20.6851ZM7.13221 7.20693C6.738 7.11348 6.32962 7.19107 5.92804 7.12367C5.58989 7.1316 5.24948 7.12877 4.94589 7.31229C4.85696 7.36609 4.772 7.4267 4.67854 7.48844C4.59415 7.3593 4.58679 7.21373 4.55337 7.07893C4.32341 6.14662 4.09741 5.21375 3.87085 4.28088C3.82157 4.07754 3.84593 3.89346 4.01811 3.75129C4.12346 3.60855 4.27526 3.57457 4.43895 3.58193C5.68901 3.63801 6.77821 4.35848 7.2404 5.5383C7.45337 6.08205 7.39559 6.64902 7.13221 7.20693ZM9.058 25.4135C8.93735 25.4158 8.81671 25.4197 8.69663 25.4197C8.40266 25.4197 8.35962 25.3823 8.28712 25.0844C8.17214 24.6098 8.05376 24.1351 7.93991 23.6599C7.79264 23.0459 7.64311 22.4319 7.50378 21.8162C7.40126 21.3609 7.48735 20.9508 7.83852 20.6189C8.51764 19.9352 9.65102 20.2824 9.87815 21.1564C10.0713 21.8984 10.2378 22.6477 10.4134 23.3943C10.5618 24.0241 10.7062 24.6545 10.8518 25.2844C10.8603 25.32 10.8626 25.3574 10.8711 25.4135H9.058ZM24.1425 23.6667C23.7511 23.6678 23.3598 23.6605 22.9684 23.6571C22.2083 23.6605 21.4487 23.6639 20.6886 23.6673C20.6132 23.6673 20.5379 23.6633 20.4632 23.669C20.2105 23.6877 20.129 23.7596 20.0638 24.0139C20.138 24.279 20.2134 24.3368 20.4864 24.3453C20.6495 24.3504 20.8138 24.3288 20.9763 24.3583C21.5688 24.3283 22.1612 24.3532 22.7531 24.343C22.7724 24.9009 22.3249 25.3846 21.7682 25.4141C21.5059 25.4277 21.242 25.4141 20.9786 25.4129C20.9259 25.4152 20.8732 25.4197 20.8206 25.4197C17.8005 25.4197 14.7798 25.4197 11.7598 25.4197H11.5802C11.4986 25.0686 11.4176 24.7208 11.3372 24.3753C11.4295 24.3237 11.5139 24.3458 11.5944 24.3458C13.9127 24.3447 16.2304 24.3447 18.5487 24.3447C18.6014 24.3447 18.6546 24.3453 18.7073 24.3447C19.0109 24.3407 19.0596 24.3056 19.1655 24.0139C19.0658 23.7194 18.9905 23.6673 18.6439 23.6673C16.2587 23.6673 13.8736 23.6673 11.4879 23.6673C11.4352 23.6673 11.382 23.6627 11.3293 23.6678C11.2086 23.6797 11.1622 23.6287 11.1356 23.5081C10.994 22.8686 10.841 22.232 10.6921 21.5942C10.6479 21.4045 10.6032 21.2147 10.5539 21.0018C10.8065 20.9649 11.0483 20.927 11.2908 20.8953C12.9571 20.6783 14.6235 20.4648 16.2893 20.2462C17.7234 20.0581 19.1565 19.8604 20.5912 19.6758C20.9123 19.6345 21.2312 19.5721 21.5563 19.5654C22.8041 19.2402 24.108 19.8299 24.7373 21.0035C25.0125 21.5166 25.157 22.0621 25.1519 22.646C25.1468 23.2713 24.7627 23.6644 24.1431 23.6661L24.1425 23.6667Z" fill="#434C55"/>
<path d="M8.28882 26.1C8.29278 26.0898 8.29788 26.0796 8.29901 26.0695C8.29958 26.0649 8.29335 26.0587 8.29052 26.0536C8.35509 26.0508 8.42192 26.0389 8.47007 26.1H8.28882Z" fill="#797B82"/>
<path d="M19.1644 24.0145C19.0647 23.7199 18.9894 23.6678 18.6427 23.6678C16.2576 23.6678 13.8724 23.6678 11.4867 23.6678C11.4341 23.6678 11.3808 23.6633 11.3281 23.6684C11.2075 23.6803 11.1611 23.6293 11.1344 23.5087C10.9928 22.8692 10.8399 22.2326 10.6909 21.5948C10.6468 21.405 10.602 21.2153 10.5527 21.0023C10.8054 20.9655 11.0472 20.9276 11.2896 20.8958C12.956 20.6789 14.6224 20.4654 16.2882 20.2467C17.7223 20.0587 19.1553 19.861 20.59 19.6764C20.9112 19.635 21.2301 19.5727 21.5552 19.5659C21.8542 19.6033 22.044 19.8236 22.2417 20.0083C22.8245 20.5532 23.1536 21.2391 23.2912 22.0207C23.3949 22.6081 23.3813 23.1722 22.9672 23.6565C22.2071 23.6599 21.4476 23.6633 20.6874 23.6667C20.6121 23.6667 20.5368 23.6627 20.4614 23.6684C20.2088 23.6871 20.1273 23.759 20.0621 24.0133C19.7625 24.0133 19.4629 24.0133 19.1632 24.0133L19.1644 24.0145Z" fill="#FFC943"/>
<path d="M7.1928 20.3022C7.13389 20.0547 7.07442 19.8077 7.01551 19.5602C7.27266 19.4084 7.31288 19.3336 7.24944 19.0482C6.92545 17.5783 6.59864 16.1091 6.27126 14.6393C5.83116 12.6631 5.38766 10.6874 4.94983 8.71069C4.80483 8.05762 5.37237 7.71495 5.79151 7.83163C5.8102 7.886 5.85891 7.90752 5.90196 7.93811C6.36245 8.26323 6.6921 8.68633 6.89827 9.21536C7.09198 9.71209 7.29249 10.206 7.47713 10.7061C7.77053 11.5019 8.00559 12.3153 8.19987 13.1411C8.33524 13.7166 8.44399 14.296 8.53348 14.8811C8.61844 15.4362 8.68301 15.993 8.73512 16.5509C8.76911 16.9162 8.81329 17.2804 8.84274 17.6469C8.89598 18.3022 8.98491 18.9553 9.05911 19.6089C8.30692 19.4911 7.69067 19.7381 7.1928 20.3028V20.3022Z" fill="#FAA91E"/>
<path d="M9.0591 19.6085C8.9849 18.9548 8.89598 18.3018 8.84273 17.6464C8.81328 17.2805 8.7691 16.9158 8.73512 16.5504C8.68301 15.9925 8.61787 15.4357 8.53348 14.8807C8.44398 14.2961 8.33523 13.7161 8.19986 13.1407C8.00559 12.3154 7.77109 11.5015 7.47713 10.7057C7.29248 10.2056 7.09197 9.71165 6.89826 9.21491C6.69152 8.68588 6.36187 8.26278 5.90195 7.93766C5.85834 7.90707 5.8102 7.88555 5.7915 7.83118C6.31713 7.83684 6.84842 7.77963 7.35648 7.97731C7.97273 8.2169 8.40434 8.64454 8.65752 9.25342C9.19277 10.5397 9.66799 11.8464 9.98178 13.2075C10.2117 14.2061 10.3771 15.2137 10.4706 16.2349C10.5431 17.0296 10.6405 17.8214 10.7232 18.615C10.7793 19.1531 10.8286 19.6917 10.8812 20.2366C10.6926 20.3238 10.4995 20.3029 10.3188 20.3425C10.2389 20.3601 10.1964 20.2983 10.1523 20.2474C9.86 19.9115 9.49127 19.7059 9.05967 19.6085H9.0591Z" fill="#F59052"/>
<path d="M19.1644 24.0144C19.464 24.0144 19.7637 24.0144 20.0633 24.0144C20.1375 24.2795 20.2128 24.3373 20.4858 24.3458C20.649 24.3508 20.8132 24.3293 20.9758 24.3588C20.9763 24.7105 20.9775 25.0617 20.978 25.4134C20.9254 25.4157 20.8727 25.4202 20.82 25.4202C17.7999 25.4202 14.7793 25.4202 11.7592 25.4202C11.7065 25.4202 11.6539 25.4202 11.5797 25.4202C11.4981 25.0691 11.4171 24.7213 11.3367 24.3758C11.429 24.3242 11.5134 24.3463 11.5938 24.3463C13.9121 24.3452 16.2299 24.3452 18.5482 24.3452C18.6008 24.3452 18.6541 24.3458 18.7067 24.3452C19.0103 24.3412 19.0591 24.3061 19.165 24.0144H19.1644Z" fill="#FAFAFA"/>
<path d="M7.83795 20.6189C8.51707 19.9353 9.65045 20.2825 9.87758 21.1564C10.0707 21.8984 10.2372 22.6478 10.4128 23.3943C10.5612 24.0242 10.7057 24.6546 10.8512 25.2844C10.8597 25.3201 10.862 25.3575 10.8705 25.4135H9.05742C9.05516 25.3535 9.06252 25.2912 9.04949 25.234C8.89317 24.5651 8.73174 23.8973 8.57598 23.2284C8.43041 22.603 8.29844 21.9743 8.14268 21.3513C8.07867 21.0953 8.05149 20.8155 7.83795 20.6184V20.6189Z" fill="#AAB2B9"/>
<path d="M22.9678 23.657C23.3818 23.1721 23.3954 22.6086 23.2918 22.0212C23.1541 21.2396 22.8245 20.5536 22.2422 20.0088C22.0445 19.8241 21.8548 19.6038 21.5557 19.5664C22.8035 19.2413 24.1074 19.8309 24.7367 21.0045C25.0119 21.5177 25.1564 22.0631 25.1513 22.6471C25.1462 23.2724 24.7621 23.6655 24.1425 23.6672C23.7511 23.6683 23.3597 23.6609 22.9683 23.6576L22.9678 23.657Z" fill="#F9A91F"/>
<path d="M4.01813 3.75135C4.12348 3.60862 4.27528 3.57463 4.43897 3.582C5.68903 3.63807 6.77823 4.35854 7.24041 5.53836C7.45338 6.08211 7.39561 6.64908 7.13223 7.207C6.73801 7.11354 6.32963 7.19114 5.92805 7.12373C5.7519 6.5443 5.58877 5.96033 5.36731 5.39563C5.20645 4.98612 4.96629 4.62985 4.65703 4.31379C4.45709 4.10932 4.21864 3.95242 4.01813 3.75135Z" fill="#F8A91F"/>
<path d="M4.01814 3.75122C4.21865 3.95229 4.4571 4.10862 4.65705 4.31366C4.9663 4.63028 5.20646 4.98655 5.36732 5.3955C5.58878 5.96021 5.75248 6.54417 5.92806 7.1236C5.58992 7.13153 5.24951 7.1287 4.94591 7.31222C4.85699 7.36603 4.77203 7.42663 4.67857 7.48837C4.59417 7.35923 4.58681 7.21366 4.55339 7.07886C4.32343 6.14655 4.09744 5.21368 3.87087 4.28081C3.8216 4.07747 3.84595 3.89339 4.01814 3.75122Z" fill="#FDC844"/>
<path d="M7.83795 20.6189C8.05148 20.816 8.07867 21.0958 8.14267 21.3518C8.29844 21.9749 8.43041 22.6036 8.57598 23.2289C8.73174 23.8978 8.89316 24.5656 9.04949 25.2345C9.06308 25.2917 9.05516 25.3541 9.05742 25.4141C8.93678 25.4164 8.81613 25.4203 8.69605 25.4203C8.40209 25.4203 8.35904 25.3829 8.28654 25.085C8.17156 24.6104 8.05318 24.1357 7.93933 23.6605C7.79207 23.0465 7.64254 22.4325 7.5032 21.8168C7.40068 21.3615 7.48678 20.9514 7.83795 20.6195V20.6189Z" fill="#BFC6D0"/>
<path d="M20.978 25.4136C20.9775 25.0618 20.9763 24.7107 20.9758 24.3589C21.5682 24.3289 22.1607 24.3538 22.7526 24.3436C22.7718 24.9015 22.3244 25.3853 21.7676 25.4147C21.5054 25.4283 21.2414 25.4147 20.978 25.4136Z" fill="#DDE4EF"/>
</svg>
