<svg width="27" height="27" viewBox="0 0 27 27" fill="none" xmlns="http://www.w3.org/2000/svg">
<path d="M2.24437 5.82344C2.44634 4.97178 3.13716 4.43969 4.06212 4.42861C4.51775 4.42334 4.9739 4.42756 5.42953 4.42756C8.34837 4.42756 11.2667 4.42756 14.1855 4.42756C14.2446 4.42756 14.3031 4.42492 14.3622 4.42809C14.6048 4.44074 14.6913 4.51615 14.7514 4.76242C14.687 5.03981 14.5974 5.10678 14.2815 5.10678C12.8034 5.10731 11.3247 5.10678 9.84656 5.10678C8.39003 5.10678 6.93404 5.10994 5.47751 5.10256C5.31087 5.10151 5.26605 5.14369 5.27238 5.30875C5.28609 5.65416 5.28609 6.0001 5.27449 6.34551C5.25445 6.93033 5.73908 7.33902 6.2738 7.33797C11.0916 7.329 15.9089 7.329 20.7267 7.33797C21.2509 7.33902 21.7445 6.93983 21.725 6.34393C21.7139 6.01328 21.725 5.68211 21.7229 5.35094C21.7213 5.07039 21.7582 5.10678 21.4771 5.10678C19.6826 5.10572 17.888 5.10678 16.0929 5.10572C15.7834 5.10572 15.7038 5.04666 15.6141 4.7619C15.698 4.49348 15.7781 4.42703 16.0539 4.42703C18.3563 4.42545 20.6582 4.41965 22.9605 4.42914C23.905 4.43283 24.5921 5.0108 24.7783 5.9094C24.7994 6.0117 24.7994 6.11401 24.7994 6.21684C24.7999 8.54137 24.8015 10.8654 24.7994 13.1899C24.7983 14.1565 24.0585 14.9217 23.0897 14.9644C22.8988 14.9729 22.7074 14.9702 22.516 14.9681C22.4316 14.9671 22.3926 14.9881 22.3673 15.0825C22.2101 15.6695 21.8051 15.9711 21.1934 15.9722C20.7225 15.9727 20.2521 15.9732 19.7812 15.9722C19.5149 15.9711 19.4194 15.8894 19.3635 15.6231C19.4511 15.3594 19.517 15.3088 19.7896 15.3082C20.26 15.3067 20.7309 15.3077 21.2013 15.3082C21.3964 15.3082 21.5626 15.2529 21.6659 15.0725C21.8014 14.8347 21.744 14.7282 21.4792 14.7282C16.1562 14.7282 10.8337 14.7282 5.51074 14.7282C5.26341 14.7282 5.20804 14.8168 5.31826 15.043C5.40369 15.2191 5.55503 15.2972 5.7433 15.3067C5.85351 15.3119 5.96373 15.3082 6.07394 15.3082C10.0585 15.3082 14.0437 15.3082 18.0283 15.3082C18.3479 15.3082 18.4159 15.3552 18.4955 15.6236C18.4465 15.8925 18.3484 15.9727 18.0589 15.9727C16.5001 15.9727 14.9412 15.9727 13.3824 15.9727C10.868 15.9727 8.35312 15.9727 5.83874 15.9727C5.18906 15.9727 4.81095 15.6953 4.63166 15.072C4.60265 14.9707 4.54886 14.9697 4.47292 14.9692C4.26726 14.9681 4.06107 14.9713 3.85541 14.9613C3.06914 14.9228 2.3915 14.3295 2.2391 13.5517C2.25017 13.4989 2.24912 13.4499 2.20007 13.4146V9.17734C2.28761 9.05553 2.39361 8.96219 2.55339 8.95375C2.82656 9.06871 2.86242 9.12145 2.86242 9.41307C2.86242 10.6629 2.86083 11.9132 2.86347 13.163C2.86453 13.7215 3.2305 14.1934 3.76628 14.2794C4.03681 14.3226 4.31947 14.2868 4.60529 14.2868C4.60529 13.9008 4.60423 13.5263 4.60581 13.1514C4.60687 12.9827 4.60792 12.8129 4.64958 12.6478C4.8447 11.8721 5.47013 11.3959 6.32126 11.3954C11.108 11.3927 15.8947 11.3938 20.6814 11.3954C20.9392 11.3954 21.1934 11.4296 21.4307 11.5409C22.0224 11.8178 22.3267 12.2939 22.3963 12.9331C22.3836 12.9573 22.3857 12.979 22.4063 12.9974C22.3847 13.3423 22.3842 13.6877 22.4063 14.0326C22.3894 14.2101 22.4664 14.2989 22.6373 14.2989C22.7475 14.2989 22.8582 14.2926 22.9679 14.3C23.5622 14.3395 24.1439 13.8507 24.137 13.1409C24.1312 12.5676 24.136 11.9939 24.136 11.4201C24.136 9.69942 24.137 7.97922 24.1355 6.2585C24.1349 5.7069 23.8053 5.26815 23.2917 5.13525C23.0834 5.08147 22.8677 5.10783 22.6552 5.10572C22.3799 5.10309 22.3799 5.1052 22.4068 5.37889C22.3852 5.72324 22.3831 6.0676 22.4079 6.41195C22.3784 6.4457 22.3805 6.4842 22.3905 6.52375C22.3277 7.03053 22.1015 7.44027 21.6743 7.73031C21.3722 7.93545 21.0352 8.00137 20.674 8.00137C15.8883 7.99873 11.1027 7.99979 6.31705 7.99926C6.24374 7.99926 6.16992 7.9961 6.09662 7.99188C5.31562 7.94283 4.67332 7.31951 4.62322 6.53535C4.59632 6.1177 4.60582 5.69793 4.60898 5.27922C4.61003 5.15213 4.58736 5.08938 4.44234 5.10203C4.29626 5.11469 4.14861 5.10836 4.00148 5.10414C3.34546 5.08568 2.84554 5.64256 2.86083 6.26904C2.87191 6.73943 2.864 7.20983 2.86294 7.68022C2.86242 7.92912 2.79703 8.01297 2.55339 8.08838C2.39361 8.10156 2.30238 7.98871 2.2006 7.8959V5.99799C2.25808 5.95 2.25333 5.88619 2.2449 5.82133L2.24437 5.82344ZM13.4974 13.346C10.8501 13.346 8.20283 13.346 5.55556 13.346C5.51126 13.346 5.46697 13.3502 5.4232 13.3455C5.3114 13.3328 5.26183 13.3724 5.26921 13.4921C5.27818 13.6313 5.2766 13.7716 5.26921 13.9108C5.26394 14.0205 5.294 14.0801 5.41581 14.0653C5.46644 14.059 5.51865 14.0642 5.57033 14.0642C10.7984 14.0642 16.027 14.0642 21.2551 14.0627C21.4059 14.0627 21.5974 14.1296 21.6976 14.0252C21.7893 13.9303 21.7234 13.7441 21.7255 13.5986C21.7287 13.3207 21.7545 13.3471 21.4829 13.3471C18.8209 13.3471 16.1589 13.3471 13.4968 13.3471L13.4974 13.346ZM5.34462 12.6705H21.6359C21.639 12.6135 21.6185 12.575 21.5958 12.5376C21.3743 12.1669 21.0273 12.0598 20.6207 12.0598C15.8709 12.0614 11.1206 12.0609 6.37083 12.0619C6.25376 12.0619 6.13353 12.0672 6.02015 12.093C5.70269 12.1658 5.4733 12.3477 5.34462 12.6705Z" fill="#0F1010"/>
<path d="M2.24437 5.82349C2.25281 5.88782 2.25755 5.95163 2.20007 6.00015V5.82349C2.21484 5.83931 2.2296 5.83931 2.24437 5.82349Z" fill="#797676"/>
<path d="M2.20007 13.415C2.24912 13.4504 2.25017 13.4999 2.2391 13.5521C2.22644 13.549 2.21326 13.5474 2.20007 13.5474V13.415Z" fill="#807D7C"/>
<path d="M15.6136 4.76343C15.7033 5.04819 15.7829 5.10673 16.0924 5.10726C17.887 5.10778 19.6815 5.10726 21.4766 5.10831C21.7577 5.10831 21.7208 5.07192 21.7224 5.35247C21.7245 5.68364 21.7139 6.01481 21.7245 6.34546C21.744 6.94136 21.2509 7.34056 20.7262 7.3395C15.9084 7.33054 11.0911 7.33054 6.2733 7.3395C5.73857 7.34056 5.25394 6.93187 5.27398 6.34704C5.28558 6.00163 5.28558 5.65517 5.27187 5.31028C5.26554 5.14522 5.31037 5.10304 5.47701 5.10409C6.93353 5.11147 8.38953 5.10831 9.84605 5.10831C11.3242 5.10831 12.8029 5.10831 14.281 5.10831C14.5974 5.10831 14.6865 5.04081 14.7509 4.76395L15.6131 4.76501L15.6136 4.76343ZM13.5048 5.88562C12.8208 5.88562 12.1368 5.88509 11.4529 5.88614C11.3722 5.88614 11.2899 5.8872 11.2119 5.90407C11.0579 5.93677 10.9503 6.07019 10.9587 6.22101C10.9672 6.37183 11.0368 6.48679 11.1908 6.53425C11.2694 6.55851 11.3495 6.56114 11.4307 6.56114C12.806 6.56114 14.1813 6.56114 15.5572 6.56009C15.6231 6.56009 15.6901 6.55851 15.7544 6.54585C15.9348 6.51104 16.0481 6.37499 16.0418 6.2094C16.036 6.04329 15.9142 5.91515 15.7333 5.89142C15.6679 5.88298 15.6015 5.88562 15.535 5.88562C14.8585 5.88562 14.1819 5.88562 13.5048 5.88562Z" fill="#EFE1DC"/>
<path d="M18.495 15.6237C18.4154 15.3553 18.3474 15.3083 18.0278 15.3083C14.0432 15.3083 10.058 15.3083 6.07344 15.3083C5.96323 15.3083 5.85248 15.3126 5.7428 15.3068C5.55401 15.2973 5.40319 15.2192 5.31776 15.0431C5.20754 14.8169 5.26291 14.7283 5.51024 14.7283C10.8332 14.7283 16.1557 14.7283 21.4787 14.7283C21.7429 14.7283 21.8009 14.8348 21.6654 15.0726C21.5626 15.253 21.3959 15.3083 21.2008 15.3083C20.7304 15.3083 20.2595 15.3073 19.7891 15.3083C19.5165 15.3089 19.4506 15.3595 19.363 15.6232C19.074 15.6232 18.7845 15.6232 18.4956 15.6232L18.495 15.6237Z" fill="#C6E6F4"/>
<path d="M12.7158 22.2518C12.738 21.8463 12.8593 21.5536 13.0881 21.3084C13.1883 21.2008 13.2964 21.1006 13.395 20.9915C13.6824 20.6735 13.6777 20.2996 13.385 19.9853C13.26 19.8508 13.1235 19.7253 13.0106 19.5814C12.5914 19.0451 12.6225 18.331 13.0797 17.828C13.1635 17.7357 13.2527 17.6471 13.3407 17.559C13.49 17.4092 13.5891 17.2437 13.6018 17.0201C13.6155 16.7733 13.7752 16.6499 13.9936 16.6783C14.1861 16.7037 14.2989 16.8745 14.2768 17.1044C14.2456 17.4298 14.1217 17.713 13.8939 17.9487C13.7916 18.0547 13.6856 18.157 13.5886 18.2672C13.3202 18.572 13.3254 18.9401 13.5986 19.2391C13.7273 19.3799 13.8681 19.5112 13.9867 19.6605C14.3912 20.1709 14.3775 20.866 13.9593 21.3633C13.8791 21.4587 13.7927 21.5494 13.703 21.637C13.5306 21.8052 13.4024 21.9845 13.3924 22.2445C13.384 22.4617 13.2152 22.5888 13.0259 22.5698C12.8371 22.5508 12.7116 22.3932 12.7153 22.2518H12.7158Z" fill="#110F0F"/>
<path d="M9.79064 22.1605C9.79961 21.8299 9.93408 21.5509 10.1524 21.3094C10.2558 21.195 10.3686 21.089 10.4725 20.9745C10.7383 20.6818 10.7425 20.3201 10.4815 20.0216C10.3749 19.8998 10.2563 19.7896 10.1477 19.6693C9.67832 19.1515 9.65828 18.4206 10.1028 17.8806C10.2099 17.7503 10.3306 17.6306 10.4498 17.5109C10.5859 17.3749 10.6565 17.213 10.6739 17.0221C10.6961 16.78 10.8242 16.6603 11.0352 16.6756C11.2298 16.6899 11.3373 16.8259 11.3368 17.0595C11.3368 17.4002 11.1965 17.6844 10.9751 17.9333C10.8775 18.043 10.7689 18.1432 10.6687 18.2508C10.3844 18.5567 10.3813 18.9258 10.6608 19.238C10.7541 19.3419 10.8564 19.4373 10.9524 19.5391C11.4655 20.087 11.4787 20.849 10.9835 21.4127C10.8912 21.5177 10.791 21.6158 10.6919 21.7133C10.5558 21.8473 10.4746 22.0055 10.4556 22.1969C10.4303 22.4537 10.2964 22.5893 10.0933 22.5697C9.89506 22.5508 9.78906 22.4068 9.79064 22.1595V22.1605Z" fill="#0F0E0E"/>
<path d="M17.2057 17.1988C17.1988 17.4124 17.0638 17.6908 16.8471 17.9329C16.7537 18.0367 16.652 18.1327 16.5555 18.234C16.2512 18.5551 16.2475 18.9248 16.547 19.2539C16.6361 19.3519 16.7321 19.4432 16.8228 19.5391C17.3359 20.0844 17.3496 20.8496 16.855 21.4128C16.7775 21.5009 16.6952 21.5858 16.6092 21.6659C16.4352 21.8283 16.3324 22.0182 16.3208 22.2629C16.3123 22.4496 16.1599 22.5777 15.9859 22.5735C15.8019 22.5693 15.6685 22.4285 15.6616 22.227C15.6505 21.9201 15.7491 21.648 15.9395 21.4123C16.0592 21.2641 16.1979 21.1307 16.3271 20.9904C16.6124 20.6808 16.6177 20.3186 16.3377 20.0048C16.2396 19.8951 16.132 19.7944 16.0323 19.6863C15.5372 19.1494 15.5229 18.4022 15.9996 17.8469C16.1051 17.7246 16.2206 17.6107 16.334 17.4952C16.4579 17.3697 16.5233 17.2188 16.5417 17.0448C16.5707 16.7775 16.6868 16.6599 16.904 16.6751C17.106 16.6894 17.2094 16.8281 17.2046 17.1983L17.2057 17.1988Z" fill="#0F0E0E"/>
<path d="M2.55341 8.95431C2.55341 8.66638 2.55341 8.37846 2.55341 8.09C2.79704 8.01459 2.8619 7.93074 2.86296 7.68183C2.86401 7.21144 2.87245 6.74053 2.86085 6.27066C2.84555 5.64471 3.34548 5.0873 4.00149 5.10576C4.14862 5.10998 4.29628 5.11631 4.44235 5.10365C4.58737 5.09099 4.61005 5.15375 4.60899 5.28084C4.60583 5.69955 4.59634 6.11984 4.62323 6.53697C4.67333 7.32113 5.31563 7.94445 6.09663 7.99349C6.16993 7.99824 6.24323 8.00088 6.31706 8.00088C11.1027 8.00088 15.8883 8.00088 20.674 8.00299C21.0352 8.00299 21.3722 7.93707 21.6744 7.73193C22.1015 7.44189 22.3277 7.03215 22.3905 6.52537C22.4221 6.49215 22.4148 6.4526 22.4079 6.41357C22.3836 6.06922 22.3857 5.72486 22.4068 5.38051C22.4833 5.37892 22.5229 5.42322 22.5571 5.48756C22.6816 5.72328 22.7697 5.96691 22.7691 6.23902C22.7681 8.55142 22.7681 10.8638 22.7691 13.1757C22.7691 13.4552 22.6747 13.7052 22.5471 13.9467C22.5165 14.0052 22.4717 14.0342 22.4068 14.0337C22.3847 13.6888 22.3852 13.3434 22.4068 12.9985C22.4037 12.9769 22.4 12.9553 22.3968 12.9342C22.3272 12.295 22.0229 11.8188 21.4313 11.542C21.1934 11.4307 20.9398 11.3964 20.6819 11.3964C15.8952 11.3949 11.1085 11.3938 6.3218 11.3964C5.47067 11.3964 4.84524 11.8732 4.65012 12.6489C4.60846 12.8139 4.60741 12.9837 4.60635 13.1525C4.60477 13.5269 4.60583 13.9013 4.60583 14.2879C4.32001 14.2879 4.03682 14.3237 3.76682 14.2805C3.23052 14.1945 2.86507 13.7231 2.86401 13.1641C2.86137 11.9143 2.86348 10.664 2.86296 9.41416C2.86296 9.12254 2.82657 9.0698 2.55393 8.95484L2.55341 8.95431ZM20.6545 11.0083C21.2019 11.0036 21.6448 10.5585 21.6443 10.0132C21.6438 9.47058 21.1955 9.01865 20.654 9.01443C20.1097 9.00969 19.6399 9.48324 19.6504 10.0253C19.6604 10.5706 20.1129 11.0131 20.655 11.0083H20.6545ZM18.2751 11.0083C18.8204 11.0025 19.2681 10.5511 19.2655 10.0111C19.2623 9.47058 18.8088 9.01654 18.2704 9.01443C17.7235 9.0118 17.261 9.48113 17.2716 10.0275C17.2821 10.5759 17.7309 11.0141 18.2756 11.0083H18.2751Z" fill="#F6F1EF"/>
<path d="M22.4068 14.0343C22.4722 14.0343 22.5165 14.0052 22.5471 13.9472C22.6752 13.7057 22.7696 13.4563 22.7691 13.1763C22.768 10.8639 22.768 8.55146 22.7691 6.23958C22.7691 5.968 22.6816 5.72384 22.5571 5.48812C22.5234 5.42378 22.4833 5.38001 22.4068 5.38107C22.3804 5.10685 22.3804 5.10474 22.6552 5.1079C22.8677 5.11001 23.0834 5.08365 23.2917 5.13744C23.8053 5.27033 24.1349 5.70908 24.1354 6.26068C24.137 7.9814 24.136 9.7016 24.136 11.4223C24.136 11.9961 24.1312 12.5693 24.137 13.143C24.1439 13.8528 23.5622 14.3412 22.9679 14.3021C22.8582 14.2948 22.7475 14.3011 22.6373 14.3011C22.466 14.3011 22.3891 14.2123 22.4063 14.0348L22.4068 14.0343Z" fill="#F1E8E3"/>
<path d="M13.4974 13.3459C16.1594 13.3459 18.8214 13.3459 21.4835 13.3459C21.7551 13.3459 21.7292 13.3195 21.726 13.5974C21.7245 13.743 21.7899 13.9291 21.6981 14.024C21.5979 14.1285 21.4065 14.0615 21.2557 14.0615C16.0276 14.0636 10.799 14.0631 5.57087 14.0631C5.51919 14.0631 5.46751 14.0578 5.41636 14.0641C5.29454 14.0789 5.26449 14.0198 5.26976 13.9096C5.27661 13.7704 5.2782 13.6296 5.26976 13.4909C5.26238 13.3712 5.31195 13.3316 5.42374 13.3443C5.46751 13.349 5.51181 13.3448 5.55611 13.3448C8.20337 13.3448 10.8506 13.3448 13.4979 13.3448L13.4974 13.3459Z" fill="#BEDAE8"/>
<path d="M5.3446 12.6705C5.47328 12.3477 5.70267 12.1658 6.02013 12.093C6.13351 12.0672 6.25375 12.0619 6.37082 12.0619C11.1206 12.0603 15.8709 12.0614 20.6207 12.0598C21.0273 12.0598 21.3743 12.1669 21.5958 12.5376C21.6184 12.5756 21.639 12.6141 21.6358 12.6705H5.3446Z" fill="#C3E1EF"/>
<path d="M22.4079 6.41406C22.4153 6.45309 22.4221 6.49264 22.3905 6.52586C22.3805 6.48631 22.3784 6.44781 22.4079 6.41406Z" fill="#F1E8E3"/>
<path d="M22.3968 12.9341C22.3999 12.9557 22.4036 12.9773 22.4068 12.9984C22.3862 12.9794 22.3841 12.9578 22.3968 12.9341Z" fill="#F1E8E3"/>
<path d="M13.5047 5.88564C14.1813 5.88564 14.8579 5.88564 15.535 5.88564C15.6009 5.88564 15.6679 5.88301 15.7333 5.89144C15.9142 5.91518 16.036 6.04332 16.0418 6.20943C16.0476 6.37502 15.9342 6.51107 15.7544 6.54588C15.69 6.55801 15.6231 6.56012 15.5572 6.56012C14.1818 6.56064 12.8065 6.56012 11.4307 6.56117C11.3495 6.56117 11.2693 6.55853 11.1907 6.53428C11.0362 6.48682 10.9672 6.37185 10.9587 6.22103C10.9503 6.07021 11.0584 5.9368 11.2118 5.9041C11.2899 5.88723 11.3722 5.8867 11.4528 5.88617C12.1368 5.88512 12.8208 5.88564 13.5047 5.88564Z" fill="#1F1D1D"/>
<path d="M20.6545 11.0083C20.1124 11.0131 19.6604 10.5701 19.6499 10.0254C19.6399 9.48325 20.1097 9.00969 20.6534 9.01444C21.195 9.01919 21.6432 9.47112 21.6438 10.0132C21.6443 10.5585 21.2018 11.0036 20.6539 11.0083H20.6545ZM20.6492 10.3349C20.8375 10.3349 20.9677 10.2068 20.9698 10.019C20.9719 9.83024 20.8454 9.69682 20.6592 9.69155C20.4641 9.68628 20.3238 9.82444 20.327 10.0201C20.3296 10.2078 20.4599 10.3354 20.6492 10.3349Z" fill="#0D0909"/>
<path d="M18.2751 11.0083C17.7304 11.0141 17.2816 10.5759 17.2711 10.0274C17.2605 9.48111 17.723 9.01178 18.2698 9.01442C18.8088 9.01705 19.2623 9.47109 19.2649 10.0111C19.2681 10.5511 18.8199 11.002 18.2746 11.0083H18.2751ZM18.5952 10.018C18.5973 9.83285 18.4449 9.67992 18.2609 9.68361C18.0826 9.68731 17.9455 9.82705 17.9434 10.0085C17.9408 10.1967 18.0663 10.3296 18.2519 10.3365C18.447 10.3433 18.5931 10.2078 18.5952 10.0174V10.018Z" fill="#080B0A"/>
<path d="M20.6492 10.3349C20.4604 10.3349 20.3301 10.2078 20.327 10.0201C20.3238 9.82497 20.4641 9.68628 20.6592 9.69155C20.8453 9.69683 20.9719 9.83024 20.9698 10.019C20.9677 10.2068 20.8374 10.3344 20.6492 10.3349Z" fill="#EE7C85"/>
<path d="M18.5952 10.018C18.5931 10.2083 18.447 10.3439 18.2519 10.337C18.0663 10.3301 17.9413 10.1973 17.9434 10.009C17.9455 9.82759 18.0826 9.68784 18.2608 9.68415C18.4444 9.68046 18.5973 9.83286 18.5952 10.0185V10.018Z" fill="#70C3B2"/>
</svg>
