<svg width="77" height="77" viewBox="0 0 77 77" fill="none" xmlns="http://www.w3.org/2000/svg">
<path d="M74.681 39.6083C73.9967 60.1998 56.9274 75.7983 36.6637 74.6719C16.537 73.553 1.59414 56.5949 2.62733 36.793C3.67856 16.6301 20.605 1.79862 40.1077 2.62878C60.3127 3.48901 75.1637 20.2846 74.681 39.6098V39.6083ZM12.7922 56.2024C19.9929 49.1055 28.5953 45.3442 38.6624 45.3442C48.7296 45.3442 57.3259 49.1145 64.486 56.1754C71.8115 46.1082 72.7725 28.9471 61.1052 16.8317C49.5071 4.78839 30.2917 4.09659 17.7596 15.3473C5.22608 26.598 4.57188 44.487 12.7937 56.2024H12.7922Z" fill="#BEBEBE"/>
<path d="M38.6113 41.0325C30.6526 40.9753 24.1858 34.48 24.2385 26.5965C24.2926 18.5386 30.803 12.1379 38.879 12.2056C46.7144 12.2718 53.1075 18.8303 53.0623 26.7559C53.0172 34.6168 46.4677 41.0881 38.6113 41.0325Z" fill="#BEBEBE"/>
</svg>
