<svg width="9" height="9" viewBox="0 0 9 9" fill="none" xmlns="http://www.w3.org/2000/svg">
<g clip-path="url(#clip0_1328_1010)">
<path d="M4.37726 8.44417C4.27794 8.39899 4.16896 8.36735 4.08124 8.30583C3.87488 8.16133 3.79015 7.94881 3.79015 7.70079C3.7898 6.94088 3.79015 6.18116 3.78997 5.42126C3.78997 5.39559 3.79121 5.36975 3.7891 5.34426C3.78277 5.26674 3.7332 5.21788 3.65497 5.2119C3.62949 5.20997 3.60365 5.2112 3.57798 5.2112C2.81808 5.2112 2.05835 5.21155 1.29845 5.21102C1.05359 5.21084 0.850912 5.12172 0.695873 4.92678C0.477904 4.65292 0.519916 4.20555 0.784291 3.97704C0.933529 3.84819 1.10527 3.79018 1.29933 3.79C2.0515 3.78965 2.80367 3.79 3.55583 3.79C3.5764 3.79 3.59697 3.79 3.61736 3.79C3.74163 3.78895 3.7898 3.74184 3.7898 3.61774C3.79015 2.845 3.7898 2.07245 3.79015 1.29971C3.79015 1.10565 3.84798 0.933911 3.97701 0.784673C4.20535 0.520298 4.65271 0.47811 4.92658 0.695903C5.12152 0.850942 5.21081 1.05362 5.21099 1.29848C5.21152 2.04801 5.21117 2.79772 5.21117 3.54725C5.21117 3.57028 5.21117 3.59348 5.21117 3.61651C5.21204 3.74167 5.2588 3.78965 5.38238 3.79C5.65449 3.79053 5.9266 3.79 6.19871 3.79C6.69933 3.79 7.19978 3.78983 7.7004 3.79018C7.81941 3.79018 7.93542 3.80846 8.04318 3.8619C8.23495 3.95682 8.36292 4.10571 8.42058 4.31313C8.42673 4.33493 8.43605 4.35602 8.44396 4.37729V4.62374C8.39878 4.72305 8.36714 4.83204 8.30562 4.91993C8.16113 5.12612 7.94878 5.21084 7.70076 5.21102C6.93857 5.21137 6.17638 5.21102 5.41419 5.2112C5.38853 5.2112 5.36269 5.20979 5.3372 5.21243C5.26759 5.21999 5.21995 5.2678 5.2124 5.33741C5.20958 5.36272 5.21117 5.38874 5.21117 5.4144C5.21117 6.17659 5.21152 6.93877 5.21099 7.70096C5.21099 7.94565 5.12398 8.14991 4.92798 8.30389C4.83728 8.37508 4.72988 8.40743 4.62388 8.44399H4.37744L4.37726 8.44417Z" fill="#878787"/>
</g>
<defs>
<clipPath id="clip0_1328_1010">
<rect width="9" height="9" fill="white"/>
</clipPath>
</defs>
</svg>
