<svg width="16" height="16" viewBox="0 0 16 16" fill="none" xmlns="http://www.w3.org/2000/svg">
<path d="M7.77781 2.02344H8.05843C8.44218 2.11625 8.65749 2.37063 8.76312 2.74031C8.81312 2.91563 8.89187 3.0825 8.94437 3.25719C8.97343 3.35469 9.02281 3.37813 9.11874 3.3775C9.83187 3.37406 10.5453 3.37219 11.2584 3.37844C11.6494 3.38188 11.96 3.63875 12.0384 4.02313C12.0669 4.16219 12.0569 4.30969 12.0591 4.45312C12.0619 4.65438 12.0597 4.85594 12.0597 5.055C12.6822 5.12 13.1234 5.4775 13.2581 6.03562C13.2959 6.19187 13.2956 6.35938 13.2978 6.52187C13.3031 6.93031 13.2994 7.33875 13.2994 7.74563C13.3266 7.75563 13.3444 7.76344 13.3631 7.76875C13.7769 7.88719 14.0009 8.18062 14.0009 8.60656C14.0009 9.21844 14.0019 9.83031 14.0009 10.4422C14.0003 10.8134 13.7612 11.1291 13.4062 11.2325C13.3734 11.2422 13.34 11.25 13.2997 11.2609C13.2997 11.3084 13.2997 11.3506 13.2997 11.3928C13.2997 11.8331 13.3012 12.2738 13.2994 12.7141C13.2966 13.4269 12.7287 13.9984 12.0141 13.9991C9.11031 14.0009 6.20687 14.0006 3.30312 13.9991C2.93437 13.9991 2.62406 13.8547 2.36812 13.5891C2.18093 13.3947 2.08656 13.1556 2.02374 12.9003C2.02374 10.6547 2.02374 8.40906 2.02374 6.16344C2.07343 6.02219 2.10562 5.87156 2.17593 5.74125C2.39687 5.33156 2.75281 5.1125 3.22124 5.05594C3.17093 4.91625 3.12187 4.78188 3.07406 4.6475C2.90343 4.16906 3.11062 3.72281 3.58874 3.5475C4.19406 3.32562 4.80062 3.10781 5.40624 2.8875C6.19718 2.59969 6.98781 2.31156 7.77843 2.02344H7.77781ZM12.5953 7.75C12.5953 7.28937 12.5962 6.84531 12.5953 6.40156C12.5944 6.01 12.3512 5.76687 11.9606 5.76687C9.09562 5.76687 6.23062 5.76687 3.36562 5.76687C2.96781 5.76687 2.72687 6.00844 2.72687 6.40906C2.72656 8.49062 2.72656 10.5722 2.72687 12.6534C2.72687 13.0513 2.96999 13.2934 3.36937 13.2934C6.23031 13.2938 9.09156 13.2938 11.9525 13.2934C12.3516 13.2934 12.5944 13.0509 12.5953 12.6534C12.5962 12.2284 12.5953 11.8038 12.5953 11.3787C12.5953 11.3419 12.5953 11.305 12.5953 11.2634C12.1709 11.2634 11.7656 11.265 11.3603 11.2625C11.2556 11.2619 11.15 11.255 11.0462 11.2409C10.2781 11.1372 9.68156 10.5222 9.56156 9.71375C9.45624 9.00406 9.88062 8.23469 10.5497 7.91969C10.8081 7.79812 11.0787 7.745 11.3644 7.74844C11.7691 7.75312 12.1737 7.74969 12.5953 7.74969V7.75ZM8.22843 3.36219C8.16781 3.19125 8.11093 3.02687 8.05156 2.86344C8.00312 2.73062 7.96343 2.71125 7.83218 2.75875C6.50312 3.24187 5.17437 3.72563 3.84562 4.20969C3.72093 4.255 3.70312 4.29531 3.74843 4.42281C3.81093 4.59875 3.88062 4.77188 3.93781 4.94938C3.96468 5.03344 4.00406 5.06219 4.09406 5.06187C5.11093 5.05844 6.12812 5.05969 7.14499 5.05969H7.26218C7.26218 4.75656 7.26093 4.47219 7.26218 4.18813C7.26406 3.81438 7.51187 3.49281 7.87562 3.40375C7.98374 3.37719 8.09843 3.37687 8.22812 3.36219H8.22843ZM12.2066 10.5397V10.5569C12.5106 10.5569 12.8147 10.5575 13.1187 10.5569C13.2609 10.5566 13.2969 10.5194 13.2969 10.3753C13.2975 9.79844 13.2972 9.22156 13.2969 8.64469C13.2969 8.48719 13.2653 8.45719 13.1031 8.45687C12.5184 8.45687 11.9337 8.45594 11.3491 8.45781C11.2678 8.45781 11.1856 8.46625 11.1056 8.48031C10.6216 8.56406 10.2469 9.02875 10.2594 9.52531C10.2725 10.0366 10.6622 10.4953 11.1553 10.5344C11.5034 10.5619 11.8556 10.5397 12.2062 10.5397H12.2066ZM7.96656 5.05312H11.3544C11.3544 4.76375 11.3578 4.48031 11.3522 4.19719C11.3506 4.11375 11.2884 4.08094 11.2059 4.08156C11.0112 4.08344 10.8166 4.08219 10.6216 4.08219C9.79593 4.08219 8.96999 4.08281 8.14437 4.08125C8.04687 4.08125 7.96874 4.10063 7.96749 4.215C7.96437 4.49094 7.96656 4.76687 7.96656 5.05312Z" fill="black"/>
<path d="M10.9581 9.50319C10.959 9.30444 11.1153 9.15256 11.3159 9.15506C11.51 9.15725 11.6609 9.30912 11.6619 9.5035C11.6628 9.70162 11.5062 9.86006 11.3097 9.86006C11.1131 9.86006 10.9569 9.70162 10.9578 9.50319H10.9581Z" fill="black"/>
</svg>
