<svg width="16" height="16" viewBox="0 0 16 16" fill="none" xmlns="http://www.w3.org/2000/svg">
<path d="M8.40939 2.02344C8.61501 2.06156 8.82282 2.09094 9.02595 2.13937C10.6153 2.51781 11.88 3.87969 12.1609 5.485C12.2972 6.2625 12.1953 7.01094 11.9578 7.75031C11.5959 8.87812 11.0366 9.91031 10.4156 10.9119C9.78439 11.93 9.08407 12.8991 8.32939 13.8287C8.13126 14.0728 7.89158 14.0722 7.69408 13.8278C6.70033 12.5984 5.79314 11.3097 5.02907 9.92344C4.60751 9.15844 4.23876 8.37 3.99876 7.52688C3.87032 7.07625 3.78564 6.61812 3.79782 6.14656C3.82376 5.16188 4.14782 4.28688 4.77907 3.53125C5.40814 2.77844 6.2097 2.30625 7.16751 2.09938C7.31501 2.0675 7.46501 2.04844 7.61376 2.02344C7.87876 2.02344 8.14407 2.02344 8.40907 2.02344H8.40939ZM8.0072 13.0703C8.03126 13.0444 8.04782 13.0287 8.06157 13.0112C8.85376 11.9919 9.59126 10.9356 10.2325 9.81406C10.66 9.06625 11.0413 8.29688 11.2963 7.47031C11.4991 6.81313 11.5781 6.14875 11.4238 5.46875C10.9513 3.38781 8.75376 2.19125 6.74189 2.97406C5.14345 3.59625 4.1647 5.32719 4.63626 7.14313C4.81845 7.84438 5.09782 8.505 5.42782 9.14594C6.05189 10.3584 6.81251 11.4838 7.62689 12.5747C7.7497 12.7394 7.87689 12.9006 8.0072 13.0706V13.0703Z" fill="black"/>
<path d="M5.92126 5.87626C6.14251 4.93126 6.71814 4.36032 7.65626 4.1397C7.65626 4.02095 7.65501 3.90064 7.65626 3.78064C7.65876 3.57314 7.80564 3.42345 8.00626 3.42189C8.21407 3.42032 8.36407 3.56939 8.36657 3.7822C8.36814 3.89876 8.36657 4.01532 8.36657 4.13939C9.30189 4.35564 9.8797 4.93001 10.1013 5.8747C10.2141 5.8747 10.3259 5.87345 10.4375 5.8747C10.67 5.87751 10.8253 6.02439 10.8219 6.23689C10.8188 6.44157 10.6597 6.58689 10.4359 6.58845C10.3272 6.58939 10.2181 6.58845 10.1009 6.58845C9.88251 7.5222 9.30907 8.10033 8.36626 8.3197C8.36626 8.43595 8.36689 8.55189 8.36626 8.66782C8.36439 8.8822 8.21689 9.04001 8.01626 9.04345C7.8122 9.0472 7.65751 8.88564 7.65564 8.66657C7.6547 8.55376 7.65564 8.44095 7.65564 8.32032C6.72814 8.10376 6.14751 7.53782 5.9222 6.58845C5.80595 6.58845 5.68376 6.59064 5.56126 6.58814C5.35251 6.58376 5.19751 6.42595 5.20001 6.22376C5.20251 6.0397 5.34314 5.88689 5.52751 5.87751C5.65532 5.87095 5.78376 5.87626 5.92064 5.87626H5.92126ZM8.00689 7.61939C8.73001 7.62908 9.39657 7.05782 9.40626 6.22814C9.41501 5.47314 8.77845 4.83595 8.02845 4.83532C7.27157 4.8347 6.62845 5.41282 6.61751 6.23001C6.6072 6.9922 7.24001 7.61595 8.00689 7.61939Z" fill="black"/>
</svg>
