<svg width="39" height="39" viewBox="0 0 39 39" fill="none" xmlns="http://www.w3.org/2000/svg">
<path d="M37.8254 20.0614C37.4788 30.4909 28.8333 38.3914 18.5699 37.8209C8.37585 37.2542 0.807414 28.665 1.33071 18.6355C1.86316 8.42311 10.4363 0.911043 20.3143 1.33151C30.548 1.76721 38.0699 10.2741 37.8254 20.0622V20.0614ZM6.47917 28.4662C10.1263 24.8717 14.4833 22.9666 19.5823 22.9666C24.6812 22.9666 29.0352 24.8762 32.6617 28.4525C36.3721 23.3536 36.8588 14.6616 30.9494 8.52518C25.075 2.42534 15.3425 2.07495 8.99513 7.77337C2.64697 13.4718 2.31562 22.5324 6.47993 28.4662H6.47917Z" fill="black"/>
<path d="M19.5564 20.7828C15.5254 20.7538 12.25 17.464 12.2766 13.471C12.304 9.38975 15.6015 6.14788 19.692 6.18215C23.6605 6.21567 26.8986 9.53752 26.8757 13.5518C26.8529 17.5333 23.5356 20.811 19.5564 20.7828Z" fill="black"/>
</svg>
