<svg width="19" height="19" viewBox="0 0 19 19" fill="none" xmlns="http://www.w3.org/2000/svg">
<path d="M13.3412 5.43725C13.9238 5.51926 14.3595 5.79462 14.6441 6.29299C14.7833 6.53717 14.8545 6.80102 14.8545 7.0838C14.8541 9.1211 14.856 11.158 14.8534 13.1953C14.8523 14.0715 14.096 14.8244 13.2161 14.8252C10.7732 14.8274 8.33068 14.8274 5.88777 14.8252C5.06245 14.8244 4.34476 14.1739 4.25495 13.3527C4.24308 13.2432 4.23529 13.1323 4.23529 13.022C4.23417 11.0771 4.2312 9.13186 4.2364 7.18696C4.23825 6.50192 4.52548 5.96532 5.13779 5.63542C5.32482 5.53485 5.54005 5.48624 5.77087 5.40385C5.77087 5.28733 5.77087 5.13704 5.77087 4.98674C5.77087 4.88989 5.76902 4.79303 5.77161 4.69655C5.77978 4.41378 5.95976 4.22897 6.22472 4.22786C6.4945 4.22674 6.68488 4.41749 6.69081 4.70249C6.69527 4.90993 6.69156 5.11737 6.6923 5.32481C6.6923 5.35153 6.69638 5.37825 6.69935 5.41387H9.09698C9.09698 5.24503 9.09698 5.07618 9.09698 4.9077C9.09698 4.82458 9.09439 4.74182 9.0981 4.6587C9.10886 4.40821 9.30628 4.22637 9.56197 4.22786C9.80911 4.22934 10.0062 4.41229 10.0125 4.65721C10.0188 4.9051 10.014 5.15337 10.014 5.41239H12.4131C12.4153 5.36786 12.4194 5.31924 12.4198 5.27063C12.4209 5.07247 12.4146 4.87393 12.4224 4.67614C12.432 4.44161 12.5919 4.26051 12.8024 4.23008C13.0354 4.19631 13.2492 4.31766 13.3148 4.53178C13.3375 4.60489 13.3393 4.68579 13.3404 4.76335C13.3438 4.98378 13.3416 5.20458 13.3416 5.43577L13.3412 5.43725ZM9.5679 13.8819C10.7662 13.8819 11.9644 13.8826 13.1623 13.8819C13.6214 13.8815 13.9368 13.5675 13.9372 13.1107C13.9379 11.1154 13.9375 9.11999 13.9372 7.12462C13.9372 7.06524 13.9349 7.00438 13.9223 6.94649C13.837 6.55462 13.5538 6.34792 13.0977 6.34792C10.7428 6.34717 8.38783 6.34717 6.03324 6.34903C5.92822 6.34903 5.81948 6.35571 5.71929 6.38354C5.37677 6.47891 5.19011 6.75575 5.19011 7.1621C5.189 9.13001 5.18937 11.0975 5.19085 13.0655C5.19085 13.1567 5.19531 13.2514 5.21831 13.339C5.30478 13.6685 5.59238 13.8815 5.94677 13.8819C7.15431 13.883 8.36148 13.8822 9.56902 13.8822L9.5679 13.8819Z" fill="black"/>
<path d="M8.84131 10.2355C8.51289 9.9078 8.19672 9.59868 7.88797 9.28288C7.62004 9.00864 7.73545 8.60155 8.10506 8.50395C8.2791 8.45794 8.42012 8.52251 8.54183 8.6446C8.81533 8.91846 9.08957 9.19122 9.36232 9.4662C9.39795 9.50182 9.42504 9.54598 9.46512 9.59794C9.52115 9.54636 9.55789 9.51444 9.5924 9.47993C9.87295 9.20013 10.1498 8.91624 10.434 8.64052C10.7109 8.37221 11.1154 8.48391 11.2148 8.85167C11.2616 9.02497 11.2003 9.16747 11.0783 9.28956C10.8014 9.56639 10.5242 9.84323 10.2478 10.1204C10.2125 10.1557 10.1795 10.1924 10.1112 10.2648C10.1672 10.3026 10.2236 10.329 10.2656 10.3702C10.5379 10.6385 10.8085 10.9086 11.0771 11.181C11.2007 11.3061 11.2638 11.4545 11.213 11.633C11.1592 11.8208 11.0241 11.9228 10.8419 11.9648C10.6793 12.0023 10.5446 11.9432 10.43 11.8275C10.1505 11.5466 9.86998 11.2667 9.5898 10.9866C9.55789 10.9547 9.52375 10.9253 9.47996 10.8845C9.29664 11.069 9.11888 11.2478 8.94076 11.4267C8.81385 11.554 8.6873 11.6813 8.55928 11.8078C8.34144 12.023 8.07945 12.0379 7.88722 11.8464C7.68424 11.6445 7.69092 11.3825 7.90838 11.1647C8.21379 10.8582 8.52105 10.5539 8.84131 10.2355Z" fill="black"/>
</svg>
