<svg width="14" height="14" viewBox="0 0 14 14" fill="none" xmlns="http://www.w3.org/2000/svg">
<path d="M1.47137 5.16083C1.47137 4.61669 1.47 4.07255 1.47191 3.52814C1.47355 3.03267 1.85773 2.6072 2.34801 2.5547C3.79695 2.39966 5.14746 1.94958 6.39406 1.19462C6.62922 1.05216 6.87422 0.959465 7.14793 1.01689C7.29176 1.04696 7.43777 1.10111 7.56383 1.17657C8.29144 1.61189 9.05734 1.95779 9.86973 2.20005C10.4461 2.37204 11.0337 2.49099 11.632 2.55306C12.1308 2.60474 12.5237 3.02529 12.5245 3.52513C12.5264 4.58251 12.545 5.64044 12.5193 6.69728C12.4868 8.04341 12.0252 9.24407 11.1902 10.2995C10.6813 10.9427 10.0587 11.4526 9.34227 11.8497C8.75109 12.1772 8.15773 12.501 7.57039 12.8357C7.18047 13.0577 6.80668 13.0544 6.4173 12.8305C5.72797 12.434 5.01375 12.0783 4.34055 11.6563C2.81367 10.699 1.89492 9.31134 1.56133 7.54302C1.49953 7.21517 1.48504 6.87611 1.47465 6.54142C1.46043 6.08177 1.47109 5.6213 1.47109 5.16111L1.47137 5.16083ZM2.32805 5.13814C2.32805 5.45232 2.31875 5.76704 2.33023 6.08068C2.34555 6.49521 2.34172 6.91521 2.40871 7.32263C2.66301 8.87411 3.46172 10.0854 4.79363 10.9186C5.47832 11.3471 6.20156 11.7138 6.90621 12.1105C6.98988 12.1576 7.05578 12.1299 7.12824 12.0895C7.74211 11.7471 8.36309 11.4176 8.96984 11.063C10.6627 10.0734 11.5697 8.58864 11.6577 6.63439C11.7034 5.62294 11.6681 4.60767 11.6681 3.59431C11.6681 3.46552 11.6236 3.42232 11.495 3.40782C10.707 3.31896 9.93754 3.14833 9.18805 2.88857C8.47602 2.64193 7.79598 2.32665 7.15394 1.93181C7.04785 1.86646 6.96172 1.85607 6.85098 1.92689C6.66504 2.04583 6.4709 2.15247 6.27539 2.25501C5.10562 2.86915 3.8623 3.24732 2.55172 3.40482C2.35211 3.42888 2.32887 3.44993 2.32887 3.65091C2.32887 4.14665 2.32887 4.64239 2.32887 5.13786L2.32805 5.13814Z" fill="black"/>
<path d="M6.69293 7.23974C6.73695 7.18997 6.77387 7.14622 6.81297 7.10466C7.37844 6.50118 7.94363 5.89716 8.51074 5.29505C8.69723 5.09708 8.95262 5.08395 9.13555 5.2554C9.2966 5.40634 9.32176 5.64259 9.19242 5.82114C9.15879 5.86763 9.11832 5.90919 9.07922 5.95102C8.41094 6.66442 7.74266 7.37782 7.07383 8.0904C6.85207 8.32665 6.62293 8.3354 6.3782 8.11802C5.97461 7.75981 5.57047 7.40243 5.16906 7.04204C4.99105 6.88235 4.95824 6.66688 5.07473 6.48095C5.21664 6.25454 5.5073 6.2045 5.7184 6.38087C5.93223 6.55942 6.13648 6.74919 6.34539 6.93376C6.4575 7.03274 6.56988 7.13145 6.69293 7.23974Z" fill="black"/>
</svg>
