<svg width="38" height="38" viewBox="0 0 38 38" fill="none" xmlns="http://www.w3.org/2000/svg">
<path d="M28.4475 31.8529C28.1083 32.6428 27.5628 33.0007 26.7553 33C21.3677 32.9956 15.9795 32.9978 10.5919 32.9978C9.47641 32.9978 8.82106 32.3463 8.81884 31.2373C8.81884 30.9723 8.80844 30.7066 8.82255 30.4416C8.83219 30.2652 8.78395 30.2008 8.59395 30.2089C8.2518 30.2235 7.90743 30.2198 7.56528 30.2074C6.68876 30.1759 6.04157 29.5296 6.00966 28.6621C6.00595 28.5618 6.00743 28.4608 6.00743 28.3605C6.00743 22.9466 6.01337 17.5327 6.00001 12.1188C5.99852 11.4878 6.20559 11.001 6.65833 10.5611C8.34829 8.91702 10.0241 7.25829 11.6956 5.59591C12.0986 5.19477 12.5565 5.00445 13.1324 5.00591C16.7209 5.01543 20.3101 5.02714 23.8986 5.00006C24.9072 4.99274 25.7474 5.71449 25.6761 6.76126C25.6568 7.04381 25.6806 7.32856 25.6702 7.61112C25.665 7.75532 25.7132 7.80144 25.8595 7.79778C26.2209 7.78973 26.5831 7.78826 26.9445 7.80071C27.8003 7.82999 28.4608 8.48221 28.4994 9.32474C28.5039 9.42503 28.5016 9.52605 28.5016 9.62633C28.5016 15.2503 28.5031 20.8751 28.4964 26.4991C28.4964 26.7296 28.567 26.8841 28.731 27.0429C29.6825 27.9675 30.6332 28.892 31.5624 29.8377C32.5584 30.8523 32.0753 32.5147 30.6911 32.8551C30.0669 33.0088 29.4932 32.8726 29.013 32.4393C28.823 32.268 28.6575 32.0696 28.4504 31.8522L28.4475 31.8529ZM24.7796 15.8725C24.7796 15.7627 24.7796 15.7195 24.7796 15.6764C24.7796 12.6766 24.7803 9.67684 24.7788 6.67635C24.7788 6.16102 24.4953 5.88944 23.9647 5.88944C20.3665 5.88871 16.7677 5.89091 13.1695 5.88285C12.9491 5.88285 12.9187 5.95093 12.9202 6.14345C12.9283 7.49693 12.9254 8.8504 12.9246 10.2046C12.9246 11.2426 12.3257 11.8326 11.2695 11.8341C9.89723 11.8355 8.52419 11.8392 7.15188 11.8289C6.93887 11.8275 6.88766 11.8875 6.89212 12.0903C6.90622 12.6663 6.89731 13.2424 6.89731 13.8185C6.89731 18.7025 6.89731 23.5864 6.89731 28.4704C6.89731 29.0933 7.14001 29.3297 7.77309 29.3305C8.47817 29.3305 9.18251 29.3305 9.88759 29.3305C14.5619 29.3305 19.2362 29.329 23.9097 29.3334C24.2749 29.3334 24.5814 29.2529 24.7202 28.892C24.8508 28.5531 24.83 28.2332 24.4961 27.9938C24.4144 27.9353 24.3461 27.8562 24.2816 27.7793C24.1673 27.6425 24.0945 27.458 24.2177 27.327C24.479 27.0503 24.2734 26.9141 24.0916 26.7531C24.0159 26.6857 23.9372 26.6184 23.8778 26.5379C23.7546 26.3732 23.6485 26.3841 23.4748 26.4932C21.8806 27.4946 20.1446 27.8503 18.2914 27.4756C14.4958 26.7091 12.1023 23.2782 12.6953 19.5004C13.3091 15.5914 17.3518 12.9379 21.2549 13.8749C22.6042 14.1984 23.7583 14.8507 24.7788 15.8718L24.7796 15.8725ZM25.6272 29.1138C25.5997 29.1482 25.5774 29.1672 25.567 29.1914C25.2575 29.9051 24.7002 30.2257 23.9231 30.2147C23.3479 30.2067 22.7734 30.2133 22.1982 30.2133C18.1266 30.2133 14.0557 30.2147 9.98407 30.2089C9.77106 30.2089 9.68497 30.2528 9.70426 30.4782C9.72579 30.7235 9.70872 30.9716 9.70946 31.219C9.71094 31.8647 9.967 32.1201 10.6134 32.1209C15.9735 32.1209 21.3343 32.1209 26.6944 32.1209C26.7872 32.1209 26.8814 32.1267 26.972 32.1135C27.2384 32.0747 27.4477 31.9379 27.5405 31.6875C27.6222 31.4679 27.7134 31.1978 27.5346 31.0111C26.9178 30.3684 26.2721 29.7528 25.6272 29.116V29.1138ZM13.4827 20.6569C13.4842 24.0058 16.2652 26.7421 19.6629 26.737C23.0451 26.7326 25.8186 23.9978 25.8231 20.662C25.8283 17.3153 23.0488 14.5696 19.654 14.5674C16.2593 14.5652 13.4813 17.3058 13.482 20.6562L13.4827 20.6569ZM27.6081 25.9523V25.7246C27.6081 20.3217 27.6081 14.918 27.6081 9.51507C27.6081 9.47847 27.6095 9.44186 27.6081 9.40526C27.588 8.96533 27.3164 8.6901 26.8725 8.67619C26.5668 8.66667 26.2595 8.68863 25.9552 8.6674C25.7229 8.6513 25.6657 8.72377 25.6665 8.95215C25.6754 11.5669 25.6732 14.1816 25.6695 16.7963C25.6695 16.9588 25.714 17.0942 25.7912 17.2348C27.0225 19.4879 27.0225 21.7491 25.8313 24.0183C25.7162 24.2372 25.4275 24.4414 25.5047 24.6632C25.5826 24.8886 25.8617 25.0446 26.0472 25.2371C26.1259 25.3183 26.1734 25.3249 26.2721 25.2481C26.5393 25.0394 26.7137 25.0541 26.9542 25.2876C27.1575 25.4845 27.352 25.6902 27.6095 25.9515L27.6081 25.9523ZM12.034 6.54312C11.5568 6.93475 7.70704 10.7617 7.59794 10.952C8.88118 10.952 10.1577 10.9571 11.4343 10.9483C11.8024 10.9461 12.031 10.7002 12.0325 10.332C12.037 9.08172 12.034 7.83145 12.034 6.54239V6.54312ZM31.1884 31.006C31.1965 30.8406 31.0956 30.6217 30.9115 30.438C29.9452 29.4791 28.9752 28.5238 28.0125 27.5612C27.8856 27.4346 27.8151 27.4558 27.7031 27.5707C27.3624 27.9191 27.0158 28.2632 26.661 28.597C26.5341 28.7163 26.5452 28.7873 26.6647 28.903C27.2139 29.4337 27.7543 29.9732 28.2983 30.509C28.7243 30.9284 29.1451 31.3537 29.5778 31.7658C29.8821 32.055 30.2517 32.1099 30.6325 31.9466C30.9947 31.7915 31.1817 31.4994 31.1884 31.006ZM27.2021 26.7794C27.1776 26.7523 27.1479 26.7179 27.116 26.6865C26.9987 26.5701 26.8711 26.4617 26.7649 26.3358C26.6454 26.1931 26.5579 26.1762 26.422 26.327C26.2068 26.5649 25.9678 26.7823 25.7392 27.0085C25.2256 27.5151 25.2286 27.5122 25.7518 28.0033C25.8535 28.0985 25.9099 28.1161 26.0153 28.0085C26.3753 27.641 26.7464 27.2838 27.1115 26.9214C27.1479 26.8848 27.2058 26.8592 27.2013 26.7801L27.2021 26.7794ZM24.8946 25.3666C24.8612 25.3828 24.8375 25.3937 24.8145 25.4062C24.4397 25.617 24.4092 25.8154 24.7076 26.1096C24.7855 26.1865 24.8649 26.2626 24.9421 26.3409C24.9985 26.398 25.0445 26.4229 25.1299 26.3673C25.5173 26.1118 25.5366 25.9801 25.2152 25.6624C25.144 25.5921 25.0727 25.5204 25 25.4508C24.9681 25.4201 24.931 25.3952 24.8954 25.3666H24.8946Z" fill="#030303"/>
<path d="M24.7796 15.8724C23.7583 14.8512 22.6042 14.199 21.2557 13.8755C17.3525 12.9385 13.3098 15.592 12.696 19.5009C12.103 23.2795 14.4966 26.7097 18.2921 27.4761C20.1461 27.8502 21.8813 27.4952 23.4756 26.4938C23.6492 26.3847 23.7554 26.3737 23.8786 26.5384C23.9387 26.6182 24.0166 26.6863 24.0923 26.7536C24.2742 26.9154 24.4797 27.0508 24.2185 27.3275C24.0953 27.4586 24.168 27.643 24.2823 27.7799C24.3469 27.8575 24.4152 27.9366 24.4968 27.9944C24.8308 28.2338 24.8516 28.5529 24.721 28.8926C24.5822 29.2534 24.2756 29.334 23.9105 29.334C19.2362 29.3288 14.5619 29.331 9.88833 29.331C9.18326 29.331 8.47892 29.331 7.77384 29.331C7.14076 29.331 6.89806 29.0939 6.89806 28.4709C6.89732 23.587 6.89806 18.703 6.89806 13.8191C6.89806 13.243 6.90697 12.6662 6.89287 12.0908C6.88767 11.8888 6.93888 11.828 7.15263 11.8295C8.52494 11.8398 9.89798 11.8361 11.2703 11.8346C12.3264 11.8332 12.9246 11.2439 12.9254 10.2052C12.9254 8.85171 12.9298 7.49823 12.9209 6.14402C12.9194 5.9515 12.9499 5.8827 13.1703 5.88343C16.7684 5.89148 20.3673 5.88855 23.9654 5.89002C24.4953 5.89002 24.7788 6.16232 24.7796 6.67692C24.7818 9.67668 24.7803 12.6764 24.7803 15.6769C24.7803 15.7201 24.7803 15.764 24.7803 15.8731L24.7796 15.8724ZM18.9616 11.973C20.083 11.973 21.2037 11.9737 22.3252 11.973C22.7579 11.973 22.907 11.8266 22.9085 11.3947C22.9108 10.4716 22.9108 9.54858 22.9085 8.62552C22.907 8.19364 22.7608 8.04651 22.3259 8.04651C20.1023 8.04504 17.878 8.04504 15.6544 8.04651C15.2017 8.04651 15.054 8.19364 15.0532 8.63943C15.0517 9.55297 15.0517 10.4672 15.0532 11.3808C15.054 11.8273 15.2031 11.9723 15.6544 11.973C16.7573 11.9737 17.8594 11.973 18.9623 11.973H18.9616ZM11.8247 15.0079C12.696 15.0079 13.5674 15.0108 14.4387 15.0064C14.7289 15.005 14.9152 14.8337 14.9241 14.587C14.933 14.3308 14.7393 14.1463 14.4417 14.1302C14.3771 14.1265 14.3118 14.1295 14.2472 14.1295C12.9217 14.1295 11.5961 14.1295 10.2706 14.1295C9.98334 14.1295 9.69611 14.1295 9.40814 14.1295C9.36212 14.1295 9.31537 14.128 9.26935 14.1295C8.96951 14.1412 8.76912 14.3176 8.76763 14.5701C8.76615 14.8249 8.96134 15.005 9.26638 15.0064C10.1192 15.0108 10.9719 15.0079 11.8247 15.0079ZM11.8566 26.2976C11.0038 26.2976 10.1511 26.2998 9.2983 26.2961C9.04892 26.2954 8.86189 26.373 8.7899 26.6263C8.70158 26.9381 8.93017 27.1753 9.32205 27.1753C11.0001 27.1767 12.6775 27.1767 14.3556 27.1753C14.7207 27.1753 14.9322 27.004 14.9241 26.7222C14.9159 26.4491 14.7185 26.2976 14.3593 26.2976C13.5251 26.2961 12.6908 26.2976 11.8566 26.2976ZM10.6699 24.1331C11.1241 24.1331 11.5783 24.136 12.0325 24.1323C12.3769 24.1294 12.5877 23.9523 12.5795 23.6836C12.5721 23.4245 12.3695 23.2554 12.0392 23.2539C11.1308 23.2495 10.2216 23.2495 9.31314 23.2539C8.96876 23.2554 8.75947 23.4362 8.76763 23.7056C8.77505 23.9676 8.97396 24.1294 9.3072 24.1331C9.76142 24.1375 10.2156 24.1338 10.6699 24.1338V24.1331ZM10.6832 18.0574C11.1285 18.0574 11.5731 18.0603 12.0184 18.0567C12.3635 18.0538 12.5765 17.8817 12.5788 17.6153C12.5817 17.3452 12.3754 17.179 12.0251 17.1783C11.1256 17.1761 10.226 17.1768 9.3265 17.1783C8.97099 17.1783 8.76912 17.3371 8.76689 17.6087C8.76466 17.8773 8.97693 18.053 9.32056 18.056C9.77478 18.0603 10.229 18.0567 10.684 18.0567L10.6832 18.0574ZM10.2817 21.0908C10.6327 21.0908 10.9845 21.096 11.3356 21.0894C11.6236 21.0843 11.8054 20.9152 11.8113 20.6634C11.8173 20.4013 11.6302 20.2168 11.3297 20.2146C10.6365 20.2088 9.94326 20.2088 9.24931 20.2146C8.96876 20.2168 8.77505 20.3991 8.76912 20.6421C8.76244 20.8961 8.96134 21.085 9.25599 21.0894C9.59814 21.0952 9.94029 21.0908 10.2824 21.0901L10.2817 21.0908Z" fill="#EDF2F5"/>
<path d="M25.6272 29.1139C26.2721 29.7507 26.9178 30.3671 27.5346 31.0091C27.7134 31.1957 27.6222 31.4658 27.5405 31.6854C27.4477 31.9358 27.2384 32.0727 26.972 32.1115C26.8807 32.1246 26.7872 32.1188 26.6944 32.1188C21.3343 32.1188 15.9735 32.1188 10.6134 32.1188C9.967 32.1188 9.71094 31.8626 9.70946 31.2169C9.70946 30.9703 9.72579 30.7214 9.70426 30.4762C9.68497 30.2507 9.77106 30.2068 9.98407 30.2068C14.0557 30.2126 18.1266 30.2112 22.1982 30.2112C22.7734 30.2112 23.3486 30.2046 23.9231 30.2126C24.7002 30.2236 25.2575 29.9037 25.567 29.1893C25.5774 29.1659 25.5997 29.1468 25.6272 29.1117V29.1139Z" fill="#DFE0E0"/>
<path d="M13.4827 20.6569C13.4812 17.3065 16.2593 14.5659 19.6548 14.5681C23.0495 14.5703 25.829 17.3161 25.8238 20.6628C25.8186 23.9978 23.0458 26.7326 19.6637 26.7377C16.2659 26.7421 13.485 24.0066 13.4835 20.6577L13.4827 20.6569ZM14.2932 20.6482C14.2902 23.5696 16.6719 25.9259 19.6399 25.9376C22.5968 25.9493 24.9993 23.5937 25.0104 20.6716C25.0215 17.7392 22.6257 15.3697 19.6503 15.3689C16.689 15.3689 14.2962 17.7267 14.2939 20.6474L14.2932 20.6482Z" fill="#4191F9"/>
<path d="M27.6081 25.9523C27.3513 25.691 27.1561 25.4853 26.9527 25.2883C26.7122 25.0556 26.5378 25.0402 26.2706 25.2488C26.1719 25.3257 26.1244 25.3191 26.0458 25.2378C25.8609 25.0461 25.5811 24.8894 25.5032 24.6639C25.4268 24.4422 25.7147 24.2379 25.8298 24.0191C27.021 21.7498 27.0202 19.4887 25.7897 17.2356C25.7132 17.095 25.668 16.9603 25.668 16.7971C25.6724 14.1824 25.6739 11.5676 25.665 8.95291C25.6643 8.72453 25.7207 8.65206 25.9537 8.66816C26.258 8.68939 26.5653 8.6667 26.8711 8.67695C27.3149 8.69086 27.5865 8.96609 27.6066 9.40603C27.6081 9.44263 27.6066 9.47923 27.6066 9.51583C27.6066 14.9188 27.6066 20.3224 27.6066 25.7254V25.953L27.6081 25.9523Z" fill="#DFE0E0"/>
<path d="M12.034 6.54321C12.034 7.83227 12.037 9.08254 12.0325 10.3328C12.031 10.7017 11.8024 10.947 11.4343 10.9492C10.1577 10.9579 8.88117 10.9528 7.59793 10.9528C7.70703 10.7618 11.556 6.93557 12.034 6.54394V6.54321Z" fill="#E1E2E2"/>
<path d="M31.1884 31.006C31.1817 31.5001 30.9947 31.7922 30.6325 31.9466C30.2517 32.1091 29.8821 32.0549 29.5778 31.7658C29.1444 31.3537 28.7236 30.9284 28.2983 30.509C27.7543 29.9731 27.214 29.4336 26.6647 28.9029C26.5453 28.7873 26.5341 28.7163 26.661 28.597C27.0158 28.2624 27.3624 27.9191 27.7031 27.5707C27.8151 27.4558 27.8856 27.4345 28.0126 27.5612C28.9744 28.5245 29.9445 29.4798 30.9115 30.438C31.0963 30.621 31.1965 30.8398 31.1884 31.006Z" fill="#6E7A89"/>
<path d="M27.2021 26.7795C27.2065 26.8578 27.1487 26.8841 27.1123 26.9207C26.7471 27.2838 26.376 27.6403 26.0161 28.0078C25.9107 28.1154 25.8543 28.0985 25.7526 28.0026C25.2294 27.5115 25.2264 27.5144 25.74 27.0078C25.9686 26.7817 26.2083 26.565 26.4228 26.3264C26.5586 26.1756 26.6462 26.1924 26.7657 26.3351C26.8711 26.461 26.9995 26.5694 27.1167 26.6858C27.1487 26.7172 27.1776 26.7516 27.2028 26.7787L27.2021 26.7795Z" fill="#91A6B6"/>
<path d="M24.8946 25.3666C24.9302 25.3951 24.9666 25.42 24.9993 25.4508C25.072 25.5196 25.1425 25.5913 25.2145 25.6623C25.5359 25.9793 25.5173 26.1118 25.1292 26.3672C25.0438 26.4236 24.9978 26.398 24.9414 26.3409C24.8642 26.2633 24.7855 26.1872 24.7068 26.1096C24.4085 25.8153 24.4389 25.6169 24.8137 25.4061C24.8367 25.3929 24.8605 25.3827 24.8939 25.3666H24.8946Z" fill="#445963"/>
<path d="M18.9616 11.9731C17.8587 11.9731 16.7565 11.9731 15.6536 11.9731C15.2024 11.9731 15.0532 11.8274 15.0525 11.3809C15.051 10.4674 15.051 9.5531 15.0525 8.63955C15.0532 8.19376 15.2009 8.04736 15.6536 8.04663C17.8772 8.04517 20.1016 8.04517 22.3252 8.04663C22.7601 8.04663 22.907 8.19376 22.9078 8.62565C22.91 9.54871 22.91 10.4718 22.9078 11.3948C22.9063 11.8267 22.7579 11.9724 22.3244 11.9731C21.203 11.9746 20.0823 11.9731 18.9608 11.9731H18.9616ZM18.9653 11.0947C19.8923 11.0947 20.8193 11.0888 21.7463 11.0991C21.9481 11.1013 22.0216 11.0559 22.0157 10.8429C22.0001 10.2858 22.0038 9.72731 22.0142 9.17026C22.0179 8.98433 21.9674 8.91772 21.7678 8.91845C19.9042 8.92504 18.0413 8.9243 16.1776 8.91918C15.9995 8.91918 15.9335 8.96676 15.9372 9.15049C15.9476 9.71707 15.9483 10.2844 15.9372 10.8509C15.9335 11.0405 15.9861 11.1013 16.1843 11.0991C17.1113 11.0896 18.0383 11.0947 18.9653 11.0947Z" fill="#050505"/>
<path d="M11.8247 15.0082C10.9719 15.0082 10.1191 15.0111 9.26637 15.0067C8.96133 15.0052 8.76613 14.8252 8.76762 14.5704C8.7691 14.3186 8.96949 14.1422 9.26934 14.1298C9.31535 14.1276 9.36211 14.1298 9.40812 14.1298C9.69535 14.1298 9.98258 14.1298 10.2705 14.1298C11.5961 14.1298 12.9216 14.1298 14.2472 14.1298C14.3118 14.1298 14.3771 14.1268 14.4416 14.1305C14.7393 14.1459 14.9337 14.3303 14.9241 14.5873C14.9152 14.834 14.7289 15.0052 14.4387 15.0067C13.5673 15.0118 12.696 15.0082 11.8247 15.0082Z" fill="#050505"/>
<path d="M11.8566 26.2977C12.6908 26.2977 13.5251 26.297 14.3593 26.2977C14.7185 26.2977 14.9167 26.4493 14.9241 26.7223C14.9322 27.0041 14.7207 27.1747 14.3556 27.1754C12.6775 27.1761 11.0001 27.1769 9.32205 27.1754C8.92944 27.1754 8.70158 26.9375 8.7899 26.6264C8.86115 26.3731 9.04893 26.2955 9.2983 26.2963C10.1511 26.2999 11.0038 26.2977 11.8566 26.2977Z" fill="#030303"/>
<path d="M10.6699 24.1332C10.2156 24.1332 9.76141 24.1361 9.3072 24.1324C8.97321 24.1295 8.77505 23.967 8.76763 23.7049C8.75946 23.4363 8.96876 23.2555 9.31313 23.2533C10.2216 23.2489 11.1308 23.2489 12.0392 23.2533C12.3702 23.2548 12.5721 23.4246 12.5795 23.683C12.5877 23.9509 12.3769 24.128 12.0325 24.1317C11.5783 24.1361 11.1241 24.1324 10.6699 24.1324V24.1332Z" fill="#070707"/>
<path d="M10.6832 18.0575C10.229 18.0575 9.77476 18.0604 9.3198 18.0568C8.97617 18.0538 8.7639 17.8774 8.76613 17.6095C8.76836 17.3379 8.97097 17.1798 9.32574 17.1791C10.2253 17.1776 11.1248 17.1776 12.0243 17.1791C12.3746 17.1791 12.581 17.346 12.578 17.6161C12.575 17.8825 12.362 18.0546 12.0177 18.0575C11.5723 18.0611 11.1278 18.0582 10.6825 18.0582L10.6832 18.0575Z" fill="#060606"/>
<path d="M10.2817 21.0909C9.93952 21.0909 9.59738 21.0953 9.25523 21.0895C8.96058 21.0843 8.76167 20.8962 8.76835 20.6422C8.77503 20.3992 8.96874 20.2169 9.24855 20.2147C9.94175 20.2089 10.635 20.2089 11.3289 20.2147C11.6295 20.2169 11.8173 20.4014 11.8106 20.6634C11.8046 20.9145 11.6228 21.0836 11.3348 21.0895C10.9838 21.0961 10.632 21.0909 10.2809 21.0909H10.2817Z" fill="#030303"/>
<path d="M14.2932 20.6481C14.2962 17.7267 16.6883 15.3689 19.6496 15.3696C22.625 15.3696 25.0208 17.7399 25.0097 20.6723C24.9985 23.5937 22.5961 25.95 19.6392 25.9383C16.6719 25.9266 14.2903 23.5703 14.2925 20.6489L14.2932 20.6481ZM15.1809 20.6474C15.1787 23.0828 17.1729 25.0541 19.6459 25.0614C22.1122 25.0687 24.1153 23.0959 24.1183 20.6576C24.1213 18.2179 22.1292 16.248 19.6563 16.2466C17.1826 16.2451 15.1831 18.2105 15.1809 20.6467V20.6474Z" fill="#020304"/>
<path d="M18.9653 11.0947C18.0383 11.0947 17.1113 11.0896 16.1843 11.0991C15.9861 11.1013 15.9335 11.0413 15.9372 10.851C15.949 10.2844 15.9483 9.71707 15.9372 9.1505C15.9335 8.96677 15.9995 8.91846 16.1776 8.91919C18.0413 8.92431 19.9042 8.92505 21.7678 8.91846C21.9674 8.91846 22.0179 8.98434 22.0142 9.17027C22.0038 9.72806 22.0001 10.2858 22.0157 10.8429C22.0216 11.0559 21.9481 11.1013 21.7463 11.0991C20.8193 11.0889 19.8923 11.0947 18.9653 11.0947Z" fill="#E63A46"/>
<path d="M15.1809 20.6474C15.1831 18.2113 17.1826 16.2459 19.6563 16.2473C22.1285 16.2488 24.1213 18.2179 24.1183 20.6584C24.1153 23.0967 22.1122 25.0687 19.6459 25.0621C17.1729 25.0548 15.1787 23.0835 15.1809 20.6481V20.6474ZM15.9246 20.5625C15.9156 20.8611 16.0329 21.1122 16.2177 21.3406C16.6972 21.9335 17.1737 22.5287 17.6546 23.1201C18.1281 23.7021 18.8814 23.7504 19.4292 23.2321C19.6897 22.9854 19.9413 22.7292 20.1973 22.4774C21.0753 21.6115 21.9593 20.7506 22.8299 19.8766C23.3635 19.3415 23.2848 18.5231 22.6799 18.1132C22.2087 17.7933 21.6201 17.8489 21.1867 18.272C20.4022 19.037 19.6214 19.8049 18.848 20.5808C18.7122 20.7169 18.6476 20.7008 18.5415 20.5596C18.3493 20.3026 18.1496 20.0494 17.9351 19.81C17.6145 19.452 17.1083 19.3386 16.6667 19.504C16.2222 19.6709 15.926 20.0925 15.9238 20.5632L15.9246 20.5625Z" fill="#ECF1F4"/>
<path d="M15.9245 20.5624C15.9268 20.0924 16.2229 19.6701 16.6675 19.5032C17.1091 19.3377 17.6152 19.4512 17.9359 19.8091C18.1504 20.0485 18.35 20.3018 18.5422 20.5587C18.6476 20.7 18.7129 20.7168 18.8487 20.5799C19.6221 19.804 20.4029 19.0354 21.1874 18.2712C21.6216 17.8481 22.2094 17.7925 22.6807 18.1123C23.2855 18.523 23.3635 19.3407 22.8306 19.8757C21.96 20.749 21.0768 21.6099 20.198 22.4766C19.9427 22.7284 19.6911 22.9846 19.4299 23.2313C18.8821 23.7495 18.1288 23.7012 17.6553 23.1193C17.1744 22.5278 16.6979 21.932 16.2184 21.3398C16.0336 21.1114 15.9164 20.8603 15.9253 20.5616L15.9245 20.5624ZM22.2858 19.0647C22.2925 18.8568 22.0906 18.725 21.9066 18.8268C21.8279 18.87 21.7633 18.9402 21.698 19.0047C20.8133 19.8757 19.9309 20.7483 19.0454 21.6179C18.7456 21.9122 18.4977 21.899 18.2312 21.5747C17.9284 21.2058 17.6301 20.8332 17.331 20.4614C17.2107 20.3113 17.0653 20.2461 16.9042 20.3823C16.7536 20.5104 16.804 20.6539 16.9154 20.7915C17.3889 21.3764 17.8557 21.9664 18.3314 22.5498C18.5021 22.7598 18.6432 22.765 18.8398 22.571C19.9479 21.4818 21.053 20.3896 22.1596 19.2989C22.2272 19.2323 22.2858 19.165 22.2851 19.0647H22.2858Z" fill="#030304"/>
<path d="M22.2851 19.0647C22.2858 19.165 22.2272 19.2331 22.1604 19.299C21.0538 20.3897 19.9487 21.4818 18.8406 22.571C18.6439 22.7643 18.5029 22.7592 18.3322 22.5498C17.8572 21.9664 17.3896 21.3764 16.9161 20.7915C16.8048 20.6539 16.7535 20.5097 16.905 20.3824C17.066 20.2462 17.2115 20.3113 17.3317 20.4614C17.6308 20.8333 17.9292 21.2059 18.232 21.5748C18.4984 21.8991 18.7463 21.9122 19.0462 21.618C19.9316 20.7476 20.8141 19.8751 21.6987 19.0047C21.7641 18.941 21.8286 18.87 21.9073 18.8268C22.0914 18.7251 22.2932 18.8569 22.2858 19.0647H22.2851Z" fill="#408FF6"/>
</svg>
