<?xml version="1.0" encoding="UTF-8"?>
<svg width="24px" height="24px" viewBox="0 0 24 24" version="1.1" xmlns="http://www.w3.org/2000/svg" xmlns:xlink="http://www.w3.org/1999/xlink">
    <title>mdpi/Icon/24x/ShareApp</title>
    <g id="Icon/24x/ShareApp" stroke="none" stroke-width="1" fill="none" fill-rule="evenodd">
        <polygon id="Path" points="0 0 24 0 24 24 0 24"></polygon>
        <polygon id="Path" points="0 0 24 0 24 24 0 24"></polygon>
        <path d="M17,1 L7,1 C5.9,1 5.01,1.9 5.01,3 L5.01,21 C5.01,22.1 5.9,23 7,23 L17,23 C18.1,23 19,22.1 19,21 L19,3 C19,1.9 18.1,1 17,1 Z M17,19 L7,19 L7,5 L17,5 L17,19 Z M12.8,13.22 L12.8,14.97 L15.61,12.35 C15.82,12.15 15.82,11.82 15.61,11.62 L12.8,9 L12.8,10.7 C9.69,11.13 8.45,13.26 8,15.4 C9.11,13.9 10.58,13.22 12.8,13.22 Z" id="Shape" fill="#AFAFAF"></path>
    </g>
</svg>