<svg width="11" height="16" viewBox="0 0 11 16" fill="none" xmlns="http://www.w3.org/2000/svg">
<path d="M10.1438 3.02161L6.35125 1.88411L8.22625 0.946606C8.34469 0.886932 8.43457 0.782654 8.47612 0.656712C8.51767 0.530769 8.50749 0.393479 8.44781 0.275044C8.38814 0.156608 8.28386 0.0667282 8.15792 0.0251771C8.03198 -0.0163739 7.89469 -0.00619267 7.77625 0.053481L4.875 1.50348C3.57112 1.53736 2.33197 2.07891 1.42142 3.0128C0.51087 3.9467 0.000862973 5.19916 0 6.50348V13.0004C0 13.133 0.0526785 13.2601 0.146447 13.3539C0.240215 13.4477 0.367392 13.5004 0.5 13.5004C0.632608 13.5004 0.759785 13.4477 0.853553 13.3539C0.947321 13.2601 1 13.133 1 13.0004V11.0004H2V14.5004C2 14.7656 2.10536 15.0199 2.29289 15.2075C2.48043 15.395 2.73478 15.5004 3 15.5004H7C7.26522 15.5004 7.51957 15.395 7.70711 15.2075C7.89464 15.0199 8 14.7656 8 14.5004V6.50036C7.999 5.79173 7.74755 5.10626 7.29008 4.56507C6.83261 4.02388 6.19857 3.66182 5.5 3.54286V2.67223L9.85625 3.97911C9.91961 3.99974 9.98646 4.00751 10.0529 4.00194C10.1193 3.99638 10.1839 3.9776 10.2429 3.9467C10.302 3.9158 10.3542 3.87342 10.3967 3.82203C10.4391 3.77065 10.4708 3.7113 10.49 3.64748C10.5091 3.58366 10.5154 3.51665 10.5083 3.45039C10.5012 3.38413 10.4809 3.31997 10.4486 3.26166C10.4164 3.20335 10.3728 3.15207 10.3204 3.11085C10.2681 3.06963 10.208 3.03928 10.1438 3.02161ZM1 10.0004V6.50036C1.00121 5.52654 1.35724 4.58654 2.00146 3.85627C2.64568 3.126 3.53394 2.65551 4.5 2.53286V3.54286C3.80143 3.66182 3.16739 4.02388 2.70992 4.56507C2.25245 5.10626 2.001 5.79173 2 6.50036V10.0004H1ZM7 14.5004H3V11.0004H7V14.5004ZM7 6.50036V10.0004H3V6.50036C3 5.96992 3.21071 5.46122 3.58579 5.08614C3.96086 4.71107 4.46957 4.50036 5 4.50036C5.53043 4.50036 6.03914 4.71107 6.41421 5.08614C6.78929 5.46122 7 5.96992 7 6.50036Z" fill="#FF9100"/>
</svg>
