<svg width="331" height="290" viewBox="0 0 331 290" fill="none" xmlns="http://www.w3.org/2000/svg">
<g filter="url(#filter0_d_2001_3032)">
<path d="M301 10C312.046 10 321 18.9543 321 30V61.2031C320.673 61.1564 320.34 61.1309 320 61.1309C316.134 61.1309 313 64.2649 313 68.1309C313 71.9969 316.134 75.1309 320 75.1309C320.34 75.1309 320.673 75.1053 321 75.0586V260C321 267.248 317.144 273.596 311.372 277.104C310.27 274.683 307.833 273 305 273C301.134 273 298 276.134 298 280H289C289 276.134 285.866 273 282 273C278.134 273 275 276.134 275 280H266C266 276.134 262.866 273 259 273C255.134 273 252 276.134 252 280H243C243 276.134 239.866 273 236 273C232.134 273 229 276.134 229 280H220C220 276.134 216.866 273 213 273C209.134 273 206 276.134 206 280H197C197 276.134 193.866 273 190 273C186.134 273 183 276.134 183 280H174C174 276.134 170.866 273 167 273C163.134 273 160 276.134 160 280H151C151 276.134 147.866 273 144 273C140.134 273 137 276.134 137 280H128C128 276.134 124.866 273 121 273C117.134 273 114 276.134 114 280H105C105 276.134 101.866 273 98 273C94.134 273 91 276.134 91 280H82C82 276.134 78.866 273 75 273C71.134 273 68 276.134 68 280H59C59 276.134 55.866 273 52 273C48.134 273 45 276.134 45 280H36C36 276.134 32.866 273 29 273C25.6796 273 22.9013 275.312 22.1826 278.414C15.0217 275.37 10 268.272 10 260V75.0576C10.3267 75.1044 10.6604 75.1309 11 75.1309C14.866 75.1309 18 71.9968 18 68.1309C18 64.2649 14.866 61.1309 11 61.1309C10.6604 61.1309 10.3267 61.1564 10 61.2031V30C10 18.9543 18.9543 10 30 10H301Z" fill="white"/>
</g>
<defs>
<filter id="filter0_d_2001_3032" x="0" y="0" width="331" height="290" filterUnits="userSpaceOnUse" color-interpolation-filters="sRGB">
<feFlood flood-opacity="0" result="BackgroundImageFix"/>
<feColorMatrix in="SourceAlpha" type="matrix" values="0 0 0 0 0 0 0 0 0 0 0 0 0 0 0 0 0 0 127 0" result="hardAlpha"/>
<feOffset/>
<feGaussianBlur stdDeviation="5"/>
<feComposite in2="hardAlpha" operator="out"/>
<feColorMatrix type="matrix" values="0 0 0 0 0 0 0 0 0 0 0 0 0 0 0 0 0 0 0.2 0"/>
<feBlend mode="normal" in2="BackgroundImageFix" result="effect1_dropShadow_2001_3032"/>
<feBlend mode="normal" in="SourceGraphic" in2="effect1_dropShadow_2001_3032" result="shape"/>
</filter>
</defs>
</svg>
