<svg width="14" height="14" viewBox="0 0 14 14" fill="none" xmlns="http://www.w3.org/2000/svg">
<path d="M2.42435 10.9093C1.8672 10.3522 1.42524 9.69074 1.12371 8.96279C0.822187 8.23483 0.666992 7.45462 0.666992 6.66669C0.666992 5.87876 0.822187 5.09854 1.12371 4.37059C1.42524 3.64263 1.8672 2.9812 2.42435 2.42405C2.9815 1.86689 3.64294 1.42494 4.37089 1.12341C5.09885 0.821882 5.87906 0.666687 6.66699 0.666687C7.45492 0.666687 8.23514 0.821882 8.96309 1.12341C9.69105 1.42494 10.3525 1.86689 10.9096 2.42405M2.42435 10.9093C2.9815 11.4665 3.64294 11.9084 4.37089 12.21C5.09885 12.5115 5.87906 12.6667 6.66699 12.6667C7.45492 12.6667 8.23514 12.5115 8.96309 12.21C9.69105 11.9084 10.3525 11.4665 10.9096 10.9093C11.4668 10.3522 11.9087 9.69074 12.2103 8.96279C12.5118 8.23483 12.667 7.45462 12.667 6.66669C12.667 5.87876 12.5118 5.09854 12.2103 4.37059C11.9087 3.64263 11.4668 2.9812 10.9096 2.42405M2.42435 10.9093L10.9096 2.42405" stroke="white" stroke-width="1.33333" stroke-linecap="round" stroke-linejoin="round"/>
</svg>
