<svg width="20" height="15" viewBox="0 0 20 15" fill="none" xmlns="http://www.w3.org/2000/svg">
<path fill-rule="evenodd" clip-rule="evenodd" d="M19.2254 0H0.768942C0.344225 0 -7.58171e-05 0.335786 -7.58171e-05 0.75V13.5C-7.58171e-05 14.3284 0.688526 15 1.53796 15H18.4563C19.3058 15 19.9944 14.3284 19.9944 13.5V0.75C19.9944 0.335786 19.6501 0 19.2254 0ZM9.99715 7.98281L2.74628 1.5H17.248L9.99715 7.98281ZM7.18159 7.5L1.53796 12.5447V2.45531L7.18159 7.5ZM8.31973 8.51719L9.47326 9.55313C9.76739 9.81645 10.2192 9.81645 10.5134 9.55313L11.6669 8.51719L17.2423 13.5H2.74628L8.31973 8.51719ZM12.8127 7.5L18.4563 2.45437V12.5456L12.8127 7.5Z" fill="#ADADAD"/>
</svg>
