<svg width="311" height="17" viewBox="0 0 311 17" fill="none" xmlns="http://www.w3.org/2000/svg">
<path fill-rule="evenodd" clip-rule="evenodd" d="M13.2588 8.24023H7.46777V7.24023H13.2588V8.24023ZM24.8506 8.24023H19.0596V7.24023H24.8506V8.24023ZM36.4424 8.24023H30.6417V7.24023H36.4424V8.24023ZM48.0343 8.24023H42.2335V7.24023H48.0343V8.24023ZM59.6261 8.24023H53.8253V7.24023H59.6261V8.24023ZM71.2082 8.24023H65.4171V7.24023H71.2082V8.24023ZM82.8 8.24023H77.0089V7.24023H82.8V8.24023ZM94.3918 8.24023H88.6008V7.24023H94.3918V8.24023ZM105.984 8.24023H100.183V7.24023H105.984V8.24023ZM117.575 8.24023H111.775V7.24023H117.575V8.24023ZM129.167 8.24023H123.366V7.24023H129.167V8.24023ZM140.759 8.24023H134.958V7.24023H140.759V8.24023ZM152.341 8.24023H146.55V7.24023H152.341V8.24023ZM163.933 8.24023H158.142V7.24023H163.933V8.24023ZM175.525 8.24023H169.734V7.24023H175.525V8.24023ZM187.117 8.24023H181.316V7.24023H187.117V8.24023ZM198.708 8.24023H192.908V7.24023H198.708V8.24023ZM210.3 8.24023H204.499V7.24023H210.3V8.24023ZM221.882 8.24023H216.091V7.24023H221.882V8.24023ZM233.474 8.24023H227.683V7.24023H233.474V8.24023ZM245.066 8.24023H239.275V7.24023H245.066V8.24023ZM256.658 8.24023H250.857V7.24023H256.658V8.24023ZM268.25 8.24023H262.449V7.24023H268.25V8.24023ZM279.841 8.24023H274.041V7.24023H279.841V8.24023ZM291.423 8.24023H285.632V7.24023H291.423V8.24023ZM303.015 8.24023H297.224V7.24023H303.015V8.24023Z" fill="black"/>
</svg>
