<svg width="158" height="28" viewBox="0 0 158 28" fill="none" xmlns="http://www.w3.org/2000/svg">
<path d="M13.0411 0.234139C13.182 0.184683 13.4574 0.109114 13.6527 0.066384C13.9439 0.00268452 14.114 -0.00839365 14.5997 0.00505842C15.0235 0.0165322 15.2839 0.0446233 15.5171 0.103575C15.6963 0.148679 15.9981 0.25313 16.1879 0.33503C16.3777 0.416929 16.6575 0.56688 16.8094 0.668166C16.9613 0.769057 17.1993 0.955803 17.3378 1.08281C17.4767 1.20981 17.6901 1.4472 17.8121 1.61021C17.9344 1.77361 18.112 2.06718 18.2067 2.26303C18.3018 2.45887 18.4256 2.78845 18.5847 3.37085L18.5953 10.0375C18.6044 15.8912 18.5985 16.7295 18.546 16.9119C18.5101 17.0374 18.4276 17.1849 18.3384 17.2842C18.2572 17.3744 18.1017 17.49 17.9932 17.541C17.8567 17.6047 17.7229 17.6336 17.5591 17.6344C17.3776 17.6352 17.2715 17.6095 17.1054 17.526C16.9112 17.4279 16.7723 17.2779 14.6984 14.8051L14.6786 4.22347L14.5693 4.11348C14.492 4.03633 14.4222 4.00507 14.3326 4.00744C14.2454 4.01021 13.4858 4.39676 11.9363 5.22723C10.6886 5.89588 9.0029 6.82011 8.19084 7.28104C6.88831 8.02012 6.70838 8.13367 6.66182 8.24722C6.62433 8.33941 6.62039 8.4039 6.6488 8.47472C6.6705 8.52892 8.45522 10.5768 10.6144 13.0247C12.774 15.473 14.6301 17.5869 14.7394 17.723C14.8487 17.8591 15.0259 18.1483 15.1328 18.3659C15.2398 18.5836 15.3676 18.904 15.4165 19.0781C15.4927 19.3479 15.5057 19.4908 15.5065 20.0475C15.5073 20.6097 15.4947 20.747 15.4153 21.0366C15.3648 21.2213 15.2615 21.5066 15.1861 21.6696C15.1103 21.833 14.9766 22.0732 14.8886 22.2037C14.801 22.3343 14.5934 22.5804 14.4277 22.7509C14.262 22.9214 14.0197 23.1375 13.8895 23.2304C13.7593 23.3238 11.9217 24.341 9.8055 25.4908C7.68972 26.6402 5.81622 27.6388 5.6426 27.7092C5.46898 27.7796 5.14502 27.8738 4.92248 27.9185C4.66087 27.9711 4.36492 28 4.08398 28C3.80067 28 3.50946 27.9715 3.24548 27.9177C3.02293 27.8726 2.70805 27.784 2.54509 27.7207C2.38252 27.6574 2.11617 27.5272 1.95321 27.4311C1.79064 27.3349 1.53297 27.1517 1.38106 27.0235C1.22914 26.8953 0.984101 26.6398 0.83692 26.4558C0.689739 26.2714 0.490077 25.9604 0.393404 25.7646C0.296335 25.5687 0.168489 25.2305 0 24.6172V11.8377L0.123506 11.6201C0.204396 11.4773 0.312513 11.3582 0.439176 11.2727C0.544925 11.2011 0.720122 11.1228 0.828633 11.0983C0.975814 11.065 1.08077 11.065 1.24295 11.0991C1.36251 11.1244 1.52232 11.1905 1.59808 11.2462C1.67423 11.302 2.21955 11.8852 3.88471 13.7369L3.88669 23.8061L4.01493 23.9315C4.11949 24.034 4.16487 24.0526 4.26154 24.034C4.32665 24.0214 5.4895 23.4152 6.84609 22.6872C8.20229 21.9588 9.77393 21.1007 10.3382 20.7798C10.9024 20.4593 11.3957 20.1677 11.434 20.1321C11.4722 20.0965 11.5121 20.0182 11.5227 19.9584C11.533 19.8987 11.5196 19.8061 11.4924 19.7535C11.4651 19.7005 10.3867 18.4593 9.09524 16.9954C7.80375 15.5319 5.98392 13.4306 5.05072 12.3264C4.0678 11.1632 3.27507 10.1891 3.16617 10.0102C3.06279 9.8401 2.92586 9.55009 2.86155 9.36493C2.79762 9.17976 2.72305 8.85058 2.69622 8.63298C2.65873 8.32793 2.65755 8.14672 2.69266 7.84168C2.71752 7.62407 2.78539 7.29489 2.8434 7.10973C2.9014 6.92456 3.00241 6.6666 3.06792 6.53604C3.13381 6.40547 3.26008 6.19182 3.34886 6.06126C3.43764 5.93069 3.61718 5.71071 3.74779 5.57224C3.8784 5.43376 4.10055 5.23514 4.24181 5.13109C4.38308 5.02703 6.36272 3.9026 8.64146 2.63296C10.9202 1.36293 12.9002 0.283595 13.0411 0.234139Z" fill="#FF8900"/>
<path d="M151.925 9.18689C151.917 9.27393 151.909 9.22052 151.909 9.06819C151.909 8.91587 151.916 8.84465 151.925 8.90993C151.933 8.97521 151.933 9.09984 151.925 9.18689Z" fill="#FF8900"/>
<path fill-rule="evenodd" clip-rule="evenodd" d="M155.033 6.06126C155.25 6.06917 155.49 6.08658 155.566 6.10003C155.642 6.11388 155.793 6.15305 155.901 6.18747C156.01 6.22189 156.188 6.29469 156.296 6.34929C156.405 6.4035 156.591 6.51428 156.71 6.59539C156.83 6.67649 157.034 6.85651 157.165 6.99539C157.296 7.13466 157.477 7.37284 157.569 7.52516C157.659 7.67749 157.777 7.92674 157.829 8.07907C157.881 8.23139 157.944 8.48975 157.969 8.65276C157.993 8.81616 158.006 9.09193 157.997 9.26602C157.988 9.4401 157.951 9.69846 157.914 9.83971C157.877 9.98095 157.794 10.2128 157.73 10.3541C157.665 10.4953 157.535 10.718 157.441 10.8486C157.347 10.9792 157.184 11.1687 157.079 11.27C156.974 11.3713 156.781 11.5275 156.651 11.6178C156.521 11.7076 156.29 11.8322 156.138 11.8951C155.986 11.9576 155.724 12.0371 155.556 12.072C155.349 12.1143 155.121 12.1289 154.846 12.1179C154.623 12.1084 154.335 12.072 154.205 12.0364C154.075 12.0007 153.835 11.9086 153.672 11.8318C153.509 11.7546 153.296 11.6356 153.199 11.5671C153.101 11.4987 152.928 11.3491 152.814 11.2348C152.7 11.1204 152.529 10.9064 152.433 10.7596C152.338 10.6128 152.214 10.3766 152.156 10.2354C152.099 10.0941 152.024 9.83575 151.989 9.66167C151.943 9.43417 151.931 9.22289 151.946 8.90993C151.962 8.56137 151.99 8.4039 152.089 8.11863C152.156 7.92279 152.269 7.66799 152.34 7.55246C152.411 7.43693 152.544 7.24979 152.636 7.13703C152.728 7.02387 152.905 6.84741 153.03 6.74415C153.156 6.64128 153.302 6.53485 153.356 6.50834C153.41 6.48144 153.499 6.4304 153.554 6.3944C153.608 6.35839 153.786 6.28164 153.948 6.22387C154.111 6.16571 154.333 6.10241 154.441 6.08262C154.55 6.06284 154.816 6.05335 155.033 6.06126V6.06126ZM153.85 6.68836C153.698 6.76156 153.476 6.89489 153.356 6.98431C153.237 7.07412 153.046 7.25928 152.931 7.39578C152.817 7.53228 152.663 7.76849 152.588 7.92081C152.513 8.07313 152.425 8.31369 152.392 8.45494C152.359 8.59618 152.331 8.87235 152.33 9.06819C152.33 9.28976 152.358 9.53664 152.404 9.72101C152.445 9.88442 152.536 10.1337 152.607 10.2749C152.678 10.4162 152.805 10.6211 152.89 10.7299C152.975 10.8387 153.146 11.0132 153.27 11.1181C153.393 11.2225 153.637 11.3784 153.81 11.4635C153.984 11.5489 154.259 11.6474 154.422 11.6826C154.627 11.7266 154.833 11.7404 155.093 11.7273C155.344 11.7147 155.571 11.6747 155.783 11.6063C155.96 11.5489 156.229 11.4187 156.395 11.3103C156.557 11.2039 156.794 11.0029 156.919 10.864C157.045 10.7248 157.216 10.4779 157.3 10.3145C157.384 10.1515 157.485 9.91092 157.524 9.78036C157.577 9.60667 157.596 9.41597 157.595 9.06819C157.594 8.64564 157.581 8.55662 157.476 8.25711C157.412 8.07195 157.278 7.79618 157.178 7.64386C157.078 7.49153 156.883 7.26324 156.745 7.13624C156.588 6.99262 156.36 6.8395 156.138 6.72991C155.943 6.63337 155.659 6.52813 155.507 6.49647C155.355 6.46443 155.097 6.4395 154.935 6.44108C154.772 6.44227 154.523 6.46878 154.382 6.49964C154.241 6.5305 154.002 6.61556 153.85 6.68836V6.68836Z" fill="black"/>
<path fill-rule="evenodd" clip-rule="evenodd" d="M121.355 5.73049C122.212 5.72732 123.153 5.74394 123.447 5.76728C123.74 5.79063 124.214 5.85274 124.502 5.90576C124.79 5.95878 125.234 6.07075 125.489 6.15463C125.744 6.2385 126.13 6.39597 126.347 6.50438C126.564 6.61279 126.822 6.75126 126.919 6.81219C127.016 6.87352 127.239 7.03376 127.412 7.16907C127.586 7.30438 127.87 7.56511 128.044 7.7487C128.217 7.93267 128.467 8.24247 128.6 8.43712C128.732 8.63178 128.904 8.90716 128.982 9.0484C129.06 9.19004 129.203 9.50142 129.301 9.74079C129.398 9.98016 129.533 10.3718 129.6 10.6112C129.667 10.8506 129.758 11.2336 129.802 11.4619C129.846 11.6902 129.906 12.0909 129.937 12.3521C129.968 12.6132 130.005 13.1564 130.019 13.5588C130.035 13.994 130.027 14.5634 130 14.9634C129.975 15.3333 129.92 15.8674 129.877 16.1503C129.833 16.4332 129.762 16.8162 129.719 17.0009C129.676 17.1861 129.566 17.56 129.476 17.8318C129.386 18.104 129.204 18.54 129.072 18.8012C128.94 19.0623 128.726 19.4267 128.596 19.611C128.466 19.7954 128.217 20.0961 128.044 20.2793C127.87 20.4621 127.559 20.739 127.353 20.8945C127.147 21.05 126.801 21.2692 126.584 21.3812C126.367 21.4931 126.02 21.6502 125.814 21.7297C125.608 21.8097 125.226 21.926 124.966 21.9885C124.705 22.051 124.279 22.1337 124.019 22.1725C123.612 22.2326 123.255 22.2429 121.493 22.2429C119.718 22.2433 119.37 22.2334 118.909 22.1705C118.616 22.1305 118.163 22.0435 117.903 21.9778C117.642 21.9117 117.278 21.8002 117.094 21.7294C116.909 21.6589 116.625 21.5339 116.462 21.4524C116.3 21.3705 116.042 21.2233 115.89 21.1256C115.738 21.0279 115.464 20.8209 115.281 20.6658C115.098 20.5108 114.849 20.2682 114.728 20.1266C114.607 19.9853 114.426 19.7539 114.327 19.6122C114.227 19.471 114.074 19.2304 113.987 19.0781C113.9 18.9258 113.767 18.6587 113.69 18.4846C113.614 18.3105 113.496 17.9992 113.426 17.7922C113.357 17.5853 113.259 17.2383 113.208 17.0207C113.157 16.8031 113.089 16.447 113.055 16.2294C113.022 16.0118 112.984 15.7539 112.971 15.6557C112.958 15.5576 112.933 15.1485 112.914 14.7457C112.895 14.3386 112.895 13.6981 112.914 13.3016C112.933 12.9099 112.976 12.3758 113.01 12.1147C113.044 11.8536 113.117 11.4354 113.172 11.1849C113.227 10.9349 113.343 10.5163 113.429 10.2551C113.515 9.994 113.666 9.61141 113.764 9.40449C113.862 9.19796 114.029 8.88619 114.135 8.7121C114.24 8.53801 114.441 8.25315 114.58 8.07906C114.719 7.90498 114.973 7.63198 115.144 7.47253C115.316 7.31269 115.616 7.0749 115.811 6.94355C116.007 6.81219 116.304 6.63573 116.472 6.55107C116.64 6.46679 116.911 6.34414 117.074 6.27886C117.237 6.21358 117.57 6.10715 117.814 6.04266C118.058 5.97777 118.435 5.89666 118.652 5.86184C118.869 5.82703 119.216 5.78469 119.422 5.76728C119.628 5.75027 120.498 5.73365 121.355 5.73049V5.73049ZM118.692 8.83356C118.475 8.88935 118.164 8.99736 118.001 9.07372C117.838 9.14969 117.599 9.28856 117.469 9.38233C117.338 9.4757 117.116 9.67471 116.974 9.82467C116.832 9.97422 116.644 10.2215 116.555 10.3738C116.466 10.5262 116.33 10.811 116.252 11.0069C116.175 11.2027 116.075 11.5141 116.03 11.6993C115.986 11.8844 115.919 12.2405 115.882 12.4905C115.831 12.836 115.815 13.2079 115.815 14.0336C115.815 14.8601 115.831 15.2308 115.882 15.5766C115.919 15.8267 115.993 16.2006 116.046 16.4075C116.099 16.6144 116.197 16.9171 116.264 17.0801C116.332 17.2435 116.461 17.5014 116.552 17.6538C116.643 17.8061 116.824 18.0443 116.954 18.1831C117.085 18.3224 117.299 18.5115 117.429 18.6041C117.559 18.6963 117.755 18.8166 117.863 18.8708C117.972 18.9254 118.229 19.0235 118.435 19.0888C118.641 19.1545 118.944 19.232 119.106 19.2617C119.331 19.3024 119.899 19.3155 121.474 19.3155C123.352 19.3155 123.578 19.3084 123.9 19.2407C124.096 19.1996 124.406 19.1137 124.591 19.0492C124.776 18.9851 125.033 18.8732 125.163 18.8004C125.293 18.7276 125.506 18.5824 125.635 18.4775C125.764 18.3727 125.962 18.1709 126.076 18.0296C126.19 17.8884 126.354 17.6391 126.441 17.4757C126.528 17.3127 126.661 16.9918 126.738 16.7636C126.814 16.5353 126.913 16.1345 126.958 15.8733C127.002 15.6122 127.057 15.1137 127.081 14.7655C127.104 14.4174 127.111 13.8745 127.097 13.5588C127.082 13.2431 127.045 12.7802 127.013 12.5301C126.982 12.2801 126.922 11.9327 126.881 11.7586C126.84 11.5845 126.767 11.3262 126.719 11.1849C126.671 11.0437 126.57 10.8031 126.494 10.6508C126.418 10.4985 126.29 10.2757 126.209 10.1562C126.127 10.0363 125.929 9.81398 125.768 9.66166C125.607 9.50933 125.361 9.31744 125.221 9.23554C125.081 9.15364 124.833 9.03495 124.67 8.97165C124.507 8.90834 124.196 8.81695 123.979 8.76828C123.603 8.68361 123.491 8.67926 121.612 8.66977C120.527 8.66423 119.515 8.6761 119.363 8.69588C119.211 8.71566 118.909 8.77778 118.692 8.83356ZM78.3058 5.80843C78.6641 5.80527 79.0109 5.82584 79.2331 5.86422C79.4284 5.89745 79.677 5.95324 79.7855 5.98806C79.894 6.02287 80.1162 6.11941 80.2788 6.2025C80.4429 6.28638 80.6958 6.46521 80.8458 6.60329C80.9949 6.74019 81.1989 6.97718 81.2984 7.1295C81.3982 7.28183 81.528 7.52238 81.5864 7.66363C81.6452 7.80488 82.9036 11.1165 84.3833 15.0227C85.8626 18.9289 87.0803 22.1381 87.0893 22.1543C87.098 22.1705 86.3992 22.1836 83.9681 22.1824L83.2973 20.3972C82.6518 18.6793 82.6202 18.6061 82.4589 18.4593C82.3665 18.3754 82.1357 18.2326 81.9459 18.1424C81.7561 18.0522 81.4231 17.9117 81.206 17.8302C80.989 17.7483 80.5897 17.6269 80.3182 17.5596C80.0471 17.4923 79.6162 17.4104 79.3613 17.3772C79.1064 17.3444 78.6314 17.3175 78.3058 17.3175C77.9803 17.3175 77.5052 17.3448 77.2503 17.3784C76.9954 17.4116 76.6269 17.4765 76.4315 17.522C76.2362 17.5675 75.8724 17.6743 75.6226 17.759C75.3729 17.8437 74.8804 18.055 74.5276 18.2283C74.1469 18.4158 73.8636 18.58 73.83 18.633C73.7988 18.6821 73.4662 19.5014 72.4067 22.1863L70.858 22.1851C70.0061 22.1843 69.3163 22.1705 69.3246 22.1543C69.3333 22.1381 70.6129 18.8929 72.168 14.9436C73.7231 10.9938 75.0584 7.63791 75.1353 7.48559C75.2119 7.33326 75.333 7.12832 75.4044 7.03059C75.4758 6.93247 75.6475 6.74572 75.786 6.61516C75.9284 6.48104 76.1747 6.30576 76.353 6.21239C76.5262 6.12139 76.8013 6.01021 76.9642 5.96511C77.1268 5.92001 77.3667 5.86778 77.4969 5.84839C77.6271 5.8294 77.9913 5.8112 78.3058 5.80843V5.80843ZM77.723 8.9396C77.6524 9.01042 77.5502 9.17501 77.4965 9.30557C77.4429 9.43614 76.9279 10.7445 76.3526 12.2136C75.7773 13.6822 75.3109 14.889 75.3164 14.8945C75.3219 14.9001 75.5042 14.8597 75.7213 14.8043C75.9383 14.7489 76.3199 14.6686 76.5696 14.6251C76.8194 14.5819 77.2365 14.527 77.4969 14.5028C77.7723 14.4771 78.3007 14.4684 78.7596 14.4811C79.1936 14.4933 79.735 14.5325 79.9631 14.5677C80.1912 14.6029 80.5573 14.671 80.7771 14.7184L81.1768 14.8051C81.0391 14.4371 80.5605 13.1639 80.0246 11.7388C79.4884 10.3137 79.0113 9.09034 78.964 9.02031C78.9166 8.95028 78.8069 8.85453 78.7201 8.80666C78.6333 8.75918 78.4735 8.71368 78.365 8.70577C78.2494 8.69707 78.1022 8.71566 78.0099 8.75087C77.9231 8.78371 77.794 8.86878 77.723 8.9396V8.9396ZM92.6885 5.8476C92.9056 5.84602 93.1987 5.86936 93.3396 5.89943C93.4805 5.92911 93.7294 6.00507 93.892 6.06798C94.055 6.13089 94.3123 6.26462 94.4642 6.3659C94.6161 6.46679 94.8446 6.65314 94.9724 6.78015C95.0999 6.90715 95.2703 7.10853 95.3512 7.22842C95.4321 7.3479 95.5307 7.50814 95.5698 7.5845C95.6093 7.66047 96.5523 10.2777 97.6655 13.4005C98.9708 17.0623 99.7145 19.0959 99.7599 19.1284C99.799 19.1557 99.8925 19.1786 99.9687 19.179C100.05 19.1794 100.135 19.1505 100.175 19.109C100.212 19.0702 101.217 16.4925 102.408 13.3808C103.599 10.269 104.611 7.65176 104.656 7.56472C104.702 7.47768 104.793 7.32614 104.859 7.22842C104.925 7.1303 105.09 6.93761 105.226 6.79993C105.362 6.66224 105.597 6.46679 105.749 6.3659C105.901 6.26501 106.159 6.13089 106.322 6.06798C106.484 6.00507 106.733 5.92911 106.874 5.89943C107.015 5.86936 107.295 5.84483 107.495 5.84444C107.696 5.84404 107.998 5.87174 108.166 5.90655C108.334 5.94097 108.614 6.02446 108.788 6.09211C108.961 6.15977 109.228 6.29825 109.38 6.40032C109.531 6.5024 109.78 6.71922 109.932 6.88222C110.084 7.04523 110.266 7.27431 110.336 7.39142C110.407 7.50854 110.508 7.71111 110.561 7.84167C110.614 7.97224 110.69 8.18589 110.729 8.31645C110.795 8.54039 110.8 8.93762 110.82 22.1444H107.939V15.6162C107.939 9.90142 107.932 9.07056 107.88 8.94949C107.835 8.84464 107.785 8.80033 107.673 8.7663C107.592 8.74177 107.476 8.73307 107.417 8.74652C107.357 8.76037 107.283 8.81141 107.252 8.86047C107.222 8.90953 106.235 11.4686 105.058 14.5479C103.882 17.6273 102.859 20.2619 102.786 20.4035C102.713 20.5452 102.567 20.7675 102.462 20.8981C102.358 21.0287 102.158 21.23 102.018 21.3456C101.878 21.4615 101.586 21.6423 101.369 21.7483C101.152 21.854 100.842 21.9703 100.679 22.0067C100.493 22.0482 100.214 22.0724 99.9292 22.0716C99.6108 22.0704 99.387 22.0471 99.1795 21.9932C99.0169 21.9505 98.7679 21.8639 98.6271 21.8006C98.4862 21.7369 98.2818 21.6249 98.1733 21.5509C98.0648 21.4773 97.8628 21.3092 97.7246 21.1774C97.5865 21.0457 97.407 20.8395 97.3257 20.72C97.2448 20.6002 97.1379 20.4221 97.0886 20.3244C97.0392 20.2263 96.0954 17.6091 94.9913 14.5084C93.4765 10.2551 92.9616 8.85295 92.8953 8.79954C92.8468 8.76037 92.7714 8.72911 92.728 8.72951C92.6846 8.7303 92.5879 8.75325 92.5133 8.78055C92.4206 8.81497 92.3614 8.87155 92.3259 8.95938C92.2841 9.06383 92.2742 10.3188 92.2742 22.1444H89.3937L89.404 15.3491C89.4135 8.93762 89.4182 8.54039 89.4849 8.31645C89.5239 8.18589 89.5997 7.97224 89.6526 7.84167C89.7058 7.71111 89.8069 7.50854 89.8775 7.39142C89.9477 7.27431 90.1296 7.04523 90.2815 6.88222C90.4335 6.71922 90.6821 6.5024 90.834 6.40032C90.9859 6.29825 91.2522 6.15977 91.4258 6.09211C91.5995 6.02406 91.8658 5.94216 92.0177 5.90932C92.1696 5.87688 92.4715 5.84879 92.6885 5.8476V5.8476ZM37.2687 6.04147V8.85058L28.4497 8.87036L28.1439 8.97916C27.9758 9.03891 27.7714 9.12991 27.6901 9.18134C27.6088 9.23277 27.4668 9.3574 27.3745 9.45829C27.2821 9.55919 27.1712 9.71309 27.1278 9.80014C27.0844 9.88718 27.0221 10.0609 26.9893 10.1859C26.957 10.3109 26.9302 10.5645 26.9302 10.7497C26.9302 10.9345 26.9582 11.1928 26.9921 11.3234C27.026 11.4539 27.1014 11.6474 27.1598 11.7535C27.2182 11.8595 27.3547 12.0276 27.4632 12.1277C27.5718 12.2278 27.7671 12.3572 27.8973 12.415C28.0275 12.4731 28.2674 12.5527 28.43 12.5922C28.6951 12.6567 29.0136 12.667 31.488 12.6911C33.8173 12.7141 34.3026 12.7283 34.5855 12.7837C34.7698 12.8197 35.0808 12.8917 35.2761 12.9436C35.4714 12.9958 35.791 13.1062 35.9863 13.1889C36.1816 13.2716 36.4748 13.4267 36.6374 13.5339C36.8004 13.6407 37.0639 13.8547 37.223 14.0094C37.3824 14.1641 37.6073 14.4332 37.7229 14.6073C37.8381 14.7814 37.9798 15.0306 38.0374 15.1612C38.095 15.2917 38.1862 15.5497 38.2402 15.7349C38.2939 15.9196 38.3637 16.2401 38.3953 16.447C38.4265 16.6536 38.4521 17.09 38.4517 17.4164C38.4517 17.7539 38.4249 18.1891 38.3894 18.4253C38.3554 18.6536 38.2824 18.9831 38.228 19.1572C38.1731 19.3313 38.0717 19.5984 38.0027 19.7507C37.9332 19.903 37.7797 20.1681 37.6614 20.3398C37.543 20.5115 37.322 20.7687 37.1701 20.9115C37.0182 21.054 36.7787 21.2459 36.6374 21.3377C36.4961 21.4291 36.2566 21.5604 36.1047 21.6289C35.9528 21.6973 35.66 21.8053 35.4536 21.869C35.2473 21.9323 34.9277 22.0146 34.7434 22.0518C34.4395 22.1131 33.9349 22.1206 24.4052 22.1444V19.3353L34.0529 19.3155L34.3685 19.2031C34.5421 19.141 34.7809 19.0255 34.8992 18.946C35.0176 18.8664 35.1869 18.703 35.2757 18.5835C35.3641 18.4637 35.4773 18.25 35.5266 18.1088C35.5799 17.956 35.6257 17.7072 35.6395 17.4955C35.6541 17.2755 35.6446 17.0413 35.6142 16.8823C35.5874 16.7406 35.5152 16.5183 35.4536 16.3877C35.3862 16.2445 35.2583 16.0704 35.1313 15.9489C35.0156 15.8381 34.8278 15.7001 34.7138 15.6423C34.5997 15.5845 34.378 15.4983 34.2205 15.4512C33.9435 15.3681 33.8496 15.3645 31.2513 15.338C29.5301 15.3206 28.4477 15.2937 28.2327 15.2633C28.0484 15.2375 27.7288 15.1794 27.5224 15.1347C27.3161 15.09 27.0233 15.0089 26.8714 14.9539C26.7194 14.8993 26.4709 14.792 26.3189 14.7161C26.167 14.6397 25.9453 14.5131 25.8261 14.434C25.7069 14.3552 25.4875 14.1748 25.338 14.0336C25.1888 13.8919 24.9671 13.6249 24.8455 13.4401C24.7236 13.2549 24.565 12.9614 24.4928 12.7873C24.4206 12.6132 24.3282 12.337 24.2876 12.174C24.247 12.0106 24.1929 11.7349 24.1673 11.5608C24.1412 11.3867 24.1207 10.9772 24.1215 10.6508C24.1223 10.3062 24.1483 9.89984 24.1842 9.68144C24.2178 9.47452 24.2821 9.17184 24.3267 9.00884C24.3713 8.84543 24.4956 8.53406 24.6025 8.31645C24.7094 8.09884 24.9083 7.78153 25.0448 7.6118C25.1813 7.44167 25.4264 7.19637 25.589 7.0666C25.7519 6.93682 26.0534 6.74375 26.2598 6.63811C26.4661 6.53207 26.7767 6.40151 26.9503 6.34731C27.1239 6.2935 27.3547 6.22861 27.4632 6.20329C27.5718 6.17797 27.8381 6.13286 28.0551 6.10319C28.3665 6.06086 29.3813 6.04859 37.2687 6.04147V6.04147ZM40.6622 6.04147H43.4638V9.30557C43.4638 11.1006 43.4681 12.5697 43.4736 12.5697C43.4791 12.5697 43.7412 12.4391 44.0556 12.2797C44.3701 12.1202 44.8231 11.9248 45.0618 11.8452C45.3006 11.7657 45.6557 11.6632 45.851 11.6174C46.0463 11.5715 46.3924 11.5093 46.6205 11.4789C46.8485 11.4484 47.2699 11.4235 47.5576 11.4231C47.8453 11.4227 48.2801 11.4484 48.5243 11.4805C48.7686 11.5125 49.0925 11.5671 49.2445 11.6015C49.3964 11.6363 49.6718 11.7103 49.8561 11.7661C50.0403 11.8223 50.3777 11.9477 50.6058 12.0454C50.8339 12.1428 51.1578 12.3006 51.3259 12.3964C51.494 12.4917 51.6404 12.5697 51.6514 12.5697C51.6625 12.5697 51.6712 11.1006 51.6712 6.04147H54.5122V22.1444H51.6712L51.6514 15.4813L51.316 15.2514C51.1318 15.1252 50.7853 14.925 50.5466 14.8067C50.3079 14.688 49.9263 14.5274 49.6982 14.449C49.4702 14.3711 49.115 14.2729 48.9091 14.2306C48.7031 14.1887 48.3124 14.1349 48.041 14.1111C47.6815 14.0799 47.414 14.0803 47.0545 14.1123C46.7834 14.1368 46.4015 14.1914 46.2061 14.2338C46.0108 14.2761 45.6821 14.3659 45.4762 14.4328C45.2702 14.5001 44.8705 14.6694 44.5883 14.8094C44.3062 14.9495 43.9377 15.1616 43.4638 15.4975V22.1444H40.6622V6.04147ZM56.3139 6.04147L59.7405 6.04582L61.9304 9.41319C63.1351 11.2652 64.1468 12.813 64.1796 12.8522C64.234 12.9182 64.4128 12.6595 68.7765 6.0383L72.1108 6.04147L65.638 15.2007L65.6396 22.1444H62.7985L62.7954 15.2007L59.6916 10.809C57.9846 8.3936 56.5262 6.33267 56.4508 6.2294L56.3139 6.04147ZM131.97 6.04147H134.811V11.5212C134.811 16.2832 134.819 17.0409 134.871 17.3076C134.906 17.4832 135.002 17.7578 135.096 17.9505C135.213 18.1895 135.329 18.3557 135.499 18.5242C135.635 18.6591 135.858 18.8249 136.014 18.9072C136.166 18.9871 136.442 19.0967 136.626 19.1505C136.81 19.2047 137.134 19.2684 137.346 19.2922C137.594 19.3198 138.902 19.3353 144.32 19.3353V22.1444H140.789C138.575 22.1444 137.114 22.129 136.872 22.1024C136.661 22.0795 136.31 22.0253 136.093 21.9818C135.876 21.9383 135.512 21.8401 135.284 21.7638C135.057 21.687 134.71 21.5414 134.515 21.4401C134.319 21.3384 134.027 21.1553 133.864 21.0322C133.701 20.9096 133.453 20.6868 133.314 20.5373C133.174 20.3873 132.973 20.1313 132.867 19.9683C132.761 19.8049 132.616 19.5469 132.544 19.3946C132.473 19.2423 132.368 18.9752 132.311 18.8012C132.254 18.6271 132.172 18.3109 132.128 18.0989C132.084 17.8868 132.031 17.4595 132.01 17.1493C131.987 16.8233 131.97 14.3604 131.97 11.3135L131.97 6.04147ZM146.372 6.04147H149.174V22.1444H146.372V6.04147Z" fill="#1A1A1A"/>
<path fill-rule="evenodd" clip-rule="evenodd" d="M154.458 7.4662C154.753 7.4662 155.109 7.4844 155.25 7.50655C155.391 7.52831 155.602 7.59518 155.718 7.65453C155.873 7.73405 155.955 7.80922 156.031 7.94058C156.102 8.06402 156.139 8.19736 156.152 8.37579C156.169 8.59577 156.156 8.6658 156.066 8.86046C155.985 9.03455 155.917 9.11645 155.586 9.33168L155.931 9.98134C156.121 10.3386 156.276 10.6401 156.276 10.6508C156.276 10.6615 156.148 10.6702 155.704 10.6698L155.033 9.44325L154.422 9.44405V10.6706H153.869L153.863 9.09469C153.859 8.22782 153.871 7.50655 153.889 7.49231C153.907 7.47767 154.163 7.4658 154.458 7.4662ZM154.461 8.96927C154.629 8.98668 154.829 8.98035 155.014 8.9661C155.325 8.94197 155.357 8.93128 155.457 8.81615C155.545 8.71645 155.566 8.65393 155.566 8.49449C155.566 8.38568 155.539 8.24325 155.507 8.17797C155.473 8.11071 155.388 8.03356 155.31 7.99993C155.221 7.96194 155.044 7.94058 154.816 7.94058H154.461V8.96927Z" fill="black"/>
</svg>
