<svg width="40" height="40" viewBox="0 0 40 40" fill="none" xmlns="http://www.w3.org/2000/svg">
<rect width="40" height="40" rx="8" fill="#FDF6E3"/>
<g clip-path="url(#clip0_2030_971)">
<path fill-rule="evenodd" clip-rule="evenodd" d="M29.3103 14.8784L25.1216 10.6888C24.8402 10.4074 24.4587 10.2493 24.0608 10.2493C23.6629 10.2493 23.2813 10.4074 23 10.6888L11.4397 22.25C11.1571 22.5303 10.9987 22.9123 11 23.3103V27.5C11 28.3284 11.6716 29 12.5 29H16.6897C17.0877 29.0013 17.4697 28.8429 17.75 28.5603L29.3103 17C29.5917 16.7187 29.7498 16.3371 29.7498 15.9392C29.7498 15.5413 29.5917 15.1598 29.3103 14.8784ZM16.6897 27.5H12.5V23.3103L20.75 15.0603L24.9397 19.25L16.6897 27.5ZM26 18.1888L21.8103 14L24.0603 11.75L28.25 15.9387L26 18.1888Z" fill="#140D1C"/>
</g>
<defs>
<clipPath id="clip0_2030_971">
<rect width="24" height="24" fill="white" transform="translate(8 8)"/>
</clipPath>
</defs>
</svg>
