<svg width="40" height="40" viewBox="0 0 40 40" fill="none" xmlns="http://www.w3.org/2000/svg">
<rect width="40" height="40" rx="8" fill="#FDF6E3"/>
<path fill-rule="evenodd" clip-rule="evenodd" d="M16.25 20C16.25 19.0054 16.6451 18.0516 17.3483 17.3483C18.0516 16.6451 19.0054 16.25 20 16.25C20.9946 16.25 21.9484 16.6451 22.6517 17.3483C23.3549 18.0516 23.75 19.0054 23.75 20C23.75 20.9946 23.3549 21.9484 22.6517 22.6517C21.9484 23.3549 20.9946 23.75 20 23.75C19.0054 23.75 18.0516 23.3549 17.3483 22.6517C16.6451 21.9484 16.25 20.9946 16.25 20ZM20 17.75C19.4033 17.75 18.831 17.9871 18.409 18.409C17.9871 18.831 17.75 19.4033 17.75 20C17.75 20.5967 17.9871 21.169 18.409 21.591C18.831 22.0129 19.4033 22.25 20 22.25C20.5967 22.25 21.169 22.0129 21.591 21.591C22.0129 21.169 22.25 20.5967 22.25 20C22.25 19.4033 22.0129 18.831 21.591 18.409C21.169 17.9871 20.5967 17.75 20 17.75Z" fill="black"/>
<path fill-rule="evenodd" clip-rule="evenodd" d="M12.323 18.646C11.904 19.25 11.75 19.723 11.75 20C11.75 20.277 11.904 20.75 12.323 21.354C12.729 21.937 13.331 22.57 14.093 23.155C15.62 24.327 17.713 25.25 20 25.25C22.287 25.25 24.38 24.327 25.907 23.155C26.669 22.57 27.271 21.937 27.677 21.354C28.096 20.75 28.25 20.277 28.25 20C28.25 19.723 28.096 19.25 27.677 18.646C27.271 18.063 26.669 17.43 25.907 16.845C24.38 15.673 22.287 14.75 20 14.75C17.713 14.75 15.62 15.673 14.093 16.845C13.331 17.43 12.729 18.063 12.323 18.646ZM13.179 15.655C14.91 14.327 17.316 13.25 20 13.25C22.684 13.25 25.09 14.327 26.82 15.655C27.687 16.32 28.403 17.062 28.909 17.791C29.401 18.5 29.75 19.277 29.75 20C29.75 20.723 29.4 21.5 28.909 22.209C28.403 22.938 27.687 23.679 26.821 24.345C25.091 25.673 22.684 26.75 20 26.75C17.316 26.75 14.91 25.673 13.18 24.345C12.313 23.68 11.597 22.938 11.091 22.209C10.6 21.5 10.25 20.723 10.25 20C10.25 19.277 10.6 18.5 11.091 17.791C11.597 17.062 12.313 16.321 13.179 15.655Z" fill="black"/>
</svg>
