<svg width="19" height="14" viewBox="0 0 19 14" fill="none" xmlns="http://www.w3.org/2000/svg">
<path fill-rule="evenodd" clip-rule="evenodd" d="M15.625 2.5H1.25V0.625C1.25 0.279822 0.970178 0 0.625 0C0.279822 0 0 0.279822 0 0.625V13.125C0 13.4702 0.279822 13.75 0.625 13.75C0.970178 13.75 1.25 13.4702 1.25 13.125V10.625H17.5V13.125C17.5 13.4702 17.7798 13.75 18.125 13.75C18.4702 13.75 18.75 13.4702 18.75 13.125V5.625C18.75 3.89911 17.3509 2.5 15.625 2.5ZM1.25 3.75H6.875V9.375H1.25V3.75ZM8.125 9.375V3.75H15.625C16.6605 3.75 17.5 4.58947 17.5 5.625V9.375H8.125Z" fill="#626262"/>
</svg>
