<svg width="15" height="13" viewBox="0 0 15 13" fill="none" xmlns="http://www.w3.org/2000/svg">
<path d="M10.3831 5.89026H12.8045C12.9181 5.89032 13.0298 5.91941 13.129 5.97476C13.2282 6.03011 13.3116 6.10989 13.3713 6.20653C13.431 6.30317 13.465 6.41346 13.4701 6.52694C13.4752 6.64041 13.4512 6.75332 13.4005 6.85493L12.0445 9.5676C11.9931 9.67039 11.9159 9.75814 11.8206 9.82234C11.7253 9.88653 11.615 9.92499 11.5004 9.93398C11.3858 9.94297 11.2708 9.92218 11.1667 9.87364C11.0625 9.8251 10.9726 9.75045 10.9058 9.65693L9.4898 7.67693M0.549805 10.5569H3.05647C3.30496 10.5587 3.54898 10.4909 3.76102 10.3613C3.97305 10.2318 4.14466 10.0455 4.25647 9.8236L5.21647 7.89026M0.549805 11.8903V9.2236M3.88314 3.89026H3.8898M10.6205 3.9256C10.7785 4.0047 10.8986 4.14329 10.9545 4.31092C11.0104 4.47855 10.9974 4.66151 10.9185 4.8196L8.8478 8.96026C8.80864 9.03859 8.75443 9.10843 8.68827 9.16579C8.6221 9.22316 8.54529 9.26693 8.46221 9.29461C8.37912 9.32228 8.2914 9.33331 8.20406 9.32708C8.11671 9.32084 8.03145 9.29746 7.95314 9.25826L1.62314 6.09026C1.16336 5.85867 0.81404 5.45438 0.651618 4.96587C0.489195 4.47735 0.526896 3.94439 0.756471 3.4836L1.67647 1.6236C1.79114 1.39508 1.9497 1.19139 2.1431 1.02415C2.33649 0.856921 2.56094 0.729424 2.80362 0.648944C3.0463 0.568464 3.30245 0.536578 3.55745 0.555106C3.81246 0.573635 4.06131 0.642215 4.2898 0.756931L10.6205 3.9256Z" stroke="#FF9100" stroke-width="1.1" stroke-linecap="round" stroke-linejoin="round"/>
</svg>
