<svg width="14" height="13" viewBox="0 0 14 13" fill="none" xmlns="http://www.w3.org/2000/svg">
<path d="M4.41998 1.36825C4.47801 1.20646 4.58939 1.06573 4.73835 0.965984C4.8873 0.866241 5.06627 0.812544 5.24992 0.8125H9.18742C9.3288 0.812484 9.46808 0.84428 9.59334 0.905168C9.7186 0.966056 9.8261 1.05422 9.90665 1.16212C9.9872 1.27001 10.0384 1.39443 10.0558 1.52471C10.0733 1.65499 10.0565 1.78726 10.0069 1.91019L9.13754 4.0625H10.4999C10.666 4.06251 10.8287 4.10641 10.9689 4.18908C11.1091 4.27175 11.2211 4.38977 11.2918 4.52934C11.3624 4.66892 11.3888 4.82429 11.3679 4.97729C11.347 5.1303 11.2796 5.27461 11.1737 5.39337L5.45686 11.8003C4.71048 12.6364 3.26236 11.9486 3.55548 10.8977L4.55648 7.3125H3.49992C3.36126 7.31249 3.22459 7.28188 3.10117 7.22319C2.97775 7.1645 2.87112 7.07942 2.79007 6.97495C2.70901 6.87049 2.65585 6.74963 2.63498 6.62234C2.6141 6.49505 2.6261 6.36498 2.66998 6.24284L4.41998 1.36825ZM5.24992 1.625L3.49992 6.5H5.12217C5.18898 6.5 5.2549 6.51421 5.31488 6.54153C5.37486 6.56886 5.4273 6.60857 5.46819 6.65764C5.50907 6.7067 5.53731 6.76381 5.55074 6.82458C5.56417 6.88535 5.56244 6.94817 5.54567 7.00822L4.40248 11.1016C4.34386 11.3116 4.63348 11.4493 4.78311 11.282L10.4999 4.875H8.50623C8.43556 4.87498 8.36594 4.85905 8.30334 4.8286C8.24074 4.79814 8.18702 4.75405 8.14677 4.70011C8.10652 4.64616 8.08095 4.58397 8.07224 4.51885C8.06352 4.45372 8.07193 4.38761 8.09673 4.32616L9.18742 1.625H5.24992Z" fill="white"/>
</svg>
