<svg width="14" height="14" viewBox="0 0 14 14" fill="none" xmlns="http://www.w3.org/2000/svg">
<path d="M5.03516 1.46441C5.03516 0.971411 5.43516 0.571411 5.92816 0.571411H12.1782C12.6712 0.571411 13.0712 0.971411 13.0712 1.46441V12.1784C13.0712 12.6714 12.6712 13.0714 12.1782 13.0714H9.05316" stroke="#FF9100" stroke-width="1.14286" stroke-linecap="round" stroke-linejoin="round"/>
<path d="M2.35742 5.92841H4.17542C4.44062 5.92847 4.69493 6.03386 4.88242 6.22141L7.42142 8.76141C7.60908 8.94859 7.86337 9.05362 8.12842 9.05341H9.49942M6.37442 5.25941C6.37442 5.67394 6.53909 6.0715 6.83221 6.36462C7.12533 6.65774 7.52289 6.82241 7.93742 6.82241C8.35196 6.82241 8.74951 6.65774 9.04263 6.36462C9.33575 6.0715 9.50042 5.67394 9.50042 5.25941C9.50042 4.84488 9.33575 4.44732 9.04263 4.1542C8.74951 3.86108 8.35196 3.69641 7.93742 3.69641C7.52289 3.69641 7.12533 3.86108 6.83221 4.1542C6.53909 4.44732 6.37442 4.84488 6.37442 5.25941Z" stroke="#FF9100" stroke-width="1.14286" stroke-linecap="round" stroke-linejoin="round"/>
<path d="M5.92829 7.26746L3.54229 9.65346C3.3548 9.84101 3.10048 9.9464 2.83529 9.94646H0.571289" stroke="#FF9100" stroke-width="1.14286" stroke-linecap="round" stroke-linejoin="round"/>
<path d="M4.14209 9.05347L5.63509 10.5465C5.82264 10.734 5.92803 10.9883 5.92809 11.2535V13.0715" stroke="#FF9100" stroke-width="1.14286" stroke-linecap="round" stroke-linejoin="round"/>
</svg>
