<svg width="62" height="62" viewBox="0 0 62 62" fill="none" xmlns="http://www.w3.org/2000/svg">
<path d="M60.1328 31.8926C59.5818 48.4727 45.8377 61.0326 29.5215 60.1256C13.3156 59.2246 1.28369 45.5701 2.1156 29.6257C2.96205 13.3906 16.5911 1.44838 32.2946 2.11682C48.5635 2.80947 60.5215 16.3332 60.1328 31.8938V31.8926ZM10.3003 45.254C16.0983 39.5396 23.0249 36.5111 31.1309 36.5111C39.2369 36.5111 46.1586 39.5469 51.9239 45.2322C57.8224 37.1262 58.5961 23.3082 49.2017 13.5529C39.8629 3.85572 24.3908 3.29869 14.3001 12.3577C4.2081 21.4167 3.68134 35.8208 10.3015 45.254H10.3003Z" fill="#C2C2C2"/>
<path d="M31.0898 33.0393C24.6815 32.9933 19.4745 27.7633 19.5169 21.4155C19.5605 14.9273 24.8026 9.77357 31.3053 9.82806C37.6143 9.88135 42.762 15.1622 42.7257 21.5439C42.6894 27.8735 37.4157 33.0841 31.0898 33.0393Z" fill="#C2C2C2"/>
</svg>
