<svg width="40" height="40" viewBox="0 0 40 40" fill="none" xmlns="http://www.w3.org/2000/svg">
<rect width="40" height="40" rx="8" fill="#FDF6E3"/>
<g clip-path="url(#clip0_2030_932)">
<path fill-rule="evenodd" clip-rule="evenodd" d="M27.2806 13.7787L13.7806 27.2787C13.4876 27.5718 13.0124 27.5718 12.7194 27.2787C12.4263 26.9857 12.4263 26.5106 12.7194 26.2175L26.2194 12.7175C26.5122 12.4244 26.9871 12.4242 27.2802 12.717C27.5732 13.0098 27.5734 13.4848 27.2806 13.7778V13.7787ZM12.7381 17.51C11.4201 16.1918 11.4204 14.0547 12.7386 12.7367C14.0568 11.4187 16.1939 11.419 17.5119 12.7372C18.8299 14.0554 18.8296 16.1925 17.5114 17.5105C16.1932 18.8284 14.0561 18.8282 12.7381 17.51ZM13.25 15.125C13.2507 15.9735 13.8211 16.7158 14.6408 16.9349C15.4605 17.154 16.3252 16.7954 16.7491 16.0604C17.1731 15.3255 17.0507 14.3974 16.4506 13.7975C15.9141 13.2612 15.1074 13.101 14.4067 13.3916C13.706 13.6822 13.2494 14.3664 13.25 15.125ZM28.25 24.875C28.2496 26.4851 27.112 27.8707 25.5327 28.1845C23.9535 28.4983 22.3725 27.6528 21.7567 26.1652C21.1408 24.6775 21.6615 22.962 23.0005 22.0677C24.3394 21.1734 26.1235 21.3494 27.2619 22.4881C27.8969 23.1198 28.2527 23.9793 28.25 24.875ZM26.75 24.875C26.7502 23.9805 26.1185 23.2104 25.2412 23.0357C24.3639 22.861 23.4853 23.3304 23.1429 24.1568C22.8004 24.9831 23.0894 25.9363 23.833 26.4334C24.5767 26.9305 25.568 26.8331 26.2006 26.2006C26.5534 25.8498 26.7512 25.3725 26.75 24.875Z" fill="#140D1C"/>
</g>
<defs>
<clipPath id="clip0_2030_932">
<rect width="24" height="24" fill="white" transform="translate(8 8)"/>
</clipPath>
</defs>
</svg>
