<svg width="20" height="20" viewBox="0 0 20 20" fill="none" xmlns="http://www.w3.org/2000/svg">
<g clip-path="url(#clip0_2155_719)">
<path fill-rule="evenodd" clip-rule="evenodd" d="M16.25 10.625H13.75V8.125H15C15.6904 8.125 16.25 7.56536 16.25 6.875V3.125C16.25 2.43464 15.6904 1.875 15 1.875H5C4.30964 1.875 3.75 2.43464 3.75 3.125V6.875C3.75 7.56536 4.30964 8.125 5 8.125H6.25V10.625H3.75C3.05964 10.625 2.5 11.1846 2.5 11.875V13.125C2.5 13.8154 3.05964 14.375 3.75 14.375H4.375V17.5C4.375 17.8452 4.65482 18.125 5 18.125C5.34518 18.125 5.625 17.8452 5.625 17.5V14.375H14.375V17.5C14.375 17.8452 14.6548 18.125 15 18.125C15.3452 18.125 15.625 17.8452 15.625 17.5V14.375H16.25C16.9404 14.375 17.5 13.8154 17.5 13.125V11.875C17.5 11.1846 16.9404 10.625 16.25 10.625ZM5 3.125H15V6.875H5V3.125ZM7.5 8.125H12.5V10.625H7.5V8.125ZM16.25 13.125H3.75V11.875H16.25V13.125Z" fill="#626262"/>
</g>
<defs>
<clipPath id="clip0_2155_719">
<rect width="20" height="20" fill="white"/>
</clipPath>
</defs>
</svg>
