<svg width="40" height="40" viewBox="0 0 40 40" fill="none" xmlns="http://www.w3.org/2000/svg">
<rect width="40" height="40" rx="8" fill="#FDF6E3"/>
<g clip-path="url(#clip0_2031_1166)">
<path fill-rule="evenodd" clip-rule="evenodd" d="M23.5306 17.5306L21.0603 20L23.5306 22.4694C23.8237 22.7624 23.8237 23.2376 23.5306 23.5306C23.2376 23.8237 22.7624 23.8237 22.4694 23.5306L20 21.0603L17.5306 23.5306C17.2376 23.8237 16.7624 23.8237 16.4694 23.5306C16.1763 23.2376 16.1763 22.7624 16.4694 22.4694L18.9397 20L16.4694 17.5306C16.1763 17.2376 16.1763 16.7624 16.4694 16.4694C16.7624 16.1763 17.2376 16.1763 17.5306 16.4694L20 18.9397L22.4694 16.4694C22.7624 16.1763 23.2376 16.1763 23.5306 16.4694C23.8237 16.7624 23.8237 17.2376 23.5306 17.5306ZM29.75 20C29.75 25.3848 25.3848 29.75 20 29.75C14.6152 29.75 10.25 25.3848 10.25 20C10.25 14.6152 14.6152 10.25 20 10.25C25.3824 10.2557 29.7443 14.6176 29.75 20ZM28.25 20C28.25 15.4437 24.5563 11.75 20 11.75C15.4437 11.75 11.75 15.4437 11.75 20C11.75 24.5563 15.4437 28.25 20 28.25C24.5542 28.2448 28.2448 24.5542 28.25 20Z" fill="#140D1C"/>
</g>
<defs>
<clipPath id="clip0_2031_1166">
<rect width="24" height="24" fill="white" transform="translate(8 8)"/>
</clipPath>
</defs>
</svg>
