<svg width="40" height="40" viewBox="0 0 40 40" fill="none" xmlns="http://www.w3.org/2000/svg">
<rect width="40" height="40" rx="8" fill="#FDF6E3"/>
<g clip-path="url(#clip0_2030_958)">
<path fill-rule="evenodd" clip-rule="evenodd" d="M28.25 14.75H13.25C12.8358 14.75 12.5 14.4142 12.5 14C12.5 13.5858 12.8358 13.25 13.25 13.25H26C26.4142 13.25 26.75 12.9142 26.75 12.5C26.75 12.0858 26.4142 11.75 26 11.75H13.25C12.0074 11.75 11 12.7574 11 14V26C11 27.2426 12.0074 28.25 13.25 28.25H28.25C29.0784 28.25 29.75 27.5784 29.75 26.75V16.25C29.75 15.4216 29.0784 14.75 28.25 14.75ZM28.25 26.75H13.25C12.8358 26.75 12.5 26.4142 12.5 26V16.1216C12.7408 16.2069 12.9945 16.2504 13.25 16.25H28.25V26.75ZM23.75 21.125C23.75 20.5037 24.2537 20 24.875 20C25.4963 20 26 20.5037 26 21.125C26 21.7463 25.4963 22.25 24.875 22.25C24.2537 22.25 23.75 21.7463 23.75 21.125Z" fill="#140D1C"/>
</g>
<defs>
<clipPath id="clip0_2030_958">
<rect width="24" height="24" fill="white" transform="translate(8 8)"/>
</clipPath>
</defs>
</svg>
