<svg width="24" height="32" viewBox="0 0 24 32" fill="none" xmlns="http://www.w3.org/2000/svg">
<g clip-path="url(#clip0_2001_2319)">
<path fill-rule="evenodd" clip-rule="evenodd" d="M21.2991 13.795C21.9976 13.6529 22.4996 13.0388 22.5 12.3259V10C22.5 9.17157 21.8284 8.5 21 8.5H3C2.17157 8.5 1.5 9.17157 1.5 10V12.3259C1.50039 13.0388 2.00241 13.6529 2.70094 13.795C3.74526 14.0116 4.49406 14.9316 4.49406 15.9981C4.49406 17.0647 3.74526 17.9847 2.70094 18.2013C2.00103 18.3437 1.49861 18.9598 1.5 19.6741V22C1.5 22.8284 2.17157 23.5 3 23.5H21C21.8284 23.5 22.5 22.8284 22.5 22V19.6741C22.4996 18.9612 21.9976 18.3471 21.2991 18.205C20.2547 17.9884 19.5059 17.0684 19.5059 16.0019C19.5059 14.9353 20.2547 14.0153 21.2991 13.7987V13.795ZM3 19.675C4.74665 19.3192 6.00145 17.783 6.00145 16.0005C6.00145 14.2179 4.74665 12.6818 3 12.3259V10H8.25V22H3V19.675ZM21 19.675V22H9.75V10H21V12.325C19.2533 12.6808 17.9985 14.217 17.9985 15.9995C17.9985 17.7821 19.2533 19.3182 21 19.6741V19.675Z" fill="#626262"/>
</g>
<defs>
<clipPath id="clip0_2001_2319">
<rect width="24" height="24" fill="white" transform="translate(0 4)"/>
</clipPath>
</defs>
</svg>
