<svg width="40" height="40" viewBox="0 0 40 40" fill="none" xmlns="http://www.w3.org/2000/svg">
<rect width="40" height="40" rx="8" fill="#FDF6E3"/>
<g clip-path="url(#clip0_2030_945)">
<path fill-rule="evenodd" clip-rule="evenodd" d="M29.2991 17.795C29.9976 17.6529 30.4996 17.0388 30.5 16.3259V14C30.5 13.1716 29.8284 12.5 29 12.5H11C10.1716 12.5 9.5 13.1716 9.5 14V16.3259C9.50039 17.0388 10.0024 17.6529 10.7009 17.795C11.7453 18.0116 12.4941 18.9316 12.4941 19.9981C12.4941 21.0647 11.7453 21.9847 10.7009 22.2013C10.001 22.3437 9.49861 22.9598 9.5 23.6741V26C9.5 26.8284 10.1716 27.5 11 27.5H29C29.8284 27.5 30.5 26.8284 30.5 26V23.6741C30.4996 22.9612 29.9976 22.3471 29.2991 22.205C28.2547 21.9884 27.5059 21.0684 27.5059 20.0019C27.5059 18.9353 28.2547 18.0153 29.2991 17.7987V17.795ZM11 23.675C12.7467 23.3192 14.0015 21.783 14.0015 20.0005C14.0015 18.2179 12.7467 16.6818 11 16.3259V14H16.25V26H11V23.675ZM29 23.675V26H17.75V14H29V16.325C27.2533 16.6808 25.9985 18.217 25.9985 19.9995C25.9985 21.7821 27.2533 23.3182 29 23.6741V23.675Z" fill="#140D1C"/>
</g>
<defs>
<clipPath id="clip0_2030_945">
<rect width="24" height="24" fill="white" transform="translate(8 8)"/>
</clipPath>
</defs>
</svg>
