<svg width="13" height="15" viewBox="0 0 13 15" fill="none" xmlns="http://www.w3.org/2000/svg">
<path d="M12.5 3H9.5V0.5C9.5 0.367392 9.44732 0.240215 9.35355 0.146447C9.25979 0.0526784 9.13261 0 9 0C8.86739 0 8.74021 0.0526784 8.64645 0.146447C8.55268 0.240215 8.5 0.367392 8.5 0.5V3H4.5V0.5C4.5 0.367392 4.44732 0.240215 4.35355 0.146447C4.25979 0.0526784 4.13261 0 4 0C3.86739 0 3.74021 0.0526784 3.64645 0.146447C3.55268 0.240215 3.5 0.367392 3.5 0.5V3H0.534375C0.1425 3 0 3.29875 0 3.5C0 3.63261 0.0526784 3.75979 0.146447 3.85355C0.240215 3.94732 0.367392 4 0.5 4H1.5V9.5C1.5 10.163 1.76339 10.7989 2.23223 11.2678C2.70107 11.7366 3.33696 12 4 12H6V14.5C6 14.6326 6.05268 14.7598 6.14645 14.8536C6.24021 14.9473 6.36739 15 6.5 15C6.63261 15 6.75979 14.9473 6.85355 14.8536C6.94732 14.7598 7 14.6326 7 14.5V12H9C9.66304 12 10.2989 11.7366 10.7678 11.2678C11.2366 10.7989 11.5 10.163 11.5 9.5V4H12.5C12.6326 4 12.7598 3.94732 12.8536 3.85355C12.9473 3.75979 13 3.63261 13 3.5C13 3.36739 12.9473 3.24021 12.8536 3.14645C12.7598 3.05268 12.6326 3 12.5 3ZM9 11H4C3.60218 11 3.22064 10.842 2.93934 10.5607C2.65804 10.2794 2.5 9.89782 2.5 9.5V4H10.5V9.5C10.5 9.89782 10.342 10.2794 10.0607 10.5607C9.77936 10.842 9.39782 11 9 11ZM7.91125 7.215C7.95726 7.28146 7.98647 7.35809 7.99637 7.43831C8.00628 7.51854 7.99659 7.59997 7.96813 7.67562L7.21813 9.67562C7.17155 9.79994 7.07749 9.90067 6.95665 9.95564C6.8358 10.0106 6.69807 10.0153 6.57375 9.96875C6.44943 9.92217 6.3487 9.82811 6.29373 9.70727C6.23876 9.58643 6.23405 9.4487 6.28062 9.32438L6.78063 8H5.5C5.4192 8 5.33961 7.98042 5.26804 7.94293C5.19647 7.90545 5.13504 7.85117 5.08903 7.78476C5.04301 7.71835 5.01378 7.64178 5.00382 7.5616C4.99387 7.48142 5.0035 7.40002 5.03188 7.32438L5.78188 5.32438C5.82845 5.20006 5.92251 5.09933 6.04335 5.04436C6.1642 4.98939 6.30193 4.98467 6.42625 5.03125C6.55057 5.07783 6.6513 5.17189 6.70627 5.29273C6.76124 5.41357 6.76595 5.5513 6.71937 5.67562L6.21938 7H7.5C7.58082 6.99993 7.66045 7.01945 7.73208 7.0569C7.8037 7.09434 7.86518 7.14859 7.91125 7.215Z" fill="#FF9100"/>
</svg>
