<svg width="24" height="22" viewBox="0 0 24 22" fill="none" xmlns="http://www.w3.org/2000/svg">
<g clip-path="url(#clip0_3136_1561)">
<path fill-rule="evenodd" clip-rule="evenodd" d="M20.8472 14.8556L16.4306 12.8766L16.4184 12.8709C15.9526 12.6717 15.4177 12.7211 14.9963 13.0022C14.9718 13.0183 14.9483 13.0359 14.9259 13.0547L12.6441 15C11.1984 14.2978 9.70594 12.8166 9.00375 11.3897L10.9519 9.07312C10.9706 9.04969 10.9884 9.02625 11.0053 9.00094C11.2803 8.5807 11.3268 8.05073 11.1291 7.58906V7.57781L9.14437 3.15375C8.88009 2.5439 8.246 2.18069 7.58625 2.26125C4.95833 2.60705 2.99525 4.84943 3 7.5C3 14.9438 9.05625 21 16.5 21C19.1506 21.0048 21.3929 19.0417 21.7388 16.4137C21.8195 15.7542 21.4567 15.1202 20.8472 14.8556ZM16.5 19.5C9.87558 19.4928 4.50723 14.1244 4.5 7.5C4.4927 5.60618 5.89195 4.00108 7.76906 3.75C7.76869 3.75374 7.76869 3.75751 7.76906 3.76125L9.73781 8.1675L7.8 10.4869C7.78033 10.5095 7.76246 10.5336 7.74656 10.5591C7.45961 10.9994 7.42405 11.5578 7.65281 12.0309C8.50219 13.7681 10.2525 15.5053 12.0084 16.3538C12.4851 16.5804 13.0459 16.5398 13.485 16.2469C13.5091 16.2307 13.5322 16.2131 13.5544 16.1944L15.8334 14.25L20.2397 16.2234C20.2397 16.2234 20.2472 16.2234 20.25 16.2234C20.002 18.1033 18.3962 19.5064 16.5 19.5Z" fill="#ADADAD"/>
</g>
<defs>
<clipPath id="clip0_3136_1561">
<rect width="24" height="22" fill="white"/>
</clipPath>
</defs>
</svg>
