<svg width="20" height="20" viewBox="0 0 20 20" fill="none" xmlns="http://www.w3.org/2000/svg">
<path fill-rule="evenodd" clip-rule="evenodd" d="M14.375 14.375C14.375 15.7557 13.2557 16.875 11.875 16.875C10.8047 16.875 9.76953 16.1773 9.41406 15.2172C9.30154 14.8956 9.4673 14.5431 9.78677 14.4247C10.1062 14.3063 10.4617 14.4656 10.5859 14.7828C10.7609 15.2555 11.3281 15.625 11.875 15.625C12.5654 15.625 13.125 15.0654 13.125 14.375C13.125 13.6846 12.5654 13.125 11.875 13.125H3.125C2.77982 13.125 2.5 12.8452 2.5 12.5C2.5 12.1548 2.77982 11.875 3.125 11.875H11.875C13.2557 11.875 14.375 12.9943 14.375 14.375ZM9.375 8.125C10.7557 8.125 11.875 7.00571 11.875 5.625C11.875 4.24429 10.7557 3.125 9.375 3.125C8.30469 3.125 7.26953 3.82266 6.91406 4.78281C6.80154 5.1044 6.9673 5.45686 7.28677 5.57527C7.60623 5.69368 7.96167 5.53442 8.08594 5.21719C8.26094 4.74453 8.82812 4.375 9.375 4.375C10.0654 4.375 10.625 4.93464 10.625 5.625C10.625 6.31536 10.0654 6.875 9.375 6.875H1.875C1.52982 6.875 1.25 7.15482 1.25 7.5C1.25 7.84518 1.52982 8.125 1.875 8.125H9.375ZM16.25 5.625C15.1797 5.625 14.1445 6.32266 13.7891 7.28281C13.6765 7.6044 13.8423 7.95686 14.1618 8.07527C14.4812 8.19368 14.8367 8.03442 14.9609 7.71719C15.1359 7.24453 15.7031 6.875 16.25 6.875C16.9404 6.875 17.5 7.43464 17.5 8.125C17.5 8.81536 16.9404 9.375 16.25 9.375H2.5C2.15482 9.375 1.875 9.65482 1.875 10C1.875 10.3452 2.15482 10.625 2.5 10.625H16.25C17.6307 10.625 18.75 9.50571 18.75 8.125C18.75 6.74429 17.6307 5.625 16.25 5.625Z" fill="#626262"/>
<path d="M4 18L16 3" stroke="#626262" stroke-linecap="round"/>
</svg>
