<svg width="12" height="13" viewBox="0 0 12 13" fill="none" xmlns="http://www.w3.org/2000/svg">
<path d="M0.645508 7.35547H4.51953C4.55763 7.35547 4.59464 7.37096 4.62207 7.39844C4.64956 7.42601 4.66504 7.46425 4.66504 7.50391V11.3896C4.665 11.4292 4.64941 11.4666 4.62207 11.4941C4.59464 11.5217 4.55766 11.5371 4.51953 11.5371H0.645508C0.607429 11.5371 0.570369 11.5216 0.542969 11.4941C0.515686 11.4666 0.50004 11.4291 0.5 11.3896V7.50391L0.511719 7.44629C0.519076 7.42862 0.529337 7.41212 0.542969 7.39844C0.570369 7.37095 0.607429 7.35551 0.645508 7.35547ZM7.10254 7.35547H10.9766C11.0144 7.35558 11.0508 7.37122 11.0781 7.39844C11.1056 7.42601 11.1221 7.46425 11.1221 7.50391V11.3896C11.122 11.4293 11.1056 11.4666 11.0781 11.4941C11.0508 11.5215 11.0145 11.537 10.9766 11.5371H7.10254C7.06441 11.5371 7.02744 11.5217 7 11.4941C6.97257 11.4666 6.95707 11.4292 6.95703 11.3896V7.50391C6.95703 7.46425 6.97251 7.42601 7 7.39844C7.02741 7.37105 7.06451 7.35547 7.10254 7.35547ZM9.03906 0.5C9.07719 0.5 9.11417 0.51546 9.1416 0.542969L11.457 2.86523C11.4843 2.89273 11.4999 2.93027 11.5 2.96973C11.5 3.00938 11.4845 3.04762 11.457 3.0752L9.1416 5.39746C9.11418 5.42493 9.07715 5.44043 9.03906 5.44043C9.00098 5.4404 8.96393 5.42495 8.93652 5.39746L6.62109 3.0752C6.59367 3.04763 6.57812 3.00934 6.57812 2.96973C6.5782 2.93032 6.59386 2.89272 6.62109 2.86523L8.93652 0.542969C8.96393 0.515485 9.00098 0.500027 9.03906 0.5ZM0.645508 0.878906H4.51953C4.55762 0.878906 4.59464 0.894409 4.62207 0.921875C4.64956 0.949447 4.66504 0.987686 4.66504 1.02734V4.91309C4.66501 4.95261 4.64941 4.99005 4.62207 5.01758C4.59463 5.0451 4.55766 5.06055 4.51953 5.06055H0.645508C0.607431 5.06051 0.57037 5.04506 0.542969 5.01758C0.515688 4.99006 0.500033 4.95256 0.5 4.91309V1.02734L0.511719 0.969727C0.519078 0.952057 0.529337 0.935553 0.542969 0.921875C0.570369 0.89439 0.607429 0.878945 0.645508 0.878906Z" stroke="black"/>
</svg>
