<svg width="24" height="24" viewBox="0 0 24 24" fill="none" xmlns="http://www.w3.org/2000/svg">
<path fill-rule="evenodd" clip-rule="evenodd" d="M19.9184 8.75H16.8423V6.5C16.8423 4.01472 14.7765 2 12.2282 2C9.67991 2 7.61411 4.01472 7.61411 6.5V8.75H4.53804C3.6886 8.75 3 9.42157 3 10.25V20.75C3 21.5784 3.6886 22.25 4.53804 22.25H19.9184C20.7678 22.25 21.4564 21.5784 21.4564 20.75V10.25C21.4564 9.42157 20.7678 8.75 19.9184 8.75ZM9.15214 6.5C9.15214 4.84315 10.5293 3.5 12.2282 3.5C13.9271 3.5 15.3043 4.84315 15.3043 6.5V8.75H9.15214V6.5ZM19.9184 20.75H4.53804V10.25H19.9184V20.75ZM13.3817 15.5C13.3817 16.1213 12.8653 16.625 12.2282 16.625C11.5911 16.625 11.0747 16.1213 11.0747 15.5C11.0747 14.8787 11.5911 14.375 12.2282 14.375C12.8653 14.375 13.3817 14.8787 13.3817 15.5Z" fill="#ADADAD"/>
</svg>
