<svg width="12" height="12" viewBox="0 0 12 12" fill="none" xmlns="http://www.w3.org/2000/svg">
<path d="M10.5 0H2.91667C1.30842 0 0 1.30842 0 2.91667V8.75C0 10.3583 1.30842 11.6667 2.91667 11.6667H9.91667C10.8815 11.6667 11.6667 10.8815 11.6667 9.91667C11.6667 8.95183 10.8815 8.16667 9.91667 8.16667H2.33333V9.33333H9.91667C10.0714 9.33333 10.2198 9.39479 10.3291 9.50419C10.4385 9.61358 10.5 9.76196 10.5 9.91667C10.5 10.0714 10.4385 10.2198 10.3291 10.3291C10.2198 10.4385 10.0714 10.5 9.91667 10.5H2.91667C1.95183 10.5 1.16667 9.71483 1.16667 8.75C1.16667 7.78517 1.95183 7 2.91667 7H10.5C11.1434 7 11.6667 6.47675 11.6667 5.83333V1.16667C11.6667 0.52325 11.1434 0 10.5 0ZM10.5 5.83333H2.91667C2.28525 5.8324 1.67079 6.03763 1.16667 6.41783V2.91667C1.16667 1.95183 1.95183 1.16667 2.91667 1.16667H10.5V5.83333Z" fill="#FF9100"/>
</svg>
