<svg width="23" height="20" viewBox="0 0 23 20" fill="none" xmlns="http://www.w3.org/2000/svg">
<rect x="2.87412" y="0.775" width="16.7661" height="16.2111" rx="2.225" fill="white" stroke="#626262" stroke-width="1.55"/>
<rect x="20.5551" y="16.086" width="3.13893" height="18.6598" rx="1.225" transform="rotate(90 20.5551 16.086)" fill="white" stroke="#626262" stroke-width="1.55"/>
<path d="M2 6.70862H2.68848C3.36503 6.70862 3.91406 7.25668 3.91406 7.93323V19.2252H3C1.77117 19.2252 0.775391 18.2285 0.775391 16.9996V7.93323C0.775391 7.25668 1.32345 6.70862 2 6.70862Z" fill="white" stroke="#626262" stroke-width="1.55"/>
<path d="M19.7515 6.70862H20.4399C21.1165 6.70862 21.6655 7.25668 21.6655 7.93323V16.9996C21.6655 18.2285 20.6688 19.2252 19.4399 19.2252H18.5269V7.93323C18.5269 7.25668 19.0749 6.70862 19.7515 6.70862Z" fill="white" stroke="#626262" stroke-width="1.55"/>
</svg>
