<svg width="20" height="19" viewBox="0 0 20 19" fill="none" xmlns="http://www.w3.org/2000/svg">
<path fill-rule="evenodd" clip-rule="evenodd" d="M19.408 17.6274C17.9802 15.159 15.7799 13.389 13.2121 12.5499C15.8228 10.9957 17.0734 7.88882 16.2675 4.95934C15.4615 2.02985 12.7976 -0.000109196 9.75928 -0.000109196C6.72095 -0.000109196 4.05707 2.02985 3.2511 4.95934C2.44513 7.88882 3.69573 10.9957 6.30647 12.5499C3.73865 13.3881 1.53834 15.1581 0.110527 17.6274C-0.0320191 17.8599 -0.0371954 18.1514 0.0970085 18.3887C0.231212 18.626 0.483653 18.7719 0.756302 18.7695C1.02895 18.7672 1.27885 18.6171 1.40896 18.3774C3.17521 15.3249 6.29709 13.5024 9.75928 13.5024C13.2215 13.5024 16.3433 15.3249 18.1096 18.3774C18.2397 18.6171 18.4896 18.7672 18.7623 18.7695C19.0349 18.7719 19.2873 18.626 19.4215 18.3887C19.5558 18.1514 19.5506 17.8599 19.408 17.6274ZM4.50928 6.75244C4.50928 3.85295 6.85978 1.50244 9.75928 1.50244C12.6588 1.50244 15.0093 3.85295 15.0093 6.75244C15.0093 9.65194 12.6588 12.0024 9.75928 12.0024C6.86107 11.9993 4.51238 9.65065 4.50928 6.75244Z" fill="#ADADAD"/>
</svg>
