<svg width="40" height="40" viewBox="0 0 40 40" fill="none" xmlns="http://www.w3.org/2000/svg">
<rect width="40" height="40" rx="8" fill="#FDF6E3"/>
<g clip-path="url(#clip0_2030_997)">
<path fill-rule="evenodd" clip-rule="evenodd" d="M18.9922 22.805C21.0561 21.431 21.9769 18.8677 21.2592 16.4944C20.5414 14.1211 18.3544 12.4977 15.875 12.4977C13.3956 12.4977 11.2086 14.1211 10.4908 16.4944C9.7731 18.8677 10.6939 21.431 12.7578 22.805C10.9395 23.4752 9.38666 24.7153 8.33094 26.3403C8.17993 26.5647 8.16148 26.8531 8.28266 27.095C8.40384 27.3368 8.64586 27.4947 8.91603 27.5081C9.18621 27.5215 9.44266 27.3884 9.58719 27.1597C10.9708 25.0317 13.3368 23.7479 15.875 23.7479C18.4132 23.7479 20.7792 25.0317 22.1628 27.1597C22.3917 27.4999 22.8514 27.5932 23.1948 27.3692C23.5382 27.1452 23.6381 26.6869 23.4191 26.3403C22.3633 24.7153 20.8105 23.4752 18.9922 22.805ZM11.75 18.125C11.75 15.8468 13.5968 14 15.875 14C18.1532 14 20 15.8468 20 18.125C20 20.4032 18.1532 22.25 15.875 22.25C13.5979 22.2474 11.7526 20.4021 11.75 18.125ZM31.4506 27.3781C31.1037 27.6043 30.6391 27.5066 30.4128 27.1597C29.0308 25.0303 26.6636 23.7466 24.125 23.75C23.7108 23.75 23.375 23.4142 23.375 23C23.375 22.5858 23.7108 22.25 24.125 22.25C25.7863 22.2484 27.2846 21.2504 27.9261 19.718C28.5677 18.1855 28.2273 16.4178 27.0626 15.2331C25.898 14.0484 24.1363 13.6781 22.5931 14.2934C22.3427 14.4017 22.0531 14.3654 21.8372 14.1986C21.6212 14.0319 21.5128 13.761 21.5542 13.4913C21.5956 13.2215 21.7802 12.9956 22.0363 12.9012C24.7109 11.8346 27.7592 12.96 29.099 15.5088C30.4388 18.0576 29.6374 21.2067 27.2422 22.805C29.0605 23.4752 30.6133 24.7153 31.6691 26.3403C31.8953 26.6872 31.7975 27.1518 31.4506 27.3781Z" fill="#140D1C"/>
</g>
<defs>
<clipPath id="clip0_2030_997">
<rect width="24" height="24" fill="white" transform="translate(8 8)"/>
</clipPath>
</defs>
</svg>
