<svg width="8" height="14" viewBox="0 0 8 14" fill="none" xmlns="http://www.w3.org/2000/svg">
<path d="M2.5 2.5H5.16667V1.16667C5.16667 0.989856 5.09643 0.820286 4.9714 0.695262C4.84638 0.570238 4.67681 0.5 4.5 0.5H3.16667C2.98986 0.5 2.82029 0.570238 2.69526 0.695262C2.57024 0.820286 2.5 0.989856 2.5 1.16667V2.5Z" stroke="#FF9100" stroke-linecap="round" stroke-linejoin="round"/>
<path d="M5.16667 1.5C5.16667 2.584 5.50467 3.64133 6.13333 4.52467L6.16667 4.57133C6.81691 5.48527 7.16643 6.57901 7.16667 7.70067V11.8333C7.16667 12.187 7.02619 12.5261 6.77614 12.7761C6.52609 13.0262 6.18696 13.1667 5.83333 13.1667H1.83333C1.47971 13.1667 1.14057 13.0262 0.890524 12.7761C0.640476 12.5261 0.5 12.187 0.5 11.8333V7.7C0.5 6.57867 0.849333 5.48533 1.5 4.57133L1.53333 4.52467C2.16223 3.64149 2.50014 2.58421 2.5 1.5" stroke="#FF9100" stroke-linecap="round" stroke-linejoin="round"/>
<path d="M0.5 9.03536C0.766669 8.92069 0.99712 8.73564 1.16667 8.50003C1.31811 8.28903 1.51865 8.11808 1.75095 8.00192C1.98325 7.88577 2.24034 7.82792 2.5 7.83336C2.75966 7.82792 3.01675 7.88577 3.24905 8.00192C3.48135 8.11808 3.68189 8.28903 3.83333 8.50003C3.98478 8.71102 4.18531 8.88198 4.41762 8.99813C4.64992 9.11428 4.907 9.17213 5.16667 9.16669C5.42633 9.17213 5.68342 9.11428 5.91572 8.99813C6.14802 8.88198 6.34855 8.71102 6.5 8.50003C6.66937 8.26392 6.89984 8.07839 7.16667 7.96336" stroke="#FF9100" stroke-linecap="round" stroke-linejoin="round"/>
</svg>
