<svg width="40" height="40" viewBox="0 0 40 40" fill="none" xmlns="http://www.w3.org/2000/svg">
<rect width="40" height="40" rx="8" fill="#FDF6E3"/>
<g clip-path="url(#clip0_2030_919)">
<path fill-rule="evenodd" clip-rule="evenodd" d="M29.6488 27.875C28.2209 25.4066 26.0206 23.6366 23.4528 22.7975C26.0635 21.2433 27.3141 18.1364 26.5082 15.2069C25.7022 12.2774 23.0383 10.2474 20 10.2474C16.9617 10.2474 14.2978 12.2774 13.4918 15.2069C12.6858 18.1364 13.9365 21.2433 16.5472 22.7975C13.9794 23.6356 11.7791 25.4056 10.3512 27.875C10.2087 28.1074 10.2035 28.3989 10.3377 28.6363C10.4719 28.8736 10.7244 29.0194 10.997 29.0171C11.2697 29.0147 11.5196 28.8646 11.6497 28.625C13.4159 25.5725 16.5378 23.75 20 23.75C23.4622 23.75 26.5841 25.5725 28.3503 28.625C28.4804 28.8646 28.7303 29.0147 29.003 29.0171C29.2756 29.0194 29.5281 28.8736 29.6623 28.6363C29.7965 28.3989 29.7913 28.1074 29.6488 27.875ZM14.75 17C14.75 14.1005 17.1005 11.75 20 11.75C22.8995 11.75 25.25 14.1005 25.25 17C25.25 19.8995 22.8995 22.25 20 22.25C17.1018 22.2469 14.7531 19.8982 14.75 17Z" fill="#140D1C"/>
</g>
<defs>
<clipPath id="clip0_2030_919">
<rect width="24" height="24" fill="white" transform="translate(8 8)"/>
</clipPath>
</defs>
</svg>
