<svg width="14" height="14" viewBox="0 0 14 14" fill="none" xmlns="http://www.w3.org/2000/svg">
<path d="M10.1115 7.24198C9.92219 8.81865 8.88953 9.44865 8.44353 9.90598C7.99686 10.3646 8.07686 10.456 8.10686 11.1286C8.11187 11.2119 8.09978 11.2952 8.07134 11.3736C8.0429 11.452 7.99871 11.5237 7.9415 11.5844C7.88429 11.645 7.81526 11.6933 7.73868 11.7263C7.66209 11.7592 7.57957 11.7761 7.49619 11.776H5.72419C5.64088 11.7758 5.55846 11.7587 5.48198 11.7257C5.40549 11.6926 5.33654 11.6443 5.27934 11.5838C5.22213 11.5232 5.17786 11.4516 5.14924 11.3733C5.12062 11.2951 5.10824 11.2118 5.11286 11.1286C5.11286 10.4686 5.17419 10.3153 4.77686 9.90598C4.27019 9.39932 3.07819 8.68398 3.07819 6.71665C3.07515 6.22798 3.17337 5.74398 3.36667 5.29516C3.55997 4.84634 3.84414 4.44242 4.20129 4.10888C4.55844 3.77534 4.98081 3.5194 5.44178 3.3572C5.90276 3.19499 6.39233 3.13005 6.87965 3.16644C7.36697 3.20284 7.84147 3.3398 8.27323 3.56868C8.70499 3.79757 9.08465 4.11341 9.38829 4.49631C9.69192 4.87921 9.91295 5.32085 10.0374 5.79341C10.1619 6.26597 10.1871 6.75919 10.1115 7.24198Z" stroke="#FF9100" stroke-linecap="round" stroke-linejoin="round"/>
<path d="M5.58333 11.7393V12.7473C5.58333 13.0227 5.73667 13.2487 5.92533 13.2487H7.294C7.484 13.2487 7.63667 13.022 7.63667 12.7473V11.7393M6.09 4.71267C5.69636 4.71284 5.3189 4.86934 5.04061 5.14775C4.76233 5.42616 4.606 5.80369 4.606 6.19733M11.498 6.85133H12.7207M10.2673 2.84333L11.1347 1.976M10.934 10.2487L11.8013 11.1153M6.61 0.5V1.48867M2.10333 1.97533L2.96467 2.84333M1.43667 11.1153L2.298 10.2487M1.722 6.85133H0.5" stroke="#FF9100" stroke-linecap="round" stroke-linejoin="round"/>
</svg>
