<svg width="21" height="31" viewBox="0 0 21 31" fill="none" xmlns="http://www.w3.org/2000/svg">
<path d="M16.2546 0.00265862C18.6789 -0.079586 20.866 1.75603 21 4.16382V18.434C20.9271 19.4613 19.7103 19.9053 19.0042 19.1259L16.6573 16.3628L16.6519 4.78316C16.6507 4.6679 16.5988 4.55529 16.5109 4.47954C16.2372 4.24223 15.8944 4.47747 15.6306 4.60688C12.9193 5.93724 10.2974 7.46422 7.64527 8.90158C7.42098 9.04691 7.382 9.34759 7.53522 9.56042L16.3064 19.3024C18.1934 21.2409 17.8522 24.2722 15.6108 25.7826C12.7073 27.2849 9.86596 28.984 6.93642 30.4317C4.00689 31.8794 0.637169 30.4732 0.043166 27.2141C-0.00990754 22.5462 -0.0204023 17.8589 0.0479636 13.1942C0.281247 12.3561 1.26925 12.0174 1.94422 12.6388L4.35082 15.2842L4.35531 26.3342C4.39249 26.7109 4.7757 26.7861 5.07765 26.6287C7.69145 25.2282 10.3493 23.9072 12.9175 22.4268C13.0971 22.2871 13.1385 22.0401 13.0288 21.8458C9.91873 18.3573 6.75591 14.9116 3.76281 11.3226C2.30823 9.28922 3.19849 6.59313 5.29624 5.41252C8.25067 3.89763 11.0813 2.12775 14.0414 0.626715C14.7457 0.269438 15.4501 0.0294839 16.2546 0.00236384V0.00265862Z" fill="black"/>
</svg>
