<svg width="64" height="69" viewBox="0 0 64 69" fill="none" xmlns="http://www.w3.org/2000/svg">
<g filter="url(#filter0_d_2138_603)">
<path d="M11.0241 34.2067C11.023 38.3236 12.0847 42.3435 14.1036 45.8867L10.8311 57.9928L23.059 54.7443C26.441 56.6097 30.2304 57.5872 34.0812 57.5875H34.0913C46.8034 57.5875 57.1513 47.107 57.1567 34.2251C57.1592 27.9829 54.762 22.1132 50.4068 17.6971C46.0522 13.2814 40.2609 10.8483 34.0903 10.8455C21.3768 10.8455 11.0296 21.3254 11.0243 34.2067" fill="url(#paint0_linear_2138_603)"/>
<path d="M10.2006 34.1992C10.1993 38.4643 11.299 42.6279 13.3899 46.298L10 58.838L22.6663 55.4731C26.1563 57.401 30.0857 58.4175 34.0841 58.419H34.0944C47.2625 58.419 57.9822 47.5615 57.9878 34.2185C57.9901 27.7521 55.5067 21.6713 50.9958 17.097C46.4844 12.5233 40.4859 10.0027 34.0944 10C20.924 10 10.2058 20.856 10.2006 34.1992ZM17.7438 45.6659L17.2709 44.9053C15.2828 41.7024 14.2334 38.0012 14.2349 34.2007C14.239 23.1102 23.1475 14.0871 34.1019 14.0871C39.4068 14.0894 44.3923 16.1846 48.1421 19.9861C51.8917 23.788 53.955 28.8418 53.9537 34.217C53.9488 45.3075 45.0401 54.3317 34.0944 54.3317H34.0865C30.5225 54.3298 27.0271 53.3601 23.9787 51.5275L23.2533 51.0916L15.7368 53.0883L17.7438 45.6659Z" fill="url(#paint1_linear_2138_603)"/>
<path d="M28.1227 24.0824C27.6754 23.0753 27.2047 23.0549 26.7794 23.0373C26.4311 23.0221 26.033 23.0232 25.6352 23.0232C25.237 23.0232 24.5901 23.175 24.0433 23.7799C23.496 24.3853 21.9536 25.8485 21.9536 28.8244C21.9536 31.8003 24.093 34.6765 24.3912 35.0804C24.6899 35.4836 28.5214 41.786 34.5896 44.2106C39.6328 46.2255 40.6591 45.8247 41.7536 45.7237C42.8484 45.623 45.286 44.2609 45.7833 42.8485C46.281 41.4362 46.281 40.2256 46.1318 39.9727C45.9826 39.7206 45.5844 39.5693 44.9874 39.2669C44.3904 38.9645 41.455 37.501 40.9079 37.2991C40.3605 37.0974 39.9625 36.9968 39.5644 37.6024C39.1662 38.2071 38.023 39.5693 37.6745 39.9727C37.3264 40.377 36.9779 40.4273 36.3811 40.1248C35.7837 39.8213 33.861 39.1833 31.5799 37.1229C29.8051 35.5195 28.6069 33.5396 28.2586 32.9339C27.9103 32.3292 28.2213 32.0014 28.5206 31.7C28.7889 31.429 29.1179 30.9937 29.4167 30.6406C29.7143 30.2874 29.8137 30.0353 30.0128 29.6319C30.212 29.2282 30.1123 28.8749 29.9633 28.5724C29.8137 28.2698 28.6535 25.2784 28.1227 24.0824Z" fill="white"/>
</g>
<defs>
<filter id="filter0_d_2138_603" x="-0.00598145" y="0" width="68" height="69" filterUnits="userSpaceOnUse" color-interpolation-filters="sRGB">
<feFlood flood-opacity="0" result="BackgroundImageFix"/>
<feColorMatrix in="SourceAlpha" type="matrix" values="0 0 0 0 0 0 0 0 0 0 0 0 0 0 0 0 0 0 127 0" result="hardAlpha"/>
<feOffset/>
<feGaussianBlur stdDeviation="5"/>
<feComposite in2="hardAlpha" operator="out"/>
<feColorMatrix type="matrix" values="0 0 0 0 0 0 0 0 0 0 0 0 0 0 0 0 0 0 0.25 0"/>
<feBlend mode="normal" in2="BackgroundImageFix" result="effect1_dropShadow_2138_603"/>
<feBlend mode="normal" in="SourceGraphic" in2="effect1_dropShadow_2138_603" result="shape"/>
</filter>
<linearGradient id="paint0_linear_2138_603" x1="2327.12" y1="4725.58" x2="2327.12" y2="10.8455" gradientUnits="userSpaceOnUse">
<stop stop-color="#1FAF38"/>
<stop offset="1" stop-color="#60D669"/>
</linearGradient>
<linearGradient id="paint1_linear_2138_603" x1="2409.39" y1="4893.8" x2="2409.39" y2="10" gradientUnits="userSpaceOnUse">
<stop stop-color="#F9F9F9"/>
<stop offset="1" stop-color="white"/>
</linearGradient>
</defs>
</svg>
