<svg width="159" height="29" viewBox="0 0 159 29" fill="none" xmlns="http://www.w3.org/2000/svg">
<path d="M13.0616 0.253915C13.2025 0.204458 13.4779 0.12889 13.6732 0.0861594C13.9644 0.0224599 14.1345 0.0113817 14.6202 0.0248338C15.044 0.0363076 15.3045 0.0643987 15.5377 0.12335C15.7168 0.168454 16.0187 0.272906 16.2085 0.354805C16.3982 0.436704 16.678 0.586655 16.8299 0.687942C16.9818 0.788832 17.2198 0.975579 17.3583 1.10258C17.4972 1.22959 17.7106 1.46697 17.8326 1.62998C17.9549 1.79339 18.1325 2.08696 18.2272 2.2828C18.3223 2.47865 18.4462 2.80823 18.6052 3.39062L18.6158 10.0573C18.6249 15.9109 18.619 16.7493 18.5665 16.9317C18.5306 17.0571 18.4481 17.2047 18.359 17.304C18.2777 17.3942 18.1222 17.5098 18.0137 17.5608C17.8772 17.6245 17.7434 17.6534 17.5796 17.6542C17.3981 17.655 17.292 17.6292 17.1259 17.5458C16.9317 17.4476 16.7928 17.2977 14.7189 14.8249L14.6992 4.24324L14.5899 4.13325C14.5125 4.0561 14.4427 4.02485 14.3531 4.02722C14.2659 4.02999 13.5063 4.41654 11.9568 5.24701C10.7091 5.91565 9.02341 6.83989 8.21135 7.30082C6.90882 8.03989 6.72889 8.15344 6.68233 8.267C6.64484 8.35918 6.64089 8.42367 6.6693 8.49449C6.69101 8.5487 8.47573 10.5966 10.6349 13.0445C12.7945 15.4927 14.6506 17.6067 14.7599 17.7428C14.8692 17.8789 15.0464 18.1681 15.1533 18.3857C15.2603 18.6033 15.3881 18.9238 15.437 19.0979C15.5132 19.3677 15.5262 19.5106 15.527 20.0672C15.5278 20.6294 15.5152 20.7667 15.4359 21.0564C15.3853 21.2411 15.282 21.5264 15.2066 21.6894C15.1308 21.8528 14.9971 22.093 14.9091 22.2235C14.8215 22.3541 14.6139 22.6002 14.4482 22.7707C14.2825 22.9412 14.0402 23.1572 13.91 23.2502C13.7798 23.3436 11.9422 24.3608 9.826 25.5106C7.71023 26.6599 5.83673 27.6585 5.66311 27.729C5.48949 27.7994 5.16553 27.8936 4.94298 27.9383C4.68137 27.9909 4.38543 28.0198 4.10449 28.0198C3.82117 28.0198 3.52997 27.9913 3.26599 27.9375C3.04344 27.8924 2.72856 27.8038 2.5656 27.7404C2.40303 27.6771 2.13668 27.547 1.97372 27.4508C1.81115 27.3547 1.55348 27.1715 1.40156 27.0433C1.24965 26.9151 1.00461 26.6595 0.857427 26.4756C0.710246 26.2912 0.510585 25.9802 0.413911 25.7844C0.316843 25.5885 0.188997 25.2502 0.0205078 24.637V11.8575L0.144014 11.6399C0.224904 11.4971 0.333021 11.378 0.459684 11.2925C0.565433 11.2209 0.74063 11.1426 0.849141 11.118C0.996322 11.0848 1.10128 11.0848 1.26346 11.1188C1.38302 11.1442 1.54283 11.2102 1.61859 11.266C1.69474 11.3218 2.24006 11.905 3.90522 13.7566L3.90719 23.8259L4.03543 23.9513C4.14 24.0538 4.18538 24.0724 4.28205 24.0538C4.34716 24.0411 5.51001 23.435 6.8666 22.707C8.22279 21.9786 9.79444 21.1204 10.3587 20.7996C10.923 20.4791 11.4162 20.1875 11.4545 20.1519C11.4927 20.1163 11.5326 20.038 11.5432 19.9782C11.5535 19.9185 11.5401 19.8259 11.5129 19.7733C11.4856 19.7202 10.4072 18.4791 9.11575 17.0152C7.82426 15.5517 6.00442 13.4504 5.07123 12.3461C4.08831 11.1829 3.29558 10.2088 3.18668 10.03C3.08329 9.85988 2.94637 9.56987 2.88206 9.3847C2.81813 9.19954 2.74356 8.87036 2.71672 8.65275C2.67924 8.34771 2.67805 8.1665 2.71317 7.86145C2.73803 7.64385 2.8059 7.31467 2.8639 7.1295C2.92191 6.94434 3.02292 6.68638 3.08842 6.55581C3.15432 6.42525 3.28059 6.2116 3.36937 6.08103C3.45815 5.95047 3.63769 5.73049 3.7683 5.59201C3.89891 5.45353 4.12106 5.25492 4.26232 5.15086C4.40358 5.04681 6.38323 3.92237 8.66197 2.65273C10.9407 1.3827 12.9208 0.303371 13.0616 0.253915Z" fill="white"/>
<path d="M151.946 9.20666C151.937 9.2937 151.93 9.24029 151.93 9.08797C151.93 8.93564 151.937 8.86443 151.945 8.92971C151.954 8.99499 151.954 9.11962 151.946 9.20666Z" fill="white"/>
<path d="M13.0616 0.253915C13.2025 0.204458 13.4779 0.12889 13.6732 0.0861594C13.9644 0.0224599 14.1345 0.0113817 14.6202 0.0248338C15.044 0.0363076 15.3045 0.0643987 15.5377 0.12335C15.7168 0.168454 16.0187 0.272906 16.2085 0.354805C16.3982 0.436704 16.678 0.586655 16.8299 0.687942C16.9818 0.788832 17.2198 0.975579 17.3583 1.10258C17.4972 1.22959 17.7106 1.46697 17.8326 1.62998C17.9549 1.79339 18.1325 2.08696 18.2272 2.2828C18.3223 2.47865 18.4462 2.80823 18.6052 3.39062L18.6158 10.0573C18.6249 15.9109 18.619 16.7493 18.5665 16.9317C18.5306 17.0571 18.4481 17.2047 18.359 17.304C18.2777 17.3942 18.1222 17.5098 18.0137 17.5608C17.8772 17.6245 17.7434 17.6534 17.5796 17.6542C17.3981 17.655 17.292 17.6292 17.1259 17.5458C16.9317 17.4476 16.7928 17.2977 14.7189 14.8249L14.6992 4.24324L14.5899 4.13325C14.5125 4.0561 14.4427 4.02485 14.3531 4.02722C14.2659 4.02999 13.5063 4.41654 11.9568 5.24701C10.7091 5.91565 9.02341 6.83989 8.21135 7.30082C6.90882 8.03989 6.72889 8.15344 6.68233 8.267C6.64484 8.35918 6.64089 8.42367 6.6693 8.49449C6.69101 8.5487 8.47573 10.5966 10.6349 13.0445C12.7945 15.4927 14.6506 17.6067 14.7599 17.7428C14.8692 17.8789 15.0464 18.1681 15.1533 18.3857C15.2603 18.6033 15.3881 18.9238 15.437 19.0979C15.5132 19.3677 15.5262 19.5106 15.527 20.0672C15.5278 20.6294 15.5152 20.7667 15.4359 21.0564C15.3853 21.2411 15.282 21.5264 15.2066 21.6894C15.1308 21.8528 14.9971 22.093 14.9091 22.2235C14.8215 22.3541 14.6139 22.6002 14.4482 22.7707C14.2825 22.9412 14.0402 23.1572 13.91 23.2502C13.7798 23.3436 11.9422 24.3608 9.826 25.5106C7.71023 26.6599 5.83673 27.6585 5.66311 27.729C5.48949 27.7994 5.16553 27.8936 4.94298 27.9383C4.68137 27.9909 4.38543 28.0198 4.10449 28.0198C3.82117 28.0198 3.52997 27.9913 3.26599 27.9375C3.04344 27.8924 2.72856 27.8038 2.5656 27.7404C2.40303 27.6771 2.13668 27.547 1.97372 27.4508C1.81115 27.3547 1.55348 27.1715 1.40156 27.0433C1.24965 26.9151 1.00461 26.6595 0.857427 26.4756C0.710246 26.2912 0.510585 25.9802 0.413911 25.7844C0.316843 25.5885 0.188997 25.2502 0.0205078 24.637V11.8575L0.144014 11.6399C0.224904 11.4971 0.333021 11.378 0.459684 11.2925C0.565433 11.2209 0.74063 11.1426 0.849141 11.118C0.996322 11.0848 1.10128 11.0848 1.26346 11.1188C1.38302 11.1442 1.54283 11.2102 1.61859 11.266C1.69474 11.3218 2.24006 11.905 3.90522 13.7566L3.90719 23.8259L4.03543 23.9513C4.14 24.0538 4.18538 24.0724 4.28205 24.0538C4.34716 24.0411 5.51001 23.435 6.8666 22.707C8.22279 21.9786 9.79444 21.1204 10.3587 20.7996C10.923 20.4791 11.4162 20.1875 11.4545 20.1519C11.4927 20.1163 11.5326 20.038 11.5432 19.9782C11.5535 19.9185 11.5401 19.8259 11.5129 19.7733C11.4856 19.7202 10.4072 18.4791 9.11575 17.0152C7.82426 15.5517 6.00442 13.4504 5.07123 12.3461C4.08831 11.1829 3.29558 10.2088 3.18668 10.03C3.08329 9.85988 2.94637 9.56987 2.88206 9.3847C2.81813 9.19954 2.74356 8.87036 2.71672 8.65275C2.67924 8.34771 2.67805 8.1665 2.71317 7.86145C2.73803 7.64385 2.8059 7.31467 2.8639 7.1295C2.92191 6.94434 3.02292 6.68638 3.08842 6.55581C3.15432 6.42525 3.28059 6.2116 3.36937 6.08103C3.45815 5.95047 3.63769 5.73049 3.7683 5.59201C3.89891 5.45353 4.12106 5.25492 4.26232 5.15086C4.40358 5.04681 6.38323 3.92237 8.66197 2.65273C10.9407 1.3827 12.9208 0.303371 13.0616 0.253915Z" stroke="white" stroke-width="0.0394587"/>
<path d="M151.946 9.20666C151.937 9.2937 151.93 9.24029 151.93 9.08797C151.93 8.93564 151.937 8.86443 151.945 8.92971C151.954 8.99499 151.954 9.11962 151.946 9.20666Z" stroke="white" stroke-width="0.0394587"/>
<path fill-rule="evenodd" clip-rule="evenodd" d="M155.054 6.08103C155.271 6.08895 155.51 6.10636 155.587 6.11981C155.663 6.13366 155.813 6.17283 155.922 6.20725C156.03 6.24167 156.208 6.31447 156.317 6.36907C156.425 6.42327 156.611 6.53405 156.731 6.61516C156.85 6.69627 157.055 6.87629 157.186 7.01516C157.316 7.15443 157.498 7.39261 157.589 7.54494C157.68 7.69726 157.797 7.94652 157.85 8.09884C157.902 8.25117 157.964 8.50953 157.989 8.67254C158.014 8.83594 158.027 9.11171 158.018 9.28579C158.009 9.45988 157.971 9.71824 157.934 9.85948C157.898 10.0007 157.815 10.2326 157.75 10.3738C157.686 10.5151 157.556 10.7378 157.462 10.8684C157.367 10.999 157.204 11.1885 157.099 11.2898C156.994 11.391 156.802 11.5473 156.672 11.6375C156.541 11.7273 156.311 11.852 156.159 11.9149C156.007 11.9774 155.745 12.0569 155.577 12.0917C155.369 12.1341 155.141 12.1487 154.866 12.1376C154.644 12.1281 154.355 12.0917 154.225 12.0561C154.095 12.0205 153.855 11.9283 153.693 11.8516C153.53 11.7744 153.317 11.6553 153.219 11.5869C153.122 11.5184 152.948 11.3689 152.834 11.2545C152.72 11.1402 152.549 10.9262 152.454 10.7794C152.359 10.6326 152.234 10.3964 152.177 10.2551C152.12 10.1139 152.044 9.85553 152.009 9.68144C151.963 9.45394 151.952 9.24267 151.966 8.92971C151.982 8.58114 152.011 8.42367 152.109 8.13841C152.177 7.94256 152.29 7.68777 152.361 7.57224C152.431 7.45671 152.564 7.26956 152.656 7.1568C152.748 7.04365 152.926 6.86719 153.051 6.76393C153.176 6.66106 153.322 6.55463 153.377 6.52812C153.431 6.50121 153.52 6.45018 153.574 6.41417C153.628 6.37817 153.806 6.30141 153.969 6.24365C154.132 6.18549 154.353 6.12218 154.462 6.1024C154.571 6.08262 154.837 6.07312 155.054 6.08103V6.08103ZM153.87 6.70814C153.718 6.78133 153.496 6.91467 153.377 7.00408C153.257 7.0939 153.066 7.27906 152.952 7.41556C152.838 7.55206 152.683 7.78826 152.609 7.94059C152.534 8.09291 152.446 8.33346 152.413 8.47471C152.379 8.61596 152.352 8.89212 152.351 9.08797C152.351 9.30953 152.378 9.55642 152.425 9.74079C152.466 9.90419 152.557 10.1535 152.628 10.2947C152.698 10.4359 152.825 10.6409 152.91 10.7497C152.995 10.8585 153.166 11.033 153.29 11.1378C153.414 11.2423 153.657 11.3982 153.831 11.4832C154.004 11.5687 154.279 11.6672 154.442 11.7024C154.647 11.7463 154.853 11.7602 155.113 11.7471C155.365 11.7345 155.592 11.6945 155.804 11.6261C155.98 11.5687 156.249 11.4385 156.415 11.3301C156.578 11.2237 156.814 11.0227 156.94 10.8838C157.065 10.7446 157.237 10.4977 157.321 10.3343C157.405 10.1713 157.505 9.9307 157.545 9.80014C157.597 9.62645 157.616 9.43574 157.615 9.08797C157.614 8.66541 157.601 8.57639 157.497 8.27689C157.432 8.09172 157.298 7.81596 157.198 7.66363C157.099 7.51131 156.904 7.28302 156.766 7.15601C156.609 7.01239 156.38 6.85928 156.159 6.74968C155.963 6.65314 155.679 6.5479 155.527 6.51625C155.375 6.4842 155.118 6.45928 154.955 6.46086C154.792 6.46204 154.544 6.48855 154.403 6.51941C154.262 6.55027 154.022 6.63534 153.87 6.70814V6.70814Z" fill="white" stroke="white" stroke-width="0.0394587"/>
<path fill-rule="evenodd" clip-rule="evenodd" d="M121.376 5.75026C122.233 5.7471 123.174 5.76372 123.467 5.78706C123.76 5.8104 124.235 5.87252 124.523 5.92554C124.81 5.97855 125.254 6.09052 125.509 6.1744C125.764 6.25828 126.15 6.41575 126.367 6.52415C126.584 6.63256 126.842 6.77104 126.939 6.83197C127.037 6.89329 127.259 7.05353 127.433 7.18884C127.606 7.32416 127.89 7.58489 128.064 7.76847C128.238 7.95245 128.488 8.26224 128.62 8.4569C128.753 8.65156 128.924 8.92693 129.002 9.06818C129.08 9.20982 129.224 9.5212 129.321 9.76056C129.419 9.99993 129.554 10.3916 129.62 10.631C129.687 10.8704 129.778 11.2533 129.822 11.4816C129.866 11.7099 129.927 12.1107 129.958 12.3718C129.988 12.633 130.025 13.1762 130.04 13.5786C130.055 14.0138 130.048 14.5831 130.021 14.9831C129.996 15.3531 129.94 15.8872 129.897 16.1701C129.854 16.453 129.783 16.836 129.739 17.0207C129.696 17.2059 129.587 17.5798 129.497 17.8516C129.406 18.1238 129.225 18.5598 129.093 18.8209C128.961 19.0821 128.746 19.4464 128.616 19.6308C128.486 19.8152 128.238 20.1159 128.064 20.2991C127.89 20.4819 127.58 20.7588 127.374 20.9143C127.168 21.0698 126.821 21.289 126.604 21.401C126.387 21.5129 126.041 21.67 125.835 21.7495C125.629 21.8294 125.247 21.9458 124.986 22.0083C124.726 22.0708 124.3 22.1535 124.039 22.1923C123.633 22.2524 123.276 22.2627 121.514 22.2627C119.739 22.2631 119.39 22.2532 118.929 22.1903C118.636 22.1503 118.184 22.0633 117.923 21.9976C117.663 21.9315 117.299 21.8199 117.114 21.7491C116.93 21.6787 116.645 21.5537 116.483 21.4722C116.32 21.3903 116.063 21.2431 115.911 21.1454C115.759 21.0476 115.485 20.8407 115.301 20.6856C115.118 20.5305 114.869 20.288 114.748 20.1464C114.627 20.0051 114.447 19.7736 114.347 19.632C114.248 19.4908 114.095 19.2502 114.008 19.0979C113.92 18.9456 113.787 18.6785 113.711 18.5044C113.635 18.3303 113.516 18.0189 113.447 17.812C113.377 17.6051 113.279 17.2581 113.228 17.0405C113.178 16.8229 113.109 16.4668 113.076 16.2492C113.042 16.0316 113.004 15.7736 112.992 15.6755C112.979 15.5774 112.953 15.1683 112.934 14.7655C112.916 14.3584 112.916 13.7178 112.934 13.3214C112.953 12.9297 112.996 12.3956 113.03 12.1345C113.065 11.8733 113.138 11.4551 113.192 11.2047C113.247 10.9546 113.363 10.536 113.449 10.2749C113.536 10.0138 113.687 9.63119 113.785 9.42426C113.883 9.21773 114.049 8.90596 114.155 8.73188C114.261 8.55779 114.461 8.27292 114.6 8.09884C114.739 7.92475 114.993 7.65175 115.165 7.49231C115.336 7.33247 115.637 7.09468 115.832 6.96332C116.027 6.83197 116.325 6.65551 116.493 6.57084C116.661 6.48657 116.932 6.36392 117.095 6.29863C117.258 6.23335 117.59 6.12692 117.834 6.06243C118.079 5.99755 118.456 5.91644 118.673 5.88162C118.89 5.8468 119.236 5.80447 119.442 5.78706C119.648 5.77005 120.519 5.75343 121.376 5.75026V5.75026ZM118.712 8.85334C118.495 8.90913 118.184 9.01714 118.022 9.0935C117.859 9.16946 117.619 9.30834 117.489 9.40211C117.359 9.49548 117.136 9.69449 116.995 9.84444C116.853 9.994 116.664 10.2413 116.575 10.3936C116.487 10.5459 116.35 10.8308 116.273 11.0266C116.195 11.2225 116.095 11.5339 116.051 11.719C116.007 11.9042 115.94 12.2603 115.903 12.5103C115.851 12.8557 115.835 13.2276 115.835 14.0534C115.835 14.8799 115.851 15.2506 115.903 15.5964C115.94 15.8464 116.014 16.2203 116.067 16.4272C116.12 16.6342 116.218 16.9368 116.285 17.0999C116.352 17.2633 116.481 17.5212 116.572 17.6735C116.663 17.8259 116.844 18.0641 116.975 18.2029C117.106 18.3422 117.319 18.5313 117.45 18.6239C117.58 18.7161 117.775 18.8364 117.884 18.8906C117.992 18.9452 118.25 19.0433 118.456 19.1086C118.662 19.1742 118.964 19.2518 119.127 19.2815C119.352 19.3222 119.92 19.3353 121.494 19.3353C123.373 19.3353 123.599 19.3281 123.921 19.2605C124.116 19.2193 124.427 19.1335 124.611 19.069C124.796 19.0049 125.053 18.8929 125.184 18.8201C125.314 18.7473 125.526 18.6021 125.655 18.4973C125.784 18.3924 125.983 18.1907 126.097 18.0494C126.211 17.9082 126.375 17.6589 126.461 17.4955C126.548 17.3325 126.682 17.0116 126.758 16.7833C126.835 16.555 126.934 16.1543 126.978 15.8931C127.023 15.632 127.078 15.1335 127.101 14.7853C127.125 14.4371 127.132 13.8943 127.117 13.5786C127.103 13.2628 127.065 12.7999 127.034 12.5499C127.002 12.2998 126.943 11.9525 126.902 11.7784C126.861 11.6043 126.788 11.3459 126.74 11.2047C126.692 11.0634 126.59 10.8229 126.514 10.6706C126.438 10.5182 126.31 10.2955 126.229 10.176C126.148 10.0561 125.95 9.83376 125.789 9.68143C125.628 9.52911 125.381 9.33722 125.241 9.25532C125.101 9.17342 124.853 9.05473 124.69 8.99142C124.528 8.92812 124.217 8.83672 124 8.78806C123.624 8.70339 123.512 8.69904 121.632 8.68954C120.547 8.684 119.535 8.69587 119.383 8.71565C119.231 8.73544 118.929 8.79755 118.712 8.85334ZM78.3263 5.82821C78.6846 5.82504 79.0315 5.84562 79.2536 5.88399C79.4489 5.91723 79.6975 5.97302 79.806 6.00783C79.9145 6.04265 80.1367 6.13919 80.2993 6.22227C80.4634 6.30615 80.7163 6.48499 80.8663 6.62307C81.0154 6.75996 81.2194 6.99695 81.3189 7.14928C81.4187 7.3016 81.5485 7.54216 81.6069 7.68341C81.6657 7.82465 82.9241 11.1362 84.4038 15.0425C85.8831 18.9487 87.1008 22.1578 87.1098 22.1741C87.1185 22.1903 86.4197 22.2033 83.9887 22.2021L83.3179 20.417C82.6723 18.6991 82.6407 18.6259 82.4794 18.4791C82.387 18.3952 82.1562 18.2524 81.9664 18.1622C81.7766 18.072 81.4436 17.9315 81.2265 17.85C81.0095 17.7681 80.6102 17.6466 80.3387 17.5794C80.0676 17.5121 79.6368 17.4302 79.3818 17.397C79.1269 17.3641 78.6519 17.3372 78.3263 17.3372C78.0008 17.3372 77.5257 17.3645 77.2708 17.3982C77.0159 17.4314 76.6474 17.4963 76.452 17.5418C76.2567 17.5873 75.8929 17.6941 75.6431 17.7788C75.3934 17.8635 74.9009 18.0747 74.5482 18.248C74.1674 18.4356 73.8841 18.5998 73.8505 18.6528C73.8193 18.7018 73.4867 19.5212 72.4272 22.2061L70.8785 22.2049C70.0266 22.2041 69.3368 22.1903 69.3451 22.1741C69.3538 22.1578 70.6335 18.9127 72.1885 14.9633C73.7436 11.0136 75.0789 7.65769 75.1558 7.50536C75.2324 7.35304 75.3535 7.14809 75.4249 7.05037C75.4963 6.95225 75.668 6.7655 75.8065 6.63494C75.9489 6.50081 76.1952 6.32554 76.3735 6.23217C76.5467 6.14117 76.8218 6.02999 76.9847 5.98488C77.1473 5.93978 77.3872 5.88755 77.5174 5.86817C77.6476 5.84918 78.0118 5.83098 78.3263 5.82821V5.82821ZM77.7435 8.95937C77.6729 9.0302 77.5707 9.19479 77.517 9.32535C77.4634 9.45591 76.9484 10.7643 76.3731 12.2334C75.7978 13.702 75.3314 14.9087 75.3369 14.9143C75.3425 14.9198 75.5248 14.8795 75.7418 14.8241C75.9588 14.7687 76.3404 14.6884 76.5901 14.6449C76.8399 14.6017 77.257 14.5467 77.5174 14.5226C77.7928 14.4969 78.3212 14.4882 78.7801 14.5008C79.2141 14.5131 79.7555 14.5523 79.9836 14.5875C80.2117 14.6227 80.5778 14.6907 80.7976 14.7382L81.1973 14.8249C81.0596 14.4569 80.581 13.1837 80.0452 11.7586C79.5089 10.3335 79.0319 9.11012 78.9845 9.04009C78.9372 8.97006 78.8275 8.87431 78.7406 8.82644C78.6538 8.77896 78.494 8.73346 78.3855 8.72555C78.2699 8.71684 78.1227 8.73544 78.0304 8.77065C77.9436 8.80349 77.8145 8.88855 77.7435 8.95937V8.95937ZM92.709 5.86738C92.9261 5.86579 93.2192 5.88914 93.3601 5.91921C93.501 5.94888 93.75 6.02485 93.9125 6.08775C94.0755 6.15066 94.3328 6.28439 94.4847 6.38568C94.6366 6.48657 94.8651 6.67292 94.9929 6.79992C95.1204 6.92692 95.2908 7.12831 95.3717 7.24819C95.4526 7.36768 95.5512 7.52792 95.5903 7.60428C95.6298 7.68024 96.5728 10.2975 97.686 13.4203C98.9913 17.082 99.7351 19.1157 99.7804 19.1481C99.8195 19.1754 99.913 19.1984 99.9892 19.1988C100.07 19.1992 100.155 19.1703 100.195 19.1287C100.233 19.09 101.238 16.5123 102.429 13.4005C103.62 10.2888 104.631 7.67154 104.677 7.58449C104.722 7.49745 104.813 7.34592 104.88 7.24819C104.946 7.15007 105.111 6.95739 105.247 6.8197C105.382 6.68202 105.618 6.48657 105.77 6.38568C105.922 6.28479 106.179 6.15066 106.342 6.08775C106.505 6.02485 106.754 5.94888 106.894 5.91921C107.035 5.88914 107.315 5.86461 107.516 5.86421C107.717 5.86382 108.019 5.89151 108.187 5.92633C108.355 5.96075 108.635 6.04423 108.808 6.11189C108.982 6.17954 109.248 6.31802 109.4 6.4201C109.552 6.52218 109.801 6.73899 109.953 6.902C110.104 7.06501 110.286 7.29409 110.357 7.4112C110.427 7.52831 110.528 7.73088 110.581 7.86145C110.634 7.99201 110.71 8.20566 110.749 8.33623C110.816 8.56016 110.821 8.9574 110.84 22.1642H107.96V15.636C107.96 9.9212 107.952 9.09033 107.901 8.96927C107.856 8.86442 107.806 8.82011 107.693 8.78608C107.612 8.76155 107.497 8.75285 107.437 8.7663C107.377 8.78015 107.304 8.83118 107.273 8.88024C107.242 8.9293 106.255 11.4884 105.079 14.5677C103.902 17.647 102.88 20.2817 102.807 20.4233C102.733 20.5649 102.588 20.7873 102.483 20.9179C102.379 21.0484 102.179 21.2498 102.039 21.3653C101.899 21.4813 101.607 21.6621 101.39 21.7681C101.173 21.8738 100.862 21.9901 100.699 22.0265C100.513 22.068 100.235 22.0922 99.9497 22.0914C99.6313 22.0902 99.4075 22.0668 99.2 22.013C99.0374 21.9703 98.7884 21.8836 98.6476 21.8203C98.5067 21.7566 98.3023 21.6447 98.1938 21.5707C98.0853 21.4971 97.8833 21.3289 97.7452 21.1972C97.607 21.0654 97.4275 20.8593 97.3462 20.7398C97.2653 20.6199 97.1584 20.4419 97.1091 20.3442C97.0598 20.2461 96.1159 17.6288 95.0118 14.5281C93.497 10.2749 92.9821 8.87273 92.9158 8.81931C92.8673 8.78014 92.7919 8.74889 92.7485 8.74928C92.7051 8.75008 92.6084 8.77302 92.5338 8.80032C92.4411 8.83474 92.3819 8.89132 92.3464 8.97916C92.3046 9.08361 92.2947 10.3386 92.2947 22.1642H89.4142L89.4245 15.3689C89.434 8.9574 89.4387 8.56016 89.5054 8.33623C89.5444 8.20566 89.6202 7.99201 89.6731 7.86145C89.7264 7.73088 89.8274 7.52831 89.898 7.4112C89.9682 7.29409 90.1501 7.06501 90.3021 6.902C90.454 6.73899 90.7026 6.52218 90.8545 6.4201C91.0064 6.31802 91.2727 6.17954 91.4464 6.11189C91.62 6.04384 91.8863 5.96194 92.0382 5.9291C92.1902 5.89665 92.492 5.86856 92.709 5.86738V5.86738ZM37.2892 6.06124V8.87035L28.4702 8.89014L28.1644 8.99894C27.9963 9.05868 27.7919 9.14968 27.7106 9.20112C27.6294 9.25255 27.4873 9.37718 27.395 9.47807C27.3026 9.57896 27.1918 9.73287 27.1484 9.81991C27.1049 9.90695 27.0426 10.0806 27.0099 10.2057C26.9775 10.3307 26.9507 10.5843 26.9507 10.7695C26.9507 10.9542 26.9787 11.2126 27.0126 11.3432C27.0465 11.4737 27.1219 11.6672 27.1803 11.7732C27.2387 11.8793 27.3752 12.0474 27.4837 12.1475C27.5923 12.2476 27.7876 12.377 27.9178 12.4348C28.048 12.4929 28.2879 12.5724 28.4505 12.612C28.7157 12.6765 29.0341 12.6868 31.5085 12.7109C33.8378 12.7339 34.3231 12.7481 34.6061 12.8035C34.7903 12.8395 35.1013 12.9115 35.2966 12.9633C35.4919 13.0156 35.8115 13.126 36.0068 13.2086C36.2022 13.2913 36.4953 13.4464 36.6579 13.5537C36.8209 13.6605 37.0845 13.8745 37.2435 14.0292C37.4029 14.1839 37.6278 14.453 37.7434 14.627C37.8586 14.8011 38.0003 15.0504 38.0579 15.181C38.1155 15.3115 38.2067 15.5695 38.2607 15.7546C38.3144 15.9394 38.3842 16.2599 38.4158 16.4668C38.447 16.6733 38.4726 17.1097 38.4722 17.4362C38.4722 17.7736 38.4454 18.2089 38.4099 18.4451C38.3759 18.6733 38.3029 19.0029 38.2485 19.177C38.1936 19.3511 38.0922 19.6182 38.0232 19.7705C37.9537 19.9228 37.8002 20.1879 37.6819 20.3596C37.5635 20.5313 37.3425 20.7885 37.1906 20.9313C37.0387 21.0738 36.7992 21.2656 36.6579 21.3574C36.5166 21.4488 36.2771 21.5802 36.1252 21.6486C35.9733 21.7171 35.6805 21.8251 35.4741 21.8888C35.2678 21.9521 34.9482 22.0344 34.7639 22.0716C34.4601 22.1329 33.9554 22.1404 24.4257 22.1642V19.3551L34.0734 19.3353L34.389 19.2229C34.5626 19.1608 34.8014 19.0453 34.9197 18.9657C35.0381 18.8862 35.2074 18.7228 35.2962 18.6033C35.3846 18.4834 35.4978 18.2698 35.5471 18.1285C35.6004 17.9758 35.6462 17.727 35.66 17.5153C35.6746 17.2953 35.6651 17.0611 35.6347 16.902C35.6079 16.7604 35.5357 16.538 35.4741 16.4075C35.4067 16.2642 35.2788 16.0902 35.1518 15.9687C35.0362 15.8579 34.8483 15.7198 34.7343 15.6621C34.6203 15.6043 34.3985 15.518 34.2411 15.471C33.9641 15.3879 33.8701 15.3843 31.2718 15.3578C29.5506 15.3404 28.4682 15.3135 28.2532 15.283C28.0689 15.2573 27.7493 15.1992 27.5429 15.1544C27.3366 15.1097 27.0438 15.0286 26.8919 14.9736C26.74 14.919 26.4914 14.8118 26.3394 14.7359C26.1875 14.6595 25.9658 14.5329 25.8466 14.4538C25.7274 14.375 25.5081 14.1946 25.3585 14.0534C25.2093 13.9117 24.9876 13.6447 24.8661 13.4599C24.7441 13.2747 24.5855 12.9811 24.5133 12.8071C24.4411 12.633 24.3488 12.3568 24.3081 12.1938C24.2675 12.0304 24.2134 11.7546 24.1878 11.5805C24.1617 11.4065 24.1412 10.997 24.142 10.6706C24.1428 10.3259 24.1688 9.91961 24.2047 9.70122C24.2383 9.49429 24.3026 9.19162 24.3472 9.02861C24.3918 8.86521 24.5161 8.55383 24.623 8.33623C24.7299 8.11862 24.9288 7.80131 25.0653 7.63158C25.2019 7.46145 25.4469 7.21614 25.6095 7.08637C25.7724 6.9566 26.0739 6.76352 26.2803 6.65788C26.4866 6.55185 26.7972 6.42129 26.9708 6.36708C27.1444 6.31327 27.3752 6.24839 27.4837 6.22307C27.5923 6.19774 27.8586 6.15264 28.0756 6.12297C28.387 6.08063 29.4018 6.06837 37.2892 6.06124V6.06124ZM40.6827 6.06124H43.4843V9.32535C43.4843 11.1204 43.4886 12.5895 43.4941 12.5895C43.4997 12.5895 43.7617 12.4589 44.0761 12.2994C44.3906 12.14 44.8436 11.9445 45.0823 11.865C45.3211 11.7855 45.6762 11.683 45.8715 11.6371C46.0668 11.5912 46.4129 11.5291 46.641 11.4986C46.869 11.4682 47.2905 11.4433 47.5781 11.4429C47.8658 11.4425 48.3006 11.4682 48.5448 11.5002C48.7891 11.5323 49.1131 11.5869 49.265 11.6213C49.4169 11.6561 49.6923 11.7301 49.8766 11.7859C50.0609 11.8421 50.3982 11.9675 50.6263 12.0652C50.8544 12.1625 51.1783 12.3204 51.3464 12.4162C51.5145 12.5115 51.6609 12.5895 51.672 12.5895C51.683 12.5895 51.6917 11.1204 51.6917 6.06124H54.5327V22.1642H51.6917L51.672 15.501L51.3366 15.2712C51.1523 15.145 50.8058 14.9448 50.5671 14.8265C50.3284 14.7078 49.9468 14.5471 49.7187 14.4688C49.4907 14.3908 49.1355 14.2927 48.9296 14.2504C48.7236 14.2084 48.333 14.1546 48.0615 14.1309C47.702 14.0996 47.4345 14.1 47.075 14.1321C46.8039 14.1566 46.422 14.2112 46.2266 14.2536C46.0313 14.2959 45.7026 14.3857 45.4967 14.4526C45.2907 14.5198 44.891 14.6892 44.6088 14.8292C44.3267 14.9693 43.9582 15.1814 43.4843 15.5173V22.1642H40.6827V6.06124ZM56.3344 6.06124L59.761 6.0656L61.951 9.43297C63.1556 11.285 64.1674 12.8328 64.2001 12.8719C64.2546 12.938 64.4333 12.6793 68.797 6.05808L72.1313 6.06124L65.6585 15.2205L65.6601 22.1642H62.819L62.8159 15.2205L59.7121 10.8288C58.0051 8.41338 56.5467 6.35244 56.4713 6.24918L56.3344 6.06124ZM131.99 6.06124H134.831V11.541C134.831 16.303 134.839 17.0607 134.892 17.3274C134.926 17.503 135.022 17.7776 135.117 17.9703C135.233 18.2093 135.35 18.3754 135.52 18.544C135.655 18.6789 135.878 18.8447 136.035 18.927C136.187 19.0069 136.462 19.1165 136.646 19.1703C136.831 19.2245 137.155 19.2882 137.366 19.3119C137.614 19.3396 138.923 19.3551 144.341 19.3551V22.1642H140.809C138.595 22.1642 137.134 22.1487 136.893 22.1222C136.681 22.0993 136.331 22.0451 136.114 22.0015C135.897 21.958 135.533 21.8599 135.305 21.7835C135.077 21.7068 134.731 21.5612 134.535 21.4599C134.34 21.3582 134.047 21.175 133.884 21.052C133.722 20.9293 133.474 20.7066 133.334 20.557C133.194 20.4071 132.993 20.1511 132.887 19.9881C132.781 19.8247 132.636 19.5667 132.565 19.4144C132.493 19.2621 132.388 18.995 132.332 18.8209C132.274 18.6468 132.192 18.3307 132.148 18.1186C132.105 17.9066 132.052 17.4793 132.03 17.1691C132.008 16.8431 131.991 14.3802 131.991 11.3333L131.99 6.06124ZM146.393 6.06124H149.194V22.1642H146.393V6.06124Z" fill="white" stroke="white" stroke-width="0.0394587"/>
<path fill-rule="evenodd" clip-rule="evenodd" d="M154.479 7.48597C154.773 7.48597 155.13 7.50417 155.271 7.52633C155.412 7.54809 155.622 7.61495 155.738 7.6743C155.894 7.75383 155.976 7.829 156.052 7.96035C156.123 8.0838 156.16 8.21713 156.173 8.39557C156.189 8.61555 156.177 8.68558 156.086 8.88024C156.006 9.05432 155.937 9.13622 155.606 9.35146L155.952 10.0011C156.141 10.3584 156.297 10.6599 156.297 10.6706C156.297 10.6812 156.168 10.6899 155.725 10.6895L155.054 9.46303L154.442 9.46382V10.6903H153.89L153.883 9.11446C153.88 8.2476 153.891 7.52633 153.91 7.51208C153.928 7.49745 154.184 7.48558 154.479 7.48597ZM154.482 8.98904C154.65 9.00645 154.849 9.00012 155.034 8.98588C155.346 8.96174 155.377 8.95106 155.478 8.83593C155.566 8.73622 155.587 8.67371 155.587 8.51426C155.587 8.40546 155.56 8.26303 155.527 8.19774C155.494 8.13048 155.408 8.05333 155.33 8.0197C155.241 7.98172 155.065 7.96035 154.837 7.96035H154.482V8.98904Z" fill="white" stroke="white" stroke-width="0.0394587"/>
</svg>
