<svg width="40" height="40" viewBox="0 0 40 40" fill="none" xmlns="http://www.w3.org/2000/svg">
<rect width="40" height="40" rx="8" fill="#FDF6E3"/>
<g clip-path="url(#clip0_2030_1036)">
<path fill-rule="evenodd" clip-rule="evenodd" d="M25.25 11H14.75C13.0931 11 11.75 12.3431 11.75 14V27.5C11.75 28.3284 12.4216 29 13.25 29H15.5C16.3284 29 17 28.3284 17 27.5V26H23V27.5C23 28.3284 23.6716 29 24.5 29H26.75C27.5784 29 28.25 28.3284 28.25 27.5V14C28.25 12.3431 26.9069 11 25.25 11ZM13.25 24.5V19.25H26.75V24.5H13.25ZM13.25 15.5H26.75V17.75H13.25V15.5ZM14.75 12.5H25.25C26.0784 12.5 26.75 13.1716 26.75 14H13.25C13.25 13.1716 13.9216 12.5 14.75 12.5ZM15.5 27.5H13.25V26H15.5V27.5ZM24.5 27.5V26H26.75V27.5H24.5ZM17.75 21.875C17.75 22.4963 17.2463 23 16.625 23C16.0037 23 15.5 22.4963 15.5 21.875C15.5 21.2537 16.0037 20.75 16.625 20.75C17.2463 20.75 17.75 21.2537 17.75 21.875ZM24.5 21.875C24.5 22.4963 23.9963 23 23.375 23C22.7537 23 22.25 22.4963 22.25 21.875C22.25 21.2537 22.7537 20.75 23.375 20.75C23.9963 20.75 24.5 21.2537 24.5 21.875ZM31.25 15.5V17.75C31.25 18.1642 30.9142 18.5 30.5 18.5C30.0858 18.5 29.75 18.1642 29.75 17.75V15.5C29.75 15.0858 30.0858 14.75 30.5 14.75C30.9142 14.75 31.25 15.0858 31.25 15.5ZM10.25 15.5V17.75C10.25 18.1642 9.91421 18.5 9.5 18.5C9.08579 18.5 8.75 18.1642 8.75 17.75V15.5C8.75 15.0858 9.08579 14.75 9.5 14.75C9.91421 14.75 10.25 15.0858 10.25 15.5Z" fill="#140D1C"/>
</g>
<defs>
<clipPath id="clip0_2030_1036">
<rect width="24" height="24" fill="white" transform="translate(8 8)"/>
</clipPath>
</defs>
</svg>
