<svg width="9" height="12" viewBox="0 0 9 12" fill="none" xmlns="http://www.w3.org/2000/svg">
<path d="M1.79498 0.55575C1.85301 0.393961 1.96439 0.253228 2.11335 0.153484C2.2623 0.053741 2.44127 4.4207e-05 2.62492 6.30274e-09H6.56242C6.7038 -1.63444e-05 6.84308 0.0317804 6.96834 0.0926685C7.0936 0.153556 7.2011 0.241722 7.28165 0.349619C7.3622 0.457515 7.41338 0.581928 7.43084 0.712209C7.44829 0.842489 7.43148 0.974756 7.38186 1.09769L6.51254 3.25H7.87492C8.04101 3.25001 8.20368 3.29391 8.34389 3.37658C8.48411 3.45925 8.5961 3.57727 8.66676 3.71684C8.73742 3.85642 8.76384 4.01179 8.74292 4.16479C8.72201 4.3178 8.65464 4.46211 8.54867 4.58087L2.83186 10.9878C2.08548 11.8239 0.637356 11.1361 0.930481 10.0852L1.93148 6.5H0.874919C0.736259 6.49999 0.599588 6.46938 0.47617 6.41069C0.352751 6.352 0.24612 6.26692 0.165066 6.16245C0.0840115 6.05799 0.0308545 5.93713 0.00997608 5.80984C-0.0109023 5.68255 0.00109585 5.55248 0.0449817 5.43034L1.79498 0.55575ZM2.62492 0.8125L0.874919 5.6875H2.49717C2.56398 5.6875 2.6299 5.70171 2.68988 5.72903C2.74986 5.75636 2.8023 5.79607 2.84319 5.84514C2.88407 5.8942 2.91231 5.95131 2.92574 6.01208C2.93917 6.07285 2.93744 6.13567 2.92067 6.19572L1.77748 10.2891C1.71886 10.4991 2.00848 10.6368 2.15811 10.4695L7.87492 4.0625H5.88123C5.81056 4.06248 5.74094 4.04655 5.67834 4.0161C5.61574 3.98564 5.56202 3.94155 5.52177 3.88761C5.48152 3.83366 5.45595 3.77147 5.44724 3.70635C5.43852 3.64122 5.44693 3.57511 5.47173 3.51366L6.56242 0.8125H2.62492Z" fill="white"/>
</svg>
