<svg width="15" height="11" viewBox="0 0 15 11" fill="none" xmlns="http://www.w3.org/2000/svg">
<path d="M7.22729 10.0727C6.94018 10.0727 6.69752 9.97358 6.49929 9.77536C6.30107 9.57714 6.20196 9.33447 6.20196 9.04736C6.20196 8.76025 6.30107 8.51736 6.49929 8.31869C6.69752 8.12002 6.94018 8.02091 7.22729 8.02136C7.5144 8.0218 7.75707 8.12091 7.95529 8.31869C8.15351 8.51647 8.25263 8.75914 8.25263 9.04669C8.25263 9.33425 8.15351 9.57714 7.95529 9.77536C7.75707 9.97358 7.5144 10.0727 7.22729 10.0727ZM7.22729 4.15002C8.00951 4.15002 8.74574 4.28336 9.43596 4.55002C10.1262 4.81669 10.7468 5.18758 11.298 5.66269C11.4091 5.75247 11.4673 5.86514 11.4726 6.00069C11.4784 6.1358 11.4326 6.25225 11.3353 6.35002C11.2402 6.44469 11.1244 6.49047 10.988 6.48736C10.8515 6.48425 10.7275 6.43914 10.616 6.35202C10.1595 5.96936 9.64151 5.66891 9.06196 5.45069C8.4824 5.23291 7.87085 5.12402 7.22729 5.12402C6.58374 5.12402 5.97218 5.23291 5.39263 5.45069C4.81307 5.66847 4.29529 5.96891 3.83929 6.35202C3.72818 6.43914 3.60396 6.48358 3.46663 6.48536C3.33018 6.48714 3.21463 6.44047 3.11996 6.34536C3.02485 6.24802 2.97929 6.1318 2.98329 5.99669C2.98729 5.86158 3.04507 5.74891 3.15663 5.65869C3.70774 5.18314 4.32863 4.81291 5.01929 4.54802C5.70907 4.28269 6.44507 4.15002 7.22729 4.15002ZM7.22729 0.150024C8.58196 0.150024 9.84329 0.384024 11.0113 0.852024C12.1793 1.32047 13.218 1.97158 14.1273 2.80536C14.2384 2.89958 14.2975 3.01736 14.3046 3.15869C14.3113 3.29958 14.266 3.41891 14.1686 3.51669C14.0651 3.6198 13.9428 3.66336 13.802 3.64736C13.6606 3.6318 13.5302 3.57358 13.4106 3.47269C12.5848 2.7318 11.6448 2.15514 10.5906 1.74269C9.5364 1.33025 8.41529 1.12402 7.22729 1.12402C6.03929 1.12402 4.91818 1.33025 3.86396 1.74269C2.80974 2.15514 1.86974 2.7318 1.04396 3.47269C0.923959 3.57358 0.793737 3.63202 0.653292 3.64802C0.511959 3.66358 0.389737 3.6198 0.286626 3.51669C0.188848 3.41891 0.143514 3.29958 0.150626 3.15869C0.157292 3.0178 0.216181 2.90002 0.327292 2.80536C1.23663 1.97158 2.27529 1.32047 3.44329 0.852024C4.61129 0.384469 5.87263 0.150024 7.22729 0.150024Z" fill="#FF9100" stroke="#FF9100" stroke-width="0.3"/>
</svg>
