<svg width="40" height="40" viewBox="0 0 40 40" fill="none" xmlns="http://www.w3.org/2000/svg">
<rect width="40" height="40" rx="8" fill="#FDF6E3"/>
<g clip-path="url(#clip0_2030_1023)">
<path fill-rule="evenodd" clip-rule="evenodd" d="M21.125 24.875C21.125 25.4963 20.6213 26 20 26C19.3787 26 18.875 25.4963 18.875 24.875C18.875 24.2537 19.3787 23.75 20 23.75C20.6213 23.75 21.125 24.2537 21.125 24.875ZM20 14.75C17.9319 14.75 16.25 16.2641 16.25 18.125V18.5C16.25 18.9142 16.5858 19.25 17 19.25C17.4142 19.25 17.75 18.9142 17.75 18.5V18.125C17.75 17.0938 18.7597 16.25 20 16.25C21.2403 16.25 22.25 17.0938 22.25 18.125C22.25 19.1562 21.2403 20 20 20C19.5858 20 19.25 20.3358 19.25 20.75V21.5C19.25 21.9142 19.5858 22.25 20 22.25C20.4142 22.25 20.75 21.9142 20.75 21.5V21.4325C22.46 21.1184 23.75 19.7544 23.75 18.125C23.75 16.2641 22.0681 14.75 20 14.75ZM29.75 20C29.75 25.3848 25.3848 29.75 20 29.75C14.6152 29.75 10.25 25.3848 10.25 20C10.25 14.6152 14.6152 10.25 20 10.25C25.3824 10.2557 29.7443 14.6176 29.75 20ZM28.25 20C28.25 15.4437 24.5563 11.75 20 11.75C15.4437 11.75 11.75 15.4437 11.75 20C11.75 24.5563 15.4437 28.25 20 28.25C24.5542 28.2448 28.2448 24.5542 28.25 20Z" fill="#140D1C"/>
</g>
<defs>
<clipPath id="clip0_2030_1023">
<rect width="24" height="24" fill="white" transform="translate(8 8)"/>
</clipPath>
</defs>
</svg>
