<svg width="13" height="14" viewBox="0 0 13 14" fill="none" xmlns="http://www.w3.org/2000/svg">
<path d="M8.122 12.183C8.02152 12.2835 7.90222 12.3633 7.77092 12.4177C7.63961 12.4721 7.49888 12.5001 7.35675 12.5001C7.21462 12.5001 7.07389 12.4721 6.94258 12.4177C6.81128 12.3633 6.69198 12.2835 6.5915 12.183L2.317 7.9085C2.21643 7.80811 2.13667 7.68886 2.08227 7.55759C2.02787 7.42632 1.99991 7.2856 2 7.1435V4.082C2 3.485 2.485 3 3.082 3H6.1435C6.43 3 6.7055 3.114 6.9085 3.317L11.183 7.5915C11.2835 7.69198 11.3633 7.81128 11.4177 7.94258C11.4721 8.07389 11.5001 8.21462 11.5001 8.35675C11.5001 8.49888 11.4721 8.63961 11.4177 8.77092C11.3633 8.90222 11.2835 9.02152 11.183 9.122L8.122 12.183Z" stroke="#3BAD69" stroke-width="1.33333" stroke-linecap="round" stroke-linejoin="round"/>
<path d="M3.75 4.75L4 5" stroke="#3BAD69" stroke-width="1.33333" stroke-linecap="round"/>
</svg>
