<svg width="15" height="12" viewBox="0 0 15 12" fill="none" xmlns="http://www.w3.org/2000/svg">
<path d="M13.3953 2.86696C13.543 2.74661 13.6632 2.596 13.7478 2.42529C13.8323 2.25458 13.8794 2.06772 13.8856 1.8773C13.8919 1.68689 13.8573 1.49733 13.7842 1.32142C13.711 1.1455 13.601 0.987298 13.4616 0.857475C13.3221 0.727651 13.1565 0.629218 12.9758 0.568806C12.7951 0.508394 12.6036 0.487407 12.4141 0.507257C12.2246 0.527107 12.0416 0.587335 11.8774 0.683882C11.7131 0.78043 11.5715 0.911055 11.462 1.06696C10.5286 0.733625 8.92862 0.533625 7.19528 0.533625C5.46195 0.533625 3.92862 0.733625 2.92862 1.06696C2.81911 0.911055 2.67746 0.78043 2.51322 0.683882C2.34897 0.587335 2.16595 0.527107 1.97646 0.507257C1.78698 0.487407 1.59544 0.508394 1.41476 0.568806C1.23407 0.629218 1.06842 0.727651 0.928983 0.857475C0.789543 0.987298 0.679544 1.1455 0.606396 1.32142C0.533249 1.49733 0.498651 1.68689 0.504933 1.8773C0.511216 2.06772 0.558233 2.25458 0.642818 2.42529C0.727402 2.596 0.84759 2.74661 0.995284 2.86696C0.334905 4.81245 0.334905 6.92147 0.995284 8.86696C0.84759 8.98731 0.727402 9.13791 0.642818 9.30863C0.558233 9.47934 0.511216 9.6662 0.504933 9.85662C0.498651 10.047 0.533249 10.2366 0.606396 10.4125C0.679544 10.5884 0.789543 10.7466 0.928983 10.8764C1.06842 11.0063 1.23407 11.1047 1.41476 11.1651C1.59544 11.2255 1.78698 11.2465 1.97646 11.2267C2.16595 11.2068 2.34897 11.1466 2.51322 11.05C2.67746 10.9535 2.81911 10.8229 2.92862 10.667C3.92862 11.0003 5.46195 11.2003 7.19528 11.2003C8.92862 11.2003 10.5286 11.0003 11.462 10.667C11.5715 10.8229 11.7131 10.9535 11.8774 11.05C12.0416 11.1466 12.2246 11.2068 12.4141 11.2267C12.6036 11.2465 12.7951 11.2255 12.9758 11.1651C13.1565 11.1047 13.3221 11.0063 13.4616 10.8764C13.601 10.7466 13.711 10.5884 13.7842 10.4125C13.8573 10.2366 13.8919 10.047 13.8856 9.85662C13.8794 9.6662 13.8323 9.47934 13.7478 9.30863C13.6632 9.13791 13.543 8.98731 13.3953 8.86696C14.0557 6.92147 14.0557 4.81245 13.3953 2.86696Z" stroke="#FF9100" stroke-linecap="round" stroke-linejoin="round"/>
</svg>
