<svg width="16" height="16" viewBox="0 0 16 16" fill="none" xmlns="http://www.w3.org/2000/svg">
<path d="M3.33337 8.00008V2.66675M12.6667 13.3334V11.3334M3.33337 13.3334V10.6667M12.6667 8.66675V2.66675M8.00004 4.66675V2.66675M8.00004 13.3334V7.33341" stroke="white" stroke-width="0.666667" stroke-linecap="round"/>
<path d="M3.33333 10.6667C4.06971 10.6667 4.66667 10.0697 4.66667 9.33333C4.66667 8.59695 4.06971 8 3.33333 8C2.59695 8 2 8.59695 2 9.33333C2 10.0697 2.59695 10.6667 3.33333 10.6667Z" stroke="white" stroke-width="0.666667" stroke-linecap="round"/>
<path d="M7.99996 7.33341C8.73634 7.33341 9.33329 6.73646 9.33329 6.00008C9.33329 5.2637 8.73634 4.66675 7.99996 4.66675C7.26358 4.66675 6.66663 5.2637 6.66663 6.00008C6.66663 6.73646 7.26358 7.33341 7.99996 7.33341Z" stroke="white" stroke-width="0.666667" stroke-linecap="round"/>
<path d="M12.6667 11.3334C13.4031 11.3334 14 10.7365 14 10.0001C14 9.2637 13.4031 8.66675 12.6667 8.66675C11.9303 8.66675 11.3334 9.2637 11.3334 10.0001C11.3334 10.7365 11.9303 11.3334 12.6667 11.3334Z" stroke="white" stroke-width="0.666667" stroke-linecap="round"/>
</svg>
