<svg width="24" height="32" viewBox="0 0 24 32" fill="none" xmlns="http://www.w3.org/2000/svg">
<g clip-path="url(#clip0_2001_2312)">
<path fill-rule="evenodd" clip-rule="evenodd" d="M20.5153 13.7284L13.0153 6.65219C13.0116 6.64899 13.0082 6.64554 13.005 6.64188C12.4328 6.1215 11.5588 6.1215 10.9866 6.64188L10.9762 6.65219L3.48469 13.7284C3.17573 14.0125 2.99994 14.4131 3 14.8328V23.5C3 24.3284 3.67157 25 4.5 25H9C9.82843 25 10.5 24.3284 10.5 23.5V19H13.5V23.5C13.5 24.3284 14.1716 25 15 25H19.5C20.3284 25 21 24.3284 21 23.5V14.8328C21.0001 14.4131 20.8243 14.0125 20.5153 13.7284ZM19.5 23.5H15V19C15 18.1716 14.3284 17.5 13.5 17.5H10.5C9.67157 17.5 9 18.1716 9 19V23.5H4.5V14.8328L4.51031 14.8234L12 7.75L19.4906 14.8216L19.5009 14.8309L19.5 23.5Z" fill="#626262"/>
</g>
<defs>
<clipPath id="clip0_2001_2312">
<rect width="24" height="24" fill="white" transform="translate(0 4)"/>
</clipPath>
</defs>
</svg>
