<svg width="12" height="15" viewBox="0 0 12 15" fill="none" xmlns="http://www.w3.org/2000/svg">
<path fill-rule="evenodd" clip-rule="evenodd" d="M0.518941 5.29975C0.626831 3.9918 1.2209 2.77233 2.1833 1.88324C3.14569 0.994158 4.4061 0.500427 5.71446 0.5H5.99466C7.30302 0.500427 8.56342 0.994158 9.52582 1.88324C10.4882 2.77233 11.0823 3.9918 11.1902 5.29975C11.3099 6.76004 10.8605 8.21001 9.93638 9.34475L6.8275 13.1588C6.70967 13.3035 6.56125 13.42 6.39298 13.5001C6.22471 13.5801 6.0408 13.6217 5.85456 13.6217C5.66832 13.6217 5.48441 13.5801 5.31614 13.5001C5.14787 13.42 4.99945 13.3035 4.88162 13.1588L1.77339 9.34475C0.849068 8.21011 0.399396 6.76013 0.518941 5.29975ZM5.85456 2.93989C5.03743 2.93989 4.25377 3.2655 3.67597 3.84508C3.09818 4.42467 2.77357 5.21075 2.77357 6.03041C2.77357 6.85007 3.09818 7.63616 3.67597 8.21574C4.25377 8.79533 5.03743 9.12093 5.85456 9.12093C6.67169 9.12093 7.45535 8.79533 8.03314 8.21574C8.61094 7.63616 8.93554 6.85007 8.93554 6.03041C8.93554 5.21075 8.61094 4.42467 8.03314 3.84508C7.45535 3.2655 6.67169 2.93989 5.85456 2.93989Z" stroke="#999999"/>
</svg>
