<svg width="30" height="30" viewBox="0 0 30 30" fill="none" xmlns="http://www.w3.org/2000/svg">
<rect width="29.3337" height="29.3334" rx="14.6667" fill="white"/>
<rect x="0.5" y="0.5" width="28.3337" height="28.3334" rx="14.1667" stroke="#F98806" stroke-opacity="0.2"/>
<path d="M10 16.6667H9.33333C8.97971 16.6667 8.64057 16.5262 8.39052 16.2761C8.14048 16.0261 8 15.687 8 15.3333V9.33333C8 8.97971 8.14048 8.64057 8.39052 8.39052C8.64057 8.14048 8.97971 8 9.33333 8H15.3333C15.687 8 16.0261 8.14048 16.2761 8.39052C16.5262 8.64057 16.6667 8.97971 16.6667 9.33333V10" stroke="#5F5F5F" stroke-width="1.33333" stroke-linecap="round" stroke-linejoin="round"/>
<path d="M20.0003 12.6667H14.0003C13.2639 12.6667 12.667 13.2636 12.667 14V20C12.667 20.7364 13.2639 21.3334 14.0003 21.3334H20.0003C20.7367 21.3334 21.3337 20.7364 21.3337 20V14C21.3337 13.2636 20.7367 12.6667 20.0003 12.6667Z" stroke="#5F5F5F" stroke-width="1.33333" stroke-linecap="round" stroke-linejoin="round"/>
</svg>
