<svg width="11" height="14" viewBox="0 0 11 14" fill="none" xmlns="http://www.w3.org/2000/svg">
<path d="M9.25 6.20181H1.75V3.03414H9.25M8.3125 10.003C8.06386 10.003 7.8254 9.90289 7.64959 9.72468C7.47377 9.54646 7.375 9.30475 7.375 9.05271C7.375 8.80068 7.47377 8.55896 7.64959 8.38075C7.8254 8.20253 8.06386 8.10241 8.3125 8.10241C8.56114 8.10241 8.7996 8.20253 8.97541 8.38075C9.15123 8.55896 9.25 8.80068 9.25 9.05271C9.25 9.30475 9.15123 9.54646 8.97541 9.72468C8.7996 9.90289 8.56114 10.003 8.3125 10.003ZM2.6875 10.003C2.43886 10.003 2.2004 9.90289 2.02459 9.72468C1.84877 9.54646 1.75 9.30475 1.75 9.05271C1.75 8.80068 1.84877 8.55896 2.02459 8.38075C2.2004 8.20253 2.43886 8.10241 2.6875 8.10241C2.93614 8.10241 3.1746 8.20253 3.35041 8.38075C3.52623 8.55896 3.625 8.80068 3.625 9.05271C3.625 9.30475 3.52623 9.54646 3.35041 9.72468C3.1746 9.90289 2.93614 10.003 2.6875 10.003ZM0.5 9.36948C0.5 9.92699 0.74375 10.4275 1.125 10.7759V11.9036C1.125 12.0716 1.19085 12.2328 1.30806 12.3516C1.42527 12.4704 1.58424 12.5372 1.75 12.5372H2.375C2.54076 12.5372 2.69973 12.4704 2.81694 12.3516C2.93415 12.2328 3 12.0716 3 11.9036V11.2701H8V11.9036C8 12.0716 8.06585 12.2328 8.18306 12.3516C8.30027 12.4704 8.45924 12.5372 8.625 12.5372H9.25C9.41576 12.5372 9.57473 12.4704 9.69194 12.3516C9.80915 12.2328 9.875 12.0716 9.875 11.9036V10.7759C10.2563 10.4275 10.5 9.92699 10.5 9.36948V3.03414C10.5 0.816767 8.2625 0.5 5.5 0.5C2.7375 0.5 0.5 0.816767 0.5 3.03414V9.36948Z" stroke="#999999"/>
</svg>
