<?xml version="1.0" encoding="UTF-8"?>
<svg width="24px" height="24px" viewBox="0 0 24 24" version="1.1" xmlns="http://www.w3.org/2000/svg" xmlns:xlink="http://www.w3.org/1999/xlink">
    <!-- Generator: Sketch 63.1 (92452) - https://sketch.com -->
    <title>mdpi/Piligrimage / Sightseeing</title>
    <desc>Created with Sketch.</desc>
    <defs>
        <path d="M11.8816708,7 C16.0756708,7 19.2316708,8.388 21.2956708,11.166 C21.6736708,11.676 21.6916708,12.368 21.3376708,12.896 C19.4856708,15.66 16.3106708,17.035 11.8726708,17.035 C7.45267077,17.035 4.23667077,15.672 2.27967077,12.934 C1.89167077,12.39 1.90867077,11.655 2.32267077,11.131 C4.50067077,8.377 7.70267077,7 11.8816708,7 Z M11.8816708,8 C7.99367077,8 5.08467077,9.251 3.10767077,11.751 C2.96967077,11.926 2.96367077,12.171 3.09267077,12.353 C4.84367077,14.803 7.75267077,16.035 11.8726708,16.035 C16.0016708,16.035 18.8606708,14.798 20.5066708,12.339 C20.6246708,12.163 20.6186708,11.933 20.4926708,11.763 C18.6296708,9.255 15.7776708,8 11.8816708,8 Z M12.2834708,9.0274 C13.9404708,9.0274 15.2834708,10.3704 15.2834708,12.0274 C15.2834708,13.6834 13.9404708,15.0274 12.2834708,15.0274 C10.6264708,15.0274 9.28347077,13.6834 9.28347077,12.0274 C9.28347077,10.3704 10.6264708,9.0274 12.2834708,9.0274 Z" id="path-1"></path>
    </defs>
    <g id="Piligrimage-/-Sightseeing" stroke="none" stroke-width="1" fill="none" fill-rule="evenodd">
        <rect id="Rectangle" x="0" y="0" width="24" height="24"></rect>
        <mask id="mask-2" fill="white">
            <use xlink:href="#path-1"></use>
        </mask>
        <use id="Shape" fill="#000000" xlink:href="#path-1"></use>
    </g>
</svg>