<?xml version="1.0" encoding="UTF-8"?>
<svg width="20px" height="20px" viewBox="0 0 20 20" version="1.1" xmlns="http://www.w3.org/2000/svg" xmlns:xlink="http://www.w3.org/1999/xlink">
    <title>mdpi/Bus Amenities / Seat / Sleeper Seat</title>
    <defs>
        <path d="M21,20.5116409 L21,3.51164094 L3,3.51164094 L3,20.5116409 L21,20.5116409 Z M22,3.51164094 L22,20.5116409 C22,21.0639257 21.5522847,21.5116409 21,21.5116409 L3,21.5116409 C2.44771525,21.5116409 2,21.0639257 2,20.5116409 L2,3.51164094 C2,2.95935619 2.44771525,2.51164094 3,2.51164094 L21,2.51164094 C21.5522847,2.51164094 22,2.95935619 22,3.51164094 Z M15,10 L15,9 L21,9 L21,10 L15,10 Z M15,15 L15,14 L21,14 L21,15 L15,15 Z M14,3.51322747 L14,20.5119629 L15,20.5119629 L15,3.51322747 L14,3.51322747 Z M5,15.0050844 L5,18.0050844 L6,18.0050844 L6,15.0050844 L5,15.0050844 Z M5,14.0050844 L6,14.0050844 C6.55228475,14.0050844 7,14.4527996 7,15.0050844 L7,18.0050844 C7,18.5573691 6.55228475,19.0050844 6,19.0050844 L5,19.0050844 C4.44771525,19.0050844 4,18.5573691 4,18.0050844 L4,15.0050844 C4,14.4527996 4.44771525,14.0050844 5,14.0050844 Z M5,6.00508438 L5,9.00508438 L6,9.00508438 L6,6.00508438 L5,6.00508438 Z M5,5.00508438 L6,5.00508438 C6.55228475,5.00508438 7,5.45279963 7,6.00508438 L7,9.00508438 C7,9.55736913 6.55228475,10.0050844 6,10.0050844 L5,10.0050844 C4.44771525,10.0050844 4,9.55736913 4,9.00508438 L4,6.00508438 C4,5.45279963 4.44771525,5.00508438 5,5.00508438 Z M3,12.5 L21.0006256,12.5 L21.0006256,11.5 L3,11.5 L3,12.5 Z" id="path-1"></path>
    </defs>
    <g id="Page-1" stroke="none" stroke-width="1" fill="none" fill-rule="evenodd">
        <g id="Bus-Amenities" transform="translate(-382.000000, -703.000000)">
            <g id="Bus-Amenities-/-Seat-/-Sleeper-Seat" transform="translate(380.000000, 701.000000)">
                <rect id="Rectangle" x="0" y="0" width="24" height="24"></rect>
                <mask id="mask-2" fill="white">
                    <use xlink:href="#path-1"></use>
                </mask>
                <use id="Combined-Shape" fill="#000000" fill-rule="nonzero" xlink:href="#path-1"></use>
                <g id="color-/-black" mask="url(#mask-2)">
                    <rect id="Rectangle" x="0" y="0" width="24" height="24"></rect>
                    <rect id="Rectangle" fill="#000000" fill-rule="evenodd" x="0" y="0" width="24" height="24"></rect>
                </g>
            </g>
        </g>
    </g>
</svg>