<svg width="327" height="135" viewBox="0 0 327 135" fill="none" xmlns="http://www.w3.org/2000/svg">
<mask id="path-1-inside-1_145_1109" fill="white">
<path fill-rule="evenodd" clip-rule="evenodd" d="M0 10C0 4.47715 4.47715 0 10 0H317C322.523 0 327 4.47715 327 10V70C322.582 70 319 73.4564 319 77.72C319 81.9836 322.582 85.44 327 85.44V125C327 130.523 322.523 135 317 135H10C4.47716 135 0 130.523 0 125V85.44C4.41828 85.44 8 81.9836 8 77.72C8 73.4564 4.41828 70 0 70V10Z"/>
</mask>
<path fill-rule="evenodd" clip-rule="evenodd" d="M0 10C0 4.47715 4.47715 0 10 0H317C322.523 0 327 4.47715 327 10V70C322.582 70 319 73.4564 319 77.72C319 81.9836 322.582 85.44 327 85.44V125C327 130.523 322.523 135 317 135H10C4.47716 135 0 130.523 0 125V85.44C4.41828 85.44 8 81.9836 8 77.72C8 73.4564 4.41828 70 0 70V10Z" fill="white"/>
<path d="M327 70V71H328V70H327ZM327 85.44H328V84.44H327V85.44ZM0 85.44V84.44H-1V85.44H0ZM0 70H-1V71H0V70ZM10 -1C3.92487 -1 -1 3.92487 -1 10H1C1 5.02944 5.02944 1 10 1V-1ZM317 -1H10V1H317V-1ZM328 10C328 3.92487 323.075 -1 317 -1V1C321.971 1 326 5.02944 326 10H328ZM328 70V10H326V70H328ZM320 77.72C320 74.0419 323.1 71 327 71V69C322.063 69 318 72.8708 318 77.72H320ZM327 84.44C323.1 84.44 320 81.3981 320 77.72H318C318 82.5692 322.063 86.44 327 86.44V84.44ZM328 125V85.44H326V125H328ZM317 136C323.075 136 328 131.075 328 125H326C326 129.971 321.971 134 317 134V136ZM10 136H317V134H10V136ZM-1 125C-1 131.075 3.92487 136 10 136V134C5.02944 134 1 129.971 1 125H-1ZM-1 85.44V125H1V85.44H-1ZM7 77.72C7 81.3981 3.89987 84.44 0 84.44V86.44C4.93668 86.44 9 82.5692 9 77.72H7ZM0 71C3.89987 71 7 74.0419 7 77.72H9C9 72.8708 4.93668 69 0 69V71ZM-1 10V70H1V10H-1Z" fill="#DFDFDF" mask="url(#path-1-inside-1_145_1109)"/>
</svg>
