<svg width="32" height="32" viewBox="0 0 32 32" fill="none" xmlns="http://www.w3.org/2000/svg">
<path d="M7.67357 26.8674C7.99677 26.9026 8.31677 26.9442 8.63997 26.973C9.77597 27.0722 10.9088 27.1042 12.032 26.8482C12.3936 26.765 12.7424 26.637 13.0592 26.4386C13.5776 26.1122 13.856 25.6546 13.8496 25.0242C13.8272 22.8674 13.072 20.9986 11.6448 19.3986C11.2224 18.925 10.7808 18.4674 10.3328 18.0162C9.54237 17.2194 8.58237 16.8066 7.45277 16.8034C6.98877 16.8034 6.52797 16.8002 6.06397 16.8034C5.03997 16.8162 4.44477 17.5938 4.70077 18.5986C4.94397 19.549 5.30557 20.4578 5.78877 21.3154C6.77757 23.0818 8.13437 24.4994 9.84317 25.581C9.91677 25.629 10.016 25.6514 10.064 25.7634C9.96477 25.8786 9.82397 25.8434 9.70237 25.8434C7.15197 25.8786 5.16797 24.845 3.84317 22.653C2.85437 21.0146 2.28797 19.2162 2.07997 17.3122C1.67997 13.629 2.55997 10.285 4.74877 7.29297C4.80957 7.20657 4.87677 7.12657 4.94717 7.04657C4.95997 7.03057 4.99197 7.03377 5.03677 7.02417C4.97597 7.48497 4.89917 7.93937 4.86077 8.39697C4.76157 9.54577 4.73277 10.6946 5.05917 11.821C5.11357 12.0098 5.18077 12.2018 5.26717 12.3746C5.51357 12.861 5.90397 13.1298 6.46717 13.1298C8.43197 13.1298 10.288 12.6658 12.048 11.8018C12.8096 11.4306 13.5904 11.1106 14.4128 10.893C15.6384 10.573 16.8448 10.6434 18.0448 11.0306C18.7648 11.261 19.4496 11.5714 20.1312 11.8946C21.8016 12.6914 23.5616 13.1042 25.4144 13.1362C26.1472 13.149 26.5984 12.717 26.7904 12.2114C26.9984 11.661 27.1168 11.0946 27.1552 10.5122C27.2352 9.38577 27.1616 8.26577 26.9504 7.15857C26.944 7.12337 26.9504 7.08177 26.9504 7.04017C27.0784 7.01457 27.1072 7.12017 27.1552 7.18737C28.688 9.22897 29.6288 11.5106 29.9072 14.0546C30.24 17.1042 29.7088 19.9906 28.1472 22.6402C26.848 24.845 24.848 25.8722 22.2976 25.8466C22.1824 25.8466 22.0608 25.853 21.9264 25.7794C21.9744 25.6258 22.128 25.5906 22.2368 25.5202C24.7776 23.8594 26.4704 21.5778 27.2704 18.6434C27.4944 17.8242 27.184 17.1618 26.4736 16.8834C26.4 16.8546 26.3232 16.8194 26.2464 16.8194C25.3888 16.813 24.528 16.7202 23.6768 16.8962C23.0048 17.0338 22.3872 17.3186 21.8944 17.7986C21.1264 18.5442 20.3552 19.2898 19.7248 20.1634C18.7008 21.5874 18.176 23.181 18.1376 24.941C18.1216 25.7058 18.4608 26.221 19.1328 26.5538C19.9264 26.9442 20.7776 27.0242 21.6416 27.0434C22.4768 27.0626 23.3056 27.0146 24.1312 26.8834C24.1824 26.877 24.2336 26.8834 24.2976 26.9186C22.1504 28.5634 19.7088 29.4626 17.0208 29.6482C13.5744 29.8882 10.4416 28.9794 7.66397 26.8738L7.67357 26.8674ZM15.968 17.9106C17.216 17.9202 18.2272 16.9442 18.256 15.7026C18.2848 14.477 17.2416 13.4146 16.0032 13.4082C14.784 13.4018 13.7344 14.4354 13.7312 15.6482C13.7312 16.8866 14.7296 17.901 15.968 17.9106Z" fill="#999999"/>
<path d="M26.2112 10.3457C23.7376 6.77132 20.3808 4.77132 16.0032 4.76812C11.6224 4.76812 8.2656 6.76812 5.7856 10.3457C5.648 10.2017 5.6832 10.0385 5.6864 9.88812C5.7536 7.20972 6.9536 5.20652 9.3216 3.95212C11.728 2.67532 14.3136 2.17292 17.024 2.35532C19.0688 2.49292 21.0048 3.04012 22.8096 4.02252C24.7072 5.05292 25.84 6.65292 26.2272 8.77452C26.304 9.19052 26.336 9.61292 26.3104 10.0385C26.304 10.1409 26.3168 10.2497 26.2144 10.3457H26.2112Z" fill="#999999"/>
</svg>
