<svg width="29" height="28" viewBox="0 0 29 28" fill="none" xmlns="http://www.w3.org/2000/svg">
<path d="M14.2837 19.224C13.0704 19.224 12.1231 18.9113 11.4417 18.286C10.7697 17.6607 10.4197 16.8067 10.3917 15.724H12.0717C12.0997 16.3867 12.3004 16.8953 12.6737 17.25C13.0564 17.6047 13.5884 17.782 14.2697 17.782C14.9231 17.782 15.4224 17.628 15.7677 17.32C16.1224 17.012 16.2997 16.5967 16.2997 16.074C16.2997 15.5607 16.1271 15.164 15.7817 14.884C15.4457 14.604 14.9604 14.464 14.3257 14.464H13.4297V13.12H14.1017C14.6431 13.12 15.0584 12.9987 15.3477 12.756C15.6464 12.5133 15.7957 12.168 15.7957 11.72C15.7957 11.2627 15.6464 10.908 15.3477 10.656C15.0491 10.404 14.6244 10.278 14.0737 10.278C13.5044 10.278 13.0751 10.4227 12.7857 10.712C12.5057 10.992 12.3517 11.4447 12.3237 12.07H10.6857C10.7231 11.0153 11.0357 10.2173 11.6237 9.676C12.2117 9.12533 13.0517 8.85 14.1437 8.85C15.1704 8.85 15.9871 9.09267 16.5937 9.578C17.2097 10.054 17.5177 10.6887 17.5177 11.482C17.5177 12.4993 17.0184 13.204 16.0197 13.596V13.624C16.6824 13.764 17.1911 14.0487 17.5457 14.478C17.9004 14.898 18.0777 15.4347 18.0777 16.088C18.0777 17.0307 17.7371 17.7867 17.0557 18.356C16.3651 18.9347 15.4411 19.224 14.2837 19.224Z" fill="#5F5F5F"/>
<circle cx="14.2305" cy="14" r="13.5" stroke="#DADEE3"/>
</svg>
