<svg width="29" height="28" viewBox="0 0 29 28" fill="none" xmlns="http://www.w3.org/2000/svg">
<path d="M17.7137 19H10.7137C10.7417 18.1507 10.9237 17.4273 11.2597 16.83C11.6051 16.2233 12.1557 15.668 12.9117 15.164L14.7317 13.918C15.5437 13.3767 15.9497 12.7373 15.9497 12C15.9497 11.468 15.8004 11.0527 15.5017 10.754C15.2031 10.4553 14.7877 10.306 14.2557 10.306C13.7144 10.306 13.2897 10.474 12.9817 10.81C12.6831 11.146 12.5337 11.6313 12.5337 12.266V12.49H10.8677V12.294C10.8677 11.23 11.1757 10.3947 11.7917 9.788C12.4077 9.172 13.2384 8.864 14.2837 8.864C15.3011 8.864 16.1271 9.13933 16.7617 9.69C17.3871 10.25 17.6997 10.992 17.6997 11.916C17.6997 13.176 17.0464 14.2353 15.7397 15.094L14.2557 16.046C13.7331 16.382 13.3784 16.6527 13.1917 16.858C13.0051 17.0633 12.8977 17.292 12.8697 17.544H17.7137V19Z" fill="#5F5F5F"/>
<circle cx="14.2305" cy="14" r="13.5" stroke="#DADEE3"/>
</svg>
