<?xml version="1.0" encoding="iso-8859-1"?>
<!-- Generator: Adobe Illustrator 19.0.0, SVG Export Plug-In . SVG Version: 6.00 Build 0)  -->
<svg version="1.1" id="Capa_1" xmlns="http://www.w3.org/2000/svg" xmlns:xlink="http://www.w3.org/1999/xlink" x="0px" y="0px"
	 viewBox="0 0 512 512" style="enable-background:new 0 0 512 512;" xml:space="preserve">
<g>
	<g>
		<path d="M502,276h-64.143c-5.146-95.781-84.687-172.127-181.73-172.127S79.543,180.219,74.397,276H10c-5.523,0-10,4.477-10,10
			s4.477,10,10,10h492c5.523,0,10-4.477,10-10S507.523,276,502,276z M94.437,276c5.12-84.746,75.679-152.127,161.69-152.127
			S412.696,191.254,417.817,276H94.437z"/>
	</g>
</g>
<g>
	<g>
		<path d="M392.571,419.999h-49.88c-5.523,0-10,4.477-10,10s4.477,10,10,10h49.88c5.523,0,10-4.477,10-10
			S398.094,419.999,392.571,419.999z"/>
	</g>
</g>
<g>
	<g>
		<path d="M292,419.999H119.166c-5.523,0-10,4.477-10,10s4.477,10,10,10H292c5.523,0,10-4.477,10-10S297.523,419.999,292,419.999z"
			/>
	</g>
</g>
<g>
	<g>
		<path d="M380.97,494.93c-1.86-1.86-4.44-2.93-7.07-2.93s-5.21,1.07-7.07,2.93s-2.93,4.44-2.93,7.07s1.07,5.21,2.93,7.07
			c1.86,1.86,4.44,2.93,7.07,2.93s5.21-1.07,7.07-2.93c1.86-1.86,2.93-4.44,2.93-7.07S382.83,496.79,380.97,494.93z"/>
	</g>
</g>
<g>
	<g>
		<path d="M194.048,492H142.64c-5.523,0-10,4.477-10,10s4.477,10,10,10h51.408c5.523,0,10-4.477,10-10S199.571,492,194.048,492z"/>
	</g>
</g>
<g>
	<g>
		<path d="M319.011,492h-79.344c-5.523,0-10,4.477-10,10s4.477,10,10,10h79.344c5.523,0,10-4.477,10-10S324.534,492,319.011,492z"/>
	</g>
</g>
<g>
	<g>
		<path d="M54.26,350.93c-1.86-1.86-4.44-2.93-7.07-2.93c-2.64,0-5.21,1.07-7.07,2.93s-2.93,4.44-2.93,7.07s1.07,5.21,2.93,7.07
			c1.86,1.86,4.44,2.93,7.07,2.93s5.21-1.07,7.07-2.93s2.93-4.44,2.93-7.07S56.12,352.79,54.26,350.93z"/>
	</g>
</g>
<g>
	<g>
		<path d="M460.994,348H416c-5.523,0-10,4.477-10,10s4.477,10,10,10h44.994c5.523,0,10-4.477,10-10S466.517,348,460.994,348z"/>
	</g>
</g>
<g>
	<g>
		<path d="M353.011,348H90.001c-5.523,0-10,4.477-10,10s4.477,10,10,10h263.01c5.523,0,10-4.477,10-10S358.534,348,353.011,348z"/>
	</g>
</g>
<g>
	<g>
		<path d="M256.022,0c-5.523,0-10,4.477-10,10v66.987c0,5.523,4.478,10,10,10c5.523,0,10-4.477,10-10V10
			C266.022,4.477,261.545,0,256.022,0z"/>
	</g>
</g>
<g>
	<g>
		<path d="M115.292,131.118L66.087,81.913c-3.905-3.905-10.237-3.905-14.143,0c-3.905,3.905-3.905,10.237,0,14.143l49.206,49.205
			c1.953,1.952,4.512,2.929,7.071,2.929s5.119-0.977,7.071-2.929C119.197,141.356,119.197,135.024,115.292,131.118z"/>
	</g>
</g>
<g>
	<g>
		<path d="M464.092,77.94c-3.905-3.905-10.237-3.905-14.143,0l-53.21,53.211c-3.905,3.905-3.905,10.237,0,14.142
			c1.953,1.953,4.512,2.929,7.072,2.929c2.559,0,5.119-0.977,7.071-2.929l53.21-53.211C467.997,88.177,467.997,81.845,464.092,77.94
			z"/>
	</g>
</g>
<g>
	<g>
		<path d="M351.525,54.736c-5.115-2.079-10.949,0.381-13.03,5.498L326.743,89.14c-2.08,5.116,0.382,10.949,5.498,13.029
			c1.233,0.501,2.508,0.739,3.763,0.739c3.948,0,7.688-2.354,9.267-6.236l11.752-28.906
			C359.103,62.65,356.642,56.816,351.525,54.736z"/>
	</g>
</g>
<g>
	<g>
		<path d="M185.296,89.115l-11.772-28.889c-2.085-5.115-7.919-7.572-13.035-5.487c-5.114,2.084-7.571,7.92-5.487,13.035
			l11.772,28.889c1.581,3.879,5.319,6.229,9.264,6.229c1.257,0,2.535-0.238,3.771-0.742
			C184.923,100.066,187.38,94.23,185.296,89.115z"/>
	</g>
</g>
<g>
	<g>
		<path d="M256.934,150.112l-0.807-0.002c-5.523,0-10,4.477-10,10s4.477,10,10,10l0.689,0.002c0.02,0,0.04,0,0.06,0
			c5.495,0,9.966-4.438,9.999-9.941C266.907,154.648,262.457,150.145,256.934,150.112z"/>
	</g>
</g>
<g>
	<g>
		<path d="M383.238,238.087c-14.391-38.262-46.171-68.663-85.012-81.32c-5.253-1.71-10.896,1.159-12.606,6.409
			c-1.711,5.251,1.158,10.896,6.409,12.606c33.119,10.793,60.218,36.716,72.49,69.346c1.508,4.01,5.316,6.482,9.361,6.482
			c1.169,0,2.36-0.207,3.519-0.643C382.568,249.023,385.183,243.256,383.238,238.087z"/>
	</g>
</g>
<g>
</g>
<g>
</g>
<g>
</g>
<g>
</g>
<g>
</g>
<g>
</g>
<g>
</g>
<g>
</g>
<g>
</g>
<g>
</g>
<g>
</g>
<g>
</g>
<g>
</g>
<g>
</g>
<g>
</g>
</svg>
