<svg width="15" height="15" viewBox="0 0 15 15" fill="none" xmlns="http://www.w3.org/2000/svg">
<circle cx="7.5" cy="7.5" r="6.5" fill="#FF9100" stroke="#FFBD65" stroke-width="2"/>
<path d="M6.19219 5.02415C6.22184 4.93514 6.27874 4.85771 6.35484 4.80283C6.43094 4.74795 6.52238 4.71841 6.6162 4.71838H8.62784C8.70008 4.71837 8.77123 4.73587 8.83523 4.76937C8.89922 4.80287 8.95414 4.85138 8.99529 4.91074C9.03645 4.97011 9.0626 5.03856 9.07151 5.11024C9.08043 5.18192 9.07184 5.25469 9.04649 5.32232L8.60236 6.50651H9.29839C9.38325 6.50651 9.46635 6.53067 9.53799 6.57615C9.60963 6.62164 9.66684 6.68657 9.70294 6.76337C9.73904 6.84016 9.75253 6.92564 9.74185 7.00982C9.73117 7.09401 9.69675 7.17341 9.64261 7.23875L6.72192 10.7638C6.34061 11.2238 5.60077 10.8454 5.75052 10.2672L6.26193 8.29464H5.72214C5.6513 8.29463 5.58147 8.27779 5.51842 8.2455C5.45536 8.21321 5.40089 8.1664 5.35948 8.10892C5.31807 8.05145 5.29091 7.98495 5.28024 7.91492C5.26958 7.84489 5.27571 7.77332 5.29813 7.70612L6.19219 5.02415ZM6.6162 5.16542L5.72214 7.84761H6.55093C6.58507 7.84761 6.61875 7.85542 6.64939 7.87046C6.68003 7.88549 6.70682 7.90734 6.72771 7.93434C6.7486 7.96133 6.76303 7.99275 6.76989 8.02619C6.77675 8.05962 6.77586 8.09419 6.7673 8.12723L6.18325 10.3794C6.1533 10.4949 6.30127 10.5707 6.37771 10.4786L9.29839 6.95354H8.27983C8.24372 6.95353 8.20816 6.94477 8.17618 6.92801C8.14419 6.91125 8.11675 6.887 8.09618 6.85732C8.07562 6.82764 8.06256 6.79342 8.0581 6.75759C8.05365 6.72176 8.05795 6.68538 8.07062 6.65157L8.62784 5.16542H6.6162Z" fill="white"/>
</svg>
