<svg width="83" height="126" viewBox="0 0 83 126" fill="none" xmlns="http://www.w3.org/2000/svg">
<g clip-path="url(#clip0_411_2455)">
<path fill-rule="evenodd" clip-rule="evenodd" d="M73.7374 0H9.26258C4.17724 0 0 4.17981 0 9.26827V116.732C0 121.82 4.17724 126 9.26258 126H73.7374C78.8228 126 83 121.82 83 116.732V9.26827C83 4.17981 78.8228 0 73.7374 0ZM9.26258 2.42308H73.7374C77.4909 2.42308 80.5784 5.5125 80.5784 9.26827V102.072H2.42159V9.26827C2.42159 5.5125 5.50912 2.42308 9.26258 2.42308ZM73.7374 123.577H9.26258C5.50912 123.577 2.42159 120.548 2.42159 116.732V104.495H80.5784V116.732C80.5784 120.548 77.4909 123.577 73.7374 123.577Z" fill="#191966"/>
<path fill-rule="evenodd" clip-rule="evenodd" d="M38.8055 13.1452H44.1936C44.8595 13.1452 45.4044 12.6001 45.4044 11.9337C45.4044 11.2674 44.8595 10.7222 44.1936 10.7222H38.8055C38.1396 10.7222 37.5947 11.2674 37.5947 11.9337C37.5947 12.6001 38.1396 13.1452 38.8055 13.1452Z" fill="#191966"/>
<path fill-rule="evenodd" clip-rule="evenodd" d="M49.5214 112.855H33.4178C32.7519 112.855 32.207 113.4 32.207 114.066C32.207 114.733 32.7519 115.278 33.4178 115.278H49.5214C50.1873 115.278 50.7322 114.733 50.7322 114.066C50.7322 113.4 50.1873 112.855 49.5214 112.855Z" fill="#191966"/>
<path fill-rule="evenodd" clip-rule="evenodd" d="M18.5251 76.3269C18.7067 76.5086 19.0094 76.6298 19.3121 76.6298C19.6148 76.6298 19.9175 76.5086 20.0991 76.3269C20.7651 75.6606 21.6732 75.2971 22.5813 75.2971C23.4894 75.2971 24.3975 75.6606 25.0634 76.3269C26.4558 77.7202 26.4558 79.9615 25.0634 81.3548C24.8818 81.5365 24.7607 81.8394 24.7607 82.1423C24.7607 82.4452 24.8818 82.7481 25.0634 82.9298L29.9671 87.8365C31.0568 88.9269 32.5098 89.5327 34.0233 89.5327C35.5368 89.5327 36.9897 88.9269 38.0794 87.8365L39.9562 86.0192C40.3799 85.5952 40.3799 84.8683 39.9562 84.4442C39.7745 84.2625 39.4718 84.1413 39.1692 84.1413C38.8665 84.1413 38.5638 84.2625 38.3821 84.4442L36.6265 86.201C35.9605 86.8673 35.0525 87.2308 34.1444 87.2308C33.2363 87.2308 32.3282 86.8673 31.6622 86.201L27.485 82.0211L27.8482 81.2336C28.8774 79.0529 28.4536 76.3875 26.698 74.6913C25.6082 73.601 24.1553 72.9952 22.6418 72.9952C21.7942 72.9952 20.9467 73.1769 20.1597 73.5404L19.3727 73.9038L15.1954 69.724C13.803 68.3308 13.803 66.0894 15.1954 64.6961L46.4339 33.4385C47.0999 32.7721 48.008 32.4086 48.9161 32.4086C49.8242 32.4086 50.7322 32.7721 51.3982 33.4385L55.5754 37.6183L55.2122 38.4058C54.183 40.5865 54.6068 43.2519 56.3624 44.9481C57.4522 46.0385 58.9051 46.6442 60.4186 46.6442C61.2662 46.6442 62.1137 46.4625 62.9007 46.099L63.6878 45.7356L67.865 49.9154C69.2574 51.3086 69.2574 53.55 67.865 54.9433L45.4047 77.4173C45.2231 77.599 45.102 77.9019 45.102 78.2048C45.102 78.5077 45.2231 78.8106 45.4047 78.9923C45.5864 79.174 45.8891 79.2952 46.1918 79.2952C46.4945 79.2952 46.7972 79.174 46.9788 78.9923L69.439 56.5183C71.679 54.2769 71.679 50.6423 69.439 48.3404L64.5353 43.4336C64.3537 43.2519 64.051 43.1308 63.7483 43.1308C63.4456 43.1308 63.1429 43.2519 62.9613 43.4336C62.2953 44.1 61.3872 44.4635 60.4791 44.4635C59.571 44.4635 58.663 44.1 57.997 43.4336C56.6046 42.0404 56.6046 39.799 57.997 38.4058C58.4208 37.9817 58.4208 37.2548 57.997 36.8308L53.0933 31.924C51.8825 30.8942 50.4295 30.2885 48.8555 30.2885C47.2815 30.2885 45.8891 30.8942 44.7994 31.9846L13.5608 63.2423C11.3209 65.4836 11.3209 69.1183 13.5608 71.4202L18.5251 76.3269Z" fill="#FFBD16"/>
<path fill-rule="evenodd" clip-rule="evenodd" d="M55.4543 56.8817C55.757 56.8817 56.0597 56.7606 56.2413 56.5789C56.6651 56.1548 56.6651 55.4279 56.2413 55.0039L46.3733 45.1298C46.1917 44.9481 45.889 44.8269 45.5863 44.8269C45.2836 44.8269 44.9809 44.9481 44.7993 45.1298C44.3755 45.5539 44.3755 46.2808 44.7993 46.7048L54.6673 56.5789C54.9094 56.7606 55.1516 56.8817 55.4543 56.8817Z" fill="#FFBD16"/>
<path fill-rule="evenodd" clip-rule="evenodd" d="M34.8708 59.9106C34.6892 59.7289 34.3865 59.6077 34.0838 59.6077C33.7811 59.6077 33.4784 59.7289 33.2967 59.9106L28.393 64.8173C27.9693 65.2413 27.9693 65.9683 28.393 66.3923C28.5746 66.574 28.8773 66.6952 29.18 66.6952C29.4827 66.6952 29.7854 66.574 29.9671 66.3923L34.8708 61.4856C35.2946 61.0615 35.2946 60.3952 34.8708 59.9106Z" fill="#FFBD16"/>
<path fill-rule="evenodd" clip-rule="evenodd" d="M35.7186 73.3587C36.0213 73.3587 36.324 73.2375 36.5056 73.0558L48.0082 61.5462C48.432 61.1221 48.432 60.3952 48.0082 59.9712C47.8266 59.7894 47.5239 59.6683 47.2212 59.6683C46.9185 59.6683 46.6158 59.7894 46.4342 59.9712L34.9316 71.4808C34.75 71.6625 34.6289 71.9654 34.6289 72.2683C34.6289 72.5712 34.75 72.874 34.9316 73.0558C35.1738 73.2375 35.4159 73.3587 35.7186 73.3587Z" fill="#FFBD16"/>
</g>
<defs>
<clipPath id="clip0_411_2455">
<rect width="83" height="126" fill="white"/>
</clipPath>
</defs>
</svg>
