<svg width="16" height="16" viewBox="0 0 16 16" fill="none" xmlns="http://www.w3.org/2000/svg">
<g clip-path="url(#clip0_375_709)">
<path d="M6 7.33334C6 7.86377 6.21071 8.37248 6.58579 8.74755C6.96086 9.12262 7.46957 9.33334 8 9.33334C8.53043 9.33334 9.03914 9.12262 9.41421 8.74755C9.78929 8.37248 10 7.86377 10 7.33334C10 6.8029 9.78929 6.29419 9.41421 5.91912C9.03914 5.54405 8.53043 5.33334 8 5.33334C7.46957 5.33334 6.96086 5.54405 6.58579 5.91912C6.21071 6.29419 6 6.8029 6 7.33334Z" stroke="#191966" stroke-width="1.75" stroke-linecap="round" stroke-linejoin="round"/>
<path d="M11.7714 11.1047L8.94275 13.9333C8.69274 14.1831 8.35381 14.3234 8.00042 14.3234C7.64703 14.3234 7.30809 14.1831 7.05808 13.9333L4.22875 11.1047C3.4829 10.3588 2.97497 9.40846 2.76921 8.3739C2.56344 7.33935 2.66908 6.26701 3.07275 5.29248C3.47643 4.31796 4.16002 3.48502 5.03707 2.899C5.91413 2.31298 6.94526 2.00019 8.00008 2.00019C9.05491 2.00019 10.086 2.31298 10.9631 2.899C11.8402 3.48502 12.5237 4.31796 12.9274 5.29248C13.3311 6.26701 13.4367 7.33935 13.231 8.3739C13.0252 9.40846 12.5173 10.3588 11.7714 11.1047Z" stroke="#191966" stroke-width="1.75" stroke-linecap="round" stroke-linejoin="round"/>
</g>
<defs>
<clipPath id="clip0_375_709">
<rect width="16" height="16" fill="white"/>
</clipPath>
</defs>
</svg>
