<svg width="20" height="17" viewBox="0 0 20 17" fill="none" xmlns="http://www.w3.org/2000/svg">
<path d="M13.1667 14.6667H4.83334V15.5C4.83334 15.9602 4.46024 16.3333 4.00001 16.3333H3.16667C2.70644 16.3333 2.33334 15.9602 2.33334 15.5V14.6667H1.50001V8H0.666672V4.66667H1.50001V2.16667C1.50001 1.24619 2.2462 0.5 3.16667 0.5H14.8333C15.7538 0.5 16.5 1.24619 16.5 2.16667V4.66667L16.5 5V7.5L16.5 8V14.6667H15.6667V15.5C15.6667 15.9602 15.2936 16.3333 14.8333 16.3333H14C13.5398 16.3333 13.1667 15.9602 13.1667 15.5V14.6667ZM14.8333 8V2.16667H3.16667V8H14.8333ZM14.8333 9.66667H3.16667V13H14.8333V9.66667ZM4.00001 10.5H7.33334V12.1667H4.00001V10.5ZM10.6667 10.5H14V12.1667H10.6667V10.5Z" fill="#191966"/>
<path d="M18.4427 5.5C18.9427 8 21.3129 8 15.9427 8C11.4432 8 13.4427 6.88071 13.4427 5.5C13.4427 4.11929 11.4434 3 15.9427 3C20.9434 3 18.4427 4.11929 18.4427 5.5Z" fill="white"/>
<path d="M16.2374 5.59099L15 4.35355L15.3536 4L16.9446 5.59099L15.3536 7.18197L15 6.82842L16.2374 5.59099Z" fill="#191966"/>
</svg>
