<svg width="18" height="18" viewBox="0 0 18 18" fill="none" xmlns="http://www.w3.org/2000/svg">
<g id="Frame" clip-path="url(#clip0_145_1093)">
<path id="Vector" d="M2.25 9C2.25 9.88642 2.42459 10.7642 2.76381 11.5831C3.10303 12.4021 3.60023 13.1462 4.22703 13.773C4.85382 14.3998 5.59794 14.897 6.41689 15.2362C7.23583 15.5754 8.11358 15.75 9 15.75C9.88642 15.75 10.7642 15.5754 11.5831 15.2362C12.4021 14.897 13.1462 14.3998 13.773 13.773C14.3998 13.1462 14.897 12.4021 15.2362 11.5831C15.5754 10.7642 15.75 9.88642 15.75 9C15.75 7.20979 15.0388 5.4929 13.773 4.22703C12.5071 2.96116 10.7902 2.25 9 2.25C7.20979 2.25 5.4929 2.96116 4.22703 4.22703C2.96116 5.4929 2.25 7.20979 2.25 9Z" stroke="#333333" stroke-width="1.5" stroke-linecap="round" stroke-linejoin="round"/>
<path id="Vector_2" d="M9 6.75H9.0075" stroke="#333333" stroke-width="1.5" stroke-linecap="round" stroke-linejoin="round"/>
<path id="Vector_3" d="M8.25 9H9V12H9.75" stroke="#333333" stroke-width="1.5" stroke-linecap="round" stroke-linejoin="round"/>
</g>
<defs>
<clipPath id="clip0_145_1093">
<rect width="18" height="18" fill="white"/>
</clipPath>
</defs>
</svg>
