<svg width="49" height="46" viewBox="0 0 49 46" fill="none" xmlns="http://www.w3.org/2000/svg">
<rect x="5.65793" y="1.40949" width="38.45" height="38.45" rx="5.225" fill="#D9F8FF" stroke="#00D1FF" stroke-width="1.55"/>
<rect x="45.6585" y="36.3905" width="8.45" height="41.5511" rx="2.225" transform="rotate(90 45.6585 36.3905)" fill="#D9F8FF" stroke="#00D1FF" stroke-width="1.55"/>
<path d="M1.71848 18.6155C1.71848 17.3867 2.71465 16.3905 3.94348 16.3905H7.94348C9.17231 16.3905 10.1685 17.3867 10.1685 18.6155V44.8405H3.94348C2.71465 44.8405 1.71848 43.8443 1.71848 42.6155V18.6155Z" fill="#D9F8FF" stroke="#00D1FF" stroke-width="1.55"/>
<path d="M39.5774 18.6155C39.5774 17.3867 40.5735 16.3905 41.8024 16.3905H45.8024C47.0312 16.3905 48.0274 17.3867 48.0274 18.6155V42.6155C48.0274 43.8443 47.0312 44.8405 45.8024 44.8405H39.5774V18.6155Z" fill="#D9F8FF" stroke="#00D1FF" stroke-width="1.55"/>
<path d="M20.4669 15.6814H21.9982L24.8761 23.3581L27.7472 15.6814H29.2784L25.4777 25.6345H24.2609L20.4669 15.6814ZM19.7697 15.6814H21.2257L21.4786 22.3259V25.6345H19.7697V15.6814ZM28.5197 15.6814H29.9825V25.6345H28.2667V22.3259L28.5197 15.6814Z" fill="#333333"/>
</svg>
