<svg width="16" height="16" viewBox="0 0 16 16" fill="none" xmlns="http://www.w3.org/2000/svg">
<path d="M14.7071 4.59098L15.9445 5.82842L15.591 6.18198L14 4.59098L15.591 3.00001L15.9445 3.35356L14.7071 4.59098Z" fill="#191966"/>
<path fill-rule="evenodd" clip-rule="evenodd" d="M12.5 14.1667H4.16667V15C4.16667 15.4602 3.79357 15.8333 3.33333 15.8333H2.5C2.03977 15.8333 1.66667 15.4602 1.66667 15V14.1667H0.833333V7.5H0V4.16667H0.833333V1.66667C0.833333 0.746192 1.57952 0 2.5 0H14.1667C15.0872 0 15.8333 0.746192 15.8333 1.66667V2H14.1667V1.66667H2.5V7.5H14H14.1667H15.2761H15.8333V14.1667H15V15C15 15.4602 14.6269 15.8333 14.1667 15.8333H13.3333C12.8731 15.8333 12.5 15.4602 12.5 15V14.1667ZM14.1667 9.16667H2.5V12.5H14.1667V9.16667ZM3.33333 10H6.66667V11.6667H3.33333V10ZM10 10H13.3333V11.6667H10V10Z" fill="#191966"/>
</svg>
