<svg width="71" height="71" viewBox="0 0 71 71" fill="none" xmlns="http://www.w3.org/2000/svg">
<circle cx="35.6445" cy="35.453" r="35" fill="#EFEFEF"/>
<path d="M52.3118 56.2863H48.1452V52.1196C48.1452 48.6678 45.3471 45.8696 41.8952 45.8696H29.3952C25.9434 45.8696 23.1452 48.6678 23.1452 52.1196V56.2863H18.9785V52.1196C18.9785 46.3667 23.6422 41.703 29.3952 41.703H41.8952C47.6481 41.703 52.3118 46.3667 52.3118 52.1196V56.2863ZM35.6452 37.5363C28.7416 37.5363 23.1452 31.9399 23.1452 25.0363C23.1452 18.1328 28.7416 12.5363 35.6452 12.5363C42.5487 12.5363 48.1452 18.1328 48.1452 25.0363C48.1452 31.9399 42.5487 37.5363 35.6452 37.5363ZM35.6452 33.3696C40.2475 33.3696 43.9785 29.6387 43.9785 25.0363C43.9785 20.4339 40.2475 16.703 35.6452 16.703C31.0428 16.703 27.3118 20.4339 27.3118 25.0363C27.3118 29.6387 31.0428 33.3696 35.6452 33.3696Z" fill="#DFDFDF"/>
</svg>
