<svg width="24" height="24" viewBox="0 0 24 24" fill="none" xmlns="http://www.w3.org/2000/svg">
<g id="vuesax/linear/receipt-2">
<path id="Vector" d="M21 7.04V16.96C21 18.48 20.86 19.56 20.5 20.33C20.5 20.34 20.49 20.36 20.48 20.37C20.26 20.65 19.97 20.79 19.63 20.79C19.1 20.79 18.46 20.44 17.77 19.7C16.95 18.82 15.69 18.89 14.97 19.85L13.96 21.19C13.56 21.73 13.03 22 12.5 22C11.97 22 11.44 21.73 11.04 21.19L10.02 19.84C9.31002 18.89 8.05999 18.82 7.23999 19.69L7.22998 19.7C6.09998 20.91 5.10002 21.09 4.52002 20.37C4.51002 20.36 4.5 20.34 4.5 20.33C4.14 19.56 4 18.48 4 16.96V7.04C4 5.52 4.14 4.44 4.5 3.67C4.5 3.66 4.50002 3.65 4.52002 3.64C5.09002 2.91 6.09998 3.09 7.22998 4.3L7.23999 4.31C8.05999 5.18 9.31002 5.11 10.02 4.16L11.04 2.81C11.44 2.27 11.97 2 12.5 2C13.03 2 13.56 2.27 13.96 2.81L14.97 4.15C15.69 5.11 16.95 5.18 17.77 4.3C18.46 3.56 19.1 3.21 19.63 3.21C19.97 3.21 20.26 3.36 20.48 3.64C20.5 3.65 20.5 3.66 20.5 3.67C20.86 4.44 21 5.52 21 7.04Z" stroke="#333333" stroke-width="1.5" stroke-linecap="round" stroke-linejoin="round"/>
<path id="Vector_2" d="M9 10.25H17" stroke="#333333" stroke-width="1.5" stroke-linecap="round" stroke-linejoin="round"/>
<path id="Vector_3" d="M9 13.75H15" stroke="#333333" stroke-width="1.5" stroke-linecap="round" stroke-linejoin="round"/>
</g>
</svg>
