<svg width="32" height="32" viewBox="0 0 32 32" fill="none" xmlns="http://www.w3.org/2000/svg">
<circle cx="16" cy="16" r="16" fill="#FFBD16"/>
<g clip-path="url(#clip0_375_5173)">
<path d="M13.5 15.1667C13.5 15.8297 13.7634 16.4656 14.2322 16.9344C14.7011 17.4033 15.337 17.6667 16 17.6667C16.663 17.6667 17.2989 17.4033 17.7678 16.9344C18.2366 16.4656 18.5 15.8297 18.5 15.1667C18.5 14.5036 18.2366 13.8677 17.7678 13.3989C17.2989 12.93 16.663 12.6667 16 12.6667C15.337 12.6667 14.7011 12.93 14.2322 13.3989C13.7634 13.8677 13.5 14.5036 13.5 15.1667Z" stroke="#191966" stroke-width="1.75" stroke-linecap="round" stroke-linejoin="round"/>
<path d="M16.0163 23.9042C15.7948 23.9065 15.5751 23.8646 15.3701 23.7809C15.165 23.6972 14.9787 23.5733 14.8222 23.4167L11.2855 19.8808C10.4599 19.0549 9.86584 18.0266 9.56263 16.8989C9.25942 15.7712 9.25775 14.5836 9.55778 13.4551C9.85782 12.3265 10.449 11.2965 11.2722 10.4683C12.0954 9.64003 13.1218 9.04255 14.2485 8.73563C15.3752 8.42871 16.5628 8.42313 17.6923 8.71945C18.8218 9.01577 19.8537 9.60359 20.6847 10.4241C21.5157 11.2445 22.1165 12.2689 22.4271 13.3946C22.7378 14.5203 22.7473 15.7078 22.4547 16.8383" stroke="#191966" stroke-width="1.75" stroke-linecap="round" stroke-linejoin="round"/>
<path d="M19.333 24.3333L23.4997 20.1667" stroke="#191966" stroke-width="1.75" stroke-linecap="round" stroke-linejoin="round"/>
<path d="M23.5 23.9167V20.1667H19.75" stroke="#191966" stroke-width="1.75" stroke-linecap="round" stroke-linejoin="round"/>
</g>
<defs>
<clipPath id="clip0_375_5173">
<rect width="20" height="20" fill="white" transform="translate(6 6)"/>
</clipPath>
</defs>
</svg>
