<svg width="106" height="80" viewBox="0 0 106 80" fill="none" xmlns="http://www.w3.org/2000/svg">
<path opacity="0.3" d="M0.516223 36.542L18.3663 75.5271C18.7755 76.4132 19.5187 77.1013 20.4335 77.4413C21.3483 77.7812 22.3604 77.7455 23.2489 77.3418L26.0828 76.0471L91.7019 46.0042C92.5883 45.5964 93.2771 44.8541 93.6178 43.9398C93.9585 43.0255 93.9233 42.0135 93.52 41.125L77.7462 6.69197L75.6802 2.14336C75.2696 1.25861 74.5264 0.571671 73.6121 0.231876C72.6978 -0.10792 71.6863 -0.0731096 70.7976 0.32874L2.34118 31.6628C1.45482 32.0709 0.765645 32.8126 0.423812 33.7266C0.0819784 34.6405 0.115195 35.6525 0.516223 36.542Z" fill="#747474"/>
<path opacity="0.3" d="M80.3415 10.9548L5.12988 45.6756L9.86506 55.9329L85.0766 21.2121L80.3415 10.9548Z" fill="#747474"/>
<path opacity="0.9" d="M15.2916 32.3892L86.3271 7.44239C87.2486 7.12168 88.2597 7.17889 89.1391 7.60153C90.0186 8.02417 90.695 8.77784 91.0203 9.69776L105.227 50.1532C105.548 51.0747 105.492 52.0859 105.07 52.9658C104.648 53.8458 103.895 54.5231 102.975 54.8499L31.94 79.7966C31.0179 80.1156 30.0072 80.0575 29.1277 79.6352C28.2482 79.2128 27.571 78.4603 27.2434 77.5413L13.0363 37.0858C12.7154 36.1638 12.7726 35.1523 13.1952 34.2723C13.6178 33.3922 14.3715 32.7152 15.2916 32.3892Z" fill="#747474"/>
<path opacity="0.3" d="M96.4589 25.1795L18.4746 52.5656L24.6549 70.1644L102.639 42.7782L96.4589 25.1795Z" fill="#D9D9D9"/>
<path opacity="0.8" d="M87.1235 16.6148L71.0029 22.2759L71.8848 24.7873L88.0054 19.1261L87.1235 16.6148Z" fill="#2D2D2D"/>
<path opacity="0.8" d="M97.9247 47.3687L84.9912 51.9106L85.4521 53.2231L98.3856 48.6812L97.9247 47.3687Z" fill="#2D2D2D"/>
<path opacity="0.8" d="M98.8041 49.8797L82.1377 55.7325L82.5986 57.045L99.265 51.1922L98.8041 49.8797Z" fill="#2D2D2D"/>
<path opacity="0.8" d="M39.3781 69.0525L31.0449 71.9789L32.0364 74.8022L40.3695 71.8757L39.3781 69.0525Z" fill="#2D2D2D"/>
<g opacity="0.8">
<path d="M83.9331 44.8711L93.6639 41.4553C94.1769 41.2727 94.597 40.895 94.833 40.4044C95.069 39.9137 95.1018 39.3497 94.9241 38.8349C94.7416 38.322 94.3639 37.9018 93.8732 37.6658C93.3825 37.4298 92.8185 37.3971 92.3038 37.5747L82.5696 40.9939C82.0566 41.1765 81.6364 41.5542 81.4004 42.0448C81.1644 42.5355 81.1317 43.0996 81.3093 43.6143C81.4925 44.1274 81.8711 44.5474 82.3625 44.7828C82.8539 45.0182 83.4184 45.0499 83.9331 44.8711Z" fill="#747474"/>
<path d="M67.2646 50.7247L76.9989 47.3055C77.508 47.1222 77.9248 46.7464 78.1598 46.259C78.3949 45.7716 78.4293 45.2115 78.2557 44.6989C78.0724 44.1866 77.6944 43.7672 77.2038 43.5319C76.7132 43.2966 76.1496 43.2643 75.6353 43.4421L65.9045 46.8613C65.3915 47.0439 64.9714 47.4216 64.7354 47.9123C64.4994 48.403 64.4666 48.967 64.6443 49.4817C64.8302 49.9915 65.2094 50.4077 65.6997 50.6403C66.19 50.8729 66.7521 50.9032 67.2646 50.7247Z" fill="#747474"/>
<path d="M50.6059 56.5784L60.3402 53.1592C60.848 52.9745 61.2633 52.5981 61.4969 52.1109C61.7306 51.6236 61.764 51.0642 61.5901 50.5526C61.4068 50.0402 61.0289 49.6209 60.5382 49.3856C60.0476 49.1502 59.484 49.118 58.9697 49.2958L49.2286 52.7012C48.7163 52.8845 48.2969 53.2624 48.0616 53.753C47.8263 54.2437 47.794 54.8073 47.9718 55.3216C48.1549 55.8372 48.5351 56.2591 49.029 56.4947C49.5228 56.7303 50.0899 56.7604 50.6059 56.5784Z" fill="#747474"/>
<path d="M33.9297 62.4319L43.6639 59.0127C44.1736 58.8301 44.5913 58.4546 44.827 57.9671C45.0627 57.4796 45.0976 56.9191 44.9242 56.4062C44.7409 55.8938 44.3629 55.4744 43.8723 55.2391C43.3817 55.0038 42.8181 54.9716 42.3038 55.1494L32.5696 58.5686C32.0566 58.7511 31.6364 59.1288 31.4004 59.6195C31.1644 60.1102 31.1317 60.6742 31.3093 61.1889C31.4953 61.6987 31.8744 62.1149 32.3647 62.3475C32.855 62.5801 33.4172 62.6104 33.9297 62.4319Z" fill="#747474"/>
</g>
<path opacity="0.3" d="M88.9914 26.1955L80.33 29.2371C79.5944 29.4955 79.2075 30.3013 79.4658 31.0369L81.2707 36.1765C81.5291 36.9122 82.3348 37.2991 83.0705 37.0408L91.7318 33.9991C92.4674 33.7408 92.8544 32.935 92.596 32.1993L90.7911 27.0597C90.5328 26.3241 89.727 25.9372 88.9914 26.1955Z" fill="#2D2D2D"/>
<path opacity="0.8" d="M36.7222 35.7464C36.5062 35.1291 36.1706 34.5605 35.7347 34.073C35.2988 33.5856 34.771 33.1888 34.1816 32.9055C33.5922 32.6221 32.9527 32.4577 32.2998 32.4217C31.6468 32.3857 30.9931 32.4788 30.3762 32.6956L23.3794 35.3229L23.2898 35.347L23.0832 35.433L22.9558 35.4813C21.8261 35.9914 20.9363 36.9172 20.4712 38.0662C20.0062 39.2153 20.0017 40.4994 20.4586 41.6517C20.9155 42.804 21.7988 43.736 22.9249 44.2541C24.0511 44.7722 25.3335 44.8366 26.5059 44.4339L33.1308 42.2301C33.3217 42.1874 33.5102 42.1345 33.6955 42.0717C33.8326 42.0238 33.9671 41.9686 34.0984 41.9065C35.2243 41.3908 36.1173 40.4736 36.6026 39.3343C37.0879 38.1949 37.1305 36.9155 36.7222 35.7464Z" fill="#2D2D2D"/>
<path d="M98.6517 69.6585L98.6517 69.6585C98.8607 69.8675 99.0265 70.1157 99.1396 70.3887C99.2527 70.6618 99.311 70.9545 99.311 71.25C99.311 71.5456 99.2527 71.8383 99.1396 72.1113C99.0265 72.3844 98.8608 72.6325 98.6518 72.8415L98.6517 69.6585ZM98.6517 69.6585L88.9918 60L98.6517 50.3416L98.6517 50.3415C99.0738 49.9194 99.311 49.3469 99.311 48.75C99.311 48.1531 99.0738 47.5806 98.6517 47.1585C98.2297 46.7365 97.6572 46.4993 97.0603 46.4993C96.4633 46.4993 95.8909 46.7365 95.4688 47.1585L95.4687 47.1586L85.8103 56.8185L76.1518 47.1586L76.1517 47.1585C75.7297 46.7365 75.1572 46.4993 74.5603 46.4993C73.9633 46.4993 73.3909 46.7365 72.9688 47.1585C72.5467 47.5806 72.3096 48.1531 72.3096 48.75C72.3096 49.3469 72.5467 49.9194 72.9688 50.3415L72.9688 50.3416L82.6288 60L72.9688 69.6585L72.9688 69.6585C72.5467 70.0806 72.3096 70.6531 72.3096 71.25C72.3096 71.8469 72.5467 72.4194 72.9688 72.8415C73.3909 73.2636 73.9633 73.5007 74.5603 73.5007C75.1572 73.5007 75.7297 73.2636 76.1517 72.8415L76.1518 72.8415L85.8103 63.1815L95.4687 72.8415L95.4688 72.8415M98.6517 69.6585L95.4688 72.8415M95.4688 72.8415C95.6778 73.0505 95.9259 73.2163 96.199 73.3294C96.472 73.4425 96.7647 73.5007 97.0603 73.5007C97.3558 73.5007 97.6485 73.4425 97.9216 73.3294C98.1946 73.2163 98.4427 73.0505 98.6517 72.8415L95.4688 72.8415Z" fill="#C30000" stroke="#C30000" stroke-width="2"/>
</svg>
