<svg width="12" height="13" viewBox="0 0 12 13" fill="none" xmlns="http://www.w3.org/2000/svg">
<g clip-path="url(#clip0_135_2576)">
<path d="M11.9201 3.77138L8.64738 0.498654C8.54084 0.392111 8.36825 0.392111 8.26174 0.498654L6.00002 2.76037L5.92012 2.68046C5.81358 2.57392 5.64099 2.57392 5.53447 2.68046L0.851218 7.36371C0.302549 7.91264 0 8.64238 0 9.41876C0 11.073 1.34607 12.4187 3 12.4187C3.76492 12.4187 4.51438 12.1085 5.05504 11.5675L9.7383 6.88428C9.84484 6.77774 9.84484 6.60516 9.7383 6.49864L9.6584 6.41874L11.9201 4.15703C12.0267 4.05051 12.0267 3.87793 11.9201 3.77138ZM6.74416 7.99627L6.35851 8.38192C6.30526 8.43517 6.23545 8.46182 6.16568 8.46182C6.0959 8.46182 6.02613 8.43517 5.97284 8.38217L5.82529 8.52947C5.66868 8.68607 5.46148 8.76971 5.24893 8.76971C5.16156 8.76971 5.07368 8.75559 4.98793 8.72683L4.31083 8.50114L3.79187 9.01999C3.83764 9.2004 3.79916 9.39835 3.65838 9.53916C3.55184 9.64542 3.41229 9.6987 3.27273 9.6987C3.13318 9.6987 2.99361 9.64544 2.88709 9.53916C2.67454 9.32661 2.67454 8.98039 2.88709 8.76784C3.02828 8.62701 3.22594 8.58856 3.40625 8.63438L3.53908 8.50155L3.31323 7.82397C3.21469 7.52807 3.29033 7.20713 3.51139 6.98635L3.71772 6.78002C3.67196 6.59961 3.71041 6.40168 3.85122 6.26085C4.06428 6.04831 4.40945 6.04831 4.62253 6.26085C4.83508 6.4734 4.83508 6.81962 4.62253 7.03217C4.51599 7.13843 4.37644 7.19172 4.23689 7.19172C4.1915 7.19172 4.14765 7.17699 4.10342 7.16574L3.89703 7.37228C3.82299 7.44604 3.79796 7.55287 3.83099 7.65113L3.97062 8.07011L5.58681 6.4541C5.52023 6.38724 5.49239 6.29044 5.51425 6.19829C5.53555 6.10614 5.60374 6.0321 5.69323 6.002L6.27225 5.80917C6.37079 5.77695 6.47891 5.80252 6.55137 5.87521C6.62435 5.94818 6.64991 6.05631 6.61742 6.15434L6.42458 6.73282C6.39474 6.82231 6.32019 6.89022 6.22855 6.91205C6.20776 6.91686 6.18647 6.91924 6.1657 6.91924C6.09432 6.91924 6.02454 6.89126 5.97287 6.83959L4.74196 8.07011L5.16054 8.20964C5.25854 8.24213 5.36562 8.21764 5.43967 8.14385L5.58681 7.9967C5.53568 7.94557 5.50678 7.87592 5.50678 7.80349C5.50678 7.73105 5.53555 7.66153 5.58669 7.6104L5.97287 7.22475C6.07941 7.11874 6.252 7.11849 6.35851 7.22501L6.74416 7.61065C6.85068 7.71714 6.85068 7.88973 6.74416 7.99627Z" fill="#FFBD16"/>
<path d="M7.43982 2.95719C7.33701 3.06427 7.33862 3.23391 7.44355 3.33884L7.71629 3.61158C7.76955 3.66484 7.83935 3.69148 7.90912 3.69148C7.9789 3.69148 8.04867 3.66484 8.10196 3.61158L8.92014 2.7934C9.02668 2.68686 9.02668 2.51427 8.92014 2.40775L8.6474 2.13502C8.6213 2.10891 8.58987 2.08762 8.55579 2.07404C8.364 1.99652 8.364 1.99439 7.43982 2.95719Z" fill="white"/>
<path d="M8.8077 4.70302L9.08044 4.97576C9.1337 5.02902 9.2035 5.05566 9.27327 5.05566C9.34305 5.05566 9.41283 5.02902 9.46611 4.97576L10.2843 4.15757C10.3908 4.05103 10.3908 3.87844 10.2843 3.77193L10.0116 3.49919C9.98545 3.47309 9.95403 3.45179 9.91995 3.43821C9.72872 3.36071 9.72818 3.35856 8.804 4.32139C8.70119 4.42844 8.70277 4.59809 8.8077 4.70302Z" fill="white"/>
<path d="M3.27274 9.15349V9.15374L3.46557 9.34632L3.27353 9.15402L3.27274 9.15349Z" fill="#FFBD16"/>
<path d="M4.42968 6.83933L4.23685 6.64621V6.64649L4.23738 6.64728L4.42968 6.83933Z" fill="#FFBD16"/>
</g>
<defs>
<clipPath id="clip0_135_2576">
<rect width="12" height="12" fill="white" transform="translate(0 0.418762)"/>
</clipPath>
</defs>
</svg>
