<svg width="24" height="25" viewBox="0 0 24 25" fill="none" xmlns="http://www.w3.org/2000/svg">
<path d="M20 22.7202H18V20.7202C18 19.0633 16.6569 17.7202 15 17.7202H9C7.34315 17.7202 6 19.0633 6 20.7202V22.7202H4V20.7202C4 17.9588 6.23858 15.7202 9 15.7202H15C17.7614 15.7202 20 17.9588 20 20.7202V22.7202ZM12 13.7202C8.68629 13.7202 6 11.0339 6 7.72021C6 4.4065 8.68629 1.72021 12 1.72021C15.3137 1.72021 18 4.4065 18 7.72021C18 11.0339 15.3137 13.7202 12 13.7202ZM12 11.7202C14.2091 11.7202 16 9.92935 16 7.72021C16 5.51107 14.2091 3.72021 12 3.72021C9.79086 3.72021 8 5.51107 8 7.72021C8 9.92935 9.79086 11.7202 12 11.7202Z" fill="#ACB3BE"/>
</svg>
