<?xml version="1.0" encoding="UTF-8"?>
<svg width="24px" height="24px" viewBox="0 0 24 24" version="1.1" xmlns="http://www.w3.org/2000/svg" xmlns:xlink="http://www.w3.org/1999/xlink">
    <!-- Generator: Sketch 63.1 (92452) - https://sketch.com -->
    <title>mdpi/redPro / User Management</title>
    <desc>Created with Sketch.</desc>
    <g id="redPro-/-User-Management" stroke="none" stroke-width="1" fill="none" fill-rule="evenodd">
        <rect id="Rectangle" x="0" y="0" width="24" height="24"></rect>
        <path d="M9,3 C10.657,3 12,4.343 12,6 C12,7.657 10.657,9 9,9 C7.343,9 6,7.657 6,6 C6,4.343 7.343,3 9,3 M11,11 C13.762,11 16,13.238 16,16 L16,16 L16,22 L2,22 L2,16 C2,13.238 4.239,11 7,11 L7,11 Z M17,11 C19.762,11 22,13.238 22,16 L22,16 L22,22 L17,22 L17,21 L21,21 L21,16 C21,13.791 19.209,12 17,12 L17,12 L15.463,12 C15.123,11.621 14.739,11.283 14.314,11 L14.314,11 Z M11,12 L7,12 C4.791,12 3,13.791 3,16 L3,16 L3,21 L15,21 L15,16 C15,13.791 13.209,12 11,12 L11,12 Z M9,2 C11.209,2 13,3.791 13,6 C13,8.209 11.209,10 9,10 C6.791,10 5,8.209 5,6 C5,3.791 6.791,2 9,2 Z M15,2 C17.209,2 19,3.791 19,6 C19,8.209 17.209,10 15,10 C14.158,10 13.38,9.737 12.735,9.293 C12.956,9.043 13.148,8.773 13.316,8.482 C13.796,8.809 14.376,9 15,9 C16.657,9 18,7.657 18,6 C18,4.343 16.657,3 15,3 C14.376,3 13.796,3.191 13.316,3.518 C13.148,3.227 12.956,2.957 12.735,2.707 C13.38,2.263 14.158,2 15,2 Z" id="Combined-Shape" fill="#7E7E8C"></path>
    </g>
</svg>