<svg height="496pt" viewBox="0 -104 496 496" width="496pt" xmlns="http://www.w3.org/2000/svg"><path d="m360 0h-288c-39.746094.046875-71.953125 32.253906-72 72v160c0 4.417969 3.582031 8 8 8h32.640625c3.953125 27.535156 27.542969 47.976562 55.359375 47.976562s51.40625-20.441406 55.359375-47.976562h193.28125c3.953125 27.535156 27.542969 47.976562 55.359375 47.976562s51.40625-20.441406 55.359375-47.976562h32.640625c4.417969 0 8-3.582031 8-8v-96c-.082031-75.074219-60.925781-135.9179688-136-136zm109.910156 88h-109.910156v-40h80c.363281-.046875.71875-.121094 1.070312-.214844 12.296876 11.261719 22.117188 24.957032 28.839844 40.214844zm-453.910156 48h376c48.578125.058594 87.941406 39.421875 88 88h-24.640625c-3.953125-27.535156-27.542969-47.976562-55.359375-47.976562s-51.40625 20.441406-55.359375 47.976562h-193.28125c-3.953125-27.535156-27.542969-47.976562-55.359375-47.976562s-51.40625 20.441406-55.359375 47.976562h-24.640625zm80 136c-22.089844 0-40-17.910156-40-40s17.910156-40 40-40 40 17.910156 40 40c-.027344 22.082031-17.917969 39.972656-40 40zm304 0c-22.089844 0-40-17.910156-40-40s17.910156-40 40-40 40 17.910156 40 40c-.027344 22.082031-17.917969 39.972656-40 40zm-8-152h-376v-48c.035156-30.914062 25.085938-55.964844 56-56h288c20.929688.003906 41.488281 5.523438 59.609375 16h-67.609375c-4.417969 0-8 3.582031-8 8v56c0 4.417969 3.582031 8 8 8h123.535156c2.933594 10.414062 4.433594 21.179688 4.464844 32v32.800781c-18.976562-30.332031-52.222656-48.769531-88-48.800781zm0 0"/><path d="m96 208c-13.253906 0-24 10.746094-24 24s10.746094 24 24 24 24-10.746094 24-24-10.746094-24-24-24zm0 32c-4.417969 0-8-3.582031-8-8s3.582031-8 8-8 8 3.582031 8 8-3.582031 8-8 8zm0 0"/><path d="m400 208c-13.253906 0-24 10.746094-24 24s10.746094 24 24 24 24-10.746094 24-24-10.746094-24-24-24zm0 32c-4.417969 0-8-3.582031-8-8s3.582031-8 8-8 8 3.582031 8 8-3.582031 8-8 8zm0 0"/><path d="m328 32h-72c-4.417969 0-8 3.582031-8 8v56c0 4.417969 3.582031 8 8 8h72c4.417969 0 8-3.582031 8-8v-56c0-4.417969-3.582031-8-8-8zm-8 56h-56v-40h56zm0 0"/><path d="m232 32h-72c-4.417969 0-8 3.582031-8 8v56c0 4.417969 3.582031 8 8 8h72c4.417969 0 8-3.582031 8-8v-56c0-4.417969-3.582031-8-8-8zm-8 56h-56v-40h56zm0 0"/><path d="m136 32h-72c-4.417969 0-8 3.582031-8 8v56c0 4.417969 3.582031 8 8 8h72c4.417969 0 8-3.582031 8-8v-56c0-4.417969-3.582031-8-8-8zm-8 56h-56v-40h56zm0 0"/><path d="m112 168c4.417969 0 8-3.582031 8-8s-3.582031-8-8-8h-80c-4.417969 0-8 3.582031-8 8s3.582031 8 8 8zm0 0"/><path d="m136 168h16c4.417969 0 8-3.582031 8-8s-3.582031-8-8-8h-16c-4.417969 0-8 3.582031-8 8s3.582031 8 8 8zm0 0"/></svg>