<?xml version="1.0" encoding="UTF-8"?>
<svg width="24px" height="24px" viewBox="0 0 24 24" version="1.1" xmlns="http://www.w3.org/2000/svg" xmlns:xlink="http://www.w3.org/1999/xlink">
    <title>mdpi/Icon/24x/Solid/Show</title>
    <g id="Icon/24x/Solid/Show" stroke="none" stroke-width="1" fill="none" fill-rule="evenodd">
        <path d="M11.9997977,5 C16.4908691,5 20.3454054,7.88509833 21.9998038,12.000029 C20.3447839,16.1153669 16.490507,19 11.9997977,19 C7.5090883,19 3.65481145,16.1153669 2.00019171,12.0009663 C3.6541899,7.88509833 7.50872621,5 11.9997977,5 Z M12,7 C9.23857625,7 7,9.23857625 7,12 C7,14.7614237 9.23857625,17 12,17 C14.7614237,17 17,14.7614237 17,12 C17,9.23857625 14.7614237,7 12,7 Z M12,9 C13.6568542,9 15,10.3431458 15,12 C15,13.6568542 13.6568542,15 12,15 C10.3431458,15 9,13.6568542 9,12 C9,10.3431458 10.3431458,9 12,9 Z" id="Shape" fill="#AFAFAF"></path>
    </g>
</svg>