<svg width="16" height="16" viewBox="0 0 16 16" fill="none" xmlns="http://www.w3.org/2000/svg">
<g clip-path="url(#clip0_142_4164)">
<path d="M11.3333 5.33332V3.33332C11.3333 3.15651 11.2631 2.98694 11.1381 2.86192C11.013 2.73689 10.8435 2.66666 10.6667 2.66666H4C3.64638 2.66666 3.30724 2.80713 3.05719 3.05718C2.80714 3.30723 2.66666 3.64637 2.66666 3.99999M2.66666 3.99999C2.66666 4.35361 2.80714 4.69275 3.05719 4.9428C3.30724 5.19285 3.64638 5.33332 4 5.33332H12C12.1768 5.33332 12.3464 5.40356 12.4714 5.52859C12.5964 5.65361 12.6667 5.82318 12.6667 5.99999V7.99999M2.66666 3.99999V12C2.66666 12.3536 2.80714 12.6928 3.05719 12.9428C3.30724 13.1928 3.64638 13.3333 4 13.3333H12C12.1768 13.3333 12.3464 13.2631 12.4714 13.1381C12.5964 13.013 12.6667 12.8435 12.6667 12.6667V10.6667" stroke="white" stroke-width="1.3" stroke-linecap="round" stroke-linejoin="round"/>
<path d="M13.3333 8V10.6667H10.6667C10.313 10.6667 9.97391 10.5262 9.72386 10.2761C9.47381 10.0261 9.33334 9.68696 9.33334 9.33333C9.33334 8.97971 9.47381 8.64057 9.72386 8.39052C9.97391 8.14048 10.313 8 10.6667 8H13.3333Z" stroke="white" stroke-width="1.3" stroke-linecap="round" stroke-linejoin="round"/>
</g>
<defs>
<clipPath id="clip0_142_4164">
<rect width="16" height="16" fill="white"/>
</clipPath>
</defs>
</svg>
