<svg width="46" height="46" viewBox="0 0 46 46" fill="none" xmlns="http://www.w3.org/2000/svg">
<circle cx="23" cy="23" r="22.5" stroke="#DADEE3"/>
<g clip-path="url(#clip0_380_5466)">
<path d="M14 32L15.65 28.2C14.3877 26.4081 13.8227 24.217 14.061 22.0381C14.2994 19.8592 15.3248 17.8421 16.9447 16.3655C18.5646 14.8889 20.6677 14.0542 22.8594 14.0181C25.051 13.982 27.1805 14.7469 28.8482 16.1694C30.5159 17.5918 31.6071 19.574 31.9172 21.7439C32.2272 23.9138 31.7347 26.1222 30.5321 27.9548C29.3295 29.7873 27.4994 31.118 25.3854 31.6971C23.2713 32.2762 21.0186 32.0639 19.05 31.1L14 32" stroke="#50C878" stroke-width="1.75" stroke-linecap="round" stroke-linejoin="round"/>
<path d="M20 21C20 21.1326 20.0527 21.2598 20.1464 21.3536C20.2402 21.4473 20.3674 21.5 20.5 21.5C20.6326 21.5 20.7598 21.4473 20.8536 21.3536C20.9473 21.2598 21 21.1326 21 21V20C21 19.8674 20.9473 19.7402 20.8536 19.6464C20.7598 19.5527 20.6326 19.5 20.5 19.5C20.3674 19.5 20.2402 19.5527 20.1464 19.6464C20.0527 19.7402 20 19.8674 20 20V21ZM20 21C20 22.3261 20.5268 23.5979 21.4645 24.5355C22.4021 25.4732 23.6739 26 25 26H26C26.1326 26 26.2598 25.9473 26.3536 25.8536C26.4473 25.7598 26.5 25.6326 26.5 25.5C26.5 25.3674 26.4473 25.2402 26.3536 25.1464C26.2598 25.0527 26.1326 25 26 25H25C24.8674 25 24.7402 25.0527 24.6464 25.1464C24.5527 25.2402 24.5 25.3674 24.5 25.5C24.5 25.6326 24.5527 25.7598 24.6464 25.8536C24.7402 25.9473 24.8674 26 25 26" stroke="#50C878" stroke-width="1.75" stroke-linecap="round" stroke-linejoin="round"/>
</g>
<defs>
<clipPath id="clip0_380_5466">
<rect width="24" height="24" fill="white" transform="translate(11 11)"/>
</clipPath>
</defs>
</svg>
