<?xml version="1.0" encoding="UTF-8"?>
<svg width="24px" height="24px" viewBox="0 0 24 24" version="1.1" xmlns="http://www.w3.org/2000/svg" xmlns:xlink="http://www.w3.org/1999/xlink">
    <title>mdpi/Icon/24x/Whatsapp</title>
    <g id="Icon/24x/Whatsapp" stroke="none" stroke-width="1" fill="none" fill-rule="evenodd">
        <path d="M11.9903681,0 C5.37632632,0 0,5.38064516 0,12 C0,14.0322581 0.502670808,16.0258821 1.48897528,17.7871725 L0.464218819,21.5420865 C0.290165089,22.1420865 0.463992201,22.7613658 0.908796178,23.2065271 C1.35360015,23.6516884 1.97275998,23.8259574 2.57227838,23.6711187 L6.47866661,22.6451613 C8.18052531,23.5354839 10.0757014,24 12.0096317,24 C18.6236735,24 24,18.6193548 24,12 C24,8.78709677 22.76236,5.78694561 20.4996615,3.52242948 C18.2176237,1.2579133 15.2006924,0 11.9903681,0 Z M11.9903681,1.16129032 C14.8912636,1.16129032 17.6180297,2.28394665 19.6486568,4.33555955 C21.6986229,6.38717245 22.8397172,9.11612903 22.8203779,12 C22.8203779,17.9806452 17.9662128,22.8387097 11.9903681,22.8387097 C10.1918129,22.8387097 8.3931066,22.3740426 6.80728373,21.5224297 C6.72992652,21.48372 6.63353208,21.4453123 6.53683556,21.4453123 C6.47881765,21.4453123 6.43998801,21.4452368 6.3819701,21.4645916 L2.26254745,22.5483871 C1.9724579,22.6258065 1.77936695,22.4708168 1.70200973,22.3933974 C1.62465252,22.3159781 1.46978705,22.1227316 1.54714427,21.832409 L2.63006964,17.8450101 C2.66874824,17.6901714 2.6496356,17.5355595 2.57227838,17.4000757 C1.64399182,15.7742692 1.1603582,13.8967742 1.1603582,12 C1.1603582,6.01935484 6.01452333,1.16129032 11.9903681,1.16129032 Z M11.9903681,2.90322581 C6.9814885,2.90322581 2.9008955,6.96774194 2.9008955,12 C2.9008955,13.6064516 3.32651121,15.1741935 4.11942265,16.5483871 C4.4288515,17.0903226 4.50605767,17.7288811 4.35134325,18.3288811 L3.79042783,20.3611394 L5.95665646,19.800151 C6.1500495,19.7420865 6.34344253,19.7226561 6.53683556,19.7226561 C6.92362163,19.7226561 7.31025666,19.8194303 7.63902481,20.0129787 C8.97343674,20.7097529 10.4625631,21.0967742 11.9903681,21.0967742 C16.9992476,21.0967742 21.0798406,17.0129032 21.0798406,12 C21.0798406,9.56129032 20.1320639,7.27726819 18.4108657,5.55468755 C16.709007,3.85146174 14.4271203,2.90322581 11.9903681,2.90322581 Z M7.94837805,6.71597787 L8.49002978,6.71597787 C8.70276211,6.71597787 8.91526779,6.73533271 9.12800013,7.19984884 C9.37941107,7.76113916 9.94025087,9.17411787 9.99826878,9.30960174 C10.075626,9.44508561 10.1146067,9.61920368 10.0179102,9.81275206 C9.92121364,10.0063005 9.88253504,10.1224295 9.72782061,10.296623 C9.59244549,10.4708166 9.4181651,10.6646673 9.30212928,10.8001512 C9.16675416,10.935635 9.01211535,11.0904737 9.18616908,11.3807963 C9.36022281,11.6711189 9.92091156,12.6 10.7718409,13.3548387 C11.8548419,14.3225806 12.7832039,14.6324092 13.0732934,14.7678931 C13.363383,14.903377 13.5183241,14.8839466 13.6923778,14.6903983 C13.8664315,14.4968499 14.407781,13.8579888 14.601174,13.5676663 C14.794567,13.2773437 14.9881111,13.3355595 15.2395221,13.4323337 C15.5102723,13.5291079 16.9026267,14.2256553 17.1927163,14.3611392 C17.4828058,14.496623 17.6759722,14.5742692 17.7339901,14.6903983 C17.8113473,14.845237 17.811574,15.4063759 17.5795023,16.0837953 C17.3474307,16.7418598 16.1870725,17.3999243 15.645572,17.438634 C15.1234108,17.4773437 14.6397016,17.6710434 12.2222887,16.7226563 C9.32139316,15.5807208 7.48431039,12.5999243 7.34893526,12.4063759 C7.21356014,12.2128275 6.18857706,10.8582157 6.18857706,9.44531245 C6.18857706,8.03240923 6.92331955,7.35483871 7.1940698,7.06451613 C7.46482004,6.77419355 7.75498502,6.71597787 7.94837805,6.71597787 Z" id="Shape" fill="#25D366"></path>
    </g>
</svg>