<?xml version="1.0" encoding="UTF-8"?>
<svg width="18px" height="20px" viewBox="0 0 18 20" version="1.1" xmlns="http://www.w3.org/2000/svg" xmlns:xlink="http://www.w3.org/1999/xlink">
    <title>mdpi/Bus Amenities / Seat / Without Window</title>
    <defs>
        <path d="M19.6278371,18.2332399 C19.6365732,17.4518514 19.381114,16.7613278 18.8400283,16.1216256 C18.3108536,15.4960055 16.2959951,15.3760166 12.9058961,16.0464271 C12.0111314,16.2233614 11.1099995,15.7725302 10.7150752,14.9503718 C10.1464877,13.7666789 9.72007261,12.3836006 9.43067297,10.7954589 C8.94470461,8.03381926 7.65615448,7.23996941 5.04199992,8.07634727 L8.03892814,15.844804 C8.65719839,17.5015898 9.57541918,18.2332399 10.9157467,18.2332399 L19.6278371,18.2332399 Z M9.39176546,10.0487099 L15.4212214,10.0709132 C16.1194475,10.0709132 16.6854716,10.6369373 16.6854716,11.3351634 C16.6854716,12.0288419 16.145805,12.602809 15.4534413,12.6454997 L10.1068788,12.9868069 L9.39176546,10.0487099 Z M15.4212214,11.0709132 L10.1154517,11.0709132 L10.3317044,11.9594035 L15.3918988,11.6473952 C15.5568778,11.6372227 15.6854716,11.5004557 15.6854716,11.3351634 C15.6854716,11.189222 15.5671628,11.0709132 15.4212214,11.0709132 Z M10.4155406,10.6221508 C10.6886468,12.1207817 11.0889583,13.4191928 11.616475,14.5173839 C11.8139413,14.9284718 12.2645167,15.1538921 12.7119085,15.0654231 C16.4496943,14.3262557 18.746905,14.4630695 19.6035326,15.475823 C20.2978193,16.2966478 20.6392333,17.2195133 20.6277746,18.2444193 C20.6232105,18.6526484 20.3745043,19.0015007 20.0213584,19.1528222 L20.0202774,20.1421848 C20.0202774,20.970612 19.3487045,21.6421848 18.5202774,21.6421848 L10.7305587,21.6421848 C10.1797408,21.6421848 9.67323365,21.3402965 9.41120643,20.8558261 L8.10844552,18.4481514 L8.10844552,18.4481514 L7.94159877,18.1230169 C7.76583538,17.7644482 7.56324806,17.3054516 7.33317049,16.7448944 C7.27818886,16.6290229 7.22578773,16.5087383 7.17563121,16.3842608 L4.09891426,8.40874751 L4.09891426,8.40874751 L4.08958666,8.38099839 C3.92130706,7.85500321 4.21129284,7.2921823 4.73728802,7.1239027 C7.93250204,6.10161951 9.82525782,7.26771755 10.4155406,10.6221508 Z M9.5422252,18.9972357 L10.2907863,20.3800748 L10.2907863,20.3800748 C10.3781261,20.5415602 10.5469538,20.6421848 10.7305587,20.6421848 L18.5202774,20.6421848 C18.7964198,20.6421848 19.0202774,20.4183272 19.0202774,20.1421848 L19.02,19.233 L10.9157473,19.2332399 C10.4178921,19.2332399 9.96005134,19.1545718 9.5422252,18.9972357 Z M6.97572298,3.78668312 C7.56578719,5.17924158 7.26239639,6.01233225 5.9030494,6.459643 L5.73484635,6.51147966 C4.71986429,6.85040012 4.14515392,6.76253337 3.66330781,6.02450294 C2.88902673,4.83855794 2.59264097,2.7620986 3.89327891,2.23204456 C5.29730801,1.65985511 6.27543067,2.13398507 6.97572298,3.78668312 Z M4.27067625,3.15809598 C3.82831235,3.33837427 4.03101519,4.75849712 4.50064735,5.47781978 C4.68392766,5.75854517 4.78576966,5.77411566 5.43772483,5.55686078 C6.31430198,5.3036503 6.43271108,5.11269018 6.1096095,4.30893082 L6.05497056,4.17683051 C5.55837599,3.0048615 5.14196906,2.80301463 4.27067625,3.15809598 Z" id="path-1"></path>
    </defs>
    <g id="Page-1" stroke="none" stroke-width="1" fill="none" fill-rule="evenodd">
        <g id="Bus-Amenities" transform="translate(-383.000000, -776.000000)">
            <g id="Bus-Amenities-/-Seat-/-Without-Window" transform="translate(380.000000, 774.000000)">
                <rect id="Rectangle" x="0" y="0" width="24" height="24"></rect>
                <mask id="mask-2" fill="white">
                    <use xlink:href="#path-1"></use>
                </mask>
                <use id="Shape" fill="#000000" fill-rule="nonzero" xlink:href="#path-1"></use>
                <g id="color-/-black" mask="url(#mask-2)">
                    <rect id="Rectangle" x="0" y="0" width="24" height="24"></rect>
                    <rect id="Rectangle" fill="#000000" fill-rule="evenodd" x="0" y="0" width="24" height="24"></rect>
                </g>
            </g>
        </g>
    </g>
</svg>