<?xml version="1.0" encoding="UTF-8"?>
<svg width="24px" height="24px" viewBox="0 0 24 24" version="1.1" xmlns="http://www.w3.org/2000/svg" xmlns:xlink="http://www.w3.org/1999/xlink">
    <title>mdpi/Icon/24x/Bookings</title>
    <g id="Icon/24x/Bookings" stroke="none" stroke-width="1" fill="none" fill-rule="evenodd">
        <path d="M12,2 C13.235,2 14.2895,2.7581 14.75196,3.828465 L14.82,4 L19,4 C20.05,4 20.9177686,4.82004132 20.9944872,5.85130541 L21,6 L21,20 C21,21.05 20.1799587,21.9177686 19.1486946,21.9944872 L19,22 L5,22 C3.95,22 3.0822314,21.1799587 3.00551277,20.1486946 L3,20 L3,6 C3,4.95 3.82004132,4.0822314 4.85130541,4.00551277 L5,4 L9.18,4 C9.6,2.84 10.7,2 12,2 Z M13,16 L8,16 C7.45,16 7,16.45 7,17 C7,17.5107143 7.3880102,17.9352041 7.88380102,17.9932398 L8,18 L13,18 C13.55,18 14,17.55 14,17 C14,16.4892857 13.6119898,16.0647959 13.116199,16.0067602 L13,16 Z M16,12 L8,12 C7.45,12 7,12.45 7,13 C7,13.5107143 7.3880102,13.9352041 7.88380102,13.9932398 L8,14 L16,14 C16.55,14 17,13.55 17,13 C17,12.45 16.55,12 16,12 Z M16,8 L8,8 C7.45,8 7,8.45 7,9 C7,9.51071429 7.3880102,9.93520408 7.88380102,9.9932398 L8,10 L16,10 C16.55,10 17,9.55 17,9 C17,8.45 16.55,8 16,8 Z M12,4 C11.45,4 11,4.45 11,5 C11,5.55 11.45,6 12,6 C12.55,6 13,5.55 13,5 C13,4.45 12.55,4 12,4 Z" id="Shape" fill="#AFAFAF"></path>
    </g>
</svg>