<svg width="25" height="24" viewBox="0 0 25 24" fill="none" xmlns="http://www.w3.org/2000/svg">
<g id="profile">
<g id="profile_2">
<path id="Vector" d="M12.7846 10.87C12.6846 10.86 12.5646 10.86 12.4546 10.87C10.0746 10.79 8.18457 8.84 8.18457 6.44C8.18457 3.99 10.1646 2 12.6246 2C15.0746 2 17.0646 3.99 17.0646 6.44C17.0546 8.84 15.1646 10.79 12.7846 10.87Z" fill="#191966"/>
<path id="Vector_2" d="M7.78473 14.56C5.36473 16.18 5.36473 18.82 7.78473 20.43C10.5347 22.27 15.0447 22.27 17.7947 20.43C20.2147 18.81 20.2147 16.17 17.7947 14.56C15.0547 12.73 10.5447 12.73 7.78473 14.56Z" fill="#191966"/>
</g>
</g>
</svg>
