<svg width="25" height="24" viewBox="0 0 25 24" fill="none" xmlns="http://www.w3.org/2000/svg">
<g clip-path="url(#clip0_135_1447)">
<path d="M8.625 16L10.625 10L16.625 8L14.625 14L8.625 16Z" stroke="#A0A0A0" stroke-width="1.5" stroke-linecap="round" stroke-linejoin="round"/>
<path d="M3.625 12C3.625 13.1819 3.85779 14.3522 4.31008 15.4442C4.76238 16.5361 5.42531 17.5282 6.26104 18.364C7.09677 19.1997 8.08892 19.8626 9.18085 20.3149C10.2728 20.7672 11.4431 21 12.625 21C13.8069 21 14.9772 20.7672 16.0692 20.3149C17.1611 19.8626 18.1532 19.1997 18.989 18.364C19.8247 17.5282 20.4876 16.5361 20.9399 15.4442C21.3922 14.3522 21.625 13.1819 21.625 12C21.625 10.8181 21.3922 9.64778 20.9399 8.55585C20.4876 7.46392 19.8247 6.47177 18.989 5.63604C18.1532 4.80031 17.1611 4.13738 16.0692 3.68508C14.9772 3.23279 13.8069 3 12.625 3C11.4431 3 10.2728 3.23279 9.18085 3.68508C8.08892 4.13738 7.09677 4.80031 6.26104 5.63604C5.42531 6.47177 4.76238 7.46392 4.31008 8.55585C3.85779 9.64778 3.625 10.8181 3.625 12Z" stroke="#A0A0A0" stroke-width="1.5" stroke-linecap="round" stroke-linejoin="round"/>
</g>
<defs>
<clipPath id="clip0_135_1447">
<rect width="24" height="24" fill="white" transform="translate(0.625)"/>
</clipPath>
</defs>
</svg>
