<svg width="25" height="24" viewBox="0 0 25 24" fill="none" xmlns="http://www.w3.org/2000/svg">
<path d="M12.285 10.87C12.185 10.86 12.065 10.86 11.955 10.87C9.575 10.79 7.685 8.84 7.685 6.44C7.685 3.99 9.665 2 12.125 2C14.575 2 16.565 3.99 16.565 6.44C16.555 8.84 14.665 10.79 12.285 10.87Z" stroke="#A0A0A0" stroke-width="1.5" stroke-linecap="round" stroke-linejoin="round"/>
<path d="M7.285 14.56C4.865 16.18 4.865 18.82 7.285 20.43C10.035 22.27 14.545 22.27 17.295 20.43C19.715 18.81 19.715 16.17 17.295 14.56C14.555 12.73 10.045 12.73 7.285 14.56Z" stroke="#A0A0A0" stroke-width="1.5" stroke-linecap="round" stroke-linejoin="round"/>
</svg>
