<?xml version="1.0" encoding="UTF-8"?>
<svg width="24px" height="24px" viewBox="0 0 24 24" version="1.1" xmlns="http://www.w3.org/2000/svg" xmlns:xlink="http://www.w3.org/1999/xlink">
    <title>mdpi/Icon/24x/Home</title>
    <g id="Icon/24x/Home" stroke="none" stroke-width="1" fill="none" fill-rule="evenodd">
        <path d="M13.3754893,4.06625302 L21.0890805,11.3738658 C21.2895468,11.5637812 21.2981,11.8802481 21.1081845,12.0807144 C21.0137598,12.180385 20.8825044,12.2368421 20.7452082,12.2368421 L18.9997918,12.2361584 L19,19 C19,19.5522847 18.5522847,20 18,20 L13.9997918,19.9991584 L14,14 L10,14 L9.9997918,19.9991584 L6,20 C5.44771525,20 5,19.5522847 5,19 L4.9997918,12.2361584 L3.2547918,12.2368421 C2.97864942,12.2368421 2.7547918,12.0129845 2.7547918,11.7368421 C2.7547918,11.5995459 2.81124892,11.4682905 2.91091947,11.3738658 L10.6245107,4.06625302 C11.3959031,3.33546017 12.6040969,3.33546017 13.3754893,4.06625302 Z" id="Path" fill="#AFAFAF"></path>
    </g>
</svg>