<svg width="25" height="24" viewBox="0 0 25 24" fill="none" xmlns="http://www.w3.org/2000/svg">
<g id="vuesax/linear/receipt-2">
<path id="Vector" d="M20.375 7.04V16.96C20.375 18.48 20.235 19.56 19.875 20.33C19.875 20.34 19.865 20.36 19.855 20.37C19.635 20.65 19.345 20.79 19.005 20.79C18.475 20.79 17.835 20.44 17.145 19.7C16.325 18.82 15.065 18.89 14.345 19.85L13.335 21.19C12.935 21.73 12.405 22 11.875 22C11.345 22 10.815 21.73 10.415 21.19L9.39502 19.84C8.68502 18.89 7.43499 18.82 6.61499 19.69L6.60498 19.7C5.47498 20.91 4.47502 21.09 3.89502 20.37C3.88502 20.36 3.875 20.34 3.875 20.33C3.515 19.56 3.375 18.48 3.375 16.96V7.04C3.375 5.52 3.515 4.44 3.875 3.67C3.875 3.66 3.87502 3.65 3.89502 3.64C4.46502 2.91 5.47498 3.09 6.60498 4.3L6.61499 4.31C7.43499 5.18 8.68502 5.11 9.39502 4.16L10.415 2.81C10.815 2.27 11.345 2 11.875 2C12.405 2 12.935 2.27 13.335 2.81L14.345 4.15C15.065 5.11 16.325 5.18 17.145 4.3C17.835 3.56 18.475 3.21 19.005 3.21C19.345 3.21 19.635 3.36 19.855 3.64C19.875 3.65 19.875 3.66 19.875 3.67C20.235 4.44 20.375 5.52 20.375 7.04Z" fill="#191966"/>
<path id="Vector_2" d="M8.375 10.25H16.375" stroke="white" stroke-width="1.5" stroke-linecap="round" stroke-linejoin="round"/>
<path id="Vector_3" d="M8.375 13.75H14.375" stroke="white" stroke-width="1.5" stroke-linecap="round" stroke-linejoin="round"/>
</g>
</svg>
